M48
;GenerationSoftware,Autodesk,EAGLE,9.0.0*%
;CreationDate,2018-04-25T18:29:15Z*%
FMAT,2
ICI,OFF
METRIC,TZ,000.000
T9C0.610
T8C0.800
T7C0.813
T6C0.900
T5C0.965
T4C1.000
T3C1.016
T2C1.118
T1C3.200
%
G90
M71
T1
X-18059Y-38659
X-38735Y17907
X38583Y-18212
X17907Y38354
T2
X-24604Y35442
X22631Y36347
X-20523Y35154
X28753Y32013
T3
X-17077Y-4443
X-17077Y-6983
X-17077Y-9523
X-17077Y-12063
X-17077Y-14603
X24409Y13995
X21869Y13995
X19329Y13995
X25143Y-28699
X36644Y17755
X34104Y17755
X31564Y17755
X-15265Y39421
X-17805Y39421
X-20345Y39421
X36726Y10942
X34186Y10942
X16789Y13995
X24409Y29235
X21869Y29235
X19329Y29235
X16789Y29235
X-12979Y15198
X-12979Y17738
X-12979Y20278
X-12979Y22818
X-12979Y25358
X-12979Y27898
X-12979Y30438
X-17077Y-1903
X-17077Y637
X20472Y-31471
X31646Y10942
T4
X34798Y2133
X32258Y2133
X29718Y2133
X27178Y2133
X24638Y2133
X22098Y2133
X19558Y2133
X17018Y2133
X14478Y2133
T5
X5893Y25578
X-4267Y10338
X5893Y30658
X5893Y33198
X5893Y35738
X5893Y28118
X5893Y40818
X3353Y40818
X3353Y35738
X3353Y33198
X3353Y30658
X5893Y43358
X5893Y38278
X-9347Y43358
X-9347Y40818
X-9347Y38278
X-9347Y35738
X5893Y23038
X5893Y20498
X5893Y17958
X5893Y15418
X5893Y12878
X5893Y10338
X3353Y10338
X813Y10338
X-1727Y10338
X-9347Y33198
X-9347Y30658
X-9347Y28118
X-6807Y10338
X-9347Y10338
X-9347Y12878
X-9347Y15418
X-9347Y17958
X-9347Y20498
X-9347Y23038
X-9347Y25578
T6
X-14768Y-27127
X-21268Y-27127
X-26908Y-19176
X14554Y-40716
X14554Y-33096
X14732Y-30345
X14732Y-22725
X-34814Y-23138
X-27194Y-23138
X25363Y5321
X17743Y5321
X-34528Y-19176
T7
X-18559Y7011
X-17289Y8916
X-16019Y7011
T8
X-12812Y-17916
X-12812Y-15916
X-12812Y-13916
X-12812Y-11916
X-12812Y-9916
X-12812Y-7916
X-12812Y-5916
X-12812Y-3916
X-12812Y-1916
X-12812Y84
X9188Y84
X9188Y-1916
X9188Y-3916
X9188Y-5916
X9188Y-7916
X9188Y-9916
X9188Y-11916
X9188Y-13916
X9188Y-15916
X9188Y-17916
T9
X8255Y4445
X4128Y14922
X14922Y11112
X14287Y8255
X2857Y14605
X13335Y13017
X13335Y7302
X11112Y23495
X9525Y7302
X12382Y6350
X12065Y13335
X17463Y10160
M30