%
M48
M72
T01C0.02400
T02C0.03150
T03C0.03200
T04C0.03543
T05C0.03800
T06C0.03937
T07C0.04000
T08C0.04400
T09C0.12598
%
T01
X218703Y264887
X311203Y269887
X311203Y274887
X294953Y360512
X293703Y399887
X233703Y404887
X306203Y154887
T02
X200096Y219220
X200096Y211346
X200096Y203472
X200096Y195598
X200096Y187724
X200096Y179850
X200096Y171976
X200096Y164102
X200096Y156228
X200096Y148354
X286710Y148354
X286710Y156228
X286710Y164102
X286710Y171976
X286710Y179850
X286710Y187724
X286710Y195598
X286710Y203472
X286710Y211346
X286710Y219220
T03
X171803Y304487
X176803Y311987
X181803Y304487
T04
X86603Y210387
X116603Y210387
X133803Y209787
X163803Y209787
X164398Y175087
X138808Y175087
X282203Y130087
X308503Y120587
X312203Y130087
X308503Y90587
X313099Y422456
X284908Y432717
T05
X214403Y330587
X214403Y340587
X214403Y350587
X214403Y360587
X214403Y370587
X214403Y380587
X214403Y390587
X214403Y400587
X214403Y410587
X214403Y420587
X214403Y430587
X264403Y420587
X274403Y420587
X274403Y430587
X274403Y410587
X274403Y400587
X264403Y400587
X264403Y390587
X274403Y390587
X274403Y380587
X264403Y380587
X274403Y370587
X274403Y360587
X274403Y350587
X274403Y340587
X274403Y330587
X274403Y320587
X274403Y310587
X274403Y300587
X264403Y300587
X254403Y300587
X244403Y300587
X234403Y300587
X224403Y300587
X214403Y300587
X214403Y310587
X214403Y320587
T06
X392203Y262287
X382203Y262287
X372203Y262287
X362203Y262287
X352203Y262287
X342203Y262287
X332203Y262287
X322203Y262287
X312203Y262287
T07
X171103Y415087
X181103Y415087
X191103Y415087
X201103Y387387
X201103Y377387
X201103Y367387
X201103Y357387
X201103Y347387
X201103Y337387
X201103Y327387
X180303Y285387
X180303Y275387
X180303Y265387
X180303Y255387
X180303Y245387
X180303Y235387
X180303Y225387
X331803Y135987
X317303Y314987
X327303Y314987
X337303Y314987
X347303Y314987
X347303Y334987
X347303Y344987
X347303Y354987
X347303Y374987
X337303Y374987
X327303Y374987
X317303Y374987
X305929Y407834
X296866Y412060
X287803Y416287
X379803Y353787
X379803Y343787
X379803Y333787
T08
X152003Y405087
X170403Y398287
X366403Y389587
X340303Y402987
T09
X98703Y330387
X403103Y188187
X180103Y107687
X321703Y410887
M30
