G75*
%MOIN*%
%OFA0B0*%
%FSLAX25Y25*%
%IPPOS*%
%LPD*%
%AMOC8*
5,1,8,0,0,1.08239X$1,22.5*
%
%ADD10C,0.01000*%
%ADD11C,0.01600*%
%ADD12C,0.00000*%
%ADD13C,0.00512*%
%ADD14C,0.00600*%
%ADD15C,0.07000*%
%ADD16C,0.05800*%
%ADD17C,0.05150*%
%ADD18C,0.07400*%
%ADD19R,0.07400X0.07400*%
%ADD20C,0.07400*%
%ADD21OC8,0.06600*%
%ADD22C,0.01200*%
%ADD23C,0.04000*%
D10*
X0086603Y0210387D02*
X0086203Y0212387D01*
X0166203Y0292387D01*
X0166203Y0394887D01*
X0168703Y0397387D01*
X0170403Y0398287D01*
X0153703Y0407387D02*
X0152003Y0405087D01*
X0181103Y0415087D02*
X0181203Y0414887D01*
X0195053Y0401037D01*
X0206203Y0389887D01*
X0206203Y0352387D01*
X0201203Y0347387D01*
X0201103Y0347387D01*
X0201203Y0337387D02*
X0201103Y0337387D01*
X0201203Y0337387D02*
X0206203Y0332387D01*
X0206203Y0319887D01*
X0213703Y0312387D01*
X0214403Y0310587D01*
X0213703Y0302387D02*
X0214403Y0300587D01*
X0213703Y0302387D02*
X0193703Y0322387D01*
X0193703Y0372387D01*
X0198703Y0377387D01*
X0201103Y0377387D01*
X0195003Y0393687D02*
X0171203Y0369887D01*
X0171203Y0304887D01*
X0171803Y0304487D01*
X0173703Y0302387D01*
X0173703Y0282387D01*
X0178703Y0277387D01*
X0180303Y0275387D01*
X0180303Y0285387D02*
X0181203Y0287387D01*
X0181203Y0302387D01*
X0181803Y0304487D01*
X0218703Y0264887D02*
X0218703Y0347387D01*
X0216203Y0349887D01*
X0214403Y0350587D01*
X0228703Y0397387D02*
X0216203Y0409887D01*
X0214403Y0410587D01*
X0216203Y0419887D02*
X0214403Y0420587D01*
X0216203Y0419887D02*
X0223703Y0419887D01*
X0238703Y0404887D01*
X0238703Y0204887D01*
X0286203Y0157387D01*
X0286710Y0156228D01*
X0291203Y0157387D02*
X0286203Y0162387D01*
X0286710Y0164102D01*
X0291203Y0157387D02*
X0291203Y0144887D01*
X0288703Y0142387D01*
X0241603Y0142387D01*
X0228703Y0157087D02*
X0228703Y0397387D01*
X0233703Y0404887D02*
X0233703Y0302387D01*
X0234403Y0300587D01*
X0243703Y0302387D02*
X0244403Y0300587D01*
X0246203Y0299887D01*
X0246203Y0259887D01*
X0286203Y0219887D01*
X0286710Y0219220D01*
X0286203Y0217387D01*
X0293703Y0209887D01*
X0293703Y0107387D01*
X0312203Y0130087D02*
X0311203Y0132387D01*
X0296203Y0147387D01*
X0296203Y0309887D01*
X0276203Y0329887D01*
X0274403Y0330587D01*
X0294953Y0360512D02*
X0279328Y0376137D01*
X0279328Y0427387D01*
X0284328Y0432387D01*
X0284908Y0432717D01*
X0286203Y0422387D02*
X0311203Y0422387D01*
X0313099Y0422456D01*
X0305929Y0407834D02*
X0306203Y0407387D01*
X0306203Y0394687D01*
X0306203Y0154887D01*
X0298703Y0157387D02*
X0309303Y0146787D01*
X0318503Y0137387D02*
X0331203Y0137387D01*
X0298703Y0157387D02*
X0298703Y0409887D01*
X0296866Y0412060D01*
X0286203Y0422387D02*
X0281203Y0417387D01*
X0281203Y0412387D01*
X0293703Y0399887D01*
X0326103Y0389887D02*
X0366203Y0389887D01*
X0366403Y0389587D01*
X0379328Y0353637D02*
X0379803Y0353787D01*
X0379328Y0353637D02*
X0347453Y0321762D01*
X0347453Y0315512D01*
X0347303Y0314987D01*
X0346203Y0314887D01*
X0346203Y0274887D01*
X0333703Y0262387D01*
X0332203Y0262287D01*
X0323703Y0262387D02*
X0322203Y0262287D01*
X0323703Y0262387D02*
X0336203Y0274887D01*
X0336203Y0314887D01*
X0337303Y0314987D01*
X0327303Y0314987D02*
X0326203Y0314887D01*
X0326203Y0284887D01*
X0311203Y0269887D01*
X0311203Y0274887D02*
X0316203Y0279887D01*
X0316203Y0314887D01*
X0317303Y0314987D01*
X0066778Y0259287D02*
X0066834Y0263813D01*
X0067000Y0268336D01*
X0067278Y0272854D01*
X0067666Y0277364D01*
X0068165Y0281863D01*
X0068774Y0286348D01*
X0069493Y0290817D01*
X0070322Y0295267D01*
X0071259Y0299695D01*
X0072305Y0304099D01*
X0073459Y0308476D01*
X0074719Y0312823D01*
X0076086Y0317138D01*
X0077559Y0321418D01*
X0079136Y0325661D01*
X0080817Y0329863D01*
X0082600Y0334024D01*
X0084485Y0338139D01*
X0086470Y0342207D01*
X0088555Y0346224D01*
X0090737Y0350190D01*
X0093016Y0354100D01*
X0095391Y0357954D01*
X0097859Y0361748D01*
X0100420Y0365480D01*
X0103071Y0369149D01*
X0105812Y0372751D01*
X0108641Y0376285D01*
X0111555Y0379748D01*
X0114553Y0383139D01*
X0117634Y0386456D01*
X0120795Y0389695D01*
X0124034Y0392856D01*
X0127351Y0395937D01*
X0130742Y0398935D01*
X0134205Y0401849D01*
X0137739Y0404678D01*
X0141341Y0407419D01*
X0145010Y0410070D01*
X0148742Y0412631D01*
X0152536Y0415099D01*
X0156390Y0417474D01*
X0160300Y0419753D01*
X0164266Y0421935D01*
X0168283Y0424020D01*
X0172351Y0426005D01*
X0176466Y0427890D01*
X0180627Y0429673D01*
X0184829Y0431354D01*
X0189072Y0432931D01*
X0193352Y0434404D01*
X0197667Y0435771D01*
X0202014Y0437031D01*
X0206391Y0438185D01*
X0210795Y0439231D01*
X0215223Y0440168D01*
X0219673Y0440997D01*
X0224142Y0441716D01*
X0228627Y0442325D01*
X0233126Y0442824D01*
X0237636Y0443212D01*
X0242154Y0443490D01*
X0246677Y0443656D01*
X0251203Y0443712D01*
X0255729Y0443656D01*
X0260252Y0443490D01*
X0264770Y0443212D01*
X0269280Y0442824D01*
X0273779Y0442325D01*
X0278264Y0441716D01*
X0282733Y0440997D01*
X0287183Y0440168D01*
X0291611Y0439231D01*
X0296015Y0438185D01*
X0300392Y0437031D01*
X0304739Y0435771D01*
X0309054Y0434404D01*
X0313334Y0432931D01*
X0317577Y0431354D01*
X0321779Y0429673D01*
X0325940Y0427890D01*
X0330055Y0426005D01*
X0334123Y0424020D01*
X0338140Y0421935D01*
X0342106Y0419753D01*
X0346016Y0417474D01*
X0349870Y0415099D01*
X0353664Y0412631D01*
X0357396Y0410070D01*
X0361065Y0407419D01*
X0364667Y0404678D01*
X0368201Y0401849D01*
X0371664Y0398935D01*
X0375055Y0395937D01*
X0378372Y0392856D01*
X0381611Y0389695D01*
X0384772Y0386456D01*
X0387853Y0383139D01*
X0390851Y0379748D01*
X0393765Y0376285D01*
X0396594Y0372751D01*
X0399335Y0369149D01*
X0401986Y0365480D01*
X0404547Y0361748D01*
X0407015Y0357954D01*
X0409390Y0354100D01*
X0411669Y0350190D01*
X0413851Y0346224D01*
X0415936Y0342207D01*
X0417921Y0338139D01*
X0419806Y0334024D01*
X0421589Y0329863D01*
X0423270Y0325661D01*
X0424847Y0321418D01*
X0426320Y0317138D01*
X0427687Y0312823D01*
X0428947Y0308476D01*
X0430101Y0304099D01*
X0431147Y0299695D01*
X0432084Y0295267D01*
X0432913Y0290817D01*
X0433632Y0286348D01*
X0434241Y0281863D01*
X0434740Y0277364D01*
X0435128Y0272854D01*
X0435406Y0268336D01*
X0435572Y0263813D01*
X0435628Y0259287D01*
X0435572Y0254761D01*
X0435406Y0250238D01*
X0435128Y0245720D01*
X0434740Y0241210D01*
X0434241Y0236711D01*
X0433632Y0232226D01*
X0432913Y0227757D01*
X0432084Y0223307D01*
X0431147Y0218879D01*
X0430101Y0214475D01*
X0428947Y0210098D01*
X0427687Y0205751D01*
X0426320Y0201436D01*
X0424847Y0197156D01*
X0423270Y0192913D01*
X0421589Y0188711D01*
X0419806Y0184550D01*
X0417921Y0180435D01*
X0415936Y0176367D01*
X0413851Y0172350D01*
X0411669Y0168384D01*
X0409390Y0164474D01*
X0407015Y0160620D01*
X0404547Y0156826D01*
X0401986Y0153094D01*
X0399335Y0149425D01*
X0396594Y0145823D01*
X0393765Y0142289D01*
X0390851Y0138826D01*
X0387853Y0135435D01*
X0384772Y0132118D01*
X0381611Y0128879D01*
X0378372Y0125718D01*
X0375055Y0122637D01*
X0371664Y0119639D01*
X0368201Y0116725D01*
X0364667Y0113896D01*
X0361065Y0111155D01*
X0357396Y0108504D01*
X0353664Y0105943D01*
X0349870Y0103475D01*
X0346016Y0101100D01*
X0342106Y0098821D01*
X0338140Y0096639D01*
X0334123Y0094554D01*
X0330055Y0092569D01*
X0325940Y0090684D01*
X0321779Y0088901D01*
X0317577Y0087220D01*
X0313334Y0085643D01*
X0309054Y0084170D01*
X0304739Y0082803D01*
X0300392Y0081543D01*
X0296015Y0080389D01*
X0291611Y0079343D01*
X0287183Y0078406D01*
X0282733Y0077577D01*
X0278264Y0076858D01*
X0273779Y0076249D01*
X0269280Y0075750D01*
X0264770Y0075362D01*
X0260252Y0075084D01*
X0255729Y0074918D01*
X0251203Y0074862D01*
X0246677Y0074918D01*
X0242154Y0075084D01*
X0237636Y0075362D01*
X0233126Y0075750D01*
X0228627Y0076249D01*
X0224142Y0076858D01*
X0219673Y0077577D01*
X0215223Y0078406D01*
X0210795Y0079343D01*
X0206391Y0080389D01*
X0202014Y0081543D01*
X0197667Y0082803D01*
X0193352Y0084170D01*
X0189072Y0085643D01*
X0184829Y0087220D01*
X0180627Y0088901D01*
X0176466Y0090684D01*
X0172351Y0092569D01*
X0168283Y0094554D01*
X0164266Y0096639D01*
X0160300Y0098821D01*
X0156390Y0101100D01*
X0152536Y0103475D01*
X0148742Y0105943D01*
X0145010Y0108504D01*
X0141341Y0111155D01*
X0137739Y0113896D01*
X0134205Y0116725D01*
X0130742Y0119639D01*
X0127351Y0122637D01*
X0124034Y0125718D01*
X0120795Y0128879D01*
X0117634Y0132118D01*
X0114553Y0135435D01*
X0111555Y0138826D01*
X0108641Y0142289D01*
X0105812Y0145823D01*
X0103071Y0149425D01*
X0100420Y0153094D01*
X0097859Y0156826D01*
X0095391Y0160620D01*
X0093016Y0164474D01*
X0090737Y0168384D01*
X0088555Y0172350D01*
X0086470Y0176367D01*
X0084485Y0180435D01*
X0082600Y0184550D01*
X0080817Y0188711D01*
X0079136Y0192913D01*
X0077559Y0197156D01*
X0076086Y0201436D01*
X0074719Y0205751D01*
X0073459Y0210098D01*
X0072305Y0214475D01*
X0071259Y0218879D01*
X0070322Y0223307D01*
X0069493Y0227757D01*
X0068774Y0232226D01*
X0068165Y0236711D01*
X0067666Y0241210D01*
X0067278Y0245720D01*
X0067000Y0250238D01*
X0066834Y0254761D01*
X0066778Y0259287D01*
X0214403Y0430587D02*
X0216203Y0429887D01*
X0236003Y0429887D01*
X0243703Y0425187D02*
X0243703Y0302387D01*
D11*
X0331203Y0137387D02*
X0331203Y0135987D01*
X0331803Y0135987D01*
X0412477Y0170288D02*
X0412519Y0170379D01*
D12*
X0396804Y0188187D02*
X0396806Y0188345D01*
X0396812Y0188503D01*
X0396822Y0188661D01*
X0396836Y0188819D01*
X0396854Y0188976D01*
X0396875Y0189133D01*
X0396901Y0189289D01*
X0396931Y0189445D01*
X0396964Y0189600D01*
X0397002Y0189753D01*
X0397043Y0189906D01*
X0397088Y0190058D01*
X0397137Y0190209D01*
X0397190Y0190358D01*
X0397246Y0190506D01*
X0397306Y0190652D01*
X0397370Y0190797D01*
X0397438Y0190940D01*
X0397509Y0191082D01*
X0397583Y0191222D01*
X0397661Y0191359D01*
X0397743Y0191495D01*
X0397827Y0191629D01*
X0397916Y0191760D01*
X0398007Y0191889D01*
X0398102Y0192016D01*
X0398199Y0192141D01*
X0398300Y0192263D01*
X0398404Y0192382D01*
X0398511Y0192499D01*
X0398621Y0192613D01*
X0398734Y0192724D01*
X0398849Y0192833D01*
X0398967Y0192938D01*
X0399088Y0193040D01*
X0399211Y0193140D01*
X0399337Y0193236D01*
X0399465Y0193329D01*
X0399595Y0193419D01*
X0399728Y0193505D01*
X0399863Y0193589D01*
X0399999Y0193668D01*
X0400138Y0193745D01*
X0400279Y0193817D01*
X0400421Y0193887D01*
X0400565Y0193952D01*
X0400711Y0194014D01*
X0400858Y0194072D01*
X0401007Y0194127D01*
X0401157Y0194178D01*
X0401308Y0194225D01*
X0401460Y0194268D01*
X0401613Y0194307D01*
X0401768Y0194343D01*
X0401923Y0194374D01*
X0402079Y0194402D01*
X0402235Y0194426D01*
X0402392Y0194446D01*
X0402550Y0194462D01*
X0402707Y0194474D01*
X0402866Y0194482D01*
X0403024Y0194486D01*
X0403182Y0194486D01*
X0403340Y0194482D01*
X0403499Y0194474D01*
X0403656Y0194462D01*
X0403814Y0194446D01*
X0403971Y0194426D01*
X0404127Y0194402D01*
X0404283Y0194374D01*
X0404438Y0194343D01*
X0404593Y0194307D01*
X0404746Y0194268D01*
X0404898Y0194225D01*
X0405049Y0194178D01*
X0405199Y0194127D01*
X0405348Y0194072D01*
X0405495Y0194014D01*
X0405641Y0193952D01*
X0405785Y0193887D01*
X0405927Y0193817D01*
X0406068Y0193745D01*
X0406207Y0193668D01*
X0406343Y0193589D01*
X0406478Y0193505D01*
X0406611Y0193419D01*
X0406741Y0193329D01*
X0406869Y0193236D01*
X0406995Y0193140D01*
X0407118Y0193040D01*
X0407239Y0192938D01*
X0407357Y0192833D01*
X0407472Y0192724D01*
X0407585Y0192613D01*
X0407695Y0192499D01*
X0407802Y0192382D01*
X0407906Y0192263D01*
X0408007Y0192141D01*
X0408104Y0192016D01*
X0408199Y0191889D01*
X0408290Y0191760D01*
X0408379Y0191629D01*
X0408463Y0191495D01*
X0408545Y0191359D01*
X0408623Y0191222D01*
X0408697Y0191082D01*
X0408768Y0190940D01*
X0408836Y0190797D01*
X0408900Y0190652D01*
X0408960Y0190506D01*
X0409016Y0190358D01*
X0409069Y0190209D01*
X0409118Y0190058D01*
X0409163Y0189906D01*
X0409204Y0189753D01*
X0409242Y0189600D01*
X0409275Y0189445D01*
X0409305Y0189289D01*
X0409331Y0189133D01*
X0409352Y0188976D01*
X0409370Y0188819D01*
X0409384Y0188661D01*
X0409394Y0188503D01*
X0409400Y0188345D01*
X0409402Y0188187D01*
X0409400Y0188029D01*
X0409394Y0187871D01*
X0409384Y0187713D01*
X0409370Y0187555D01*
X0409352Y0187398D01*
X0409331Y0187241D01*
X0409305Y0187085D01*
X0409275Y0186929D01*
X0409242Y0186774D01*
X0409204Y0186621D01*
X0409163Y0186468D01*
X0409118Y0186316D01*
X0409069Y0186165D01*
X0409016Y0186016D01*
X0408960Y0185868D01*
X0408900Y0185722D01*
X0408836Y0185577D01*
X0408768Y0185434D01*
X0408697Y0185292D01*
X0408623Y0185152D01*
X0408545Y0185015D01*
X0408463Y0184879D01*
X0408379Y0184745D01*
X0408290Y0184614D01*
X0408199Y0184485D01*
X0408104Y0184358D01*
X0408007Y0184233D01*
X0407906Y0184111D01*
X0407802Y0183992D01*
X0407695Y0183875D01*
X0407585Y0183761D01*
X0407472Y0183650D01*
X0407357Y0183541D01*
X0407239Y0183436D01*
X0407118Y0183334D01*
X0406995Y0183234D01*
X0406869Y0183138D01*
X0406741Y0183045D01*
X0406611Y0182955D01*
X0406478Y0182869D01*
X0406343Y0182785D01*
X0406207Y0182706D01*
X0406068Y0182629D01*
X0405927Y0182557D01*
X0405785Y0182487D01*
X0405641Y0182422D01*
X0405495Y0182360D01*
X0405348Y0182302D01*
X0405199Y0182247D01*
X0405049Y0182196D01*
X0404898Y0182149D01*
X0404746Y0182106D01*
X0404593Y0182067D01*
X0404438Y0182031D01*
X0404283Y0182000D01*
X0404127Y0181972D01*
X0403971Y0181948D01*
X0403814Y0181928D01*
X0403656Y0181912D01*
X0403499Y0181900D01*
X0403340Y0181892D01*
X0403182Y0181888D01*
X0403024Y0181888D01*
X0402866Y0181892D01*
X0402707Y0181900D01*
X0402550Y0181912D01*
X0402392Y0181928D01*
X0402235Y0181948D01*
X0402079Y0181972D01*
X0401923Y0182000D01*
X0401768Y0182031D01*
X0401613Y0182067D01*
X0401460Y0182106D01*
X0401308Y0182149D01*
X0401157Y0182196D01*
X0401007Y0182247D01*
X0400858Y0182302D01*
X0400711Y0182360D01*
X0400565Y0182422D01*
X0400421Y0182487D01*
X0400279Y0182557D01*
X0400138Y0182629D01*
X0399999Y0182706D01*
X0399863Y0182785D01*
X0399728Y0182869D01*
X0399595Y0182955D01*
X0399465Y0183045D01*
X0399337Y0183138D01*
X0399211Y0183234D01*
X0399088Y0183334D01*
X0398967Y0183436D01*
X0398849Y0183541D01*
X0398734Y0183650D01*
X0398621Y0183761D01*
X0398511Y0183875D01*
X0398404Y0183992D01*
X0398300Y0184111D01*
X0398199Y0184233D01*
X0398102Y0184358D01*
X0398007Y0184485D01*
X0397916Y0184614D01*
X0397827Y0184745D01*
X0397743Y0184879D01*
X0397661Y0185015D01*
X0397583Y0185152D01*
X0397509Y0185292D01*
X0397438Y0185434D01*
X0397370Y0185577D01*
X0397306Y0185722D01*
X0397246Y0185868D01*
X0397190Y0186016D01*
X0397137Y0186165D01*
X0397088Y0186316D01*
X0397043Y0186468D01*
X0397002Y0186621D01*
X0396964Y0186774D01*
X0396931Y0186929D01*
X0396901Y0187085D01*
X0396875Y0187241D01*
X0396854Y0187398D01*
X0396836Y0187555D01*
X0396822Y0187713D01*
X0396812Y0187871D01*
X0396806Y0188029D01*
X0396804Y0188187D01*
X0173804Y0107687D02*
X0173806Y0107845D01*
X0173812Y0108003D01*
X0173822Y0108161D01*
X0173836Y0108319D01*
X0173854Y0108476D01*
X0173875Y0108633D01*
X0173901Y0108789D01*
X0173931Y0108945D01*
X0173964Y0109100D01*
X0174002Y0109253D01*
X0174043Y0109406D01*
X0174088Y0109558D01*
X0174137Y0109709D01*
X0174190Y0109858D01*
X0174246Y0110006D01*
X0174306Y0110152D01*
X0174370Y0110297D01*
X0174438Y0110440D01*
X0174509Y0110582D01*
X0174583Y0110722D01*
X0174661Y0110859D01*
X0174743Y0110995D01*
X0174827Y0111129D01*
X0174916Y0111260D01*
X0175007Y0111389D01*
X0175102Y0111516D01*
X0175199Y0111641D01*
X0175300Y0111763D01*
X0175404Y0111882D01*
X0175511Y0111999D01*
X0175621Y0112113D01*
X0175734Y0112224D01*
X0175849Y0112333D01*
X0175967Y0112438D01*
X0176088Y0112540D01*
X0176211Y0112640D01*
X0176337Y0112736D01*
X0176465Y0112829D01*
X0176595Y0112919D01*
X0176728Y0113005D01*
X0176863Y0113089D01*
X0176999Y0113168D01*
X0177138Y0113245D01*
X0177279Y0113317D01*
X0177421Y0113387D01*
X0177565Y0113452D01*
X0177711Y0113514D01*
X0177858Y0113572D01*
X0178007Y0113627D01*
X0178157Y0113678D01*
X0178308Y0113725D01*
X0178460Y0113768D01*
X0178613Y0113807D01*
X0178768Y0113843D01*
X0178923Y0113874D01*
X0179079Y0113902D01*
X0179235Y0113926D01*
X0179392Y0113946D01*
X0179550Y0113962D01*
X0179707Y0113974D01*
X0179866Y0113982D01*
X0180024Y0113986D01*
X0180182Y0113986D01*
X0180340Y0113982D01*
X0180499Y0113974D01*
X0180656Y0113962D01*
X0180814Y0113946D01*
X0180971Y0113926D01*
X0181127Y0113902D01*
X0181283Y0113874D01*
X0181438Y0113843D01*
X0181593Y0113807D01*
X0181746Y0113768D01*
X0181898Y0113725D01*
X0182049Y0113678D01*
X0182199Y0113627D01*
X0182348Y0113572D01*
X0182495Y0113514D01*
X0182641Y0113452D01*
X0182785Y0113387D01*
X0182927Y0113317D01*
X0183068Y0113245D01*
X0183207Y0113168D01*
X0183343Y0113089D01*
X0183478Y0113005D01*
X0183611Y0112919D01*
X0183741Y0112829D01*
X0183869Y0112736D01*
X0183995Y0112640D01*
X0184118Y0112540D01*
X0184239Y0112438D01*
X0184357Y0112333D01*
X0184472Y0112224D01*
X0184585Y0112113D01*
X0184695Y0111999D01*
X0184802Y0111882D01*
X0184906Y0111763D01*
X0185007Y0111641D01*
X0185104Y0111516D01*
X0185199Y0111389D01*
X0185290Y0111260D01*
X0185379Y0111129D01*
X0185463Y0110995D01*
X0185545Y0110859D01*
X0185623Y0110722D01*
X0185697Y0110582D01*
X0185768Y0110440D01*
X0185836Y0110297D01*
X0185900Y0110152D01*
X0185960Y0110006D01*
X0186016Y0109858D01*
X0186069Y0109709D01*
X0186118Y0109558D01*
X0186163Y0109406D01*
X0186204Y0109253D01*
X0186242Y0109100D01*
X0186275Y0108945D01*
X0186305Y0108789D01*
X0186331Y0108633D01*
X0186352Y0108476D01*
X0186370Y0108319D01*
X0186384Y0108161D01*
X0186394Y0108003D01*
X0186400Y0107845D01*
X0186402Y0107687D01*
X0186400Y0107529D01*
X0186394Y0107371D01*
X0186384Y0107213D01*
X0186370Y0107055D01*
X0186352Y0106898D01*
X0186331Y0106741D01*
X0186305Y0106585D01*
X0186275Y0106429D01*
X0186242Y0106274D01*
X0186204Y0106121D01*
X0186163Y0105968D01*
X0186118Y0105816D01*
X0186069Y0105665D01*
X0186016Y0105516D01*
X0185960Y0105368D01*
X0185900Y0105222D01*
X0185836Y0105077D01*
X0185768Y0104934D01*
X0185697Y0104792D01*
X0185623Y0104652D01*
X0185545Y0104515D01*
X0185463Y0104379D01*
X0185379Y0104245D01*
X0185290Y0104114D01*
X0185199Y0103985D01*
X0185104Y0103858D01*
X0185007Y0103733D01*
X0184906Y0103611D01*
X0184802Y0103492D01*
X0184695Y0103375D01*
X0184585Y0103261D01*
X0184472Y0103150D01*
X0184357Y0103041D01*
X0184239Y0102936D01*
X0184118Y0102834D01*
X0183995Y0102734D01*
X0183869Y0102638D01*
X0183741Y0102545D01*
X0183611Y0102455D01*
X0183478Y0102369D01*
X0183343Y0102285D01*
X0183207Y0102206D01*
X0183068Y0102129D01*
X0182927Y0102057D01*
X0182785Y0101987D01*
X0182641Y0101922D01*
X0182495Y0101860D01*
X0182348Y0101802D01*
X0182199Y0101747D01*
X0182049Y0101696D01*
X0181898Y0101649D01*
X0181746Y0101606D01*
X0181593Y0101567D01*
X0181438Y0101531D01*
X0181283Y0101500D01*
X0181127Y0101472D01*
X0180971Y0101448D01*
X0180814Y0101428D01*
X0180656Y0101412D01*
X0180499Y0101400D01*
X0180340Y0101392D01*
X0180182Y0101388D01*
X0180024Y0101388D01*
X0179866Y0101392D01*
X0179707Y0101400D01*
X0179550Y0101412D01*
X0179392Y0101428D01*
X0179235Y0101448D01*
X0179079Y0101472D01*
X0178923Y0101500D01*
X0178768Y0101531D01*
X0178613Y0101567D01*
X0178460Y0101606D01*
X0178308Y0101649D01*
X0178157Y0101696D01*
X0178007Y0101747D01*
X0177858Y0101802D01*
X0177711Y0101860D01*
X0177565Y0101922D01*
X0177421Y0101987D01*
X0177279Y0102057D01*
X0177138Y0102129D01*
X0176999Y0102206D01*
X0176863Y0102285D01*
X0176728Y0102369D01*
X0176595Y0102455D01*
X0176465Y0102545D01*
X0176337Y0102638D01*
X0176211Y0102734D01*
X0176088Y0102834D01*
X0175967Y0102936D01*
X0175849Y0103041D01*
X0175734Y0103150D01*
X0175621Y0103261D01*
X0175511Y0103375D01*
X0175404Y0103492D01*
X0175300Y0103611D01*
X0175199Y0103733D01*
X0175102Y0103858D01*
X0175007Y0103985D01*
X0174916Y0104114D01*
X0174827Y0104245D01*
X0174743Y0104379D01*
X0174661Y0104515D01*
X0174583Y0104652D01*
X0174509Y0104792D01*
X0174438Y0104934D01*
X0174370Y0105077D01*
X0174306Y0105222D01*
X0174246Y0105368D01*
X0174190Y0105516D01*
X0174137Y0105665D01*
X0174088Y0105816D01*
X0174043Y0105968D01*
X0174002Y0106121D01*
X0173964Y0106274D01*
X0173931Y0106429D01*
X0173901Y0106585D01*
X0173875Y0106741D01*
X0173854Y0106898D01*
X0173836Y0107055D01*
X0173822Y0107213D01*
X0173812Y0107371D01*
X0173806Y0107529D01*
X0173804Y0107687D01*
X0092404Y0330387D02*
X0092406Y0330545D01*
X0092412Y0330703D01*
X0092422Y0330861D01*
X0092436Y0331019D01*
X0092454Y0331176D01*
X0092475Y0331333D01*
X0092501Y0331489D01*
X0092531Y0331645D01*
X0092564Y0331800D01*
X0092602Y0331953D01*
X0092643Y0332106D01*
X0092688Y0332258D01*
X0092737Y0332409D01*
X0092790Y0332558D01*
X0092846Y0332706D01*
X0092906Y0332852D01*
X0092970Y0332997D01*
X0093038Y0333140D01*
X0093109Y0333282D01*
X0093183Y0333422D01*
X0093261Y0333559D01*
X0093343Y0333695D01*
X0093427Y0333829D01*
X0093516Y0333960D01*
X0093607Y0334089D01*
X0093702Y0334216D01*
X0093799Y0334341D01*
X0093900Y0334463D01*
X0094004Y0334582D01*
X0094111Y0334699D01*
X0094221Y0334813D01*
X0094334Y0334924D01*
X0094449Y0335033D01*
X0094567Y0335138D01*
X0094688Y0335240D01*
X0094811Y0335340D01*
X0094937Y0335436D01*
X0095065Y0335529D01*
X0095195Y0335619D01*
X0095328Y0335705D01*
X0095463Y0335789D01*
X0095599Y0335868D01*
X0095738Y0335945D01*
X0095879Y0336017D01*
X0096021Y0336087D01*
X0096165Y0336152D01*
X0096311Y0336214D01*
X0096458Y0336272D01*
X0096607Y0336327D01*
X0096757Y0336378D01*
X0096908Y0336425D01*
X0097060Y0336468D01*
X0097213Y0336507D01*
X0097368Y0336543D01*
X0097523Y0336574D01*
X0097679Y0336602D01*
X0097835Y0336626D01*
X0097992Y0336646D01*
X0098150Y0336662D01*
X0098307Y0336674D01*
X0098466Y0336682D01*
X0098624Y0336686D01*
X0098782Y0336686D01*
X0098940Y0336682D01*
X0099099Y0336674D01*
X0099256Y0336662D01*
X0099414Y0336646D01*
X0099571Y0336626D01*
X0099727Y0336602D01*
X0099883Y0336574D01*
X0100038Y0336543D01*
X0100193Y0336507D01*
X0100346Y0336468D01*
X0100498Y0336425D01*
X0100649Y0336378D01*
X0100799Y0336327D01*
X0100948Y0336272D01*
X0101095Y0336214D01*
X0101241Y0336152D01*
X0101385Y0336087D01*
X0101527Y0336017D01*
X0101668Y0335945D01*
X0101807Y0335868D01*
X0101943Y0335789D01*
X0102078Y0335705D01*
X0102211Y0335619D01*
X0102341Y0335529D01*
X0102469Y0335436D01*
X0102595Y0335340D01*
X0102718Y0335240D01*
X0102839Y0335138D01*
X0102957Y0335033D01*
X0103072Y0334924D01*
X0103185Y0334813D01*
X0103295Y0334699D01*
X0103402Y0334582D01*
X0103506Y0334463D01*
X0103607Y0334341D01*
X0103704Y0334216D01*
X0103799Y0334089D01*
X0103890Y0333960D01*
X0103979Y0333829D01*
X0104063Y0333695D01*
X0104145Y0333559D01*
X0104223Y0333422D01*
X0104297Y0333282D01*
X0104368Y0333140D01*
X0104436Y0332997D01*
X0104500Y0332852D01*
X0104560Y0332706D01*
X0104616Y0332558D01*
X0104669Y0332409D01*
X0104718Y0332258D01*
X0104763Y0332106D01*
X0104804Y0331953D01*
X0104842Y0331800D01*
X0104875Y0331645D01*
X0104905Y0331489D01*
X0104931Y0331333D01*
X0104952Y0331176D01*
X0104970Y0331019D01*
X0104984Y0330861D01*
X0104994Y0330703D01*
X0105000Y0330545D01*
X0105002Y0330387D01*
X0105000Y0330229D01*
X0104994Y0330071D01*
X0104984Y0329913D01*
X0104970Y0329755D01*
X0104952Y0329598D01*
X0104931Y0329441D01*
X0104905Y0329285D01*
X0104875Y0329129D01*
X0104842Y0328974D01*
X0104804Y0328821D01*
X0104763Y0328668D01*
X0104718Y0328516D01*
X0104669Y0328365D01*
X0104616Y0328216D01*
X0104560Y0328068D01*
X0104500Y0327922D01*
X0104436Y0327777D01*
X0104368Y0327634D01*
X0104297Y0327492D01*
X0104223Y0327352D01*
X0104145Y0327215D01*
X0104063Y0327079D01*
X0103979Y0326945D01*
X0103890Y0326814D01*
X0103799Y0326685D01*
X0103704Y0326558D01*
X0103607Y0326433D01*
X0103506Y0326311D01*
X0103402Y0326192D01*
X0103295Y0326075D01*
X0103185Y0325961D01*
X0103072Y0325850D01*
X0102957Y0325741D01*
X0102839Y0325636D01*
X0102718Y0325534D01*
X0102595Y0325434D01*
X0102469Y0325338D01*
X0102341Y0325245D01*
X0102211Y0325155D01*
X0102078Y0325069D01*
X0101943Y0324985D01*
X0101807Y0324906D01*
X0101668Y0324829D01*
X0101527Y0324757D01*
X0101385Y0324687D01*
X0101241Y0324622D01*
X0101095Y0324560D01*
X0100948Y0324502D01*
X0100799Y0324447D01*
X0100649Y0324396D01*
X0100498Y0324349D01*
X0100346Y0324306D01*
X0100193Y0324267D01*
X0100038Y0324231D01*
X0099883Y0324200D01*
X0099727Y0324172D01*
X0099571Y0324148D01*
X0099414Y0324128D01*
X0099256Y0324112D01*
X0099099Y0324100D01*
X0098940Y0324092D01*
X0098782Y0324088D01*
X0098624Y0324088D01*
X0098466Y0324092D01*
X0098307Y0324100D01*
X0098150Y0324112D01*
X0097992Y0324128D01*
X0097835Y0324148D01*
X0097679Y0324172D01*
X0097523Y0324200D01*
X0097368Y0324231D01*
X0097213Y0324267D01*
X0097060Y0324306D01*
X0096908Y0324349D01*
X0096757Y0324396D01*
X0096607Y0324447D01*
X0096458Y0324502D01*
X0096311Y0324560D01*
X0096165Y0324622D01*
X0096021Y0324687D01*
X0095879Y0324757D01*
X0095738Y0324829D01*
X0095599Y0324906D01*
X0095463Y0324985D01*
X0095328Y0325069D01*
X0095195Y0325155D01*
X0095065Y0325245D01*
X0094937Y0325338D01*
X0094811Y0325434D01*
X0094688Y0325534D01*
X0094567Y0325636D01*
X0094449Y0325741D01*
X0094334Y0325850D01*
X0094221Y0325961D01*
X0094111Y0326075D01*
X0094004Y0326192D01*
X0093900Y0326311D01*
X0093799Y0326433D01*
X0093702Y0326558D01*
X0093607Y0326685D01*
X0093516Y0326814D01*
X0093427Y0326945D01*
X0093343Y0327079D01*
X0093261Y0327215D01*
X0093183Y0327352D01*
X0093109Y0327492D01*
X0093038Y0327634D01*
X0092970Y0327777D01*
X0092906Y0327922D01*
X0092846Y0328068D01*
X0092790Y0328216D01*
X0092737Y0328365D01*
X0092688Y0328516D01*
X0092643Y0328668D01*
X0092602Y0328821D01*
X0092564Y0328974D01*
X0092531Y0329129D01*
X0092501Y0329285D01*
X0092475Y0329441D01*
X0092454Y0329598D01*
X0092436Y0329755D01*
X0092422Y0329913D01*
X0092412Y0330071D01*
X0092406Y0330229D01*
X0092404Y0330387D01*
X0315404Y0410887D02*
X0315406Y0411045D01*
X0315412Y0411203D01*
X0315422Y0411361D01*
X0315436Y0411519D01*
X0315454Y0411676D01*
X0315475Y0411833D01*
X0315501Y0411989D01*
X0315531Y0412145D01*
X0315564Y0412300D01*
X0315602Y0412453D01*
X0315643Y0412606D01*
X0315688Y0412758D01*
X0315737Y0412909D01*
X0315790Y0413058D01*
X0315846Y0413206D01*
X0315906Y0413352D01*
X0315970Y0413497D01*
X0316038Y0413640D01*
X0316109Y0413782D01*
X0316183Y0413922D01*
X0316261Y0414059D01*
X0316343Y0414195D01*
X0316427Y0414329D01*
X0316516Y0414460D01*
X0316607Y0414589D01*
X0316702Y0414716D01*
X0316799Y0414841D01*
X0316900Y0414963D01*
X0317004Y0415082D01*
X0317111Y0415199D01*
X0317221Y0415313D01*
X0317334Y0415424D01*
X0317449Y0415533D01*
X0317567Y0415638D01*
X0317688Y0415740D01*
X0317811Y0415840D01*
X0317937Y0415936D01*
X0318065Y0416029D01*
X0318195Y0416119D01*
X0318328Y0416205D01*
X0318463Y0416289D01*
X0318599Y0416368D01*
X0318738Y0416445D01*
X0318879Y0416517D01*
X0319021Y0416587D01*
X0319165Y0416652D01*
X0319311Y0416714D01*
X0319458Y0416772D01*
X0319607Y0416827D01*
X0319757Y0416878D01*
X0319908Y0416925D01*
X0320060Y0416968D01*
X0320213Y0417007D01*
X0320368Y0417043D01*
X0320523Y0417074D01*
X0320679Y0417102D01*
X0320835Y0417126D01*
X0320992Y0417146D01*
X0321150Y0417162D01*
X0321307Y0417174D01*
X0321466Y0417182D01*
X0321624Y0417186D01*
X0321782Y0417186D01*
X0321940Y0417182D01*
X0322099Y0417174D01*
X0322256Y0417162D01*
X0322414Y0417146D01*
X0322571Y0417126D01*
X0322727Y0417102D01*
X0322883Y0417074D01*
X0323038Y0417043D01*
X0323193Y0417007D01*
X0323346Y0416968D01*
X0323498Y0416925D01*
X0323649Y0416878D01*
X0323799Y0416827D01*
X0323948Y0416772D01*
X0324095Y0416714D01*
X0324241Y0416652D01*
X0324385Y0416587D01*
X0324527Y0416517D01*
X0324668Y0416445D01*
X0324807Y0416368D01*
X0324943Y0416289D01*
X0325078Y0416205D01*
X0325211Y0416119D01*
X0325341Y0416029D01*
X0325469Y0415936D01*
X0325595Y0415840D01*
X0325718Y0415740D01*
X0325839Y0415638D01*
X0325957Y0415533D01*
X0326072Y0415424D01*
X0326185Y0415313D01*
X0326295Y0415199D01*
X0326402Y0415082D01*
X0326506Y0414963D01*
X0326607Y0414841D01*
X0326704Y0414716D01*
X0326799Y0414589D01*
X0326890Y0414460D01*
X0326979Y0414329D01*
X0327063Y0414195D01*
X0327145Y0414059D01*
X0327223Y0413922D01*
X0327297Y0413782D01*
X0327368Y0413640D01*
X0327436Y0413497D01*
X0327500Y0413352D01*
X0327560Y0413206D01*
X0327616Y0413058D01*
X0327669Y0412909D01*
X0327718Y0412758D01*
X0327763Y0412606D01*
X0327804Y0412453D01*
X0327842Y0412300D01*
X0327875Y0412145D01*
X0327905Y0411989D01*
X0327931Y0411833D01*
X0327952Y0411676D01*
X0327970Y0411519D01*
X0327984Y0411361D01*
X0327994Y0411203D01*
X0328000Y0411045D01*
X0328002Y0410887D01*
X0328000Y0410729D01*
X0327994Y0410571D01*
X0327984Y0410413D01*
X0327970Y0410255D01*
X0327952Y0410098D01*
X0327931Y0409941D01*
X0327905Y0409785D01*
X0327875Y0409629D01*
X0327842Y0409474D01*
X0327804Y0409321D01*
X0327763Y0409168D01*
X0327718Y0409016D01*
X0327669Y0408865D01*
X0327616Y0408716D01*
X0327560Y0408568D01*
X0327500Y0408422D01*
X0327436Y0408277D01*
X0327368Y0408134D01*
X0327297Y0407992D01*
X0327223Y0407852D01*
X0327145Y0407715D01*
X0327063Y0407579D01*
X0326979Y0407445D01*
X0326890Y0407314D01*
X0326799Y0407185D01*
X0326704Y0407058D01*
X0326607Y0406933D01*
X0326506Y0406811D01*
X0326402Y0406692D01*
X0326295Y0406575D01*
X0326185Y0406461D01*
X0326072Y0406350D01*
X0325957Y0406241D01*
X0325839Y0406136D01*
X0325718Y0406034D01*
X0325595Y0405934D01*
X0325469Y0405838D01*
X0325341Y0405745D01*
X0325211Y0405655D01*
X0325078Y0405569D01*
X0324943Y0405485D01*
X0324807Y0405406D01*
X0324668Y0405329D01*
X0324527Y0405257D01*
X0324385Y0405187D01*
X0324241Y0405122D01*
X0324095Y0405060D01*
X0323948Y0405002D01*
X0323799Y0404947D01*
X0323649Y0404896D01*
X0323498Y0404849D01*
X0323346Y0404806D01*
X0323193Y0404767D01*
X0323038Y0404731D01*
X0322883Y0404700D01*
X0322727Y0404672D01*
X0322571Y0404648D01*
X0322414Y0404628D01*
X0322256Y0404612D01*
X0322099Y0404600D01*
X0321940Y0404592D01*
X0321782Y0404588D01*
X0321624Y0404588D01*
X0321466Y0404592D01*
X0321307Y0404600D01*
X0321150Y0404612D01*
X0320992Y0404628D01*
X0320835Y0404648D01*
X0320679Y0404672D01*
X0320523Y0404700D01*
X0320368Y0404731D01*
X0320213Y0404767D01*
X0320060Y0404806D01*
X0319908Y0404849D01*
X0319757Y0404896D01*
X0319607Y0404947D01*
X0319458Y0405002D01*
X0319311Y0405060D01*
X0319165Y0405122D01*
X0319021Y0405187D01*
X0318879Y0405257D01*
X0318738Y0405329D01*
X0318599Y0405406D01*
X0318463Y0405485D01*
X0318328Y0405569D01*
X0318195Y0405655D01*
X0318065Y0405745D01*
X0317937Y0405838D01*
X0317811Y0405934D01*
X0317688Y0406034D01*
X0317567Y0406136D01*
X0317449Y0406241D01*
X0317334Y0406350D01*
X0317221Y0406461D01*
X0317111Y0406575D01*
X0317004Y0406692D01*
X0316900Y0406811D01*
X0316799Y0406933D01*
X0316702Y0407058D01*
X0316607Y0407185D01*
X0316516Y0407314D01*
X0316427Y0407445D01*
X0316343Y0407579D01*
X0316261Y0407715D01*
X0316183Y0407852D01*
X0316109Y0407992D01*
X0316038Y0408134D01*
X0315970Y0408277D01*
X0315906Y0408422D01*
X0315846Y0408568D01*
X0315790Y0408716D01*
X0315737Y0408865D01*
X0315688Y0409016D01*
X0315643Y0409168D01*
X0315602Y0409321D01*
X0315564Y0409474D01*
X0315531Y0409629D01*
X0315501Y0409785D01*
X0315475Y0409941D01*
X0315454Y0410098D01*
X0315436Y0410255D01*
X0315422Y0410413D01*
X0315412Y0410571D01*
X0315406Y0410729D01*
X0315404Y0410887D01*
D13*
X0251203Y0260543D02*
X0251203Y0258030D01*
X0249946Y0259287D02*
X0252460Y0259287D01*
X0419704Y0184319D02*
X0338258Y0001256D01*
X0341145Y0008374D02*
X0331610Y0011496D01*
X0331516Y0011283D02*
X0341145Y0008374D01*
X0332443Y0013366D01*
X0332537Y0013579D02*
X0331516Y0011283D01*
X0331818Y0011963D02*
X0341145Y0008374D01*
X0332234Y0012899D01*
X0332537Y0013579D02*
X0341145Y0008374D01*
X0004610Y0158101D01*
X0013313Y0153109D01*
X0013218Y0152896D02*
X0004610Y0158101D01*
X0014145Y0154979D01*
X0014240Y0155192D02*
X0013218Y0152896D01*
X0013521Y0153576D02*
X0004610Y0158101D01*
X0013937Y0154512D01*
X0014240Y0155192D02*
X0004610Y0158101D01*
X0001256Y0151191D02*
X0082702Y0334254D01*
D14*
X0165761Y0097040D02*
X0164219Y0096448D01*
X0163745Y0095381D01*
X0164336Y0093839D01*
X0167536Y0092415D01*
X0168486Y0094548D02*
X0166587Y0090281D01*
X0165045Y0089689D01*
X0162912Y0090639D01*
X0162320Y0092181D01*
X0165761Y0097040D02*
X0167895Y0096090D01*
X0168486Y0094548D01*
X0170612Y0093601D02*
X0172154Y0094193D01*
X0174287Y0093243D01*
X0174879Y0091702D01*
X0174404Y0090635D01*
X0172863Y0090043D01*
X0173454Y0088502D01*
X0172980Y0087435D01*
X0171438Y0086843D01*
X0169304Y0087793D01*
X0168713Y0089335D01*
X0171796Y0090518D02*
X0172863Y0090043D01*
X0175106Y0086488D02*
X0174631Y0085422D01*
X0175697Y0084947D01*
X0176172Y0086013D01*
X0175106Y0086488D01*
X0178302Y0085065D02*
X0178894Y0083523D01*
X0181027Y0082574D01*
X0182569Y0083165D01*
X0183044Y0084232D01*
X0182452Y0085774D01*
X0179252Y0087198D01*
X0178302Y0085065D01*
X0179252Y0087198D02*
X0182335Y0088382D01*
X0184944Y0088499D01*
X0186595Y0086486D02*
X0186120Y0085419D01*
X0186712Y0083877D01*
X0189912Y0082452D01*
X0188962Y0080319D02*
X0190862Y0084586D01*
X0190270Y0086127D01*
X0188136Y0087077D01*
X0186595Y0086486D01*
X0184695Y0082219D02*
X0185287Y0080677D01*
X0187420Y0079727D01*
X0188962Y0080319D01*
D15*
X0312203Y0262287D03*
X0322203Y0262287D03*
X0332203Y0262287D03*
X0342203Y0262287D03*
X0352203Y0262287D03*
X0362203Y0262287D03*
X0372203Y0262287D03*
X0382203Y0262287D03*
X0392203Y0262287D03*
D16*
X0274403Y0300587D03*
X0274403Y0310587D03*
X0264403Y0300587D03*
X0254403Y0300587D03*
X0244403Y0300587D03*
X0234403Y0300587D03*
X0224403Y0300587D03*
X0214403Y0300587D03*
X0214403Y0310587D03*
X0214403Y0320587D03*
X0214403Y0330587D03*
X0214403Y0340587D03*
X0214403Y0350587D03*
X0214403Y0360587D03*
X0214403Y0370587D03*
X0214403Y0380587D03*
X0214403Y0390587D03*
X0214403Y0400587D03*
X0214403Y0410587D03*
X0214403Y0420587D03*
X0214403Y0430587D03*
X0264403Y0420587D03*
X0274403Y0420587D03*
X0274403Y0430587D03*
X0274403Y0410587D03*
X0274403Y0400587D03*
X0264403Y0400587D03*
X0264403Y0390587D03*
X0274403Y0390587D03*
X0274403Y0380587D03*
X0264403Y0380587D03*
X0274403Y0370587D03*
X0274403Y0360587D03*
X0274403Y0350587D03*
X0274403Y0340587D03*
X0274403Y0330587D03*
X0274403Y0320587D03*
D17*
X0286710Y0219220D03*
X0286710Y0211346D03*
X0286710Y0203472D03*
X0286710Y0195598D03*
X0286710Y0187724D03*
X0286710Y0179850D03*
X0286710Y0171976D03*
X0286710Y0164102D03*
X0286710Y0156228D03*
X0286710Y0148354D03*
X0200096Y0148354D03*
X0200096Y0156228D03*
X0200096Y0164102D03*
X0200096Y0171976D03*
X0200096Y0179850D03*
X0200096Y0187724D03*
X0200096Y0195598D03*
X0200096Y0203472D03*
X0200096Y0211346D03*
X0200096Y0219220D03*
D18*
X0180303Y0225387D03*
X0180303Y0235387D03*
X0180303Y0245387D03*
X0180303Y0255387D03*
X0180303Y0265387D03*
X0180303Y0275387D03*
X0180303Y0285387D03*
X0201103Y0327387D03*
X0201103Y0337387D03*
X0201103Y0347387D03*
X0201103Y0357387D03*
X0201103Y0367387D03*
X0201103Y0377387D03*
X0201103Y0387387D03*
X0191103Y0415087D03*
X0181103Y0415087D03*
X0171103Y0415087D03*
X0284908Y0432717D03*
X0287803Y0416287D03*
X0296866Y0412060D03*
X0305929Y0407834D03*
X0313099Y0422456D03*
X0327303Y0374987D03*
X0337303Y0374987D03*
X0347303Y0374987D03*
X0347303Y0354987D03*
X0347303Y0344987D03*
X0347303Y0334987D03*
X0347303Y0314987D03*
X0337303Y0314987D03*
X0327303Y0314987D03*
X0379803Y0333787D03*
X0379803Y0343787D03*
X0379803Y0353787D03*
X0331803Y0135987D03*
X0312203Y0130087D03*
X0308503Y0120587D03*
X0282203Y0130087D03*
X0308503Y0090587D03*
X0164398Y0175087D03*
X0138808Y0175087D03*
X0133803Y0209787D03*
X0116603Y0210387D03*
X0086603Y0210387D03*
X0163803Y0209787D03*
D19*
X0317303Y0314987D03*
X0317303Y0374987D03*
D20*
X0340303Y0399287D02*
X0340303Y0406687D01*
X0366403Y0396987D02*
X0366403Y0389587D01*
X0170403Y0394587D02*
X0170403Y0401987D01*
X0152003Y0401387D02*
X0152003Y0408787D01*
D21*
X0176803Y0311987D03*
X0171803Y0304487D03*
X0181803Y0304487D03*
D22*
X0117303Y0155487D02*
X0126903Y0145987D01*
X0149603Y0145187D01*
X0192403Y0144887D01*
X0203603Y0132887D01*
X0212403Y0124187D01*
X0225503Y0117487D01*
X0227536Y0117653D01*
X0230503Y0118287D01*
X0235903Y0117387D01*
X0242503Y0117687D01*
X0245403Y0118587D01*
X0290403Y0116787D01*
X0290303Y0099987D01*
X0303326Y0089397D01*
X0303203Y0090169D01*
X0303203Y0090301D01*
X0308217Y0090301D01*
X0308217Y0090872D01*
X0303203Y0090872D01*
X0303203Y0091004D01*
X0303334Y0091828D01*
X0303592Y0092621D01*
X0303970Y0093364D01*
X0304461Y0094039D01*
X0305050Y0094629D01*
X0305725Y0095120D01*
X0306469Y0095498D01*
X0307262Y0095756D01*
X0308086Y0095887D01*
X0308217Y0095887D01*
X0308217Y0090872D01*
X0308789Y0090872D01*
X0308789Y0095887D01*
X0308920Y0095887D01*
X0309744Y0095756D01*
X0310538Y0095498D01*
X0311281Y0095120D01*
X0311956Y0094629D01*
X0312546Y0094039D01*
X0313036Y0093364D01*
X0313415Y0092621D01*
X0313673Y0091828D01*
X0313741Y0091396D01*
X0318884Y0093224D01*
X0321633Y0094493D01*
X0326703Y0098087D01*
X0325303Y0110087D01*
X0325822Y0135487D01*
X0319432Y0135487D01*
X0319332Y0135387D01*
X0317675Y0135387D01*
X0307303Y0145758D01*
X0307303Y0146100D01*
X0298103Y0155300D01*
X0298103Y0148174D01*
X0311119Y0135158D01*
X0311189Y0135187D01*
X0313218Y0135187D01*
X0315092Y0134410D01*
X0316527Y0132975D01*
X0317303Y0131101D01*
X0317303Y0129072D01*
X0316527Y0127198D01*
X0315092Y0125763D01*
X0313218Y0124987D01*
X0311208Y0124987D01*
X0311392Y0124910D01*
X0312827Y0123475D01*
X0313603Y0121601D01*
X0313603Y0119572D01*
X0312827Y0117698D01*
X0311392Y0116263D01*
X0309518Y0115487D01*
X0307489Y0115487D01*
X0305614Y0116263D01*
X0304180Y0117698D01*
X0303403Y0119572D01*
X0303403Y0121601D01*
X0304180Y0123475D01*
X0305614Y0124910D01*
X0307489Y0125687D01*
X0309499Y0125687D01*
X0309314Y0125763D01*
X0307880Y0127198D01*
X0307103Y0129072D01*
X0307103Y0131101D01*
X0307880Y0132975D01*
X0307903Y0132999D01*
X0295416Y0145487D01*
X0295416Y0145487D01*
X0294303Y0146600D01*
X0294303Y0309100D01*
X0276572Y0326831D01*
X0275259Y0326287D01*
X0273548Y0326287D01*
X0271967Y0326941D01*
X0270758Y0328151D01*
X0270103Y0329731D01*
X0270103Y0331442D01*
X0270758Y0333022D01*
X0271967Y0334232D01*
X0273548Y0334887D01*
X0275259Y0334887D01*
X0276839Y0334232D01*
X0278049Y0333022D01*
X0278703Y0331442D01*
X0278703Y0330074D01*
X0296803Y0311974D01*
X0296803Y0357598D01*
X0295630Y0357112D01*
X0294277Y0357112D01*
X0293027Y0357629D01*
X0292071Y0358586D01*
X0291553Y0359835D01*
X0291553Y0361188D01*
X0291564Y0361214D01*
X0278541Y0374237D01*
X0277428Y0375350D01*
X0277428Y0377530D01*
X0276839Y0376941D01*
X0275259Y0376287D01*
X0273548Y0376287D01*
X0271967Y0376941D01*
X0270758Y0378151D01*
X0270103Y0379731D01*
X0270103Y0381442D01*
X0270758Y0383022D01*
X0271967Y0384232D01*
X0273548Y0384887D01*
X0275259Y0384887D01*
X0276839Y0384232D01*
X0277428Y0383643D01*
X0277428Y0387530D01*
X0276839Y0386941D01*
X0275259Y0386287D01*
X0273548Y0386287D01*
X0271967Y0386941D01*
X0270758Y0388151D01*
X0270103Y0389731D01*
X0270103Y0391442D01*
X0270758Y0393022D01*
X0271967Y0394232D01*
X0273548Y0394887D01*
X0275259Y0394887D01*
X0276839Y0394232D01*
X0277428Y0393643D01*
X0277428Y0397530D01*
X0276839Y0396941D01*
X0275259Y0396287D01*
X0273548Y0396287D01*
X0271967Y0396941D01*
X0270758Y0398151D01*
X0270103Y0399731D01*
X0270103Y0401442D01*
X0270758Y0403022D01*
X0271967Y0404232D01*
X0273548Y0404887D01*
X0275259Y0404887D01*
X0276839Y0404232D01*
X0277428Y0403643D01*
X0277428Y0407530D01*
X0276839Y0406941D01*
X0275259Y0406287D01*
X0273548Y0406287D01*
X0271967Y0406941D01*
X0270758Y0408151D01*
X0270103Y0409731D01*
X0270103Y0411442D01*
X0270758Y0413022D01*
X0271967Y0414232D01*
X0273548Y0414887D01*
X0275259Y0414887D01*
X0276839Y0414232D01*
X0277428Y0413643D01*
X0277428Y0417530D01*
X0276839Y0416941D01*
X0275259Y0416287D01*
X0273548Y0416287D01*
X0271967Y0416941D01*
X0270758Y0418151D01*
X0270103Y0419731D01*
X0270103Y0421442D01*
X0270758Y0423022D01*
X0271967Y0424232D01*
X0273548Y0424887D01*
X0275259Y0424887D01*
X0276839Y0424232D01*
X0277428Y0423643D01*
X0277428Y0427530D01*
X0276839Y0426941D01*
X0275259Y0426287D01*
X0273548Y0426287D01*
X0271967Y0426941D01*
X0270758Y0428151D01*
X0270103Y0429731D01*
X0270103Y0431442D01*
X0270758Y0433022D01*
X0271967Y0434232D01*
X0273548Y0434887D01*
X0275259Y0434887D01*
X0276839Y0434232D01*
X0278049Y0433022D01*
X0278703Y0431442D01*
X0278703Y0429731D01*
X0278503Y0429249D01*
X0280144Y0430890D01*
X0279808Y0431702D01*
X0279808Y0433731D01*
X0280584Y0435606D01*
X0280926Y0435948D01*
X0271571Y0437452D01*
X0255285Y0438566D01*
X0238966Y0438194D01*
X0222747Y0436340D01*
X0215740Y0434884D01*
X0216131Y0434757D01*
X0216762Y0434435D01*
X0217335Y0434019D01*
X0217836Y0433518D01*
X0218252Y0432945D01*
X0218574Y0432314D01*
X0218792Y0431640D01*
X0218903Y0430941D01*
X0218903Y0430937D01*
X0214753Y0430937D01*
X0214753Y0430237D01*
X0218903Y0430237D01*
X0218903Y0430232D01*
X0218792Y0429533D01*
X0218574Y0428859D01*
X0218252Y0428228D01*
X0217836Y0427655D01*
X0217335Y0427154D01*
X0216762Y0426738D01*
X0216131Y0426416D01*
X0215457Y0426197D01*
X0214757Y0426087D01*
X0214753Y0426087D01*
X0214753Y0430236D01*
X0214053Y0430236D01*
X0214053Y0426087D01*
X0214049Y0426087D01*
X0213349Y0426197D01*
X0212676Y0426416D01*
X0212045Y0426738D01*
X0211472Y0427154D01*
X0210971Y0427655D01*
X0210554Y0428228D01*
X0210233Y0428859D01*
X0210014Y0429533D01*
X0209903Y0430232D01*
X0209903Y0430237D01*
X0214053Y0430237D01*
X0214053Y0430937D01*
X0209903Y0430937D01*
X0209903Y0430941D01*
X0210014Y0431640D01*
X0210233Y0432314D01*
X0210554Y0432945D01*
X0210971Y0433518D01*
X0211444Y0433991D01*
X0206765Y0433019D01*
X0191151Y0428258D01*
X0176034Y0422097D01*
X0172429Y0420229D01*
X0173138Y0419998D01*
X0173881Y0419620D01*
X0174556Y0419129D01*
X0175146Y0418539D01*
X0175636Y0417864D01*
X0176015Y0417121D01*
X0176195Y0416565D01*
X0176780Y0417975D01*
X0178214Y0419410D01*
X0180089Y0420187D01*
X0182118Y0420187D01*
X0183992Y0419410D01*
X0185427Y0417975D01*
X0186103Y0416342D01*
X0186780Y0417975D01*
X0188214Y0419410D01*
X0190089Y0420187D01*
X0192118Y0420187D01*
X0193992Y0419410D01*
X0195427Y0417975D01*
X0196203Y0416101D01*
X0196203Y0414072D01*
X0195427Y0412198D01*
X0193992Y0410763D01*
X0192118Y0409987D01*
X0190089Y0409987D01*
X0188214Y0410763D01*
X0186780Y0412198D01*
X0186103Y0413831D01*
X0185764Y0413012D01*
X0195740Y0403037D01*
X0195882Y0403037D01*
X0197053Y0401865D01*
X0197053Y0401724D01*
X0208103Y0390674D01*
X0208103Y0351600D01*
X0206990Y0350487D01*
X0205823Y0349319D01*
X0206203Y0348401D01*
X0206203Y0346372D01*
X0205427Y0344498D01*
X0203992Y0343063D01*
X0202359Y0342387D01*
X0203992Y0341710D01*
X0205427Y0340275D01*
X0206203Y0338401D01*
X0206203Y0336372D01*
X0205823Y0335454D01*
X0208103Y0333174D01*
X0208103Y0320674D01*
X0213890Y0314887D01*
X0215259Y0314887D01*
X0216803Y0314247D01*
X0216803Y0316926D01*
X0215259Y0316287D01*
X0213548Y0316287D01*
X0211967Y0316941D01*
X0210758Y0318151D01*
X0210103Y0319731D01*
X0210103Y0321442D01*
X0210758Y0323022D01*
X0211967Y0324232D01*
X0213548Y0324887D01*
X0215259Y0324887D01*
X0216803Y0324247D01*
X0216803Y0326926D01*
X0215259Y0326287D01*
X0213548Y0326287D01*
X0211967Y0326941D01*
X0210758Y0328151D01*
X0210103Y0329731D01*
X0210103Y0331442D01*
X0210758Y0333022D01*
X0211967Y0334232D01*
X0213548Y0334887D01*
X0215259Y0334887D01*
X0216803Y0334247D01*
X0216803Y0336926D01*
X0215259Y0336287D01*
X0213548Y0336287D01*
X0211967Y0336941D01*
X0210758Y0338151D01*
X0210103Y0339731D01*
X0210103Y0341442D01*
X0210758Y0343022D01*
X0211967Y0344232D01*
X0213548Y0344887D01*
X0215259Y0344887D01*
X0216803Y0344247D01*
X0216803Y0346600D01*
X0216572Y0346831D01*
X0215259Y0346287D01*
X0213548Y0346287D01*
X0211967Y0346941D01*
X0210758Y0348151D01*
X0210103Y0349731D01*
X0210103Y0351442D01*
X0210758Y0353022D01*
X0211967Y0354232D01*
X0213548Y0354887D01*
X0215259Y0354887D01*
X0216839Y0354232D01*
X0218049Y0353022D01*
X0218703Y0351442D01*
X0218703Y0350074D01*
X0219490Y0349287D01*
X0220603Y0348174D01*
X0220603Y0302649D01*
X0220758Y0303022D01*
X0221967Y0304232D01*
X0223548Y0304887D01*
X0225259Y0304887D01*
X0226803Y0304247D01*
X0226803Y0396600D01*
X0216572Y0406831D01*
X0215259Y0406287D01*
X0213548Y0406287D01*
X0211967Y0406941D01*
X0210758Y0408151D01*
X0210103Y0409731D01*
X0210103Y0411442D01*
X0210758Y0413022D01*
X0211967Y0414232D01*
X0213548Y0414887D01*
X0215259Y0414887D01*
X0216839Y0414232D01*
X0218049Y0413022D01*
X0218703Y0411442D01*
X0218703Y0410074D01*
X0230603Y0398174D01*
X0230603Y0302649D01*
X0230758Y0303022D01*
X0231803Y0304068D01*
X0231803Y0401993D01*
X0231777Y0402004D01*
X0230821Y0402961D01*
X0230303Y0404210D01*
X0230303Y0405563D01*
X0230821Y0406813D01*
X0231777Y0407769D01*
X0232737Y0408166D01*
X0222916Y0417987D01*
X0217884Y0417987D01*
X0216839Y0416941D01*
X0215259Y0416287D01*
X0213548Y0416287D01*
X0211967Y0416941D01*
X0210758Y0418151D01*
X0210103Y0419731D01*
X0210103Y0421442D01*
X0210758Y0423022D01*
X0211967Y0424232D01*
X0213548Y0424887D01*
X0215259Y0424887D01*
X0216839Y0424232D01*
X0218049Y0423022D01*
X0218560Y0421787D01*
X0224490Y0421787D01*
X0225603Y0420674D01*
X0240603Y0405674D01*
X0240603Y0303012D01*
X0240971Y0303518D01*
X0241472Y0304019D01*
X0242045Y0304435D01*
X0242676Y0304757D01*
X0243349Y0304976D01*
X0244049Y0305087D01*
X0244053Y0305087D01*
X0244053Y0300937D01*
X0244753Y0300937D01*
X0244753Y0305087D01*
X0244757Y0305087D01*
X0245457Y0304976D01*
X0246131Y0304757D01*
X0246762Y0304435D01*
X0247335Y0304019D01*
X0247836Y0303518D01*
X0248252Y0302945D01*
X0248574Y0302314D01*
X0248792Y0301640D01*
X0248903Y0300941D01*
X0248903Y0300937D01*
X0244753Y0300937D01*
X0244753Y0300237D01*
X0248903Y0300237D01*
X0248903Y0300232D01*
X0248792Y0299533D01*
X0248574Y0298859D01*
X0248252Y0298228D01*
X0247836Y0297655D01*
X0247335Y0297154D01*
X0246762Y0296738D01*
X0246131Y0296416D01*
X0245457Y0296197D01*
X0244757Y0296087D01*
X0244753Y0296087D01*
X0244753Y0300236D01*
X0244053Y0300236D01*
X0244053Y0296087D01*
X0244049Y0296087D01*
X0243349Y0296197D01*
X0242676Y0296416D01*
X0242045Y0296738D01*
X0241472Y0297154D01*
X0240971Y0297655D01*
X0240603Y0298161D01*
X0240603Y0205674D01*
X0282735Y0163541D01*
X0282735Y0164892D01*
X0283341Y0166353D01*
X0284459Y0167471D01*
X0285828Y0168039D01*
X0284459Y0168606D01*
X0283341Y0169724D01*
X0282735Y0171185D01*
X0282735Y0172766D01*
X0283341Y0174227D01*
X0284459Y0175345D01*
X0285828Y0175913D01*
X0284459Y0176480D01*
X0283341Y0177598D01*
X0282735Y0179059D01*
X0282735Y0180640D01*
X0283341Y0182101D01*
X0284459Y0183219D01*
X0285828Y0183787D01*
X0284459Y0184354D01*
X0283341Y0185472D01*
X0282735Y0186933D01*
X0282735Y0188514D01*
X0283341Y0189975D01*
X0284459Y0191093D01*
X0285828Y0191661D01*
X0284459Y0192228D01*
X0283341Y0193346D01*
X0282735Y0194807D01*
X0282735Y0196388D01*
X0283341Y0197849D01*
X0284459Y0198967D01*
X0285828Y0199535D01*
X0284459Y0200102D01*
X0283341Y0201220D01*
X0282735Y0202681D01*
X0282735Y0204262D01*
X0283341Y0205723D01*
X0284459Y0206841D01*
X0285828Y0207409D01*
X0284459Y0207976D01*
X0283341Y0209094D01*
X0282735Y0210555D01*
X0282735Y0212136D01*
X0283341Y0213597D01*
X0284459Y0214715D01*
X0285604Y0215190D01*
X0285108Y0215351D01*
X0284522Y0215649D01*
X0283991Y0216035D01*
X0283526Y0216500D01*
X0283140Y0217032D01*
X0282841Y0217617D01*
X0282638Y0218242D01*
X0282535Y0218891D01*
X0282535Y0219032D01*
X0286523Y0219032D01*
X0286523Y0219407D01*
X0286523Y0223394D01*
X0286382Y0223394D01*
X0285733Y0223292D01*
X0285108Y0223089D01*
X0284522Y0222790D01*
X0283991Y0222404D01*
X0283526Y0221939D01*
X0283140Y0221408D01*
X0282841Y0220822D01*
X0282638Y0220197D01*
X0282535Y0219548D01*
X0282535Y0219407D01*
X0286523Y0219407D01*
X0286898Y0219407D01*
X0290885Y0219407D01*
X0290885Y0219548D01*
X0290782Y0220197D01*
X0290579Y0220822D01*
X0290281Y0221408D01*
X0289895Y0221939D01*
X0289430Y0222404D01*
X0288898Y0222790D01*
X0288313Y0223089D01*
X0287688Y0223292D01*
X0287039Y0223394D01*
X0286898Y0223394D01*
X0286898Y0219407D01*
X0286898Y0219032D01*
X0290885Y0219032D01*
X0290885Y0218891D01*
X0290782Y0218242D01*
X0290579Y0217617D01*
X0290281Y0217032D01*
X0289895Y0216500D01*
X0289430Y0216035D01*
X0288898Y0215649D01*
X0288313Y0215351D01*
X0287817Y0215190D01*
X0288962Y0214715D01*
X0290080Y0213597D01*
X0290685Y0212136D01*
X0290685Y0210555D01*
X0290080Y0209094D01*
X0288962Y0207976D01*
X0287592Y0207409D01*
X0288962Y0206841D01*
X0290080Y0205723D01*
X0290685Y0204262D01*
X0290685Y0202681D01*
X0290080Y0201220D01*
X0288962Y0200102D01*
X0287592Y0199535D01*
X0288962Y0198967D01*
X0290080Y0197849D01*
X0290685Y0196388D01*
X0290685Y0194807D01*
X0290080Y0193346D01*
X0288962Y0192228D01*
X0287592Y0191661D01*
X0288962Y0191093D01*
X0290080Y0189975D01*
X0290685Y0188514D01*
X0290685Y0186933D01*
X0290080Y0185472D01*
X0288962Y0184354D01*
X0287592Y0183787D01*
X0288962Y0183219D01*
X0290080Y0182101D01*
X0290685Y0180640D01*
X0290685Y0179059D01*
X0290080Y0177598D01*
X0288962Y0176480D01*
X0287592Y0175913D01*
X0288962Y0175345D01*
X0290080Y0174227D01*
X0290685Y0172766D01*
X0290685Y0171185D01*
X0290080Y0169724D01*
X0288962Y0168606D01*
X0287592Y0168039D01*
X0288962Y0167471D01*
X0290080Y0166353D01*
X0290685Y0164892D01*
X0290685Y0163311D01*
X0290080Y0161850D01*
X0289753Y0161523D01*
X0291990Y0159287D01*
X0293103Y0158174D01*
X0293103Y0144100D01*
X0290603Y0141600D01*
X0289490Y0140487D01*
X0242532Y0140487D01*
X0242432Y0140387D01*
X0240775Y0140387D01*
X0226703Y0154458D01*
X0226703Y0157915D01*
X0226803Y0158015D01*
X0226803Y0296926D01*
X0225259Y0296287D01*
X0223548Y0296287D01*
X0221967Y0296941D01*
X0220758Y0298151D01*
X0220603Y0298524D01*
X0220603Y0267780D01*
X0220629Y0267769D01*
X0221586Y0266813D01*
X0222103Y0265563D01*
X0222103Y0264210D01*
X0221586Y0262961D01*
X0220629Y0262004D01*
X0219380Y0261487D01*
X0218027Y0261487D01*
X0216777Y0262004D01*
X0215821Y0262961D01*
X0215303Y0264210D01*
X0215303Y0265563D01*
X0215821Y0266813D01*
X0216777Y0267769D01*
X0216803Y0267780D01*
X0216803Y0296926D01*
X0215259Y0296287D01*
X0213548Y0296287D01*
X0211967Y0296941D01*
X0210758Y0298151D01*
X0210103Y0299731D01*
X0210103Y0301442D01*
X0210647Y0302755D01*
X0192916Y0320487D01*
X0191803Y0321600D01*
X0191803Y0373174D01*
X0196003Y0377374D01*
X0196003Y0378401D01*
X0196780Y0380275D01*
X0198214Y0381710D01*
X0199847Y0382387D01*
X0198214Y0383063D01*
X0196780Y0384498D01*
X0196003Y0386372D01*
X0196003Y0388401D01*
X0196780Y0390275D01*
X0198214Y0391710D01*
X0200089Y0392487D01*
X0200916Y0392487D01*
X0197003Y0396400D01*
X0197003Y0392858D01*
X0195832Y0391687D01*
X0195690Y0391687D01*
X0173103Y0369100D01*
X0173103Y0314933D01*
X0174856Y0316687D01*
X0178750Y0316687D01*
X0181503Y0313933D01*
X0181503Y0310040D01*
X0180850Y0309387D01*
X0181603Y0309387D01*
X0181603Y0304687D01*
X0182003Y0304687D01*
X0182003Y0309387D01*
X0183833Y0309387D01*
X0186703Y0306516D01*
X0186703Y0304687D01*
X0182003Y0304687D01*
X0182003Y0304287D01*
X0186703Y0304287D01*
X0186703Y0302457D01*
X0183833Y0299587D01*
X0182003Y0299587D01*
X0182003Y0304286D01*
X0181603Y0304286D01*
X0181603Y0299587D01*
X0179774Y0299587D01*
X0176903Y0302457D01*
X0176903Y0304287D01*
X0181603Y0304287D01*
X0181603Y0304687D01*
X0176903Y0304687D01*
X0176903Y0306516D01*
X0177674Y0307287D01*
X0175650Y0307287D01*
X0176503Y0306433D01*
X0176503Y0302540D01*
X0175603Y0301640D01*
X0175603Y0287837D01*
X0175770Y0288164D01*
X0176261Y0288839D01*
X0176850Y0289429D01*
X0177525Y0289920D01*
X0178269Y0290298D01*
X0179062Y0290556D01*
X0179886Y0290687D01*
X0179903Y0290687D01*
X0179903Y0285787D01*
X0180703Y0285787D01*
X0180703Y0290687D01*
X0180720Y0290687D01*
X0181544Y0290556D01*
X0182338Y0290298D01*
X0183081Y0289920D01*
X0183756Y0289429D01*
X0184346Y0288839D01*
X0184836Y0288164D01*
X0185215Y0287421D01*
X0185473Y0286628D01*
X0185603Y0285804D01*
X0185603Y0285787D01*
X0180703Y0285787D01*
X0180703Y0284987D01*
X0185603Y0284987D01*
X0185603Y0284969D01*
X0185473Y0284145D01*
X0185215Y0283352D01*
X0184836Y0282609D01*
X0184346Y0281934D01*
X0183756Y0281344D01*
X0183081Y0280854D01*
X0182338Y0280475D01*
X0181782Y0280294D01*
X0183192Y0279710D01*
X0184627Y0278275D01*
X0185403Y0276401D01*
X0185403Y0274372D01*
X0184627Y0272498D01*
X0183192Y0271063D01*
X0181559Y0270387D01*
X0183192Y0269710D01*
X0184627Y0268275D01*
X0185403Y0266401D01*
X0185403Y0264372D01*
X0184627Y0262498D01*
X0183192Y0261063D01*
X0181559Y0260387D01*
X0183192Y0259710D01*
X0184627Y0258275D01*
X0185403Y0256401D01*
X0185403Y0254372D01*
X0184627Y0252498D01*
X0183192Y0251063D01*
X0181559Y0250387D01*
X0183192Y0249710D01*
X0184627Y0248275D01*
X0185403Y0246401D01*
X0185403Y0244372D01*
X0184627Y0242498D01*
X0183192Y0241063D01*
X0181559Y0240387D01*
X0183192Y0239710D01*
X0184627Y0238275D01*
X0185403Y0236401D01*
X0185403Y0234372D01*
X0184627Y0232498D01*
X0183192Y0231063D01*
X0181559Y0230387D01*
X0183192Y0229710D01*
X0184627Y0228275D01*
X0185403Y0226401D01*
X0185403Y0224372D01*
X0184627Y0222498D01*
X0183192Y0221063D01*
X0181318Y0220287D01*
X0179289Y0220287D01*
X0177414Y0221063D01*
X0175980Y0222498D01*
X0175203Y0224372D01*
X0175203Y0226401D01*
X0175980Y0228275D01*
X0177414Y0229710D01*
X0179047Y0230387D01*
X0177414Y0231063D01*
X0175980Y0232498D01*
X0175203Y0234372D01*
X0175203Y0236401D01*
X0175980Y0238275D01*
X0177414Y0239710D01*
X0179047Y0240387D01*
X0177414Y0241063D01*
X0175980Y0242498D01*
X0175203Y0244372D01*
X0175203Y0246401D01*
X0175980Y0248275D01*
X0177414Y0249710D01*
X0179047Y0250387D01*
X0177414Y0251063D01*
X0175980Y0252498D01*
X0175203Y0254372D01*
X0175203Y0256401D01*
X0175980Y0258275D01*
X0177414Y0259710D01*
X0179047Y0260387D01*
X0177414Y0261063D01*
X0175980Y0262498D01*
X0175203Y0264372D01*
X0175203Y0266401D01*
X0175980Y0268275D01*
X0177414Y0269710D01*
X0179047Y0270387D01*
X0177414Y0271063D01*
X0175980Y0272498D01*
X0175203Y0274372D01*
X0175203Y0276401D01*
X0175730Y0277673D01*
X0171803Y0281600D01*
X0171803Y0299787D01*
X0169856Y0299787D01*
X0168103Y0301540D01*
X0168103Y0291600D01*
X0166990Y0290487D01*
X0090353Y0213849D01*
X0090927Y0213275D01*
X0091703Y0211401D01*
X0091703Y0209372D01*
X0090927Y0207498D01*
X0089492Y0206063D01*
X0087618Y0205287D01*
X0085589Y0205287D01*
X0083714Y0206063D01*
X0082280Y0207498D01*
X0081503Y0209372D01*
X0081503Y0211401D01*
X0082280Y0213275D01*
X0083714Y0214710D01*
X0085589Y0215487D01*
X0086616Y0215487D01*
X0164303Y0293174D01*
X0164303Y0395674D01*
X0165303Y0396674D01*
X0165303Y0403001D01*
X0166080Y0404875D01*
X0167514Y0406310D01*
X0169389Y0407087D01*
X0171418Y0407087D01*
X0173292Y0406310D01*
X0174727Y0404875D01*
X0175503Y0403001D01*
X0175503Y0393572D01*
X0174727Y0391698D01*
X0173292Y0390263D01*
X0171418Y0389487D01*
X0169389Y0389487D01*
X0168103Y0390019D01*
X0168103Y0307433D01*
X0169303Y0308633D01*
X0169303Y0370674D01*
X0170416Y0371787D01*
X0170416Y0371787D01*
X0193003Y0394374D01*
X0193003Y0400400D01*
X0183036Y0410367D01*
X0182118Y0409987D01*
X0180089Y0409987D01*
X0178214Y0410763D01*
X0176780Y0412198D01*
X0176195Y0413608D01*
X0176015Y0413052D01*
X0175636Y0412309D01*
X0175146Y0411634D01*
X0174556Y0411044D01*
X0173881Y0410554D01*
X0173138Y0410175D01*
X0172344Y0409917D01*
X0171520Y0409787D01*
X0171503Y0409787D01*
X0171503Y0414686D01*
X0170703Y0414686D01*
X0170703Y0409787D01*
X0170686Y0409787D01*
X0169862Y0409917D01*
X0169069Y0410175D01*
X0168325Y0410554D01*
X0167650Y0411044D01*
X0167061Y0411634D01*
X0166570Y0412309D01*
X0166192Y0413052D01*
X0165934Y0413845D01*
X0165803Y0414669D01*
X0165803Y0414687D01*
X0170703Y0414687D01*
X0170703Y0415487D01*
X0165803Y0415487D01*
X0165803Y0415504D01*
X0165934Y0416328D01*
X0166143Y0416972D01*
X0161540Y0414587D01*
X0156605Y0411429D01*
X0156915Y0410821D01*
X0157173Y0410028D01*
X0157303Y0409204D01*
X0157303Y0405587D01*
X0152503Y0405587D01*
X0152503Y0404587D01*
X0157303Y0404587D01*
X0157303Y0400969D01*
X0157173Y0400145D01*
X0156915Y0399352D01*
X0156536Y0398609D01*
X0156046Y0397934D01*
X0155456Y0397344D01*
X0154781Y0396854D01*
X0154038Y0396475D01*
X0153244Y0396217D01*
X0152503Y0396100D01*
X0152503Y0404586D01*
X0151503Y0404586D01*
X0151503Y0396100D01*
X0150762Y0396217D01*
X0149969Y0396475D01*
X0149225Y0396854D01*
X0148550Y0397344D01*
X0147961Y0397934D01*
X0147470Y0398609D01*
X0147092Y0399352D01*
X0146834Y0400145D01*
X0146703Y0400969D01*
X0146703Y0404587D01*
X0151503Y0404587D01*
X0151503Y0405587D01*
X0147528Y0405587D01*
X0137903Y0398114D01*
X0137903Y0388487D01*
X0123438Y0378516D01*
X0113006Y0370282D01*
X0110203Y0321487D01*
X0109503Y0321387D01*
X0104913Y0321387D01*
X0102910Y0320230D01*
X0100138Y0319487D01*
X0097268Y0319487D01*
X0094496Y0320230D01*
X0092493Y0321387D01*
X0087803Y0321387D01*
X0082603Y0316187D01*
X0082603Y0221687D01*
X0077603Y0216687D01*
X0077603Y0214893D01*
X0080720Y0203770D01*
X0083703Y0200787D01*
X0083703Y0195766D01*
X0086724Y0187843D01*
X0088429Y0184361D01*
X0117303Y0155487D01*
X0117174Y0155616D02*
X0196121Y0155616D01*
X0196121Y0155437D02*
X0196726Y0153976D01*
X0197845Y0152858D01*
X0199214Y0152291D01*
X0197845Y0151723D01*
X0196726Y0150605D01*
X0196121Y0149144D01*
X0196121Y0147563D01*
X0196726Y0146102D01*
X0197845Y0144984D01*
X0199305Y0144379D01*
X0200887Y0144379D01*
X0202348Y0144984D01*
X0203466Y0146102D01*
X0204071Y0147563D01*
X0204071Y0149144D01*
X0203466Y0150605D01*
X0202348Y0151723D01*
X0200978Y0152291D01*
X0202348Y0152858D01*
X0203466Y0153976D01*
X0204071Y0155437D01*
X0204071Y0157018D01*
X0203466Y0158479D01*
X0202348Y0159597D01*
X0200978Y0160165D01*
X0202348Y0160732D01*
X0203466Y0161850D01*
X0204071Y0163311D01*
X0204071Y0164892D01*
X0203466Y0166353D01*
X0202348Y0167471D01*
X0200978Y0168039D01*
X0202348Y0168606D01*
X0203466Y0169724D01*
X0204071Y0171185D01*
X0204071Y0172766D01*
X0203466Y0174227D01*
X0202348Y0175345D01*
X0200978Y0175913D01*
X0202348Y0176480D01*
X0203466Y0177598D01*
X0204071Y0179059D01*
X0204071Y0180640D01*
X0203466Y0182101D01*
X0202348Y0183219D01*
X0200978Y0183787D01*
X0202348Y0184354D01*
X0203466Y0185472D01*
X0204071Y0186933D01*
X0204071Y0188514D01*
X0203466Y0189975D01*
X0202348Y0191093D01*
X0200978Y0191661D01*
X0202348Y0192228D01*
X0203466Y0193346D01*
X0204071Y0194807D01*
X0204071Y0196388D01*
X0203466Y0197849D01*
X0202348Y0198967D01*
X0200978Y0199535D01*
X0202348Y0200102D01*
X0203466Y0201220D01*
X0204071Y0202681D01*
X0204071Y0204262D01*
X0203466Y0205723D01*
X0202348Y0206841D01*
X0200978Y0207409D01*
X0202348Y0207976D01*
X0203466Y0209094D01*
X0204071Y0210555D01*
X0204071Y0212136D01*
X0203466Y0213597D01*
X0202348Y0214715D01*
X0200978Y0215283D01*
X0202348Y0215850D01*
X0203466Y0216968D01*
X0204071Y0218429D01*
X0204071Y0220010D01*
X0203466Y0221471D01*
X0202348Y0222589D01*
X0200887Y0223194D01*
X0199305Y0223194D01*
X0197845Y0222589D01*
X0196726Y0221471D01*
X0196121Y0220010D01*
X0196121Y0218429D01*
X0196726Y0216968D01*
X0197845Y0215850D01*
X0199214Y0215283D01*
X0197845Y0214715D01*
X0196726Y0213597D01*
X0196121Y0212136D01*
X0196121Y0210555D01*
X0196726Y0209094D01*
X0197845Y0207976D01*
X0199214Y0207409D01*
X0197845Y0206841D01*
X0196726Y0205723D01*
X0196121Y0204262D01*
X0196121Y0202681D01*
X0196726Y0201220D01*
X0197845Y0200102D01*
X0199214Y0199535D01*
X0197845Y0198967D01*
X0196726Y0197849D01*
X0196121Y0196388D01*
X0196121Y0194807D01*
X0196726Y0193346D01*
X0197845Y0192228D01*
X0199214Y0191661D01*
X0197845Y0191093D01*
X0196726Y0189975D01*
X0196121Y0188514D01*
X0196121Y0186933D01*
X0196726Y0185472D01*
X0197845Y0184354D01*
X0199214Y0183787D01*
X0197845Y0183219D01*
X0196726Y0182101D01*
X0196121Y0180640D01*
X0196121Y0179059D01*
X0196726Y0177598D01*
X0197845Y0176480D01*
X0199214Y0175913D01*
X0197845Y0175345D01*
X0196726Y0174227D01*
X0196121Y0172766D01*
X0196121Y0171185D01*
X0196726Y0169724D01*
X0197845Y0168606D01*
X0199214Y0168039D01*
X0197845Y0167471D01*
X0196726Y0166353D01*
X0196121Y0164892D01*
X0196121Y0163311D01*
X0196726Y0161850D01*
X0197845Y0160732D01*
X0199214Y0160165D01*
X0197845Y0159597D01*
X0196726Y0158479D01*
X0196121Y0157018D01*
X0196121Y0155437D01*
X0196544Y0154418D02*
X0118383Y0154418D01*
X0119595Y0153219D02*
X0197483Y0153219D01*
X0198563Y0152021D02*
X0120806Y0152021D01*
X0122017Y0150822D02*
X0196943Y0150822D01*
X0196320Y0149624D02*
X0123228Y0149624D01*
X0124439Y0148425D02*
X0196121Y0148425D01*
X0196261Y0147227D02*
X0125650Y0147227D01*
X0126861Y0146028D02*
X0196800Y0146028D01*
X0198217Y0144829D02*
X0192456Y0144829D01*
X0193575Y0143631D02*
X0237530Y0143631D01*
X0236332Y0144829D02*
X0201975Y0144829D01*
X0203392Y0146028D02*
X0235133Y0146028D01*
X0233935Y0147227D02*
X0203932Y0147227D01*
X0204071Y0148425D02*
X0232736Y0148425D01*
X0231538Y0149624D02*
X0203872Y0149624D01*
X0203249Y0150822D02*
X0230339Y0150822D01*
X0229141Y0152021D02*
X0201630Y0152021D01*
X0202709Y0153219D02*
X0227942Y0153219D01*
X0226744Y0154418D02*
X0203649Y0154418D01*
X0204071Y0155616D02*
X0226703Y0155616D01*
X0226703Y0156815D02*
X0204071Y0156815D01*
X0203659Y0158013D02*
X0226801Y0158013D01*
X0226803Y0159212D02*
X0202733Y0159212D01*
X0201571Y0160410D02*
X0226803Y0160410D01*
X0226803Y0161609D02*
X0203224Y0161609D01*
X0203862Y0162807D02*
X0226803Y0162807D01*
X0226803Y0164006D02*
X0204071Y0164006D01*
X0203942Y0165204D02*
X0226803Y0165204D01*
X0226803Y0166403D02*
X0203416Y0166403D01*
X0202034Y0167601D02*
X0226803Y0167601D01*
X0226803Y0168800D02*
X0202541Y0168800D01*
X0203579Y0169998D02*
X0226803Y0169998D01*
X0226803Y0171197D02*
X0204071Y0171197D01*
X0204071Y0172395D02*
X0226803Y0172395D01*
X0226803Y0173594D02*
X0203728Y0173594D01*
X0202901Y0174792D02*
X0226803Y0174792D01*
X0226803Y0175991D02*
X0201167Y0175991D01*
X0199025Y0175991D02*
X0169621Y0175991D01*
X0169568Y0176328D02*
X0169310Y0177121D01*
X0168931Y0177864D01*
X0168441Y0178539D01*
X0167851Y0179129D01*
X0167176Y0179620D01*
X0166433Y0179998D01*
X0165640Y0180256D01*
X0164816Y0180387D01*
X0164684Y0180387D01*
X0164684Y0175372D01*
X0169698Y0175372D01*
X0169698Y0175504D01*
X0169568Y0176328D01*
X0169275Y0177189D02*
X0197135Y0177189D01*
X0196399Y0178388D02*
X0168551Y0178388D01*
X0167222Y0179586D02*
X0196121Y0179586D01*
X0196181Y0180785D02*
X0092005Y0180785D01*
X0090806Y0181983D02*
X0196678Y0181983D01*
X0197807Y0183182D02*
X0089608Y0183182D01*
X0088419Y0184380D02*
X0197818Y0184380D01*
X0196682Y0185579D02*
X0087833Y0185579D01*
X0087246Y0186777D02*
X0196186Y0186777D01*
X0196121Y0187976D02*
X0086673Y0187976D01*
X0086216Y0189174D02*
X0196395Y0189174D01*
X0197124Y0190373D02*
X0085759Y0190373D01*
X0085302Y0191571D02*
X0198999Y0191571D01*
X0197303Y0192770D02*
X0084846Y0192770D01*
X0084389Y0193968D02*
X0196469Y0193968D01*
X0196121Y0195167D02*
X0083932Y0195167D01*
X0083703Y0196365D02*
X0196121Y0196365D01*
X0196608Y0197564D02*
X0083703Y0197564D01*
X0083703Y0198762D02*
X0197640Y0198762D01*
X0198185Y0199961D02*
X0083703Y0199961D01*
X0083330Y0201160D02*
X0196787Y0201160D01*
X0196255Y0202358D02*
X0082132Y0202358D01*
X0080933Y0203557D02*
X0196121Y0203557D01*
X0196325Y0204755D02*
X0165469Y0204755D01*
X0165838Y0204875D02*
X0165044Y0204617D01*
X0164220Y0204487D01*
X0164089Y0204487D01*
X0164089Y0209501D01*
X0164089Y0210072D01*
X0169103Y0210072D01*
X0169103Y0210204D01*
X0168973Y0211028D01*
X0168715Y0211821D01*
X0168336Y0212564D01*
X0167846Y0213239D01*
X0167256Y0213829D01*
X0166581Y0214320D01*
X0165838Y0214698D01*
X0165044Y0214956D01*
X0164220Y0215087D01*
X0164089Y0215087D01*
X0164089Y0210072D01*
X0163517Y0210072D01*
X0163517Y0209501D01*
X0158503Y0209501D01*
X0158503Y0209369D01*
X0158634Y0208545D01*
X0158892Y0207752D01*
X0159270Y0207009D01*
X0159761Y0206334D01*
X0160350Y0205744D01*
X0161025Y0205254D01*
X0161769Y0204875D01*
X0162562Y0204617D01*
X0163386Y0204487D01*
X0163517Y0204487D01*
X0163517Y0209501D01*
X0164089Y0209501D01*
X0169103Y0209501D01*
X0169103Y0209369D01*
X0168973Y0208545D01*
X0168715Y0207752D01*
X0168336Y0207009D01*
X0167846Y0206334D01*
X0167256Y0205744D01*
X0166581Y0205254D01*
X0165838Y0204875D01*
X0164089Y0204755D02*
X0163517Y0204755D01*
X0163517Y0205954D02*
X0164089Y0205954D01*
X0164089Y0207152D02*
X0163517Y0207152D01*
X0163517Y0208351D02*
X0164089Y0208351D01*
X0164089Y0209549D02*
X0196538Y0209549D01*
X0196121Y0210748D02*
X0169017Y0210748D01*
X0168651Y0211946D02*
X0196121Y0211946D01*
X0196539Y0213145D02*
X0167915Y0213145D01*
X0166535Y0214343D02*
X0197472Y0214343D01*
X0198589Y0215542D02*
X0092045Y0215542D01*
X0093244Y0216740D02*
X0196954Y0216740D01*
X0196324Y0217939D02*
X0094442Y0217939D01*
X0095641Y0219137D02*
X0196121Y0219137D01*
X0196256Y0220336D02*
X0181436Y0220336D01*
X0179170Y0220336D02*
X0096839Y0220336D01*
X0098038Y0221534D02*
X0176943Y0221534D01*
X0175882Y0222733D02*
X0099236Y0222733D01*
X0100435Y0223931D02*
X0175386Y0223931D01*
X0175203Y0225130D02*
X0101633Y0225130D01*
X0102832Y0226328D02*
X0175203Y0226328D01*
X0175670Y0227527D02*
X0104030Y0227527D01*
X0105229Y0228725D02*
X0176429Y0228725D01*
X0177930Y0229924D02*
X0106427Y0229924D01*
X0107626Y0231122D02*
X0177355Y0231122D01*
X0176156Y0232321D02*
X0108824Y0232321D01*
X0110023Y0233519D02*
X0175556Y0233519D01*
X0175203Y0234718D02*
X0111221Y0234718D01*
X0112420Y0235916D02*
X0175203Y0235916D01*
X0175499Y0237115D02*
X0113618Y0237115D01*
X0114817Y0238313D02*
X0176018Y0238313D01*
X0177216Y0239512D02*
X0116016Y0239512D01*
X0117214Y0240710D02*
X0178266Y0240710D01*
X0176568Y0241909D02*
X0118413Y0241909D01*
X0119611Y0243107D02*
X0175727Y0243107D01*
X0175231Y0244306D02*
X0120810Y0244306D01*
X0122008Y0245504D02*
X0175203Y0245504D01*
X0175328Y0246703D02*
X0123207Y0246703D01*
X0124405Y0247901D02*
X0175825Y0247901D01*
X0176804Y0249100D02*
X0125604Y0249100D01*
X0126802Y0250298D02*
X0178835Y0250298D01*
X0176980Y0251497D02*
X0128001Y0251497D01*
X0129199Y0252696D02*
X0175898Y0252696D01*
X0175401Y0253894D02*
X0130398Y0253894D01*
X0131596Y0255093D02*
X0175203Y0255093D01*
X0175203Y0256291D02*
X0132795Y0256291D01*
X0133993Y0257490D02*
X0175654Y0257490D01*
X0176392Y0258688D02*
X0135192Y0258688D01*
X0136390Y0259887D02*
X0177840Y0259887D01*
X0177392Y0261085D02*
X0137589Y0261085D01*
X0138787Y0262284D02*
X0176194Y0262284D01*
X0175572Y0263482D02*
X0139986Y0263482D01*
X0141184Y0264681D02*
X0175203Y0264681D01*
X0175203Y0265879D02*
X0142383Y0265879D01*
X0143581Y0267078D02*
X0175483Y0267078D01*
X0175980Y0268276D02*
X0144780Y0268276D01*
X0145978Y0269475D02*
X0177179Y0269475D01*
X0178355Y0270673D02*
X0147177Y0270673D01*
X0148375Y0271872D02*
X0176606Y0271872D01*
X0175742Y0273070D02*
X0149574Y0273070D01*
X0150772Y0274269D02*
X0175246Y0274269D01*
X0175203Y0275467D02*
X0151971Y0275467D01*
X0153169Y0276666D02*
X0175313Y0276666D01*
X0175539Y0277864D02*
X0154368Y0277864D01*
X0155566Y0279063D02*
X0174340Y0279063D01*
X0173142Y0280261D02*
X0156765Y0280261D01*
X0157963Y0281460D02*
X0171943Y0281460D01*
X0171803Y0282658D02*
X0159162Y0282658D01*
X0160360Y0283857D02*
X0171803Y0283857D01*
X0171803Y0285055D02*
X0161559Y0285055D01*
X0162757Y0286254D02*
X0171803Y0286254D01*
X0171803Y0287452D02*
X0163956Y0287452D01*
X0165154Y0288651D02*
X0171803Y0288651D01*
X0171803Y0289849D02*
X0166353Y0289849D01*
X0167552Y0291048D02*
X0171803Y0291048D01*
X0171803Y0292246D02*
X0168103Y0292246D01*
X0168103Y0293445D02*
X0171803Y0293445D01*
X0171803Y0294643D02*
X0168103Y0294643D01*
X0168103Y0295842D02*
X0171803Y0295842D01*
X0171803Y0297040D02*
X0168103Y0297040D01*
X0168103Y0298239D02*
X0171803Y0298239D01*
X0171803Y0299437D02*
X0168103Y0299437D01*
X0168103Y0300636D02*
X0169007Y0300636D01*
X0164303Y0300636D02*
X0082603Y0300636D01*
X0082603Y0301834D02*
X0164303Y0301834D01*
X0164303Y0303033D02*
X0082603Y0303033D01*
X0082603Y0304231D02*
X0164303Y0304231D01*
X0164303Y0305430D02*
X0082603Y0305430D01*
X0082603Y0306629D02*
X0164303Y0306629D01*
X0164303Y0307827D02*
X0082603Y0307827D01*
X0082603Y0309026D02*
X0164303Y0309026D01*
X0164303Y0310224D02*
X0082603Y0310224D01*
X0082603Y0311423D02*
X0164303Y0311423D01*
X0164303Y0312621D02*
X0082603Y0312621D01*
X0082603Y0313820D02*
X0164303Y0313820D01*
X0164303Y0315018D02*
X0082603Y0315018D01*
X0082633Y0316217D02*
X0164303Y0316217D01*
X0164303Y0317415D02*
X0083832Y0317415D01*
X0085030Y0318614D02*
X0164303Y0318614D01*
X0164303Y0319812D02*
X0101350Y0319812D01*
X0104262Y0321011D02*
X0164303Y0321011D01*
X0164303Y0322209D02*
X0110245Y0322209D01*
X0110314Y0323408D02*
X0164303Y0323408D01*
X0164303Y0324606D02*
X0110382Y0324606D01*
X0110451Y0325805D02*
X0164303Y0325805D01*
X0164303Y0327003D02*
X0110520Y0327003D01*
X0110589Y0328202D02*
X0164303Y0328202D01*
X0164303Y0329400D02*
X0110658Y0329400D01*
X0110727Y0330599D02*
X0164303Y0330599D01*
X0164303Y0331797D02*
X0110795Y0331797D01*
X0110864Y0332996D02*
X0164303Y0332996D01*
X0164303Y0334194D02*
X0110933Y0334194D01*
X0111002Y0335393D02*
X0164303Y0335393D01*
X0164303Y0336591D02*
X0111071Y0336591D01*
X0111140Y0337790D02*
X0164303Y0337790D01*
X0164303Y0338988D02*
X0111208Y0338988D01*
X0111277Y0340187D02*
X0164303Y0340187D01*
X0164303Y0341385D02*
X0111346Y0341385D01*
X0111415Y0342584D02*
X0164303Y0342584D01*
X0164303Y0343782D02*
X0111484Y0343782D01*
X0111553Y0344981D02*
X0164303Y0344981D01*
X0164303Y0346179D02*
X0111621Y0346179D01*
X0111690Y0347378D02*
X0164303Y0347378D01*
X0164303Y0348576D02*
X0111759Y0348576D01*
X0111828Y0349775D02*
X0164303Y0349775D01*
X0164303Y0350973D02*
X0111897Y0350973D01*
X0111966Y0352172D02*
X0164303Y0352172D01*
X0164303Y0353370D02*
X0112034Y0353370D01*
X0112103Y0354569D02*
X0164303Y0354569D01*
X0164303Y0355767D02*
X0112172Y0355767D01*
X0112241Y0356966D02*
X0164303Y0356966D01*
X0164303Y0358165D02*
X0112310Y0358165D01*
X0112379Y0359363D02*
X0164303Y0359363D01*
X0164303Y0360562D02*
X0112447Y0360562D01*
X0112516Y0361760D02*
X0164303Y0361760D01*
X0164303Y0362959D02*
X0112585Y0362959D01*
X0112654Y0364157D02*
X0164303Y0364157D01*
X0164303Y0365356D02*
X0112723Y0365356D01*
X0112792Y0366554D02*
X0164303Y0366554D01*
X0164303Y0367753D02*
X0112860Y0367753D01*
X0112929Y0368951D02*
X0164303Y0368951D01*
X0164303Y0370150D02*
X0112998Y0370150D01*
X0114357Y0371348D02*
X0164303Y0371348D01*
X0164303Y0372547D02*
X0115875Y0372547D01*
X0117394Y0373745D02*
X0164303Y0373745D01*
X0164303Y0374944D02*
X0118912Y0374944D01*
X0120431Y0376142D02*
X0164303Y0376142D01*
X0164303Y0377341D02*
X0121949Y0377341D01*
X0123472Y0378539D02*
X0164303Y0378539D01*
X0164303Y0379738D02*
X0125211Y0379738D01*
X0126950Y0380936D02*
X0164303Y0380936D01*
X0164303Y0382135D02*
X0128688Y0382135D01*
X0130427Y0383333D02*
X0164303Y0383333D01*
X0164303Y0384532D02*
X0132166Y0384532D01*
X0133905Y0385730D02*
X0164303Y0385730D01*
X0164303Y0386929D02*
X0135643Y0386929D01*
X0137382Y0388127D02*
X0164303Y0388127D01*
X0164303Y0389326D02*
X0137903Y0389326D01*
X0137903Y0390524D02*
X0164303Y0390524D01*
X0164303Y0391723D02*
X0137903Y0391723D01*
X0137903Y0392921D02*
X0164303Y0392921D01*
X0164303Y0394120D02*
X0137903Y0394120D01*
X0137903Y0395318D02*
X0164303Y0395318D01*
X0165147Y0396517D02*
X0154120Y0396517D01*
X0152503Y0396517D02*
X0151503Y0396517D01*
X0151503Y0397715D02*
X0152503Y0397715D01*
X0152503Y0398914D02*
X0151503Y0398914D01*
X0151503Y0400112D02*
X0152503Y0400112D01*
X0152503Y0401311D02*
X0151503Y0401311D01*
X0151503Y0402509D02*
X0152503Y0402509D01*
X0152503Y0403708D02*
X0151503Y0403708D01*
X0151503Y0404906D02*
X0146652Y0404906D01*
X0146703Y0403708D02*
X0145108Y0403708D01*
X0143564Y0402509D02*
X0146703Y0402509D01*
X0146703Y0401311D02*
X0142021Y0401311D01*
X0140477Y0400112D02*
X0146844Y0400112D01*
X0147315Y0398914D02*
X0138933Y0398914D01*
X0137903Y0397715D02*
X0148179Y0397715D01*
X0149886Y0396517D02*
X0137903Y0396517D01*
X0152503Y0404906D02*
X0166111Y0404906D01*
X0165596Y0403708D02*
X0157303Y0403708D01*
X0157303Y0402509D02*
X0165303Y0402509D01*
X0165303Y0401311D02*
X0157303Y0401311D01*
X0157162Y0400112D02*
X0165303Y0400112D01*
X0165303Y0398914D02*
X0156692Y0398914D01*
X0155827Y0397715D02*
X0165303Y0397715D01*
X0167309Y0406105D02*
X0157303Y0406105D01*
X0157303Y0407303D02*
X0186099Y0407303D01*
X0187298Y0406105D02*
X0173497Y0406105D01*
X0174696Y0404906D02*
X0188496Y0404906D01*
X0189695Y0403708D02*
X0175210Y0403708D01*
X0175503Y0402509D02*
X0190893Y0402509D01*
X0192092Y0401311D02*
X0175503Y0401311D01*
X0175503Y0400112D02*
X0193003Y0400112D01*
X0193003Y0398914D02*
X0175503Y0398914D01*
X0175503Y0397715D02*
X0193003Y0397715D01*
X0193003Y0396517D02*
X0175503Y0396517D01*
X0175503Y0395318D02*
X0193003Y0395318D01*
X0192749Y0394120D02*
X0175503Y0394120D01*
X0175234Y0392921D02*
X0191551Y0392921D01*
X0190352Y0391723D02*
X0174737Y0391723D01*
X0173553Y0390524D02*
X0189154Y0390524D01*
X0187955Y0389326D02*
X0168103Y0389326D01*
X0168103Y0388127D02*
X0186757Y0388127D01*
X0185558Y0386929D02*
X0168103Y0386929D01*
X0168103Y0385730D02*
X0184360Y0385730D01*
X0183161Y0384532D02*
X0168103Y0384532D01*
X0168103Y0383333D02*
X0181963Y0383333D01*
X0180764Y0382135D02*
X0168103Y0382135D01*
X0168103Y0380936D02*
X0179566Y0380936D01*
X0178367Y0379738D02*
X0168103Y0379738D01*
X0168103Y0378539D02*
X0177169Y0378539D01*
X0175970Y0377341D02*
X0168103Y0377341D01*
X0168103Y0376142D02*
X0174772Y0376142D01*
X0173573Y0374944D02*
X0168103Y0374944D01*
X0168103Y0373745D02*
X0172375Y0373745D01*
X0171176Y0372547D02*
X0168103Y0372547D01*
X0168103Y0371348D02*
X0169978Y0371348D01*
X0169303Y0370150D02*
X0168103Y0370150D01*
X0168103Y0368951D02*
X0169303Y0368951D01*
X0169303Y0367753D02*
X0168103Y0367753D01*
X0168103Y0366554D02*
X0169303Y0366554D01*
X0169303Y0365356D02*
X0168103Y0365356D01*
X0168103Y0364157D02*
X0169303Y0364157D01*
X0169303Y0362959D02*
X0168103Y0362959D01*
X0168103Y0361760D02*
X0169303Y0361760D01*
X0169303Y0360562D02*
X0168103Y0360562D01*
X0168103Y0359363D02*
X0169303Y0359363D01*
X0169303Y0358165D02*
X0168103Y0358165D01*
X0168103Y0356966D02*
X0169303Y0356966D01*
X0169303Y0355767D02*
X0168103Y0355767D01*
X0168103Y0354569D02*
X0169303Y0354569D01*
X0169303Y0353370D02*
X0168103Y0353370D01*
X0168103Y0352172D02*
X0169303Y0352172D01*
X0169303Y0350973D02*
X0168103Y0350973D01*
X0168103Y0349775D02*
X0169303Y0349775D01*
X0169303Y0348576D02*
X0168103Y0348576D01*
X0168103Y0347378D02*
X0169303Y0347378D01*
X0169303Y0346179D02*
X0168103Y0346179D01*
X0168103Y0344981D02*
X0169303Y0344981D01*
X0169303Y0343782D02*
X0168103Y0343782D01*
X0168103Y0342584D02*
X0169303Y0342584D01*
X0169303Y0341385D02*
X0168103Y0341385D01*
X0168103Y0340187D02*
X0169303Y0340187D01*
X0169303Y0338988D02*
X0168103Y0338988D01*
X0168103Y0337790D02*
X0169303Y0337790D01*
X0169303Y0336591D02*
X0168103Y0336591D01*
X0168103Y0335393D02*
X0169303Y0335393D01*
X0169303Y0334194D02*
X0168103Y0334194D01*
X0168103Y0332996D02*
X0169303Y0332996D01*
X0169303Y0331797D02*
X0168103Y0331797D01*
X0168103Y0330599D02*
X0169303Y0330599D01*
X0169303Y0329400D02*
X0168103Y0329400D01*
X0168103Y0328202D02*
X0169303Y0328202D01*
X0169303Y0327003D02*
X0168103Y0327003D01*
X0168103Y0325805D02*
X0169303Y0325805D01*
X0169303Y0324606D02*
X0168103Y0324606D01*
X0168103Y0323408D02*
X0169303Y0323408D01*
X0169303Y0322209D02*
X0168103Y0322209D01*
X0168103Y0321011D02*
X0169303Y0321011D01*
X0169303Y0319812D02*
X0168103Y0319812D01*
X0168103Y0318614D02*
X0169303Y0318614D01*
X0169303Y0317415D02*
X0168103Y0317415D01*
X0168103Y0316217D02*
X0169303Y0316217D01*
X0169303Y0315018D02*
X0168103Y0315018D01*
X0168103Y0313820D02*
X0169303Y0313820D01*
X0169303Y0312621D02*
X0168103Y0312621D01*
X0168103Y0311423D02*
X0169303Y0311423D01*
X0169303Y0310224D02*
X0168103Y0310224D01*
X0168103Y0309026D02*
X0169303Y0309026D01*
X0168497Y0307827D02*
X0168103Y0307827D01*
X0173103Y0315018D02*
X0173188Y0315018D01*
X0173103Y0316217D02*
X0174386Y0316217D01*
X0173103Y0317415D02*
X0195988Y0317415D01*
X0197186Y0316217D02*
X0179220Y0316217D01*
X0180418Y0315018D02*
X0198385Y0315018D01*
X0199583Y0313820D02*
X0181503Y0313820D01*
X0181503Y0312621D02*
X0200782Y0312621D01*
X0201980Y0311423D02*
X0181503Y0311423D01*
X0181503Y0310224D02*
X0203179Y0310224D01*
X0204377Y0309026D02*
X0184194Y0309026D01*
X0185392Y0307827D02*
X0205576Y0307827D01*
X0206774Y0306629D02*
X0186591Y0306629D01*
X0186703Y0305430D02*
X0207973Y0305430D01*
X0209171Y0304231D02*
X0186703Y0304231D01*
X0186703Y0303033D02*
X0210370Y0303033D01*
X0210266Y0301834D02*
X0186081Y0301834D01*
X0184882Y0300636D02*
X0210103Y0300636D01*
X0210225Y0299437D02*
X0175603Y0299437D01*
X0175603Y0298239D02*
X0210721Y0298239D01*
X0211868Y0297040D02*
X0175603Y0297040D01*
X0175603Y0295842D02*
X0216803Y0295842D01*
X0216803Y0294643D02*
X0175603Y0294643D01*
X0175603Y0293445D02*
X0216803Y0293445D01*
X0216803Y0292246D02*
X0175603Y0292246D01*
X0175603Y0291048D02*
X0216803Y0291048D01*
X0216803Y0289849D02*
X0183178Y0289849D01*
X0184483Y0288651D02*
X0216803Y0288651D01*
X0216803Y0287452D02*
X0185199Y0287452D01*
X0185532Y0286254D02*
X0216803Y0286254D01*
X0216803Y0285055D02*
X0180703Y0285055D01*
X0180703Y0286254D02*
X0179903Y0286254D01*
X0179903Y0287452D02*
X0180703Y0287452D01*
X0180703Y0288651D02*
X0179903Y0288651D01*
X0179903Y0289849D02*
X0180703Y0289849D01*
X0177429Y0289849D02*
X0175603Y0289849D01*
X0175603Y0288651D02*
X0176124Y0288651D01*
X0181862Y0280261D02*
X0216803Y0280261D01*
X0216803Y0279063D02*
X0183840Y0279063D01*
X0184797Y0277864D02*
X0216803Y0277864D01*
X0216803Y0276666D02*
X0185294Y0276666D01*
X0185403Y0275467D02*
X0216803Y0275467D01*
X0216803Y0274269D02*
X0185360Y0274269D01*
X0184864Y0273070D02*
X0216803Y0273070D01*
X0216803Y0271872D02*
X0184001Y0271872D01*
X0182251Y0270673D02*
X0216803Y0270673D01*
X0216803Y0269475D02*
X0183428Y0269475D01*
X0184626Y0268276D02*
X0216803Y0268276D01*
X0216086Y0267078D02*
X0185123Y0267078D01*
X0185403Y0265879D02*
X0215434Y0265879D01*
X0215303Y0264681D02*
X0185403Y0264681D01*
X0185035Y0263482D02*
X0215605Y0263482D01*
X0216498Y0262284D02*
X0184413Y0262284D01*
X0183214Y0261085D02*
X0226803Y0261085D01*
X0226803Y0259887D02*
X0182766Y0259887D01*
X0184214Y0258688D02*
X0226803Y0258688D01*
X0226803Y0257490D02*
X0184952Y0257490D01*
X0185403Y0256291D02*
X0226803Y0256291D01*
X0226803Y0255093D02*
X0185403Y0255093D01*
X0185205Y0253894D02*
X0226803Y0253894D01*
X0226803Y0252696D02*
X0184709Y0252696D01*
X0183626Y0251497D02*
X0226803Y0251497D01*
X0226803Y0250298D02*
X0181772Y0250298D01*
X0183802Y0249100D02*
X0226803Y0249100D01*
X0226803Y0247901D02*
X0184782Y0247901D01*
X0185278Y0246703D02*
X0226803Y0246703D01*
X0226803Y0245504D02*
X0185403Y0245504D01*
X0185376Y0244306D02*
X0226803Y0244306D01*
X0226803Y0243107D02*
X0184879Y0243107D01*
X0184038Y0241909D02*
X0226803Y0241909D01*
X0226803Y0240710D02*
X0182341Y0240710D01*
X0183390Y0239512D02*
X0226803Y0239512D01*
X0226803Y0238313D02*
X0184589Y0238313D01*
X0185108Y0237115D02*
X0226803Y0237115D01*
X0226803Y0235916D02*
X0185403Y0235916D01*
X0185403Y0234718D02*
X0226803Y0234718D01*
X0226803Y0233519D02*
X0185050Y0233519D01*
X0184450Y0232321D02*
X0226803Y0232321D01*
X0226803Y0231122D02*
X0183251Y0231122D01*
X0182676Y0229924D02*
X0226803Y0229924D01*
X0226803Y0228725D02*
X0184177Y0228725D01*
X0184937Y0227527D02*
X0226803Y0227527D01*
X0226803Y0226328D02*
X0185403Y0226328D01*
X0185403Y0225130D02*
X0226803Y0225130D01*
X0226803Y0223931D02*
X0185221Y0223931D01*
X0184724Y0222733D02*
X0198191Y0222733D01*
X0196789Y0221534D02*
X0183663Y0221534D01*
X0197470Y0208351D02*
X0168909Y0208351D01*
X0168409Y0207152D02*
X0198595Y0207152D01*
X0196957Y0205954D02*
X0167466Y0205954D01*
X0163517Y0209549D02*
X0138903Y0209549D01*
X0138903Y0208772D02*
X0138903Y0210801D01*
X0138127Y0212675D01*
X0136692Y0214110D01*
X0134818Y0214887D01*
X0132789Y0214887D01*
X0130914Y0214110D01*
X0129480Y0212675D01*
X0128703Y0210801D01*
X0128703Y0208772D01*
X0129480Y0206898D01*
X0130914Y0205463D01*
X0132789Y0204687D01*
X0134818Y0204687D01*
X0136692Y0205463D01*
X0138127Y0206898D01*
X0138903Y0208772D01*
X0138729Y0208351D02*
X0158697Y0208351D01*
X0159197Y0207152D02*
X0138232Y0207152D01*
X0137183Y0205954D02*
X0160141Y0205954D01*
X0162137Y0204755D02*
X0134983Y0204755D01*
X0132623Y0204755D02*
X0080444Y0204755D01*
X0080108Y0205954D02*
X0083978Y0205954D01*
X0082625Y0207152D02*
X0079772Y0207152D01*
X0079436Y0208351D02*
X0081926Y0208351D01*
X0081503Y0209549D02*
X0079101Y0209549D01*
X0078765Y0210748D02*
X0081503Y0210748D01*
X0081729Y0211946D02*
X0078429Y0211946D01*
X0078093Y0213145D02*
X0082225Y0213145D01*
X0083347Y0214343D02*
X0077757Y0214343D01*
X0077603Y0215542D02*
X0086671Y0215542D01*
X0087870Y0216740D02*
X0077657Y0216740D01*
X0078855Y0217939D02*
X0089068Y0217939D01*
X0090267Y0219137D02*
X0080054Y0219137D01*
X0081252Y0220336D02*
X0091465Y0220336D01*
X0092664Y0221534D02*
X0082451Y0221534D01*
X0082603Y0222733D02*
X0093862Y0222733D01*
X0095061Y0223931D02*
X0082603Y0223931D01*
X0082603Y0225130D02*
X0096259Y0225130D01*
X0097458Y0226328D02*
X0082603Y0226328D01*
X0082603Y0227527D02*
X0098656Y0227527D01*
X0099855Y0228725D02*
X0082603Y0228725D01*
X0082603Y0229924D02*
X0101053Y0229924D01*
X0102252Y0231122D02*
X0082603Y0231122D01*
X0082603Y0232321D02*
X0103450Y0232321D01*
X0104649Y0233519D02*
X0082603Y0233519D01*
X0082603Y0234718D02*
X0105847Y0234718D01*
X0107046Y0235916D02*
X0082603Y0235916D01*
X0082603Y0237115D02*
X0108245Y0237115D01*
X0109443Y0238313D02*
X0082603Y0238313D01*
X0082603Y0239512D02*
X0110642Y0239512D01*
X0111840Y0240710D02*
X0082603Y0240710D01*
X0082603Y0241909D02*
X0113039Y0241909D01*
X0114237Y0243107D02*
X0082603Y0243107D01*
X0082603Y0244306D02*
X0115436Y0244306D01*
X0116634Y0245504D02*
X0082603Y0245504D01*
X0082603Y0246703D02*
X0117833Y0246703D01*
X0119031Y0247901D02*
X0082603Y0247901D01*
X0082603Y0249100D02*
X0120230Y0249100D01*
X0121428Y0250298D02*
X0082603Y0250298D01*
X0082603Y0251497D02*
X0122627Y0251497D01*
X0123825Y0252696D02*
X0082603Y0252696D01*
X0082603Y0253894D02*
X0125024Y0253894D01*
X0126222Y0255093D02*
X0082603Y0255093D01*
X0082603Y0256291D02*
X0127421Y0256291D01*
X0128619Y0257490D02*
X0082603Y0257490D01*
X0082603Y0258688D02*
X0129818Y0258688D01*
X0131016Y0259887D02*
X0082603Y0259887D01*
X0082603Y0261085D02*
X0132215Y0261085D01*
X0133413Y0262284D02*
X0082603Y0262284D01*
X0082603Y0263482D02*
X0134612Y0263482D01*
X0135810Y0264681D02*
X0082603Y0264681D01*
X0082603Y0265879D02*
X0137009Y0265879D01*
X0138207Y0267078D02*
X0082603Y0267078D01*
X0082603Y0268276D02*
X0139406Y0268276D01*
X0140604Y0269475D02*
X0082603Y0269475D01*
X0082603Y0270673D02*
X0141803Y0270673D01*
X0143001Y0271872D02*
X0082603Y0271872D01*
X0082603Y0273070D02*
X0144200Y0273070D01*
X0145398Y0274269D02*
X0082603Y0274269D01*
X0082603Y0275467D02*
X0146597Y0275467D01*
X0147795Y0276666D02*
X0082603Y0276666D01*
X0082603Y0277864D02*
X0148994Y0277864D01*
X0150192Y0279063D02*
X0082603Y0279063D01*
X0082603Y0280261D02*
X0151391Y0280261D01*
X0152589Y0281460D02*
X0082603Y0281460D01*
X0082603Y0282658D02*
X0153788Y0282658D01*
X0154986Y0283857D02*
X0082603Y0283857D01*
X0082603Y0285055D02*
X0156185Y0285055D01*
X0157383Y0286254D02*
X0082603Y0286254D01*
X0082603Y0287452D02*
X0158582Y0287452D01*
X0159780Y0288651D02*
X0082603Y0288651D01*
X0082603Y0289849D02*
X0160979Y0289849D01*
X0162178Y0291048D02*
X0082603Y0291048D01*
X0082603Y0292246D02*
X0163376Y0292246D01*
X0164303Y0293445D02*
X0082603Y0293445D01*
X0082603Y0294643D02*
X0164303Y0294643D01*
X0164303Y0295842D02*
X0082603Y0295842D01*
X0082603Y0297040D02*
X0164303Y0297040D01*
X0164303Y0298239D02*
X0082603Y0298239D01*
X0082603Y0299437D02*
X0164303Y0299437D01*
X0175603Y0300636D02*
X0178724Y0300636D01*
X0177526Y0301834D02*
X0175798Y0301834D01*
X0176503Y0303033D02*
X0176903Y0303033D01*
X0176903Y0304231D02*
X0176503Y0304231D01*
X0176503Y0305430D02*
X0176903Y0305430D01*
X0177016Y0306629D02*
X0176308Y0306629D01*
X0181603Y0306629D02*
X0182003Y0306629D01*
X0182003Y0307827D02*
X0181603Y0307827D01*
X0181603Y0309026D02*
X0182003Y0309026D01*
X0182003Y0305430D02*
X0181603Y0305430D01*
X0181603Y0304231D02*
X0182003Y0304231D01*
X0182003Y0303033D02*
X0181603Y0303033D01*
X0181603Y0301834D02*
X0182003Y0301834D01*
X0182003Y0300636D02*
X0181603Y0300636D01*
X0185379Y0283857D02*
X0216803Y0283857D01*
X0216803Y0282658D02*
X0184861Y0282658D01*
X0183872Y0281460D02*
X0216803Y0281460D01*
X0220603Y0281460D02*
X0226803Y0281460D01*
X0226803Y0282658D02*
X0220603Y0282658D01*
X0220603Y0283857D02*
X0226803Y0283857D01*
X0226803Y0285055D02*
X0220603Y0285055D01*
X0220603Y0286254D02*
X0226803Y0286254D01*
X0226803Y0287452D02*
X0220603Y0287452D01*
X0220603Y0288651D02*
X0226803Y0288651D01*
X0226803Y0289849D02*
X0220603Y0289849D01*
X0220603Y0291048D02*
X0226803Y0291048D01*
X0226803Y0292246D02*
X0220603Y0292246D01*
X0220603Y0293445D02*
X0226803Y0293445D01*
X0226803Y0294643D02*
X0220603Y0294643D01*
X0220603Y0295842D02*
X0226803Y0295842D01*
X0221868Y0297040D02*
X0220603Y0297040D01*
X0220603Y0298239D02*
X0220721Y0298239D01*
X0220769Y0303033D02*
X0220603Y0303033D01*
X0220603Y0304231D02*
X0221967Y0304231D01*
X0220603Y0305430D02*
X0226803Y0305430D01*
X0226803Y0306629D02*
X0220603Y0306629D01*
X0220603Y0307827D02*
X0226803Y0307827D01*
X0226803Y0309026D02*
X0220603Y0309026D01*
X0220603Y0310224D02*
X0226803Y0310224D01*
X0226803Y0311423D02*
X0220603Y0311423D01*
X0220603Y0312621D02*
X0226803Y0312621D01*
X0226803Y0313820D02*
X0220603Y0313820D01*
X0220603Y0315018D02*
X0226803Y0315018D01*
X0226803Y0316217D02*
X0220603Y0316217D01*
X0220603Y0317415D02*
X0226803Y0317415D01*
X0226803Y0318614D02*
X0220603Y0318614D01*
X0220603Y0319812D02*
X0226803Y0319812D01*
X0226803Y0321011D02*
X0220603Y0321011D01*
X0220603Y0322209D02*
X0226803Y0322209D01*
X0226803Y0323408D02*
X0220603Y0323408D01*
X0220603Y0324606D02*
X0226803Y0324606D01*
X0226803Y0325805D02*
X0220603Y0325805D01*
X0220603Y0327003D02*
X0226803Y0327003D01*
X0226803Y0328202D02*
X0220603Y0328202D01*
X0220603Y0329400D02*
X0226803Y0329400D01*
X0226803Y0330599D02*
X0220603Y0330599D01*
X0220603Y0331797D02*
X0226803Y0331797D01*
X0226803Y0332996D02*
X0220603Y0332996D01*
X0220603Y0334194D02*
X0226803Y0334194D01*
X0226803Y0335393D02*
X0220603Y0335393D01*
X0220603Y0336591D02*
X0226803Y0336591D01*
X0226803Y0337790D02*
X0220603Y0337790D01*
X0220603Y0338988D02*
X0226803Y0338988D01*
X0226803Y0340187D02*
X0220603Y0340187D01*
X0220603Y0341385D02*
X0226803Y0341385D01*
X0226803Y0342584D02*
X0220603Y0342584D01*
X0220603Y0343782D02*
X0226803Y0343782D01*
X0226803Y0344981D02*
X0220603Y0344981D01*
X0220603Y0346179D02*
X0226803Y0346179D01*
X0226803Y0347378D02*
X0220603Y0347378D01*
X0220200Y0348576D02*
X0226803Y0348576D01*
X0226803Y0349775D02*
X0219002Y0349775D01*
X0218703Y0350973D02*
X0226803Y0350973D01*
X0226803Y0352172D02*
X0218401Y0352172D01*
X0217700Y0353370D02*
X0226803Y0353370D01*
X0226803Y0354569D02*
X0216025Y0354569D01*
X0215259Y0356287D02*
X0213548Y0356287D01*
X0211967Y0356941D01*
X0210758Y0358151D01*
X0210103Y0359731D01*
X0210103Y0361442D01*
X0210758Y0363022D01*
X0211967Y0364232D01*
X0213548Y0364887D01*
X0215259Y0364887D01*
X0216839Y0364232D01*
X0218049Y0363022D01*
X0218703Y0361442D01*
X0218703Y0359731D01*
X0218049Y0358151D01*
X0216839Y0356941D01*
X0215259Y0356287D01*
X0216864Y0356966D02*
X0226803Y0356966D01*
X0226803Y0358165D02*
X0218054Y0358165D01*
X0218551Y0359363D02*
X0226803Y0359363D01*
X0226803Y0360562D02*
X0218703Y0360562D01*
X0218571Y0361760D02*
X0226803Y0361760D01*
X0226803Y0362959D02*
X0218075Y0362959D01*
X0216914Y0364157D02*
X0226803Y0364157D01*
X0226803Y0365356D02*
X0208103Y0365356D01*
X0208103Y0366554D02*
X0212902Y0366554D01*
X0213548Y0366287D02*
X0215259Y0366287D01*
X0216839Y0366941D01*
X0218049Y0368151D01*
X0218703Y0369731D01*
X0218703Y0371442D01*
X0218049Y0373022D01*
X0216839Y0374232D01*
X0215259Y0374887D01*
X0213548Y0374887D01*
X0211967Y0374232D01*
X0210758Y0373022D01*
X0210103Y0371442D01*
X0210103Y0369731D01*
X0210758Y0368151D01*
X0211967Y0366941D01*
X0213548Y0366287D01*
X0215904Y0366554D02*
X0226803Y0366554D01*
X0226803Y0367753D02*
X0217650Y0367753D01*
X0218380Y0368951D02*
X0226803Y0368951D01*
X0226803Y0370150D02*
X0218703Y0370150D01*
X0218703Y0371348D02*
X0226803Y0371348D01*
X0226803Y0372547D02*
X0218246Y0372547D01*
X0217326Y0373745D02*
X0226803Y0373745D01*
X0226803Y0374944D02*
X0208103Y0374944D01*
X0208103Y0376142D02*
X0226803Y0376142D01*
X0226803Y0377341D02*
X0217238Y0377341D01*
X0216839Y0376941D02*
X0218049Y0378151D01*
X0218703Y0379731D01*
X0218703Y0381442D01*
X0218049Y0383022D01*
X0216839Y0384232D01*
X0215259Y0384887D01*
X0213548Y0384887D01*
X0211967Y0384232D01*
X0210758Y0383022D01*
X0210103Y0381442D01*
X0210103Y0379731D01*
X0210758Y0378151D01*
X0211967Y0376941D01*
X0213548Y0376287D01*
X0215259Y0376287D01*
X0216839Y0376941D01*
X0218209Y0378539D02*
X0226803Y0378539D01*
X0226803Y0379738D02*
X0218703Y0379738D01*
X0218703Y0380936D02*
X0226803Y0380936D01*
X0226803Y0382135D02*
X0218416Y0382135D01*
X0217738Y0383333D02*
X0226803Y0383333D01*
X0226803Y0384532D02*
X0216115Y0384532D01*
X0215259Y0386287D02*
X0216839Y0386941D01*
X0218049Y0388151D01*
X0218703Y0389731D01*
X0218703Y0391442D01*
X0218049Y0393022D01*
X0216839Y0394232D01*
X0215259Y0394887D01*
X0213548Y0394887D01*
X0211967Y0394232D01*
X0210758Y0393022D01*
X0210103Y0391442D01*
X0210103Y0389731D01*
X0210758Y0388151D01*
X0211967Y0386941D01*
X0213548Y0386287D01*
X0215259Y0386287D01*
X0216809Y0386929D02*
X0226803Y0386929D01*
X0226803Y0388127D02*
X0218025Y0388127D01*
X0218535Y0389326D02*
X0226803Y0389326D01*
X0226803Y0390524D02*
X0218703Y0390524D01*
X0218587Y0391723D02*
X0226803Y0391723D01*
X0226803Y0392921D02*
X0218090Y0392921D01*
X0216951Y0394120D02*
X0226803Y0394120D01*
X0226803Y0395318D02*
X0203458Y0395318D01*
X0202260Y0396517D02*
X0212992Y0396517D01*
X0213548Y0396287D02*
X0215259Y0396287D01*
X0216839Y0396941D01*
X0218049Y0398151D01*
X0218703Y0399731D01*
X0218703Y0401442D01*
X0218049Y0403022D01*
X0216839Y0404232D01*
X0215259Y0404887D01*
X0213548Y0404887D01*
X0211967Y0404232D01*
X0210758Y0403022D01*
X0210103Y0401442D01*
X0210103Y0399731D01*
X0210758Y0398151D01*
X0211967Y0396941D01*
X0213548Y0396287D01*
X0215814Y0396517D02*
X0226803Y0396517D01*
X0225687Y0397715D02*
X0217613Y0397715D01*
X0218365Y0398914D02*
X0224489Y0398914D01*
X0223290Y0400112D02*
X0218703Y0400112D01*
X0218703Y0401311D02*
X0222092Y0401311D01*
X0220893Y0402509D02*
X0218261Y0402509D01*
X0217363Y0403708D02*
X0219695Y0403708D01*
X0218496Y0404906D02*
X0193870Y0404906D01*
X0195069Y0403708D02*
X0211443Y0403708D01*
X0210545Y0402509D02*
X0196409Y0402509D01*
X0197466Y0401311D02*
X0210103Y0401311D01*
X0210103Y0400112D02*
X0198664Y0400112D01*
X0199863Y0398914D02*
X0210442Y0398914D01*
X0211193Y0397715D02*
X0201061Y0397715D01*
X0198084Y0395318D02*
X0197003Y0395318D01*
X0197003Y0394120D02*
X0199283Y0394120D01*
X0200481Y0392921D02*
X0197003Y0392921D01*
X0195868Y0391723D02*
X0198245Y0391723D01*
X0197028Y0390524D02*
X0194528Y0390524D01*
X0193329Y0389326D02*
X0196386Y0389326D01*
X0196003Y0388127D02*
X0192131Y0388127D01*
X0190932Y0386929D02*
X0196003Y0386929D01*
X0196269Y0385730D02*
X0189734Y0385730D01*
X0188535Y0384532D02*
X0196766Y0384532D01*
X0197944Y0383333D02*
X0187337Y0383333D01*
X0186138Y0382135D02*
X0199239Y0382135D01*
X0197440Y0380936D02*
X0184940Y0380936D01*
X0183741Y0379738D02*
X0196557Y0379738D01*
X0196060Y0378539D02*
X0182543Y0378539D01*
X0181344Y0377341D02*
X0195970Y0377341D01*
X0194772Y0376142D02*
X0180146Y0376142D01*
X0178947Y0374944D02*
X0193573Y0374944D01*
X0192375Y0373745D02*
X0177749Y0373745D01*
X0176550Y0372547D02*
X0191803Y0372547D01*
X0191803Y0371348D02*
X0175352Y0371348D01*
X0174153Y0370150D02*
X0191803Y0370150D01*
X0191803Y0368951D02*
X0173103Y0368951D01*
X0173103Y0367753D02*
X0191803Y0367753D01*
X0191803Y0366554D02*
X0173103Y0366554D01*
X0173103Y0365356D02*
X0191803Y0365356D01*
X0191803Y0364157D02*
X0173103Y0364157D01*
X0173103Y0362959D02*
X0191803Y0362959D01*
X0191803Y0361760D02*
X0173103Y0361760D01*
X0173103Y0360562D02*
X0191803Y0360562D01*
X0191803Y0359363D02*
X0173103Y0359363D01*
X0173103Y0358165D02*
X0191803Y0358165D01*
X0191803Y0356966D02*
X0173103Y0356966D01*
X0173103Y0355767D02*
X0191803Y0355767D01*
X0191803Y0354569D02*
X0173103Y0354569D01*
X0173103Y0353370D02*
X0191803Y0353370D01*
X0191803Y0352172D02*
X0173103Y0352172D01*
X0173103Y0350973D02*
X0191803Y0350973D01*
X0191803Y0349775D02*
X0173103Y0349775D01*
X0173103Y0348576D02*
X0191803Y0348576D01*
X0191803Y0347378D02*
X0173103Y0347378D01*
X0173103Y0346179D02*
X0191803Y0346179D01*
X0191803Y0344981D02*
X0173103Y0344981D01*
X0173103Y0343782D02*
X0191803Y0343782D01*
X0191803Y0342584D02*
X0173103Y0342584D01*
X0173103Y0341385D02*
X0191803Y0341385D01*
X0191803Y0340187D02*
X0173103Y0340187D01*
X0173103Y0338988D02*
X0191803Y0338988D01*
X0191803Y0337790D02*
X0173103Y0337790D01*
X0173103Y0336591D02*
X0191803Y0336591D01*
X0191803Y0335393D02*
X0173103Y0335393D01*
X0173103Y0334194D02*
X0191803Y0334194D01*
X0191803Y0332996D02*
X0173103Y0332996D01*
X0173103Y0331797D02*
X0191803Y0331797D01*
X0191803Y0330599D02*
X0173103Y0330599D01*
X0173103Y0329400D02*
X0191803Y0329400D01*
X0191803Y0328202D02*
X0173103Y0328202D01*
X0173103Y0327003D02*
X0191803Y0327003D01*
X0191803Y0325805D02*
X0173103Y0325805D01*
X0173103Y0324606D02*
X0191803Y0324606D01*
X0191803Y0323408D02*
X0173103Y0323408D01*
X0173103Y0322209D02*
X0191803Y0322209D01*
X0192392Y0321011D02*
X0173103Y0321011D01*
X0173103Y0319812D02*
X0193591Y0319812D01*
X0194789Y0318614D02*
X0173103Y0318614D01*
X0195603Y0323174D02*
X0195603Y0371600D01*
X0197640Y0373637D01*
X0198214Y0373063D01*
X0199625Y0372479D01*
X0199069Y0372298D01*
X0198325Y0371920D01*
X0197650Y0371429D01*
X0197061Y0370839D01*
X0196570Y0370164D01*
X0196192Y0369421D01*
X0195934Y0368628D01*
X0195803Y0367804D01*
X0195803Y0367787D01*
X0200703Y0367787D01*
X0200703Y0366987D01*
X0195803Y0366987D01*
X0195803Y0366969D01*
X0195934Y0366145D01*
X0196192Y0365352D01*
X0196570Y0364609D01*
X0197061Y0363934D01*
X0197650Y0363344D01*
X0198325Y0362854D01*
X0199069Y0362475D01*
X0199625Y0362294D01*
X0198214Y0361710D01*
X0196780Y0360275D01*
X0196003Y0358401D01*
X0196003Y0356372D01*
X0196780Y0354498D01*
X0198214Y0353063D01*
X0199847Y0352387D01*
X0198214Y0351710D01*
X0196780Y0350275D01*
X0196003Y0348401D01*
X0196003Y0346372D01*
X0196780Y0344498D01*
X0198214Y0343063D01*
X0199847Y0342387D01*
X0198214Y0341710D01*
X0196780Y0340275D01*
X0196003Y0338401D01*
X0196003Y0336372D01*
X0196780Y0334498D01*
X0198214Y0333063D01*
X0199847Y0332387D01*
X0198214Y0331710D01*
X0196780Y0330275D01*
X0196003Y0328401D01*
X0196003Y0326372D01*
X0196780Y0324498D01*
X0198214Y0323063D01*
X0200089Y0322287D01*
X0202118Y0322287D01*
X0203992Y0323063D01*
X0204303Y0323374D01*
X0204303Y0319100D01*
X0205416Y0317987D01*
X0210647Y0312755D01*
X0210103Y0311442D01*
X0210103Y0309731D01*
X0210758Y0308151D01*
X0211967Y0306941D01*
X0213548Y0306287D01*
X0215259Y0306287D01*
X0216803Y0306926D01*
X0216803Y0304247D01*
X0215259Y0304887D01*
X0213890Y0304887D01*
X0195603Y0323174D01*
X0195603Y0323408D02*
X0197870Y0323408D01*
X0196735Y0324606D02*
X0195603Y0324606D01*
X0195603Y0325805D02*
X0196238Y0325805D01*
X0196003Y0327003D02*
X0195603Y0327003D01*
X0195603Y0328202D02*
X0196003Y0328202D01*
X0195603Y0329400D02*
X0196417Y0329400D01*
X0197103Y0330599D02*
X0195603Y0330599D01*
X0195603Y0331797D02*
X0198425Y0331797D01*
X0198377Y0332996D02*
X0195603Y0332996D01*
X0195603Y0334194D02*
X0197083Y0334194D01*
X0196409Y0335393D02*
X0195603Y0335393D01*
X0195603Y0336591D02*
X0196003Y0336591D01*
X0196003Y0337790D02*
X0195603Y0337790D01*
X0195603Y0338988D02*
X0196246Y0338988D01*
X0196743Y0340187D02*
X0195603Y0340187D01*
X0195603Y0341385D02*
X0197889Y0341385D01*
X0199371Y0342584D02*
X0195603Y0342584D01*
X0195603Y0343782D02*
X0197495Y0343782D01*
X0196579Y0344981D02*
X0195603Y0344981D01*
X0195603Y0346179D02*
X0196083Y0346179D01*
X0196003Y0347378D02*
X0195603Y0347378D01*
X0195603Y0348576D02*
X0196076Y0348576D01*
X0195603Y0349775D02*
X0196572Y0349775D01*
X0197478Y0350973D02*
X0195603Y0350973D01*
X0195603Y0352172D02*
X0199329Y0352172D01*
X0197907Y0353370D02*
X0195603Y0353370D01*
X0195603Y0354569D02*
X0196750Y0354569D01*
X0196254Y0355767D02*
X0195603Y0355767D01*
X0195603Y0356966D02*
X0196003Y0356966D01*
X0196003Y0358165D02*
X0195603Y0358165D01*
X0195603Y0359363D02*
X0196402Y0359363D01*
X0197066Y0360562D02*
X0195603Y0360562D01*
X0195603Y0361760D02*
X0198335Y0361760D01*
X0198181Y0362959D02*
X0195603Y0362959D01*
X0195603Y0364157D02*
X0196898Y0364157D01*
X0196190Y0365356D02*
X0195603Y0365356D01*
X0195603Y0366554D02*
X0195869Y0366554D01*
X0195603Y0367753D02*
X0200703Y0367753D01*
X0197569Y0371348D02*
X0195603Y0371348D01*
X0195603Y0370150D02*
X0196563Y0370150D01*
X0196039Y0368951D02*
X0195603Y0368951D01*
X0196550Y0372547D02*
X0199461Y0372547D01*
X0208103Y0372547D02*
X0210561Y0372547D01*
X0210103Y0371348D02*
X0208103Y0371348D01*
X0208103Y0370150D02*
X0210103Y0370150D01*
X0210426Y0368951D02*
X0208103Y0368951D01*
X0208103Y0367753D02*
X0211156Y0367753D01*
X0211893Y0364157D02*
X0208103Y0364157D01*
X0208103Y0362959D02*
X0210731Y0362959D01*
X0210235Y0361760D02*
X0208103Y0361760D01*
X0208103Y0360562D02*
X0210103Y0360562D01*
X0210256Y0359363D02*
X0208103Y0359363D01*
X0208103Y0358165D02*
X0210752Y0358165D01*
X0211943Y0356966D02*
X0208103Y0356966D01*
X0208103Y0355767D02*
X0226803Y0355767D01*
X0230603Y0355767D02*
X0231803Y0355767D01*
X0231803Y0354569D02*
X0230603Y0354569D01*
X0230603Y0353370D02*
X0231803Y0353370D01*
X0231803Y0352172D02*
X0230603Y0352172D01*
X0230603Y0350973D02*
X0231803Y0350973D01*
X0231803Y0349775D02*
X0230603Y0349775D01*
X0230603Y0348576D02*
X0231803Y0348576D01*
X0231803Y0347378D02*
X0230603Y0347378D01*
X0230603Y0346179D02*
X0231803Y0346179D01*
X0231803Y0344981D02*
X0230603Y0344981D01*
X0230603Y0343782D02*
X0231803Y0343782D01*
X0231803Y0342584D02*
X0230603Y0342584D01*
X0230603Y0341385D02*
X0231803Y0341385D01*
X0231803Y0340187D02*
X0230603Y0340187D01*
X0230603Y0338988D02*
X0231803Y0338988D01*
X0231803Y0337790D02*
X0230603Y0337790D01*
X0230603Y0336591D02*
X0231803Y0336591D01*
X0231803Y0335393D02*
X0230603Y0335393D01*
X0230603Y0334194D02*
X0231803Y0334194D01*
X0231803Y0332996D02*
X0230603Y0332996D01*
X0230603Y0331797D02*
X0231803Y0331797D01*
X0231803Y0330599D02*
X0230603Y0330599D01*
X0230603Y0329400D02*
X0231803Y0329400D01*
X0231803Y0328202D02*
X0230603Y0328202D01*
X0230603Y0327003D02*
X0231803Y0327003D01*
X0231803Y0325805D02*
X0230603Y0325805D01*
X0230603Y0324606D02*
X0231803Y0324606D01*
X0231803Y0323408D02*
X0230603Y0323408D01*
X0230603Y0322209D02*
X0231803Y0322209D01*
X0231803Y0321011D02*
X0230603Y0321011D01*
X0230603Y0319812D02*
X0231803Y0319812D01*
X0231803Y0318614D02*
X0230603Y0318614D01*
X0230603Y0317415D02*
X0231803Y0317415D01*
X0231803Y0316217D02*
X0230603Y0316217D01*
X0230603Y0315018D02*
X0231803Y0315018D01*
X0231803Y0313820D02*
X0230603Y0313820D01*
X0230603Y0312621D02*
X0231803Y0312621D01*
X0231803Y0311423D02*
X0230603Y0311423D01*
X0230603Y0310224D02*
X0231803Y0310224D01*
X0231803Y0309026D02*
X0230603Y0309026D01*
X0230603Y0307827D02*
X0231803Y0307827D01*
X0231803Y0306629D02*
X0230603Y0306629D01*
X0230603Y0305430D02*
X0231803Y0305430D01*
X0231803Y0304231D02*
X0230603Y0304231D01*
X0230603Y0303033D02*
X0230769Y0303033D01*
X0240603Y0303033D02*
X0240618Y0303033D01*
X0240603Y0304231D02*
X0241764Y0304231D01*
X0240603Y0305430D02*
X0294303Y0305430D01*
X0294303Y0304231D02*
X0276839Y0304231D01*
X0276839Y0304232D02*
X0275259Y0304887D01*
X0273548Y0304887D01*
X0271967Y0304232D01*
X0270758Y0303022D01*
X0270103Y0301442D01*
X0270103Y0299731D01*
X0270758Y0298151D01*
X0271967Y0296941D01*
X0273548Y0296287D01*
X0275259Y0296287D01*
X0276839Y0296941D01*
X0278049Y0298151D01*
X0278703Y0299731D01*
X0278703Y0301442D01*
X0278049Y0303022D01*
X0276839Y0304232D01*
X0278038Y0303033D02*
X0294303Y0303033D01*
X0294303Y0301834D02*
X0278541Y0301834D01*
X0278703Y0300636D02*
X0294303Y0300636D01*
X0294303Y0299437D02*
X0278581Y0299437D01*
X0278085Y0298239D02*
X0294303Y0298239D01*
X0294303Y0297040D02*
X0276938Y0297040D01*
X0271868Y0297040D02*
X0266938Y0297040D01*
X0266839Y0296941D02*
X0268049Y0298151D01*
X0268703Y0299731D01*
X0268703Y0301442D01*
X0268049Y0303022D01*
X0266839Y0304232D01*
X0265259Y0304887D01*
X0263548Y0304887D01*
X0261967Y0304232D01*
X0260758Y0303022D01*
X0260103Y0301442D01*
X0260103Y0299731D01*
X0260758Y0298151D01*
X0261967Y0296941D01*
X0263548Y0296287D01*
X0265259Y0296287D01*
X0266839Y0296941D01*
X0268085Y0298239D02*
X0270721Y0298239D01*
X0270225Y0299437D02*
X0268581Y0299437D01*
X0268703Y0300636D02*
X0270103Y0300636D01*
X0270266Y0301834D02*
X0268541Y0301834D01*
X0268038Y0303033D02*
X0270769Y0303033D01*
X0271967Y0304231D02*
X0266839Y0304231D01*
X0270758Y0308151D02*
X0271967Y0306941D01*
X0273548Y0306287D01*
X0275259Y0306287D01*
X0276839Y0306941D01*
X0278049Y0308151D01*
X0278703Y0309731D01*
X0278703Y0311442D01*
X0278049Y0313022D01*
X0276839Y0314232D01*
X0275259Y0314887D01*
X0273548Y0314887D01*
X0271967Y0314232D01*
X0270758Y0313022D01*
X0270103Y0311442D01*
X0270103Y0309731D01*
X0270758Y0308151D01*
X0271082Y0307827D02*
X0240603Y0307827D01*
X0240603Y0306629D02*
X0272722Y0306629D01*
X0270396Y0309026D02*
X0240603Y0309026D01*
X0240603Y0310224D02*
X0270103Y0310224D01*
X0270103Y0311423D02*
X0240603Y0311423D01*
X0240603Y0312621D02*
X0270592Y0312621D01*
X0271555Y0313820D02*
X0240603Y0313820D01*
X0240603Y0315018D02*
X0288385Y0315018D01*
X0289583Y0313820D02*
X0277251Y0313820D01*
X0278215Y0312621D02*
X0290782Y0312621D01*
X0291980Y0311423D02*
X0278703Y0311423D01*
X0278703Y0310224D02*
X0293179Y0310224D01*
X0294303Y0309026D02*
X0278411Y0309026D01*
X0277725Y0307827D02*
X0294303Y0307827D01*
X0294303Y0306629D02*
X0276084Y0306629D01*
X0275259Y0316287D02*
X0276839Y0316941D01*
X0278049Y0318151D01*
X0278703Y0319731D01*
X0278703Y0321442D01*
X0278049Y0323022D01*
X0276839Y0324232D01*
X0275259Y0324887D01*
X0273548Y0324887D01*
X0271967Y0324232D01*
X0270758Y0323022D01*
X0270103Y0321442D01*
X0270103Y0319731D01*
X0270758Y0318151D01*
X0271967Y0316941D01*
X0273548Y0316287D01*
X0275259Y0316287D01*
X0277313Y0317415D02*
X0285988Y0317415D01*
X0287186Y0316217D02*
X0240603Y0316217D01*
X0240603Y0317415D02*
X0271494Y0317415D01*
X0270566Y0318614D02*
X0240603Y0318614D01*
X0240603Y0319812D02*
X0270103Y0319812D01*
X0270103Y0321011D02*
X0240603Y0321011D01*
X0240603Y0322209D02*
X0270421Y0322209D01*
X0271143Y0323408D02*
X0240603Y0323408D01*
X0240603Y0324606D02*
X0272871Y0324606D01*
X0271905Y0327003D02*
X0240603Y0327003D01*
X0240603Y0325805D02*
X0277598Y0325805D01*
X0278797Y0324606D02*
X0275935Y0324606D01*
X0277663Y0323408D02*
X0279995Y0323408D01*
X0281194Y0322209D02*
X0278385Y0322209D01*
X0278703Y0321011D02*
X0282392Y0321011D01*
X0283591Y0319812D02*
X0278703Y0319812D01*
X0278240Y0318614D02*
X0284789Y0318614D01*
X0287766Y0321011D02*
X0296803Y0321011D01*
X0296803Y0322209D02*
X0286568Y0322209D01*
X0285369Y0323408D02*
X0296803Y0323408D01*
X0296803Y0324606D02*
X0284171Y0324606D01*
X0282972Y0325805D02*
X0296803Y0325805D01*
X0296803Y0327003D02*
X0281774Y0327003D01*
X0280575Y0328202D02*
X0296803Y0328202D01*
X0296803Y0329400D02*
X0279377Y0329400D01*
X0278703Y0330599D02*
X0296803Y0330599D01*
X0296803Y0331797D02*
X0278556Y0331797D01*
X0278060Y0332996D02*
X0296803Y0332996D01*
X0296803Y0334194D02*
X0276877Y0334194D01*
X0275994Y0336591D02*
X0296803Y0336591D01*
X0296803Y0335393D02*
X0240603Y0335393D01*
X0240603Y0336591D02*
X0272812Y0336591D01*
X0273548Y0336287D02*
X0275259Y0336287D01*
X0276839Y0336941D01*
X0278049Y0338151D01*
X0278703Y0339731D01*
X0278703Y0341442D01*
X0278049Y0343022D01*
X0276839Y0344232D01*
X0275259Y0344887D01*
X0273548Y0344887D01*
X0271967Y0344232D01*
X0270758Y0343022D01*
X0270103Y0341442D01*
X0270103Y0339731D01*
X0270758Y0338151D01*
X0271967Y0336941D01*
X0273548Y0336287D01*
X0271930Y0334194D02*
X0240603Y0334194D01*
X0240603Y0332996D02*
X0270747Y0332996D01*
X0270250Y0331797D02*
X0240603Y0331797D01*
X0240603Y0330599D02*
X0270103Y0330599D01*
X0270240Y0329400D02*
X0240603Y0329400D01*
X0240603Y0328202D02*
X0270737Y0328202D01*
X0271119Y0337790D02*
X0240603Y0337790D01*
X0240603Y0338988D02*
X0270411Y0338988D01*
X0270103Y0340187D02*
X0240603Y0340187D01*
X0240603Y0341385D02*
X0270103Y0341385D01*
X0270576Y0342584D02*
X0240603Y0342584D01*
X0240603Y0343782D02*
X0271518Y0343782D01*
X0271967Y0346941D02*
X0273548Y0346287D01*
X0275259Y0346287D01*
X0276839Y0346941D01*
X0278049Y0348151D01*
X0278703Y0349731D01*
X0278703Y0351442D01*
X0278049Y0353022D01*
X0276839Y0354232D01*
X0275259Y0354887D01*
X0273548Y0354887D01*
X0271967Y0354232D01*
X0270758Y0353022D01*
X0270103Y0351442D01*
X0270103Y0349731D01*
X0270758Y0348151D01*
X0271967Y0346941D01*
X0271531Y0347378D02*
X0240603Y0347378D01*
X0240603Y0348576D02*
X0270582Y0348576D01*
X0270103Y0349775D02*
X0240603Y0349775D01*
X0240603Y0350973D02*
X0270103Y0350973D01*
X0270406Y0352172D02*
X0240603Y0352172D01*
X0240603Y0353370D02*
X0271106Y0353370D01*
X0272781Y0354569D02*
X0240603Y0354569D01*
X0240603Y0355767D02*
X0296803Y0355767D01*
X0296803Y0354569D02*
X0276025Y0354569D01*
X0275259Y0356287D02*
X0276839Y0356941D01*
X0278049Y0358151D01*
X0278703Y0359731D01*
X0278703Y0361442D01*
X0278049Y0363022D01*
X0276839Y0364232D01*
X0275259Y0364887D01*
X0273548Y0364887D01*
X0271967Y0364232D01*
X0270758Y0363022D01*
X0270103Y0361442D01*
X0270103Y0359731D01*
X0270758Y0358151D01*
X0271967Y0356941D01*
X0273548Y0356287D01*
X0275259Y0356287D01*
X0276864Y0356966D02*
X0296803Y0356966D01*
X0296803Y0353370D02*
X0277700Y0353370D01*
X0278401Y0352172D02*
X0296803Y0352172D01*
X0296803Y0350973D02*
X0278703Y0350973D01*
X0278703Y0349775D02*
X0296803Y0349775D01*
X0296803Y0348576D02*
X0278225Y0348576D01*
X0277276Y0347378D02*
X0296803Y0347378D01*
X0296803Y0346179D02*
X0240603Y0346179D01*
X0240603Y0344981D02*
X0296803Y0344981D01*
X0296803Y0343782D02*
X0277289Y0343782D01*
X0278230Y0342584D02*
X0296803Y0342584D01*
X0296803Y0341385D02*
X0278703Y0341385D01*
X0278703Y0340187D02*
X0296803Y0340187D01*
X0296803Y0338988D02*
X0278395Y0338988D01*
X0277688Y0337790D02*
X0296803Y0337790D01*
X0308103Y0337790D02*
X0342944Y0337790D01*
X0342980Y0337875D02*
X0342203Y0336001D01*
X0342203Y0333972D01*
X0342980Y0332098D01*
X0344414Y0330663D01*
X0346289Y0329887D01*
X0348318Y0329887D01*
X0350192Y0330663D01*
X0351627Y0332098D01*
X0352403Y0333972D01*
X0352403Y0336001D01*
X0351627Y0337875D01*
X0350192Y0339310D01*
X0348559Y0339987D01*
X0350192Y0340663D01*
X0351627Y0342098D01*
X0352403Y0343972D01*
X0352403Y0346001D01*
X0351627Y0347875D01*
X0350192Y0349310D01*
X0348559Y0349987D01*
X0350192Y0350663D01*
X0351627Y0352098D01*
X0352403Y0353972D01*
X0352403Y0356001D01*
X0351627Y0357875D01*
X0350192Y0359310D01*
X0348318Y0360087D01*
X0346289Y0360087D01*
X0344414Y0359310D01*
X0342980Y0357875D01*
X0342203Y0356001D01*
X0342203Y0353972D01*
X0342980Y0352098D01*
X0344414Y0350663D01*
X0346047Y0349987D01*
X0344414Y0349310D01*
X0342980Y0347875D01*
X0342203Y0346001D01*
X0342203Y0343972D01*
X0342980Y0342098D01*
X0344414Y0340663D01*
X0346047Y0339987D01*
X0344414Y0339310D01*
X0342980Y0337875D01*
X0342448Y0336591D02*
X0308103Y0336591D01*
X0308103Y0335393D02*
X0342203Y0335393D01*
X0342203Y0334194D02*
X0308103Y0334194D01*
X0308103Y0332996D02*
X0342608Y0332996D01*
X0343280Y0331797D02*
X0308103Y0331797D01*
X0308103Y0330599D02*
X0344569Y0330599D01*
X0350037Y0330599D02*
X0375779Y0330599D01*
X0375480Y0330898D02*
X0376914Y0329463D01*
X0378789Y0328687D01*
X0380818Y0328687D01*
X0382692Y0329463D01*
X0384127Y0330898D01*
X0384903Y0332772D01*
X0384903Y0334801D01*
X0384127Y0336675D01*
X0382692Y0338110D01*
X0381059Y0338787D01*
X0382692Y0339463D01*
X0384127Y0340898D01*
X0384903Y0342772D01*
X0384903Y0344801D01*
X0384127Y0346675D01*
X0382692Y0348110D01*
X0381282Y0348694D01*
X0381838Y0348875D01*
X0382581Y0349254D01*
X0383256Y0349744D01*
X0383846Y0350334D01*
X0384336Y0351009D01*
X0384715Y0351752D01*
X0384973Y0352545D01*
X0385103Y0353369D01*
X0385103Y0353387D01*
X0380203Y0353387D01*
X0380203Y0354187D01*
X0379403Y0354187D01*
X0379403Y0359087D01*
X0379386Y0359087D01*
X0378562Y0358956D01*
X0377769Y0358698D01*
X0377025Y0358320D01*
X0376350Y0357829D01*
X0375761Y0357239D01*
X0375270Y0356564D01*
X0374892Y0355821D01*
X0374634Y0355028D01*
X0374503Y0354204D01*
X0374503Y0354187D01*
X0379403Y0354187D01*
X0379403Y0353387D01*
X0374503Y0353387D01*
X0374503Y0353369D01*
X0374634Y0352545D01*
X0374892Y0351752D01*
X0375270Y0351009D01*
X0375761Y0350334D01*
X0376350Y0349744D01*
X0377025Y0349254D01*
X0377769Y0348875D01*
X0378325Y0348694D01*
X0376914Y0348110D01*
X0375480Y0346675D01*
X0374703Y0344801D01*
X0374703Y0342772D01*
X0375480Y0340898D01*
X0376914Y0339463D01*
X0378547Y0338787D01*
X0376914Y0338110D01*
X0375480Y0336675D01*
X0374703Y0334801D01*
X0374703Y0332772D01*
X0375480Y0330898D01*
X0375107Y0331797D02*
X0351326Y0331797D01*
X0351999Y0332996D02*
X0374703Y0332996D01*
X0374703Y0334194D02*
X0352403Y0334194D01*
X0352403Y0335393D02*
X0374948Y0335393D01*
X0375445Y0336591D02*
X0352159Y0336591D01*
X0351662Y0337790D02*
X0376594Y0337790D01*
X0378060Y0338988D02*
X0350514Y0338988D01*
X0349043Y0340187D02*
X0376190Y0340187D01*
X0375278Y0341385D02*
X0350914Y0341385D01*
X0351828Y0342584D02*
X0374781Y0342584D01*
X0374703Y0343782D02*
X0352325Y0343782D01*
X0352403Y0344981D02*
X0374778Y0344981D01*
X0375274Y0346179D02*
X0352329Y0346179D01*
X0351833Y0347378D02*
X0376182Y0347378D01*
X0378040Y0348576D02*
X0350926Y0348576D01*
X0349070Y0349775D02*
X0376320Y0349775D01*
X0375296Y0350973D02*
X0350503Y0350973D01*
X0351658Y0352172D02*
X0374755Y0352172D01*
X0374503Y0353370D02*
X0352154Y0353370D01*
X0352403Y0354569D02*
X0374561Y0354569D01*
X0374874Y0355767D02*
X0352403Y0355767D01*
X0352004Y0356966D02*
X0375562Y0356966D01*
X0376812Y0358165D02*
X0351338Y0358165D01*
X0350064Y0359363D02*
X0388027Y0359363D01*
X0389225Y0358165D02*
X0382794Y0358165D01*
X0382581Y0358320D02*
X0381838Y0358698D01*
X0381044Y0358956D01*
X0380220Y0359087D01*
X0380203Y0359087D01*
X0380203Y0354187D01*
X0385103Y0354187D01*
X0385103Y0354204D01*
X0384973Y0355028D01*
X0384715Y0355821D01*
X0384336Y0356564D01*
X0383846Y0357239D01*
X0383256Y0357829D01*
X0382581Y0358320D01*
X0384044Y0356966D02*
X0390424Y0356966D01*
X0391622Y0355767D02*
X0384732Y0355767D01*
X0385045Y0354569D02*
X0392821Y0354569D01*
X0394019Y0353370D02*
X0385103Y0353370D01*
X0384851Y0352172D02*
X0395218Y0352172D01*
X0396416Y0350973D02*
X0384311Y0350973D01*
X0383287Y0349775D02*
X0397615Y0349775D01*
X0398813Y0348576D02*
X0381566Y0348576D01*
X0383424Y0347378D02*
X0400012Y0347378D01*
X0401210Y0346179D02*
X0384332Y0346179D01*
X0384829Y0344981D02*
X0402409Y0344981D01*
X0403303Y0344087D02*
X0403303Y0260587D01*
X0402003Y0259287D01*
X0395269Y0258423D01*
X0396357Y0259511D01*
X0397103Y0261312D01*
X0397103Y0263261D01*
X0396357Y0265062D01*
X0394979Y0266441D01*
X0393178Y0267187D01*
X0391229Y0267187D01*
X0389428Y0266441D01*
X0388049Y0265062D01*
X0387303Y0263261D01*
X0387303Y0261312D01*
X0388049Y0259511D01*
X0389428Y0258133D01*
X0390274Y0257782D01*
X0367703Y0254887D01*
X0309103Y0255687D01*
X0325903Y0139487D01*
X0325899Y0139287D01*
X0319432Y0139287D01*
X0311303Y0147415D01*
X0311303Y0147615D01*
X0310132Y0148787D01*
X0309990Y0148787D01*
X0307170Y0151607D01*
X0308129Y0152004D01*
X0309086Y0152961D01*
X0309603Y0154210D01*
X0309603Y0155563D01*
X0309086Y0156813D01*
X0308129Y0157769D01*
X0308103Y0157780D01*
X0308103Y0259457D01*
X0309428Y0258133D01*
X0311229Y0257387D01*
X0313178Y0257387D01*
X0314979Y0258133D01*
X0316357Y0259511D01*
X0317103Y0261312D01*
X0317103Y0263261D01*
X0316357Y0265062D01*
X0314979Y0266441D01*
X0313272Y0267147D01*
X0314086Y0267961D01*
X0314603Y0269210D01*
X0314603Y0270563D01*
X0314592Y0270589D01*
X0326990Y0282987D01*
X0326990Y0282987D01*
X0328103Y0284100D01*
X0328103Y0309887D01*
X0328318Y0309887D01*
X0330192Y0310663D01*
X0331627Y0312098D01*
X0332303Y0313731D01*
X0332980Y0312098D01*
X0334303Y0310774D01*
X0334303Y0275674D01*
X0325025Y0266395D01*
X0324979Y0266441D01*
X0323178Y0267187D01*
X0321229Y0267187D01*
X0319428Y0266441D01*
X0318049Y0265062D01*
X0317303Y0263261D01*
X0317303Y0261312D01*
X0318049Y0259511D01*
X0319428Y0258133D01*
X0321229Y0257387D01*
X0323178Y0257387D01*
X0324979Y0258133D01*
X0326357Y0259511D01*
X0327103Y0261312D01*
X0327103Y0263100D01*
X0327181Y0263177D01*
X0327103Y0262688D01*
X0327103Y0262671D01*
X0331819Y0262671D01*
X0331819Y0267387D01*
X0331802Y0267387D01*
X0331313Y0267309D01*
X0336990Y0272987D01*
X0338103Y0274100D01*
X0338103Y0309887D01*
X0338318Y0309887D01*
X0340192Y0310663D01*
X0341627Y0312098D01*
X0342211Y0313508D01*
X0342392Y0312952D01*
X0342770Y0312209D01*
X0343261Y0311534D01*
X0343850Y0310944D01*
X0344525Y0310454D01*
X0345269Y0310075D01*
X0346062Y0309817D01*
X0346886Y0309687D01*
X0346903Y0309687D01*
X0346903Y0314586D01*
X0347703Y0314586D01*
X0347703Y0309687D01*
X0347720Y0309687D01*
X0348544Y0309817D01*
X0349338Y0310075D01*
X0350081Y0310454D01*
X0350756Y0310944D01*
X0351346Y0311534D01*
X0351836Y0312209D01*
X0352215Y0312952D01*
X0352473Y0313745D01*
X0352603Y0314569D01*
X0352603Y0314587D01*
X0347703Y0314587D01*
X0347703Y0315387D01*
X0346903Y0315387D01*
X0346903Y0320287D01*
X0346886Y0320287D01*
X0346062Y0320156D01*
X0345269Y0319898D01*
X0344525Y0319520D01*
X0343850Y0319029D01*
X0343261Y0318439D01*
X0342770Y0317764D01*
X0342392Y0317021D01*
X0342211Y0316465D01*
X0341627Y0317875D01*
X0340192Y0319310D01*
X0338318Y0320087D01*
X0336289Y0320087D01*
X0334414Y0319310D01*
X0332980Y0317875D01*
X0332303Y0316242D01*
X0331627Y0317875D01*
X0330192Y0319310D01*
X0328318Y0320087D01*
X0326289Y0320087D01*
X0324414Y0319310D01*
X0322980Y0317875D01*
X0322403Y0316484D01*
X0322403Y0319266D01*
X0321583Y0320087D01*
X0313023Y0320087D01*
X0312203Y0319266D01*
X0312203Y0310707D01*
X0313023Y0309887D01*
X0314303Y0309887D01*
X0314303Y0280674D01*
X0311905Y0278276D01*
X0311880Y0278287D01*
X0310527Y0278287D01*
X0309277Y0277769D01*
X0308321Y0276813D01*
X0308103Y0276287D01*
X0308103Y0389958D01*
X0310175Y0387887D01*
X0326932Y0387887D01*
X0327032Y0387987D01*
X0361546Y0387987D01*
X0362080Y0386698D01*
X0363514Y0385263D01*
X0365389Y0384487D01*
X0367418Y0384487D01*
X0369292Y0385263D01*
X0370727Y0386698D01*
X0371503Y0388572D01*
X0371503Y0392133D01*
X0373602Y0390344D01*
X0378503Y0385330D01*
X0378503Y0368887D01*
X0403303Y0344087D01*
X0403303Y0343782D02*
X0384903Y0343782D01*
X0384825Y0342584D02*
X0403303Y0342584D01*
X0403303Y0341385D02*
X0384329Y0341385D01*
X0383416Y0340187D02*
X0403303Y0340187D01*
X0403303Y0338988D02*
X0381546Y0338988D01*
X0383012Y0337790D02*
X0403303Y0337790D01*
X0403303Y0336591D02*
X0384162Y0336591D01*
X0384658Y0335393D02*
X0403303Y0335393D01*
X0403303Y0334194D02*
X0384903Y0334194D01*
X0384903Y0332996D02*
X0403303Y0332996D01*
X0403303Y0331797D02*
X0384499Y0331797D01*
X0383828Y0330599D02*
X0403303Y0330599D01*
X0403303Y0329400D02*
X0382541Y0329400D01*
X0377066Y0329400D02*
X0308103Y0329400D01*
X0308103Y0328202D02*
X0403303Y0328202D01*
X0403303Y0327003D02*
X0308103Y0327003D01*
X0308103Y0325805D02*
X0403303Y0325805D01*
X0403303Y0324606D02*
X0308103Y0324606D01*
X0308103Y0323408D02*
X0403303Y0323408D01*
X0403303Y0322209D02*
X0308103Y0322209D01*
X0308103Y0321011D02*
X0403303Y0321011D01*
X0403303Y0319812D02*
X0349507Y0319812D01*
X0349338Y0319898D02*
X0348544Y0320156D01*
X0347720Y0320287D01*
X0347703Y0320287D01*
X0347703Y0315387D01*
X0352603Y0315387D01*
X0352603Y0315404D01*
X0352473Y0316228D01*
X0352215Y0317021D01*
X0351836Y0317764D01*
X0351346Y0318439D01*
X0350756Y0319029D01*
X0350081Y0319520D01*
X0349338Y0319898D01*
X0347703Y0319812D02*
X0346903Y0319812D01*
X0346903Y0318614D02*
X0347703Y0318614D01*
X0347703Y0317415D02*
X0346903Y0317415D01*
X0346903Y0316217D02*
X0347703Y0316217D01*
X0346903Y0315387D02*
X0342403Y0315387D01*
X0342403Y0314587D01*
X0346903Y0314587D01*
X0346903Y0315387D01*
X0346903Y0315018D02*
X0342403Y0315018D01*
X0342560Y0312621D02*
X0341844Y0312621D01*
X0340952Y0311423D02*
X0343372Y0311423D01*
X0344976Y0310224D02*
X0339132Y0310224D01*
X0338103Y0309026D02*
X0403303Y0309026D01*
X0403303Y0310224D02*
X0349630Y0310224D01*
X0347703Y0310224D02*
X0346903Y0310224D01*
X0346903Y0311423D02*
X0347703Y0311423D01*
X0347703Y0312621D02*
X0346903Y0312621D01*
X0346903Y0313820D02*
X0347703Y0313820D01*
X0347703Y0315018D02*
X0403303Y0315018D01*
X0403303Y0313820D02*
X0352484Y0313820D01*
X0352046Y0312621D02*
X0403303Y0312621D01*
X0403303Y0311423D02*
X0351235Y0311423D01*
X0352474Y0316217D02*
X0403303Y0316217D01*
X0403303Y0317415D02*
X0352014Y0317415D01*
X0351171Y0318614D02*
X0403303Y0318614D01*
X0403303Y0307827D02*
X0338103Y0307827D01*
X0338103Y0306629D02*
X0403303Y0306629D01*
X0403303Y0305430D02*
X0338103Y0305430D01*
X0338103Y0304231D02*
X0403303Y0304231D01*
X0403303Y0303033D02*
X0338103Y0303033D01*
X0338103Y0301834D02*
X0403303Y0301834D01*
X0403303Y0300636D02*
X0338103Y0300636D01*
X0338103Y0299437D02*
X0403303Y0299437D01*
X0403303Y0298239D02*
X0338103Y0298239D01*
X0338103Y0297040D02*
X0403303Y0297040D01*
X0403303Y0295842D02*
X0338103Y0295842D01*
X0338103Y0294643D02*
X0403303Y0294643D01*
X0403303Y0293445D02*
X0338103Y0293445D01*
X0338103Y0292246D02*
X0403303Y0292246D01*
X0403303Y0291048D02*
X0338103Y0291048D01*
X0338103Y0289849D02*
X0403303Y0289849D01*
X0403303Y0288651D02*
X0338103Y0288651D01*
X0338103Y0287452D02*
X0403303Y0287452D01*
X0403303Y0286254D02*
X0338103Y0286254D01*
X0338103Y0285055D02*
X0403303Y0285055D01*
X0403303Y0283857D02*
X0338103Y0283857D01*
X0338103Y0282658D02*
X0403303Y0282658D01*
X0403303Y0281460D02*
X0338103Y0281460D01*
X0338103Y0280261D02*
X0403303Y0280261D01*
X0403303Y0279063D02*
X0338103Y0279063D01*
X0338103Y0277864D02*
X0403303Y0277864D01*
X0403303Y0276666D02*
X0338103Y0276666D01*
X0338103Y0275467D02*
X0403303Y0275467D01*
X0403303Y0274269D02*
X0338103Y0274269D01*
X0337074Y0273070D02*
X0403303Y0273070D01*
X0403303Y0271872D02*
X0335875Y0271872D01*
X0334677Y0270673D02*
X0403303Y0270673D01*
X0403303Y0269475D02*
X0333478Y0269475D01*
X0332280Y0268276D02*
X0403303Y0268276D01*
X0403303Y0267078D02*
X0393441Y0267078D01*
X0395540Y0265879D02*
X0403303Y0265879D01*
X0403303Y0264681D02*
X0396515Y0264681D01*
X0397012Y0263482D02*
X0403303Y0263482D01*
X0403303Y0262284D02*
X0397103Y0262284D01*
X0397009Y0261085D02*
X0403303Y0261085D01*
X0402603Y0259887D02*
X0396513Y0259887D01*
X0397338Y0258688D02*
X0395534Y0258688D01*
X0390966Y0267078D02*
X0383441Y0267078D01*
X0383178Y0267187D02*
X0381229Y0267187D01*
X0379428Y0266441D01*
X0378049Y0265062D01*
X0377303Y0263261D01*
X0377303Y0261312D01*
X0378049Y0259511D01*
X0379428Y0258133D01*
X0381229Y0257387D01*
X0383178Y0257387D01*
X0384979Y0258133D01*
X0386357Y0259511D01*
X0387103Y0261312D01*
X0387103Y0263261D01*
X0386357Y0265062D01*
X0384979Y0266441D01*
X0383178Y0267187D01*
X0380966Y0267078D02*
X0373441Y0267078D01*
X0373178Y0267187D02*
X0374979Y0266441D01*
X0376357Y0265062D01*
X0377103Y0263261D01*
X0377103Y0261312D01*
X0376357Y0259511D01*
X0374979Y0258133D01*
X0373178Y0257387D01*
X0371229Y0257387D01*
X0369428Y0258133D01*
X0368049Y0259511D01*
X0367303Y0261312D01*
X0367303Y0263261D01*
X0368049Y0265062D01*
X0369428Y0266441D01*
X0371229Y0267187D01*
X0373178Y0267187D01*
X0370966Y0267078D02*
X0363441Y0267078D01*
X0363178Y0267187D02*
X0364979Y0266441D01*
X0366357Y0265062D01*
X0367103Y0263261D01*
X0367103Y0261312D01*
X0366357Y0259511D01*
X0364979Y0258133D01*
X0363178Y0257387D01*
X0361229Y0257387D01*
X0359428Y0258133D01*
X0358049Y0259511D01*
X0357303Y0261312D01*
X0357303Y0263261D01*
X0358049Y0265062D01*
X0359428Y0266441D01*
X0361229Y0267187D01*
X0363178Y0267187D01*
X0360966Y0267078D02*
X0353441Y0267078D01*
X0353178Y0267187D02*
X0351229Y0267187D01*
X0349428Y0266441D01*
X0348049Y0265062D01*
X0347303Y0263261D01*
X0347303Y0261312D01*
X0348049Y0259511D01*
X0349428Y0258133D01*
X0351229Y0257387D01*
X0353178Y0257387D01*
X0354979Y0258133D01*
X0356357Y0259511D01*
X0357103Y0261312D01*
X0357103Y0263261D01*
X0356357Y0265062D01*
X0354979Y0266441D01*
X0353178Y0267187D01*
X0350966Y0267078D02*
X0343441Y0267078D01*
X0343178Y0267187D02*
X0344979Y0266441D01*
X0346357Y0265062D01*
X0347103Y0263261D01*
X0347103Y0261312D01*
X0346357Y0259511D01*
X0344979Y0258133D01*
X0343178Y0257387D01*
X0341229Y0257387D01*
X0339428Y0258133D01*
X0338049Y0259511D01*
X0337303Y0261312D01*
X0337303Y0263261D01*
X0338049Y0265062D01*
X0339428Y0266441D01*
X0341229Y0267187D01*
X0343178Y0267187D01*
X0340966Y0267078D02*
X0333962Y0267078D01*
X0334161Y0267013D02*
X0333397Y0267261D01*
X0332605Y0267387D01*
X0332587Y0267387D01*
X0332587Y0262671D01*
X0331819Y0262671D01*
X0331819Y0261902D01*
X0332587Y0261902D01*
X0332587Y0257187D01*
X0332605Y0257187D01*
X0333397Y0257312D01*
X0334161Y0257560D01*
X0334876Y0257925D01*
X0335526Y0258397D01*
X0336093Y0258964D01*
X0336565Y0259614D01*
X0336930Y0260329D01*
X0337178Y0261092D01*
X0337303Y0261885D01*
X0337303Y0261902D01*
X0332588Y0261902D01*
X0332588Y0262671D01*
X0337303Y0262671D01*
X0337303Y0262688D01*
X0337178Y0263481D01*
X0336930Y0264244D01*
X0336565Y0264960D01*
X0336093Y0265609D01*
X0335526Y0266177D01*
X0334876Y0266648D01*
X0334161Y0267013D01*
X0332587Y0267078D02*
X0331819Y0267078D01*
X0331819Y0265879D02*
X0332587Y0265879D01*
X0332587Y0264681D02*
X0331819Y0264681D01*
X0331819Y0263482D02*
X0332587Y0263482D01*
X0332588Y0262284D02*
X0337303Y0262284D01*
X0337395Y0263482D02*
X0337177Y0263482D01*
X0336707Y0264681D02*
X0337891Y0264681D01*
X0338866Y0265879D02*
X0335823Y0265879D01*
X0337175Y0261085D02*
X0337397Y0261085D01*
X0337894Y0259887D02*
X0336704Y0259887D01*
X0335817Y0258688D02*
X0338872Y0258688D01*
X0340980Y0257490D02*
X0333943Y0257490D01*
X0332587Y0257490D02*
X0331819Y0257490D01*
X0331819Y0257187D02*
X0331819Y0261902D01*
X0327103Y0261902D01*
X0327103Y0261885D01*
X0327229Y0261092D01*
X0327477Y0260329D01*
X0327841Y0259614D01*
X0328313Y0258964D01*
X0328881Y0258397D01*
X0329530Y0257925D01*
X0330245Y0257560D01*
X0331009Y0257312D01*
X0331802Y0257187D01*
X0331819Y0257187D01*
X0330463Y0257490D02*
X0323426Y0257490D01*
X0325534Y0258688D02*
X0328589Y0258688D01*
X0327702Y0259887D02*
X0326513Y0259887D01*
X0327009Y0261085D02*
X0327231Y0261085D01*
X0327103Y0262284D02*
X0331819Y0262284D01*
X0331819Y0261085D02*
X0332587Y0261085D01*
X0332587Y0259887D02*
X0331819Y0259887D01*
X0331819Y0258688D02*
X0332587Y0258688D01*
X0325707Y0267078D02*
X0323441Y0267078D01*
X0320966Y0267078D02*
X0313441Y0267078D01*
X0314216Y0268276D02*
X0326906Y0268276D01*
X0328104Y0269475D02*
X0314603Y0269475D01*
X0314677Y0270673D02*
X0329303Y0270673D01*
X0330501Y0271872D02*
X0315875Y0271872D01*
X0317074Y0273070D02*
X0331700Y0273070D01*
X0332898Y0274269D02*
X0318272Y0274269D01*
X0319471Y0275467D02*
X0334097Y0275467D01*
X0334303Y0276666D02*
X0320669Y0276666D01*
X0321868Y0277864D02*
X0334303Y0277864D01*
X0334303Y0279063D02*
X0323066Y0279063D01*
X0324265Y0280261D02*
X0334303Y0280261D01*
X0334303Y0281460D02*
X0325463Y0281460D01*
X0326662Y0282658D02*
X0334303Y0282658D01*
X0334303Y0283857D02*
X0327860Y0283857D01*
X0328103Y0285055D02*
X0334303Y0285055D01*
X0334303Y0286254D02*
X0328103Y0286254D01*
X0328103Y0287452D02*
X0334303Y0287452D01*
X0334303Y0288651D02*
X0328103Y0288651D01*
X0328103Y0289849D02*
X0334303Y0289849D01*
X0334303Y0291048D02*
X0328103Y0291048D01*
X0328103Y0292246D02*
X0334303Y0292246D01*
X0334303Y0293445D02*
X0328103Y0293445D01*
X0328103Y0294643D02*
X0334303Y0294643D01*
X0334303Y0295842D02*
X0328103Y0295842D01*
X0328103Y0297040D02*
X0334303Y0297040D01*
X0334303Y0298239D02*
X0328103Y0298239D01*
X0328103Y0299437D02*
X0334303Y0299437D01*
X0334303Y0300636D02*
X0328103Y0300636D01*
X0328103Y0301834D02*
X0334303Y0301834D01*
X0334303Y0303033D02*
X0328103Y0303033D01*
X0328103Y0304231D02*
X0334303Y0304231D01*
X0334303Y0305430D02*
X0328103Y0305430D01*
X0328103Y0306629D02*
X0334303Y0306629D01*
X0334303Y0307827D02*
X0328103Y0307827D01*
X0328103Y0309026D02*
X0334303Y0309026D01*
X0334303Y0310224D02*
X0329132Y0310224D01*
X0330952Y0311423D02*
X0333655Y0311423D01*
X0332763Y0312621D02*
X0331844Y0312621D01*
X0331817Y0317415D02*
X0332789Y0317415D01*
X0333718Y0318614D02*
X0330889Y0318614D01*
X0328980Y0319812D02*
X0335626Y0319812D01*
X0338980Y0319812D02*
X0345100Y0319812D01*
X0343435Y0318614D02*
X0340889Y0318614D01*
X0341817Y0317415D02*
X0342592Y0317415D01*
X0325626Y0319812D02*
X0321858Y0319812D01*
X0322403Y0318614D02*
X0323718Y0318614D01*
X0322789Y0317415D02*
X0322403Y0317415D01*
X0312749Y0319812D02*
X0308103Y0319812D01*
X0308103Y0318614D02*
X0312203Y0318614D01*
X0312203Y0317415D02*
X0308103Y0317415D01*
X0308103Y0316217D02*
X0312203Y0316217D01*
X0312203Y0315018D02*
X0308103Y0315018D01*
X0308103Y0313820D02*
X0312203Y0313820D01*
X0312203Y0312621D02*
X0308103Y0312621D01*
X0308103Y0311423D02*
X0312203Y0311423D01*
X0312686Y0310224D02*
X0308103Y0310224D01*
X0308103Y0309026D02*
X0314303Y0309026D01*
X0314303Y0307827D02*
X0308103Y0307827D01*
X0308103Y0306629D02*
X0314303Y0306629D01*
X0314303Y0305430D02*
X0308103Y0305430D01*
X0308103Y0304231D02*
X0314303Y0304231D01*
X0314303Y0303033D02*
X0308103Y0303033D01*
X0308103Y0301834D02*
X0314303Y0301834D01*
X0314303Y0300636D02*
X0308103Y0300636D01*
X0308103Y0299437D02*
X0314303Y0299437D01*
X0314303Y0298239D02*
X0308103Y0298239D01*
X0308103Y0297040D02*
X0314303Y0297040D01*
X0314303Y0295842D02*
X0308103Y0295842D01*
X0308103Y0294643D02*
X0314303Y0294643D01*
X0314303Y0293445D02*
X0308103Y0293445D01*
X0308103Y0292246D02*
X0314303Y0292246D01*
X0314303Y0291048D02*
X0308103Y0291048D01*
X0308103Y0289849D02*
X0314303Y0289849D01*
X0314303Y0288651D02*
X0308103Y0288651D01*
X0308103Y0287452D02*
X0314303Y0287452D01*
X0314303Y0286254D02*
X0308103Y0286254D01*
X0308103Y0285055D02*
X0314303Y0285055D01*
X0314303Y0283857D02*
X0308103Y0283857D01*
X0308103Y0282658D02*
X0314303Y0282658D01*
X0314303Y0281460D02*
X0308103Y0281460D01*
X0308103Y0280261D02*
X0313891Y0280261D01*
X0312692Y0279063D02*
X0308103Y0279063D01*
X0308103Y0277864D02*
X0309507Y0277864D01*
X0308260Y0276666D02*
X0308103Y0276666D01*
X0315540Y0265879D02*
X0318866Y0265879D01*
X0317891Y0264681D02*
X0316515Y0264681D01*
X0317012Y0263482D02*
X0317395Y0263482D01*
X0317303Y0262284D02*
X0317103Y0262284D01*
X0317009Y0261085D02*
X0317397Y0261085D01*
X0317894Y0259887D02*
X0316513Y0259887D01*
X0315534Y0258688D02*
X0318872Y0258688D01*
X0320980Y0257490D02*
X0313426Y0257490D01*
X0310980Y0257490D02*
X0308103Y0257490D01*
X0308103Y0258688D02*
X0308872Y0258688D01*
X0308103Y0256291D02*
X0378652Y0256291D01*
X0378872Y0258688D02*
X0375534Y0258688D01*
X0376513Y0259887D02*
X0377894Y0259887D01*
X0377397Y0261085D02*
X0377009Y0261085D01*
X0377103Y0262284D02*
X0377303Y0262284D01*
X0377395Y0263482D02*
X0377012Y0263482D01*
X0376515Y0264681D02*
X0377891Y0264681D01*
X0378866Y0265879D02*
X0375540Y0265879D01*
X0368866Y0265879D02*
X0365540Y0265879D01*
X0366515Y0264681D02*
X0367891Y0264681D01*
X0367395Y0263482D02*
X0367012Y0263482D01*
X0367103Y0262284D02*
X0367303Y0262284D01*
X0367397Y0261085D02*
X0367009Y0261085D01*
X0366513Y0259887D02*
X0367894Y0259887D01*
X0368872Y0258688D02*
X0365534Y0258688D01*
X0363426Y0257490D02*
X0370980Y0257490D01*
X0373426Y0257490D02*
X0380980Y0257490D01*
X0383426Y0257490D02*
X0387995Y0257490D01*
X0388872Y0258688D02*
X0385534Y0258688D01*
X0386513Y0259887D02*
X0387894Y0259887D01*
X0387397Y0261085D02*
X0387009Y0261085D01*
X0387103Y0262284D02*
X0387303Y0262284D01*
X0387395Y0263482D02*
X0387012Y0263482D01*
X0386515Y0264681D02*
X0387891Y0264681D01*
X0388866Y0265879D02*
X0385540Y0265879D01*
X0369309Y0255093D02*
X0352617Y0255093D01*
X0353426Y0257490D02*
X0360980Y0257490D01*
X0358872Y0258688D02*
X0355534Y0258688D01*
X0356513Y0259887D02*
X0357894Y0259887D01*
X0357397Y0261085D02*
X0357009Y0261085D01*
X0357103Y0262284D02*
X0357303Y0262284D01*
X0357395Y0263482D02*
X0357012Y0263482D01*
X0356515Y0264681D02*
X0357891Y0264681D01*
X0358866Y0265879D02*
X0355540Y0265879D01*
X0348866Y0265879D02*
X0345540Y0265879D01*
X0346515Y0264681D02*
X0347891Y0264681D01*
X0347395Y0263482D02*
X0347012Y0263482D01*
X0347103Y0262284D02*
X0347303Y0262284D01*
X0347397Y0261085D02*
X0347009Y0261085D01*
X0346513Y0259887D02*
X0347894Y0259887D01*
X0348872Y0258688D02*
X0345534Y0258688D01*
X0343426Y0257490D02*
X0350980Y0257490D01*
X0310402Y0246703D02*
X0308103Y0246703D01*
X0308103Y0247901D02*
X0310229Y0247901D01*
X0310055Y0249100D02*
X0308103Y0249100D01*
X0308103Y0250298D02*
X0309882Y0250298D01*
X0309709Y0251497D02*
X0308103Y0251497D01*
X0308103Y0252696D02*
X0309536Y0252696D01*
X0309362Y0253894D02*
X0308103Y0253894D01*
X0308103Y0255093D02*
X0309189Y0255093D01*
X0308103Y0245504D02*
X0310575Y0245504D01*
X0310749Y0244306D02*
X0308103Y0244306D01*
X0308103Y0243107D02*
X0310922Y0243107D01*
X0311095Y0241909D02*
X0308103Y0241909D01*
X0308103Y0240710D02*
X0311268Y0240710D01*
X0311442Y0239512D02*
X0308103Y0239512D01*
X0308103Y0238313D02*
X0311615Y0238313D01*
X0311788Y0237115D02*
X0308103Y0237115D01*
X0308103Y0235916D02*
X0311962Y0235916D01*
X0312135Y0234718D02*
X0308103Y0234718D01*
X0308103Y0233519D02*
X0312308Y0233519D01*
X0312481Y0232321D02*
X0308103Y0232321D01*
X0308103Y0231122D02*
X0312655Y0231122D01*
X0312828Y0229924D02*
X0308103Y0229924D01*
X0308103Y0228725D02*
X0313001Y0228725D01*
X0313175Y0227527D02*
X0308103Y0227527D01*
X0308103Y0226328D02*
X0313348Y0226328D01*
X0313521Y0225130D02*
X0308103Y0225130D01*
X0308103Y0223931D02*
X0313694Y0223931D01*
X0313868Y0222733D02*
X0308103Y0222733D01*
X0308103Y0221534D02*
X0314041Y0221534D01*
X0314214Y0220336D02*
X0308103Y0220336D01*
X0308103Y0219137D02*
X0314387Y0219137D01*
X0314561Y0217939D02*
X0308103Y0217939D01*
X0308103Y0216740D02*
X0314734Y0216740D01*
X0314907Y0215542D02*
X0308103Y0215542D01*
X0308103Y0214343D02*
X0315081Y0214343D01*
X0315254Y0213145D02*
X0308103Y0213145D01*
X0308103Y0211946D02*
X0315427Y0211946D01*
X0315600Y0210748D02*
X0308103Y0210748D01*
X0308103Y0209549D02*
X0315774Y0209549D01*
X0315947Y0208351D02*
X0308103Y0208351D01*
X0308103Y0207152D02*
X0316120Y0207152D01*
X0316294Y0205954D02*
X0308103Y0205954D01*
X0308103Y0204755D02*
X0316467Y0204755D01*
X0316640Y0203557D02*
X0308103Y0203557D01*
X0308103Y0202358D02*
X0316813Y0202358D01*
X0316987Y0201160D02*
X0308103Y0201160D01*
X0308103Y0199961D02*
X0317160Y0199961D01*
X0317333Y0198762D02*
X0308103Y0198762D01*
X0308103Y0197564D02*
X0317506Y0197564D01*
X0317680Y0196365D02*
X0308103Y0196365D01*
X0308103Y0195167D02*
X0317853Y0195167D01*
X0318026Y0193968D02*
X0308103Y0193968D01*
X0308103Y0192770D02*
X0318200Y0192770D01*
X0318373Y0191571D02*
X0308103Y0191571D01*
X0308103Y0190373D02*
X0318546Y0190373D01*
X0318719Y0189174D02*
X0308103Y0189174D01*
X0308103Y0187976D02*
X0318893Y0187976D01*
X0319066Y0186777D02*
X0308103Y0186777D01*
X0308103Y0185579D02*
X0319239Y0185579D01*
X0319413Y0184380D02*
X0308103Y0184380D01*
X0308103Y0183182D02*
X0319586Y0183182D01*
X0319759Y0181983D02*
X0308103Y0181983D01*
X0308103Y0180785D02*
X0319932Y0180785D01*
X0320106Y0179586D02*
X0308103Y0179586D01*
X0308103Y0178388D02*
X0320279Y0178388D01*
X0320452Y0177189D02*
X0308103Y0177189D01*
X0308103Y0175991D02*
X0320625Y0175991D01*
X0320799Y0174792D02*
X0308103Y0174792D01*
X0308103Y0173594D02*
X0320972Y0173594D01*
X0321145Y0172395D02*
X0308103Y0172395D01*
X0308103Y0171197D02*
X0321319Y0171197D01*
X0321492Y0169998D02*
X0308103Y0169998D01*
X0308103Y0168800D02*
X0321665Y0168800D01*
X0321838Y0167601D02*
X0308103Y0167601D01*
X0308103Y0166403D02*
X0322012Y0166403D01*
X0322185Y0165204D02*
X0308103Y0165204D01*
X0308103Y0164006D02*
X0322358Y0164006D01*
X0322532Y0162807D02*
X0308103Y0162807D01*
X0308103Y0161609D02*
X0322705Y0161609D01*
X0322878Y0160410D02*
X0308103Y0160410D01*
X0308103Y0159212D02*
X0323051Y0159212D01*
X0323225Y0158013D02*
X0308103Y0158013D01*
X0309083Y0156815D02*
X0323398Y0156815D01*
X0323571Y0155616D02*
X0309581Y0155616D01*
X0309603Y0154418D02*
X0323745Y0154418D01*
X0323918Y0153219D02*
X0309193Y0153219D01*
X0308146Y0152021D02*
X0324091Y0152021D01*
X0324264Y0150822D02*
X0307955Y0150822D01*
X0309153Y0149624D02*
X0324438Y0149624D01*
X0324611Y0148425D02*
X0310493Y0148425D01*
X0311492Y0147227D02*
X0324784Y0147227D01*
X0324957Y0146028D02*
X0312690Y0146028D01*
X0313889Y0144829D02*
X0325131Y0144829D01*
X0325304Y0143631D02*
X0315087Y0143631D01*
X0316286Y0142432D02*
X0325477Y0142432D01*
X0325651Y0141234D02*
X0317484Y0141234D01*
X0318683Y0140035D02*
X0325824Y0140035D01*
X0325817Y0135241D02*
X0311035Y0135241D01*
X0309837Y0136440D02*
X0316621Y0136440D01*
X0315423Y0137638D02*
X0308638Y0137638D01*
X0307440Y0138837D02*
X0314224Y0138837D01*
X0313026Y0140035D02*
X0306241Y0140035D01*
X0305043Y0141234D02*
X0311827Y0141234D01*
X0310629Y0142432D02*
X0303844Y0142432D01*
X0302646Y0143631D02*
X0309430Y0143631D01*
X0308232Y0144829D02*
X0301447Y0144829D01*
X0300249Y0146028D02*
X0307303Y0146028D01*
X0306176Y0147227D02*
X0299050Y0147227D01*
X0298103Y0148425D02*
X0304978Y0148425D01*
X0303779Y0149624D02*
X0298103Y0149624D01*
X0298103Y0150822D02*
X0302581Y0150822D01*
X0301382Y0152021D02*
X0298103Y0152021D01*
X0298103Y0153219D02*
X0300184Y0153219D01*
X0298985Y0154418D02*
X0298103Y0154418D01*
X0294303Y0154418D02*
X0293103Y0154418D01*
X0293103Y0155616D02*
X0294303Y0155616D01*
X0294303Y0156815D02*
X0293103Y0156815D01*
X0293103Y0158013D02*
X0294303Y0158013D01*
X0294303Y0159212D02*
X0292065Y0159212D01*
X0290867Y0160410D02*
X0294303Y0160410D01*
X0294303Y0161609D02*
X0289839Y0161609D01*
X0290476Y0162807D02*
X0294303Y0162807D01*
X0294303Y0164006D02*
X0290685Y0164006D01*
X0290556Y0165204D02*
X0294303Y0165204D01*
X0294303Y0166403D02*
X0290030Y0166403D01*
X0288648Y0167601D02*
X0294303Y0167601D01*
X0294303Y0168800D02*
X0289156Y0168800D01*
X0290194Y0169998D02*
X0294303Y0169998D01*
X0294303Y0171197D02*
X0290685Y0171197D01*
X0290685Y0172395D02*
X0294303Y0172395D01*
X0294303Y0173594D02*
X0290342Y0173594D01*
X0289515Y0174792D02*
X0294303Y0174792D01*
X0294303Y0175991D02*
X0287781Y0175991D01*
X0285640Y0175991D02*
X0270286Y0175991D01*
X0269087Y0177189D02*
X0283749Y0177189D01*
X0283013Y0178388D02*
X0267889Y0178388D01*
X0266690Y0179586D02*
X0282735Y0179586D01*
X0282795Y0180785D02*
X0265492Y0180785D01*
X0264293Y0181983D02*
X0283292Y0181983D01*
X0284421Y0183182D02*
X0263095Y0183182D01*
X0261896Y0184380D02*
X0284432Y0184380D01*
X0283296Y0185579D02*
X0260698Y0185579D01*
X0259499Y0186777D02*
X0282800Y0186777D01*
X0282735Y0187976D02*
X0258301Y0187976D01*
X0257102Y0189174D02*
X0283009Y0189174D01*
X0283738Y0190373D02*
X0255904Y0190373D01*
X0254705Y0191571D02*
X0285613Y0191571D01*
X0283917Y0192770D02*
X0253507Y0192770D01*
X0252308Y0193968D02*
X0283083Y0193968D01*
X0282735Y0195167D02*
X0251110Y0195167D01*
X0249911Y0196365D02*
X0282735Y0196365D01*
X0283223Y0197564D02*
X0248713Y0197564D01*
X0247514Y0198762D02*
X0284254Y0198762D01*
X0284799Y0199961D02*
X0246316Y0199961D01*
X0245117Y0201160D02*
X0283401Y0201160D01*
X0282869Y0202358D02*
X0243919Y0202358D01*
X0242720Y0203557D02*
X0282735Y0203557D01*
X0282940Y0204755D02*
X0241522Y0204755D01*
X0240603Y0205954D02*
X0283571Y0205954D01*
X0285209Y0207152D02*
X0240603Y0207152D01*
X0240603Y0208351D02*
X0284084Y0208351D01*
X0283152Y0209549D02*
X0240603Y0209549D01*
X0240603Y0210748D02*
X0282735Y0210748D01*
X0282735Y0211946D02*
X0240603Y0211946D01*
X0240603Y0213145D02*
X0283153Y0213145D01*
X0284087Y0214343D02*
X0240603Y0214343D01*
X0240603Y0215542D02*
X0284733Y0215542D01*
X0283351Y0216740D02*
X0240603Y0216740D01*
X0240603Y0217939D02*
X0282737Y0217939D01*
X0282683Y0220336D02*
X0240603Y0220336D01*
X0240603Y0221534D02*
X0283232Y0221534D01*
X0284443Y0222733D02*
X0240603Y0222733D01*
X0240603Y0223931D02*
X0294303Y0223931D01*
X0294303Y0222733D02*
X0288978Y0222733D01*
X0290189Y0221534D02*
X0294303Y0221534D01*
X0294303Y0220336D02*
X0290737Y0220336D01*
X0290684Y0217939D02*
X0294303Y0217939D01*
X0294303Y0219137D02*
X0286898Y0219137D01*
X0286523Y0219137D02*
X0240603Y0219137D01*
X0240603Y0225130D02*
X0294303Y0225130D01*
X0294303Y0226328D02*
X0240603Y0226328D01*
X0240603Y0227527D02*
X0294303Y0227527D01*
X0294303Y0228725D02*
X0240603Y0228725D01*
X0240603Y0229924D02*
X0294303Y0229924D01*
X0294303Y0231122D02*
X0240603Y0231122D01*
X0240603Y0232321D02*
X0294303Y0232321D01*
X0294303Y0233519D02*
X0240603Y0233519D01*
X0240603Y0234718D02*
X0294303Y0234718D01*
X0294303Y0235916D02*
X0240603Y0235916D01*
X0240603Y0237115D02*
X0294303Y0237115D01*
X0294303Y0238313D02*
X0240603Y0238313D01*
X0240603Y0239512D02*
X0294303Y0239512D01*
X0294303Y0240710D02*
X0240603Y0240710D01*
X0240603Y0241909D02*
X0294303Y0241909D01*
X0294303Y0243107D02*
X0240603Y0243107D01*
X0240603Y0244306D02*
X0294303Y0244306D01*
X0294303Y0245504D02*
X0240603Y0245504D01*
X0240603Y0246703D02*
X0294303Y0246703D01*
X0294303Y0247901D02*
X0240603Y0247901D01*
X0240603Y0249100D02*
X0294303Y0249100D01*
X0294303Y0250298D02*
X0240603Y0250298D01*
X0240603Y0251497D02*
X0294303Y0251497D01*
X0294303Y0252696D02*
X0240603Y0252696D01*
X0240603Y0253894D02*
X0248499Y0253894D01*
X0248453Y0253913D02*
X0247196Y0255170D01*
X0245830Y0256536D01*
X0245090Y0258321D01*
X0245090Y0260252D01*
X0245830Y0262037D01*
X0247196Y0263403D01*
X0248453Y0264660D01*
X0250237Y0265399D01*
X0252169Y0265399D01*
X0253954Y0264660D01*
X0255211Y0263403D01*
X0256577Y0262037D01*
X0257316Y0260252D01*
X0257316Y0258321D01*
X0256577Y0256536D01*
X0255211Y0255170D01*
X0253954Y0253913D01*
X0252169Y0253174D01*
X0250237Y0253174D01*
X0248453Y0253913D01*
X0247273Y0255093D02*
X0240603Y0255093D01*
X0240603Y0256291D02*
X0246075Y0256291D01*
X0245435Y0257490D02*
X0240603Y0257490D01*
X0240603Y0258688D02*
X0245090Y0258688D01*
X0245090Y0259887D02*
X0240603Y0259887D01*
X0240603Y0261085D02*
X0245435Y0261085D01*
X0246076Y0262284D02*
X0240603Y0262284D01*
X0240603Y0263482D02*
X0247275Y0263482D01*
X0248502Y0264681D02*
X0240603Y0264681D01*
X0240603Y0265879D02*
X0294303Y0265879D01*
X0294303Y0264681D02*
X0253904Y0264681D01*
X0255132Y0263482D02*
X0294303Y0263482D01*
X0294303Y0262284D02*
X0256330Y0262284D01*
X0256971Y0261085D02*
X0294303Y0261085D01*
X0294303Y0259887D02*
X0257316Y0259887D01*
X0257316Y0258688D02*
X0294303Y0258688D01*
X0294303Y0257490D02*
X0256972Y0257490D01*
X0256332Y0256291D02*
X0294303Y0256291D01*
X0294303Y0255093D02*
X0255133Y0255093D01*
X0253908Y0253894D02*
X0294303Y0253894D01*
X0294303Y0267078D02*
X0240603Y0267078D01*
X0240603Y0268276D02*
X0294303Y0268276D01*
X0294303Y0269475D02*
X0240603Y0269475D01*
X0240603Y0270673D02*
X0294303Y0270673D01*
X0294303Y0271872D02*
X0240603Y0271872D01*
X0240603Y0273070D02*
X0294303Y0273070D01*
X0294303Y0274269D02*
X0240603Y0274269D01*
X0240603Y0275467D02*
X0294303Y0275467D01*
X0294303Y0276666D02*
X0240603Y0276666D01*
X0240603Y0277864D02*
X0294303Y0277864D01*
X0294303Y0279063D02*
X0240603Y0279063D01*
X0240603Y0280261D02*
X0294303Y0280261D01*
X0294303Y0281460D02*
X0240603Y0281460D01*
X0240603Y0282658D02*
X0294303Y0282658D01*
X0294303Y0283857D02*
X0240603Y0283857D01*
X0240603Y0285055D02*
X0294303Y0285055D01*
X0294303Y0286254D02*
X0240603Y0286254D01*
X0240603Y0287452D02*
X0294303Y0287452D01*
X0294303Y0288651D02*
X0240603Y0288651D01*
X0240603Y0289849D02*
X0294303Y0289849D01*
X0294303Y0291048D02*
X0240603Y0291048D01*
X0240603Y0292246D02*
X0294303Y0292246D01*
X0294303Y0293445D02*
X0240603Y0293445D01*
X0240603Y0294643D02*
X0294303Y0294643D01*
X0294303Y0295842D02*
X0240603Y0295842D01*
X0240603Y0297040D02*
X0241628Y0297040D01*
X0244053Y0297040D02*
X0244753Y0297040D01*
X0244753Y0298239D02*
X0244053Y0298239D01*
X0244053Y0299437D02*
X0244753Y0299437D01*
X0244753Y0300636D02*
X0250103Y0300636D01*
X0250103Y0301442D02*
X0250103Y0299731D01*
X0250758Y0298151D01*
X0251967Y0296941D01*
X0253548Y0296287D01*
X0255259Y0296287D01*
X0256839Y0296941D01*
X0258049Y0298151D01*
X0258703Y0299731D01*
X0258703Y0301442D01*
X0258049Y0303022D01*
X0256839Y0304232D01*
X0255259Y0304887D01*
X0253548Y0304887D01*
X0251967Y0304232D01*
X0250758Y0303022D01*
X0250103Y0301442D01*
X0250266Y0301834D02*
X0248729Y0301834D01*
X0248188Y0303033D02*
X0250769Y0303033D01*
X0251967Y0304231D02*
X0247042Y0304231D01*
X0244753Y0304231D02*
X0244053Y0304231D01*
X0244053Y0303033D02*
X0244753Y0303033D01*
X0244753Y0301834D02*
X0244053Y0301834D01*
X0248761Y0299437D02*
X0250225Y0299437D01*
X0250721Y0298239D02*
X0248257Y0298239D01*
X0247178Y0297040D02*
X0251868Y0297040D01*
X0256938Y0297040D02*
X0261868Y0297040D01*
X0260721Y0298239D02*
X0258085Y0298239D01*
X0258581Y0299437D02*
X0260225Y0299437D01*
X0260103Y0300636D02*
X0258703Y0300636D01*
X0258541Y0301834D02*
X0260266Y0301834D01*
X0260769Y0303033D02*
X0258038Y0303033D01*
X0256839Y0304231D02*
X0261967Y0304231D01*
X0288965Y0319812D02*
X0296803Y0319812D01*
X0296803Y0318614D02*
X0290163Y0318614D01*
X0291362Y0317415D02*
X0296803Y0317415D01*
X0296803Y0316217D02*
X0292560Y0316217D01*
X0293759Y0315018D02*
X0296803Y0315018D01*
X0296803Y0313820D02*
X0294957Y0313820D01*
X0296156Y0312621D02*
X0296803Y0312621D01*
X0308103Y0338988D02*
X0344092Y0338988D01*
X0345564Y0340187D02*
X0308103Y0340187D01*
X0308103Y0341385D02*
X0343692Y0341385D01*
X0342778Y0342584D02*
X0308103Y0342584D01*
X0308103Y0343782D02*
X0342282Y0343782D01*
X0342203Y0344981D02*
X0308103Y0344981D01*
X0308103Y0346179D02*
X0342277Y0346179D01*
X0342774Y0347378D02*
X0308103Y0347378D01*
X0308103Y0348576D02*
X0343681Y0348576D01*
X0345536Y0349775D02*
X0308103Y0349775D01*
X0308103Y0350973D02*
X0344104Y0350973D01*
X0342949Y0352172D02*
X0308103Y0352172D01*
X0308103Y0353370D02*
X0342452Y0353370D01*
X0342203Y0354569D02*
X0308103Y0354569D01*
X0308103Y0355767D02*
X0342203Y0355767D01*
X0342603Y0356966D02*
X0308103Y0356966D01*
X0308103Y0358165D02*
X0343269Y0358165D01*
X0344542Y0359363D02*
X0308103Y0359363D01*
X0308103Y0360562D02*
X0386828Y0360562D01*
X0385630Y0361760D02*
X0308103Y0361760D01*
X0308103Y0362959D02*
X0384431Y0362959D01*
X0383233Y0364157D02*
X0308103Y0364157D01*
X0308103Y0365356D02*
X0382034Y0365356D01*
X0380836Y0366554D02*
X0308103Y0366554D01*
X0308103Y0367753D02*
X0379637Y0367753D01*
X0378503Y0368951D02*
X0308103Y0368951D01*
X0308103Y0370150D02*
X0312760Y0370150D01*
X0313023Y0369887D02*
X0321583Y0369887D01*
X0322403Y0370707D01*
X0322403Y0373489D01*
X0322980Y0372098D01*
X0324414Y0370663D01*
X0326289Y0369887D01*
X0328318Y0369887D01*
X0330192Y0370663D01*
X0331627Y0372098D01*
X0332303Y0373731D01*
X0332980Y0372098D01*
X0334414Y0370663D01*
X0336289Y0369887D01*
X0338318Y0369887D01*
X0340192Y0370663D01*
X0341627Y0372098D01*
X0342303Y0373731D01*
X0342980Y0372098D01*
X0344414Y0370663D01*
X0346289Y0369887D01*
X0348318Y0369887D01*
X0350192Y0370663D01*
X0351627Y0372098D01*
X0352403Y0373972D01*
X0352403Y0376001D01*
X0351627Y0377875D01*
X0350192Y0379310D01*
X0348318Y0380087D01*
X0346289Y0380087D01*
X0344414Y0379310D01*
X0342980Y0377875D01*
X0342303Y0376242D01*
X0341627Y0377875D01*
X0340192Y0379310D01*
X0338318Y0380087D01*
X0336289Y0380087D01*
X0334414Y0379310D01*
X0332980Y0377875D01*
X0332303Y0376242D01*
X0331627Y0377875D01*
X0330192Y0379310D01*
X0328318Y0380087D01*
X0326289Y0380087D01*
X0324414Y0379310D01*
X0322980Y0377875D01*
X0322403Y0376484D01*
X0322403Y0379266D01*
X0321583Y0380087D01*
X0313023Y0380087D01*
X0312203Y0379266D01*
X0312203Y0370707D01*
X0313023Y0369887D01*
X0312203Y0371348D02*
X0308103Y0371348D01*
X0308103Y0372547D02*
X0312203Y0372547D01*
X0312203Y0373745D02*
X0308103Y0373745D01*
X0308103Y0374944D02*
X0312203Y0374944D01*
X0312203Y0376142D02*
X0308103Y0376142D01*
X0308103Y0377341D02*
X0312203Y0377341D01*
X0312203Y0378539D02*
X0308103Y0378539D01*
X0308103Y0379738D02*
X0312674Y0379738D01*
X0308103Y0380936D02*
X0378503Y0380936D01*
X0378503Y0379738D02*
X0349160Y0379738D01*
X0350963Y0378539D02*
X0378503Y0378539D01*
X0378503Y0377341D02*
X0351848Y0377341D01*
X0352345Y0376142D02*
X0378503Y0376142D01*
X0378503Y0374944D02*
X0352403Y0374944D01*
X0352309Y0373745D02*
X0378503Y0373745D01*
X0378503Y0372547D02*
X0351813Y0372547D01*
X0350877Y0371348D02*
X0378503Y0371348D01*
X0378503Y0370150D02*
X0348953Y0370150D01*
X0345654Y0370150D02*
X0338953Y0370150D01*
X0340877Y0371348D02*
X0343729Y0371348D01*
X0342794Y0372547D02*
X0341813Y0372547D01*
X0341848Y0377341D02*
X0342758Y0377341D01*
X0343643Y0378539D02*
X0340963Y0378539D01*
X0339160Y0379738D02*
X0345447Y0379738D01*
X0335447Y0379738D02*
X0329160Y0379738D01*
X0330963Y0378539D02*
X0333643Y0378539D01*
X0332758Y0377341D02*
X0331848Y0377341D01*
X0331813Y0372547D02*
X0332794Y0372547D01*
X0333729Y0371348D02*
X0330877Y0371348D01*
X0328953Y0370150D02*
X0335654Y0370150D01*
X0325654Y0370150D02*
X0321846Y0370150D01*
X0322403Y0371348D02*
X0323729Y0371348D01*
X0322794Y0372547D02*
X0322403Y0372547D01*
X0322403Y0377341D02*
X0322758Y0377341D01*
X0322403Y0378539D02*
X0323643Y0378539D01*
X0321932Y0379738D02*
X0325447Y0379738D01*
X0326103Y0389887D02*
X0311003Y0389887D01*
X0306203Y0394687D01*
X0308103Y0389326D02*
X0308736Y0389326D01*
X0308103Y0388127D02*
X0309934Y0388127D01*
X0308103Y0386929D02*
X0361984Y0386929D01*
X0363047Y0385730D02*
X0308103Y0385730D01*
X0308103Y0384532D02*
X0365280Y0384532D01*
X0367527Y0384532D02*
X0378503Y0384532D01*
X0378503Y0383333D02*
X0308103Y0383333D01*
X0308103Y0382135D02*
X0378503Y0382135D01*
X0378112Y0385730D02*
X0369759Y0385730D01*
X0370823Y0386929D02*
X0376941Y0386929D01*
X0375769Y0388127D02*
X0371319Y0388127D01*
X0371503Y0389326D02*
X0374598Y0389326D01*
X0373391Y0390524D02*
X0371503Y0390524D01*
X0371503Y0391723D02*
X0371984Y0391723D01*
X0379403Y0358165D02*
X0380203Y0358165D01*
X0380203Y0356966D02*
X0379403Y0356966D01*
X0379403Y0355767D02*
X0380203Y0355767D01*
X0380203Y0354569D02*
X0379403Y0354569D01*
X0296803Y0401287D02*
X0296586Y0401813D01*
X0295629Y0402769D01*
X0294380Y0403287D01*
X0293027Y0403287D01*
X0293001Y0403276D01*
X0283103Y0413174D01*
X0283103Y0413837D01*
X0283270Y0413509D01*
X0283761Y0412834D01*
X0284350Y0412244D01*
X0285025Y0411754D01*
X0285205Y0411662D01*
X0287272Y0416093D01*
X0287997Y0415755D01*
X0285930Y0411323D01*
X0286562Y0411117D01*
X0287386Y0410987D01*
X0288220Y0410987D01*
X0289044Y0411117D01*
X0289838Y0411375D01*
X0290581Y0411754D01*
X0291256Y0412244D01*
X0291766Y0412754D01*
X0291766Y0411046D01*
X0292543Y0409171D01*
X0293977Y0407737D01*
X0295852Y0406960D01*
X0296803Y0406960D01*
X0296803Y0401287D01*
X0296803Y0401311D02*
X0296793Y0401311D01*
X0296803Y0402509D02*
X0295889Y0402509D01*
X0296803Y0403708D02*
X0292569Y0403708D01*
X0291370Y0404906D02*
X0296803Y0404906D01*
X0296803Y0406105D02*
X0290172Y0406105D01*
X0288973Y0407303D02*
X0295024Y0407303D01*
X0293212Y0408502D02*
X0287775Y0408502D01*
X0286576Y0409700D02*
X0292324Y0409700D01*
X0291827Y0410899D02*
X0285378Y0410899D01*
X0285408Y0412098D02*
X0286291Y0412098D01*
X0285967Y0413296D02*
X0286850Y0413296D01*
X0286526Y0414495D02*
X0287409Y0414495D01*
X0287085Y0415693D02*
X0287968Y0415693D01*
X0291054Y0412098D02*
X0291766Y0412098D01*
X0284552Y0412098D02*
X0284179Y0412098D01*
X0283425Y0413296D02*
X0283103Y0413296D01*
X0277428Y0414495D02*
X0276205Y0414495D01*
X0277428Y0415693D02*
X0230584Y0415693D01*
X0231782Y0414495D02*
X0272601Y0414495D01*
X0271032Y0413296D02*
X0232981Y0413296D01*
X0234179Y0412098D02*
X0270375Y0412098D01*
X0270103Y0410899D02*
X0235378Y0410899D01*
X0236576Y0409700D02*
X0270116Y0409700D01*
X0270612Y0408502D02*
X0237775Y0408502D01*
X0238973Y0407303D02*
X0271605Y0407303D01*
X0271443Y0403708D02*
X0267363Y0403708D01*
X0266839Y0404232D02*
X0265259Y0404887D01*
X0263548Y0404887D01*
X0261967Y0404232D01*
X0260758Y0403022D01*
X0260103Y0401442D01*
X0260103Y0399731D01*
X0260758Y0398151D01*
X0261967Y0396941D01*
X0263548Y0396287D01*
X0265259Y0396287D01*
X0266839Y0396941D01*
X0268049Y0398151D01*
X0268703Y0399731D01*
X0268703Y0401442D01*
X0268049Y0403022D01*
X0266839Y0404232D01*
X0268261Y0402509D02*
X0270545Y0402509D01*
X0270103Y0401311D02*
X0268703Y0401311D01*
X0268703Y0400112D02*
X0270103Y0400112D01*
X0270442Y0398914D02*
X0268365Y0398914D01*
X0267613Y0397715D02*
X0271193Y0397715D01*
X0272992Y0396517D02*
X0265814Y0396517D01*
X0265259Y0394887D02*
X0263548Y0394887D01*
X0261967Y0394232D01*
X0260758Y0393022D01*
X0260103Y0391442D01*
X0260103Y0389731D01*
X0260758Y0388151D01*
X0261967Y0386941D01*
X0263548Y0386287D01*
X0265259Y0386287D01*
X0266839Y0386941D01*
X0268049Y0388151D01*
X0268703Y0389731D01*
X0268703Y0391442D01*
X0268049Y0393022D01*
X0266839Y0394232D01*
X0265259Y0394887D01*
X0266951Y0394120D02*
X0271855Y0394120D01*
X0270716Y0392921D02*
X0268090Y0392921D01*
X0268587Y0391723D02*
X0270220Y0391723D01*
X0270103Y0390524D02*
X0268703Y0390524D01*
X0268535Y0389326D02*
X0270271Y0389326D01*
X0270781Y0388127D02*
X0268025Y0388127D01*
X0266809Y0386929D02*
X0271997Y0386929D01*
X0272691Y0384532D02*
X0266115Y0384532D01*
X0266839Y0384232D02*
X0265259Y0384887D01*
X0263548Y0384887D01*
X0261967Y0384232D01*
X0260758Y0383022D01*
X0260103Y0381442D01*
X0260103Y0379731D01*
X0260758Y0378151D01*
X0261967Y0376941D01*
X0263548Y0376287D01*
X0265259Y0376287D01*
X0266839Y0376941D01*
X0268049Y0378151D01*
X0268703Y0379731D01*
X0268703Y0381442D01*
X0268049Y0383022D01*
X0266839Y0384232D01*
X0267738Y0383333D02*
X0271069Y0383333D01*
X0270390Y0382135D02*
X0268416Y0382135D01*
X0268703Y0380936D02*
X0270103Y0380936D01*
X0270103Y0379738D02*
X0268703Y0379738D01*
X0268209Y0378539D02*
X0270597Y0378539D01*
X0271568Y0377341D02*
X0267238Y0377341D01*
X0271481Y0373745D02*
X0240603Y0373745D01*
X0240603Y0372547D02*
X0270561Y0372547D01*
X0270758Y0373022D02*
X0270103Y0371442D01*
X0270103Y0369731D01*
X0270758Y0368151D01*
X0271967Y0366941D01*
X0273548Y0366287D01*
X0275259Y0366287D01*
X0276839Y0366941D01*
X0278049Y0368151D01*
X0278703Y0369731D01*
X0278703Y0371442D01*
X0278049Y0373022D01*
X0276839Y0374232D01*
X0275259Y0374887D01*
X0273548Y0374887D01*
X0271967Y0374232D01*
X0270758Y0373022D01*
X0270103Y0371348D02*
X0240603Y0371348D01*
X0240603Y0370150D02*
X0270103Y0370150D01*
X0270426Y0368951D02*
X0240603Y0368951D01*
X0240603Y0367753D02*
X0271156Y0367753D01*
X0272902Y0366554D02*
X0240603Y0366554D01*
X0240603Y0365356D02*
X0287422Y0365356D01*
X0286224Y0366554D02*
X0275904Y0366554D01*
X0277650Y0367753D02*
X0285025Y0367753D01*
X0283827Y0368951D02*
X0278380Y0368951D01*
X0278703Y0370150D02*
X0282628Y0370150D01*
X0281430Y0371348D02*
X0278703Y0371348D01*
X0278246Y0372547D02*
X0280231Y0372547D01*
X0279033Y0373745D02*
X0277326Y0373745D01*
X0277834Y0374944D02*
X0240603Y0374944D01*
X0240603Y0376142D02*
X0277428Y0376142D01*
X0277428Y0377341D02*
X0277238Y0377341D01*
X0277428Y0384532D02*
X0276115Y0384532D01*
X0277428Y0385730D02*
X0240603Y0385730D01*
X0240603Y0384532D02*
X0262691Y0384532D01*
X0261069Y0383333D02*
X0240603Y0383333D01*
X0240603Y0382135D02*
X0260390Y0382135D01*
X0260103Y0380936D02*
X0240603Y0380936D01*
X0240603Y0379738D02*
X0260103Y0379738D01*
X0260597Y0378539D02*
X0240603Y0378539D01*
X0240603Y0377341D02*
X0261568Y0377341D01*
X0261997Y0386929D02*
X0240603Y0386929D01*
X0240603Y0388127D02*
X0260781Y0388127D01*
X0260271Y0389326D02*
X0240603Y0389326D01*
X0240603Y0390524D02*
X0260103Y0390524D01*
X0260220Y0391723D02*
X0240603Y0391723D01*
X0240603Y0392921D02*
X0260716Y0392921D01*
X0261855Y0394120D02*
X0240603Y0394120D01*
X0240603Y0395318D02*
X0277428Y0395318D01*
X0277428Y0394120D02*
X0276951Y0394120D01*
X0277428Y0396517D02*
X0275814Y0396517D01*
X0277363Y0403708D02*
X0277428Y0403708D01*
X0277428Y0404906D02*
X0240603Y0404906D01*
X0240603Y0403708D02*
X0261443Y0403708D01*
X0260545Y0402509D02*
X0240603Y0402509D01*
X0240603Y0401311D02*
X0260103Y0401311D01*
X0260103Y0400112D02*
X0240603Y0400112D01*
X0240603Y0398914D02*
X0260442Y0398914D01*
X0261193Y0397715D02*
X0240603Y0397715D01*
X0240603Y0396517D02*
X0262992Y0396517D01*
X0276809Y0386929D02*
X0277428Y0386929D01*
X0277428Y0406105D02*
X0240172Y0406105D01*
X0232401Y0408502D02*
X0220275Y0408502D01*
X0221473Y0407303D02*
X0231312Y0407303D01*
X0230528Y0406105D02*
X0222672Y0406105D01*
X0223870Y0404906D02*
X0230303Y0404906D01*
X0230511Y0403708D02*
X0225069Y0403708D01*
X0226267Y0402509D02*
X0231272Y0402509D01*
X0231803Y0401311D02*
X0227466Y0401311D01*
X0228664Y0400112D02*
X0231803Y0400112D01*
X0231803Y0398914D02*
X0229863Y0398914D01*
X0230603Y0397715D02*
X0231803Y0397715D01*
X0231803Y0396517D02*
X0230603Y0396517D01*
X0230603Y0395318D02*
X0231803Y0395318D01*
X0231803Y0394120D02*
X0230603Y0394120D01*
X0230603Y0392921D02*
X0231803Y0392921D01*
X0231803Y0391723D02*
X0230603Y0391723D01*
X0230603Y0390524D02*
X0231803Y0390524D01*
X0231803Y0389326D02*
X0230603Y0389326D01*
X0230603Y0388127D02*
X0231803Y0388127D01*
X0231803Y0386929D02*
X0230603Y0386929D01*
X0230603Y0385730D02*
X0231803Y0385730D01*
X0231803Y0384532D02*
X0230603Y0384532D01*
X0230603Y0383333D02*
X0231803Y0383333D01*
X0231803Y0382135D02*
X0230603Y0382135D01*
X0230603Y0380936D02*
X0231803Y0380936D01*
X0231803Y0379738D02*
X0230603Y0379738D01*
X0230603Y0378539D02*
X0231803Y0378539D01*
X0231803Y0377341D02*
X0230603Y0377341D01*
X0230603Y0376142D02*
X0231803Y0376142D01*
X0231803Y0374944D02*
X0230603Y0374944D01*
X0230603Y0373745D02*
X0231803Y0373745D01*
X0231803Y0372547D02*
X0230603Y0372547D01*
X0230603Y0371348D02*
X0231803Y0371348D01*
X0231803Y0370150D02*
X0230603Y0370150D01*
X0230603Y0368951D02*
X0231803Y0368951D01*
X0231803Y0367753D02*
X0230603Y0367753D01*
X0230603Y0366554D02*
X0231803Y0366554D01*
X0231803Y0365356D02*
X0230603Y0365356D01*
X0230603Y0364157D02*
X0231803Y0364157D01*
X0231803Y0362959D02*
X0230603Y0362959D01*
X0230603Y0361760D02*
X0231803Y0361760D01*
X0231803Y0360562D02*
X0230603Y0360562D01*
X0230603Y0359363D02*
X0231803Y0359363D01*
X0231803Y0358165D02*
X0230603Y0358165D01*
X0230603Y0356966D02*
X0231803Y0356966D01*
X0240603Y0356966D02*
X0271943Y0356966D01*
X0270752Y0358165D02*
X0240603Y0358165D01*
X0240603Y0359363D02*
X0270256Y0359363D01*
X0270103Y0360562D02*
X0240603Y0360562D01*
X0240603Y0361760D02*
X0270235Y0361760D01*
X0270731Y0362959D02*
X0240603Y0362959D01*
X0240603Y0364157D02*
X0271893Y0364157D01*
X0276914Y0364157D02*
X0288621Y0364157D01*
X0289819Y0362959D02*
X0278075Y0362959D01*
X0278571Y0361760D02*
X0291018Y0361760D01*
X0291553Y0360562D02*
X0278703Y0360562D01*
X0278551Y0359363D02*
X0291749Y0359363D01*
X0292492Y0358165D02*
X0278054Y0358165D01*
X0277428Y0407303D02*
X0277201Y0407303D01*
X0277428Y0416892D02*
X0276719Y0416892D01*
X0272087Y0416892D02*
X0266719Y0416892D01*
X0266839Y0416941D02*
X0268049Y0418151D01*
X0268703Y0419731D01*
X0268703Y0421442D01*
X0268049Y0423022D01*
X0266839Y0424232D01*
X0265259Y0424887D01*
X0263548Y0424887D01*
X0261967Y0424232D01*
X0260758Y0423022D01*
X0260103Y0421442D01*
X0260103Y0419731D01*
X0260758Y0418151D01*
X0261967Y0416941D01*
X0263548Y0416287D01*
X0265259Y0416287D01*
X0266839Y0416941D01*
X0267988Y0418090D02*
X0270819Y0418090D01*
X0270287Y0419289D02*
X0268520Y0419289D01*
X0268703Y0420487D02*
X0270103Y0420487D01*
X0270204Y0421686D02*
X0268602Y0421686D01*
X0268106Y0422884D02*
X0270701Y0422884D01*
X0271818Y0424083D02*
X0266988Y0424083D01*
X0271230Y0427678D02*
X0217852Y0427678D01*
X0218579Y0428877D02*
X0270457Y0428877D01*
X0270103Y0430075D02*
X0218878Y0430075D01*
X0218850Y0431274D02*
X0270103Y0431274D01*
X0270530Y0432472D02*
X0218493Y0432472D01*
X0217683Y0433671D02*
X0271406Y0433671D01*
X0273506Y0434869D02*
X0215785Y0434869D01*
X0211123Y0433671D02*
X0209903Y0433671D01*
X0210314Y0432472D02*
X0204973Y0432472D01*
X0201042Y0431274D02*
X0209956Y0431274D01*
X0209928Y0430075D02*
X0197111Y0430075D01*
X0193180Y0428877D02*
X0210227Y0428877D01*
X0210954Y0427678D02*
X0189728Y0427678D01*
X0186788Y0426480D02*
X0212551Y0426480D01*
X0214053Y0426480D02*
X0214753Y0426480D01*
X0214753Y0427678D02*
X0214053Y0427678D01*
X0214053Y0428877D02*
X0214753Y0428877D01*
X0214753Y0430075D02*
X0214053Y0430075D01*
X0216255Y0426480D02*
X0273082Y0426480D01*
X0275725Y0426480D02*
X0277428Y0426480D01*
X0277428Y0425281D02*
X0183847Y0425281D01*
X0180906Y0424083D02*
X0211818Y0424083D01*
X0210701Y0422884D02*
X0177966Y0422884D01*
X0175240Y0421686D02*
X0210204Y0421686D01*
X0210103Y0420487D02*
X0172927Y0420487D01*
X0174337Y0419289D02*
X0178093Y0419289D01*
X0176894Y0418090D02*
X0175472Y0418090D01*
X0176089Y0416892D02*
X0176331Y0416892D01*
X0176325Y0413296D02*
X0176094Y0413296D01*
X0175483Y0412098D02*
X0176880Y0412098D01*
X0178078Y0410899D02*
X0174356Y0410899D01*
X0171503Y0410899D02*
X0170703Y0410899D01*
X0170703Y0412098D02*
X0171503Y0412098D01*
X0171503Y0413296D02*
X0170703Y0413296D01*
X0170703Y0414495D02*
X0171503Y0414495D01*
X0171103Y0415087D02*
X0161403Y0415087D01*
X0153703Y0407387D01*
X0157303Y0408502D02*
X0184901Y0408502D01*
X0183702Y0409700D02*
X0157225Y0409700D01*
X0156875Y0410899D02*
X0167850Y0410899D01*
X0166724Y0412098D02*
X0157649Y0412098D01*
X0159523Y0413296D02*
X0166112Y0413296D01*
X0165831Y0414495D02*
X0161396Y0414495D01*
X0163675Y0415693D02*
X0165833Y0415693D01*
X0165988Y0416892D02*
X0166117Y0416892D01*
X0184114Y0419289D02*
X0188093Y0419289D01*
X0186894Y0418090D02*
X0185312Y0418090D01*
X0185876Y0416892D02*
X0186331Y0416892D01*
X0186325Y0413296D02*
X0185882Y0413296D01*
X0186679Y0412098D02*
X0186880Y0412098D01*
X0187878Y0410899D02*
X0188078Y0410899D01*
X0189076Y0409700D02*
X0210116Y0409700D01*
X0210103Y0410899D02*
X0194128Y0410899D01*
X0195327Y0412098D02*
X0210375Y0412098D01*
X0211032Y0413296D02*
X0195882Y0413296D01*
X0196203Y0414495D02*
X0212601Y0414495D01*
X0212087Y0416892D02*
X0195876Y0416892D01*
X0196203Y0415693D02*
X0225210Y0415693D01*
X0226408Y0414495D02*
X0216205Y0414495D01*
X0217775Y0413296D02*
X0227607Y0413296D01*
X0228805Y0412098D02*
X0218432Y0412098D01*
X0218703Y0410899D02*
X0230004Y0410899D01*
X0231202Y0409700D02*
X0219076Y0409700D01*
X0217298Y0406105D02*
X0192672Y0406105D01*
X0191473Y0407303D02*
X0211605Y0407303D01*
X0210612Y0408502D02*
X0190275Y0408502D01*
X0195053Y0401037D02*
X0195003Y0400987D01*
X0195003Y0393687D01*
X0204657Y0394120D02*
X0211855Y0394120D01*
X0210716Y0392921D02*
X0205855Y0392921D01*
X0207054Y0391723D02*
X0210220Y0391723D01*
X0210103Y0390524D02*
X0208103Y0390524D01*
X0208103Y0389326D02*
X0210271Y0389326D01*
X0210781Y0388127D02*
X0208103Y0388127D01*
X0208103Y0386929D02*
X0211997Y0386929D01*
X0212691Y0384532D02*
X0208103Y0384532D01*
X0208103Y0385730D02*
X0226803Y0385730D01*
X0211069Y0383333D02*
X0208103Y0383333D01*
X0208103Y0382135D02*
X0210390Y0382135D01*
X0210103Y0380936D02*
X0208103Y0380936D01*
X0208103Y0379738D02*
X0210103Y0379738D01*
X0210597Y0378539D02*
X0208103Y0378539D01*
X0208103Y0377341D02*
X0211568Y0377341D01*
X0211481Y0373745D02*
X0208103Y0373745D01*
X0208103Y0354569D02*
X0212781Y0354569D01*
X0211106Y0353370D02*
X0208103Y0353370D01*
X0208103Y0352172D02*
X0210406Y0352172D01*
X0210103Y0350973D02*
X0207477Y0350973D01*
X0206279Y0349775D02*
X0210103Y0349775D01*
X0210582Y0348576D02*
X0206131Y0348576D01*
X0206203Y0347378D02*
X0211531Y0347378D01*
X0211518Y0343782D02*
X0204711Y0343782D01*
X0205627Y0344981D02*
X0216803Y0344981D01*
X0216803Y0346179D02*
X0206123Y0346179D01*
X0202835Y0342584D02*
X0210576Y0342584D01*
X0210103Y0341385D02*
X0204317Y0341385D01*
X0205463Y0340187D02*
X0210103Y0340187D01*
X0210411Y0338988D02*
X0205960Y0338988D01*
X0206203Y0337790D02*
X0211119Y0337790D01*
X0212812Y0336591D02*
X0206203Y0336591D01*
X0205884Y0335393D02*
X0216803Y0335393D01*
X0216803Y0336591D02*
X0215994Y0336591D01*
X0211930Y0334194D02*
X0207082Y0334194D01*
X0208103Y0332996D02*
X0210747Y0332996D01*
X0210250Y0331797D02*
X0208103Y0331797D01*
X0208103Y0330599D02*
X0210103Y0330599D01*
X0210240Y0329400D02*
X0208103Y0329400D01*
X0208103Y0328202D02*
X0210737Y0328202D01*
X0211905Y0327003D02*
X0208103Y0327003D01*
X0208103Y0325805D02*
X0216803Y0325805D01*
X0216803Y0324606D02*
X0215935Y0324606D01*
X0212871Y0324606D02*
X0208103Y0324606D01*
X0208103Y0323408D02*
X0211143Y0323408D01*
X0210421Y0322209D02*
X0208103Y0322209D01*
X0208103Y0321011D02*
X0210103Y0321011D01*
X0210103Y0319812D02*
X0208965Y0319812D01*
X0210163Y0318614D02*
X0210566Y0318614D01*
X0211362Y0317415D02*
X0211494Y0317415D01*
X0212560Y0316217D02*
X0216803Y0316217D01*
X0216803Y0315018D02*
X0213759Y0315018D01*
X0210592Y0312621D02*
X0206156Y0312621D01*
X0207354Y0311423D02*
X0210103Y0311423D01*
X0210103Y0310224D02*
X0208553Y0310224D01*
X0209751Y0309026D02*
X0210396Y0309026D01*
X0210950Y0307827D02*
X0211082Y0307827D01*
X0212148Y0306629D02*
X0212722Y0306629D01*
X0213347Y0305430D02*
X0216803Y0305430D01*
X0216803Y0306629D02*
X0216084Y0306629D01*
X0209583Y0313820D02*
X0204957Y0313820D01*
X0203759Y0315018D02*
X0208385Y0315018D01*
X0207186Y0316217D02*
X0202560Y0316217D01*
X0201362Y0317415D02*
X0205988Y0317415D01*
X0204789Y0318614D02*
X0200163Y0318614D01*
X0198965Y0319812D02*
X0204303Y0319812D01*
X0204303Y0321011D02*
X0197766Y0321011D01*
X0196568Y0322209D02*
X0204303Y0322209D01*
X0220603Y0280261D02*
X0226803Y0280261D01*
X0226803Y0279063D02*
X0220603Y0279063D01*
X0220603Y0277864D02*
X0226803Y0277864D01*
X0226803Y0276666D02*
X0220603Y0276666D01*
X0220603Y0275467D02*
X0226803Y0275467D01*
X0226803Y0274269D02*
X0220603Y0274269D01*
X0220603Y0273070D02*
X0226803Y0273070D01*
X0226803Y0271872D02*
X0220603Y0271872D01*
X0220603Y0270673D02*
X0226803Y0270673D01*
X0226803Y0269475D02*
X0220603Y0269475D01*
X0220603Y0268276D02*
X0226803Y0268276D01*
X0226803Y0267078D02*
X0221320Y0267078D01*
X0221972Y0265879D02*
X0226803Y0265879D01*
X0226803Y0264681D02*
X0222103Y0264681D01*
X0221802Y0263482D02*
X0226803Y0263482D01*
X0226803Y0262284D02*
X0220909Y0262284D01*
X0226803Y0222733D02*
X0202001Y0222733D01*
X0203403Y0221534D02*
X0226803Y0221534D01*
X0226803Y0220336D02*
X0203936Y0220336D01*
X0204071Y0219137D02*
X0226803Y0219137D01*
X0226803Y0217939D02*
X0203868Y0217939D01*
X0203238Y0216740D02*
X0226803Y0216740D01*
X0226803Y0215542D02*
X0201603Y0215542D01*
X0202720Y0214343D02*
X0226803Y0214343D01*
X0226803Y0213145D02*
X0203653Y0213145D01*
X0204071Y0211946D02*
X0226803Y0211946D01*
X0226803Y0210748D02*
X0204071Y0210748D01*
X0203654Y0209549D02*
X0226803Y0209549D01*
X0226803Y0208351D02*
X0202722Y0208351D01*
X0201597Y0207152D02*
X0226803Y0207152D01*
X0226803Y0205954D02*
X0203235Y0205954D01*
X0203867Y0204755D02*
X0226803Y0204755D01*
X0226803Y0203557D02*
X0204071Y0203557D01*
X0203937Y0202358D02*
X0226803Y0202358D01*
X0226803Y0201160D02*
X0203405Y0201160D01*
X0202007Y0199961D02*
X0226803Y0199961D01*
X0226803Y0198762D02*
X0202552Y0198762D01*
X0203584Y0197564D02*
X0226803Y0197564D01*
X0226803Y0196365D02*
X0204071Y0196365D01*
X0204071Y0195167D02*
X0226803Y0195167D01*
X0226803Y0193968D02*
X0203724Y0193968D01*
X0202890Y0192770D02*
X0226803Y0192770D01*
X0226803Y0191571D02*
X0201193Y0191571D01*
X0203068Y0190373D02*
X0226803Y0190373D01*
X0226803Y0189174D02*
X0203797Y0189174D01*
X0204071Y0187976D02*
X0226803Y0187976D01*
X0226803Y0186777D02*
X0204006Y0186777D01*
X0203510Y0185579D02*
X0226803Y0185579D01*
X0226803Y0184380D02*
X0202374Y0184380D01*
X0202385Y0183182D02*
X0226803Y0183182D01*
X0226803Y0181983D02*
X0203515Y0181983D01*
X0204011Y0180785D02*
X0226803Y0180785D01*
X0226803Y0179586D02*
X0204071Y0179586D01*
X0203793Y0178388D02*
X0226803Y0178388D01*
X0226803Y0177189D02*
X0203057Y0177189D01*
X0197292Y0174792D02*
X0169698Y0174792D01*
X0169698Y0174801D02*
X0164684Y0174801D01*
X0164684Y0169787D01*
X0164816Y0169787D01*
X0165640Y0169917D01*
X0166433Y0170175D01*
X0167176Y0170554D01*
X0167851Y0171044D01*
X0168441Y0171634D01*
X0168931Y0172309D01*
X0169310Y0173052D01*
X0169568Y0173845D01*
X0169698Y0174669D01*
X0169698Y0174801D01*
X0169486Y0173594D02*
X0196464Y0173594D01*
X0196121Y0172395D02*
X0168976Y0172395D01*
X0168004Y0171197D02*
X0196121Y0171197D01*
X0196613Y0169998D02*
X0165889Y0169998D01*
X0164684Y0169998D02*
X0164113Y0169998D01*
X0164113Y0169787D02*
X0164113Y0174801D01*
X0164684Y0174801D01*
X0164684Y0175372D01*
X0164113Y0175372D01*
X0164113Y0174801D01*
X0159098Y0174801D01*
X0159098Y0174669D01*
X0159229Y0173845D01*
X0159487Y0173052D01*
X0159866Y0172309D01*
X0160356Y0171634D01*
X0160946Y0171044D01*
X0161621Y0170554D01*
X0162364Y0170175D01*
X0163157Y0169917D01*
X0163981Y0169787D01*
X0164113Y0169787D01*
X0162908Y0169998D02*
X0139851Y0169998D01*
X0139822Y0169987D02*
X0141697Y0170763D01*
X0143131Y0172198D01*
X0143908Y0174072D01*
X0143908Y0176101D01*
X0143131Y0177975D01*
X0141697Y0179410D01*
X0139822Y0180187D01*
X0137793Y0180187D01*
X0135919Y0179410D01*
X0134484Y0177975D01*
X0133708Y0176101D01*
X0133708Y0174072D01*
X0134484Y0172198D01*
X0135919Y0170763D01*
X0137793Y0169987D01*
X0139822Y0169987D01*
X0137765Y0169998D02*
X0102792Y0169998D01*
X0103990Y0168800D02*
X0197651Y0168800D01*
X0198158Y0167601D02*
X0105189Y0167601D01*
X0106387Y0166403D02*
X0196776Y0166403D01*
X0196251Y0165204D02*
X0107586Y0165204D01*
X0108784Y0164006D02*
X0196121Y0164006D01*
X0196330Y0162807D02*
X0109983Y0162807D01*
X0111181Y0161609D02*
X0196968Y0161609D01*
X0198621Y0160410D02*
X0112380Y0160410D01*
X0113578Y0159212D02*
X0197459Y0159212D01*
X0196533Y0158013D02*
X0114777Y0158013D01*
X0115975Y0156815D02*
X0196121Y0156815D01*
X0194694Y0142432D02*
X0238729Y0142432D01*
X0239927Y0141234D02*
X0195812Y0141234D01*
X0196931Y0140035D02*
X0300867Y0140035D01*
X0302066Y0138837D02*
X0198050Y0138837D01*
X0199168Y0137638D02*
X0303264Y0137638D01*
X0304463Y0136440D02*
X0200287Y0136440D01*
X0201405Y0135241D02*
X0305661Y0135241D01*
X0306860Y0134043D02*
X0285459Y0134043D01*
X0285092Y0134410D02*
X0283218Y0135187D01*
X0281189Y0135187D01*
X0279314Y0134410D01*
X0277880Y0132975D01*
X0277103Y0131101D01*
X0277103Y0129072D01*
X0277880Y0127198D01*
X0279314Y0125763D01*
X0281189Y0124987D01*
X0283218Y0124987D01*
X0285092Y0125763D01*
X0286527Y0127198D01*
X0287303Y0129072D01*
X0287303Y0131101D01*
X0286527Y0132975D01*
X0285092Y0134410D01*
X0286581Y0132844D02*
X0307825Y0132844D01*
X0307329Y0131646D02*
X0287078Y0131646D01*
X0287303Y0130447D02*
X0307103Y0130447D01*
X0307103Y0129249D02*
X0287303Y0129249D01*
X0286880Y0128050D02*
X0307526Y0128050D01*
X0308225Y0126852D02*
X0286181Y0126852D01*
X0284827Y0125653D02*
X0307408Y0125653D01*
X0305159Y0124455D02*
X0212132Y0124455D01*
X0210920Y0125653D02*
X0279579Y0125653D01*
X0278225Y0126852D02*
X0209707Y0126852D01*
X0208495Y0128050D02*
X0277526Y0128050D01*
X0277103Y0129249D02*
X0207283Y0129249D01*
X0206070Y0130447D02*
X0277103Y0130447D01*
X0277329Y0131646D02*
X0204858Y0131646D01*
X0203646Y0132844D02*
X0277825Y0132844D01*
X0278947Y0134043D02*
X0202524Y0134043D01*
X0214222Y0123256D02*
X0304089Y0123256D01*
X0303592Y0122058D02*
X0216566Y0122058D01*
X0218909Y0120859D02*
X0303403Y0120859D01*
X0303403Y0119661D02*
X0221252Y0119661D01*
X0223596Y0118462D02*
X0245003Y0118462D01*
X0248512Y0118462D02*
X0303863Y0118462D01*
X0304614Y0117264D02*
X0278474Y0117264D01*
X0290399Y0116065D02*
X0306092Y0116065D01*
X0310915Y0116065D02*
X0325425Y0116065D01*
X0325401Y0114867D02*
X0290392Y0114867D01*
X0290385Y0113668D02*
X0325376Y0113668D01*
X0325352Y0112470D02*
X0290378Y0112470D01*
X0290370Y0111271D02*
X0325327Y0111271D01*
X0325305Y0110073D02*
X0290363Y0110073D01*
X0290356Y0108874D02*
X0325445Y0108874D01*
X0325584Y0107676D02*
X0290349Y0107676D01*
X0290342Y0106477D02*
X0325724Y0106477D01*
X0325864Y0105279D02*
X0290335Y0105279D01*
X0290328Y0104080D02*
X0326004Y0104080D01*
X0326144Y0102882D02*
X0290320Y0102882D01*
X0290313Y0101683D02*
X0326284Y0101683D01*
X0326423Y0100485D02*
X0290306Y0100485D01*
X0291165Y0099286D02*
X0326563Y0099286D01*
X0326703Y0098088D02*
X0292639Y0098088D01*
X0294112Y0096889D02*
X0325014Y0096889D01*
X0323323Y0095691D02*
X0309946Y0095691D01*
X0308789Y0095691D02*
X0308217Y0095691D01*
X0307060Y0095691D02*
X0295586Y0095691D01*
X0297060Y0094492D02*
X0304913Y0094492D01*
X0303934Y0093294D02*
X0298534Y0093294D01*
X0300008Y0092095D02*
X0303421Y0092095D01*
X0303203Y0090896D02*
X0301482Y0090896D01*
X0302955Y0089698D02*
X0303278Y0089698D01*
X0308217Y0090896D02*
X0308789Y0090896D01*
X0308503Y0090587D02*
X0293703Y0105387D01*
X0293703Y0107387D01*
X0308217Y0094492D02*
X0308789Y0094492D01*
X0308789Y0093294D02*
X0308217Y0093294D01*
X0308217Y0092095D02*
X0308789Y0092095D01*
X0312093Y0094492D02*
X0321631Y0094492D01*
X0319035Y0093294D02*
X0313072Y0093294D01*
X0313586Y0092095D02*
X0315708Y0092095D01*
X0312393Y0117264D02*
X0325450Y0117264D01*
X0325474Y0118462D02*
X0313143Y0118462D01*
X0313603Y0119661D02*
X0325499Y0119661D01*
X0325523Y0120859D02*
X0313603Y0120859D01*
X0313414Y0122058D02*
X0325548Y0122058D01*
X0325572Y0123256D02*
X0312918Y0123256D01*
X0311847Y0124455D02*
X0325596Y0124455D01*
X0325621Y0125653D02*
X0314827Y0125653D01*
X0316181Y0126852D02*
X0325645Y0126852D01*
X0325670Y0128050D02*
X0316880Y0128050D01*
X0317303Y0129249D02*
X0325694Y0129249D01*
X0325719Y0130447D02*
X0317303Y0130447D01*
X0317078Y0131646D02*
X0325743Y0131646D01*
X0325768Y0132844D02*
X0316581Y0132844D01*
X0315459Y0134043D02*
X0325792Y0134043D01*
X0318503Y0137387D02*
X0309303Y0146587D01*
X0309303Y0146787D01*
X0299669Y0141234D02*
X0290238Y0141234D01*
X0291436Y0142432D02*
X0298470Y0142432D01*
X0297272Y0143631D02*
X0292635Y0143631D01*
X0293103Y0144829D02*
X0296073Y0144829D01*
X0294875Y0146028D02*
X0293103Y0146028D01*
X0293103Y0147227D02*
X0294303Y0147227D01*
X0294303Y0148425D02*
X0293103Y0148425D01*
X0293103Y0149624D02*
X0294303Y0149624D01*
X0294303Y0150822D02*
X0293103Y0150822D01*
X0293103Y0152021D02*
X0294303Y0152021D01*
X0294303Y0153219D02*
X0293103Y0153219D01*
X0282735Y0164006D02*
X0282271Y0164006D01*
X0282865Y0165204D02*
X0281073Y0165204D01*
X0279874Y0166403D02*
X0283390Y0166403D01*
X0284773Y0167601D02*
X0278676Y0167601D01*
X0277477Y0168800D02*
X0284265Y0168800D01*
X0283227Y0169998D02*
X0276279Y0169998D01*
X0275080Y0171197D02*
X0282735Y0171197D01*
X0282735Y0172395D02*
X0273882Y0172395D01*
X0272683Y0173594D02*
X0283078Y0173594D01*
X0283906Y0174792D02*
X0271484Y0174792D01*
X0289671Y0177189D02*
X0294303Y0177189D01*
X0294303Y0178388D02*
X0290407Y0178388D01*
X0290685Y0179586D02*
X0294303Y0179586D01*
X0294303Y0180785D02*
X0290625Y0180785D01*
X0290129Y0181983D02*
X0294303Y0181983D01*
X0294303Y0183182D02*
X0288999Y0183182D01*
X0288988Y0184380D02*
X0294303Y0184380D01*
X0294303Y0185579D02*
X0290124Y0185579D01*
X0290621Y0186777D02*
X0294303Y0186777D01*
X0294303Y0187976D02*
X0290685Y0187976D01*
X0290412Y0189174D02*
X0294303Y0189174D01*
X0294303Y0190373D02*
X0289682Y0190373D01*
X0287807Y0191571D02*
X0294303Y0191571D01*
X0294303Y0192770D02*
X0289504Y0192770D01*
X0290338Y0193968D02*
X0294303Y0193968D01*
X0294303Y0195167D02*
X0290685Y0195167D01*
X0290685Y0196365D02*
X0294303Y0196365D01*
X0294303Y0197564D02*
X0290198Y0197564D01*
X0289167Y0198762D02*
X0294303Y0198762D01*
X0294303Y0199961D02*
X0288622Y0199961D01*
X0290019Y0201160D02*
X0294303Y0201160D01*
X0294303Y0202358D02*
X0290551Y0202358D01*
X0290685Y0203557D02*
X0294303Y0203557D01*
X0294303Y0204755D02*
X0290481Y0204755D01*
X0289850Y0205954D02*
X0294303Y0205954D01*
X0294303Y0207152D02*
X0288211Y0207152D01*
X0289336Y0208351D02*
X0294303Y0208351D01*
X0294303Y0209549D02*
X0290268Y0209549D01*
X0290685Y0210748D02*
X0294303Y0210748D01*
X0294303Y0211946D02*
X0290685Y0211946D01*
X0290267Y0213145D02*
X0294303Y0213145D01*
X0294303Y0214343D02*
X0289334Y0214343D01*
X0288688Y0215542D02*
X0294303Y0215542D01*
X0294303Y0216740D02*
X0290069Y0216740D01*
X0286898Y0220336D02*
X0286523Y0220336D01*
X0286523Y0221534D02*
X0286898Y0221534D01*
X0286898Y0222733D02*
X0286523Y0222733D01*
X0228703Y0157087D02*
X0228703Y0155287D01*
X0241603Y0142387D01*
X0164684Y0171197D02*
X0164113Y0171197D01*
X0164113Y0172395D02*
X0164684Y0172395D01*
X0164684Y0173594D02*
X0164113Y0173594D01*
X0164113Y0174792D02*
X0164684Y0174792D01*
X0164113Y0175372D02*
X0159098Y0175372D01*
X0159098Y0175504D01*
X0159229Y0176328D01*
X0159487Y0177121D01*
X0159866Y0177864D01*
X0160356Y0178539D01*
X0160946Y0179129D01*
X0161621Y0179620D01*
X0162364Y0179998D01*
X0163157Y0180256D01*
X0163981Y0180387D01*
X0164113Y0180387D01*
X0164113Y0175372D01*
X0164113Y0175991D02*
X0164684Y0175991D01*
X0164684Y0177189D02*
X0164113Y0177189D01*
X0164113Y0178388D02*
X0164684Y0178388D01*
X0164684Y0179586D02*
X0164113Y0179586D01*
X0161575Y0179586D02*
X0141272Y0179586D01*
X0142719Y0178388D02*
X0160246Y0178388D01*
X0159522Y0177189D02*
X0143457Y0177189D01*
X0143908Y0175991D02*
X0159176Y0175991D01*
X0159098Y0174792D02*
X0143908Y0174792D01*
X0143710Y0173594D02*
X0159311Y0173594D01*
X0159821Y0172395D02*
X0143213Y0172395D01*
X0142131Y0171197D02*
X0160793Y0171197D01*
X0136344Y0179586D02*
X0093203Y0179586D01*
X0094402Y0178388D02*
X0134897Y0178388D01*
X0134159Y0177189D02*
X0095600Y0177189D01*
X0096799Y0175991D02*
X0133708Y0175991D01*
X0133708Y0174792D02*
X0097998Y0174792D01*
X0099196Y0173594D02*
X0133906Y0173594D01*
X0134403Y0172395D02*
X0100395Y0172395D01*
X0101593Y0171197D02*
X0135485Y0171197D01*
X0130424Y0205954D02*
X0119228Y0205954D01*
X0119492Y0206063D02*
X0120927Y0207498D01*
X0121703Y0209372D01*
X0121703Y0211401D01*
X0120927Y0213275D01*
X0119492Y0214710D01*
X0117618Y0215487D01*
X0115589Y0215487D01*
X0113714Y0214710D01*
X0112280Y0213275D01*
X0111503Y0211401D01*
X0111503Y0209372D01*
X0112280Y0207498D01*
X0113714Y0206063D01*
X0115589Y0205287D01*
X0117618Y0205287D01*
X0119492Y0206063D01*
X0120581Y0207152D02*
X0129374Y0207152D01*
X0128878Y0208351D02*
X0121280Y0208351D01*
X0121703Y0209549D02*
X0128703Y0209549D01*
X0128703Y0210748D02*
X0121703Y0210748D01*
X0121477Y0211946D02*
X0129178Y0211946D01*
X0129949Y0213145D02*
X0120981Y0213145D01*
X0119859Y0214343D02*
X0131477Y0214343D01*
X0136130Y0214343D02*
X0161072Y0214343D01*
X0161025Y0214320D02*
X0160350Y0213829D01*
X0159761Y0213239D01*
X0159270Y0212564D01*
X0158892Y0211821D01*
X0158634Y0211028D01*
X0158503Y0210204D01*
X0158503Y0210072D01*
X0163517Y0210072D01*
X0163517Y0215087D01*
X0163386Y0215087D01*
X0162562Y0214956D01*
X0161769Y0214698D01*
X0161025Y0214320D01*
X0159692Y0213145D02*
X0137658Y0213145D01*
X0138429Y0211946D02*
X0158955Y0211946D01*
X0158589Y0210748D02*
X0138903Y0210748D01*
X0113978Y0205954D02*
X0089228Y0205954D01*
X0090581Y0207152D02*
X0112625Y0207152D01*
X0111926Y0208351D02*
X0091280Y0208351D01*
X0091703Y0209549D02*
X0111503Y0209549D01*
X0111503Y0210748D02*
X0091703Y0210748D01*
X0091477Y0211946D02*
X0111729Y0211946D01*
X0112225Y0213145D02*
X0090981Y0213145D01*
X0090847Y0214343D02*
X0113347Y0214343D01*
X0163517Y0214343D02*
X0164089Y0214343D01*
X0164089Y0213145D02*
X0163517Y0213145D01*
X0163517Y0211946D02*
X0164089Y0211946D01*
X0164089Y0210748D02*
X0163517Y0210748D01*
X0096056Y0319812D02*
X0086229Y0319812D01*
X0087427Y0321011D02*
X0093144Y0321011D01*
X0194114Y0419289D02*
X0210287Y0419289D01*
X0210819Y0418090D02*
X0195312Y0418090D01*
X0216719Y0416892D02*
X0224011Y0416892D01*
X0226988Y0419289D02*
X0260287Y0419289D01*
X0260103Y0420487D02*
X0225790Y0420487D01*
X0224591Y0421686D02*
X0260204Y0421686D01*
X0260701Y0422884D02*
X0218106Y0422884D01*
X0216988Y0424083D02*
X0261818Y0424083D01*
X0260819Y0418090D02*
X0228187Y0418090D01*
X0229385Y0416892D02*
X0262087Y0416892D01*
X0276988Y0424083D02*
X0277428Y0424083D01*
X0278703Y0430075D02*
X0279330Y0430075D01*
X0278703Y0431274D02*
X0279985Y0431274D01*
X0279808Y0432472D02*
X0278276Y0432472D01*
X0277400Y0433671D02*
X0279808Y0433671D01*
X0280279Y0434869D02*
X0275300Y0434869D01*
X0272724Y0437266D02*
X0230851Y0437266D01*
X0236003Y0429887D02*
X0239003Y0429887D01*
X0243703Y0425187D01*
X0250861Y0438465D02*
X0256758Y0438465D01*
X0280181Y0436068D02*
X0221438Y0436068D01*
D23*
X0233703Y0404887D03*
X0293703Y0399887D03*
X0294953Y0360512D03*
X0311203Y0274887D03*
X0311203Y0269887D03*
X0218703Y0264887D03*
X0306203Y0154887D03*
M02*
