G75*
%MOIN*%
%OFA0B0*%
%FSLAX25Y25*%
%IPPOS*%
%LPD*%
%AMOC8*
5,1,8,0,0,1.08239X$1,22.5*
%
%ADD10C,0.01000*%
%ADD11C,0.01600*%
%ADD12C,0.00000*%
%ADD13C,0.07000*%
%ADD14C,0.05800*%
%ADD15C,0.05150*%
%ADD16C,0.07400*%
%ADD17R,0.07400X0.07400*%
%ADD18C,0.07400*%
%ADD19OC8,0.06600*%
%ADD20C,0.01200*%
%ADD21C,0.04000*%
D10*
X0120925Y0184025D02*
X0121025Y0185360D01*
X0120925Y0184025D02*
X0113425Y0191525D01*
X0113425Y0214025D01*
X0112858Y0214127D01*
X0110925Y0216525D01*
X0110925Y0221525D01*
X0125925Y0236525D01*
X0125925Y0331525D01*
X0115925Y0341525D01*
X0115825Y0341725D01*
X0149125Y0337225D02*
X0150925Y0336525D01*
X0150925Y0334025D01*
X0163425Y0321525D01*
X0163425Y0196525D01*
X0160925Y0194025D01*
X0001500Y0185925D02*
X0001556Y0190451D01*
X0001722Y0194974D01*
X0002000Y0199492D01*
X0002388Y0204002D01*
X0002887Y0208501D01*
X0003496Y0212986D01*
X0004215Y0217455D01*
X0005044Y0221905D01*
X0005981Y0226333D01*
X0007027Y0230737D01*
X0008181Y0235114D01*
X0009441Y0239461D01*
X0010808Y0243776D01*
X0012281Y0248056D01*
X0013858Y0252299D01*
X0015539Y0256501D01*
X0017322Y0260662D01*
X0019207Y0264777D01*
X0021192Y0268845D01*
X0023277Y0272862D01*
X0025459Y0276828D01*
X0027738Y0280738D01*
X0030113Y0284592D01*
X0032581Y0288386D01*
X0035142Y0292118D01*
X0037793Y0295787D01*
X0040534Y0299389D01*
X0043363Y0302923D01*
X0046277Y0306386D01*
X0049275Y0309777D01*
X0052356Y0313094D01*
X0055517Y0316333D01*
X0058756Y0319494D01*
X0062073Y0322575D01*
X0065464Y0325573D01*
X0068927Y0328487D01*
X0072461Y0331316D01*
X0076063Y0334057D01*
X0079732Y0336708D01*
X0083464Y0339269D01*
X0087258Y0341737D01*
X0091112Y0344112D01*
X0095022Y0346391D01*
X0098988Y0348573D01*
X0103005Y0350658D01*
X0107073Y0352643D01*
X0111188Y0354528D01*
X0115349Y0356311D01*
X0119551Y0357992D01*
X0123794Y0359569D01*
X0128074Y0361042D01*
X0132389Y0362409D01*
X0136736Y0363669D01*
X0141113Y0364823D01*
X0145517Y0365869D01*
X0149945Y0366806D01*
X0154395Y0367635D01*
X0158864Y0368354D01*
X0163349Y0368963D01*
X0167848Y0369462D01*
X0172358Y0369850D01*
X0176876Y0370128D01*
X0181399Y0370294D01*
X0185925Y0370350D01*
X0190451Y0370294D01*
X0194974Y0370128D01*
X0199492Y0369850D01*
X0204002Y0369462D01*
X0208501Y0368963D01*
X0212986Y0368354D01*
X0217455Y0367635D01*
X0221905Y0366806D01*
X0226333Y0365869D01*
X0230737Y0364823D01*
X0235114Y0363669D01*
X0239461Y0362409D01*
X0243776Y0361042D01*
X0248056Y0359569D01*
X0252299Y0357992D01*
X0256501Y0356311D01*
X0260662Y0354528D01*
X0264777Y0352643D01*
X0268845Y0350658D01*
X0272862Y0348573D01*
X0276828Y0346391D01*
X0280738Y0344112D01*
X0284592Y0341737D01*
X0288386Y0339269D01*
X0292118Y0336708D01*
X0295787Y0334057D01*
X0299389Y0331316D01*
X0302923Y0328487D01*
X0306386Y0325573D01*
X0309777Y0322575D01*
X0313094Y0319494D01*
X0316333Y0316333D01*
X0319494Y0313094D01*
X0322575Y0309777D01*
X0325573Y0306386D01*
X0328487Y0302923D01*
X0331316Y0299389D01*
X0334057Y0295787D01*
X0336708Y0292118D01*
X0339269Y0288386D01*
X0341737Y0284592D01*
X0344112Y0280738D01*
X0346391Y0276828D01*
X0348573Y0272862D01*
X0350658Y0268845D01*
X0352643Y0264777D01*
X0354528Y0260662D01*
X0356311Y0256501D01*
X0357992Y0252299D01*
X0359569Y0248056D01*
X0361042Y0243776D01*
X0362409Y0239461D01*
X0363669Y0235114D01*
X0364823Y0230737D01*
X0365869Y0226333D01*
X0366806Y0221905D01*
X0367635Y0217455D01*
X0368354Y0212986D01*
X0368963Y0208501D01*
X0369462Y0204002D01*
X0369850Y0199492D01*
X0370128Y0194974D01*
X0370294Y0190451D01*
X0370350Y0185925D01*
X0370294Y0181399D01*
X0370128Y0176876D01*
X0369850Y0172358D01*
X0369462Y0167848D01*
X0368963Y0163349D01*
X0368354Y0158864D01*
X0367635Y0154395D01*
X0366806Y0149945D01*
X0365869Y0145517D01*
X0364823Y0141113D01*
X0363669Y0136736D01*
X0362409Y0132389D01*
X0361042Y0128074D01*
X0359569Y0123794D01*
X0357992Y0119551D01*
X0356311Y0115349D01*
X0354528Y0111188D01*
X0352643Y0107073D01*
X0350658Y0103005D01*
X0348573Y0098988D01*
X0346391Y0095022D01*
X0344112Y0091112D01*
X0341737Y0087258D01*
X0339269Y0083464D01*
X0336708Y0079732D01*
X0334057Y0076063D01*
X0331316Y0072461D01*
X0328487Y0068927D01*
X0325573Y0065464D01*
X0322575Y0062073D01*
X0319494Y0058756D01*
X0316333Y0055517D01*
X0313094Y0052356D01*
X0309777Y0049275D01*
X0306386Y0046277D01*
X0302923Y0043363D01*
X0299389Y0040534D01*
X0295787Y0037793D01*
X0292118Y0035142D01*
X0288386Y0032581D01*
X0284592Y0030113D01*
X0280738Y0027738D01*
X0276828Y0025459D01*
X0272862Y0023277D01*
X0268845Y0021192D01*
X0264777Y0019207D01*
X0260662Y0017322D01*
X0256501Y0015539D01*
X0252299Y0013858D01*
X0248056Y0012281D01*
X0243776Y0010808D01*
X0239461Y0009441D01*
X0235114Y0008181D01*
X0230737Y0007027D01*
X0226333Y0005981D01*
X0221905Y0005044D01*
X0217455Y0004215D01*
X0212986Y0003496D01*
X0208501Y0002887D01*
X0204002Y0002388D01*
X0199492Y0002000D01*
X0194974Y0001722D01*
X0190451Y0001556D01*
X0185925Y0001500D01*
X0181399Y0001556D01*
X0176876Y0001722D01*
X0172358Y0002000D01*
X0167848Y0002388D01*
X0163349Y0002887D01*
X0158864Y0003496D01*
X0154395Y0004215D01*
X0149945Y0005044D01*
X0145517Y0005981D01*
X0141113Y0007027D01*
X0136736Y0008181D01*
X0132389Y0009441D01*
X0128074Y0010808D01*
X0123794Y0012281D01*
X0119551Y0013858D01*
X0115349Y0015539D01*
X0111188Y0017322D01*
X0107073Y0019207D01*
X0103005Y0021192D01*
X0098988Y0023277D01*
X0095022Y0025459D01*
X0091112Y0027738D01*
X0087258Y0030113D01*
X0083464Y0032581D01*
X0079732Y0035142D01*
X0076063Y0037793D01*
X0072461Y0040534D01*
X0068927Y0043363D01*
X0065464Y0046277D01*
X0062073Y0049275D01*
X0058756Y0052356D01*
X0055517Y0055517D01*
X0052356Y0058756D01*
X0049275Y0062073D01*
X0046277Y0065464D01*
X0043363Y0068927D01*
X0040534Y0072461D01*
X0037793Y0076063D01*
X0035142Y0079732D01*
X0032581Y0083464D01*
X0030113Y0087258D01*
X0027738Y0091112D01*
X0025459Y0095022D01*
X0023277Y0098988D01*
X0021192Y0103005D01*
X0019207Y0107073D01*
X0017322Y0111188D01*
X0015539Y0115349D01*
X0013858Y0119551D01*
X0012281Y0123794D01*
X0010808Y0128074D01*
X0009441Y0132389D01*
X0008181Y0136736D01*
X0007027Y0141113D01*
X0005981Y0145517D01*
X0005044Y0149945D01*
X0004215Y0154395D01*
X0003496Y0158864D01*
X0002887Y0163349D01*
X0002388Y0167848D01*
X0002000Y0172358D01*
X0001722Y0176876D01*
X0001556Y0181399D01*
X0001500Y0185925D01*
X0125925Y0236525D02*
X0133425Y0244025D01*
X0134825Y0246359D01*
X0169125Y0227225D02*
X0190925Y0249025D01*
X0190925Y0329025D01*
X0199125Y0337225D01*
X0208590Y0337225D01*
X0209125Y0337225D01*
X0209125Y0257225D02*
X0210925Y0256525D01*
X0215925Y0256525D01*
X0215925Y0094025D01*
X0216669Y0093282D01*
X0243425Y0066525D01*
X0243924Y0067056D01*
X0228425Y0116525D02*
X0228425Y0117536D01*
X0222099Y0123862D01*
X0265260Y0194591D02*
X0263425Y0196525D01*
X0263425Y0211525D01*
X0245925Y0229025D01*
X0248425Y0231525D02*
X0273425Y0206525D01*
X0273425Y0196525D01*
X0275260Y0194591D01*
X0293425Y0216525D02*
X0293425Y0221525D01*
X0293425Y0216525D02*
X0313425Y0196525D01*
X0315260Y0194591D01*
X0253425Y0231525D02*
X0250925Y0234025D01*
X0250925Y0241525D01*
X0252025Y0241625D01*
X0248425Y0234025D02*
X0248425Y0231525D01*
X0248425Y0234025D02*
X0240925Y0241525D01*
X0235925Y0209025D02*
X0235925Y0206525D01*
X0228425Y0199025D01*
X0209125Y0227225D02*
X0208425Y0229025D01*
X0195925Y0241525D01*
X0195925Y0256525D01*
D11*
X0347241Y0097018D02*
X0347199Y0096927D01*
D12*
X0331526Y0114825D02*
X0331528Y0114983D01*
X0331534Y0115141D01*
X0331544Y0115299D01*
X0331558Y0115457D01*
X0331576Y0115614D01*
X0331597Y0115771D01*
X0331623Y0115927D01*
X0331653Y0116083D01*
X0331686Y0116238D01*
X0331724Y0116391D01*
X0331765Y0116544D01*
X0331810Y0116696D01*
X0331859Y0116847D01*
X0331912Y0116996D01*
X0331968Y0117144D01*
X0332028Y0117290D01*
X0332092Y0117435D01*
X0332160Y0117578D01*
X0332231Y0117720D01*
X0332305Y0117860D01*
X0332383Y0117997D01*
X0332465Y0118133D01*
X0332549Y0118267D01*
X0332638Y0118398D01*
X0332729Y0118527D01*
X0332824Y0118654D01*
X0332921Y0118779D01*
X0333022Y0118901D01*
X0333126Y0119020D01*
X0333233Y0119137D01*
X0333343Y0119251D01*
X0333456Y0119362D01*
X0333571Y0119471D01*
X0333689Y0119576D01*
X0333810Y0119678D01*
X0333933Y0119778D01*
X0334059Y0119874D01*
X0334187Y0119967D01*
X0334317Y0120057D01*
X0334450Y0120143D01*
X0334585Y0120227D01*
X0334721Y0120306D01*
X0334860Y0120383D01*
X0335001Y0120455D01*
X0335143Y0120525D01*
X0335287Y0120590D01*
X0335433Y0120652D01*
X0335580Y0120710D01*
X0335729Y0120765D01*
X0335879Y0120816D01*
X0336030Y0120863D01*
X0336182Y0120906D01*
X0336335Y0120945D01*
X0336490Y0120981D01*
X0336645Y0121012D01*
X0336801Y0121040D01*
X0336957Y0121064D01*
X0337114Y0121084D01*
X0337272Y0121100D01*
X0337429Y0121112D01*
X0337588Y0121120D01*
X0337746Y0121124D01*
X0337904Y0121124D01*
X0338062Y0121120D01*
X0338221Y0121112D01*
X0338378Y0121100D01*
X0338536Y0121084D01*
X0338693Y0121064D01*
X0338849Y0121040D01*
X0339005Y0121012D01*
X0339160Y0120981D01*
X0339315Y0120945D01*
X0339468Y0120906D01*
X0339620Y0120863D01*
X0339771Y0120816D01*
X0339921Y0120765D01*
X0340070Y0120710D01*
X0340217Y0120652D01*
X0340363Y0120590D01*
X0340507Y0120525D01*
X0340649Y0120455D01*
X0340790Y0120383D01*
X0340929Y0120306D01*
X0341065Y0120227D01*
X0341200Y0120143D01*
X0341333Y0120057D01*
X0341463Y0119967D01*
X0341591Y0119874D01*
X0341717Y0119778D01*
X0341840Y0119678D01*
X0341961Y0119576D01*
X0342079Y0119471D01*
X0342194Y0119362D01*
X0342307Y0119251D01*
X0342417Y0119137D01*
X0342524Y0119020D01*
X0342628Y0118901D01*
X0342729Y0118779D01*
X0342826Y0118654D01*
X0342921Y0118527D01*
X0343012Y0118398D01*
X0343101Y0118267D01*
X0343185Y0118133D01*
X0343267Y0117997D01*
X0343345Y0117860D01*
X0343419Y0117720D01*
X0343490Y0117578D01*
X0343558Y0117435D01*
X0343622Y0117290D01*
X0343682Y0117144D01*
X0343738Y0116996D01*
X0343791Y0116847D01*
X0343840Y0116696D01*
X0343885Y0116544D01*
X0343926Y0116391D01*
X0343964Y0116238D01*
X0343997Y0116083D01*
X0344027Y0115927D01*
X0344053Y0115771D01*
X0344074Y0115614D01*
X0344092Y0115457D01*
X0344106Y0115299D01*
X0344116Y0115141D01*
X0344122Y0114983D01*
X0344124Y0114825D01*
X0344122Y0114667D01*
X0344116Y0114509D01*
X0344106Y0114351D01*
X0344092Y0114193D01*
X0344074Y0114036D01*
X0344053Y0113879D01*
X0344027Y0113723D01*
X0343997Y0113567D01*
X0343964Y0113412D01*
X0343926Y0113259D01*
X0343885Y0113106D01*
X0343840Y0112954D01*
X0343791Y0112803D01*
X0343738Y0112654D01*
X0343682Y0112506D01*
X0343622Y0112360D01*
X0343558Y0112215D01*
X0343490Y0112072D01*
X0343419Y0111930D01*
X0343345Y0111790D01*
X0343267Y0111653D01*
X0343185Y0111517D01*
X0343101Y0111383D01*
X0343012Y0111252D01*
X0342921Y0111123D01*
X0342826Y0110996D01*
X0342729Y0110871D01*
X0342628Y0110749D01*
X0342524Y0110630D01*
X0342417Y0110513D01*
X0342307Y0110399D01*
X0342194Y0110288D01*
X0342079Y0110179D01*
X0341961Y0110074D01*
X0341840Y0109972D01*
X0341717Y0109872D01*
X0341591Y0109776D01*
X0341463Y0109683D01*
X0341333Y0109593D01*
X0341200Y0109507D01*
X0341065Y0109423D01*
X0340929Y0109344D01*
X0340790Y0109267D01*
X0340649Y0109195D01*
X0340507Y0109125D01*
X0340363Y0109060D01*
X0340217Y0108998D01*
X0340070Y0108940D01*
X0339921Y0108885D01*
X0339771Y0108834D01*
X0339620Y0108787D01*
X0339468Y0108744D01*
X0339315Y0108705D01*
X0339160Y0108669D01*
X0339005Y0108638D01*
X0338849Y0108610D01*
X0338693Y0108586D01*
X0338536Y0108566D01*
X0338378Y0108550D01*
X0338221Y0108538D01*
X0338062Y0108530D01*
X0337904Y0108526D01*
X0337746Y0108526D01*
X0337588Y0108530D01*
X0337429Y0108538D01*
X0337272Y0108550D01*
X0337114Y0108566D01*
X0336957Y0108586D01*
X0336801Y0108610D01*
X0336645Y0108638D01*
X0336490Y0108669D01*
X0336335Y0108705D01*
X0336182Y0108744D01*
X0336030Y0108787D01*
X0335879Y0108834D01*
X0335729Y0108885D01*
X0335580Y0108940D01*
X0335433Y0108998D01*
X0335287Y0109060D01*
X0335143Y0109125D01*
X0335001Y0109195D01*
X0334860Y0109267D01*
X0334721Y0109344D01*
X0334585Y0109423D01*
X0334450Y0109507D01*
X0334317Y0109593D01*
X0334187Y0109683D01*
X0334059Y0109776D01*
X0333933Y0109872D01*
X0333810Y0109972D01*
X0333689Y0110074D01*
X0333571Y0110179D01*
X0333456Y0110288D01*
X0333343Y0110399D01*
X0333233Y0110513D01*
X0333126Y0110630D01*
X0333022Y0110749D01*
X0332921Y0110871D01*
X0332824Y0110996D01*
X0332729Y0111123D01*
X0332638Y0111252D01*
X0332549Y0111383D01*
X0332465Y0111517D01*
X0332383Y0111653D01*
X0332305Y0111790D01*
X0332231Y0111930D01*
X0332160Y0112072D01*
X0332092Y0112215D01*
X0332028Y0112360D01*
X0331968Y0112506D01*
X0331912Y0112654D01*
X0331859Y0112803D01*
X0331810Y0112954D01*
X0331765Y0113106D01*
X0331724Y0113259D01*
X0331686Y0113412D01*
X0331653Y0113567D01*
X0331623Y0113723D01*
X0331597Y0113879D01*
X0331576Y0114036D01*
X0331558Y0114193D01*
X0331544Y0114351D01*
X0331534Y0114509D01*
X0331528Y0114667D01*
X0331526Y0114825D01*
X0108526Y0034325D02*
X0108528Y0034483D01*
X0108534Y0034641D01*
X0108544Y0034799D01*
X0108558Y0034957D01*
X0108576Y0035114D01*
X0108597Y0035271D01*
X0108623Y0035427D01*
X0108653Y0035583D01*
X0108686Y0035738D01*
X0108724Y0035891D01*
X0108765Y0036044D01*
X0108810Y0036196D01*
X0108859Y0036347D01*
X0108912Y0036496D01*
X0108968Y0036644D01*
X0109028Y0036790D01*
X0109092Y0036935D01*
X0109160Y0037078D01*
X0109231Y0037220D01*
X0109305Y0037360D01*
X0109383Y0037497D01*
X0109465Y0037633D01*
X0109549Y0037767D01*
X0109638Y0037898D01*
X0109729Y0038027D01*
X0109824Y0038154D01*
X0109921Y0038279D01*
X0110022Y0038401D01*
X0110126Y0038520D01*
X0110233Y0038637D01*
X0110343Y0038751D01*
X0110456Y0038862D01*
X0110571Y0038971D01*
X0110689Y0039076D01*
X0110810Y0039178D01*
X0110933Y0039278D01*
X0111059Y0039374D01*
X0111187Y0039467D01*
X0111317Y0039557D01*
X0111450Y0039643D01*
X0111585Y0039727D01*
X0111721Y0039806D01*
X0111860Y0039883D01*
X0112001Y0039955D01*
X0112143Y0040025D01*
X0112287Y0040090D01*
X0112433Y0040152D01*
X0112580Y0040210D01*
X0112729Y0040265D01*
X0112879Y0040316D01*
X0113030Y0040363D01*
X0113182Y0040406D01*
X0113335Y0040445D01*
X0113490Y0040481D01*
X0113645Y0040512D01*
X0113801Y0040540D01*
X0113957Y0040564D01*
X0114114Y0040584D01*
X0114272Y0040600D01*
X0114429Y0040612D01*
X0114588Y0040620D01*
X0114746Y0040624D01*
X0114904Y0040624D01*
X0115062Y0040620D01*
X0115221Y0040612D01*
X0115378Y0040600D01*
X0115536Y0040584D01*
X0115693Y0040564D01*
X0115849Y0040540D01*
X0116005Y0040512D01*
X0116160Y0040481D01*
X0116315Y0040445D01*
X0116468Y0040406D01*
X0116620Y0040363D01*
X0116771Y0040316D01*
X0116921Y0040265D01*
X0117070Y0040210D01*
X0117217Y0040152D01*
X0117363Y0040090D01*
X0117507Y0040025D01*
X0117649Y0039955D01*
X0117790Y0039883D01*
X0117929Y0039806D01*
X0118065Y0039727D01*
X0118200Y0039643D01*
X0118333Y0039557D01*
X0118463Y0039467D01*
X0118591Y0039374D01*
X0118717Y0039278D01*
X0118840Y0039178D01*
X0118961Y0039076D01*
X0119079Y0038971D01*
X0119194Y0038862D01*
X0119307Y0038751D01*
X0119417Y0038637D01*
X0119524Y0038520D01*
X0119628Y0038401D01*
X0119729Y0038279D01*
X0119826Y0038154D01*
X0119921Y0038027D01*
X0120012Y0037898D01*
X0120101Y0037767D01*
X0120185Y0037633D01*
X0120267Y0037497D01*
X0120345Y0037360D01*
X0120419Y0037220D01*
X0120490Y0037078D01*
X0120558Y0036935D01*
X0120622Y0036790D01*
X0120682Y0036644D01*
X0120738Y0036496D01*
X0120791Y0036347D01*
X0120840Y0036196D01*
X0120885Y0036044D01*
X0120926Y0035891D01*
X0120964Y0035738D01*
X0120997Y0035583D01*
X0121027Y0035427D01*
X0121053Y0035271D01*
X0121074Y0035114D01*
X0121092Y0034957D01*
X0121106Y0034799D01*
X0121116Y0034641D01*
X0121122Y0034483D01*
X0121124Y0034325D01*
X0121122Y0034167D01*
X0121116Y0034009D01*
X0121106Y0033851D01*
X0121092Y0033693D01*
X0121074Y0033536D01*
X0121053Y0033379D01*
X0121027Y0033223D01*
X0120997Y0033067D01*
X0120964Y0032912D01*
X0120926Y0032759D01*
X0120885Y0032606D01*
X0120840Y0032454D01*
X0120791Y0032303D01*
X0120738Y0032154D01*
X0120682Y0032006D01*
X0120622Y0031860D01*
X0120558Y0031715D01*
X0120490Y0031572D01*
X0120419Y0031430D01*
X0120345Y0031290D01*
X0120267Y0031153D01*
X0120185Y0031017D01*
X0120101Y0030883D01*
X0120012Y0030752D01*
X0119921Y0030623D01*
X0119826Y0030496D01*
X0119729Y0030371D01*
X0119628Y0030249D01*
X0119524Y0030130D01*
X0119417Y0030013D01*
X0119307Y0029899D01*
X0119194Y0029788D01*
X0119079Y0029679D01*
X0118961Y0029574D01*
X0118840Y0029472D01*
X0118717Y0029372D01*
X0118591Y0029276D01*
X0118463Y0029183D01*
X0118333Y0029093D01*
X0118200Y0029007D01*
X0118065Y0028923D01*
X0117929Y0028844D01*
X0117790Y0028767D01*
X0117649Y0028695D01*
X0117507Y0028625D01*
X0117363Y0028560D01*
X0117217Y0028498D01*
X0117070Y0028440D01*
X0116921Y0028385D01*
X0116771Y0028334D01*
X0116620Y0028287D01*
X0116468Y0028244D01*
X0116315Y0028205D01*
X0116160Y0028169D01*
X0116005Y0028138D01*
X0115849Y0028110D01*
X0115693Y0028086D01*
X0115536Y0028066D01*
X0115378Y0028050D01*
X0115221Y0028038D01*
X0115062Y0028030D01*
X0114904Y0028026D01*
X0114746Y0028026D01*
X0114588Y0028030D01*
X0114429Y0028038D01*
X0114272Y0028050D01*
X0114114Y0028066D01*
X0113957Y0028086D01*
X0113801Y0028110D01*
X0113645Y0028138D01*
X0113490Y0028169D01*
X0113335Y0028205D01*
X0113182Y0028244D01*
X0113030Y0028287D01*
X0112879Y0028334D01*
X0112729Y0028385D01*
X0112580Y0028440D01*
X0112433Y0028498D01*
X0112287Y0028560D01*
X0112143Y0028625D01*
X0112001Y0028695D01*
X0111860Y0028767D01*
X0111721Y0028844D01*
X0111585Y0028923D01*
X0111450Y0029007D01*
X0111317Y0029093D01*
X0111187Y0029183D01*
X0111059Y0029276D01*
X0110933Y0029372D01*
X0110810Y0029472D01*
X0110689Y0029574D01*
X0110571Y0029679D01*
X0110456Y0029788D01*
X0110343Y0029899D01*
X0110233Y0030013D01*
X0110126Y0030130D01*
X0110022Y0030249D01*
X0109921Y0030371D01*
X0109824Y0030496D01*
X0109729Y0030623D01*
X0109638Y0030752D01*
X0109549Y0030883D01*
X0109465Y0031017D01*
X0109383Y0031153D01*
X0109305Y0031290D01*
X0109231Y0031430D01*
X0109160Y0031572D01*
X0109092Y0031715D01*
X0109028Y0031860D01*
X0108968Y0032006D01*
X0108912Y0032154D01*
X0108859Y0032303D01*
X0108810Y0032454D01*
X0108765Y0032606D01*
X0108724Y0032759D01*
X0108686Y0032912D01*
X0108653Y0033067D01*
X0108623Y0033223D01*
X0108597Y0033379D01*
X0108576Y0033536D01*
X0108558Y0033693D01*
X0108544Y0033851D01*
X0108534Y0034009D01*
X0108528Y0034167D01*
X0108526Y0034325D01*
X0027126Y0257025D02*
X0027128Y0257183D01*
X0027134Y0257341D01*
X0027144Y0257499D01*
X0027158Y0257657D01*
X0027176Y0257814D01*
X0027197Y0257971D01*
X0027223Y0258127D01*
X0027253Y0258283D01*
X0027286Y0258438D01*
X0027324Y0258591D01*
X0027365Y0258744D01*
X0027410Y0258896D01*
X0027459Y0259047D01*
X0027512Y0259196D01*
X0027568Y0259344D01*
X0027628Y0259490D01*
X0027692Y0259635D01*
X0027760Y0259778D01*
X0027831Y0259920D01*
X0027905Y0260060D01*
X0027983Y0260197D01*
X0028065Y0260333D01*
X0028149Y0260467D01*
X0028238Y0260598D01*
X0028329Y0260727D01*
X0028424Y0260854D01*
X0028521Y0260979D01*
X0028622Y0261101D01*
X0028726Y0261220D01*
X0028833Y0261337D01*
X0028943Y0261451D01*
X0029056Y0261562D01*
X0029171Y0261671D01*
X0029289Y0261776D01*
X0029410Y0261878D01*
X0029533Y0261978D01*
X0029659Y0262074D01*
X0029787Y0262167D01*
X0029917Y0262257D01*
X0030050Y0262343D01*
X0030185Y0262427D01*
X0030321Y0262506D01*
X0030460Y0262583D01*
X0030601Y0262655D01*
X0030743Y0262725D01*
X0030887Y0262790D01*
X0031033Y0262852D01*
X0031180Y0262910D01*
X0031329Y0262965D01*
X0031479Y0263016D01*
X0031630Y0263063D01*
X0031782Y0263106D01*
X0031935Y0263145D01*
X0032090Y0263181D01*
X0032245Y0263212D01*
X0032401Y0263240D01*
X0032557Y0263264D01*
X0032714Y0263284D01*
X0032872Y0263300D01*
X0033029Y0263312D01*
X0033188Y0263320D01*
X0033346Y0263324D01*
X0033504Y0263324D01*
X0033662Y0263320D01*
X0033821Y0263312D01*
X0033978Y0263300D01*
X0034136Y0263284D01*
X0034293Y0263264D01*
X0034449Y0263240D01*
X0034605Y0263212D01*
X0034760Y0263181D01*
X0034915Y0263145D01*
X0035068Y0263106D01*
X0035220Y0263063D01*
X0035371Y0263016D01*
X0035521Y0262965D01*
X0035670Y0262910D01*
X0035817Y0262852D01*
X0035963Y0262790D01*
X0036107Y0262725D01*
X0036249Y0262655D01*
X0036390Y0262583D01*
X0036529Y0262506D01*
X0036665Y0262427D01*
X0036800Y0262343D01*
X0036933Y0262257D01*
X0037063Y0262167D01*
X0037191Y0262074D01*
X0037317Y0261978D01*
X0037440Y0261878D01*
X0037561Y0261776D01*
X0037679Y0261671D01*
X0037794Y0261562D01*
X0037907Y0261451D01*
X0038017Y0261337D01*
X0038124Y0261220D01*
X0038228Y0261101D01*
X0038329Y0260979D01*
X0038426Y0260854D01*
X0038521Y0260727D01*
X0038612Y0260598D01*
X0038701Y0260467D01*
X0038785Y0260333D01*
X0038867Y0260197D01*
X0038945Y0260060D01*
X0039019Y0259920D01*
X0039090Y0259778D01*
X0039158Y0259635D01*
X0039222Y0259490D01*
X0039282Y0259344D01*
X0039338Y0259196D01*
X0039391Y0259047D01*
X0039440Y0258896D01*
X0039485Y0258744D01*
X0039526Y0258591D01*
X0039564Y0258438D01*
X0039597Y0258283D01*
X0039627Y0258127D01*
X0039653Y0257971D01*
X0039674Y0257814D01*
X0039692Y0257657D01*
X0039706Y0257499D01*
X0039716Y0257341D01*
X0039722Y0257183D01*
X0039724Y0257025D01*
X0039722Y0256867D01*
X0039716Y0256709D01*
X0039706Y0256551D01*
X0039692Y0256393D01*
X0039674Y0256236D01*
X0039653Y0256079D01*
X0039627Y0255923D01*
X0039597Y0255767D01*
X0039564Y0255612D01*
X0039526Y0255459D01*
X0039485Y0255306D01*
X0039440Y0255154D01*
X0039391Y0255003D01*
X0039338Y0254854D01*
X0039282Y0254706D01*
X0039222Y0254560D01*
X0039158Y0254415D01*
X0039090Y0254272D01*
X0039019Y0254130D01*
X0038945Y0253990D01*
X0038867Y0253853D01*
X0038785Y0253717D01*
X0038701Y0253583D01*
X0038612Y0253452D01*
X0038521Y0253323D01*
X0038426Y0253196D01*
X0038329Y0253071D01*
X0038228Y0252949D01*
X0038124Y0252830D01*
X0038017Y0252713D01*
X0037907Y0252599D01*
X0037794Y0252488D01*
X0037679Y0252379D01*
X0037561Y0252274D01*
X0037440Y0252172D01*
X0037317Y0252072D01*
X0037191Y0251976D01*
X0037063Y0251883D01*
X0036933Y0251793D01*
X0036800Y0251707D01*
X0036665Y0251623D01*
X0036529Y0251544D01*
X0036390Y0251467D01*
X0036249Y0251395D01*
X0036107Y0251325D01*
X0035963Y0251260D01*
X0035817Y0251198D01*
X0035670Y0251140D01*
X0035521Y0251085D01*
X0035371Y0251034D01*
X0035220Y0250987D01*
X0035068Y0250944D01*
X0034915Y0250905D01*
X0034760Y0250869D01*
X0034605Y0250838D01*
X0034449Y0250810D01*
X0034293Y0250786D01*
X0034136Y0250766D01*
X0033978Y0250750D01*
X0033821Y0250738D01*
X0033662Y0250730D01*
X0033504Y0250726D01*
X0033346Y0250726D01*
X0033188Y0250730D01*
X0033029Y0250738D01*
X0032872Y0250750D01*
X0032714Y0250766D01*
X0032557Y0250786D01*
X0032401Y0250810D01*
X0032245Y0250838D01*
X0032090Y0250869D01*
X0031935Y0250905D01*
X0031782Y0250944D01*
X0031630Y0250987D01*
X0031479Y0251034D01*
X0031329Y0251085D01*
X0031180Y0251140D01*
X0031033Y0251198D01*
X0030887Y0251260D01*
X0030743Y0251325D01*
X0030601Y0251395D01*
X0030460Y0251467D01*
X0030321Y0251544D01*
X0030185Y0251623D01*
X0030050Y0251707D01*
X0029917Y0251793D01*
X0029787Y0251883D01*
X0029659Y0251976D01*
X0029533Y0252072D01*
X0029410Y0252172D01*
X0029289Y0252274D01*
X0029171Y0252379D01*
X0029056Y0252488D01*
X0028943Y0252599D01*
X0028833Y0252713D01*
X0028726Y0252830D01*
X0028622Y0252949D01*
X0028521Y0253071D01*
X0028424Y0253196D01*
X0028329Y0253323D01*
X0028238Y0253452D01*
X0028149Y0253583D01*
X0028065Y0253717D01*
X0027983Y0253853D01*
X0027905Y0253990D01*
X0027831Y0254130D01*
X0027760Y0254272D01*
X0027692Y0254415D01*
X0027628Y0254560D01*
X0027568Y0254706D01*
X0027512Y0254854D01*
X0027459Y0255003D01*
X0027410Y0255154D01*
X0027365Y0255306D01*
X0027324Y0255459D01*
X0027286Y0255612D01*
X0027253Y0255767D01*
X0027223Y0255923D01*
X0027197Y0256079D01*
X0027176Y0256236D01*
X0027158Y0256393D01*
X0027144Y0256551D01*
X0027134Y0256709D01*
X0027128Y0256867D01*
X0027126Y0257025D01*
X0250126Y0337525D02*
X0250128Y0337683D01*
X0250134Y0337841D01*
X0250144Y0337999D01*
X0250158Y0338157D01*
X0250176Y0338314D01*
X0250197Y0338471D01*
X0250223Y0338627D01*
X0250253Y0338783D01*
X0250286Y0338938D01*
X0250324Y0339091D01*
X0250365Y0339244D01*
X0250410Y0339396D01*
X0250459Y0339547D01*
X0250512Y0339696D01*
X0250568Y0339844D01*
X0250628Y0339990D01*
X0250692Y0340135D01*
X0250760Y0340278D01*
X0250831Y0340420D01*
X0250905Y0340560D01*
X0250983Y0340697D01*
X0251065Y0340833D01*
X0251149Y0340967D01*
X0251238Y0341098D01*
X0251329Y0341227D01*
X0251424Y0341354D01*
X0251521Y0341479D01*
X0251622Y0341601D01*
X0251726Y0341720D01*
X0251833Y0341837D01*
X0251943Y0341951D01*
X0252056Y0342062D01*
X0252171Y0342171D01*
X0252289Y0342276D01*
X0252410Y0342378D01*
X0252533Y0342478D01*
X0252659Y0342574D01*
X0252787Y0342667D01*
X0252917Y0342757D01*
X0253050Y0342843D01*
X0253185Y0342927D01*
X0253321Y0343006D01*
X0253460Y0343083D01*
X0253601Y0343155D01*
X0253743Y0343225D01*
X0253887Y0343290D01*
X0254033Y0343352D01*
X0254180Y0343410D01*
X0254329Y0343465D01*
X0254479Y0343516D01*
X0254630Y0343563D01*
X0254782Y0343606D01*
X0254935Y0343645D01*
X0255090Y0343681D01*
X0255245Y0343712D01*
X0255401Y0343740D01*
X0255557Y0343764D01*
X0255714Y0343784D01*
X0255872Y0343800D01*
X0256029Y0343812D01*
X0256188Y0343820D01*
X0256346Y0343824D01*
X0256504Y0343824D01*
X0256662Y0343820D01*
X0256821Y0343812D01*
X0256978Y0343800D01*
X0257136Y0343784D01*
X0257293Y0343764D01*
X0257449Y0343740D01*
X0257605Y0343712D01*
X0257760Y0343681D01*
X0257915Y0343645D01*
X0258068Y0343606D01*
X0258220Y0343563D01*
X0258371Y0343516D01*
X0258521Y0343465D01*
X0258670Y0343410D01*
X0258817Y0343352D01*
X0258963Y0343290D01*
X0259107Y0343225D01*
X0259249Y0343155D01*
X0259390Y0343083D01*
X0259529Y0343006D01*
X0259665Y0342927D01*
X0259800Y0342843D01*
X0259933Y0342757D01*
X0260063Y0342667D01*
X0260191Y0342574D01*
X0260317Y0342478D01*
X0260440Y0342378D01*
X0260561Y0342276D01*
X0260679Y0342171D01*
X0260794Y0342062D01*
X0260907Y0341951D01*
X0261017Y0341837D01*
X0261124Y0341720D01*
X0261228Y0341601D01*
X0261329Y0341479D01*
X0261426Y0341354D01*
X0261521Y0341227D01*
X0261612Y0341098D01*
X0261701Y0340967D01*
X0261785Y0340833D01*
X0261867Y0340697D01*
X0261945Y0340560D01*
X0262019Y0340420D01*
X0262090Y0340278D01*
X0262158Y0340135D01*
X0262222Y0339990D01*
X0262282Y0339844D01*
X0262338Y0339696D01*
X0262391Y0339547D01*
X0262440Y0339396D01*
X0262485Y0339244D01*
X0262526Y0339091D01*
X0262564Y0338938D01*
X0262597Y0338783D01*
X0262627Y0338627D01*
X0262653Y0338471D01*
X0262674Y0338314D01*
X0262692Y0338157D01*
X0262706Y0337999D01*
X0262716Y0337841D01*
X0262722Y0337683D01*
X0262724Y0337525D01*
X0262722Y0337367D01*
X0262716Y0337209D01*
X0262706Y0337051D01*
X0262692Y0336893D01*
X0262674Y0336736D01*
X0262653Y0336579D01*
X0262627Y0336423D01*
X0262597Y0336267D01*
X0262564Y0336112D01*
X0262526Y0335959D01*
X0262485Y0335806D01*
X0262440Y0335654D01*
X0262391Y0335503D01*
X0262338Y0335354D01*
X0262282Y0335206D01*
X0262222Y0335060D01*
X0262158Y0334915D01*
X0262090Y0334772D01*
X0262019Y0334630D01*
X0261945Y0334490D01*
X0261867Y0334353D01*
X0261785Y0334217D01*
X0261701Y0334083D01*
X0261612Y0333952D01*
X0261521Y0333823D01*
X0261426Y0333696D01*
X0261329Y0333571D01*
X0261228Y0333449D01*
X0261124Y0333330D01*
X0261017Y0333213D01*
X0260907Y0333099D01*
X0260794Y0332988D01*
X0260679Y0332879D01*
X0260561Y0332774D01*
X0260440Y0332672D01*
X0260317Y0332572D01*
X0260191Y0332476D01*
X0260063Y0332383D01*
X0259933Y0332293D01*
X0259800Y0332207D01*
X0259665Y0332123D01*
X0259529Y0332044D01*
X0259390Y0331967D01*
X0259249Y0331895D01*
X0259107Y0331825D01*
X0258963Y0331760D01*
X0258817Y0331698D01*
X0258670Y0331640D01*
X0258521Y0331585D01*
X0258371Y0331534D01*
X0258220Y0331487D01*
X0258068Y0331444D01*
X0257915Y0331405D01*
X0257760Y0331369D01*
X0257605Y0331338D01*
X0257449Y0331310D01*
X0257293Y0331286D01*
X0257136Y0331266D01*
X0256978Y0331250D01*
X0256821Y0331238D01*
X0256662Y0331230D01*
X0256504Y0331226D01*
X0256346Y0331226D01*
X0256188Y0331230D01*
X0256029Y0331238D01*
X0255872Y0331250D01*
X0255714Y0331266D01*
X0255557Y0331286D01*
X0255401Y0331310D01*
X0255245Y0331338D01*
X0255090Y0331369D01*
X0254935Y0331405D01*
X0254782Y0331444D01*
X0254630Y0331487D01*
X0254479Y0331534D01*
X0254329Y0331585D01*
X0254180Y0331640D01*
X0254033Y0331698D01*
X0253887Y0331760D01*
X0253743Y0331825D01*
X0253601Y0331895D01*
X0253460Y0331967D01*
X0253321Y0332044D01*
X0253185Y0332123D01*
X0253050Y0332207D01*
X0252917Y0332293D01*
X0252787Y0332383D01*
X0252659Y0332476D01*
X0252533Y0332572D01*
X0252410Y0332672D01*
X0252289Y0332774D01*
X0252171Y0332879D01*
X0252056Y0332988D01*
X0251943Y0333099D01*
X0251833Y0333213D01*
X0251726Y0333330D01*
X0251622Y0333449D01*
X0251521Y0333571D01*
X0251424Y0333696D01*
X0251329Y0333823D01*
X0251238Y0333952D01*
X0251149Y0334083D01*
X0251065Y0334217D01*
X0250983Y0334353D01*
X0250905Y0334490D01*
X0250831Y0334630D01*
X0250760Y0334772D01*
X0250692Y0334915D01*
X0250628Y0335060D01*
X0250568Y0335206D01*
X0250512Y0335354D01*
X0250459Y0335503D01*
X0250410Y0335654D01*
X0250365Y0335806D01*
X0250324Y0335959D01*
X0250286Y0336112D01*
X0250253Y0336267D01*
X0250223Y0336423D01*
X0250197Y0336579D01*
X0250176Y0336736D01*
X0250158Y0336893D01*
X0250144Y0337051D01*
X0250134Y0337209D01*
X0250128Y0337367D01*
X0250126Y0337525D01*
D13*
X0245260Y0194591D03*
X0235260Y0194591D03*
X0255260Y0194591D03*
X0265260Y0194591D03*
X0275260Y0194591D03*
X0285260Y0194591D03*
X0295260Y0194591D03*
X0305260Y0194591D03*
X0315260Y0194591D03*
D14*
X0209125Y0227225D03*
X0209125Y0237225D03*
X0209125Y0247225D03*
X0209125Y0257225D03*
X0209125Y0267225D03*
X0209125Y0277225D03*
X0209125Y0287225D03*
X0209125Y0297225D03*
X0209125Y0307225D03*
X0199125Y0307225D03*
X0199125Y0317225D03*
X0199125Y0327225D03*
X0209125Y0327225D03*
X0209125Y0317225D03*
X0209125Y0337225D03*
X0209125Y0347225D03*
X0199125Y0347225D03*
X0209125Y0357225D03*
X0149125Y0357225D03*
X0149125Y0347225D03*
X0149125Y0337225D03*
X0149125Y0327225D03*
X0149125Y0317225D03*
X0149125Y0307225D03*
X0149125Y0297225D03*
X0149125Y0287225D03*
X0149125Y0277225D03*
X0149125Y0267225D03*
X0149125Y0257225D03*
X0149125Y0247225D03*
X0149125Y0237225D03*
X0149125Y0227225D03*
X0159125Y0227225D03*
X0169125Y0227225D03*
X0179125Y0227225D03*
X0189125Y0227225D03*
X0199125Y0227225D03*
D15*
X0222099Y0186854D03*
X0222099Y0178980D03*
X0222099Y0171106D03*
X0222099Y0163232D03*
X0222099Y0155358D03*
X0222099Y0147484D03*
X0222099Y0139610D03*
X0222099Y0131736D03*
X0222099Y0123862D03*
X0222099Y0115988D03*
X0135485Y0115988D03*
X0135485Y0123862D03*
X0135485Y0131736D03*
X0135485Y0139610D03*
X0135485Y0147484D03*
X0135485Y0155358D03*
X0135485Y0163232D03*
X0135485Y0171106D03*
X0135485Y0178980D03*
X0135485Y0186854D03*
D16*
X0121025Y0185360D03*
X0121025Y0175360D03*
X0121025Y0165360D03*
X0121025Y0155360D03*
X0121025Y0145360D03*
X0121025Y0135360D03*
X0079989Y0111028D03*
X0078861Y0095429D03*
X0102194Y0079728D03*
X0127784Y0079728D03*
X0048861Y0095429D03*
X0049989Y0111028D03*
X0121025Y0195360D03*
X0134825Y0246359D03*
X0134825Y0256359D03*
X0134825Y0266359D03*
X0134825Y0276359D03*
X0134825Y0286359D03*
X0134825Y0296359D03*
X0134825Y0306359D03*
X0125825Y0341725D03*
X0115825Y0341725D03*
X0105825Y0341725D03*
X0255779Y0207473D03*
X0285779Y0207473D03*
X0310517Y0229603D03*
X0320517Y0229603D03*
X0330517Y0229603D03*
X0330192Y0256428D03*
X0320192Y0256428D03*
X0310192Y0256428D03*
X0282025Y0261625D03*
X0282025Y0271625D03*
X0282025Y0281625D03*
X0282025Y0301625D03*
X0272025Y0301625D03*
X0262025Y0301625D03*
X0262025Y0241625D03*
X0272025Y0241625D03*
X0282025Y0241625D03*
X0243924Y0097056D03*
X0243924Y0067056D03*
X0243225Y0056224D03*
X0266525Y0062625D03*
X0243225Y0026224D03*
D17*
X0252025Y0241625D03*
X0252025Y0301625D03*
D18*
X0275025Y0325925D02*
X0275025Y0333325D01*
X0299126Y0319959D02*
X0299126Y0312559D01*
X0105125Y0321225D02*
X0105125Y0328625D01*
X0089058Y0329759D02*
X0089058Y0322359D01*
D19*
X0117858Y0221627D03*
X0112858Y0214127D03*
X0122858Y0214127D03*
D20*
X0058857Y0059483D02*
X0239262Y0059483D01*
X0238896Y0059117D02*
X0238118Y0057240D01*
X0238118Y0055209D01*
X0238896Y0053332D01*
X0240332Y0051895D01*
X0242210Y0051117D01*
X0244241Y0051117D01*
X0246118Y0051895D01*
X0247555Y0053332D01*
X0248332Y0055209D01*
X0248332Y0057240D01*
X0247555Y0059117D01*
X0246118Y0060554D01*
X0244241Y0061332D01*
X0242210Y0061332D01*
X0240332Y0060554D01*
X0238896Y0059117D01*
X0238551Y0058285D02*
X0060140Y0058285D01*
X0061423Y0057086D02*
X0238118Y0057086D01*
X0238118Y0055888D02*
X0062707Y0055888D01*
X0063990Y0054689D02*
X0238333Y0054689D01*
X0238830Y0053491D02*
X0065273Y0053491D01*
X0066557Y0052292D02*
X0239935Y0052292D01*
X0246516Y0052292D02*
X0303810Y0052292D01*
X0302692Y0051094D02*
X0067840Y0051094D01*
X0069123Y0049895D02*
X0301573Y0049895D01*
X0300455Y0048697D02*
X0070566Y0048697D01*
X0069618Y0049433D02*
X0057688Y0060575D01*
X0046821Y0072755D01*
X0037106Y0085874D01*
X0028624Y0099821D01*
X0021446Y0114482D01*
X0015631Y0129735D01*
X0011227Y0145453D01*
X0008270Y0161507D01*
X0006786Y0177763D01*
X0006786Y0194087D01*
X0008270Y0210344D01*
X0011227Y0226397D01*
X0015631Y0242116D01*
X0021446Y0257369D01*
X0023186Y0260922D01*
X0022526Y0258460D01*
X0022526Y0255590D01*
X0023269Y0252818D01*
X0024704Y0250333D01*
X0026733Y0248304D01*
X0029218Y0246869D01*
X0031990Y0246126D01*
X0034860Y0246126D01*
X0037632Y0246869D01*
X0040118Y0248304D01*
X0042147Y0250333D01*
X0043582Y0252818D01*
X0044325Y0255590D01*
X0044325Y0258460D01*
X0043582Y0261232D01*
X0042147Y0263718D01*
X0040118Y0265747D01*
X0037632Y0267182D01*
X0034860Y0267925D01*
X0031990Y0267925D01*
X0029218Y0267182D01*
X0026733Y0265747D01*
X0024704Y0263718D01*
X0023721Y0262016D01*
X0028624Y0272030D01*
X0037106Y0285977D01*
X0046821Y0299095D01*
X0057688Y0311276D01*
X0069618Y0322418D01*
X0082512Y0332429D01*
X0096263Y0341226D01*
X0100865Y0343611D01*
X0100656Y0342966D01*
X0100525Y0342143D01*
X0100525Y0342125D01*
X0105425Y0342125D01*
X0105425Y0341325D01*
X0100525Y0341325D01*
X0100525Y0341308D01*
X0100656Y0340484D01*
X0100914Y0339691D01*
X0101292Y0338948D01*
X0101783Y0338273D01*
X0102373Y0337683D01*
X0103048Y0337192D01*
X0103791Y0336814D01*
X0104584Y0336556D01*
X0105408Y0336425D01*
X0105425Y0336425D01*
X0105425Y0341325D01*
X0106225Y0341325D01*
X0106225Y0336425D01*
X0106243Y0336425D01*
X0107066Y0336556D01*
X0107860Y0336814D01*
X0108603Y0337192D01*
X0109278Y0337683D01*
X0109868Y0338273D01*
X0110358Y0338948D01*
X0110737Y0339691D01*
X0110914Y0340236D01*
X0111496Y0338832D01*
X0112932Y0337396D01*
X0114810Y0336618D01*
X0116841Y0336618D01*
X0117756Y0336997D01*
X0124018Y0330735D01*
X0124018Y0237315D01*
X0110135Y0223432D01*
X0109018Y0222315D01*
X0109018Y0216944D01*
X0108151Y0216077D01*
X0108151Y0212177D01*
X0110908Y0209420D01*
X0111518Y0209420D01*
X0111518Y0190735D01*
X0115918Y0186336D01*
X0115918Y0184345D01*
X0116695Y0182467D01*
X0118132Y0181031D01*
X0119750Y0180360D01*
X0118132Y0179690D01*
X0116695Y0178253D01*
X0115918Y0176376D01*
X0115918Y0174345D01*
X0116695Y0172467D01*
X0118132Y0171031D01*
X0119750Y0170360D01*
X0118132Y0169690D01*
X0116695Y0168253D01*
X0115918Y0166376D01*
X0115918Y0164345D01*
X0116695Y0162467D01*
X0118132Y0161031D01*
X0119750Y0160360D01*
X0118132Y0159690D01*
X0116695Y0158253D01*
X0115918Y0156376D01*
X0115918Y0154345D01*
X0116695Y0152467D01*
X0118132Y0151031D01*
X0119750Y0150360D01*
X0118132Y0149690D01*
X0116695Y0148253D01*
X0115918Y0146376D01*
X0115918Y0144345D01*
X0116695Y0142467D01*
X0118132Y0141031D01*
X0119750Y0140360D01*
X0118132Y0139690D01*
X0116695Y0138253D01*
X0115918Y0136376D01*
X0115918Y0134345D01*
X0116695Y0132467D01*
X0118132Y0131031D01*
X0120009Y0130253D01*
X0122041Y0130253D01*
X0123918Y0131031D01*
X0125354Y0132467D01*
X0126132Y0134345D01*
X0126132Y0136376D01*
X0125354Y0138253D01*
X0123918Y0139690D01*
X0122299Y0140360D01*
X0123918Y0141031D01*
X0125354Y0142467D01*
X0126132Y0144345D01*
X0126132Y0146376D01*
X0125354Y0148253D01*
X0123918Y0149690D01*
X0122299Y0150360D01*
X0123918Y0151031D01*
X0125354Y0152467D01*
X0126132Y0154345D01*
X0126132Y0156376D01*
X0125354Y0158253D01*
X0123918Y0159690D01*
X0122299Y0160360D01*
X0123918Y0161031D01*
X0125354Y0162467D01*
X0126132Y0164345D01*
X0126132Y0166376D01*
X0125354Y0168253D01*
X0123918Y0169690D01*
X0122299Y0170360D01*
X0123918Y0171031D01*
X0125354Y0172467D01*
X0126132Y0174345D01*
X0126132Y0176376D01*
X0125354Y0178253D01*
X0123918Y0179690D01*
X0122299Y0180360D01*
X0123918Y0181031D01*
X0125354Y0182467D01*
X0126132Y0184345D01*
X0126132Y0186376D01*
X0125354Y0188253D01*
X0123918Y0189690D01*
X0122514Y0190271D01*
X0123059Y0190449D01*
X0123803Y0190827D01*
X0124477Y0191318D01*
X0125067Y0191908D01*
X0125558Y0192583D01*
X0125936Y0193326D01*
X0126194Y0194119D01*
X0126325Y0194943D01*
X0126325Y0194960D01*
X0121425Y0194960D01*
X0121425Y0195760D01*
X0126325Y0195760D01*
X0126325Y0195777D01*
X0126194Y0196601D01*
X0125936Y0197395D01*
X0125558Y0198138D01*
X0125067Y0198813D01*
X0124477Y0199403D01*
X0123803Y0199893D01*
X0123059Y0200272D01*
X0122266Y0200530D01*
X0121442Y0200660D01*
X0121425Y0200660D01*
X0121425Y0195760D01*
X0120625Y0195760D01*
X0120625Y0194960D01*
X0115725Y0194960D01*
X0115725Y0194943D01*
X0115855Y0194119D01*
X0116113Y0193326D01*
X0116492Y0192583D01*
X0116982Y0191908D01*
X0117572Y0191318D01*
X0118247Y0190827D01*
X0118990Y0190449D01*
X0119536Y0190271D01*
X0118132Y0189690D01*
X0118045Y0189603D01*
X0115332Y0192315D01*
X0115332Y0209945D01*
X0117565Y0212177D01*
X0117565Y0216077D01*
X0116722Y0216920D01*
X0118721Y0216920D01*
X0117958Y0216157D01*
X0117958Y0214327D01*
X0122658Y0214327D01*
X0122658Y0213927D01*
X0117958Y0213927D01*
X0117958Y0212097D01*
X0120828Y0209227D01*
X0122658Y0209227D01*
X0122658Y0213927D01*
X0123058Y0213927D01*
X0123058Y0209227D01*
X0124888Y0209227D01*
X0127758Y0212097D01*
X0127758Y0213927D01*
X0123058Y0213927D01*
X0123058Y0214327D01*
X0122658Y0214327D01*
X0122658Y0219027D01*
X0121915Y0219027D01*
X0122565Y0219677D01*
X0122565Y0223577D01*
X0119808Y0226334D01*
X0118431Y0226334D01*
X0126715Y0234618D01*
X0127832Y0235735D01*
X0127832Y0235735D01*
X0133484Y0241387D01*
X0133810Y0241252D01*
X0135841Y0241252D01*
X0137718Y0242030D01*
X0139155Y0243467D01*
X0139933Y0245344D01*
X0139933Y0247375D01*
X0139155Y0249252D01*
X0137718Y0250689D01*
X0136100Y0251359D01*
X0137718Y0252030D01*
X0139155Y0253467D01*
X0139933Y0255344D01*
X0139933Y0257375D01*
X0139155Y0259252D01*
X0137718Y0260689D01*
X0136100Y0261359D01*
X0137718Y0262030D01*
X0139155Y0263467D01*
X0139933Y0265344D01*
X0139933Y0267375D01*
X0139155Y0269252D01*
X0137718Y0270689D01*
X0136100Y0271359D01*
X0137718Y0272030D01*
X0139155Y0273467D01*
X0139933Y0275344D01*
X0139933Y0277375D01*
X0139155Y0279252D01*
X0137718Y0280689D01*
X0136100Y0281359D01*
X0137718Y0282030D01*
X0139155Y0283467D01*
X0139933Y0285344D01*
X0139933Y0287375D01*
X0139155Y0289252D01*
X0137718Y0290689D01*
X0136100Y0291359D01*
X0137718Y0292030D01*
X0139155Y0293467D01*
X0139933Y0295344D01*
X0139933Y0297375D01*
X0139155Y0299252D01*
X0137718Y0300689D01*
X0136315Y0301271D01*
X0136860Y0301448D01*
X0137603Y0301827D01*
X0138278Y0302317D01*
X0138868Y0302907D01*
X0139358Y0303582D01*
X0139737Y0304325D01*
X0139995Y0305118D01*
X0140125Y0305942D01*
X0140125Y0305959D01*
X0135226Y0305959D01*
X0135226Y0306759D01*
X0140125Y0306759D01*
X0140125Y0306777D01*
X0139995Y0307601D01*
X0139737Y0308394D01*
X0139358Y0309137D01*
X0138868Y0309812D01*
X0138278Y0310402D01*
X0137603Y0310892D01*
X0136860Y0311271D01*
X0136067Y0311529D01*
X0135243Y0311659D01*
X0135225Y0311659D01*
X0135225Y0306760D01*
X0134425Y0306760D01*
X0134425Y0311659D01*
X0134408Y0311659D01*
X0133584Y0311529D01*
X0132791Y0311271D01*
X0132048Y0310892D01*
X0131373Y0310402D01*
X0130783Y0309812D01*
X0130293Y0309137D01*
X0129914Y0308394D01*
X0129656Y0307601D01*
X0129525Y0306777D01*
X0129525Y0306759D01*
X0134425Y0306759D01*
X0134425Y0305959D01*
X0129525Y0305959D01*
X0129525Y0305942D01*
X0129656Y0305118D01*
X0129914Y0304325D01*
X0130293Y0303582D01*
X0130783Y0302907D01*
X0131373Y0302317D01*
X0132048Y0301827D01*
X0132791Y0301448D01*
X0133336Y0301271D01*
X0131933Y0300689D01*
X0130496Y0299252D01*
X0129718Y0297375D01*
X0129718Y0295344D01*
X0130496Y0293467D01*
X0131933Y0292030D01*
X0133551Y0291359D01*
X0131933Y0290689D01*
X0130496Y0289252D01*
X0129718Y0287375D01*
X0129718Y0285344D01*
X0130496Y0283467D01*
X0131933Y0282030D01*
X0133551Y0281359D01*
X0131933Y0280689D01*
X0130496Y0279252D01*
X0129718Y0277375D01*
X0129718Y0275344D01*
X0130496Y0273467D01*
X0131933Y0272030D01*
X0133551Y0271359D01*
X0131933Y0270689D01*
X0130496Y0269252D01*
X0129718Y0267375D01*
X0129718Y0265344D01*
X0130496Y0263467D01*
X0131933Y0262030D01*
X0133551Y0261359D01*
X0131933Y0260689D01*
X0130496Y0259252D01*
X0129718Y0257375D01*
X0129718Y0255344D01*
X0130496Y0253467D01*
X0131933Y0252030D01*
X0133551Y0251359D01*
X0131933Y0250689D01*
X0130496Y0249252D01*
X0129718Y0247375D01*
X0129718Y0245344D01*
X0130400Y0243697D01*
X0127832Y0241129D01*
X0127832Y0332315D01*
X0126715Y0333432D01*
X0120495Y0339653D01*
X0120825Y0340451D01*
X0121496Y0338832D01*
X0122932Y0337396D01*
X0124810Y0336618D01*
X0126841Y0336618D01*
X0128718Y0337396D01*
X0130155Y0338832D01*
X0130932Y0340710D01*
X0130932Y0342741D01*
X0130155Y0344618D01*
X0128718Y0346055D01*
X0126841Y0346832D01*
X0124810Y0346832D01*
X0122932Y0346055D01*
X0121496Y0344618D01*
X0120825Y0343000D01*
X0120155Y0344618D01*
X0118718Y0346055D01*
X0116841Y0346832D01*
X0114810Y0346832D01*
X0112932Y0346055D01*
X0111496Y0344618D01*
X0110914Y0343214D01*
X0110737Y0343760D01*
X0110358Y0344503D01*
X0109868Y0345178D01*
X0109278Y0345768D01*
X0108603Y0346258D01*
X0107860Y0346637D01*
X0107151Y0346867D01*
X0110756Y0348736D01*
X0125873Y0354897D01*
X0141487Y0359657D01*
X0146166Y0360630D01*
X0145693Y0360157D01*
X0145277Y0359584D01*
X0144955Y0358953D01*
X0144736Y0358279D01*
X0144625Y0357580D01*
X0144625Y0357575D01*
X0148775Y0357575D01*
X0148775Y0356875D01*
X0149475Y0356875D01*
X0149475Y0352725D01*
X0149480Y0352725D01*
X0150179Y0352836D01*
X0150853Y0353055D01*
X0151484Y0353377D01*
X0152057Y0353793D01*
X0152558Y0354294D01*
X0152974Y0354867D01*
X0153296Y0355498D01*
X0153515Y0356172D01*
X0153625Y0356871D01*
X0153625Y0356875D01*
X0149475Y0356875D01*
X0149475Y0357575D01*
X0153625Y0357575D01*
X0153625Y0357580D01*
X0153515Y0358279D01*
X0153296Y0358953D01*
X0152974Y0359584D01*
X0152558Y0360157D01*
X0152057Y0360658D01*
X0151484Y0361074D01*
X0150853Y0361396D01*
X0150462Y0361523D01*
X0157470Y0362979D01*
X0173688Y0364833D01*
X0190007Y0365204D01*
X0206293Y0364090D01*
X0222410Y0361500D01*
X0238225Y0357455D01*
X0253606Y0351988D01*
X0268427Y0345146D01*
X0282564Y0336984D01*
X0295900Y0327570D01*
X0298838Y0325066D01*
X0298110Y0325066D01*
X0296233Y0324289D01*
X0294796Y0322852D01*
X0294019Y0320975D01*
X0294019Y0311543D01*
X0294796Y0309666D01*
X0296233Y0308230D01*
X0298110Y0307452D01*
X0300141Y0307452D01*
X0302019Y0308230D01*
X0303455Y0309666D01*
X0304233Y0311543D01*
X0304233Y0320470D01*
X0308324Y0316983D01*
X0319735Y0305309D01*
X0330037Y0292647D01*
X0339144Y0279100D01*
X0345775Y0266986D01*
X0361072Y0223640D01*
X0362285Y0218404D01*
X0364508Y0202232D01*
X0365251Y0185925D01*
X0364508Y0169618D01*
X0362285Y0153447D01*
X0359950Y0143366D01*
X0348087Y0111011D01*
X0348725Y0113390D01*
X0348725Y0116260D01*
X0347982Y0119032D01*
X0346547Y0121518D01*
X0344518Y0123547D01*
X0342032Y0124982D01*
X0339260Y0125725D01*
X0336390Y0125725D01*
X0333618Y0124982D01*
X0331133Y0123547D01*
X0329104Y0121518D01*
X0327669Y0119032D01*
X0326926Y0116260D01*
X0326926Y0113390D01*
X0327669Y0110618D01*
X0329104Y0108133D01*
X0331133Y0106104D01*
X0333618Y0104669D01*
X0336390Y0103926D01*
X0339260Y0103926D01*
X0342032Y0104669D01*
X0344518Y0106104D01*
X0346547Y0108133D01*
X0347876Y0110435D01*
X0345951Y0105186D01*
X0343726Y0101121D01*
X0342801Y0100273D01*
X0341851Y0098236D01*
X0341825Y0097648D01*
X0339144Y0092751D01*
X0332919Y0083490D01*
X0298023Y0046090D01*
X0295900Y0044281D01*
X0282564Y0034867D01*
X0268427Y0026705D01*
X0253606Y0019862D01*
X0238225Y0014396D01*
X0228438Y0011893D01*
X0141170Y0012290D01*
X0125873Y0016954D01*
X0110756Y0023115D01*
X0096263Y0030625D01*
X0082512Y0039422D01*
X0069618Y0049433D01*
X0072110Y0047498D02*
X0299337Y0047498D01*
X0298219Y0046300D02*
X0073654Y0046300D01*
X0075197Y0045101D02*
X0112929Y0045101D01*
X0113390Y0045225D02*
X0110618Y0044482D01*
X0108133Y0043047D01*
X0106104Y0041018D01*
X0104669Y0038532D01*
X0103926Y0035760D01*
X0103926Y0032890D01*
X0104669Y0030118D01*
X0106104Y0027633D01*
X0108133Y0025604D01*
X0110618Y0024169D01*
X0113390Y0023426D01*
X0116260Y0023426D01*
X0119032Y0024169D01*
X0121518Y0025604D01*
X0123547Y0027633D01*
X0124982Y0030118D01*
X0125725Y0032890D01*
X0125725Y0035760D01*
X0124982Y0038532D01*
X0123547Y0041018D01*
X0121518Y0043047D01*
X0119032Y0044482D01*
X0116260Y0045225D01*
X0113390Y0045225D01*
X0116721Y0045101D02*
X0296863Y0045101D01*
X0295364Y0043903D02*
X0120036Y0043903D01*
X0121861Y0042704D02*
X0293666Y0042704D01*
X0291968Y0041506D02*
X0123059Y0041506D01*
X0123957Y0040307D02*
X0290270Y0040307D01*
X0288573Y0039109D02*
X0124649Y0039109D01*
X0125149Y0037910D02*
X0286875Y0037910D01*
X0285177Y0036711D02*
X0125470Y0036711D01*
X0125725Y0035513D02*
X0283479Y0035513D01*
X0281607Y0034314D02*
X0125725Y0034314D01*
X0125725Y0033116D02*
X0279531Y0033116D01*
X0277455Y0031917D02*
X0125464Y0031917D01*
X0125143Y0030719D02*
X0240395Y0030719D01*
X0240448Y0030757D02*
X0239773Y0030267D01*
X0239183Y0029677D01*
X0238692Y0029002D01*
X0238314Y0028259D01*
X0238056Y0027466D01*
X0237925Y0026642D01*
X0237925Y0026510D01*
X0242939Y0026510D01*
X0242939Y0025939D01*
X0237925Y0025939D01*
X0237925Y0025807D01*
X0238056Y0024983D01*
X0238314Y0024190D01*
X0238692Y0023447D01*
X0239183Y0022772D01*
X0239773Y0022182D01*
X0240448Y0021692D01*
X0241191Y0021313D01*
X0241984Y0021055D01*
X0242808Y0020924D01*
X0242940Y0020924D01*
X0242940Y0025939D01*
X0243511Y0025939D01*
X0243511Y0026510D01*
X0248525Y0026510D01*
X0248525Y0026642D01*
X0248395Y0027466D01*
X0248137Y0028259D01*
X0247758Y0029002D01*
X0247268Y0029677D01*
X0246678Y0030267D01*
X0246003Y0030757D01*
X0245260Y0031136D01*
X0244466Y0031394D01*
X0243643Y0031524D01*
X0243511Y0031524D01*
X0243511Y0026510D01*
X0242940Y0026510D01*
X0242940Y0031524D01*
X0242808Y0031524D01*
X0241984Y0031394D01*
X0241191Y0031136D01*
X0240448Y0030757D01*
X0239069Y0029520D02*
X0124637Y0029520D01*
X0123945Y0028322D02*
X0238346Y0028322D01*
X0238002Y0027123D02*
X0123037Y0027123D01*
X0121839Y0025925D02*
X0237925Y0025925D01*
X0238139Y0024726D02*
X0119998Y0024726D01*
X0116640Y0023528D02*
X0238651Y0023528D01*
X0239625Y0022329D02*
X0112684Y0022329D01*
X0113011Y0023528D02*
X0109960Y0023528D01*
X0109653Y0024726D02*
X0107647Y0024726D01*
X0107812Y0025925D02*
X0105334Y0025925D01*
X0106614Y0027123D02*
X0103021Y0027123D01*
X0100708Y0028322D02*
X0105706Y0028322D01*
X0105014Y0029520D02*
X0098395Y0029520D01*
X0096116Y0030719D02*
X0104508Y0030719D01*
X0104187Y0031917D02*
X0094243Y0031917D01*
X0092369Y0033116D02*
X0103926Y0033116D01*
X0103926Y0034314D02*
X0090496Y0034314D01*
X0088622Y0035513D02*
X0103926Y0035513D01*
X0104181Y0036711D02*
X0086749Y0036711D01*
X0084875Y0037910D02*
X0104502Y0037910D01*
X0105002Y0039109D02*
X0083002Y0039109D01*
X0081372Y0040307D02*
X0105694Y0040307D01*
X0106592Y0041506D02*
X0079828Y0041506D01*
X0078285Y0042704D02*
X0107790Y0042704D01*
X0109615Y0043903D02*
X0076741Y0043903D01*
X0057593Y0060682D02*
X0240641Y0060682D01*
X0241031Y0062727D02*
X0242908Y0061949D01*
X0244940Y0061949D01*
X0246817Y0062727D01*
X0248254Y0064163D01*
X0249031Y0066040D01*
X0249031Y0068072D01*
X0248254Y0069949D01*
X0246817Y0071386D01*
X0244940Y0072163D01*
X0242908Y0072163D01*
X0241194Y0071453D01*
X0218576Y0094072D01*
X0217832Y0094815D01*
X0217832Y0257315D01*
X0216715Y0258432D01*
X0213287Y0258432D01*
X0212777Y0259665D01*
X0211565Y0260877D01*
X0209982Y0261532D01*
X0208269Y0261532D01*
X0206686Y0260877D01*
X0205474Y0259665D01*
X0204818Y0258082D01*
X0204818Y0256369D01*
X0205474Y0254786D01*
X0206686Y0253574D01*
X0208269Y0252918D01*
X0209982Y0252918D01*
X0211565Y0253574D01*
X0212609Y0254618D01*
X0214018Y0254618D01*
X0214018Y0093235D01*
X0215879Y0091375D01*
X0238924Y0068330D01*
X0238817Y0068072D01*
X0238817Y0066040D01*
X0239595Y0064163D01*
X0241031Y0062727D01*
X0240679Y0063079D02*
X0055454Y0063079D01*
X0054385Y0064277D02*
X0239547Y0064277D01*
X0239051Y0065476D02*
X0053315Y0065476D01*
X0052246Y0066674D02*
X0238817Y0066674D01*
X0238817Y0067873D02*
X0051177Y0067873D01*
X0050108Y0069071D02*
X0238182Y0069071D01*
X0236984Y0070270D02*
X0049038Y0070270D01*
X0047969Y0071468D02*
X0235785Y0071468D01*
X0234587Y0072667D02*
X0046900Y0072667D01*
X0045999Y0073865D02*
X0233388Y0073865D01*
X0232190Y0075064D02*
X0129871Y0075064D01*
X0130677Y0075398D02*
X0128800Y0074620D01*
X0126769Y0074620D01*
X0124892Y0075398D01*
X0123455Y0076835D01*
X0122677Y0078712D01*
X0122677Y0080743D01*
X0123455Y0082621D01*
X0124892Y0084057D01*
X0126769Y0084835D01*
X0128800Y0084835D01*
X0130677Y0084057D01*
X0132114Y0082621D01*
X0132892Y0080743D01*
X0132892Y0078712D01*
X0132114Y0076835D01*
X0130677Y0075398D01*
X0131542Y0076262D02*
X0230991Y0076262D01*
X0229793Y0077461D02*
X0132373Y0077461D01*
X0132870Y0078659D02*
X0228594Y0078659D01*
X0227396Y0079858D02*
X0132892Y0079858D01*
X0132762Y0081056D02*
X0226197Y0081056D01*
X0224999Y0082255D02*
X0132265Y0082255D01*
X0131281Y0083453D02*
X0223800Y0083453D01*
X0222602Y0084652D02*
X0129241Y0084652D01*
X0126327Y0084652D02*
X0103651Y0084652D01*
X0103210Y0084835D02*
X0101178Y0084835D01*
X0099301Y0084057D01*
X0097864Y0082621D01*
X0097087Y0080743D01*
X0097087Y0078712D01*
X0097864Y0076835D01*
X0099301Y0075398D01*
X0101178Y0074620D01*
X0103210Y0074620D01*
X0105087Y0075398D01*
X0106523Y0076835D01*
X0107301Y0078712D01*
X0107301Y0080743D01*
X0106523Y0082621D01*
X0105087Y0084057D01*
X0103210Y0084835D01*
X0100737Y0084652D02*
X0038011Y0084652D01*
X0038898Y0083453D02*
X0098697Y0083453D01*
X0097713Y0082255D02*
X0039786Y0082255D01*
X0040673Y0081056D02*
X0097216Y0081056D01*
X0097087Y0079858D02*
X0041561Y0079858D01*
X0042448Y0078659D02*
X0097109Y0078659D01*
X0097605Y0077461D02*
X0043336Y0077461D01*
X0044224Y0076262D02*
X0098437Y0076262D01*
X0100108Y0075064D02*
X0045111Y0075064D01*
X0037123Y0085850D02*
X0221403Y0085850D01*
X0220205Y0087049D02*
X0036391Y0087049D01*
X0035662Y0088247D02*
X0219006Y0088247D01*
X0217808Y0089446D02*
X0034934Y0089446D01*
X0034205Y0090644D02*
X0046578Y0090644D01*
X0046826Y0090518D02*
X0047620Y0090260D01*
X0048444Y0090129D01*
X0048575Y0090129D01*
X0048575Y0095144D01*
X0043561Y0095144D01*
X0043561Y0095012D01*
X0043691Y0094188D01*
X0043949Y0093395D01*
X0044328Y0092652D01*
X0044818Y0091977D01*
X0045408Y0091387D01*
X0046083Y0090897D01*
X0046826Y0090518D01*
X0048575Y0090644D02*
X0049147Y0090644D01*
X0049147Y0090129D02*
X0049278Y0090129D01*
X0050102Y0090260D01*
X0050895Y0090518D01*
X0051639Y0090897D01*
X0052313Y0091387D01*
X0052903Y0091977D01*
X0053394Y0092652D01*
X0053772Y0093395D01*
X0054030Y0094188D01*
X0054161Y0095012D01*
X0054161Y0095144D01*
X0049147Y0095144D01*
X0049147Y0095715D01*
X0054161Y0095715D01*
X0054161Y0095847D01*
X0054030Y0096671D01*
X0053772Y0097464D01*
X0053394Y0098207D01*
X0052903Y0098882D01*
X0052313Y0099472D01*
X0051639Y0099962D01*
X0050895Y0100341D01*
X0050102Y0100599D01*
X0049278Y0100729D01*
X0049147Y0100729D01*
X0049147Y0095715D01*
X0048575Y0095715D01*
X0048575Y0095144D01*
X0049147Y0095144D01*
X0049147Y0090129D01*
X0049147Y0091843D02*
X0048575Y0091843D01*
X0048575Y0093042D02*
X0049147Y0093042D01*
X0049147Y0094240D02*
X0048575Y0094240D01*
X0048575Y0095439D02*
X0031289Y0095439D01*
X0030561Y0096637D02*
X0043686Y0096637D01*
X0043691Y0096671D02*
X0043561Y0095847D01*
X0043561Y0095715D01*
X0048575Y0095715D01*
X0048575Y0100729D01*
X0048444Y0100729D01*
X0047620Y0100599D01*
X0046826Y0100341D01*
X0046083Y0099962D01*
X0045408Y0099472D01*
X0044818Y0098882D01*
X0044328Y0098207D01*
X0043949Y0097464D01*
X0043691Y0096671D01*
X0044138Y0097836D02*
X0029832Y0097836D01*
X0029103Y0099034D02*
X0044970Y0099034D01*
X0046613Y0100233D02*
X0028423Y0100233D01*
X0027836Y0101431D02*
X0214018Y0101431D01*
X0214018Y0100233D02*
X0080610Y0100233D01*
X0079877Y0100537D02*
X0081754Y0099759D01*
X0083190Y0098322D01*
X0083968Y0096445D01*
X0083968Y0094414D01*
X0083190Y0092537D01*
X0081754Y0091100D01*
X0079877Y0090322D01*
X0077845Y0090322D01*
X0075968Y0091100D01*
X0074531Y0092537D01*
X0073754Y0094414D01*
X0073754Y0096445D01*
X0074531Y0098322D01*
X0075968Y0099759D01*
X0077845Y0100537D01*
X0079877Y0100537D01*
X0077111Y0100233D02*
X0051108Y0100233D01*
X0049147Y0100233D02*
X0048575Y0100233D01*
X0048575Y0099034D02*
X0049147Y0099034D01*
X0049147Y0097836D02*
X0048575Y0097836D01*
X0048575Y0096637D02*
X0049147Y0096637D01*
X0049147Y0095439D02*
X0073754Y0095439D01*
X0073833Y0096637D02*
X0054036Y0096637D01*
X0053583Y0097836D02*
X0074329Y0097836D01*
X0075243Y0099034D02*
X0052751Y0099034D01*
X0054038Y0094240D02*
X0073826Y0094240D01*
X0074322Y0093042D02*
X0053592Y0093042D01*
X0052770Y0091843D02*
X0075225Y0091843D01*
X0077067Y0090644D02*
X0051144Y0090644D01*
X0044952Y0091843D02*
X0033476Y0091843D01*
X0032747Y0093042D02*
X0044129Y0093042D01*
X0043683Y0094240D02*
X0032018Y0094240D01*
X0027249Y0102630D02*
X0214018Y0102630D01*
X0214018Y0103828D02*
X0026662Y0103828D01*
X0026076Y0105027D02*
X0214018Y0105027D01*
X0214018Y0106225D02*
X0081740Y0106225D01*
X0081005Y0105921D02*
X0082882Y0106698D01*
X0084319Y0108135D01*
X0085096Y0110012D01*
X0085096Y0112044D01*
X0084319Y0113921D01*
X0082882Y0115358D01*
X0081005Y0116135D01*
X0078973Y0116135D01*
X0077096Y0115358D01*
X0075660Y0113921D01*
X0074882Y0112044D01*
X0074882Y0110012D01*
X0075660Y0108135D01*
X0077096Y0106698D01*
X0078973Y0105921D01*
X0081005Y0105921D01*
X0078239Y0106225D02*
X0051740Y0106225D01*
X0051005Y0105921D02*
X0052882Y0106698D01*
X0054319Y0108135D01*
X0055096Y0110012D01*
X0055096Y0112044D01*
X0054319Y0113921D01*
X0052882Y0115358D01*
X0051005Y0116135D01*
X0048973Y0116135D01*
X0047096Y0115358D01*
X0045660Y0113921D01*
X0044882Y0112044D01*
X0044882Y0110012D01*
X0045660Y0108135D01*
X0047096Y0106698D01*
X0048973Y0105921D01*
X0051005Y0105921D01*
X0048239Y0106225D02*
X0025489Y0106225D01*
X0024902Y0107424D02*
X0046371Y0107424D01*
X0045458Y0108622D02*
X0024315Y0108622D01*
X0023728Y0109821D02*
X0044961Y0109821D01*
X0044882Y0111019D02*
X0023142Y0111019D01*
X0022555Y0112218D02*
X0044954Y0112218D01*
X0045451Y0113416D02*
X0021968Y0113416D01*
X0021395Y0114615D02*
X0046353Y0114615D01*
X0048196Y0115813D02*
X0020939Y0115813D01*
X0020482Y0117012D02*
X0131599Y0117012D01*
X0131503Y0116780D02*
X0131503Y0115196D01*
X0132109Y0113733D01*
X0133229Y0112613D01*
X0134693Y0112006D01*
X0136277Y0112006D01*
X0137740Y0112613D01*
X0138861Y0113733D01*
X0139467Y0115196D01*
X0139467Y0116780D01*
X0138861Y0118244D01*
X0137740Y0119364D01*
X0136385Y0119925D01*
X0137740Y0120487D01*
X0138861Y0121607D01*
X0139467Y0123070D01*
X0139467Y0124654D01*
X0138861Y0126118D01*
X0137740Y0127238D01*
X0136385Y0127799D01*
X0137740Y0128361D01*
X0138861Y0129481D01*
X0139467Y0130944D01*
X0139467Y0132528D01*
X0138861Y0133992D01*
X0137740Y0135112D01*
X0136385Y0135673D01*
X0137740Y0136235D01*
X0138861Y0137355D01*
X0139467Y0138818D01*
X0139467Y0140402D01*
X0138861Y0141866D01*
X0137740Y0142986D01*
X0136385Y0143547D01*
X0137740Y0144109D01*
X0138861Y0145229D01*
X0139467Y0146692D01*
X0139467Y0148276D01*
X0138861Y0149740D01*
X0137740Y0150860D01*
X0136385Y0151421D01*
X0137740Y0151983D01*
X0138861Y0153103D01*
X0139467Y0154566D01*
X0139467Y0156150D01*
X0138861Y0157614D01*
X0137740Y0158734D01*
X0136385Y0159295D01*
X0137740Y0159857D01*
X0138861Y0160977D01*
X0139467Y0162440D01*
X0139467Y0164024D01*
X0138861Y0165488D01*
X0137740Y0166608D01*
X0136385Y0167169D01*
X0137740Y0167731D01*
X0138861Y0168851D01*
X0139467Y0170314D01*
X0139467Y0171898D01*
X0138861Y0173362D01*
X0137740Y0174482D01*
X0136385Y0175043D01*
X0137740Y0175605D01*
X0138861Y0176725D01*
X0139467Y0178188D01*
X0139467Y0179772D01*
X0138861Y0181236D01*
X0137740Y0182356D01*
X0136385Y0182917D01*
X0137740Y0183479D01*
X0138861Y0184599D01*
X0139467Y0186062D01*
X0139467Y0187646D01*
X0138861Y0189110D01*
X0137740Y0190230D01*
X0136277Y0190836D01*
X0134693Y0190836D01*
X0133229Y0190230D01*
X0132109Y0189110D01*
X0131503Y0187646D01*
X0131503Y0186062D01*
X0132109Y0184599D01*
X0133229Y0183479D01*
X0134585Y0182917D01*
X0133229Y0182356D01*
X0132109Y0181236D01*
X0131503Y0179772D01*
X0131503Y0178188D01*
X0132109Y0176725D01*
X0133229Y0175605D01*
X0134585Y0175043D01*
X0133229Y0174482D01*
X0132109Y0173362D01*
X0131503Y0171898D01*
X0131503Y0170314D01*
X0132109Y0168851D01*
X0133229Y0167731D01*
X0134585Y0167169D01*
X0133229Y0166608D01*
X0132109Y0165488D01*
X0131503Y0164024D01*
X0131503Y0162440D01*
X0132109Y0160977D01*
X0133229Y0159857D01*
X0134585Y0159295D01*
X0133229Y0158734D01*
X0132109Y0157614D01*
X0131503Y0156150D01*
X0131503Y0154566D01*
X0132109Y0153103D01*
X0133229Y0151983D01*
X0134585Y0151421D01*
X0133229Y0150860D01*
X0132109Y0149740D01*
X0131503Y0148276D01*
X0131503Y0146692D01*
X0132109Y0145229D01*
X0133229Y0144109D01*
X0134585Y0143547D01*
X0133229Y0142986D01*
X0132109Y0141866D01*
X0131503Y0140402D01*
X0131503Y0138818D01*
X0132109Y0137355D01*
X0133229Y0136235D01*
X0134585Y0135673D01*
X0133229Y0135112D01*
X0132109Y0133992D01*
X0131503Y0132528D01*
X0131503Y0130944D01*
X0132109Y0129481D01*
X0133229Y0128361D01*
X0134585Y0127799D01*
X0133229Y0127238D01*
X0132109Y0126118D01*
X0131503Y0124654D01*
X0131503Y0123070D01*
X0132109Y0121607D01*
X0133229Y0120487D01*
X0134585Y0119925D01*
X0133229Y0119364D01*
X0132109Y0118244D01*
X0131503Y0116780D01*
X0131503Y0115813D02*
X0081782Y0115813D01*
X0083625Y0114615D02*
X0131744Y0114615D01*
X0132426Y0113416D02*
X0084528Y0113416D01*
X0085024Y0112218D02*
X0134183Y0112218D01*
X0136787Y0112218D02*
X0214018Y0112218D01*
X0214018Y0113416D02*
X0138544Y0113416D01*
X0139226Y0114615D02*
X0214018Y0114615D01*
X0214018Y0115813D02*
X0139467Y0115813D01*
X0139371Y0117012D02*
X0214018Y0117012D01*
X0214018Y0118210D02*
X0138874Y0118210D01*
X0137632Y0119409D02*
X0214018Y0119409D01*
X0214018Y0120607D02*
X0137861Y0120607D01*
X0138943Y0121806D02*
X0214018Y0121806D01*
X0214018Y0123004D02*
X0139439Y0123004D01*
X0139467Y0124203D02*
X0214018Y0124203D01*
X0214018Y0125401D02*
X0139157Y0125401D01*
X0138379Y0126600D02*
X0214018Y0126600D01*
X0214018Y0127798D02*
X0136387Y0127798D01*
X0134582Y0127798D02*
X0016369Y0127798D01*
X0016826Y0126600D02*
X0132591Y0126600D01*
X0131812Y0125401D02*
X0017283Y0125401D01*
X0017740Y0124203D02*
X0131503Y0124203D01*
X0131530Y0123004D02*
X0018197Y0123004D01*
X0018654Y0121806D02*
X0132027Y0121806D01*
X0133109Y0120607D02*
X0019111Y0120607D01*
X0019568Y0119409D02*
X0133338Y0119409D01*
X0132095Y0118210D02*
X0020025Y0118210D01*
X0015912Y0128997D02*
X0132593Y0128997D01*
X0131813Y0130195D02*
X0015502Y0130195D01*
X0015166Y0131394D02*
X0117769Y0131394D01*
X0116643Y0132592D02*
X0014830Y0132592D01*
X0014494Y0133791D02*
X0116147Y0133791D01*
X0115918Y0134989D02*
X0014159Y0134989D01*
X0013823Y0136188D02*
X0115918Y0136188D01*
X0116336Y0137386D02*
X0013487Y0137386D01*
X0013151Y0138585D02*
X0117027Y0138585D01*
X0118358Y0139783D02*
X0012815Y0139783D01*
X0012480Y0140982D02*
X0118250Y0140982D01*
X0116982Y0142180D02*
X0012144Y0142180D01*
X0011808Y0143379D02*
X0116318Y0143379D01*
X0115918Y0144577D02*
X0011472Y0144577D01*
X0011167Y0145776D02*
X0115918Y0145776D01*
X0116166Y0146975D02*
X0010947Y0146975D01*
X0010726Y0148173D02*
X0116662Y0148173D01*
X0117813Y0149372D02*
X0010505Y0149372D01*
X0010284Y0150570D02*
X0119244Y0150570D01*
X0117394Y0151769D02*
X0010064Y0151769D01*
X0009843Y0152967D02*
X0116488Y0152967D01*
X0115992Y0154166D02*
X0009622Y0154166D01*
X0009402Y0155364D02*
X0115918Y0155364D01*
X0115995Y0156563D02*
X0009181Y0156563D01*
X0008960Y0157761D02*
X0116491Y0157761D01*
X0117402Y0158960D02*
X0008739Y0158960D01*
X0008519Y0160158D02*
X0119262Y0160158D01*
X0117806Y0161357D02*
X0008298Y0161357D01*
X0008175Y0162555D02*
X0116659Y0162555D01*
X0116162Y0163754D02*
X0008065Y0163754D01*
X0007956Y0164952D02*
X0115918Y0164952D01*
X0115918Y0166151D02*
X0007846Y0166151D01*
X0007737Y0167349D02*
X0116321Y0167349D01*
X0116990Y0168548D02*
X0007627Y0168548D01*
X0007518Y0169746D02*
X0118268Y0169746D01*
X0118340Y0170945D02*
X0007408Y0170945D01*
X0007299Y0172143D02*
X0117019Y0172143D01*
X0116333Y0173342D02*
X0007190Y0173342D01*
X0007080Y0174540D02*
X0115918Y0174540D01*
X0115918Y0175739D02*
X0006971Y0175739D01*
X0006861Y0176937D02*
X0116150Y0176937D01*
X0116647Y0178136D02*
X0006786Y0178136D01*
X0006786Y0179334D02*
X0117776Y0179334D01*
X0119334Y0180533D02*
X0006786Y0180533D01*
X0006786Y0181731D02*
X0117431Y0181731D01*
X0116504Y0182930D02*
X0006786Y0182930D01*
X0006786Y0184128D02*
X0116007Y0184128D01*
X0115918Y0185327D02*
X0006786Y0185327D01*
X0006786Y0186525D02*
X0115728Y0186525D01*
X0114530Y0187724D02*
X0006786Y0187724D01*
X0006786Y0188922D02*
X0113331Y0188922D01*
X0112133Y0190121D02*
X0006786Y0190121D01*
X0006786Y0191319D02*
X0111518Y0191319D01*
X0111518Y0192518D02*
X0006786Y0192518D01*
X0006786Y0193716D02*
X0111518Y0193716D01*
X0111518Y0194915D02*
X0006861Y0194915D01*
X0006971Y0196113D02*
X0111518Y0196113D01*
X0111518Y0197312D02*
X0007080Y0197312D01*
X0007190Y0198511D02*
X0111518Y0198511D01*
X0111518Y0199709D02*
X0007299Y0199709D01*
X0007409Y0200908D02*
X0111518Y0200908D01*
X0111518Y0202106D02*
X0007518Y0202106D01*
X0007627Y0203305D02*
X0111518Y0203305D01*
X0111518Y0204503D02*
X0007737Y0204503D01*
X0007846Y0205702D02*
X0111518Y0205702D01*
X0111518Y0206900D02*
X0007956Y0206900D01*
X0008065Y0208099D02*
X0111518Y0208099D01*
X0111518Y0209297D02*
X0008175Y0209297D01*
X0008298Y0210496D02*
X0109833Y0210496D01*
X0108634Y0211694D02*
X0008519Y0211694D01*
X0008740Y0212893D02*
X0108151Y0212893D01*
X0108151Y0214091D02*
X0008960Y0214091D01*
X0009181Y0215290D02*
X0108151Y0215290D01*
X0108562Y0216488D02*
X0009402Y0216488D01*
X0009623Y0217687D02*
X0109018Y0217687D01*
X0109018Y0218885D02*
X0009843Y0218885D01*
X0010064Y0220084D02*
X0109018Y0220084D01*
X0109018Y0221282D02*
X0010285Y0221282D01*
X0010505Y0222481D02*
X0109184Y0222481D01*
X0110382Y0223679D02*
X0010726Y0223679D01*
X0010947Y0224878D02*
X0111581Y0224878D01*
X0112779Y0226076D02*
X0011168Y0226076D01*
X0011473Y0227275D02*
X0113978Y0227275D01*
X0115176Y0228473D02*
X0011808Y0228473D01*
X0012144Y0229672D02*
X0116375Y0229672D01*
X0117573Y0230870D02*
X0012480Y0230870D01*
X0012816Y0232069D02*
X0118772Y0232069D01*
X0119970Y0233267D02*
X0013152Y0233267D01*
X0013487Y0234466D02*
X0121169Y0234466D01*
X0122367Y0235664D02*
X0013823Y0235664D01*
X0014159Y0236863D02*
X0123566Y0236863D01*
X0124018Y0238061D02*
X0014495Y0238061D01*
X0014831Y0239260D02*
X0124018Y0239260D01*
X0124018Y0240458D02*
X0015166Y0240458D01*
X0015502Y0241657D02*
X0124018Y0241657D01*
X0124018Y0242855D02*
X0015913Y0242855D01*
X0016370Y0244054D02*
X0124018Y0244054D01*
X0124018Y0245252D02*
X0016827Y0245252D01*
X0017284Y0246451D02*
X0030778Y0246451D01*
X0027867Y0247649D02*
X0017741Y0247649D01*
X0018197Y0248848D02*
X0026189Y0248848D01*
X0024990Y0250046D02*
X0018654Y0250046D01*
X0019111Y0251245D02*
X0024177Y0251245D01*
X0023485Y0252444D02*
X0019568Y0252444D01*
X0020025Y0253642D02*
X0023048Y0253642D01*
X0022727Y0254841D02*
X0020482Y0254841D01*
X0020939Y0256039D02*
X0022526Y0256039D01*
X0022526Y0257238D02*
X0021396Y0257238D01*
X0021969Y0258436D02*
X0022526Y0258436D01*
X0022555Y0259635D02*
X0022841Y0259635D01*
X0023142Y0260833D02*
X0023162Y0260833D01*
X0023729Y0262032D02*
X0023730Y0262032D01*
X0024316Y0263230D02*
X0024422Y0263230D01*
X0024903Y0264429D02*
X0025415Y0264429D01*
X0025489Y0265627D02*
X0026613Y0265627D01*
X0026076Y0266826D02*
X0028602Y0266826D01*
X0026663Y0268024D02*
X0124018Y0268024D01*
X0124018Y0266826D02*
X0038249Y0266826D01*
X0040237Y0265627D02*
X0124018Y0265627D01*
X0124018Y0264429D02*
X0041436Y0264429D01*
X0042428Y0263230D02*
X0124018Y0263230D01*
X0124018Y0262032D02*
X0043120Y0262032D01*
X0043689Y0260833D02*
X0124018Y0260833D01*
X0124018Y0259635D02*
X0044010Y0259635D01*
X0044325Y0258436D02*
X0124018Y0258436D01*
X0124018Y0257238D02*
X0044325Y0257238D01*
X0044325Y0256039D02*
X0124018Y0256039D01*
X0124018Y0254841D02*
X0044124Y0254841D01*
X0043802Y0253642D02*
X0124018Y0253642D01*
X0124018Y0252444D02*
X0043365Y0252444D01*
X0042673Y0251245D02*
X0124018Y0251245D01*
X0124018Y0250046D02*
X0041860Y0250046D01*
X0040662Y0248848D02*
X0124018Y0248848D01*
X0124018Y0247649D02*
X0038984Y0247649D01*
X0036072Y0246451D02*
X0124018Y0246451D01*
X0127832Y0246451D02*
X0129718Y0246451D01*
X0129756Y0245252D02*
X0127832Y0245252D01*
X0127832Y0244054D02*
X0130253Y0244054D01*
X0129558Y0242855D02*
X0127832Y0242855D01*
X0127832Y0241657D02*
X0128360Y0241657D01*
X0131357Y0239260D02*
X0145306Y0239260D01*
X0145474Y0239665D02*
X0144818Y0238082D01*
X0144818Y0236369D01*
X0145474Y0234786D01*
X0146686Y0233574D01*
X0148269Y0232918D01*
X0149982Y0232918D01*
X0151565Y0233574D01*
X0152777Y0234786D01*
X0153432Y0236369D01*
X0153432Y0238082D01*
X0152777Y0239665D01*
X0151565Y0240877D01*
X0149982Y0241532D01*
X0148269Y0241532D01*
X0146686Y0240877D01*
X0145474Y0239665D01*
X0146267Y0240458D02*
X0132555Y0240458D01*
X0130158Y0238061D02*
X0144818Y0238061D01*
X0144818Y0236863D02*
X0128960Y0236863D01*
X0127761Y0235664D02*
X0145110Y0235664D01*
X0145794Y0234466D02*
X0126563Y0234466D01*
X0126715Y0234618D02*
X0126715Y0234618D01*
X0125364Y0233267D02*
X0147426Y0233267D01*
X0148269Y0231532D02*
X0146686Y0230877D01*
X0145474Y0229665D01*
X0144818Y0228082D01*
X0144818Y0226369D01*
X0145474Y0224786D01*
X0146686Y0223574D01*
X0148269Y0222918D01*
X0149982Y0222918D01*
X0151565Y0223574D01*
X0152777Y0224786D01*
X0153432Y0226369D01*
X0153432Y0228082D01*
X0152777Y0229665D01*
X0151565Y0230877D01*
X0149982Y0231532D01*
X0148269Y0231532D01*
X0146679Y0230870D02*
X0122967Y0230870D01*
X0121769Y0229672D02*
X0145481Y0229672D01*
X0144980Y0228473D02*
X0120570Y0228473D01*
X0119372Y0227275D02*
X0144818Y0227275D01*
X0144939Y0226076D02*
X0120066Y0226076D01*
X0121264Y0224878D02*
X0145436Y0224878D01*
X0146580Y0223679D02*
X0122463Y0223679D01*
X0122565Y0222481D02*
X0161518Y0222481D01*
X0161518Y0223555D02*
X0159982Y0222918D01*
X0158269Y0222918D01*
X0156686Y0223574D01*
X0155474Y0224786D01*
X0154818Y0226369D01*
X0154818Y0228082D01*
X0155474Y0229665D01*
X0156686Y0230877D01*
X0158269Y0231532D01*
X0159982Y0231532D01*
X0161518Y0230896D01*
X0161518Y0320735D01*
X0152910Y0329344D01*
X0153432Y0328082D01*
X0153432Y0326369D01*
X0152777Y0324786D01*
X0151565Y0323574D01*
X0149982Y0322918D01*
X0148269Y0322918D01*
X0146686Y0323574D01*
X0145474Y0324786D01*
X0144818Y0326369D01*
X0144818Y0328082D01*
X0145474Y0329665D01*
X0146686Y0330877D01*
X0148269Y0331532D01*
X0149982Y0331532D01*
X0151244Y0331010D01*
X0150135Y0332118D01*
X0149335Y0332918D01*
X0148269Y0332918D01*
X0146686Y0333574D01*
X0145474Y0334786D01*
X0144818Y0336369D01*
X0144818Y0338082D01*
X0145474Y0339665D01*
X0146686Y0340877D01*
X0148269Y0341532D01*
X0149982Y0341532D01*
X0151565Y0340877D01*
X0152777Y0339665D01*
X0153432Y0338082D01*
X0153432Y0336369D01*
X0152832Y0334920D01*
X0152832Y0334815D01*
X0165332Y0322315D01*
X0165332Y0229323D01*
X0165474Y0229665D01*
X0166686Y0230877D01*
X0168269Y0231532D01*
X0169982Y0231532D01*
X0170515Y0231312D01*
X0189018Y0249815D01*
X0189018Y0329815D01*
X0198335Y0339132D01*
X0205253Y0339132D01*
X0205474Y0339665D01*
X0206686Y0340877D01*
X0208269Y0341532D01*
X0209982Y0341532D01*
X0211565Y0340877D01*
X0212777Y0339665D01*
X0213432Y0338082D01*
X0213432Y0336369D01*
X0212777Y0334786D01*
X0211565Y0333574D01*
X0209982Y0332918D01*
X0208269Y0332918D01*
X0206686Y0333574D01*
X0205474Y0334786D01*
X0205253Y0335318D01*
X0199915Y0335318D01*
X0192832Y0328235D01*
X0192832Y0257962D01*
X0193037Y0258455D01*
X0193995Y0259414D01*
X0195248Y0259932D01*
X0196603Y0259932D01*
X0197855Y0259414D01*
X0198814Y0258455D01*
X0199332Y0257203D01*
X0199332Y0255848D01*
X0198814Y0254595D01*
X0197855Y0253637D01*
X0197832Y0253628D01*
X0197832Y0242315D01*
X0208615Y0231532D01*
X0209982Y0231532D01*
X0211565Y0230877D01*
X0212777Y0229665D01*
X0213432Y0228082D01*
X0213432Y0226369D01*
X0212777Y0224786D01*
X0211565Y0223574D01*
X0209982Y0222918D01*
X0208269Y0222918D01*
X0206686Y0223574D01*
X0205474Y0224786D01*
X0204818Y0226369D01*
X0204818Y0228082D01*
X0205361Y0229393D01*
X0195135Y0239618D01*
X0195135Y0239618D01*
X0194018Y0240735D01*
X0194018Y0253628D01*
X0193995Y0253637D01*
X0193037Y0254595D01*
X0192832Y0255089D01*
X0192832Y0248235D01*
X0191715Y0247118D01*
X0173212Y0228615D01*
X0173432Y0228082D01*
X0173432Y0226369D01*
X0172777Y0224786D01*
X0171565Y0223574D01*
X0169982Y0222918D01*
X0168269Y0222918D01*
X0166686Y0223574D01*
X0165474Y0224786D01*
X0165332Y0225127D01*
X0165332Y0195735D01*
X0164323Y0194726D01*
X0164332Y0194703D01*
X0164332Y0193348D01*
X0163814Y0192095D01*
X0162855Y0191137D01*
X0161603Y0190618D01*
X0160248Y0190618D01*
X0158995Y0191137D01*
X0158037Y0192095D01*
X0157518Y0193348D01*
X0157518Y0194703D01*
X0158037Y0195955D01*
X0158995Y0196914D01*
X0160248Y0197432D01*
X0161518Y0197432D01*
X0161518Y0223555D01*
X0161518Y0221282D02*
X0122565Y0221282D01*
X0122565Y0220084D02*
X0161518Y0220084D01*
X0161518Y0218885D02*
X0125030Y0218885D01*
X0124888Y0219027D02*
X0123058Y0219027D01*
X0123058Y0214327D01*
X0127758Y0214327D01*
X0127758Y0216157D01*
X0124888Y0219027D01*
X0123058Y0218885D02*
X0122658Y0218885D01*
X0122658Y0217687D02*
X0123058Y0217687D01*
X0123058Y0216488D02*
X0122658Y0216488D01*
X0122658Y0215290D02*
X0123058Y0215290D01*
X0123058Y0214091D02*
X0161518Y0214091D01*
X0161518Y0212893D02*
X0127758Y0212893D01*
X0127355Y0211694D02*
X0161518Y0211694D01*
X0161518Y0210496D02*
X0126156Y0210496D01*
X0124958Y0209297D02*
X0161518Y0209297D01*
X0161518Y0208099D02*
X0115332Y0208099D01*
X0115332Y0209297D02*
X0120758Y0209297D01*
X0119560Y0210496D02*
X0115883Y0210496D01*
X0117082Y0211694D02*
X0118361Y0211694D01*
X0117958Y0212893D02*
X0117565Y0212893D01*
X0117565Y0214091D02*
X0122658Y0214091D01*
X0122658Y0212893D02*
X0123058Y0212893D01*
X0123058Y0211694D02*
X0122658Y0211694D01*
X0122658Y0210496D02*
X0123058Y0210496D01*
X0123058Y0209297D02*
X0122658Y0209297D01*
X0117958Y0215290D02*
X0117565Y0215290D01*
X0117154Y0216488D02*
X0118290Y0216488D01*
X0126228Y0217687D02*
X0161518Y0217687D01*
X0161518Y0216488D02*
X0127427Y0216488D01*
X0127758Y0215290D02*
X0161518Y0215290D01*
X0165332Y0215290D02*
X0214018Y0215290D01*
X0214018Y0216488D02*
X0165332Y0216488D01*
X0165332Y0217687D02*
X0214018Y0217687D01*
X0214018Y0218885D02*
X0165332Y0218885D01*
X0165332Y0220084D02*
X0214018Y0220084D01*
X0214018Y0221282D02*
X0165332Y0221282D01*
X0165332Y0222481D02*
X0214018Y0222481D01*
X0214018Y0223679D02*
X0211670Y0223679D01*
X0212815Y0224878D02*
X0214018Y0224878D01*
X0214018Y0226076D02*
X0213311Y0226076D01*
X0213432Y0227275D02*
X0214018Y0227275D01*
X0214018Y0228473D02*
X0213270Y0228473D01*
X0212770Y0229672D02*
X0214018Y0229672D01*
X0214018Y0230870D02*
X0211572Y0230870D01*
X0210825Y0233267D02*
X0214018Y0233267D01*
X0214018Y0232069D02*
X0208079Y0232069D01*
X0208269Y0232918D02*
X0206686Y0233574D01*
X0205474Y0234786D01*
X0204818Y0236369D01*
X0204818Y0238082D01*
X0205474Y0239665D01*
X0206686Y0240877D01*
X0208269Y0241532D01*
X0209982Y0241532D01*
X0211565Y0240877D01*
X0212777Y0239665D01*
X0213432Y0238082D01*
X0213432Y0236369D01*
X0212777Y0234786D01*
X0211565Y0233574D01*
X0209982Y0232918D01*
X0208269Y0232918D01*
X0207426Y0233267D02*
X0206880Y0233267D01*
X0205794Y0234466D02*
X0205682Y0234466D01*
X0205110Y0235664D02*
X0204483Y0235664D01*
X0204818Y0236863D02*
X0203285Y0236863D01*
X0202086Y0238061D02*
X0204818Y0238061D01*
X0205306Y0239260D02*
X0200888Y0239260D01*
X0199689Y0240458D02*
X0206267Y0240458D01*
X0206686Y0243574D02*
X0208269Y0242918D01*
X0209982Y0242918D01*
X0211565Y0243574D01*
X0212777Y0244786D01*
X0213432Y0246369D01*
X0213432Y0248082D01*
X0212777Y0249665D01*
X0211565Y0250877D01*
X0209982Y0251532D01*
X0208269Y0251532D01*
X0206686Y0250877D01*
X0205474Y0249665D01*
X0204818Y0248082D01*
X0204818Y0246369D01*
X0205474Y0244786D01*
X0206686Y0243574D01*
X0206206Y0244054D02*
X0197832Y0244054D01*
X0197832Y0245252D02*
X0205281Y0245252D01*
X0204818Y0246451D02*
X0197832Y0246451D01*
X0197832Y0247649D02*
X0204818Y0247649D01*
X0205136Y0248848D02*
X0197832Y0248848D01*
X0197832Y0250046D02*
X0205855Y0250046D01*
X0207575Y0251245D02*
X0197832Y0251245D01*
X0197832Y0252444D02*
X0214018Y0252444D01*
X0214018Y0253642D02*
X0211633Y0253642D01*
X0210676Y0251245D02*
X0214018Y0251245D01*
X0214018Y0250046D02*
X0212395Y0250046D01*
X0213115Y0248848D02*
X0214018Y0248848D01*
X0214018Y0247649D02*
X0213432Y0247649D01*
X0213432Y0246451D02*
X0214018Y0246451D01*
X0214018Y0245252D02*
X0212970Y0245252D01*
X0212045Y0244054D02*
X0214018Y0244054D01*
X0214018Y0242855D02*
X0197832Y0242855D01*
X0198491Y0241657D02*
X0214018Y0241657D01*
X0214018Y0240458D02*
X0211984Y0240458D01*
X0212945Y0239260D02*
X0214018Y0239260D01*
X0214018Y0238061D02*
X0213432Y0238061D01*
X0213432Y0236863D02*
X0214018Y0236863D01*
X0214018Y0235664D02*
X0213141Y0235664D01*
X0212457Y0234466D02*
X0214018Y0234466D01*
X0217832Y0234466D02*
X0245288Y0234466D01*
X0244089Y0235664D02*
X0217832Y0235664D01*
X0217832Y0236863D02*
X0242891Y0236863D01*
X0241692Y0238061D02*
X0217832Y0238061D01*
X0217832Y0239260D02*
X0238373Y0239260D01*
X0238037Y0239595D02*
X0238995Y0238637D01*
X0240248Y0238118D01*
X0241603Y0238118D01*
X0241626Y0238128D01*
X0246518Y0233235D01*
X0246518Y0232432D01*
X0245248Y0232432D01*
X0243995Y0231914D01*
X0243037Y0230955D01*
X0242518Y0229703D01*
X0242518Y0228348D01*
X0243037Y0227095D01*
X0243995Y0226137D01*
X0245248Y0225618D01*
X0246603Y0225618D01*
X0246626Y0225628D01*
X0261518Y0210735D01*
X0261518Y0197790D01*
X0261100Y0197371D01*
X0260353Y0195568D01*
X0260353Y0195037D01*
X0260234Y0195786D01*
X0259986Y0196549D01*
X0259622Y0197264D01*
X0259150Y0197914D01*
X0258582Y0198482D01*
X0257933Y0198953D01*
X0257218Y0199318D01*
X0256454Y0199566D01*
X0255661Y0199691D01*
X0255644Y0199691D01*
X0255644Y0194976D01*
X0254876Y0194976D01*
X0254876Y0199691D01*
X0254859Y0199691D01*
X0254066Y0199566D01*
X0253302Y0199318D01*
X0252587Y0198953D01*
X0251937Y0198482D01*
X0251370Y0197914D01*
X0250898Y0197264D01*
X0250534Y0196549D01*
X0250285Y0195786D01*
X0250167Y0195037D01*
X0250167Y0195568D01*
X0249420Y0197371D01*
X0248040Y0198752D01*
X0246236Y0199499D01*
X0244284Y0199499D01*
X0242480Y0198752D01*
X0241100Y0197371D01*
X0240353Y0195568D01*
X0240353Y0193615D01*
X0241100Y0191812D01*
X0242480Y0190431D01*
X0244284Y0189684D01*
X0246236Y0189684D01*
X0248040Y0190431D01*
X0249420Y0191812D01*
X0250167Y0193615D01*
X0250167Y0194146D01*
X0250285Y0193397D01*
X0250534Y0192634D01*
X0250898Y0191919D01*
X0251370Y0191269D01*
X0251937Y0190701D01*
X0252587Y0190230D01*
X0253302Y0189865D01*
X0254066Y0189617D01*
X0254859Y0189491D01*
X0254876Y0189491D01*
X0254876Y0194207D01*
X0255644Y0194207D01*
X0255644Y0189491D01*
X0255661Y0189491D01*
X0256454Y0189617D01*
X0257218Y0189865D01*
X0257933Y0190230D01*
X0258582Y0190701D01*
X0259150Y0191269D01*
X0259622Y0191919D01*
X0259986Y0192634D01*
X0260234Y0193397D01*
X0260353Y0194146D01*
X0260353Y0193615D01*
X0261100Y0191812D01*
X0262480Y0190431D01*
X0264284Y0189684D01*
X0266236Y0189684D01*
X0268040Y0190431D01*
X0269420Y0191812D01*
X0270167Y0193615D01*
X0270167Y0195568D01*
X0269420Y0197371D01*
X0268040Y0198752D01*
X0266236Y0199499D01*
X0265332Y0199499D01*
X0265332Y0211921D01*
X0271518Y0205735D01*
X0271518Y0197790D01*
X0271100Y0197371D01*
X0270353Y0195568D01*
X0270353Y0193615D01*
X0271100Y0191812D01*
X0272480Y0190431D01*
X0274284Y0189684D01*
X0276236Y0189684D01*
X0278040Y0190431D01*
X0279420Y0191812D01*
X0280167Y0193615D01*
X0280167Y0195568D01*
X0279420Y0197371D01*
X0278040Y0198752D01*
X0276236Y0199499D01*
X0275332Y0199499D01*
X0275332Y0207315D01*
X0274215Y0208432D01*
X0254405Y0228243D01*
X0255355Y0228637D01*
X0256314Y0229595D01*
X0256832Y0230848D01*
X0256832Y0232203D01*
X0256314Y0233455D01*
X0255355Y0234414D01*
X0254103Y0234932D01*
X0252832Y0234932D01*
X0252832Y0236518D01*
X0256308Y0236518D01*
X0257132Y0237343D01*
X0257132Y0240093D01*
X0257696Y0238732D01*
X0259132Y0237296D01*
X0261010Y0236518D01*
X0263041Y0236518D01*
X0264918Y0237296D01*
X0266355Y0238732D01*
X0267025Y0240351D01*
X0267696Y0238732D01*
X0269132Y0237296D01*
X0271010Y0236518D01*
X0273041Y0236518D01*
X0274918Y0237296D01*
X0276355Y0238732D01*
X0276936Y0240136D01*
X0277114Y0239591D01*
X0277492Y0238848D01*
X0277983Y0238173D01*
X0278573Y0237583D01*
X0279248Y0237092D01*
X0279991Y0236714D01*
X0280784Y0236456D01*
X0281608Y0236325D01*
X0281625Y0236325D01*
X0281625Y0241225D01*
X0282425Y0241225D01*
X0282425Y0236325D01*
X0282443Y0236325D01*
X0283266Y0236456D01*
X0284060Y0236714D01*
X0284803Y0237092D01*
X0285478Y0237583D01*
X0286068Y0238173D01*
X0286558Y0238848D01*
X0286937Y0239591D01*
X0287195Y0240384D01*
X0287325Y0241208D01*
X0287325Y0241225D01*
X0282425Y0241225D01*
X0282425Y0242025D01*
X0281625Y0242025D01*
X0281625Y0246925D01*
X0281608Y0246925D01*
X0280784Y0246795D01*
X0279991Y0246537D01*
X0279248Y0246158D01*
X0278573Y0245668D01*
X0277983Y0245078D01*
X0277492Y0244403D01*
X0277114Y0243660D01*
X0276936Y0243114D01*
X0276355Y0244518D01*
X0274918Y0245955D01*
X0273041Y0246732D01*
X0271010Y0246732D01*
X0269132Y0245955D01*
X0267696Y0244518D01*
X0267025Y0242900D01*
X0266355Y0244518D01*
X0264918Y0245955D01*
X0263041Y0246732D01*
X0261010Y0246732D01*
X0259132Y0245955D01*
X0257696Y0244518D01*
X0257132Y0243158D01*
X0257132Y0245908D01*
X0256308Y0246732D01*
X0247743Y0246732D01*
X0246918Y0245908D01*
X0246918Y0238229D01*
X0244323Y0240825D01*
X0244332Y0240848D01*
X0244332Y0242203D01*
X0243814Y0243455D01*
X0242855Y0244414D01*
X0241603Y0244932D01*
X0240248Y0244932D01*
X0238995Y0244414D01*
X0238037Y0243455D01*
X0237518Y0242203D01*
X0237518Y0240848D01*
X0238037Y0239595D01*
X0237680Y0240458D02*
X0217832Y0240458D01*
X0217832Y0241657D02*
X0237518Y0241657D01*
X0237789Y0242855D02*
X0217832Y0242855D01*
X0217832Y0244054D02*
X0238636Y0244054D01*
X0243215Y0244054D02*
X0246918Y0244054D01*
X0246918Y0245252D02*
X0217832Y0245252D01*
X0217832Y0246451D02*
X0247461Y0246451D01*
X0246918Y0242855D02*
X0244062Y0242855D01*
X0244332Y0241657D02*
X0246918Y0241657D01*
X0246918Y0240458D02*
X0244689Y0240458D01*
X0245888Y0239260D02*
X0246918Y0239260D01*
X0252832Y0235664D02*
X0356829Y0235664D01*
X0357252Y0234466D02*
X0332123Y0234466D01*
X0331532Y0234710D02*
X0329501Y0234710D01*
X0327624Y0233933D01*
X0326187Y0232496D01*
X0325517Y0230878D01*
X0324846Y0232496D01*
X0323410Y0233933D01*
X0321532Y0234710D01*
X0319501Y0234710D01*
X0317624Y0233933D01*
X0316187Y0232496D01*
X0315606Y0231092D01*
X0315428Y0231638D01*
X0315050Y0232381D01*
X0314559Y0233056D01*
X0313969Y0233646D01*
X0313294Y0234136D01*
X0312551Y0234515D01*
X0311758Y0234773D01*
X0310934Y0234903D01*
X0310917Y0234903D01*
X0310917Y0230003D01*
X0310117Y0230003D01*
X0310117Y0229203D01*
X0310917Y0229203D01*
X0310917Y0224303D01*
X0310934Y0224303D01*
X0311758Y0224434D01*
X0312551Y0224692D01*
X0313294Y0225070D01*
X0313969Y0225561D01*
X0314559Y0226151D01*
X0315050Y0226826D01*
X0315428Y0227569D01*
X0315606Y0228114D01*
X0316187Y0226710D01*
X0317624Y0225274D01*
X0319501Y0224496D01*
X0321532Y0224496D01*
X0323410Y0225274D01*
X0324846Y0226710D01*
X0325517Y0228329D01*
X0326187Y0226710D01*
X0327624Y0225274D01*
X0329501Y0224496D01*
X0331532Y0224496D01*
X0333410Y0225274D01*
X0334846Y0226710D01*
X0335624Y0228588D01*
X0335624Y0230619D01*
X0334846Y0232496D01*
X0333410Y0233933D01*
X0331532Y0234710D01*
X0328910Y0234466D02*
X0322123Y0234466D01*
X0324075Y0233267D02*
X0326958Y0233267D01*
X0326010Y0232069D02*
X0325023Y0232069D01*
X0325080Y0227275D02*
X0325953Y0227275D01*
X0326821Y0226076D02*
X0324212Y0226076D01*
X0322453Y0224878D02*
X0328580Y0224878D01*
X0332453Y0224878D02*
X0360635Y0224878D01*
X0360212Y0226076D02*
X0334212Y0226076D01*
X0335080Y0227275D02*
X0359789Y0227275D01*
X0359366Y0228473D02*
X0335576Y0228473D01*
X0335624Y0229672D02*
X0358944Y0229672D01*
X0358521Y0230870D02*
X0335520Y0230870D01*
X0335023Y0232069D02*
X0358098Y0232069D01*
X0357675Y0233267D02*
X0334075Y0233267D01*
X0318910Y0234466D02*
X0312648Y0234466D01*
X0310917Y0234466D02*
X0310117Y0234466D01*
X0310117Y0234903D02*
X0310099Y0234903D01*
X0309276Y0234773D01*
X0308482Y0234515D01*
X0307739Y0234136D01*
X0307064Y0233646D01*
X0306474Y0233056D01*
X0305984Y0232381D01*
X0305605Y0231638D01*
X0305347Y0230844D01*
X0305217Y0230021D01*
X0305217Y0230003D01*
X0310117Y0230003D01*
X0310117Y0234903D01*
X0310117Y0233267D02*
X0310917Y0233267D01*
X0310917Y0232069D02*
X0310117Y0232069D01*
X0310117Y0230870D02*
X0310917Y0230870D01*
X0310117Y0229672D02*
X0256345Y0229672D01*
X0256832Y0230870D02*
X0305355Y0230870D01*
X0305824Y0232069D02*
X0256832Y0232069D01*
X0256392Y0233267D02*
X0306685Y0233267D01*
X0308385Y0234466D02*
X0255230Y0234466D01*
X0256653Y0236863D02*
X0260178Y0236863D01*
X0258367Y0238061D02*
X0257132Y0238061D01*
X0257132Y0239260D02*
X0257477Y0239260D01*
X0257503Y0244054D02*
X0257132Y0244054D01*
X0257132Y0245252D02*
X0258430Y0245252D01*
X0256590Y0246451D02*
X0260330Y0246451D01*
X0263721Y0246451D02*
X0270330Y0246451D01*
X0268430Y0245252D02*
X0265621Y0245252D01*
X0266547Y0244054D02*
X0267503Y0244054D01*
X0267477Y0239260D02*
X0266573Y0239260D01*
X0265684Y0238061D02*
X0268367Y0238061D01*
X0270178Y0236863D02*
X0263873Y0236863D01*
X0254960Y0228473D02*
X0305330Y0228473D01*
X0305347Y0228362D02*
X0305605Y0227569D01*
X0305984Y0226826D01*
X0306474Y0226151D01*
X0307064Y0225561D01*
X0307739Y0225070D01*
X0308482Y0224692D01*
X0309276Y0224434D01*
X0310099Y0224303D01*
X0310117Y0224303D01*
X0310117Y0229203D01*
X0305217Y0229203D01*
X0305217Y0229186D01*
X0305347Y0228362D01*
X0305755Y0227275D02*
X0255373Y0227275D01*
X0256572Y0226076D02*
X0306548Y0226076D01*
X0308117Y0224878D02*
X0294235Y0224878D01*
X0294103Y0224932D02*
X0292748Y0224932D01*
X0291495Y0224414D01*
X0290537Y0223455D01*
X0290018Y0222203D01*
X0290018Y0220848D01*
X0290537Y0219595D01*
X0291495Y0218637D01*
X0291518Y0218628D01*
X0291518Y0215735D01*
X0292635Y0214618D01*
X0292635Y0214618D01*
X0310743Y0196510D01*
X0310353Y0195568D01*
X0310353Y0193615D01*
X0311100Y0191812D01*
X0312480Y0190431D01*
X0314284Y0189684D01*
X0316236Y0189684D01*
X0318040Y0190431D01*
X0319420Y0191812D01*
X0320167Y0193615D01*
X0320167Y0195568D01*
X0319420Y0197371D01*
X0318040Y0198752D01*
X0316236Y0199499D01*
X0314284Y0199499D01*
X0313482Y0199166D01*
X0295332Y0217315D01*
X0295332Y0218628D01*
X0295355Y0218637D01*
X0296314Y0219595D01*
X0296832Y0220848D01*
X0296832Y0222203D01*
X0296314Y0223455D01*
X0295355Y0224414D01*
X0294103Y0224932D01*
X0292616Y0224878D02*
X0257770Y0224878D01*
X0258969Y0223679D02*
X0290761Y0223679D01*
X0290133Y0222481D02*
X0260167Y0222481D01*
X0261366Y0221282D02*
X0290018Y0221282D01*
X0290335Y0220084D02*
X0262564Y0220084D01*
X0263763Y0218885D02*
X0291247Y0218885D01*
X0291518Y0217687D02*
X0264961Y0217687D01*
X0266160Y0216488D02*
X0291518Y0216488D01*
X0291964Y0215290D02*
X0267358Y0215290D01*
X0268557Y0214091D02*
X0293163Y0214091D01*
X0294361Y0212893D02*
X0269755Y0212893D01*
X0270954Y0211694D02*
X0282777Y0211694D01*
X0282886Y0211803D02*
X0281449Y0210366D01*
X0280672Y0208489D01*
X0280672Y0206457D01*
X0281449Y0204580D01*
X0282886Y0203144D01*
X0284763Y0202366D01*
X0286795Y0202366D01*
X0288672Y0203144D01*
X0290108Y0204580D01*
X0290886Y0206457D01*
X0290886Y0208489D01*
X0290108Y0210366D01*
X0288672Y0211803D01*
X0286795Y0212580D01*
X0284763Y0212580D01*
X0282886Y0211803D01*
X0281579Y0210496D02*
X0272152Y0210496D01*
X0273351Y0209297D02*
X0281006Y0209297D01*
X0280672Y0208099D02*
X0274549Y0208099D01*
X0275332Y0206900D02*
X0280672Y0206900D01*
X0280985Y0205702D02*
X0275332Y0205702D01*
X0275332Y0204503D02*
X0281526Y0204503D01*
X0282725Y0203305D02*
X0275332Y0203305D01*
X0275332Y0202106D02*
X0305148Y0202106D01*
X0306346Y0200908D02*
X0275332Y0200908D01*
X0275332Y0199709D02*
X0307545Y0199709D01*
X0308040Y0198752D02*
X0306236Y0199499D01*
X0304284Y0199499D01*
X0302480Y0198752D01*
X0301100Y0197371D01*
X0300353Y0195568D01*
X0300353Y0193615D01*
X0301100Y0191812D01*
X0302480Y0190431D01*
X0304284Y0189684D01*
X0306236Y0189684D01*
X0308040Y0190431D01*
X0309420Y0191812D01*
X0310167Y0193615D01*
X0310167Y0195568D01*
X0309420Y0197371D01*
X0308040Y0198752D01*
X0308281Y0198511D02*
X0308743Y0198511D01*
X0309444Y0197312D02*
X0309942Y0197312D01*
X0309941Y0196113D02*
X0310579Y0196113D01*
X0310353Y0194915D02*
X0310167Y0194915D01*
X0310167Y0193716D02*
X0310353Y0193716D01*
X0310807Y0192518D02*
X0309712Y0192518D01*
X0308927Y0191319D02*
X0311592Y0191319D01*
X0313230Y0190121D02*
X0307290Y0190121D01*
X0303230Y0190121D02*
X0297290Y0190121D01*
X0298040Y0190431D02*
X0296236Y0189684D01*
X0294284Y0189684D01*
X0292480Y0190431D01*
X0291100Y0191812D01*
X0290353Y0193615D01*
X0290353Y0195568D01*
X0291100Y0197371D01*
X0292480Y0198752D01*
X0294284Y0199499D01*
X0296236Y0199499D01*
X0298040Y0198752D01*
X0299420Y0197371D01*
X0300167Y0195568D01*
X0300167Y0193615D01*
X0299420Y0191812D01*
X0298040Y0190431D01*
X0298927Y0191319D02*
X0301592Y0191319D01*
X0300807Y0192518D02*
X0299712Y0192518D01*
X0300167Y0193716D02*
X0300353Y0193716D01*
X0300353Y0194915D02*
X0300167Y0194915D01*
X0299941Y0196113D02*
X0300579Y0196113D01*
X0301075Y0197312D02*
X0299444Y0197312D01*
X0298281Y0198511D02*
X0302239Y0198511D01*
X0303949Y0203305D02*
X0288833Y0203305D01*
X0290031Y0204503D02*
X0302751Y0204503D01*
X0301552Y0205702D02*
X0290573Y0205702D01*
X0290886Y0206900D02*
X0300354Y0206900D01*
X0299155Y0208099D02*
X0290886Y0208099D01*
X0290551Y0209297D02*
X0297957Y0209297D01*
X0296758Y0210496D02*
X0289979Y0210496D01*
X0288780Y0211694D02*
X0295560Y0211694D01*
X0298557Y0214091D02*
X0362878Y0214091D01*
X0363043Y0212893D02*
X0299755Y0212893D01*
X0300954Y0211694D02*
X0363207Y0211694D01*
X0363372Y0210496D02*
X0302152Y0210496D01*
X0303351Y0209297D02*
X0363537Y0209297D01*
X0363702Y0208099D02*
X0304549Y0208099D01*
X0305748Y0206900D02*
X0363866Y0206900D01*
X0364031Y0205702D02*
X0306946Y0205702D01*
X0308145Y0204503D02*
X0364196Y0204503D01*
X0364360Y0203305D02*
X0309343Y0203305D01*
X0310542Y0202106D02*
X0364514Y0202106D01*
X0364568Y0200908D02*
X0311740Y0200908D01*
X0312939Y0199709D02*
X0364623Y0199709D01*
X0364677Y0198511D02*
X0318281Y0198511D01*
X0319444Y0197312D02*
X0364732Y0197312D01*
X0364787Y0196113D02*
X0319941Y0196113D01*
X0320167Y0194915D02*
X0364841Y0194915D01*
X0364896Y0193716D02*
X0320167Y0193716D01*
X0319712Y0192518D02*
X0364950Y0192518D01*
X0365005Y0191319D02*
X0318927Y0191319D01*
X0317290Y0190121D02*
X0365060Y0190121D01*
X0365114Y0188922D02*
X0225731Y0188922D01*
X0225670Y0189042D02*
X0225283Y0189574D01*
X0224819Y0190039D01*
X0224287Y0190425D01*
X0223702Y0190723D01*
X0223077Y0190926D01*
X0222428Y0191029D01*
X0222286Y0191029D01*
X0222286Y0187042D01*
X0221912Y0187042D01*
X0221912Y0191029D01*
X0221770Y0191029D01*
X0221121Y0190926D01*
X0220497Y0190723D01*
X0219911Y0190425D01*
X0219379Y0190039D01*
X0218915Y0189574D01*
X0218528Y0189042D01*
X0218230Y0188457D01*
X0218027Y0187832D01*
X0217924Y0187183D01*
X0217924Y0187042D01*
X0221912Y0187042D01*
X0221912Y0186667D01*
X0217924Y0186667D01*
X0217924Y0186526D01*
X0218027Y0185877D01*
X0218230Y0185252D01*
X0218528Y0184666D01*
X0218915Y0184135D01*
X0219379Y0183670D01*
X0219911Y0183284D01*
X0220497Y0182985D01*
X0220982Y0182828D01*
X0219844Y0182356D01*
X0218723Y0181236D01*
X0218117Y0179772D01*
X0218117Y0178188D01*
X0218723Y0176725D01*
X0219844Y0175605D01*
X0221199Y0175043D01*
X0219844Y0174482D01*
X0218723Y0173362D01*
X0218117Y0171898D01*
X0218117Y0170314D01*
X0218723Y0168851D01*
X0219844Y0167731D01*
X0221199Y0167169D01*
X0219844Y0166608D01*
X0218723Y0165488D01*
X0218117Y0164024D01*
X0218117Y0162440D01*
X0218723Y0160977D01*
X0219844Y0159857D01*
X0221199Y0159295D01*
X0219844Y0158734D01*
X0218723Y0157614D01*
X0218117Y0156150D01*
X0218117Y0154566D01*
X0218723Y0153103D01*
X0219844Y0151983D01*
X0221199Y0151421D01*
X0219844Y0150860D01*
X0218723Y0149740D01*
X0218117Y0148276D01*
X0218117Y0146692D01*
X0218723Y0145229D01*
X0219844Y0144109D01*
X0221199Y0143547D01*
X0219844Y0142986D01*
X0218723Y0141866D01*
X0218117Y0140402D01*
X0218117Y0138818D01*
X0218723Y0137355D01*
X0219844Y0136235D01*
X0221199Y0135673D01*
X0219844Y0135112D01*
X0218723Y0133992D01*
X0218117Y0132528D01*
X0218117Y0130944D01*
X0218723Y0129481D01*
X0219844Y0128361D01*
X0221199Y0127799D01*
X0219844Y0127238D01*
X0218723Y0126118D01*
X0218117Y0124654D01*
X0218117Y0123070D01*
X0218723Y0121607D01*
X0219844Y0120487D01*
X0221199Y0119925D01*
X0219844Y0119364D01*
X0218723Y0118244D01*
X0218117Y0116780D01*
X0218117Y0115196D01*
X0218723Y0113733D01*
X0219844Y0112613D01*
X0221307Y0112006D01*
X0222891Y0112006D01*
X0224355Y0112613D01*
X0225475Y0113733D01*
X0225746Y0114387D01*
X0226495Y0113637D01*
X0227748Y0113118D01*
X0229103Y0113118D01*
X0230355Y0113637D01*
X0231314Y0114595D01*
X0231832Y0115848D01*
X0231832Y0117203D01*
X0231314Y0118455D01*
X0230355Y0119414D01*
X0229103Y0119932D01*
X0228726Y0119932D01*
X0225937Y0122722D01*
X0226081Y0123070D01*
X0226081Y0124654D01*
X0225475Y0126118D01*
X0224355Y0127238D01*
X0222999Y0127799D01*
X0224355Y0128361D01*
X0225475Y0129481D01*
X0226081Y0130944D01*
X0226081Y0132528D01*
X0225475Y0133992D01*
X0224355Y0135112D01*
X0222999Y0135673D01*
X0224355Y0136235D01*
X0225475Y0137355D01*
X0226081Y0138818D01*
X0226081Y0140402D01*
X0225475Y0141866D01*
X0224355Y0142986D01*
X0222999Y0143547D01*
X0224355Y0144109D01*
X0225475Y0145229D01*
X0226081Y0146692D01*
X0226081Y0148276D01*
X0225475Y0149740D01*
X0224355Y0150860D01*
X0222999Y0151421D01*
X0224355Y0151983D01*
X0225475Y0153103D01*
X0226081Y0154566D01*
X0226081Y0156150D01*
X0225475Y0157614D01*
X0224355Y0158734D01*
X0222999Y0159295D01*
X0224355Y0159857D01*
X0225475Y0160977D01*
X0226081Y0162440D01*
X0226081Y0164024D01*
X0225475Y0165488D01*
X0224355Y0166608D01*
X0222999Y0167169D01*
X0224355Y0167731D01*
X0225475Y0168851D01*
X0226081Y0170314D01*
X0226081Y0171898D01*
X0225475Y0173362D01*
X0224355Y0174482D01*
X0222999Y0175043D01*
X0224355Y0175605D01*
X0225475Y0176725D01*
X0226081Y0178188D01*
X0226081Y0179772D01*
X0225475Y0181236D01*
X0224355Y0182356D01*
X0223216Y0182828D01*
X0223702Y0182985D01*
X0224287Y0183284D01*
X0224819Y0183670D01*
X0225283Y0184135D01*
X0225670Y0184666D01*
X0225968Y0185252D01*
X0226171Y0185877D01*
X0226274Y0186526D01*
X0226274Y0186667D01*
X0222287Y0186667D01*
X0222287Y0187042D01*
X0226274Y0187042D01*
X0226274Y0187183D01*
X0226171Y0187832D01*
X0225968Y0188457D01*
X0225670Y0189042D01*
X0226188Y0187724D02*
X0365169Y0187724D01*
X0365223Y0186525D02*
X0226274Y0186525D01*
X0225992Y0185327D02*
X0365224Y0185327D01*
X0365169Y0184128D02*
X0225277Y0184128D01*
X0223531Y0182930D02*
X0365114Y0182930D01*
X0365060Y0181731D02*
X0224979Y0181731D01*
X0225766Y0180533D02*
X0365005Y0180533D01*
X0364950Y0179334D02*
X0226081Y0179334D01*
X0226059Y0178136D02*
X0364896Y0178136D01*
X0364841Y0176937D02*
X0225563Y0176937D01*
X0224489Y0175739D02*
X0364787Y0175739D01*
X0364732Y0174540D02*
X0224214Y0174540D01*
X0225483Y0173342D02*
X0364677Y0173342D01*
X0364623Y0172143D02*
X0225980Y0172143D01*
X0226081Y0170945D02*
X0364568Y0170945D01*
X0364514Y0169746D02*
X0225846Y0169746D01*
X0225172Y0168548D02*
X0364361Y0168548D01*
X0364508Y0169618D02*
X0364508Y0169618D01*
X0364196Y0167349D02*
X0223434Y0167349D01*
X0224812Y0166151D02*
X0364031Y0166151D01*
X0363866Y0164952D02*
X0225697Y0164952D01*
X0226081Y0163754D02*
X0363702Y0163754D01*
X0363537Y0162555D02*
X0226081Y0162555D01*
X0225632Y0161357D02*
X0363372Y0161357D01*
X0363208Y0160158D02*
X0224656Y0160158D01*
X0223810Y0158960D02*
X0363043Y0158960D01*
X0362878Y0157761D02*
X0225327Y0157761D01*
X0225910Y0156563D02*
X0362713Y0156563D01*
X0362549Y0155364D02*
X0226081Y0155364D01*
X0225915Y0154166D02*
X0362384Y0154166D01*
X0362174Y0152967D02*
X0225339Y0152967D01*
X0223838Y0151769D02*
X0361896Y0151769D01*
X0361619Y0150570D02*
X0224645Y0150570D01*
X0225627Y0149372D02*
X0361341Y0149372D01*
X0361063Y0148173D02*
X0226081Y0148173D01*
X0226081Y0146975D02*
X0360786Y0146975D01*
X0360508Y0145776D02*
X0225701Y0145776D01*
X0224824Y0144577D02*
X0360230Y0144577D01*
X0359953Y0143379D02*
X0223406Y0143379D01*
X0225160Y0142180D02*
X0359515Y0142180D01*
X0359076Y0140982D02*
X0225841Y0140982D01*
X0226081Y0139783D02*
X0358636Y0139783D01*
X0358197Y0138585D02*
X0225984Y0138585D01*
X0225488Y0137386D02*
X0357757Y0137386D01*
X0357318Y0136188D02*
X0224242Y0136188D01*
X0224477Y0134989D02*
X0356878Y0134989D01*
X0356439Y0133791D02*
X0225558Y0133791D01*
X0226054Y0132592D02*
X0356000Y0132592D01*
X0355560Y0131394D02*
X0226081Y0131394D01*
X0225771Y0130195D02*
X0355121Y0130195D01*
X0354681Y0128997D02*
X0224991Y0128997D01*
X0223002Y0127798D02*
X0354242Y0127798D01*
X0353803Y0126600D02*
X0224993Y0126600D01*
X0225772Y0125401D02*
X0335184Y0125401D01*
X0332269Y0124203D02*
X0226081Y0124203D01*
X0226054Y0123004D02*
X0330590Y0123004D01*
X0329392Y0121806D02*
X0226853Y0121806D01*
X0228051Y0120607D02*
X0328578Y0120607D01*
X0327886Y0119409D02*
X0230360Y0119409D01*
X0231415Y0118210D02*
X0327449Y0118210D01*
X0327128Y0117012D02*
X0231832Y0117012D01*
X0231818Y0115813D02*
X0326926Y0115813D01*
X0326926Y0114615D02*
X0231322Y0114615D01*
X0229822Y0113416D02*
X0326926Y0113416D01*
X0327240Y0112218D02*
X0223401Y0112218D01*
X0225158Y0113416D02*
X0227028Y0113416D01*
X0220797Y0112218D02*
X0217832Y0112218D01*
X0217832Y0113416D02*
X0219040Y0113416D01*
X0218358Y0114615D02*
X0217832Y0114615D01*
X0217832Y0115813D02*
X0218117Y0115813D01*
X0218213Y0117012D02*
X0217832Y0117012D01*
X0217832Y0118210D02*
X0218710Y0118210D01*
X0217832Y0119409D02*
X0219952Y0119409D01*
X0219723Y0120607D02*
X0217832Y0120607D01*
X0217832Y0121806D02*
X0218641Y0121806D01*
X0218144Y0123004D02*
X0217832Y0123004D01*
X0217832Y0124203D02*
X0218117Y0124203D01*
X0217832Y0125401D02*
X0218427Y0125401D01*
X0217832Y0126600D02*
X0219205Y0126600D01*
X0217832Y0127798D02*
X0221197Y0127798D01*
X0219207Y0128997D02*
X0217832Y0128997D01*
X0217832Y0130195D02*
X0218427Y0130195D01*
X0218117Y0131394D02*
X0217832Y0131394D01*
X0217832Y0132592D02*
X0218144Y0132592D01*
X0217832Y0133791D02*
X0218640Y0133791D01*
X0217832Y0134989D02*
X0219721Y0134989D01*
X0219956Y0136188D02*
X0217832Y0136188D01*
X0217832Y0137386D02*
X0218710Y0137386D01*
X0218214Y0138585D02*
X0217832Y0138585D01*
X0217832Y0139783D02*
X0218117Y0139783D01*
X0218357Y0140982D02*
X0217832Y0140982D01*
X0217832Y0142180D02*
X0219038Y0142180D01*
X0217832Y0143379D02*
X0220792Y0143379D01*
X0219375Y0144577D02*
X0217832Y0144577D01*
X0217832Y0145776D02*
X0218497Y0145776D01*
X0218117Y0146975D02*
X0217832Y0146975D01*
X0217832Y0148173D02*
X0218117Y0148173D01*
X0217832Y0149372D02*
X0218571Y0149372D01*
X0217832Y0150570D02*
X0219554Y0150570D01*
X0220360Y0151769D02*
X0217832Y0151769D01*
X0217832Y0152967D02*
X0218859Y0152967D01*
X0218283Y0154166D02*
X0217832Y0154166D01*
X0217832Y0155364D02*
X0218117Y0155364D01*
X0218288Y0156563D02*
X0217832Y0156563D01*
X0217832Y0157761D02*
X0218871Y0157761D01*
X0217832Y0158960D02*
X0220388Y0158960D01*
X0219542Y0160158D02*
X0217832Y0160158D01*
X0217832Y0161357D02*
X0218566Y0161357D01*
X0218117Y0162555D02*
X0217832Y0162555D01*
X0217832Y0163754D02*
X0218117Y0163754D01*
X0217832Y0164952D02*
X0218502Y0164952D01*
X0217832Y0166151D02*
X0219386Y0166151D01*
X0220764Y0167349D02*
X0217832Y0167349D01*
X0217832Y0168548D02*
X0219026Y0168548D01*
X0218352Y0169746D02*
X0217832Y0169746D01*
X0217832Y0170945D02*
X0218117Y0170945D01*
X0218219Y0172143D02*
X0217832Y0172143D01*
X0217832Y0173342D02*
X0218715Y0173342D01*
X0217832Y0174540D02*
X0219984Y0174540D01*
X0219709Y0175739D02*
X0217832Y0175739D01*
X0217832Y0176937D02*
X0218635Y0176937D01*
X0218139Y0178136D02*
X0217832Y0178136D01*
X0217832Y0179334D02*
X0218117Y0179334D01*
X0217832Y0180533D02*
X0218432Y0180533D01*
X0217832Y0181731D02*
X0219219Y0181731D01*
X0217832Y0182930D02*
X0220668Y0182930D01*
X0218921Y0184128D02*
X0217832Y0184128D01*
X0217832Y0185327D02*
X0218206Y0185327D01*
X0217924Y0186525D02*
X0217832Y0186525D01*
X0217832Y0187724D02*
X0218010Y0187724D01*
X0217832Y0188922D02*
X0218467Y0188922D01*
X0217832Y0190121D02*
X0219493Y0190121D01*
X0217832Y0191319D02*
X0231592Y0191319D01*
X0231100Y0191812D02*
X0232480Y0190431D01*
X0234284Y0189684D01*
X0236236Y0189684D01*
X0238040Y0190431D01*
X0239420Y0191812D01*
X0240167Y0193615D01*
X0240167Y0195568D01*
X0239420Y0197371D01*
X0238040Y0198752D01*
X0236236Y0199499D01*
X0234284Y0199499D01*
X0232480Y0198752D01*
X0231660Y0197931D01*
X0231832Y0198348D01*
X0231832Y0199703D01*
X0231823Y0199726D01*
X0236715Y0204618D01*
X0237832Y0205735D01*
X0237832Y0206128D01*
X0237855Y0206137D01*
X0238814Y0207095D01*
X0239332Y0208348D01*
X0239332Y0209703D01*
X0238814Y0210955D01*
X0237855Y0211914D01*
X0236603Y0212432D01*
X0235248Y0212432D01*
X0233995Y0211914D01*
X0233037Y0210955D01*
X0232518Y0209703D01*
X0232518Y0208348D01*
X0233037Y0207095D01*
X0233418Y0206715D01*
X0229126Y0202423D01*
X0229103Y0202432D01*
X0227748Y0202432D01*
X0226495Y0201914D01*
X0225537Y0200955D01*
X0225018Y0199703D01*
X0225018Y0198348D01*
X0225537Y0197095D01*
X0226495Y0196137D01*
X0227748Y0195618D01*
X0229103Y0195618D01*
X0230355Y0196137D01*
X0230754Y0196535D01*
X0230353Y0195568D01*
X0230353Y0193615D01*
X0231100Y0191812D01*
X0230807Y0192518D02*
X0217832Y0192518D01*
X0217832Y0193716D02*
X0230353Y0193716D01*
X0230353Y0194915D02*
X0217832Y0194915D01*
X0217832Y0196113D02*
X0226552Y0196113D01*
X0225447Y0197312D02*
X0217832Y0197312D01*
X0217832Y0198511D02*
X0225018Y0198511D01*
X0225021Y0199709D02*
X0217832Y0199709D01*
X0217832Y0200908D02*
X0225517Y0200908D01*
X0226960Y0202106D02*
X0217832Y0202106D01*
X0217832Y0203305D02*
X0230008Y0203305D01*
X0231206Y0204503D02*
X0217832Y0204503D01*
X0217832Y0205702D02*
X0232405Y0205702D01*
X0233232Y0206900D02*
X0217832Y0206900D01*
X0217832Y0208099D02*
X0232621Y0208099D01*
X0232518Y0209297D02*
X0217832Y0209297D01*
X0217832Y0210496D02*
X0232847Y0210496D01*
X0233776Y0211694D02*
X0217832Y0211694D01*
X0217832Y0212893D02*
X0259361Y0212893D01*
X0258672Y0211803D02*
X0256795Y0212580D01*
X0254763Y0212580D01*
X0252886Y0211803D01*
X0251449Y0210366D01*
X0250672Y0208489D01*
X0250672Y0206457D01*
X0251449Y0204580D01*
X0252886Y0203144D01*
X0254763Y0202366D01*
X0256795Y0202366D01*
X0258672Y0203144D01*
X0260108Y0204580D01*
X0260886Y0206457D01*
X0260886Y0208489D01*
X0260108Y0210366D01*
X0258672Y0211803D01*
X0258780Y0211694D02*
X0260560Y0211694D01*
X0259979Y0210496D02*
X0261518Y0210496D01*
X0261518Y0209297D02*
X0260551Y0209297D01*
X0260886Y0208099D02*
X0261518Y0208099D01*
X0261518Y0206900D02*
X0260886Y0206900D01*
X0260573Y0205702D02*
X0261518Y0205702D01*
X0261518Y0204503D02*
X0260031Y0204503D01*
X0258833Y0203305D02*
X0261518Y0203305D01*
X0261518Y0202106D02*
X0234203Y0202106D01*
X0233005Y0200908D02*
X0261518Y0200908D01*
X0261518Y0199709D02*
X0231830Y0199709D01*
X0231832Y0198511D02*
X0232239Y0198511D01*
X0230579Y0196113D02*
X0230299Y0196113D01*
X0233230Y0190121D02*
X0224706Y0190121D01*
X0222286Y0190121D02*
X0221912Y0190121D01*
X0221912Y0188922D02*
X0222286Y0188922D01*
X0222286Y0187724D02*
X0221912Y0187724D01*
X0214018Y0187724D02*
X0139435Y0187724D01*
X0139467Y0186525D02*
X0214018Y0186525D01*
X0214018Y0185327D02*
X0139162Y0185327D01*
X0138390Y0184128D02*
X0214018Y0184128D01*
X0214018Y0182930D02*
X0136415Y0182930D01*
X0134554Y0182930D02*
X0125546Y0182930D01*
X0126042Y0184128D02*
X0132580Y0184128D01*
X0131808Y0185327D02*
X0126132Y0185327D01*
X0126070Y0186525D02*
X0131503Y0186525D01*
X0131535Y0187724D02*
X0125574Y0187724D01*
X0124685Y0188922D02*
X0132032Y0188922D01*
X0133120Y0190121D02*
X0122877Y0190121D01*
X0124479Y0191319D02*
X0158813Y0191319D01*
X0157862Y0192518D02*
X0125511Y0192518D01*
X0126063Y0193716D02*
X0157518Y0193716D01*
X0157606Y0194915D02*
X0126320Y0194915D01*
X0126272Y0196113D02*
X0158195Y0196113D01*
X0159957Y0197312D02*
X0125963Y0197312D01*
X0125287Y0198511D02*
X0161518Y0198511D01*
X0161518Y0199709D02*
X0124056Y0199709D01*
X0121425Y0199709D02*
X0120625Y0199709D01*
X0120625Y0200660D02*
X0120608Y0200660D01*
X0119784Y0200530D01*
X0118990Y0200272D01*
X0118247Y0199893D01*
X0117572Y0199403D01*
X0116982Y0198813D01*
X0116492Y0198138D01*
X0116113Y0197395D01*
X0115855Y0196601D01*
X0115725Y0195777D01*
X0115725Y0195760D01*
X0120625Y0195760D01*
X0120625Y0200660D01*
X0120625Y0198511D02*
X0121425Y0198511D01*
X0121425Y0197312D02*
X0120625Y0197312D01*
X0120625Y0196113D02*
X0121425Y0196113D01*
X0117993Y0199709D02*
X0115332Y0199709D01*
X0115332Y0198511D02*
X0116762Y0198511D01*
X0116086Y0197312D02*
X0115332Y0197312D01*
X0115332Y0196113D02*
X0115778Y0196113D01*
X0115729Y0194915D02*
X0115332Y0194915D01*
X0115332Y0193716D02*
X0115986Y0193716D01*
X0116539Y0192518D02*
X0115332Y0192518D01*
X0116328Y0191319D02*
X0117570Y0191319D01*
X0117527Y0190121D02*
X0119172Y0190121D01*
X0124618Y0181731D02*
X0132605Y0181731D01*
X0131818Y0180533D02*
X0122715Y0180533D01*
X0124273Y0179334D02*
X0131503Y0179334D01*
X0131525Y0178136D02*
X0125403Y0178136D01*
X0125899Y0176937D02*
X0132021Y0176937D01*
X0133095Y0175739D02*
X0126132Y0175739D01*
X0126132Y0174540D02*
X0133370Y0174540D01*
X0132101Y0173342D02*
X0125717Y0173342D01*
X0125030Y0172143D02*
X0131604Y0172143D01*
X0131503Y0170945D02*
X0123710Y0170945D01*
X0123782Y0169746D02*
X0131738Y0169746D01*
X0132412Y0168548D02*
X0125060Y0168548D01*
X0125729Y0167349D02*
X0134150Y0167349D01*
X0132772Y0166151D02*
X0126132Y0166151D01*
X0126132Y0164952D02*
X0131887Y0164952D01*
X0131503Y0163754D02*
X0125887Y0163754D01*
X0125391Y0162555D02*
X0131503Y0162555D01*
X0131952Y0161357D02*
X0124244Y0161357D01*
X0122787Y0160158D02*
X0132928Y0160158D01*
X0133774Y0158960D02*
X0124648Y0158960D01*
X0125558Y0157761D02*
X0132256Y0157761D01*
X0131674Y0156563D02*
X0126055Y0156563D01*
X0126132Y0155364D02*
X0131503Y0155364D01*
X0131669Y0154166D02*
X0126058Y0154166D01*
X0125561Y0152967D02*
X0132245Y0152967D01*
X0133746Y0151769D02*
X0124655Y0151769D01*
X0122805Y0150570D02*
X0132939Y0150570D01*
X0131957Y0149372D02*
X0124236Y0149372D01*
X0125388Y0148173D02*
X0131503Y0148173D01*
X0131503Y0146975D02*
X0125884Y0146975D01*
X0126132Y0145776D02*
X0131883Y0145776D01*
X0132760Y0144577D02*
X0126132Y0144577D01*
X0125732Y0143379D02*
X0134178Y0143379D01*
X0132424Y0142180D02*
X0125067Y0142180D01*
X0123800Y0140982D02*
X0131743Y0140982D01*
X0131503Y0139783D02*
X0123692Y0139783D01*
X0125023Y0138585D02*
X0131600Y0138585D01*
X0132096Y0137386D02*
X0125713Y0137386D01*
X0126132Y0136188D02*
X0133342Y0136188D01*
X0133107Y0134989D02*
X0126132Y0134989D01*
X0125903Y0133791D02*
X0132026Y0133791D01*
X0131530Y0132592D02*
X0125406Y0132592D01*
X0124281Y0131394D02*
X0131503Y0131394D01*
X0138377Y0128997D02*
X0214018Y0128997D01*
X0214018Y0130195D02*
X0139157Y0130195D01*
X0139467Y0131394D02*
X0214018Y0131394D01*
X0214018Y0132592D02*
X0139440Y0132592D01*
X0138944Y0133791D02*
X0214018Y0133791D01*
X0214018Y0134989D02*
X0137863Y0134989D01*
X0137628Y0136188D02*
X0214018Y0136188D01*
X0214018Y0137386D02*
X0138874Y0137386D01*
X0139370Y0138585D02*
X0214018Y0138585D01*
X0214018Y0139783D02*
X0139467Y0139783D01*
X0139227Y0140982D02*
X0214018Y0140982D01*
X0214018Y0142180D02*
X0138546Y0142180D01*
X0136792Y0143379D02*
X0214018Y0143379D01*
X0214018Y0144577D02*
X0138209Y0144577D01*
X0139087Y0145776D02*
X0214018Y0145776D01*
X0214018Y0146975D02*
X0139467Y0146975D01*
X0139467Y0148173D02*
X0214018Y0148173D01*
X0214018Y0149372D02*
X0139013Y0149372D01*
X0138030Y0150570D02*
X0214018Y0150570D01*
X0214018Y0151769D02*
X0137224Y0151769D01*
X0138725Y0152967D02*
X0214018Y0152967D01*
X0214018Y0154166D02*
X0139301Y0154166D01*
X0139467Y0155364D02*
X0214018Y0155364D01*
X0214018Y0156563D02*
X0139296Y0156563D01*
X0138713Y0157761D02*
X0214018Y0157761D01*
X0214018Y0158960D02*
X0137196Y0158960D01*
X0138042Y0160158D02*
X0214018Y0160158D01*
X0214018Y0161357D02*
X0139018Y0161357D01*
X0139467Y0162555D02*
X0214018Y0162555D01*
X0214018Y0163754D02*
X0139467Y0163754D01*
X0139082Y0164952D02*
X0214018Y0164952D01*
X0214018Y0166151D02*
X0138198Y0166151D01*
X0136820Y0167349D02*
X0214018Y0167349D01*
X0214018Y0168548D02*
X0138558Y0168548D01*
X0139231Y0169746D02*
X0214018Y0169746D01*
X0214018Y0170945D02*
X0139467Y0170945D01*
X0139365Y0172143D02*
X0214018Y0172143D01*
X0214018Y0173342D02*
X0138869Y0173342D01*
X0137600Y0174540D02*
X0214018Y0174540D01*
X0214018Y0175739D02*
X0137875Y0175739D01*
X0138949Y0176937D02*
X0214018Y0176937D01*
X0214018Y0178136D02*
X0139445Y0178136D01*
X0139467Y0179334D02*
X0214018Y0179334D01*
X0214018Y0180533D02*
X0139152Y0180533D01*
X0138365Y0181731D02*
X0214018Y0181731D01*
X0214018Y0188922D02*
X0138938Y0188922D01*
X0137850Y0190121D02*
X0214018Y0190121D01*
X0214018Y0191319D02*
X0163038Y0191319D01*
X0163989Y0192518D02*
X0214018Y0192518D01*
X0214018Y0193716D02*
X0164332Y0193716D01*
X0164512Y0194915D02*
X0214018Y0194915D01*
X0214018Y0196113D02*
X0165332Y0196113D01*
X0165332Y0197312D02*
X0214018Y0197312D01*
X0214018Y0198511D02*
X0165332Y0198511D01*
X0165332Y0199709D02*
X0214018Y0199709D01*
X0214018Y0200908D02*
X0165332Y0200908D01*
X0165332Y0202106D02*
X0214018Y0202106D01*
X0214018Y0203305D02*
X0165332Y0203305D01*
X0165332Y0204503D02*
X0214018Y0204503D01*
X0214018Y0205702D02*
X0165332Y0205702D01*
X0165332Y0206900D02*
X0214018Y0206900D01*
X0214018Y0208099D02*
X0165332Y0208099D01*
X0165332Y0209297D02*
X0214018Y0209297D01*
X0214018Y0210496D02*
X0165332Y0210496D01*
X0165332Y0211694D02*
X0214018Y0211694D01*
X0214018Y0212893D02*
X0165332Y0212893D01*
X0165332Y0214091D02*
X0214018Y0214091D01*
X0217832Y0214091D02*
X0258163Y0214091D01*
X0256964Y0215290D02*
X0217832Y0215290D01*
X0217832Y0216488D02*
X0255766Y0216488D01*
X0254567Y0217687D02*
X0217832Y0217687D01*
X0217832Y0218885D02*
X0253369Y0218885D01*
X0252170Y0220084D02*
X0217832Y0220084D01*
X0217832Y0221282D02*
X0250972Y0221282D01*
X0249773Y0222481D02*
X0217832Y0222481D01*
X0217832Y0223679D02*
X0248575Y0223679D01*
X0247376Y0224878D02*
X0217832Y0224878D01*
X0217832Y0226076D02*
X0244142Y0226076D01*
X0242963Y0227275D02*
X0217832Y0227275D01*
X0217832Y0228473D02*
X0242518Y0228473D01*
X0242518Y0229672D02*
X0217832Y0229672D01*
X0217832Y0230870D02*
X0243002Y0230870D01*
X0244370Y0232069D02*
X0217832Y0232069D01*
X0217832Y0233267D02*
X0246486Y0233267D01*
X0252777Y0211694D02*
X0238075Y0211694D01*
X0239004Y0210496D02*
X0251579Y0210496D01*
X0251006Y0209297D02*
X0239332Y0209297D01*
X0239229Y0208099D02*
X0250672Y0208099D01*
X0250672Y0206900D02*
X0238618Y0206900D01*
X0237799Y0205702D02*
X0250985Y0205702D01*
X0251526Y0204503D02*
X0236600Y0204503D01*
X0235402Y0203305D02*
X0252725Y0203305D01*
X0251977Y0198511D02*
X0248281Y0198511D01*
X0249444Y0197312D02*
X0250933Y0197312D01*
X0250392Y0196113D02*
X0249941Y0196113D01*
X0250167Y0193716D02*
X0250235Y0193716D01*
X0250593Y0192518D02*
X0249712Y0192518D01*
X0248927Y0191319D02*
X0251333Y0191319D01*
X0252800Y0190121D02*
X0247290Y0190121D01*
X0243230Y0190121D02*
X0237290Y0190121D01*
X0238927Y0191319D02*
X0241592Y0191319D01*
X0240807Y0192518D02*
X0239712Y0192518D01*
X0240167Y0193716D02*
X0240353Y0193716D01*
X0240353Y0194915D02*
X0240167Y0194915D01*
X0239941Y0196113D02*
X0240579Y0196113D01*
X0241075Y0197312D02*
X0239444Y0197312D01*
X0238281Y0198511D02*
X0242239Y0198511D01*
X0254876Y0198511D02*
X0255644Y0198511D01*
X0255644Y0197312D02*
X0254876Y0197312D01*
X0254876Y0196113D02*
X0255644Y0196113D01*
X0255644Y0193716D02*
X0254876Y0193716D01*
X0254876Y0192518D02*
X0255644Y0192518D01*
X0255644Y0191319D02*
X0254876Y0191319D01*
X0254876Y0190121D02*
X0255644Y0190121D01*
X0257720Y0190121D02*
X0263230Y0190121D01*
X0261592Y0191319D02*
X0259187Y0191319D01*
X0259927Y0192518D02*
X0260807Y0192518D01*
X0260353Y0193716D02*
X0260285Y0193716D01*
X0260128Y0196113D02*
X0260579Y0196113D01*
X0261075Y0197312D02*
X0259587Y0197312D01*
X0258542Y0198511D02*
X0261518Y0198511D01*
X0265332Y0199709D02*
X0271518Y0199709D01*
X0271518Y0198511D02*
X0268281Y0198511D01*
X0269444Y0197312D02*
X0271075Y0197312D01*
X0270579Y0196113D02*
X0269941Y0196113D01*
X0270167Y0194915D02*
X0270353Y0194915D01*
X0270353Y0193716D02*
X0270167Y0193716D01*
X0269712Y0192518D02*
X0270807Y0192518D01*
X0271592Y0191319D02*
X0268927Y0191319D01*
X0267290Y0190121D02*
X0273230Y0190121D01*
X0277290Y0190121D02*
X0283230Y0190121D01*
X0282480Y0190431D02*
X0284284Y0189684D01*
X0286236Y0189684D01*
X0288040Y0190431D01*
X0289420Y0191812D01*
X0290167Y0193615D01*
X0290167Y0195568D01*
X0289420Y0197371D01*
X0288040Y0198752D01*
X0286236Y0199499D01*
X0284284Y0199499D01*
X0282480Y0198752D01*
X0281100Y0197371D01*
X0280353Y0195568D01*
X0280353Y0193615D01*
X0281100Y0191812D01*
X0282480Y0190431D01*
X0281592Y0191319D02*
X0278927Y0191319D01*
X0279712Y0192518D02*
X0280807Y0192518D01*
X0280353Y0193716D02*
X0280167Y0193716D01*
X0280167Y0194915D02*
X0280353Y0194915D01*
X0280579Y0196113D02*
X0279941Y0196113D01*
X0279444Y0197312D02*
X0281075Y0197312D01*
X0282239Y0198511D02*
X0278281Y0198511D01*
X0271518Y0200908D02*
X0265332Y0200908D01*
X0265332Y0202106D02*
X0271518Y0202106D01*
X0271518Y0203305D02*
X0265332Y0203305D01*
X0265332Y0204503D02*
X0271518Y0204503D01*
X0271518Y0205702D02*
X0265332Y0205702D01*
X0265332Y0206900D02*
X0270354Y0206900D01*
X0269155Y0208099D02*
X0265332Y0208099D01*
X0265332Y0209297D02*
X0267957Y0209297D01*
X0266758Y0210496D02*
X0265332Y0210496D01*
X0265332Y0211694D02*
X0265560Y0211694D01*
X0288281Y0198511D02*
X0292239Y0198511D01*
X0291075Y0197312D02*
X0289444Y0197312D01*
X0289941Y0196113D02*
X0290579Y0196113D01*
X0290353Y0194915D02*
X0290167Y0194915D01*
X0290167Y0193716D02*
X0290353Y0193716D01*
X0290807Y0192518D02*
X0289712Y0192518D01*
X0288927Y0191319D02*
X0291592Y0191319D01*
X0293230Y0190121D02*
X0287290Y0190121D01*
X0297358Y0215290D02*
X0362713Y0215290D01*
X0362548Y0216488D02*
X0296160Y0216488D01*
X0295332Y0217687D02*
X0362384Y0217687D01*
X0362174Y0218885D02*
X0295604Y0218885D01*
X0296516Y0220084D02*
X0361896Y0220084D01*
X0361618Y0221282D02*
X0296832Y0221282D01*
X0296717Y0222481D02*
X0361341Y0222481D01*
X0361058Y0223679D02*
X0296090Y0223679D01*
X0284353Y0236863D02*
X0356406Y0236863D01*
X0355983Y0238061D02*
X0285957Y0238061D01*
X0286768Y0239260D02*
X0355560Y0239260D01*
X0355137Y0240458D02*
X0287207Y0240458D01*
X0287325Y0242025D02*
X0287325Y0242043D01*
X0287195Y0242866D01*
X0286937Y0243660D01*
X0286558Y0244403D01*
X0286068Y0245078D01*
X0285478Y0245668D01*
X0284803Y0246158D01*
X0284060Y0246537D01*
X0283266Y0246795D01*
X0282443Y0246925D01*
X0282425Y0246925D01*
X0282425Y0242025D01*
X0287325Y0242025D01*
X0287197Y0242855D02*
X0354291Y0242855D01*
X0354714Y0241657D02*
X0282425Y0241657D01*
X0282425Y0242855D02*
X0281625Y0242855D01*
X0281625Y0244054D02*
X0282425Y0244054D01*
X0282425Y0245252D02*
X0281625Y0245252D01*
X0281625Y0246451D02*
X0282425Y0246451D01*
X0284229Y0246451D02*
X0353022Y0246451D01*
X0352599Y0247649D02*
X0217832Y0247649D01*
X0217832Y0248848D02*
X0352176Y0248848D01*
X0351753Y0250046D02*
X0217832Y0250046D01*
X0217832Y0251245D02*
X0309035Y0251245D01*
X0308951Y0251258D02*
X0309775Y0251128D01*
X0309792Y0251128D01*
X0309792Y0256028D01*
X0304892Y0256028D01*
X0304892Y0256011D01*
X0305023Y0255187D01*
X0305281Y0254393D01*
X0305660Y0253650D01*
X0306150Y0252975D01*
X0306740Y0252385D01*
X0307415Y0251895D01*
X0308158Y0251516D01*
X0308951Y0251258D01*
X0309792Y0251245D02*
X0310592Y0251245D01*
X0310592Y0251128D02*
X0310610Y0251128D01*
X0311434Y0251258D01*
X0312227Y0251516D01*
X0312970Y0251895D01*
X0313645Y0252385D01*
X0314235Y0252975D01*
X0314725Y0253650D01*
X0315104Y0254393D01*
X0315281Y0254939D01*
X0315863Y0253535D01*
X0317300Y0252098D01*
X0319177Y0251321D01*
X0321208Y0251321D01*
X0323085Y0252098D01*
X0324522Y0253535D01*
X0325192Y0255153D01*
X0325863Y0253535D01*
X0327300Y0252098D01*
X0329177Y0251321D01*
X0331208Y0251321D01*
X0333085Y0252098D01*
X0334522Y0253535D01*
X0335300Y0255412D01*
X0335300Y0257444D01*
X0334522Y0259321D01*
X0333085Y0260757D01*
X0331208Y0261535D01*
X0329177Y0261535D01*
X0327300Y0260757D01*
X0325863Y0259321D01*
X0325192Y0257702D01*
X0324522Y0259321D01*
X0323085Y0260757D01*
X0321208Y0261535D01*
X0319177Y0261535D01*
X0317300Y0260757D01*
X0315863Y0259321D01*
X0315281Y0257917D01*
X0315104Y0258462D01*
X0314725Y0259206D01*
X0314235Y0259880D01*
X0313645Y0260470D01*
X0312970Y0260961D01*
X0312227Y0261339D01*
X0311434Y0261597D01*
X0310610Y0261728D01*
X0310592Y0261728D01*
X0310592Y0256828D01*
X0309792Y0256828D01*
X0309792Y0256028D01*
X0310592Y0256028D01*
X0310592Y0251128D01*
X0311350Y0251245D02*
X0351330Y0251245D01*
X0350907Y0252444D02*
X0333431Y0252444D01*
X0334566Y0253642D02*
X0350485Y0253642D01*
X0350062Y0254841D02*
X0335063Y0254841D01*
X0335300Y0256039D02*
X0349639Y0256039D01*
X0349216Y0257238D02*
X0335300Y0257238D01*
X0334888Y0258436D02*
X0348793Y0258436D01*
X0348370Y0259635D02*
X0334208Y0259635D01*
X0332903Y0260833D02*
X0347947Y0260833D01*
X0347524Y0262032D02*
X0287132Y0262032D01*
X0287132Y0262641D02*
X0286355Y0264518D01*
X0284918Y0265955D01*
X0283300Y0266625D01*
X0284918Y0267296D01*
X0286355Y0268732D01*
X0287132Y0270610D01*
X0287132Y0272641D01*
X0286355Y0274518D01*
X0284918Y0275955D01*
X0283300Y0276625D01*
X0284918Y0277296D01*
X0286355Y0278732D01*
X0287132Y0280610D01*
X0287132Y0282641D01*
X0286355Y0284518D01*
X0284918Y0285955D01*
X0283041Y0286732D01*
X0281010Y0286732D01*
X0279132Y0285955D01*
X0277696Y0284518D01*
X0276918Y0282641D01*
X0276918Y0280610D01*
X0277696Y0278732D01*
X0279132Y0277296D01*
X0280751Y0276625D01*
X0279132Y0275955D01*
X0277696Y0274518D01*
X0276918Y0272641D01*
X0276918Y0270610D01*
X0277696Y0268732D01*
X0279132Y0267296D01*
X0280751Y0266625D01*
X0279132Y0265955D01*
X0277696Y0264518D01*
X0276918Y0262641D01*
X0276918Y0260610D01*
X0277696Y0258732D01*
X0279132Y0257296D01*
X0281010Y0256518D01*
X0283041Y0256518D01*
X0284918Y0257296D01*
X0286355Y0258732D01*
X0287132Y0260610D01*
X0287132Y0262641D01*
X0286889Y0263230D02*
X0347101Y0263230D01*
X0346678Y0264429D02*
X0286392Y0264429D01*
X0285246Y0265627D02*
X0346255Y0265627D01*
X0345832Y0266826D02*
X0283783Y0266826D01*
X0285647Y0268024D02*
X0345207Y0268024D01*
X0344551Y0269223D02*
X0286558Y0269223D01*
X0287054Y0270421D02*
X0343895Y0270421D01*
X0343239Y0271620D02*
X0287132Y0271620D01*
X0287059Y0272818D02*
X0342583Y0272818D01*
X0341927Y0274017D02*
X0286563Y0274017D01*
X0285658Y0275215D02*
X0341271Y0275215D01*
X0340615Y0276414D02*
X0283811Y0276414D01*
X0285235Y0277612D02*
X0339959Y0277612D01*
X0339303Y0278811D02*
X0286387Y0278811D01*
X0286884Y0280009D02*
X0338533Y0280009D01*
X0337727Y0281208D02*
X0287132Y0281208D01*
X0287132Y0282406D02*
X0336922Y0282406D01*
X0336116Y0283605D02*
X0286733Y0283605D01*
X0286070Y0284803D02*
X0335310Y0284803D01*
X0334504Y0286002D02*
X0284805Y0286002D01*
X0279246Y0286002D02*
X0213281Y0286002D01*
X0213432Y0286369D02*
X0212777Y0284786D01*
X0211565Y0283574D01*
X0209982Y0282918D01*
X0208269Y0282918D01*
X0206686Y0283574D01*
X0205474Y0284786D01*
X0204818Y0286369D01*
X0204818Y0288082D01*
X0205474Y0289665D01*
X0206686Y0290877D01*
X0208269Y0291532D01*
X0209982Y0291532D01*
X0211565Y0290877D01*
X0212777Y0289665D01*
X0213432Y0288082D01*
X0213432Y0286369D01*
X0213432Y0287200D02*
X0333699Y0287200D01*
X0332893Y0288399D02*
X0213301Y0288399D01*
X0212805Y0289597D02*
X0332087Y0289597D01*
X0331281Y0290796D02*
X0211646Y0290796D01*
X0210645Y0293193D02*
X0329593Y0293193D01*
X0330476Y0291994D02*
X0192832Y0291994D01*
X0192832Y0290796D02*
X0206605Y0290796D01*
X0205446Y0289597D02*
X0192832Y0289597D01*
X0192832Y0288399D02*
X0204950Y0288399D01*
X0204818Y0287200D02*
X0192832Y0287200D01*
X0192832Y0286002D02*
X0204970Y0286002D01*
X0205467Y0284803D02*
X0192832Y0284803D01*
X0192832Y0283605D02*
X0206655Y0283605D01*
X0207485Y0281208D02*
X0192832Y0281208D01*
X0192832Y0282406D02*
X0276918Y0282406D01*
X0276918Y0281208D02*
X0210766Y0281208D01*
X0209982Y0281532D02*
X0208269Y0281532D01*
X0206686Y0280877D01*
X0205474Y0279665D01*
X0204818Y0278082D01*
X0204818Y0276369D01*
X0205474Y0274786D01*
X0206686Y0273574D01*
X0208269Y0272918D01*
X0209982Y0272918D01*
X0211565Y0273574D01*
X0212777Y0274786D01*
X0213432Y0276369D01*
X0213432Y0278082D01*
X0212777Y0279665D01*
X0211565Y0280877D01*
X0209982Y0281532D01*
X0211596Y0283605D02*
X0277317Y0283605D01*
X0277981Y0284803D02*
X0212784Y0284803D01*
X0212433Y0280009D02*
X0277167Y0280009D01*
X0277663Y0278811D02*
X0213131Y0278811D01*
X0213432Y0277612D02*
X0278816Y0277612D01*
X0280240Y0276414D02*
X0213432Y0276414D01*
X0212955Y0275215D02*
X0278393Y0275215D01*
X0277488Y0274017D02*
X0212008Y0274017D01*
X0211565Y0270877D02*
X0209982Y0271532D01*
X0208269Y0271532D01*
X0206686Y0270877D01*
X0205474Y0269665D01*
X0204818Y0268082D01*
X0204818Y0266369D01*
X0205474Y0264786D01*
X0206686Y0263574D01*
X0208269Y0262918D01*
X0209982Y0262918D01*
X0211565Y0263574D01*
X0212777Y0264786D01*
X0213432Y0266369D01*
X0213432Y0268082D01*
X0212777Y0269665D01*
X0211565Y0270877D01*
X0212021Y0270421D02*
X0276996Y0270421D01*
X0276918Y0271620D02*
X0192832Y0271620D01*
X0192832Y0272818D02*
X0276992Y0272818D01*
X0277493Y0269223D02*
X0212960Y0269223D01*
X0213432Y0268024D02*
X0278404Y0268024D01*
X0280268Y0266826D02*
X0213432Y0266826D01*
X0213125Y0265627D02*
X0278805Y0265627D01*
X0277659Y0264429D02*
X0212420Y0264429D01*
X0210735Y0263230D02*
X0277162Y0263230D01*
X0276918Y0262032D02*
X0192832Y0262032D01*
X0192832Y0263230D02*
X0207516Y0263230D01*
X0205831Y0264429D02*
X0192832Y0264429D01*
X0192832Y0265627D02*
X0205125Y0265627D01*
X0204818Y0266826D02*
X0192832Y0266826D01*
X0192832Y0268024D02*
X0204818Y0268024D01*
X0205291Y0269223D02*
X0192832Y0269223D01*
X0192832Y0270421D02*
X0206230Y0270421D01*
X0206243Y0274017D02*
X0192832Y0274017D01*
X0192832Y0275215D02*
X0205296Y0275215D01*
X0204818Y0276414D02*
X0192832Y0276414D01*
X0192832Y0277612D02*
X0204818Y0277612D01*
X0205120Y0278811D02*
X0192832Y0278811D01*
X0192832Y0280009D02*
X0205818Y0280009D01*
X0208269Y0292918D02*
X0206686Y0293574D01*
X0205474Y0294786D01*
X0204818Y0296369D01*
X0204818Y0298082D01*
X0205474Y0299665D01*
X0206686Y0300877D01*
X0208269Y0301532D01*
X0209982Y0301532D01*
X0211565Y0300877D01*
X0212777Y0299665D01*
X0213432Y0298082D01*
X0213432Y0296369D01*
X0212777Y0294786D01*
X0211565Y0293574D01*
X0209982Y0292918D01*
X0208269Y0292918D01*
X0207606Y0293193D02*
X0192832Y0293193D01*
X0192832Y0294391D02*
X0205868Y0294391D01*
X0205141Y0295590D02*
X0192832Y0295590D01*
X0192832Y0296788D02*
X0204818Y0296788D01*
X0204818Y0297987D02*
X0192832Y0297987D01*
X0192832Y0299185D02*
X0205275Y0299185D01*
X0206193Y0300384D02*
X0192832Y0300384D01*
X0192832Y0301582D02*
X0246918Y0301582D01*
X0246918Y0300384D02*
X0212058Y0300384D01*
X0212975Y0299185D02*
X0246918Y0299185D01*
X0246918Y0297987D02*
X0213432Y0297987D01*
X0213432Y0296788D02*
X0247472Y0296788D01*
X0247743Y0296518D02*
X0256308Y0296518D01*
X0257132Y0297343D01*
X0257132Y0300093D01*
X0257696Y0298732D01*
X0259132Y0297296D01*
X0261010Y0296518D01*
X0263041Y0296518D01*
X0264918Y0297296D01*
X0266355Y0298732D01*
X0267025Y0300351D01*
X0267696Y0298732D01*
X0269132Y0297296D01*
X0271010Y0296518D01*
X0273041Y0296518D01*
X0274918Y0297296D01*
X0276355Y0298732D01*
X0277025Y0300351D01*
X0277696Y0298732D01*
X0279132Y0297296D01*
X0281010Y0296518D01*
X0283041Y0296518D01*
X0284918Y0297296D01*
X0286355Y0298732D01*
X0287132Y0300610D01*
X0287132Y0302641D01*
X0286355Y0304518D01*
X0284918Y0305955D01*
X0283041Y0306732D01*
X0281010Y0306732D01*
X0279132Y0305955D01*
X0277696Y0304518D01*
X0277025Y0302900D01*
X0276355Y0304518D01*
X0274918Y0305955D01*
X0273041Y0306732D01*
X0271010Y0306732D01*
X0269132Y0305955D01*
X0267696Y0304518D01*
X0267025Y0302900D01*
X0266355Y0304518D01*
X0264918Y0305955D01*
X0263041Y0306732D01*
X0261010Y0306732D01*
X0259132Y0305955D01*
X0257696Y0304518D01*
X0257132Y0303158D01*
X0257132Y0305908D01*
X0256308Y0306732D01*
X0247743Y0306732D01*
X0246918Y0305908D01*
X0246918Y0297343D01*
X0247743Y0296518D01*
X0246918Y0302781D02*
X0192832Y0302781D01*
X0192832Y0303980D02*
X0196280Y0303980D01*
X0196686Y0303574D02*
X0198269Y0302918D01*
X0199982Y0302918D01*
X0201565Y0303574D01*
X0202777Y0304786D01*
X0203432Y0306369D01*
X0203432Y0308082D01*
X0202777Y0309665D01*
X0201565Y0310877D01*
X0199982Y0311532D01*
X0198269Y0311532D01*
X0196686Y0310877D01*
X0195474Y0309665D01*
X0194818Y0308082D01*
X0194818Y0306369D01*
X0195474Y0304786D01*
X0196686Y0303574D01*
X0195311Y0305178D02*
X0192832Y0305178D01*
X0192832Y0306377D02*
X0194818Y0306377D01*
X0194818Y0307575D02*
X0192832Y0307575D01*
X0192832Y0308774D02*
X0195105Y0308774D01*
X0195781Y0309972D02*
X0192832Y0309972D01*
X0192832Y0311171D02*
X0197395Y0311171D01*
X0198269Y0312918D02*
X0196686Y0313574D01*
X0195474Y0314786D01*
X0194818Y0316369D01*
X0194818Y0318082D01*
X0195474Y0319665D01*
X0196686Y0320877D01*
X0198269Y0321532D01*
X0199982Y0321532D01*
X0201565Y0320877D01*
X0202777Y0319665D01*
X0203432Y0318082D01*
X0203432Y0316369D01*
X0202777Y0314786D01*
X0201565Y0313574D01*
X0199982Y0312918D01*
X0198269Y0312918D01*
X0196701Y0313568D02*
X0192832Y0313568D01*
X0192832Y0314766D02*
X0195494Y0314766D01*
X0194986Y0315965D02*
X0192832Y0315965D01*
X0192832Y0317163D02*
X0194818Y0317163D01*
X0194934Y0318362D02*
X0192832Y0318362D01*
X0192832Y0319560D02*
X0195431Y0319560D01*
X0196568Y0320759D02*
X0192832Y0320759D01*
X0192832Y0321957D02*
X0271771Y0321957D01*
X0272132Y0321596D02*
X0274010Y0320818D01*
X0276041Y0320818D01*
X0277918Y0321596D01*
X0279355Y0323032D01*
X0280132Y0324910D01*
X0280132Y0334341D01*
X0279355Y0336218D01*
X0277918Y0337655D01*
X0276041Y0338432D01*
X0274010Y0338432D01*
X0272132Y0337655D01*
X0270696Y0336218D01*
X0269918Y0334341D01*
X0269918Y0324910D01*
X0270696Y0323032D01*
X0272132Y0321596D01*
X0270645Y0323156D02*
X0210555Y0323156D01*
X0209982Y0322918D02*
X0211565Y0323574D01*
X0212777Y0324786D01*
X0213432Y0326369D01*
X0213432Y0328082D01*
X0212777Y0329665D01*
X0211565Y0330877D01*
X0209982Y0331532D01*
X0208269Y0331532D01*
X0206686Y0330877D01*
X0205474Y0329665D01*
X0204818Y0328082D01*
X0204818Y0326369D01*
X0205474Y0324786D01*
X0206686Y0323574D01*
X0208269Y0322918D01*
X0209982Y0322918D01*
X0209982Y0321532D02*
X0208269Y0321532D01*
X0206686Y0320877D01*
X0205474Y0319665D01*
X0204818Y0318082D01*
X0204818Y0316369D01*
X0205474Y0314786D01*
X0206686Y0313574D01*
X0208269Y0312918D01*
X0209982Y0312918D01*
X0211565Y0313574D01*
X0212777Y0314786D01*
X0213432Y0316369D01*
X0213432Y0318082D01*
X0212777Y0319665D01*
X0211565Y0320877D01*
X0209982Y0321532D01*
X0211683Y0320759D02*
X0294019Y0320759D01*
X0294019Y0319560D02*
X0212820Y0319560D01*
X0213317Y0318362D02*
X0294019Y0318362D01*
X0294019Y0317163D02*
X0213432Y0317163D01*
X0213265Y0315965D02*
X0294019Y0315965D01*
X0294019Y0314766D02*
X0212757Y0314766D01*
X0211550Y0313568D02*
X0294019Y0313568D01*
X0294019Y0312369D02*
X0192832Y0312369D01*
X0189018Y0312369D02*
X0165332Y0312369D01*
X0165332Y0311171D02*
X0189018Y0311171D01*
X0189018Y0309972D02*
X0165332Y0309972D01*
X0165332Y0308774D02*
X0189018Y0308774D01*
X0189018Y0307575D02*
X0165332Y0307575D01*
X0165332Y0306377D02*
X0189018Y0306377D01*
X0189018Y0305178D02*
X0165332Y0305178D01*
X0165332Y0303980D02*
X0189018Y0303980D01*
X0189018Y0302781D02*
X0165332Y0302781D01*
X0165332Y0301582D02*
X0189018Y0301582D01*
X0189018Y0300384D02*
X0165332Y0300384D01*
X0165332Y0299185D02*
X0189018Y0299185D01*
X0189018Y0297987D02*
X0165332Y0297987D01*
X0165332Y0296788D02*
X0189018Y0296788D01*
X0189018Y0295590D02*
X0165332Y0295590D01*
X0165332Y0294391D02*
X0189018Y0294391D01*
X0189018Y0293193D02*
X0165332Y0293193D01*
X0165332Y0291994D02*
X0189018Y0291994D01*
X0189018Y0290796D02*
X0165332Y0290796D01*
X0165332Y0289597D02*
X0189018Y0289597D01*
X0189018Y0288399D02*
X0165332Y0288399D01*
X0165332Y0287200D02*
X0189018Y0287200D01*
X0189018Y0286002D02*
X0165332Y0286002D01*
X0165332Y0284803D02*
X0189018Y0284803D01*
X0189018Y0283605D02*
X0165332Y0283605D01*
X0165332Y0282406D02*
X0189018Y0282406D01*
X0189018Y0281208D02*
X0165332Y0281208D01*
X0165332Y0280009D02*
X0189018Y0280009D01*
X0189018Y0278811D02*
X0165332Y0278811D01*
X0165332Y0277612D02*
X0189018Y0277612D01*
X0189018Y0276414D02*
X0165332Y0276414D01*
X0165332Y0275215D02*
X0189018Y0275215D01*
X0189018Y0274017D02*
X0165332Y0274017D01*
X0165332Y0272818D02*
X0189018Y0272818D01*
X0189018Y0271620D02*
X0165332Y0271620D01*
X0165332Y0270421D02*
X0189018Y0270421D01*
X0189018Y0269223D02*
X0165332Y0269223D01*
X0165332Y0268024D02*
X0189018Y0268024D01*
X0189018Y0266826D02*
X0165332Y0266826D01*
X0165332Y0265627D02*
X0189018Y0265627D01*
X0189018Y0264429D02*
X0165332Y0264429D01*
X0165332Y0263230D02*
X0189018Y0263230D01*
X0189018Y0262032D02*
X0165332Y0262032D01*
X0165332Y0260833D02*
X0189018Y0260833D01*
X0189018Y0259635D02*
X0165332Y0259635D01*
X0165332Y0258436D02*
X0189018Y0258436D01*
X0189018Y0257238D02*
X0165332Y0257238D01*
X0165332Y0256039D02*
X0189018Y0256039D01*
X0189018Y0254841D02*
X0165332Y0254841D01*
X0165332Y0253642D02*
X0189018Y0253642D01*
X0189018Y0252444D02*
X0165332Y0252444D01*
X0165332Y0251245D02*
X0189018Y0251245D01*
X0189018Y0250046D02*
X0165332Y0250046D01*
X0165332Y0248848D02*
X0188051Y0248848D01*
X0186852Y0247649D02*
X0165332Y0247649D01*
X0165332Y0246451D02*
X0185654Y0246451D01*
X0184455Y0245252D02*
X0165332Y0245252D01*
X0165332Y0244054D02*
X0183257Y0244054D01*
X0182058Y0242855D02*
X0165332Y0242855D01*
X0165332Y0241657D02*
X0180860Y0241657D01*
X0179661Y0240458D02*
X0165332Y0240458D01*
X0165332Y0239260D02*
X0178463Y0239260D01*
X0177264Y0238061D02*
X0165332Y0238061D01*
X0165332Y0236863D02*
X0176066Y0236863D01*
X0174867Y0235664D02*
X0165332Y0235664D01*
X0165332Y0234466D02*
X0173669Y0234466D01*
X0172470Y0233267D02*
X0165332Y0233267D01*
X0165332Y0232069D02*
X0171272Y0232069D01*
X0174269Y0229672D02*
X0175341Y0229672D01*
X0175277Y0229584D02*
X0174955Y0228953D01*
X0174736Y0228279D01*
X0174625Y0227580D01*
X0174625Y0227575D01*
X0178775Y0227575D01*
X0178775Y0226875D01*
X0179475Y0226875D01*
X0179475Y0222725D01*
X0179480Y0222725D01*
X0180179Y0222836D01*
X0180853Y0223055D01*
X0181484Y0223377D01*
X0182057Y0223793D01*
X0182558Y0224294D01*
X0182974Y0224867D01*
X0183296Y0225498D01*
X0183515Y0226172D01*
X0183625Y0226871D01*
X0183625Y0226875D01*
X0179475Y0226875D01*
X0179475Y0227575D01*
X0183625Y0227575D01*
X0183625Y0227580D01*
X0183515Y0228279D01*
X0183296Y0228953D01*
X0182974Y0229584D01*
X0182558Y0230157D01*
X0182057Y0230658D01*
X0181484Y0231074D01*
X0180853Y0231396D01*
X0180179Y0231615D01*
X0179480Y0231725D01*
X0179475Y0231725D01*
X0179475Y0227575D01*
X0178775Y0227575D01*
X0178775Y0231725D01*
X0178771Y0231725D01*
X0178072Y0231615D01*
X0177398Y0231396D01*
X0176767Y0231074D01*
X0176194Y0230658D01*
X0175693Y0230157D01*
X0175277Y0229584D01*
X0174799Y0228473D02*
X0173270Y0228473D01*
X0173432Y0227275D02*
X0178775Y0227275D01*
X0178775Y0226875D02*
X0174625Y0226875D01*
X0174625Y0226871D01*
X0174736Y0226172D01*
X0174955Y0225498D01*
X0175277Y0224867D01*
X0175693Y0224294D01*
X0176194Y0223793D01*
X0176767Y0223377D01*
X0177398Y0223055D01*
X0178072Y0222836D01*
X0178771Y0222725D01*
X0178775Y0222725D01*
X0178775Y0226875D01*
X0178775Y0226076D02*
X0179475Y0226076D01*
X0179475Y0224878D02*
X0178775Y0224878D01*
X0178775Y0223679D02*
X0179475Y0223679D01*
X0181900Y0223679D02*
X0186580Y0223679D01*
X0186686Y0223574D02*
X0188269Y0222918D01*
X0189982Y0222918D01*
X0191565Y0223574D01*
X0192777Y0224786D01*
X0193432Y0226369D01*
X0193432Y0228082D01*
X0192777Y0229665D01*
X0191565Y0230877D01*
X0189982Y0231532D01*
X0188269Y0231532D01*
X0186686Y0230877D01*
X0185474Y0229665D01*
X0184818Y0228082D01*
X0184818Y0226369D01*
X0185474Y0224786D01*
X0186686Y0223574D01*
X0185436Y0224878D02*
X0182980Y0224878D01*
X0183484Y0226076D02*
X0184939Y0226076D01*
X0184818Y0227275D02*
X0179475Y0227275D01*
X0179475Y0228473D02*
X0178775Y0228473D01*
X0178775Y0229672D02*
X0179475Y0229672D01*
X0179475Y0230870D02*
X0178775Y0230870D01*
X0176486Y0230870D02*
X0175467Y0230870D01*
X0176666Y0232069D02*
X0202685Y0232069D01*
X0201565Y0230877D02*
X0199982Y0231532D01*
X0198269Y0231532D01*
X0196686Y0230877D01*
X0195474Y0229665D01*
X0194818Y0228082D01*
X0194818Y0226369D01*
X0195474Y0224786D01*
X0196686Y0223574D01*
X0198269Y0222918D01*
X0199982Y0222918D01*
X0201565Y0223574D01*
X0202777Y0224786D01*
X0203432Y0226369D01*
X0203432Y0228082D01*
X0202777Y0229665D01*
X0201565Y0230877D01*
X0201572Y0230870D02*
X0203883Y0230870D01*
X0202770Y0229672D02*
X0205082Y0229672D01*
X0204980Y0228473D02*
X0203270Y0228473D01*
X0203432Y0227275D02*
X0204818Y0227275D01*
X0204939Y0226076D02*
X0203311Y0226076D01*
X0202815Y0224878D02*
X0205436Y0224878D01*
X0206580Y0223679D02*
X0201670Y0223679D01*
X0196580Y0223679D02*
X0191670Y0223679D01*
X0192815Y0224878D02*
X0195436Y0224878D01*
X0194939Y0226076D02*
X0193311Y0226076D01*
X0193432Y0227275D02*
X0194818Y0227275D01*
X0194980Y0228473D02*
X0193270Y0228473D01*
X0192770Y0229672D02*
X0195481Y0229672D01*
X0196679Y0230870D02*
X0191572Y0230870D01*
X0186679Y0230870D02*
X0181764Y0230870D01*
X0182910Y0229672D02*
X0185481Y0229672D01*
X0184980Y0228473D02*
X0183452Y0228473D01*
X0177864Y0233267D02*
X0201486Y0233267D01*
X0200288Y0234466D02*
X0179063Y0234466D01*
X0180261Y0235664D02*
X0199089Y0235664D01*
X0197891Y0236863D02*
X0181460Y0236863D01*
X0182658Y0238061D02*
X0196692Y0238061D01*
X0195494Y0239260D02*
X0183857Y0239260D01*
X0185055Y0240458D02*
X0194295Y0240458D01*
X0194018Y0241657D02*
X0186254Y0241657D01*
X0187452Y0242855D02*
X0194018Y0242855D01*
X0194018Y0244054D02*
X0188651Y0244054D01*
X0189849Y0245252D02*
X0194018Y0245252D01*
X0194018Y0246451D02*
X0191048Y0246451D01*
X0192246Y0247649D02*
X0194018Y0247649D01*
X0194018Y0248848D02*
X0192832Y0248848D01*
X0192832Y0250046D02*
X0194018Y0250046D01*
X0194018Y0251245D02*
X0192832Y0251245D01*
X0192832Y0252444D02*
X0194018Y0252444D01*
X0193990Y0253642D02*
X0192832Y0253642D01*
X0192832Y0254841D02*
X0192935Y0254841D01*
X0192832Y0258436D02*
X0193029Y0258436D01*
X0192832Y0259635D02*
X0194529Y0259635D01*
X0192832Y0260833D02*
X0206642Y0260833D01*
X0205461Y0259635D02*
X0197322Y0259635D01*
X0198822Y0258436D02*
X0204965Y0258436D01*
X0204818Y0257238D02*
X0199318Y0257238D01*
X0199332Y0256039D02*
X0204955Y0256039D01*
X0205451Y0254841D02*
X0198915Y0254841D01*
X0197860Y0253642D02*
X0206618Y0253642D01*
X0213286Y0258436D02*
X0277992Y0258436D01*
X0277322Y0259635D02*
X0212789Y0259635D01*
X0211609Y0260833D02*
X0276918Y0260833D01*
X0279273Y0257238D02*
X0217832Y0257238D01*
X0217832Y0256039D02*
X0309792Y0256039D01*
X0309792Y0256828D02*
X0304892Y0256828D01*
X0304892Y0256845D01*
X0305023Y0257669D01*
X0305281Y0258462D01*
X0305660Y0259206D01*
X0306150Y0259880D01*
X0306740Y0260470D01*
X0307415Y0260961D01*
X0308158Y0261339D01*
X0308951Y0261597D01*
X0309775Y0261728D01*
X0309792Y0261728D01*
X0309792Y0256828D01*
X0309792Y0257238D02*
X0310592Y0257238D01*
X0310592Y0258436D02*
X0309792Y0258436D01*
X0309792Y0259635D02*
X0310592Y0259635D01*
X0310592Y0260833D02*
X0309792Y0260833D01*
X0307239Y0260833D02*
X0287132Y0260833D01*
X0286729Y0259635D02*
X0305971Y0259635D01*
X0305272Y0258436D02*
X0286059Y0258436D01*
X0284778Y0257238D02*
X0304955Y0257238D01*
X0305135Y0254841D02*
X0217832Y0254841D01*
X0217832Y0253642D02*
X0305665Y0253642D01*
X0306681Y0252444D02*
X0217832Y0252444D01*
X0176350Y0223679D02*
X0171670Y0223679D01*
X0172815Y0224878D02*
X0175271Y0224878D01*
X0174767Y0226076D02*
X0173311Y0226076D01*
X0166580Y0223679D02*
X0165332Y0223679D01*
X0165332Y0224878D02*
X0165436Y0224878D01*
X0165481Y0229672D02*
X0165332Y0229672D01*
X0165332Y0230870D02*
X0166679Y0230870D01*
X0161518Y0232069D02*
X0124166Y0232069D01*
X0136818Y0241657D02*
X0161518Y0241657D01*
X0161518Y0242855D02*
X0138544Y0242855D01*
X0139398Y0244054D02*
X0146206Y0244054D01*
X0146686Y0243574D02*
X0148269Y0242918D01*
X0149982Y0242918D01*
X0151565Y0243574D01*
X0152777Y0244786D01*
X0153432Y0246369D01*
X0153432Y0248082D01*
X0152777Y0249665D01*
X0151565Y0250877D01*
X0149982Y0251532D01*
X0148269Y0251532D01*
X0146686Y0250877D01*
X0145474Y0249665D01*
X0144818Y0248082D01*
X0144818Y0246369D01*
X0145474Y0244786D01*
X0146686Y0243574D01*
X0145281Y0245252D02*
X0139895Y0245252D01*
X0139933Y0246451D02*
X0144818Y0246451D01*
X0144818Y0247649D02*
X0139819Y0247649D01*
X0139323Y0248848D02*
X0145136Y0248848D01*
X0145855Y0250046D02*
X0138361Y0250046D01*
X0136376Y0251245D02*
X0147575Y0251245D01*
X0148269Y0252918D02*
X0149982Y0252918D01*
X0151565Y0253574D01*
X0152777Y0254786D01*
X0153432Y0256369D01*
X0153432Y0258082D01*
X0152777Y0259665D01*
X0151565Y0260877D01*
X0149982Y0261532D01*
X0148269Y0261532D01*
X0146686Y0260877D01*
X0145474Y0259665D01*
X0144818Y0258082D01*
X0144818Y0256369D01*
X0145474Y0254786D01*
X0146686Y0253574D01*
X0148269Y0252918D01*
X0146618Y0253642D02*
X0139228Y0253642D01*
X0139724Y0254841D02*
X0145451Y0254841D01*
X0144955Y0256039D02*
X0139933Y0256039D01*
X0139933Y0257238D02*
X0144818Y0257238D01*
X0144965Y0258436D02*
X0139493Y0258436D01*
X0138773Y0259635D02*
X0145461Y0259635D01*
X0146642Y0260833D02*
X0137371Y0260833D01*
X0137720Y0262032D02*
X0161518Y0262032D01*
X0161518Y0263230D02*
X0150735Y0263230D01*
X0149982Y0262918D02*
X0151565Y0263574D01*
X0152777Y0264786D01*
X0153432Y0266369D01*
X0153432Y0268082D01*
X0152777Y0269665D01*
X0151565Y0270877D01*
X0149982Y0271532D01*
X0148269Y0271532D01*
X0146686Y0270877D01*
X0145474Y0269665D01*
X0144818Y0268082D01*
X0144818Y0266369D01*
X0145474Y0264786D01*
X0146686Y0263574D01*
X0148269Y0262918D01*
X0149982Y0262918D01*
X0147516Y0263230D02*
X0138919Y0263230D01*
X0139554Y0264429D02*
X0145831Y0264429D01*
X0145125Y0265627D02*
X0139933Y0265627D01*
X0139933Y0266826D02*
X0144818Y0266826D01*
X0144818Y0268024D02*
X0139664Y0268024D01*
X0139167Y0269223D02*
X0145291Y0269223D01*
X0146230Y0270421D02*
X0137986Y0270421D01*
X0136728Y0271620D02*
X0161518Y0271620D01*
X0161518Y0272818D02*
X0138507Y0272818D01*
X0139383Y0274017D02*
X0146243Y0274017D01*
X0146686Y0273574D02*
X0148269Y0272918D01*
X0149982Y0272918D01*
X0151565Y0273574D01*
X0152777Y0274786D01*
X0153432Y0276369D01*
X0153432Y0278082D01*
X0152777Y0279665D01*
X0151565Y0280877D01*
X0149982Y0281532D01*
X0148269Y0281532D01*
X0146686Y0280877D01*
X0145474Y0279665D01*
X0144818Y0278082D01*
X0144818Y0276369D01*
X0145474Y0274786D01*
X0146686Y0273574D01*
X0145296Y0275215D02*
X0139879Y0275215D01*
X0139933Y0276414D02*
X0144818Y0276414D01*
X0144818Y0277612D02*
X0139834Y0277612D01*
X0139338Y0278811D02*
X0145120Y0278811D01*
X0145818Y0280009D02*
X0138398Y0280009D01*
X0136466Y0281208D02*
X0147485Y0281208D01*
X0148269Y0282918D02*
X0149982Y0282918D01*
X0151565Y0283574D01*
X0152777Y0284786D01*
X0153432Y0286369D01*
X0153432Y0288082D01*
X0152777Y0289665D01*
X0151565Y0290877D01*
X0149982Y0291532D01*
X0148269Y0291532D01*
X0146686Y0290877D01*
X0145474Y0289665D01*
X0144818Y0288082D01*
X0144818Y0286369D01*
X0145474Y0284786D01*
X0146686Y0283574D01*
X0148269Y0282918D01*
X0146655Y0283605D02*
X0139212Y0283605D01*
X0139709Y0284803D02*
X0145467Y0284803D01*
X0144970Y0286002D02*
X0139933Y0286002D01*
X0139933Y0287200D02*
X0144818Y0287200D01*
X0144950Y0288399D02*
X0139509Y0288399D01*
X0138810Y0289597D02*
X0145446Y0289597D01*
X0146605Y0290796D02*
X0137461Y0290796D01*
X0137633Y0291994D02*
X0161518Y0291994D01*
X0161518Y0290796D02*
X0151646Y0290796D01*
X0152805Y0289597D02*
X0161518Y0289597D01*
X0161518Y0288399D02*
X0153301Y0288399D01*
X0153432Y0287200D02*
X0161518Y0287200D01*
X0161518Y0286002D02*
X0153281Y0286002D01*
X0152784Y0284803D02*
X0161518Y0284803D01*
X0161518Y0283605D02*
X0151596Y0283605D01*
X0150766Y0281208D02*
X0161518Y0281208D01*
X0161518Y0282406D02*
X0138095Y0282406D01*
X0133185Y0281208D02*
X0127832Y0281208D01*
X0127832Y0282406D02*
X0131556Y0282406D01*
X0130439Y0283605D02*
X0127832Y0283605D01*
X0127832Y0284803D02*
X0129942Y0284803D01*
X0129718Y0286002D02*
X0127832Y0286002D01*
X0127832Y0287200D02*
X0129718Y0287200D01*
X0130142Y0288399D02*
X0127832Y0288399D01*
X0127832Y0289597D02*
X0130841Y0289597D01*
X0132190Y0290796D02*
X0127832Y0290796D01*
X0127832Y0291994D02*
X0132018Y0291994D01*
X0130770Y0293193D02*
X0127832Y0293193D01*
X0127832Y0294391D02*
X0130113Y0294391D01*
X0129718Y0295590D02*
X0127832Y0295590D01*
X0127832Y0296788D02*
X0129718Y0296788D01*
X0129972Y0297987D02*
X0127832Y0297987D01*
X0127832Y0299185D02*
X0130468Y0299185D01*
X0131627Y0300384D02*
X0127832Y0300384D01*
X0127832Y0301582D02*
X0132527Y0301582D01*
X0130909Y0302781D02*
X0127832Y0302781D01*
X0127832Y0303980D02*
X0130090Y0303980D01*
X0129647Y0305178D02*
X0127832Y0305178D01*
X0127832Y0306377D02*
X0134425Y0306377D01*
X0135226Y0306377D02*
X0144818Y0306377D01*
X0144818Y0306369D02*
X0145474Y0304786D01*
X0146686Y0303574D01*
X0148269Y0302918D01*
X0149982Y0302918D01*
X0151565Y0303574D01*
X0152777Y0304786D01*
X0153432Y0306369D01*
X0153432Y0308082D01*
X0152777Y0309665D01*
X0151565Y0310877D01*
X0149982Y0311532D01*
X0148269Y0311532D01*
X0146686Y0310877D01*
X0145474Y0309665D01*
X0144818Y0308082D01*
X0144818Y0306369D01*
X0144818Y0307575D02*
X0139999Y0307575D01*
X0139544Y0308774D02*
X0145105Y0308774D01*
X0145781Y0309972D02*
X0138708Y0309972D01*
X0137057Y0311171D02*
X0147395Y0311171D01*
X0148269Y0312918D02*
X0149982Y0312918D01*
X0151565Y0313574D01*
X0152777Y0314786D01*
X0153432Y0316369D01*
X0153432Y0318082D01*
X0152777Y0319665D01*
X0151565Y0320877D01*
X0149982Y0321532D01*
X0148269Y0321532D01*
X0146686Y0320877D01*
X0145474Y0319665D01*
X0144818Y0318082D01*
X0144818Y0316369D01*
X0145474Y0314786D01*
X0146686Y0313574D01*
X0148269Y0312918D01*
X0146701Y0313568D02*
X0127832Y0313568D01*
X0127832Y0314766D02*
X0145494Y0314766D01*
X0144986Y0315965D02*
X0127832Y0315965D01*
X0127832Y0317163D02*
X0144818Y0317163D01*
X0144934Y0318362D02*
X0127832Y0318362D01*
X0127832Y0319560D02*
X0145431Y0319560D01*
X0146568Y0320759D02*
X0127832Y0320759D01*
X0127832Y0321957D02*
X0160297Y0321957D01*
X0161495Y0320759D02*
X0151683Y0320759D01*
X0152820Y0319560D02*
X0161518Y0319560D01*
X0161518Y0318362D02*
X0153317Y0318362D01*
X0153432Y0317163D02*
X0161518Y0317163D01*
X0161518Y0315965D02*
X0153265Y0315965D01*
X0152757Y0314766D02*
X0161518Y0314766D01*
X0161518Y0313568D02*
X0151550Y0313568D01*
X0150856Y0311171D02*
X0161518Y0311171D01*
X0161518Y0312369D02*
X0127832Y0312369D01*
X0127832Y0311171D02*
X0132594Y0311171D01*
X0134425Y0311171D02*
X0135225Y0311171D01*
X0135225Y0309972D02*
X0134425Y0309972D01*
X0134425Y0308774D02*
X0135225Y0308774D01*
X0135225Y0307575D02*
X0134425Y0307575D01*
X0130943Y0309972D02*
X0127832Y0309972D01*
X0127832Y0308774D02*
X0130107Y0308774D01*
X0129652Y0307575D02*
X0127832Y0307575D01*
X0124018Y0307575D02*
X0054386Y0307575D01*
X0053317Y0306377D02*
X0124018Y0306377D01*
X0124018Y0305178D02*
X0052247Y0305178D01*
X0051178Y0303980D02*
X0124018Y0303980D01*
X0124018Y0302781D02*
X0050109Y0302781D01*
X0049040Y0301582D02*
X0124018Y0301582D01*
X0124018Y0300384D02*
X0047970Y0300384D01*
X0046901Y0299185D02*
X0124018Y0299185D01*
X0124018Y0297987D02*
X0046000Y0297987D01*
X0045112Y0296788D02*
X0124018Y0296788D01*
X0124018Y0295590D02*
X0044225Y0295590D01*
X0043337Y0294391D02*
X0124018Y0294391D01*
X0124018Y0293193D02*
X0042450Y0293193D01*
X0041562Y0291994D02*
X0124018Y0291994D01*
X0124018Y0290796D02*
X0040674Y0290796D01*
X0039787Y0289597D02*
X0124018Y0289597D01*
X0124018Y0288399D02*
X0038899Y0288399D01*
X0038012Y0287200D02*
X0124018Y0287200D01*
X0124018Y0286002D02*
X0037124Y0286002D01*
X0036392Y0284803D02*
X0124018Y0284803D01*
X0124018Y0283605D02*
X0035663Y0283605D01*
X0034934Y0282406D02*
X0124018Y0282406D01*
X0124018Y0281208D02*
X0034206Y0281208D01*
X0033477Y0280009D02*
X0124018Y0280009D01*
X0124018Y0278811D02*
X0032748Y0278811D01*
X0032019Y0277612D02*
X0124018Y0277612D01*
X0124018Y0276414D02*
X0031290Y0276414D01*
X0030561Y0275215D02*
X0124018Y0275215D01*
X0124018Y0274017D02*
X0029833Y0274017D01*
X0029104Y0272818D02*
X0124018Y0272818D01*
X0124018Y0271620D02*
X0028423Y0271620D01*
X0027837Y0270421D02*
X0124018Y0270421D01*
X0124018Y0269223D02*
X0027250Y0269223D01*
X0055455Y0308774D02*
X0124018Y0308774D01*
X0124018Y0309972D02*
X0056525Y0309972D01*
X0057594Y0311171D02*
X0124018Y0311171D01*
X0124018Y0312369D02*
X0058858Y0312369D01*
X0060142Y0313568D02*
X0124018Y0313568D01*
X0124018Y0314766D02*
X0061425Y0314766D01*
X0062708Y0315965D02*
X0124018Y0315965D01*
X0124018Y0317163D02*
X0108286Y0317163D01*
X0108018Y0316896D02*
X0109455Y0318332D01*
X0110232Y0320210D01*
X0110232Y0329641D01*
X0109455Y0331518D01*
X0108018Y0332955D01*
X0106141Y0333732D01*
X0104110Y0333732D01*
X0102232Y0332955D01*
X0100796Y0331518D01*
X0100018Y0329641D01*
X0100018Y0320210D01*
X0100796Y0318332D01*
X0102232Y0316896D01*
X0104110Y0316118D01*
X0106141Y0316118D01*
X0108018Y0316896D01*
X0109467Y0318362D02*
X0124018Y0318362D01*
X0124018Y0319560D02*
X0109963Y0319560D01*
X0110232Y0320759D02*
X0124018Y0320759D01*
X0124018Y0321957D02*
X0110232Y0321957D01*
X0110232Y0323156D02*
X0124018Y0323156D01*
X0124018Y0324354D02*
X0110232Y0324354D01*
X0110232Y0325553D02*
X0124018Y0325553D01*
X0124018Y0326751D02*
X0110232Y0326751D01*
X0110232Y0327950D02*
X0124018Y0327950D01*
X0124018Y0329148D02*
X0110232Y0329148D01*
X0109940Y0330347D02*
X0124018Y0330347D01*
X0123208Y0331545D02*
X0109428Y0331545D01*
X0108230Y0332744D02*
X0122010Y0332744D01*
X0120811Y0333942D02*
X0092318Y0333942D01*
X0092511Y0333802D02*
X0091836Y0334292D01*
X0091093Y0334671D01*
X0090300Y0334929D01*
X0089558Y0335046D01*
X0089558Y0326559D01*
X0088558Y0326559D01*
X0088558Y0325559D01*
X0083758Y0325559D01*
X0083758Y0321942D01*
X0083889Y0321118D01*
X0084147Y0320325D01*
X0084526Y0319581D01*
X0085016Y0318907D01*
X0085606Y0318317D01*
X0086281Y0317826D01*
X0087024Y0317448D01*
X0087817Y0317190D01*
X0088558Y0317072D01*
X0088558Y0325559D01*
X0089558Y0325559D01*
X0089558Y0317072D01*
X0090300Y0317190D01*
X0091093Y0317448D01*
X0091836Y0317826D01*
X0092511Y0318317D01*
X0093101Y0318907D01*
X0093591Y0319581D01*
X0093970Y0320325D01*
X0094228Y0321118D01*
X0094358Y0321942D01*
X0094358Y0325559D01*
X0089559Y0325559D01*
X0089559Y0326559D01*
X0094358Y0326559D01*
X0094358Y0330176D01*
X0094228Y0331000D01*
X0093970Y0331794D01*
X0093591Y0332537D01*
X0093101Y0333212D01*
X0092511Y0333802D01*
X0093441Y0332744D02*
X0102021Y0332744D01*
X0100823Y0331545D02*
X0094051Y0331545D01*
X0094332Y0330347D02*
X0100311Y0330347D01*
X0100018Y0329148D02*
X0094358Y0329148D01*
X0094358Y0327950D02*
X0100018Y0327950D01*
X0100018Y0326751D02*
X0094358Y0326751D01*
X0094358Y0325553D02*
X0100018Y0325553D01*
X0100018Y0324354D02*
X0094358Y0324354D01*
X0094358Y0323156D02*
X0100018Y0323156D01*
X0100018Y0321957D02*
X0094358Y0321957D01*
X0094111Y0320759D02*
X0100018Y0320759D01*
X0100287Y0319560D02*
X0093576Y0319560D01*
X0092556Y0318362D02*
X0100784Y0318362D01*
X0101965Y0317163D02*
X0090131Y0317163D01*
X0089558Y0317163D02*
X0088558Y0317163D01*
X0087986Y0317163D02*
X0063992Y0317163D01*
X0065275Y0318362D02*
X0085561Y0318362D01*
X0084541Y0319560D02*
X0066558Y0319560D01*
X0067841Y0320759D02*
X0084006Y0320759D01*
X0083758Y0321957D02*
X0069125Y0321957D01*
X0070568Y0323156D02*
X0083758Y0323156D01*
X0083758Y0324354D02*
X0072112Y0324354D01*
X0073656Y0325553D02*
X0083758Y0325553D01*
X0083758Y0326559D02*
X0088558Y0326559D01*
X0088558Y0335046D01*
X0087817Y0334929D01*
X0087024Y0334671D01*
X0086281Y0334292D01*
X0085606Y0333802D01*
X0085016Y0333212D01*
X0084526Y0332537D01*
X0084147Y0331794D01*
X0083889Y0331000D01*
X0083758Y0330176D01*
X0083758Y0326559D01*
X0083758Y0326751D02*
X0075199Y0326751D01*
X0076743Y0327950D02*
X0083758Y0327950D01*
X0083758Y0329148D02*
X0078287Y0329148D01*
X0079830Y0330347D02*
X0083785Y0330347D01*
X0084066Y0331545D02*
X0081374Y0331545D01*
X0083004Y0332744D02*
X0084676Y0332744D01*
X0084878Y0333942D02*
X0085799Y0333942D01*
X0086751Y0335141D02*
X0119613Y0335141D01*
X0118414Y0336339D02*
X0088625Y0336339D01*
X0090498Y0337538D02*
X0102572Y0337538D01*
X0101446Y0338736D02*
X0092371Y0338736D01*
X0094245Y0339935D02*
X0100834Y0339935D01*
X0100553Y0341133D02*
X0096118Y0341133D01*
X0098397Y0342332D02*
X0100555Y0342332D01*
X0100710Y0343530D02*
X0100839Y0343530D01*
X0105425Y0341133D02*
X0106225Y0341133D01*
X0106225Y0339935D02*
X0105425Y0339935D01*
X0105425Y0338736D02*
X0106225Y0338736D01*
X0106225Y0337538D02*
X0105425Y0337538D01*
X0109079Y0337538D02*
X0112790Y0337538D01*
X0111592Y0338736D02*
X0110205Y0338736D01*
X0110816Y0339935D02*
X0111039Y0339935D01*
X0111045Y0343530D02*
X0110812Y0343530D01*
X0110194Y0344729D02*
X0111606Y0344729D01*
X0112805Y0345927D02*
X0109059Y0345927D01*
X0107649Y0347126D02*
X0144818Y0347126D01*
X0144818Y0346369D02*
X0145474Y0344786D01*
X0146686Y0343574D01*
X0148269Y0342918D01*
X0149982Y0342918D01*
X0151565Y0343574D01*
X0152777Y0344786D01*
X0153432Y0346369D01*
X0153432Y0348082D01*
X0152777Y0349665D01*
X0151565Y0350877D01*
X0149982Y0351532D01*
X0148269Y0351532D01*
X0146686Y0350877D01*
X0145474Y0349665D01*
X0144818Y0348082D01*
X0144818Y0346369D01*
X0145001Y0345927D02*
X0128846Y0345927D01*
X0130044Y0344729D02*
X0145531Y0344729D01*
X0146791Y0343530D02*
X0130606Y0343530D01*
X0130932Y0342332D02*
X0246615Y0342332D01*
X0246269Y0341732D02*
X0247704Y0344218D01*
X0249733Y0346247D01*
X0252218Y0347682D01*
X0254990Y0348425D01*
X0257860Y0348425D01*
X0260632Y0347682D01*
X0263118Y0346247D01*
X0265147Y0344218D01*
X0266582Y0341732D01*
X0267325Y0338960D01*
X0267325Y0336090D01*
X0266582Y0333318D01*
X0265147Y0330833D01*
X0263118Y0328804D01*
X0260632Y0327369D01*
X0257860Y0326626D01*
X0254990Y0326626D01*
X0252218Y0327369D01*
X0249733Y0328804D01*
X0247704Y0330833D01*
X0246269Y0333318D01*
X0245526Y0336090D01*
X0245526Y0338960D01*
X0246269Y0341732D01*
X0246108Y0341133D02*
X0210946Y0341133D01*
X0212507Y0339935D02*
X0245787Y0339935D01*
X0245526Y0338736D02*
X0213161Y0338736D01*
X0213432Y0337538D02*
X0245526Y0337538D01*
X0245526Y0336339D02*
X0213420Y0336339D01*
X0212924Y0335141D02*
X0245781Y0335141D01*
X0246102Y0333942D02*
X0211933Y0333942D01*
X0212095Y0330347D02*
X0248190Y0330347D01*
X0247293Y0331545D02*
X0196142Y0331545D01*
X0196686Y0330877D02*
X0195474Y0329665D01*
X0194818Y0328082D01*
X0194818Y0326369D01*
X0195474Y0324786D01*
X0196686Y0323574D01*
X0198269Y0322918D01*
X0199982Y0322918D01*
X0201565Y0323574D01*
X0202777Y0324786D01*
X0203432Y0326369D01*
X0203432Y0328082D01*
X0202777Y0329665D01*
X0201565Y0330877D01*
X0199982Y0331532D01*
X0198269Y0331532D01*
X0196686Y0330877D01*
X0196156Y0330347D02*
X0194944Y0330347D01*
X0195260Y0329148D02*
X0193745Y0329148D01*
X0192832Y0327950D02*
X0194818Y0327950D01*
X0194818Y0326751D02*
X0192832Y0326751D01*
X0192832Y0325553D02*
X0195156Y0325553D01*
X0195905Y0324354D02*
X0192832Y0324354D01*
X0192832Y0323156D02*
X0197696Y0323156D01*
X0200555Y0323156D02*
X0207696Y0323156D01*
X0205905Y0324354D02*
X0202345Y0324354D01*
X0203094Y0325553D02*
X0205156Y0325553D01*
X0204818Y0326751D02*
X0203432Y0326751D01*
X0203432Y0327950D02*
X0204818Y0327950D01*
X0205260Y0329148D02*
X0202991Y0329148D01*
X0202095Y0330347D02*
X0206156Y0330347D01*
X0206317Y0333942D02*
X0198539Y0333942D01*
X0197341Y0332744D02*
X0246601Y0332744D01*
X0249389Y0329148D02*
X0212991Y0329148D01*
X0213432Y0327950D02*
X0251212Y0327950D01*
X0254524Y0326751D02*
X0213432Y0326751D01*
X0213094Y0325553D02*
X0269918Y0325553D01*
X0269918Y0326751D02*
X0258327Y0326751D01*
X0261638Y0327950D02*
X0269918Y0327950D01*
X0269918Y0329148D02*
X0263462Y0329148D01*
X0264661Y0330347D02*
X0269918Y0330347D01*
X0269918Y0331545D02*
X0265558Y0331545D01*
X0266250Y0332744D02*
X0269918Y0332744D01*
X0269918Y0333942D02*
X0266749Y0333942D01*
X0267070Y0335141D02*
X0270249Y0335141D01*
X0270817Y0336339D02*
X0267325Y0336339D01*
X0267325Y0337538D02*
X0272015Y0337538D01*
X0275376Y0341133D02*
X0266742Y0341133D01*
X0267063Y0339935D02*
X0277452Y0339935D01*
X0279528Y0338736D02*
X0267325Y0338736D01*
X0266236Y0342332D02*
X0273301Y0342332D01*
X0271225Y0343530D02*
X0265544Y0343530D01*
X0264636Y0344729D02*
X0269149Y0344729D01*
X0266734Y0345927D02*
X0263437Y0345927D01*
X0264138Y0347126D02*
X0261595Y0347126D01*
X0261542Y0348324D02*
X0258234Y0348324D01*
X0258946Y0349523D02*
X0212836Y0349523D01*
X0212777Y0349665D02*
X0213432Y0348082D01*
X0213432Y0346369D01*
X0212777Y0344786D01*
X0211565Y0343574D01*
X0209982Y0342918D01*
X0208269Y0342918D01*
X0206686Y0343574D01*
X0205474Y0344786D01*
X0204818Y0346369D01*
X0204818Y0348082D01*
X0205474Y0349665D01*
X0206686Y0350877D01*
X0208269Y0351532D01*
X0209982Y0351532D01*
X0211565Y0350877D01*
X0212777Y0349665D01*
X0213332Y0348324D02*
X0254617Y0348324D01*
X0256350Y0350721D02*
X0211720Y0350721D01*
X0210465Y0353118D02*
X0250426Y0353118D01*
X0253754Y0351920D02*
X0118569Y0351920D01*
X0115628Y0350721D02*
X0146530Y0350721D01*
X0145415Y0349523D02*
X0112688Y0349523D01*
X0109963Y0348324D02*
X0144919Y0348324D01*
X0147398Y0353055D02*
X0148072Y0352836D01*
X0148771Y0352725D01*
X0148775Y0352725D01*
X0148775Y0356875D01*
X0144625Y0356875D01*
X0144625Y0356871D01*
X0144736Y0356172D01*
X0144955Y0355498D01*
X0145277Y0354867D01*
X0145693Y0354294D01*
X0146194Y0353793D01*
X0146767Y0353377D01*
X0147398Y0353055D01*
X0147274Y0353118D02*
X0121510Y0353118D01*
X0124451Y0354317D02*
X0145676Y0354317D01*
X0144949Y0355515D02*
X0127902Y0355515D01*
X0131833Y0356714D02*
X0144650Y0356714D01*
X0144678Y0357913D02*
X0135764Y0357913D01*
X0139695Y0359111D02*
X0145036Y0359111D01*
X0144625Y0360310D02*
X0145846Y0360310D01*
X0148775Y0356714D02*
X0149475Y0356714D01*
X0149475Y0355515D02*
X0148775Y0355515D01*
X0148775Y0354317D02*
X0149475Y0354317D01*
X0149475Y0353118D02*
X0148775Y0353118D01*
X0150977Y0353118D02*
X0207785Y0353118D01*
X0208269Y0352918D02*
X0206686Y0353574D01*
X0205474Y0354786D01*
X0204818Y0356369D01*
X0204818Y0358082D01*
X0205474Y0359665D01*
X0206686Y0360877D01*
X0208269Y0361532D01*
X0209982Y0361532D01*
X0211565Y0360877D01*
X0212777Y0359665D01*
X0213432Y0358082D01*
X0213432Y0356369D01*
X0212777Y0354786D01*
X0211565Y0353574D01*
X0209982Y0352918D01*
X0208269Y0352918D01*
X0205943Y0354317D02*
X0152575Y0354317D01*
X0153301Y0355515D02*
X0205172Y0355515D01*
X0204818Y0356714D02*
X0153600Y0356714D01*
X0153573Y0357913D02*
X0204818Y0357913D01*
X0205244Y0359111D02*
X0153215Y0359111D01*
X0152405Y0360310D02*
X0206118Y0360310D01*
X0208210Y0361508D02*
X0150507Y0361508D01*
X0156160Y0362707D02*
X0214903Y0362707D01*
X0212132Y0360310D02*
X0227064Y0360310D01*
X0231750Y0359111D02*
X0213006Y0359111D01*
X0213432Y0357913D02*
X0236436Y0357913D01*
X0240309Y0356714D02*
X0213432Y0356714D01*
X0213079Y0355515D02*
X0243682Y0355515D01*
X0247054Y0354317D02*
X0212308Y0354317D01*
X0206530Y0350721D02*
X0201720Y0350721D01*
X0201565Y0350877D02*
X0199982Y0351532D01*
X0198269Y0351532D01*
X0196686Y0350877D01*
X0195474Y0349665D01*
X0194818Y0348082D01*
X0194818Y0346369D01*
X0195474Y0344786D01*
X0196686Y0343574D01*
X0198269Y0342918D01*
X0199982Y0342918D01*
X0201565Y0343574D01*
X0202777Y0344786D01*
X0203432Y0346369D01*
X0203432Y0348082D01*
X0202777Y0349665D01*
X0201565Y0350877D01*
X0202836Y0349523D02*
X0205415Y0349523D01*
X0204919Y0348324D02*
X0203332Y0348324D01*
X0203432Y0347126D02*
X0204818Y0347126D01*
X0205001Y0345927D02*
X0203250Y0345927D01*
X0202720Y0344729D02*
X0205531Y0344729D01*
X0206791Y0343530D02*
X0201460Y0343530D01*
X0205744Y0339935D02*
X0152507Y0339935D01*
X0153161Y0338736D02*
X0197939Y0338736D01*
X0196741Y0337538D02*
X0153432Y0337538D01*
X0153420Y0336339D02*
X0195542Y0336339D01*
X0194344Y0335141D02*
X0152924Y0335141D01*
X0153706Y0333942D02*
X0193145Y0333942D01*
X0191947Y0332744D02*
X0154904Y0332744D01*
X0156103Y0331545D02*
X0190748Y0331545D01*
X0189550Y0330347D02*
X0157301Y0330347D01*
X0158500Y0329148D02*
X0189018Y0329148D01*
X0189018Y0327950D02*
X0159698Y0327950D01*
X0160897Y0326751D02*
X0189018Y0326751D01*
X0189018Y0325553D02*
X0162095Y0325553D01*
X0163294Y0324354D02*
X0189018Y0324354D01*
X0189018Y0323156D02*
X0164492Y0323156D01*
X0165332Y0321957D02*
X0189018Y0321957D01*
X0189018Y0320759D02*
X0165332Y0320759D01*
X0165332Y0319560D02*
X0189018Y0319560D01*
X0189018Y0318362D02*
X0165332Y0318362D01*
X0165332Y0317163D02*
X0189018Y0317163D01*
X0189018Y0315965D02*
X0165332Y0315965D01*
X0165332Y0314766D02*
X0189018Y0314766D01*
X0189018Y0313568D02*
X0165332Y0313568D01*
X0161518Y0309972D02*
X0152470Y0309972D01*
X0153146Y0308774D02*
X0161518Y0308774D01*
X0161518Y0307575D02*
X0153432Y0307575D01*
X0153432Y0306377D02*
X0161518Y0306377D01*
X0161518Y0305178D02*
X0152939Y0305178D01*
X0151971Y0303980D02*
X0161518Y0303980D01*
X0161518Y0302781D02*
X0138742Y0302781D01*
X0139561Y0303980D02*
X0146280Y0303980D01*
X0145311Y0305178D02*
X0140004Y0305178D01*
X0137124Y0301582D02*
X0161518Y0301582D01*
X0161518Y0300384D02*
X0152058Y0300384D01*
X0151565Y0300877D02*
X0149982Y0301532D01*
X0148269Y0301532D01*
X0146686Y0300877D01*
X0145474Y0299665D01*
X0144818Y0298082D01*
X0144818Y0296369D01*
X0145474Y0294786D01*
X0146686Y0293574D01*
X0148269Y0292918D01*
X0149982Y0292918D01*
X0151565Y0293574D01*
X0152777Y0294786D01*
X0153432Y0296369D01*
X0153432Y0298082D01*
X0152777Y0299665D01*
X0151565Y0300877D01*
X0152975Y0299185D02*
X0161518Y0299185D01*
X0161518Y0297987D02*
X0153432Y0297987D01*
X0153432Y0296788D02*
X0161518Y0296788D01*
X0161518Y0295590D02*
X0153110Y0295590D01*
X0152383Y0294391D02*
X0161518Y0294391D01*
X0161518Y0293193D02*
X0150645Y0293193D01*
X0147606Y0293193D02*
X0138881Y0293193D01*
X0139538Y0294391D02*
X0145868Y0294391D01*
X0145141Y0295590D02*
X0139933Y0295590D01*
X0139933Y0296788D02*
X0144818Y0296788D01*
X0144818Y0297987D02*
X0139679Y0297987D01*
X0139183Y0299185D02*
X0145275Y0299185D01*
X0146193Y0300384D02*
X0138024Y0300384D01*
X0131253Y0280009D02*
X0127832Y0280009D01*
X0127832Y0278811D02*
X0130313Y0278811D01*
X0129817Y0277612D02*
X0127832Y0277612D01*
X0127832Y0276414D02*
X0129718Y0276414D01*
X0129772Y0275215D02*
X0127832Y0275215D01*
X0127832Y0274017D02*
X0130268Y0274017D01*
X0131144Y0272818D02*
X0127832Y0272818D01*
X0127832Y0271620D02*
X0132923Y0271620D01*
X0131665Y0270421D02*
X0127832Y0270421D01*
X0127832Y0269223D02*
X0130484Y0269223D01*
X0129987Y0268024D02*
X0127832Y0268024D01*
X0127832Y0266826D02*
X0129718Y0266826D01*
X0129718Y0265627D02*
X0127832Y0265627D01*
X0127832Y0264429D02*
X0130097Y0264429D01*
X0130732Y0263230D02*
X0127832Y0263230D01*
X0127832Y0262032D02*
X0131931Y0262032D01*
X0132280Y0260833D02*
X0127832Y0260833D01*
X0127832Y0259635D02*
X0130878Y0259635D01*
X0130158Y0258436D02*
X0127832Y0258436D01*
X0127832Y0257238D02*
X0129718Y0257238D01*
X0129718Y0256039D02*
X0127832Y0256039D01*
X0127832Y0254841D02*
X0129927Y0254841D01*
X0130423Y0253642D02*
X0127832Y0253642D01*
X0127832Y0252444D02*
X0131519Y0252444D01*
X0133275Y0251245D02*
X0127832Y0251245D01*
X0127832Y0250046D02*
X0131290Y0250046D01*
X0130328Y0248848D02*
X0127832Y0248848D01*
X0127832Y0247649D02*
X0129832Y0247649D01*
X0138132Y0252444D02*
X0161518Y0252444D01*
X0161518Y0253642D02*
X0151633Y0253642D01*
X0152800Y0254841D02*
X0161518Y0254841D01*
X0161518Y0256039D02*
X0153296Y0256039D01*
X0153432Y0257238D02*
X0161518Y0257238D01*
X0161518Y0258436D02*
X0153286Y0258436D01*
X0152789Y0259635D02*
X0161518Y0259635D01*
X0161518Y0260833D02*
X0151609Y0260833D01*
X0152420Y0264429D02*
X0161518Y0264429D01*
X0161518Y0265627D02*
X0153125Y0265627D01*
X0153432Y0266826D02*
X0161518Y0266826D01*
X0161518Y0268024D02*
X0153432Y0268024D01*
X0152960Y0269223D02*
X0161518Y0269223D01*
X0161518Y0270421D02*
X0152021Y0270421D01*
X0152008Y0274017D02*
X0161518Y0274017D01*
X0161518Y0275215D02*
X0152955Y0275215D01*
X0153432Y0276414D02*
X0161518Y0276414D01*
X0161518Y0277612D02*
X0153432Y0277612D01*
X0153131Y0278811D02*
X0161518Y0278811D01*
X0161518Y0280009D02*
X0152433Y0280009D01*
X0150676Y0251245D02*
X0161518Y0251245D01*
X0161518Y0250046D02*
X0152395Y0250046D01*
X0153115Y0248848D02*
X0161518Y0248848D01*
X0161518Y0247649D02*
X0153432Y0247649D01*
X0153432Y0246451D02*
X0161518Y0246451D01*
X0161518Y0245252D02*
X0152970Y0245252D01*
X0152045Y0244054D02*
X0161518Y0244054D01*
X0161518Y0240458D02*
X0151984Y0240458D01*
X0152945Y0239260D02*
X0161518Y0239260D01*
X0161518Y0238061D02*
X0153432Y0238061D01*
X0153432Y0236863D02*
X0161518Y0236863D01*
X0161518Y0235664D02*
X0153141Y0235664D01*
X0152457Y0234466D02*
X0161518Y0234466D01*
X0161518Y0233267D02*
X0150825Y0233267D01*
X0151572Y0230870D02*
X0156679Y0230870D01*
X0155481Y0229672D02*
X0152770Y0229672D01*
X0153270Y0228473D02*
X0154980Y0228473D01*
X0154818Y0227275D02*
X0153432Y0227275D01*
X0153311Y0226076D02*
X0154939Y0226076D01*
X0155436Y0224878D02*
X0152815Y0224878D01*
X0151670Y0223679D02*
X0156580Y0223679D01*
X0161518Y0206900D02*
X0115332Y0206900D01*
X0115332Y0205702D02*
X0161518Y0205702D01*
X0161518Y0204503D02*
X0115332Y0204503D01*
X0115332Y0203305D02*
X0161518Y0203305D01*
X0161518Y0202106D02*
X0115332Y0202106D01*
X0115332Y0200908D02*
X0161518Y0200908D01*
X0078196Y0115813D02*
X0051782Y0115813D01*
X0053625Y0114615D02*
X0076353Y0114615D01*
X0075451Y0113416D02*
X0054528Y0113416D01*
X0055024Y0112218D02*
X0074954Y0112218D01*
X0074882Y0111019D02*
X0055096Y0111019D01*
X0055017Y0109821D02*
X0074961Y0109821D01*
X0075458Y0108622D02*
X0054521Y0108622D01*
X0053607Y0107424D02*
X0076371Y0107424D01*
X0083607Y0107424D02*
X0214018Y0107424D01*
X0214018Y0108622D02*
X0084521Y0108622D01*
X0085017Y0109821D02*
X0214018Y0109821D01*
X0214018Y0111019D02*
X0085096Y0111019D01*
X0082479Y0099034D02*
X0214018Y0099034D01*
X0214018Y0097836D02*
X0083392Y0097836D01*
X0083888Y0096637D02*
X0214018Y0096637D01*
X0214018Y0095439D02*
X0083968Y0095439D01*
X0083896Y0094240D02*
X0214018Y0094240D01*
X0214212Y0093042D02*
X0083399Y0093042D01*
X0082497Y0091843D02*
X0215411Y0091843D01*
X0216609Y0090644D02*
X0080654Y0090644D01*
X0105691Y0083453D02*
X0124288Y0083453D01*
X0123303Y0082255D02*
X0106675Y0082255D01*
X0107171Y0081056D02*
X0122807Y0081056D01*
X0122677Y0079858D02*
X0107301Y0079858D01*
X0107279Y0078659D02*
X0122699Y0078659D01*
X0123195Y0077461D02*
X0106783Y0077461D01*
X0105951Y0076262D02*
X0124027Y0076262D01*
X0125698Y0075064D02*
X0104280Y0075064D01*
X0056523Y0061880D02*
X0261418Y0061880D01*
X0261418Y0061610D02*
X0262196Y0059732D01*
X0263632Y0058296D01*
X0265510Y0057518D01*
X0267541Y0057518D01*
X0269418Y0058296D01*
X0270855Y0059732D01*
X0271632Y0061610D01*
X0271632Y0063641D01*
X0270855Y0065518D01*
X0269418Y0066955D01*
X0267541Y0067732D01*
X0265510Y0067732D01*
X0263632Y0066955D01*
X0262196Y0065518D01*
X0261418Y0063641D01*
X0261418Y0061610D01*
X0261803Y0060682D02*
X0245810Y0060682D01*
X0247189Y0059483D02*
X0262445Y0059483D01*
X0263659Y0058285D02*
X0247900Y0058285D01*
X0248332Y0057086D02*
X0308283Y0057086D01*
X0307165Y0055888D02*
X0248332Y0055888D01*
X0248117Y0054689D02*
X0306046Y0054689D01*
X0304928Y0053491D02*
X0247621Y0053491D01*
X0247169Y0063079D02*
X0261418Y0063079D01*
X0261682Y0064277D02*
X0248301Y0064277D01*
X0248797Y0065476D02*
X0262178Y0065476D01*
X0263352Y0066674D02*
X0249031Y0066674D01*
X0249031Y0067873D02*
X0318347Y0067873D01*
X0319465Y0069071D02*
X0248617Y0069071D01*
X0247933Y0070270D02*
X0320584Y0070270D01*
X0321702Y0071468D02*
X0246618Y0071468D01*
X0241231Y0071468D02*
X0241179Y0071468D01*
X0239981Y0072667D02*
X0322820Y0072667D01*
X0323938Y0073865D02*
X0238782Y0073865D01*
X0237584Y0075064D02*
X0325057Y0075064D01*
X0326175Y0076262D02*
X0236385Y0076262D01*
X0235187Y0077461D02*
X0327293Y0077461D01*
X0328411Y0078659D02*
X0233988Y0078659D01*
X0232790Y0079858D02*
X0329530Y0079858D01*
X0330648Y0081056D02*
X0231591Y0081056D01*
X0230393Y0082255D02*
X0331766Y0082255D01*
X0332884Y0083453D02*
X0229194Y0083453D01*
X0227996Y0084652D02*
X0333700Y0084652D01*
X0334505Y0085850D02*
X0226797Y0085850D01*
X0225599Y0087049D02*
X0335311Y0087049D01*
X0336117Y0088247D02*
X0224400Y0088247D01*
X0223202Y0089446D02*
X0336923Y0089446D01*
X0337728Y0090644D02*
X0222003Y0090644D01*
X0220805Y0091843D02*
X0338534Y0091843D01*
X0339304Y0093042D02*
X0247132Y0093042D01*
X0246817Y0092727D02*
X0248254Y0094163D01*
X0249031Y0096040D01*
X0249031Y0098072D01*
X0248254Y0099949D01*
X0246817Y0101386D01*
X0244940Y0102163D01*
X0242908Y0102163D01*
X0241031Y0101386D01*
X0239595Y0099949D01*
X0238817Y0098072D01*
X0238817Y0096040D01*
X0239595Y0094163D01*
X0241031Y0092727D01*
X0242908Y0091949D01*
X0244940Y0091949D01*
X0246817Y0092727D01*
X0248286Y0094240D02*
X0339960Y0094240D01*
X0340616Y0095439D02*
X0248782Y0095439D01*
X0249031Y0096637D02*
X0341272Y0096637D01*
X0341833Y0097836D02*
X0249031Y0097836D01*
X0248633Y0099034D02*
X0342223Y0099034D01*
X0342782Y0100233D02*
X0247970Y0100233D01*
X0246708Y0101431D02*
X0343896Y0101431D01*
X0344552Y0102630D02*
X0217832Y0102630D01*
X0217832Y0103828D02*
X0345208Y0103828D01*
X0345864Y0105027D02*
X0342652Y0105027D01*
X0344639Y0106225D02*
X0346332Y0106225D01*
X0346772Y0107424D02*
X0345837Y0107424D01*
X0346829Y0108622D02*
X0347211Y0108622D01*
X0347521Y0109821D02*
X0347651Y0109821D01*
X0348089Y0111019D02*
X0348090Y0111019D01*
X0348410Y0112218D02*
X0348529Y0112218D01*
X0348725Y0113416D02*
X0348969Y0113416D01*
X0348725Y0114615D02*
X0349408Y0114615D01*
X0349848Y0115813D02*
X0348725Y0115813D01*
X0348523Y0117012D02*
X0350287Y0117012D01*
X0350727Y0118210D02*
X0348202Y0118210D01*
X0347765Y0119409D02*
X0351166Y0119409D01*
X0351605Y0120607D02*
X0347073Y0120607D01*
X0346259Y0121806D02*
X0352045Y0121806D01*
X0352484Y0123004D02*
X0345060Y0123004D01*
X0343382Y0124203D02*
X0352924Y0124203D01*
X0353363Y0125401D02*
X0340467Y0125401D01*
X0327562Y0111019D02*
X0217832Y0111019D01*
X0217832Y0109821D02*
X0328130Y0109821D01*
X0328821Y0108622D02*
X0217832Y0108622D01*
X0217832Y0107424D02*
X0329813Y0107424D01*
X0331012Y0106225D02*
X0217832Y0106225D01*
X0217832Y0105027D02*
X0332999Y0105027D01*
X0317229Y0066674D02*
X0269699Y0066674D01*
X0270873Y0065476D02*
X0316111Y0065476D01*
X0314992Y0064277D02*
X0271369Y0064277D01*
X0271632Y0063079D02*
X0313874Y0063079D01*
X0312756Y0061880D02*
X0271632Y0061880D01*
X0271248Y0060682D02*
X0311638Y0060682D01*
X0310519Y0059483D02*
X0270606Y0059483D01*
X0269391Y0058285D02*
X0309401Y0058285D01*
X0275379Y0030719D02*
X0246056Y0030719D01*
X0247382Y0029520D02*
X0273303Y0029520D01*
X0271227Y0028322D02*
X0248105Y0028322D01*
X0248449Y0027123D02*
X0269151Y0027123D01*
X0266737Y0025925D02*
X0248525Y0025925D01*
X0248525Y0025939D02*
X0243511Y0025939D01*
X0243511Y0020924D01*
X0243643Y0020924D01*
X0244466Y0021055D01*
X0245260Y0021313D01*
X0246003Y0021692D01*
X0246678Y0022182D01*
X0247268Y0022772D01*
X0247758Y0023447D01*
X0248137Y0024190D01*
X0248395Y0024983D01*
X0248525Y0025807D01*
X0248525Y0025939D01*
X0248311Y0024726D02*
X0264141Y0024726D01*
X0261545Y0023528D02*
X0247800Y0023528D01*
X0246826Y0022329D02*
X0258949Y0022329D01*
X0256353Y0021131D02*
X0244700Y0021131D01*
X0243511Y0021131D02*
X0242940Y0021131D01*
X0241751Y0021131D02*
X0115625Y0021131D01*
X0118566Y0019932D02*
X0253758Y0019932D01*
X0250431Y0018734D02*
X0121506Y0018734D01*
X0124447Y0017535D02*
X0247058Y0017535D01*
X0243686Y0016337D02*
X0127898Y0016337D01*
X0131828Y0015138D02*
X0240314Y0015138D01*
X0236442Y0013940D02*
X0135759Y0013940D01*
X0139690Y0012741D02*
X0231756Y0012741D01*
X0242940Y0022329D02*
X0243511Y0022329D01*
X0243511Y0023528D02*
X0242940Y0023528D01*
X0242940Y0024726D02*
X0243511Y0024726D01*
X0243511Y0025925D02*
X0242940Y0025925D01*
X0242940Y0027123D02*
X0243511Y0027123D01*
X0243511Y0028322D02*
X0242940Y0028322D01*
X0242940Y0029520D02*
X0243511Y0029520D01*
X0243511Y0030719D02*
X0242940Y0030719D01*
X0240716Y0093042D02*
X0219606Y0093042D01*
X0218408Y0094240D02*
X0239563Y0094240D01*
X0239066Y0095439D02*
X0217832Y0095439D01*
X0217832Y0096637D02*
X0238817Y0096637D01*
X0238817Y0097836D02*
X0217832Y0097836D01*
X0217832Y0099034D02*
X0239216Y0099034D01*
X0239878Y0100233D02*
X0217832Y0100233D01*
X0217832Y0101431D02*
X0241141Y0101431D01*
X0310117Y0224878D02*
X0310917Y0224878D01*
X0310917Y0226076D02*
X0310117Y0226076D01*
X0310117Y0227275D02*
X0310917Y0227275D01*
X0310917Y0228473D02*
X0310117Y0228473D01*
X0312916Y0224878D02*
X0318580Y0224878D01*
X0316821Y0226076D02*
X0314485Y0226076D01*
X0315278Y0227275D02*
X0315953Y0227275D01*
X0316010Y0232069D02*
X0315209Y0232069D01*
X0314348Y0233267D02*
X0316958Y0233267D01*
X0316954Y0252444D02*
X0313704Y0252444D01*
X0314720Y0253642D02*
X0315819Y0253642D01*
X0315322Y0254841D02*
X0315249Y0254841D01*
X0315113Y0258436D02*
X0315496Y0258436D01*
X0316177Y0259635D02*
X0314414Y0259635D01*
X0313146Y0260833D02*
X0317482Y0260833D01*
X0322903Y0260833D02*
X0327482Y0260833D01*
X0326177Y0259635D02*
X0324208Y0259635D01*
X0324888Y0258436D02*
X0325496Y0258436D01*
X0325322Y0254841D02*
X0325063Y0254841D01*
X0324566Y0253642D02*
X0325819Y0253642D01*
X0326954Y0252444D02*
X0323431Y0252444D01*
X0310592Y0252444D02*
X0309792Y0252444D01*
X0309792Y0253642D02*
X0310592Y0253642D01*
X0310592Y0254841D02*
X0309792Y0254841D01*
X0286736Y0244054D02*
X0353868Y0244054D01*
X0353445Y0245252D02*
X0285894Y0245252D01*
X0282425Y0240458D02*
X0281625Y0240458D01*
X0281625Y0239260D02*
X0282425Y0239260D01*
X0282425Y0238061D02*
X0281625Y0238061D01*
X0281625Y0236863D02*
X0282425Y0236863D01*
X0279698Y0236863D02*
X0273873Y0236863D01*
X0275684Y0238061D02*
X0278094Y0238061D01*
X0277282Y0239260D02*
X0276573Y0239260D01*
X0276547Y0244054D02*
X0277314Y0244054D01*
X0278157Y0245252D02*
X0275621Y0245252D01*
X0273721Y0246451D02*
X0279822Y0246451D01*
X0280357Y0296788D02*
X0273693Y0296788D01*
X0275609Y0297987D02*
X0278441Y0297987D01*
X0277508Y0299185D02*
X0276543Y0299185D01*
X0276578Y0303980D02*
X0277473Y0303980D01*
X0278356Y0305178D02*
X0275695Y0305178D01*
X0273901Y0306377D02*
X0280150Y0306377D01*
X0283901Y0306377D02*
X0318692Y0306377D01*
X0319842Y0305178D02*
X0285695Y0305178D01*
X0286578Y0303980D02*
X0320817Y0303980D01*
X0321792Y0302781D02*
X0287075Y0302781D01*
X0287132Y0301582D02*
X0322767Y0301582D01*
X0323742Y0300384D02*
X0287039Y0300384D01*
X0286543Y0299185D02*
X0324717Y0299185D01*
X0325692Y0297987D02*
X0285609Y0297987D01*
X0283693Y0296788D02*
X0326667Y0296788D01*
X0327643Y0295590D02*
X0213110Y0295590D01*
X0212383Y0294391D02*
X0328618Y0294391D01*
X0317521Y0307575D02*
X0300438Y0307575D01*
X0302563Y0308774D02*
X0316349Y0308774D01*
X0315177Y0309972D02*
X0303582Y0309972D01*
X0304078Y0311171D02*
X0314006Y0311171D01*
X0312834Y0312369D02*
X0304233Y0312369D01*
X0304233Y0313568D02*
X0311663Y0313568D01*
X0310491Y0314766D02*
X0304233Y0314766D01*
X0304233Y0315965D02*
X0309320Y0315965D01*
X0308113Y0317163D02*
X0304233Y0317163D01*
X0304233Y0318362D02*
X0306706Y0318362D01*
X0305300Y0319560D02*
X0304233Y0319560D01*
X0298267Y0325553D02*
X0280132Y0325553D01*
X0280132Y0326751D02*
X0296861Y0326751D01*
X0295362Y0327950D02*
X0280132Y0327950D01*
X0280132Y0329148D02*
X0293664Y0329148D01*
X0291966Y0330347D02*
X0280132Y0330347D01*
X0280132Y0331545D02*
X0290268Y0331545D01*
X0288570Y0332744D02*
X0280132Y0332744D01*
X0280132Y0333942D02*
X0286872Y0333942D01*
X0285175Y0335141D02*
X0279801Y0335141D01*
X0279234Y0336339D02*
X0283477Y0336339D01*
X0281604Y0337538D02*
X0278035Y0337538D01*
X0279902Y0324354D02*
X0296391Y0324354D01*
X0295100Y0323156D02*
X0279406Y0323156D01*
X0278280Y0321957D02*
X0294425Y0321957D01*
X0294173Y0311171D02*
X0210856Y0311171D01*
X0211565Y0310877D02*
X0209982Y0311532D01*
X0208269Y0311532D01*
X0206686Y0310877D01*
X0205474Y0309665D01*
X0204818Y0308082D01*
X0204818Y0306369D01*
X0205474Y0304786D01*
X0206686Y0303574D01*
X0208269Y0302918D01*
X0209982Y0302918D01*
X0211565Y0303574D01*
X0212777Y0304786D01*
X0213432Y0306369D01*
X0213432Y0308082D01*
X0212777Y0309665D01*
X0211565Y0310877D01*
X0212470Y0309972D02*
X0294669Y0309972D01*
X0295689Y0308774D02*
X0213146Y0308774D01*
X0213432Y0307575D02*
X0297813Y0307575D01*
X0270150Y0306377D02*
X0263901Y0306377D01*
X0265695Y0305178D02*
X0268356Y0305178D01*
X0267473Y0303980D02*
X0266578Y0303980D01*
X0266543Y0299185D02*
X0267508Y0299185D01*
X0268441Y0297987D02*
X0265609Y0297987D01*
X0263693Y0296788D02*
X0270357Y0296788D01*
X0260357Y0296788D02*
X0256578Y0296788D01*
X0257132Y0297987D02*
X0258441Y0297987D01*
X0257508Y0299185D02*
X0257132Y0299185D01*
X0257132Y0303980D02*
X0257473Y0303980D01*
X0257132Y0305178D02*
X0258356Y0305178D01*
X0256664Y0306377D02*
X0260150Y0306377D01*
X0247387Y0306377D02*
X0213432Y0306377D01*
X0212939Y0305178D02*
X0246918Y0305178D01*
X0246918Y0303980D02*
X0211971Y0303980D01*
X0206280Y0303980D02*
X0201971Y0303980D01*
X0202939Y0305178D02*
X0205311Y0305178D01*
X0204818Y0306377D02*
X0203432Y0306377D01*
X0203432Y0307575D02*
X0204818Y0307575D01*
X0205105Y0308774D02*
X0203146Y0308774D01*
X0202470Y0309972D02*
X0205781Y0309972D01*
X0207395Y0311171D02*
X0200856Y0311171D01*
X0201550Y0313568D02*
X0206701Y0313568D01*
X0205494Y0314766D02*
X0202757Y0314766D01*
X0203265Y0315965D02*
X0204986Y0315965D01*
X0204818Y0317163D02*
X0203432Y0317163D01*
X0203317Y0318362D02*
X0204934Y0318362D01*
X0205431Y0319560D02*
X0202820Y0319560D01*
X0201683Y0320759D02*
X0206568Y0320759D01*
X0212345Y0324354D02*
X0270148Y0324354D01*
X0251256Y0347126D02*
X0213432Y0347126D01*
X0213250Y0345927D02*
X0249414Y0345927D01*
X0248215Y0344729D02*
X0212720Y0344729D01*
X0211460Y0343530D02*
X0247307Y0343530D01*
X0222360Y0361508D02*
X0210041Y0361508D01*
X0207446Y0363905D02*
X0165573Y0363905D01*
X0151720Y0350721D02*
X0196530Y0350721D01*
X0195415Y0349523D02*
X0152836Y0349523D01*
X0153332Y0348324D02*
X0194919Y0348324D01*
X0194818Y0347126D02*
X0153432Y0347126D01*
X0153250Y0345927D02*
X0195001Y0345927D01*
X0195531Y0344729D02*
X0152720Y0344729D01*
X0151460Y0343530D02*
X0196791Y0343530D01*
X0199738Y0335141D02*
X0205327Y0335141D01*
X0207305Y0341133D02*
X0150946Y0341133D01*
X0147305Y0341133D02*
X0130932Y0341133D01*
X0130612Y0339935D02*
X0145744Y0339935D01*
X0145089Y0338736D02*
X0130059Y0338736D01*
X0128860Y0337538D02*
X0144818Y0337538D01*
X0144830Y0336339D02*
X0123808Y0336339D01*
X0122790Y0337538D02*
X0122610Y0337538D01*
X0121592Y0338736D02*
X0121411Y0338736D01*
X0121039Y0339935D02*
X0120612Y0339935D01*
X0120606Y0343530D02*
X0121045Y0343530D01*
X0121606Y0344729D02*
X0120044Y0344729D01*
X0118846Y0345927D02*
X0122805Y0345927D01*
X0125007Y0335141D02*
X0145327Y0335141D01*
X0146317Y0333942D02*
X0126206Y0333942D01*
X0127404Y0332744D02*
X0149510Y0332744D01*
X0150708Y0331545D02*
X0127832Y0331545D01*
X0127832Y0330347D02*
X0146156Y0330347D01*
X0145260Y0329148D02*
X0127832Y0329148D01*
X0127832Y0327950D02*
X0144818Y0327950D01*
X0144818Y0326751D02*
X0127832Y0326751D01*
X0127832Y0325553D02*
X0145156Y0325553D01*
X0145905Y0324354D02*
X0127832Y0324354D01*
X0127832Y0323156D02*
X0147696Y0323156D01*
X0150555Y0323156D02*
X0159098Y0323156D01*
X0157900Y0324354D02*
X0152345Y0324354D01*
X0153094Y0325553D02*
X0156701Y0325553D01*
X0155503Y0326751D02*
X0153432Y0326751D01*
X0153432Y0327950D02*
X0154304Y0327950D01*
X0153106Y0329148D02*
X0152991Y0329148D01*
X0185583Y0365104D02*
X0191480Y0365104D01*
X0089558Y0333942D02*
X0088558Y0333942D01*
X0088558Y0332744D02*
X0089558Y0332744D01*
X0089558Y0331545D02*
X0088558Y0331545D01*
X0088558Y0330347D02*
X0089558Y0330347D01*
X0089558Y0329148D02*
X0088558Y0329148D01*
X0088558Y0327950D02*
X0089558Y0327950D01*
X0089558Y0326751D02*
X0088558Y0326751D01*
X0088558Y0325553D02*
X0089558Y0325553D01*
X0089558Y0324354D02*
X0088558Y0324354D01*
X0088558Y0323156D02*
X0089558Y0323156D01*
X0089558Y0321957D02*
X0088558Y0321957D01*
X0088558Y0320759D02*
X0089558Y0320759D01*
X0089558Y0319560D02*
X0088558Y0319560D01*
X0088558Y0318362D02*
X0089558Y0318362D01*
D21*
X0195925Y0256525D03*
X0240925Y0241525D03*
X0245925Y0229025D03*
X0253425Y0231525D03*
X0235925Y0209025D03*
X0228425Y0199025D03*
X0293425Y0221525D03*
X0228425Y0116525D03*
X0160925Y0194025D03*
M02*
