G75*
%MOIN*%
%OFA0B0*%
%FSLAX25Y25*%
%IPPOS*%
%LPD*%
%AMOC8*
5,1,8,0,0,1.08239X$1,22.5*
%
%ADD10C,0.01000*%
%ADD11C,0.01600*%
%ADD12C,0.00000*%
%ADD13C,0.07000*%
%ADD14C,0.05800*%
%ADD15C,0.05150*%
%ADD16C,0.07400*%
%ADD17R,0.07400X0.07400*%
%ADD18C,0.07400*%
%ADD19OC8,0.06600*%
%ADD20C,0.04000*%
D10*
X0081602Y0071525D02*
X0062926Y0091202D01*
X0062926Y0268692D01*
X0149125Y0347225D01*
X0149125Y0327225D02*
X0150925Y0326525D01*
X0185925Y0291525D01*
X0238425Y0291525D01*
X0280925Y0249025D01*
X0283425Y0249025D01*
X0288425Y0244025D01*
X0288425Y0235187D01*
X0288425Y0234367D01*
X0270584Y0216525D01*
X0263425Y0216525D01*
X0255925Y0209025D01*
X0255779Y0207473D01*
X0245260Y0214860D02*
X0245260Y0194591D01*
X0243425Y0194025D01*
X0243425Y0136525D01*
X0223425Y0116525D01*
X0222099Y0115988D01*
X0228425Y0116525D02*
X0183425Y0071525D01*
X0081602Y0071525D01*
X0090013Y0074614D02*
X0090602Y0074025D01*
X0091268Y0074025D01*
X0120925Y0074025D01*
X0125925Y0079025D01*
X0127784Y0079728D01*
X0102194Y0079728D02*
X0102194Y0166530D01*
X0121025Y0185360D01*
X0130925Y0189025D02*
X0140925Y0199025D01*
X0228425Y0199025D01*
X0223425Y0204025D02*
X0243425Y0224025D01*
X0245925Y0224025D01*
X0253425Y0231525D01*
X0258425Y0231525D02*
X0258425Y0236525D01*
X0263425Y0241525D01*
X0262025Y0241625D01*
X0258425Y0236525D02*
X0245925Y0236525D01*
X0245925Y0241525D01*
X0210925Y0276525D01*
X0209125Y0277225D01*
X0210925Y0271525D02*
X0240925Y0241525D01*
X0252025Y0241625D02*
X0253425Y0244025D01*
X0210925Y0286525D01*
X0209125Y0287225D01*
X0210925Y0271525D02*
X0155925Y0271525D01*
X0150925Y0276525D01*
X0149125Y0277225D01*
X0148425Y0271525D02*
X0140925Y0279025D01*
X0140925Y0310846D01*
X0133939Y0317833D01*
X0133939Y0318512D01*
X0140925Y0311525D01*
X0140925Y0310846D01*
X0133939Y0318512D02*
X0125598Y0318512D01*
X0073425Y0266339D01*
X0073425Y0091868D01*
X0073425Y0091868D01*
X0073425Y0091202D01*
X0090013Y0074614D01*
X0078861Y0095429D02*
X0078425Y0096525D01*
X0078425Y0109025D01*
X0079989Y0111028D01*
X0080925Y0111525D01*
X0080925Y0174025D01*
X0113425Y0206525D01*
X0193425Y0206525D01*
X0193425Y0231525D01*
X0209125Y0247225D01*
X0213338Y0249777D02*
X0211589Y0251525D01*
X0170925Y0251525D01*
X0150925Y0231525D01*
X0125925Y0231525D01*
X0118425Y0224025D01*
X0117858Y0221627D01*
X0106925Y0213692D02*
X0110925Y0209025D01*
X0130925Y0209025D01*
X0149125Y0227225D01*
X0149125Y0237225D02*
X0148425Y0239025D01*
X0133425Y0239025D01*
X0128425Y0244025D01*
X0128425Y0259959D01*
X0133457Y0264991D01*
X0134825Y0266359D01*
X0133425Y0264025D01*
X0135925Y0274025D02*
X0134825Y0276359D01*
X0135925Y0274025D02*
X0148425Y0261525D01*
X0190925Y0261525D01*
X0195925Y0256525D01*
X0205925Y0264025D02*
X0208425Y0261525D01*
X0213425Y0261525D01*
X0245925Y0229025D01*
X0258425Y0231525D02*
X0235925Y0209025D01*
X0245260Y0214860D02*
X0272025Y0241625D01*
X0293425Y0241525D02*
X0293425Y0221525D01*
X0303425Y0226525D02*
X0285925Y0209025D01*
X0285779Y0207473D01*
X0303425Y0226525D02*
X0303425Y0239025D01*
X0313083Y0248683D01*
X0318425Y0254025D01*
X0320192Y0256428D01*
X0328425Y0256525D02*
X0330192Y0256428D01*
X0328425Y0256525D02*
X0288425Y0296525D01*
X0288425Y0316225D01*
X0279361Y0325290D01*
X0275025Y0329625D01*
X0275925Y0329025D01*
X0299126Y0312559D02*
X0300925Y0311525D01*
X0335925Y0276525D01*
X0335925Y0235012D01*
X0330517Y0229603D01*
X0328425Y0229025D01*
X0328425Y0181525D01*
X0245925Y0099025D01*
X0243924Y0097056D01*
X0238425Y0091525D02*
X0238425Y0107867D01*
X0256092Y0125533D01*
X0256092Y0126692D01*
X0238425Y0109025D01*
X0238425Y0107867D01*
X0238425Y0091525D02*
X0265925Y0064025D01*
X0266525Y0062625D01*
X0243924Y0067056D02*
X0243425Y0066525D01*
X0243425Y0056525D01*
X0243225Y0056224D01*
X0256092Y0126692D02*
X0320925Y0191525D01*
X0320925Y0229025D01*
X0320517Y0229603D01*
X0293425Y0241525D02*
X0213425Y0321525D01*
X0213425Y0332925D01*
X0209125Y0337225D01*
X0203425Y0351525D02*
X0123425Y0351525D01*
X0115925Y0344025D01*
X0115825Y0341725D01*
X0123425Y0341525D02*
X0125825Y0341725D01*
X0123425Y0341525D02*
X0108425Y0326525D01*
X0105925Y0326525D01*
X0105125Y0324925D01*
X0103425Y0324025D01*
X0081591Y0302191D01*
X0051261Y0271861D01*
X0050925Y0271525D01*
X0050925Y0111525D01*
X0049989Y0111028D01*
X0115925Y0171525D02*
X0115925Y0198524D01*
X0121262Y0203860D01*
X0121427Y0204025D01*
X0223425Y0204025D01*
X0209125Y0237225D02*
X0213338Y0241438D01*
X0213338Y0249777D01*
X0205925Y0264025D02*
X0153425Y0264025D01*
X0150925Y0266525D01*
X0149125Y0267225D01*
X0150925Y0271525D02*
X0153425Y0269025D01*
X0208425Y0269025D01*
X0209125Y0267225D01*
X0150925Y0271525D02*
X0148425Y0271525D01*
X0133425Y0284025D02*
X0134825Y0286359D01*
X0133425Y0284025D02*
X0132090Y0282690D01*
X0106925Y0256192D01*
X0106925Y0213692D01*
X0130925Y0189025D02*
X0130925Y0164025D01*
X0123425Y0156525D01*
X0121025Y0155360D01*
X0121025Y0165360D02*
X0120925Y0166525D01*
X0115925Y0171525D01*
X0160925Y0194025D02*
X0220925Y0134025D01*
X0222099Y0131736D01*
X0001500Y0185925D02*
X0001556Y0190451D01*
X0001722Y0194974D01*
X0002000Y0199492D01*
X0002388Y0204002D01*
X0002887Y0208501D01*
X0003496Y0212986D01*
X0004215Y0217455D01*
X0005044Y0221905D01*
X0005981Y0226333D01*
X0007027Y0230737D01*
X0008181Y0235114D01*
X0009441Y0239461D01*
X0010808Y0243776D01*
X0012281Y0248056D01*
X0013858Y0252299D01*
X0015539Y0256501D01*
X0017322Y0260662D01*
X0019207Y0264777D01*
X0021192Y0268845D01*
X0023277Y0272862D01*
X0025459Y0276828D01*
X0027738Y0280738D01*
X0030113Y0284592D01*
X0032581Y0288386D01*
X0035142Y0292118D01*
X0037793Y0295787D01*
X0040534Y0299389D01*
X0043363Y0302923D01*
X0046277Y0306386D01*
X0049275Y0309777D01*
X0052356Y0313094D01*
X0055517Y0316333D01*
X0058756Y0319494D01*
X0062073Y0322575D01*
X0065464Y0325573D01*
X0068927Y0328487D01*
X0072461Y0331316D01*
X0076063Y0334057D01*
X0079732Y0336708D01*
X0083464Y0339269D01*
X0087258Y0341737D01*
X0091112Y0344112D01*
X0095022Y0346391D01*
X0098988Y0348573D01*
X0103005Y0350658D01*
X0107073Y0352643D01*
X0111188Y0354528D01*
X0115349Y0356311D01*
X0119551Y0357992D01*
X0123794Y0359569D01*
X0128074Y0361042D01*
X0132389Y0362409D01*
X0136736Y0363669D01*
X0141113Y0364823D01*
X0145517Y0365869D01*
X0149945Y0366806D01*
X0154395Y0367635D01*
X0158864Y0368354D01*
X0163349Y0368963D01*
X0167848Y0369462D01*
X0172358Y0369850D01*
X0176876Y0370128D01*
X0181399Y0370294D01*
X0185925Y0370350D01*
X0190451Y0370294D01*
X0194974Y0370128D01*
X0199492Y0369850D01*
X0204002Y0369462D01*
X0208501Y0368963D01*
X0212986Y0368354D01*
X0217455Y0367635D01*
X0221905Y0366806D01*
X0226333Y0365869D01*
X0230737Y0364823D01*
X0235114Y0363669D01*
X0239461Y0362409D01*
X0243776Y0361042D01*
X0248056Y0359569D01*
X0252299Y0357992D01*
X0256501Y0356311D01*
X0260662Y0354528D01*
X0264777Y0352643D01*
X0268845Y0350658D01*
X0272862Y0348573D01*
X0276828Y0346391D01*
X0280738Y0344112D01*
X0284592Y0341737D01*
X0288386Y0339269D01*
X0292118Y0336708D01*
X0295787Y0334057D01*
X0299389Y0331316D01*
X0302923Y0328487D01*
X0306386Y0325573D01*
X0309777Y0322575D01*
X0313094Y0319494D01*
X0316333Y0316333D01*
X0319494Y0313094D01*
X0322575Y0309777D01*
X0325573Y0306386D01*
X0328487Y0302923D01*
X0331316Y0299389D01*
X0334057Y0295787D01*
X0336708Y0292118D01*
X0339269Y0288386D01*
X0341737Y0284592D01*
X0344112Y0280738D01*
X0346391Y0276828D01*
X0348573Y0272862D01*
X0350658Y0268845D01*
X0352643Y0264777D01*
X0354528Y0260662D01*
X0356311Y0256501D01*
X0357992Y0252299D01*
X0359569Y0248056D01*
X0361042Y0243776D01*
X0362409Y0239461D01*
X0363669Y0235114D01*
X0364823Y0230737D01*
X0365869Y0226333D01*
X0366806Y0221905D01*
X0367635Y0217455D01*
X0368354Y0212986D01*
X0368963Y0208501D01*
X0369462Y0204002D01*
X0369850Y0199492D01*
X0370128Y0194974D01*
X0370294Y0190451D01*
X0370350Y0185925D01*
X0370294Y0181399D01*
X0370128Y0176876D01*
X0369850Y0172358D01*
X0369462Y0167848D01*
X0368963Y0163349D01*
X0368354Y0158864D01*
X0367635Y0154395D01*
X0366806Y0149945D01*
X0365869Y0145517D01*
X0364823Y0141113D01*
X0363669Y0136736D01*
X0362409Y0132389D01*
X0361042Y0128074D01*
X0359569Y0123794D01*
X0357992Y0119551D01*
X0356311Y0115349D01*
X0354528Y0111188D01*
X0352643Y0107073D01*
X0350658Y0103005D01*
X0348573Y0098988D01*
X0346391Y0095022D01*
X0344112Y0091112D01*
X0341737Y0087258D01*
X0339269Y0083464D01*
X0336708Y0079732D01*
X0334057Y0076063D01*
X0331316Y0072461D01*
X0328487Y0068927D01*
X0325573Y0065464D01*
X0322575Y0062073D01*
X0319494Y0058756D01*
X0316333Y0055517D01*
X0313094Y0052356D01*
X0309777Y0049275D01*
X0306386Y0046277D01*
X0302923Y0043363D01*
X0299389Y0040534D01*
X0295787Y0037793D01*
X0292118Y0035142D01*
X0288386Y0032581D01*
X0284592Y0030113D01*
X0280738Y0027738D01*
X0276828Y0025459D01*
X0272862Y0023277D01*
X0268845Y0021192D01*
X0264777Y0019207D01*
X0260662Y0017322D01*
X0256501Y0015539D01*
X0252299Y0013858D01*
X0248056Y0012281D01*
X0243776Y0010808D01*
X0239461Y0009441D01*
X0235114Y0008181D01*
X0230737Y0007027D01*
X0226333Y0005981D01*
X0221905Y0005044D01*
X0217455Y0004215D01*
X0212986Y0003496D01*
X0208501Y0002887D01*
X0204002Y0002388D01*
X0199492Y0002000D01*
X0194974Y0001722D01*
X0190451Y0001556D01*
X0185925Y0001500D01*
X0181399Y0001556D01*
X0176876Y0001722D01*
X0172358Y0002000D01*
X0167848Y0002388D01*
X0163349Y0002887D01*
X0158864Y0003496D01*
X0154395Y0004215D01*
X0149945Y0005044D01*
X0145517Y0005981D01*
X0141113Y0007027D01*
X0136736Y0008181D01*
X0132389Y0009441D01*
X0128074Y0010808D01*
X0123794Y0012281D01*
X0119551Y0013858D01*
X0115349Y0015539D01*
X0111188Y0017322D01*
X0107073Y0019207D01*
X0103005Y0021192D01*
X0098988Y0023277D01*
X0095022Y0025459D01*
X0091112Y0027738D01*
X0087258Y0030113D01*
X0083464Y0032581D01*
X0079732Y0035142D01*
X0076063Y0037793D01*
X0072461Y0040534D01*
X0068927Y0043363D01*
X0065464Y0046277D01*
X0062073Y0049275D01*
X0058756Y0052356D01*
X0055517Y0055517D01*
X0052356Y0058756D01*
X0049275Y0062073D01*
X0046277Y0065464D01*
X0043363Y0068927D01*
X0040534Y0072461D01*
X0037793Y0076063D01*
X0035142Y0079732D01*
X0032581Y0083464D01*
X0030113Y0087258D01*
X0027738Y0091112D01*
X0025459Y0095022D01*
X0023277Y0098988D01*
X0021192Y0103005D01*
X0019207Y0107073D01*
X0017322Y0111188D01*
X0015539Y0115349D01*
X0013858Y0119551D01*
X0012281Y0123794D01*
X0010808Y0128074D01*
X0009441Y0132389D01*
X0008181Y0136736D01*
X0007027Y0141113D01*
X0005981Y0145517D01*
X0005044Y0149945D01*
X0004215Y0154395D01*
X0003496Y0158864D01*
X0002887Y0163349D01*
X0002388Y0167848D01*
X0002000Y0172358D01*
X0001722Y0176876D01*
X0001556Y0181399D01*
X0001500Y0185925D01*
X0135925Y0254025D02*
X0134825Y0256359D01*
X0135925Y0254025D02*
X0143425Y0254025D01*
X0148425Y0249025D01*
X0149125Y0247225D01*
X0203425Y0351525D02*
X0209125Y0357225D01*
D11*
X0347241Y0097018D02*
X0347199Y0096927D01*
D12*
X0331526Y0114825D02*
X0331528Y0114983D01*
X0331534Y0115141D01*
X0331544Y0115299D01*
X0331558Y0115457D01*
X0331576Y0115614D01*
X0331597Y0115771D01*
X0331623Y0115927D01*
X0331653Y0116083D01*
X0331686Y0116238D01*
X0331724Y0116391D01*
X0331765Y0116544D01*
X0331810Y0116696D01*
X0331859Y0116847D01*
X0331912Y0116996D01*
X0331968Y0117144D01*
X0332028Y0117290D01*
X0332092Y0117435D01*
X0332160Y0117578D01*
X0332231Y0117720D01*
X0332305Y0117860D01*
X0332383Y0117997D01*
X0332465Y0118133D01*
X0332549Y0118267D01*
X0332638Y0118398D01*
X0332729Y0118527D01*
X0332824Y0118654D01*
X0332921Y0118779D01*
X0333022Y0118901D01*
X0333126Y0119020D01*
X0333233Y0119137D01*
X0333343Y0119251D01*
X0333456Y0119362D01*
X0333571Y0119471D01*
X0333689Y0119576D01*
X0333810Y0119678D01*
X0333933Y0119778D01*
X0334059Y0119874D01*
X0334187Y0119967D01*
X0334317Y0120057D01*
X0334450Y0120143D01*
X0334585Y0120227D01*
X0334721Y0120306D01*
X0334860Y0120383D01*
X0335001Y0120455D01*
X0335143Y0120525D01*
X0335287Y0120590D01*
X0335433Y0120652D01*
X0335580Y0120710D01*
X0335729Y0120765D01*
X0335879Y0120816D01*
X0336030Y0120863D01*
X0336182Y0120906D01*
X0336335Y0120945D01*
X0336490Y0120981D01*
X0336645Y0121012D01*
X0336801Y0121040D01*
X0336957Y0121064D01*
X0337114Y0121084D01*
X0337272Y0121100D01*
X0337429Y0121112D01*
X0337588Y0121120D01*
X0337746Y0121124D01*
X0337904Y0121124D01*
X0338062Y0121120D01*
X0338221Y0121112D01*
X0338378Y0121100D01*
X0338536Y0121084D01*
X0338693Y0121064D01*
X0338849Y0121040D01*
X0339005Y0121012D01*
X0339160Y0120981D01*
X0339315Y0120945D01*
X0339468Y0120906D01*
X0339620Y0120863D01*
X0339771Y0120816D01*
X0339921Y0120765D01*
X0340070Y0120710D01*
X0340217Y0120652D01*
X0340363Y0120590D01*
X0340507Y0120525D01*
X0340649Y0120455D01*
X0340790Y0120383D01*
X0340929Y0120306D01*
X0341065Y0120227D01*
X0341200Y0120143D01*
X0341333Y0120057D01*
X0341463Y0119967D01*
X0341591Y0119874D01*
X0341717Y0119778D01*
X0341840Y0119678D01*
X0341961Y0119576D01*
X0342079Y0119471D01*
X0342194Y0119362D01*
X0342307Y0119251D01*
X0342417Y0119137D01*
X0342524Y0119020D01*
X0342628Y0118901D01*
X0342729Y0118779D01*
X0342826Y0118654D01*
X0342921Y0118527D01*
X0343012Y0118398D01*
X0343101Y0118267D01*
X0343185Y0118133D01*
X0343267Y0117997D01*
X0343345Y0117860D01*
X0343419Y0117720D01*
X0343490Y0117578D01*
X0343558Y0117435D01*
X0343622Y0117290D01*
X0343682Y0117144D01*
X0343738Y0116996D01*
X0343791Y0116847D01*
X0343840Y0116696D01*
X0343885Y0116544D01*
X0343926Y0116391D01*
X0343964Y0116238D01*
X0343997Y0116083D01*
X0344027Y0115927D01*
X0344053Y0115771D01*
X0344074Y0115614D01*
X0344092Y0115457D01*
X0344106Y0115299D01*
X0344116Y0115141D01*
X0344122Y0114983D01*
X0344124Y0114825D01*
X0344122Y0114667D01*
X0344116Y0114509D01*
X0344106Y0114351D01*
X0344092Y0114193D01*
X0344074Y0114036D01*
X0344053Y0113879D01*
X0344027Y0113723D01*
X0343997Y0113567D01*
X0343964Y0113412D01*
X0343926Y0113259D01*
X0343885Y0113106D01*
X0343840Y0112954D01*
X0343791Y0112803D01*
X0343738Y0112654D01*
X0343682Y0112506D01*
X0343622Y0112360D01*
X0343558Y0112215D01*
X0343490Y0112072D01*
X0343419Y0111930D01*
X0343345Y0111790D01*
X0343267Y0111653D01*
X0343185Y0111517D01*
X0343101Y0111383D01*
X0343012Y0111252D01*
X0342921Y0111123D01*
X0342826Y0110996D01*
X0342729Y0110871D01*
X0342628Y0110749D01*
X0342524Y0110630D01*
X0342417Y0110513D01*
X0342307Y0110399D01*
X0342194Y0110288D01*
X0342079Y0110179D01*
X0341961Y0110074D01*
X0341840Y0109972D01*
X0341717Y0109872D01*
X0341591Y0109776D01*
X0341463Y0109683D01*
X0341333Y0109593D01*
X0341200Y0109507D01*
X0341065Y0109423D01*
X0340929Y0109344D01*
X0340790Y0109267D01*
X0340649Y0109195D01*
X0340507Y0109125D01*
X0340363Y0109060D01*
X0340217Y0108998D01*
X0340070Y0108940D01*
X0339921Y0108885D01*
X0339771Y0108834D01*
X0339620Y0108787D01*
X0339468Y0108744D01*
X0339315Y0108705D01*
X0339160Y0108669D01*
X0339005Y0108638D01*
X0338849Y0108610D01*
X0338693Y0108586D01*
X0338536Y0108566D01*
X0338378Y0108550D01*
X0338221Y0108538D01*
X0338062Y0108530D01*
X0337904Y0108526D01*
X0337746Y0108526D01*
X0337588Y0108530D01*
X0337429Y0108538D01*
X0337272Y0108550D01*
X0337114Y0108566D01*
X0336957Y0108586D01*
X0336801Y0108610D01*
X0336645Y0108638D01*
X0336490Y0108669D01*
X0336335Y0108705D01*
X0336182Y0108744D01*
X0336030Y0108787D01*
X0335879Y0108834D01*
X0335729Y0108885D01*
X0335580Y0108940D01*
X0335433Y0108998D01*
X0335287Y0109060D01*
X0335143Y0109125D01*
X0335001Y0109195D01*
X0334860Y0109267D01*
X0334721Y0109344D01*
X0334585Y0109423D01*
X0334450Y0109507D01*
X0334317Y0109593D01*
X0334187Y0109683D01*
X0334059Y0109776D01*
X0333933Y0109872D01*
X0333810Y0109972D01*
X0333689Y0110074D01*
X0333571Y0110179D01*
X0333456Y0110288D01*
X0333343Y0110399D01*
X0333233Y0110513D01*
X0333126Y0110630D01*
X0333022Y0110749D01*
X0332921Y0110871D01*
X0332824Y0110996D01*
X0332729Y0111123D01*
X0332638Y0111252D01*
X0332549Y0111383D01*
X0332465Y0111517D01*
X0332383Y0111653D01*
X0332305Y0111790D01*
X0332231Y0111930D01*
X0332160Y0112072D01*
X0332092Y0112215D01*
X0332028Y0112360D01*
X0331968Y0112506D01*
X0331912Y0112654D01*
X0331859Y0112803D01*
X0331810Y0112954D01*
X0331765Y0113106D01*
X0331724Y0113259D01*
X0331686Y0113412D01*
X0331653Y0113567D01*
X0331623Y0113723D01*
X0331597Y0113879D01*
X0331576Y0114036D01*
X0331558Y0114193D01*
X0331544Y0114351D01*
X0331534Y0114509D01*
X0331528Y0114667D01*
X0331526Y0114825D01*
X0108526Y0034325D02*
X0108528Y0034483D01*
X0108534Y0034641D01*
X0108544Y0034799D01*
X0108558Y0034957D01*
X0108576Y0035114D01*
X0108597Y0035271D01*
X0108623Y0035427D01*
X0108653Y0035583D01*
X0108686Y0035738D01*
X0108724Y0035891D01*
X0108765Y0036044D01*
X0108810Y0036196D01*
X0108859Y0036347D01*
X0108912Y0036496D01*
X0108968Y0036644D01*
X0109028Y0036790D01*
X0109092Y0036935D01*
X0109160Y0037078D01*
X0109231Y0037220D01*
X0109305Y0037360D01*
X0109383Y0037497D01*
X0109465Y0037633D01*
X0109549Y0037767D01*
X0109638Y0037898D01*
X0109729Y0038027D01*
X0109824Y0038154D01*
X0109921Y0038279D01*
X0110022Y0038401D01*
X0110126Y0038520D01*
X0110233Y0038637D01*
X0110343Y0038751D01*
X0110456Y0038862D01*
X0110571Y0038971D01*
X0110689Y0039076D01*
X0110810Y0039178D01*
X0110933Y0039278D01*
X0111059Y0039374D01*
X0111187Y0039467D01*
X0111317Y0039557D01*
X0111450Y0039643D01*
X0111585Y0039727D01*
X0111721Y0039806D01*
X0111860Y0039883D01*
X0112001Y0039955D01*
X0112143Y0040025D01*
X0112287Y0040090D01*
X0112433Y0040152D01*
X0112580Y0040210D01*
X0112729Y0040265D01*
X0112879Y0040316D01*
X0113030Y0040363D01*
X0113182Y0040406D01*
X0113335Y0040445D01*
X0113490Y0040481D01*
X0113645Y0040512D01*
X0113801Y0040540D01*
X0113957Y0040564D01*
X0114114Y0040584D01*
X0114272Y0040600D01*
X0114429Y0040612D01*
X0114588Y0040620D01*
X0114746Y0040624D01*
X0114904Y0040624D01*
X0115062Y0040620D01*
X0115221Y0040612D01*
X0115378Y0040600D01*
X0115536Y0040584D01*
X0115693Y0040564D01*
X0115849Y0040540D01*
X0116005Y0040512D01*
X0116160Y0040481D01*
X0116315Y0040445D01*
X0116468Y0040406D01*
X0116620Y0040363D01*
X0116771Y0040316D01*
X0116921Y0040265D01*
X0117070Y0040210D01*
X0117217Y0040152D01*
X0117363Y0040090D01*
X0117507Y0040025D01*
X0117649Y0039955D01*
X0117790Y0039883D01*
X0117929Y0039806D01*
X0118065Y0039727D01*
X0118200Y0039643D01*
X0118333Y0039557D01*
X0118463Y0039467D01*
X0118591Y0039374D01*
X0118717Y0039278D01*
X0118840Y0039178D01*
X0118961Y0039076D01*
X0119079Y0038971D01*
X0119194Y0038862D01*
X0119307Y0038751D01*
X0119417Y0038637D01*
X0119524Y0038520D01*
X0119628Y0038401D01*
X0119729Y0038279D01*
X0119826Y0038154D01*
X0119921Y0038027D01*
X0120012Y0037898D01*
X0120101Y0037767D01*
X0120185Y0037633D01*
X0120267Y0037497D01*
X0120345Y0037360D01*
X0120419Y0037220D01*
X0120490Y0037078D01*
X0120558Y0036935D01*
X0120622Y0036790D01*
X0120682Y0036644D01*
X0120738Y0036496D01*
X0120791Y0036347D01*
X0120840Y0036196D01*
X0120885Y0036044D01*
X0120926Y0035891D01*
X0120964Y0035738D01*
X0120997Y0035583D01*
X0121027Y0035427D01*
X0121053Y0035271D01*
X0121074Y0035114D01*
X0121092Y0034957D01*
X0121106Y0034799D01*
X0121116Y0034641D01*
X0121122Y0034483D01*
X0121124Y0034325D01*
X0121122Y0034167D01*
X0121116Y0034009D01*
X0121106Y0033851D01*
X0121092Y0033693D01*
X0121074Y0033536D01*
X0121053Y0033379D01*
X0121027Y0033223D01*
X0120997Y0033067D01*
X0120964Y0032912D01*
X0120926Y0032759D01*
X0120885Y0032606D01*
X0120840Y0032454D01*
X0120791Y0032303D01*
X0120738Y0032154D01*
X0120682Y0032006D01*
X0120622Y0031860D01*
X0120558Y0031715D01*
X0120490Y0031572D01*
X0120419Y0031430D01*
X0120345Y0031290D01*
X0120267Y0031153D01*
X0120185Y0031017D01*
X0120101Y0030883D01*
X0120012Y0030752D01*
X0119921Y0030623D01*
X0119826Y0030496D01*
X0119729Y0030371D01*
X0119628Y0030249D01*
X0119524Y0030130D01*
X0119417Y0030013D01*
X0119307Y0029899D01*
X0119194Y0029788D01*
X0119079Y0029679D01*
X0118961Y0029574D01*
X0118840Y0029472D01*
X0118717Y0029372D01*
X0118591Y0029276D01*
X0118463Y0029183D01*
X0118333Y0029093D01*
X0118200Y0029007D01*
X0118065Y0028923D01*
X0117929Y0028844D01*
X0117790Y0028767D01*
X0117649Y0028695D01*
X0117507Y0028625D01*
X0117363Y0028560D01*
X0117217Y0028498D01*
X0117070Y0028440D01*
X0116921Y0028385D01*
X0116771Y0028334D01*
X0116620Y0028287D01*
X0116468Y0028244D01*
X0116315Y0028205D01*
X0116160Y0028169D01*
X0116005Y0028138D01*
X0115849Y0028110D01*
X0115693Y0028086D01*
X0115536Y0028066D01*
X0115378Y0028050D01*
X0115221Y0028038D01*
X0115062Y0028030D01*
X0114904Y0028026D01*
X0114746Y0028026D01*
X0114588Y0028030D01*
X0114429Y0028038D01*
X0114272Y0028050D01*
X0114114Y0028066D01*
X0113957Y0028086D01*
X0113801Y0028110D01*
X0113645Y0028138D01*
X0113490Y0028169D01*
X0113335Y0028205D01*
X0113182Y0028244D01*
X0113030Y0028287D01*
X0112879Y0028334D01*
X0112729Y0028385D01*
X0112580Y0028440D01*
X0112433Y0028498D01*
X0112287Y0028560D01*
X0112143Y0028625D01*
X0112001Y0028695D01*
X0111860Y0028767D01*
X0111721Y0028844D01*
X0111585Y0028923D01*
X0111450Y0029007D01*
X0111317Y0029093D01*
X0111187Y0029183D01*
X0111059Y0029276D01*
X0110933Y0029372D01*
X0110810Y0029472D01*
X0110689Y0029574D01*
X0110571Y0029679D01*
X0110456Y0029788D01*
X0110343Y0029899D01*
X0110233Y0030013D01*
X0110126Y0030130D01*
X0110022Y0030249D01*
X0109921Y0030371D01*
X0109824Y0030496D01*
X0109729Y0030623D01*
X0109638Y0030752D01*
X0109549Y0030883D01*
X0109465Y0031017D01*
X0109383Y0031153D01*
X0109305Y0031290D01*
X0109231Y0031430D01*
X0109160Y0031572D01*
X0109092Y0031715D01*
X0109028Y0031860D01*
X0108968Y0032006D01*
X0108912Y0032154D01*
X0108859Y0032303D01*
X0108810Y0032454D01*
X0108765Y0032606D01*
X0108724Y0032759D01*
X0108686Y0032912D01*
X0108653Y0033067D01*
X0108623Y0033223D01*
X0108597Y0033379D01*
X0108576Y0033536D01*
X0108558Y0033693D01*
X0108544Y0033851D01*
X0108534Y0034009D01*
X0108528Y0034167D01*
X0108526Y0034325D01*
X0027126Y0257025D02*
X0027128Y0257183D01*
X0027134Y0257341D01*
X0027144Y0257499D01*
X0027158Y0257657D01*
X0027176Y0257814D01*
X0027197Y0257971D01*
X0027223Y0258127D01*
X0027253Y0258283D01*
X0027286Y0258438D01*
X0027324Y0258591D01*
X0027365Y0258744D01*
X0027410Y0258896D01*
X0027459Y0259047D01*
X0027512Y0259196D01*
X0027568Y0259344D01*
X0027628Y0259490D01*
X0027692Y0259635D01*
X0027760Y0259778D01*
X0027831Y0259920D01*
X0027905Y0260060D01*
X0027983Y0260197D01*
X0028065Y0260333D01*
X0028149Y0260467D01*
X0028238Y0260598D01*
X0028329Y0260727D01*
X0028424Y0260854D01*
X0028521Y0260979D01*
X0028622Y0261101D01*
X0028726Y0261220D01*
X0028833Y0261337D01*
X0028943Y0261451D01*
X0029056Y0261562D01*
X0029171Y0261671D01*
X0029289Y0261776D01*
X0029410Y0261878D01*
X0029533Y0261978D01*
X0029659Y0262074D01*
X0029787Y0262167D01*
X0029917Y0262257D01*
X0030050Y0262343D01*
X0030185Y0262427D01*
X0030321Y0262506D01*
X0030460Y0262583D01*
X0030601Y0262655D01*
X0030743Y0262725D01*
X0030887Y0262790D01*
X0031033Y0262852D01*
X0031180Y0262910D01*
X0031329Y0262965D01*
X0031479Y0263016D01*
X0031630Y0263063D01*
X0031782Y0263106D01*
X0031935Y0263145D01*
X0032090Y0263181D01*
X0032245Y0263212D01*
X0032401Y0263240D01*
X0032557Y0263264D01*
X0032714Y0263284D01*
X0032872Y0263300D01*
X0033029Y0263312D01*
X0033188Y0263320D01*
X0033346Y0263324D01*
X0033504Y0263324D01*
X0033662Y0263320D01*
X0033821Y0263312D01*
X0033978Y0263300D01*
X0034136Y0263284D01*
X0034293Y0263264D01*
X0034449Y0263240D01*
X0034605Y0263212D01*
X0034760Y0263181D01*
X0034915Y0263145D01*
X0035068Y0263106D01*
X0035220Y0263063D01*
X0035371Y0263016D01*
X0035521Y0262965D01*
X0035670Y0262910D01*
X0035817Y0262852D01*
X0035963Y0262790D01*
X0036107Y0262725D01*
X0036249Y0262655D01*
X0036390Y0262583D01*
X0036529Y0262506D01*
X0036665Y0262427D01*
X0036800Y0262343D01*
X0036933Y0262257D01*
X0037063Y0262167D01*
X0037191Y0262074D01*
X0037317Y0261978D01*
X0037440Y0261878D01*
X0037561Y0261776D01*
X0037679Y0261671D01*
X0037794Y0261562D01*
X0037907Y0261451D01*
X0038017Y0261337D01*
X0038124Y0261220D01*
X0038228Y0261101D01*
X0038329Y0260979D01*
X0038426Y0260854D01*
X0038521Y0260727D01*
X0038612Y0260598D01*
X0038701Y0260467D01*
X0038785Y0260333D01*
X0038867Y0260197D01*
X0038945Y0260060D01*
X0039019Y0259920D01*
X0039090Y0259778D01*
X0039158Y0259635D01*
X0039222Y0259490D01*
X0039282Y0259344D01*
X0039338Y0259196D01*
X0039391Y0259047D01*
X0039440Y0258896D01*
X0039485Y0258744D01*
X0039526Y0258591D01*
X0039564Y0258438D01*
X0039597Y0258283D01*
X0039627Y0258127D01*
X0039653Y0257971D01*
X0039674Y0257814D01*
X0039692Y0257657D01*
X0039706Y0257499D01*
X0039716Y0257341D01*
X0039722Y0257183D01*
X0039724Y0257025D01*
X0039722Y0256867D01*
X0039716Y0256709D01*
X0039706Y0256551D01*
X0039692Y0256393D01*
X0039674Y0256236D01*
X0039653Y0256079D01*
X0039627Y0255923D01*
X0039597Y0255767D01*
X0039564Y0255612D01*
X0039526Y0255459D01*
X0039485Y0255306D01*
X0039440Y0255154D01*
X0039391Y0255003D01*
X0039338Y0254854D01*
X0039282Y0254706D01*
X0039222Y0254560D01*
X0039158Y0254415D01*
X0039090Y0254272D01*
X0039019Y0254130D01*
X0038945Y0253990D01*
X0038867Y0253853D01*
X0038785Y0253717D01*
X0038701Y0253583D01*
X0038612Y0253452D01*
X0038521Y0253323D01*
X0038426Y0253196D01*
X0038329Y0253071D01*
X0038228Y0252949D01*
X0038124Y0252830D01*
X0038017Y0252713D01*
X0037907Y0252599D01*
X0037794Y0252488D01*
X0037679Y0252379D01*
X0037561Y0252274D01*
X0037440Y0252172D01*
X0037317Y0252072D01*
X0037191Y0251976D01*
X0037063Y0251883D01*
X0036933Y0251793D01*
X0036800Y0251707D01*
X0036665Y0251623D01*
X0036529Y0251544D01*
X0036390Y0251467D01*
X0036249Y0251395D01*
X0036107Y0251325D01*
X0035963Y0251260D01*
X0035817Y0251198D01*
X0035670Y0251140D01*
X0035521Y0251085D01*
X0035371Y0251034D01*
X0035220Y0250987D01*
X0035068Y0250944D01*
X0034915Y0250905D01*
X0034760Y0250869D01*
X0034605Y0250838D01*
X0034449Y0250810D01*
X0034293Y0250786D01*
X0034136Y0250766D01*
X0033978Y0250750D01*
X0033821Y0250738D01*
X0033662Y0250730D01*
X0033504Y0250726D01*
X0033346Y0250726D01*
X0033188Y0250730D01*
X0033029Y0250738D01*
X0032872Y0250750D01*
X0032714Y0250766D01*
X0032557Y0250786D01*
X0032401Y0250810D01*
X0032245Y0250838D01*
X0032090Y0250869D01*
X0031935Y0250905D01*
X0031782Y0250944D01*
X0031630Y0250987D01*
X0031479Y0251034D01*
X0031329Y0251085D01*
X0031180Y0251140D01*
X0031033Y0251198D01*
X0030887Y0251260D01*
X0030743Y0251325D01*
X0030601Y0251395D01*
X0030460Y0251467D01*
X0030321Y0251544D01*
X0030185Y0251623D01*
X0030050Y0251707D01*
X0029917Y0251793D01*
X0029787Y0251883D01*
X0029659Y0251976D01*
X0029533Y0252072D01*
X0029410Y0252172D01*
X0029289Y0252274D01*
X0029171Y0252379D01*
X0029056Y0252488D01*
X0028943Y0252599D01*
X0028833Y0252713D01*
X0028726Y0252830D01*
X0028622Y0252949D01*
X0028521Y0253071D01*
X0028424Y0253196D01*
X0028329Y0253323D01*
X0028238Y0253452D01*
X0028149Y0253583D01*
X0028065Y0253717D01*
X0027983Y0253853D01*
X0027905Y0253990D01*
X0027831Y0254130D01*
X0027760Y0254272D01*
X0027692Y0254415D01*
X0027628Y0254560D01*
X0027568Y0254706D01*
X0027512Y0254854D01*
X0027459Y0255003D01*
X0027410Y0255154D01*
X0027365Y0255306D01*
X0027324Y0255459D01*
X0027286Y0255612D01*
X0027253Y0255767D01*
X0027223Y0255923D01*
X0027197Y0256079D01*
X0027176Y0256236D01*
X0027158Y0256393D01*
X0027144Y0256551D01*
X0027134Y0256709D01*
X0027128Y0256867D01*
X0027126Y0257025D01*
X0250126Y0337525D02*
X0250128Y0337683D01*
X0250134Y0337841D01*
X0250144Y0337999D01*
X0250158Y0338157D01*
X0250176Y0338314D01*
X0250197Y0338471D01*
X0250223Y0338627D01*
X0250253Y0338783D01*
X0250286Y0338938D01*
X0250324Y0339091D01*
X0250365Y0339244D01*
X0250410Y0339396D01*
X0250459Y0339547D01*
X0250512Y0339696D01*
X0250568Y0339844D01*
X0250628Y0339990D01*
X0250692Y0340135D01*
X0250760Y0340278D01*
X0250831Y0340420D01*
X0250905Y0340560D01*
X0250983Y0340697D01*
X0251065Y0340833D01*
X0251149Y0340967D01*
X0251238Y0341098D01*
X0251329Y0341227D01*
X0251424Y0341354D01*
X0251521Y0341479D01*
X0251622Y0341601D01*
X0251726Y0341720D01*
X0251833Y0341837D01*
X0251943Y0341951D01*
X0252056Y0342062D01*
X0252171Y0342171D01*
X0252289Y0342276D01*
X0252410Y0342378D01*
X0252533Y0342478D01*
X0252659Y0342574D01*
X0252787Y0342667D01*
X0252917Y0342757D01*
X0253050Y0342843D01*
X0253185Y0342927D01*
X0253321Y0343006D01*
X0253460Y0343083D01*
X0253601Y0343155D01*
X0253743Y0343225D01*
X0253887Y0343290D01*
X0254033Y0343352D01*
X0254180Y0343410D01*
X0254329Y0343465D01*
X0254479Y0343516D01*
X0254630Y0343563D01*
X0254782Y0343606D01*
X0254935Y0343645D01*
X0255090Y0343681D01*
X0255245Y0343712D01*
X0255401Y0343740D01*
X0255557Y0343764D01*
X0255714Y0343784D01*
X0255872Y0343800D01*
X0256029Y0343812D01*
X0256188Y0343820D01*
X0256346Y0343824D01*
X0256504Y0343824D01*
X0256662Y0343820D01*
X0256821Y0343812D01*
X0256978Y0343800D01*
X0257136Y0343784D01*
X0257293Y0343764D01*
X0257449Y0343740D01*
X0257605Y0343712D01*
X0257760Y0343681D01*
X0257915Y0343645D01*
X0258068Y0343606D01*
X0258220Y0343563D01*
X0258371Y0343516D01*
X0258521Y0343465D01*
X0258670Y0343410D01*
X0258817Y0343352D01*
X0258963Y0343290D01*
X0259107Y0343225D01*
X0259249Y0343155D01*
X0259390Y0343083D01*
X0259529Y0343006D01*
X0259665Y0342927D01*
X0259800Y0342843D01*
X0259933Y0342757D01*
X0260063Y0342667D01*
X0260191Y0342574D01*
X0260317Y0342478D01*
X0260440Y0342378D01*
X0260561Y0342276D01*
X0260679Y0342171D01*
X0260794Y0342062D01*
X0260907Y0341951D01*
X0261017Y0341837D01*
X0261124Y0341720D01*
X0261228Y0341601D01*
X0261329Y0341479D01*
X0261426Y0341354D01*
X0261521Y0341227D01*
X0261612Y0341098D01*
X0261701Y0340967D01*
X0261785Y0340833D01*
X0261867Y0340697D01*
X0261945Y0340560D01*
X0262019Y0340420D01*
X0262090Y0340278D01*
X0262158Y0340135D01*
X0262222Y0339990D01*
X0262282Y0339844D01*
X0262338Y0339696D01*
X0262391Y0339547D01*
X0262440Y0339396D01*
X0262485Y0339244D01*
X0262526Y0339091D01*
X0262564Y0338938D01*
X0262597Y0338783D01*
X0262627Y0338627D01*
X0262653Y0338471D01*
X0262674Y0338314D01*
X0262692Y0338157D01*
X0262706Y0337999D01*
X0262716Y0337841D01*
X0262722Y0337683D01*
X0262724Y0337525D01*
X0262722Y0337367D01*
X0262716Y0337209D01*
X0262706Y0337051D01*
X0262692Y0336893D01*
X0262674Y0336736D01*
X0262653Y0336579D01*
X0262627Y0336423D01*
X0262597Y0336267D01*
X0262564Y0336112D01*
X0262526Y0335959D01*
X0262485Y0335806D01*
X0262440Y0335654D01*
X0262391Y0335503D01*
X0262338Y0335354D01*
X0262282Y0335206D01*
X0262222Y0335060D01*
X0262158Y0334915D01*
X0262090Y0334772D01*
X0262019Y0334630D01*
X0261945Y0334490D01*
X0261867Y0334353D01*
X0261785Y0334217D01*
X0261701Y0334083D01*
X0261612Y0333952D01*
X0261521Y0333823D01*
X0261426Y0333696D01*
X0261329Y0333571D01*
X0261228Y0333449D01*
X0261124Y0333330D01*
X0261017Y0333213D01*
X0260907Y0333099D01*
X0260794Y0332988D01*
X0260679Y0332879D01*
X0260561Y0332774D01*
X0260440Y0332672D01*
X0260317Y0332572D01*
X0260191Y0332476D01*
X0260063Y0332383D01*
X0259933Y0332293D01*
X0259800Y0332207D01*
X0259665Y0332123D01*
X0259529Y0332044D01*
X0259390Y0331967D01*
X0259249Y0331895D01*
X0259107Y0331825D01*
X0258963Y0331760D01*
X0258817Y0331698D01*
X0258670Y0331640D01*
X0258521Y0331585D01*
X0258371Y0331534D01*
X0258220Y0331487D01*
X0258068Y0331444D01*
X0257915Y0331405D01*
X0257760Y0331369D01*
X0257605Y0331338D01*
X0257449Y0331310D01*
X0257293Y0331286D01*
X0257136Y0331266D01*
X0256978Y0331250D01*
X0256821Y0331238D01*
X0256662Y0331230D01*
X0256504Y0331226D01*
X0256346Y0331226D01*
X0256188Y0331230D01*
X0256029Y0331238D01*
X0255872Y0331250D01*
X0255714Y0331266D01*
X0255557Y0331286D01*
X0255401Y0331310D01*
X0255245Y0331338D01*
X0255090Y0331369D01*
X0254935Y0331405D01*
X0254782Y0331444D01*
X0254630Y0331487D01*
X0254479Y0331534D01*
X0254329Y0331585D01*
X0254180Y0331640D01*
X0254033Y0331698D01*
X0253887Y0331760D01*
X0253743Y0331825D01*
X0253601Y0331895D01*
X0253460Y0331967D01*
X0253321Y0332044D01*
X0253185Y0332123D01*
X0253050Y0332207D01*
X0252917Y0332293D01*
X0252787Y0332383D01*
X0252659Y0332476D01*
X0252533Y0332572D01*
X0252410Y0332672D01*
X0252289Y0332774D01*
X0252171Y0332879D01*
X0252056Y0332988D01*
X0251943Y0333099D01*
X0251833Y0333213D01*
X0251726Y0333330D01*
X0251622Y0333449D01*
X0251521Y0333571D01*
X0251424Y0333696D01*
X0251329Y0333823D01*
X0251238Y0333952D01*
X0251149Y0334083D01*
X0251065Y0334217D01*
X0250983Y0334353D01*
X0250905Y0334490D01*
X0250831Y0334630D01*
X0250760Y0334772D01*
X0250692Y0334915D01*
X0250628Y0335060D01*
X0250568Y0335206D01*
X0250512Y0335354D01*
X0250459Y0335503D01*
X0250410Y0335654D01*
X0250365Y0335806D01*
X0250324Y0335959D01*
X0250286Y0336112D01*
X0250253Y0336267D01*
X0250223Y0336423D01*
X0250197Y0336579D01*
X0250176Y0336736D01*
X0250158Y0336893D01*
X0250144Y0337051D01*
X0250134Y0337209D01*
X0250128Y0337367D01*
X0250126Y0337525D01*
D13*
X0245260Y0194591D03*
X0235260Y0194591D03*
X0255260Y0194591D03*
X0265260Y0194591D03*
X0275260Y0194591D03*
X0285260Y0194591D03*
X0295260Y0194591D03*
X0305260Y0194591D03*
X0315260Y0194591D03*
D14*
X0209125Y0227225D03*
X0209125Y0237225D03*
X0209125Y0247225D03*
X0209125Y0257225D03*
X0209125Y0267225D03*
X0209125Y0277225D03*
X0209125Y0287225D03*
X0209125Y0297225D03*
X0209125Y0307225D03*
X0199125Y0307225D03*
X0199125Y0317225D03*
X0199125Y0327225D03*
X0209125Y0327225D03*
X0209125Y0317225D03*
X0209125Y0337225D03*
X0209125Y0347225D03*
X0199125Y0347225D03*
X0209125Y0357225D03*
X0149125Y0357225D03*
X0149125Y0347225D03*
X0149125Y0337225D03*
X0149125Y0327225D03*
X0149125Y0317225D03*
X0149125Y0307225D03*
X0149125Y0297225D03*
X0149125Y0287225D03*
X0149125Y0277225D03*
X0149125Y0267225D03*
X0149125Y0257225D03*
X0149125Y0247225D03*
X0149125Y0237225D03*
X0149125Y0227225D03*
X0159125Y0227225D03*
X0169125Y0227225D03*
X0179125Y0227225D03*
X0189125Y0227225D03*
X0199125Y0227225D03*
D15*
X0222099Y0186854D03*
X0222099Y0178980D03*
X0222099Y0171106D03*
X0222099Y0163232D03*
X0222099Y0155358D03*
X0222099Y0147484D03*
X0222099Y0139610D03*
X0222099Y0131736D03*
X0222099Y0123862D03*
X0222099Y0115988D03*
X0135485Y0115988D03*
X0135485Y0123862D03*
X0135485Y0131736D03*
X0135485Y0139610D03*
X0135485Y0147484D03*
X0135485Y0155358D03*
X0135485Y0163232D03*
X0135485Y0171106D03*
X0135485Y0178980D03*
X0135485Y0186854D03*
D16*
X0121025Y0185360D03*
X0121025Y0175360D03*
X0121025Y0165360D03*
X0121025Y0155360D03*
X0121025Y0145360D03*
X0121025Y0135360D03*
X0079989Y0111028D03*
X0078861Y0095429D03*
X0102194Y0079728D03*
X0127784Y0079728D03*
X0048861Y0095429D03*
X0049989Y0111028D03*
X0121025Y0195360D03*
X0134825Y0246359D03*
X0134825Y0256359D03*
X0134825Y0266359D03*
X0134825Y0276359D03*
X0134825Y0286359D03*
X0134825Y0296359D03*
X0134825Y0306359D03*
X0125825Y0341725D03*
X0115825Y0341725D03*
X0105825Y0341725D03*
X0255779Y0207473D03*
X0285779Y0207473D03*
X0310517Y0229603D03*
X0320517Y0229603D03*
X0330517Y0229603D03*
X0330192Y0256428D03*
X0320192Y0256428D03*
X0310192Y0256428D03*
X0282025Y0261625D03*
X0282025Y0271625D03*
X0282025Y0281625D03*
X0282025Y0301625D03*
X0272025Y0301625D03*
X0262025Y0301625D03*
X0262025Y0241625D03*
X0272025Y0241625D03*
X0282025Y0241625D03*
X0243924Y0097056D03*
X0243924Y0067056D03*
X0243225Y0056224D03*
X0266525Y0062625D03*
X0243225Y0026224D03*
D17*
X0252025Y0241625D03*
X0252025Y0301625D03*
D18*
X0275025Y0325925D02*
X0275025Y0333325D01*
X0299126Y0319959D02*
X0299126Y0312559D01*
X0105125Y0321225D02*
X0105125Y0328625D01*
X0089058Y0329759D02*
X0089058Y0322359D01*
D19*
X0117858Y0221627D03*
X0112858Y0214127D03*
X0122858Y0214127D03*
D20*
X0160925Y0194025D03*
X0195925Y0256525D03*
X0240925Y0241525D03*
X0245925Y0229025D03*
X0253425Y0231525D03*
X0235925Y0209025D03*
X0228425Y0199025D03*
X0293425Y0221525D03*
X0228425Y0116525D03*
M02*
