%
M48
M72
T01C0.02400
T02C0.03150
T03C0.03200
T04C0.03543
T05C0.03800
T06C0.03937
T07C0.04000
T08C0.04400
T09C0.12598
%
T01
X228425Y116525
X160925Y194025
X195925Y256525
X240925Y241525
X245925Y229025
X253425Y231525
X235925Y209025
X228425Y199025
X293425Y221525
T02
X222099Y186854
X222099Y178980
X222099Y171106
X222099Y163232
X222099Y155358
X222099Y147484
X222099Y139610
X222099Y131736
X222099Y123862
X222099Y115988
X135485Y186854
X135485Y178980
X135485Y171106
X135485Y163232
X135485Y155358
X135485Y147484
X135485Y139610
X135485Y131736
X135485Y123862
X135485Y115988
T03
X112858Y214127
X117858Y221627
X122858Y214127
T04
X48861Y95429
X49989Y111028
X79989Y111028
X78861Y95429
X102194Y79728
X127784Y79728
X243225Y26224
X243225Y56224
X243924Y67056
X243924Y97056
X255779Y207473
X285779Y207473
T05
X209125Y337225
X209125Y327225
X209125Y317225
X209125Y307225
X209125Y297225
X209125Y287225
X209125Y277225
X209125Y267225
X209125Y257225
X209125Y247225
X209125Y237225
X209125Y227225
X199125Y227225
X189125Y227225
X179125Y227225
X169125Y227225
X159125Y227225
X149125Y227225
X149125Y237225
X149125Y247225
X149125Y257225
X149125Y267225
X149125Y277225
X149125Y287225
X149125Y297225
X149125Y307225
X149125Y317225
X149125Y327225
X149125Y337225
X149125Y347225
X149125Y357225
X199125Y347225
X209125Y347225
X209125Y357225
X199125Y327225
X199125Y317225
X199125Y307225
T06
X315260Y194591
X305260Y194591
X295260Y194591
X285260Y194591
X275260Y194591
X265260Y194591
X255260Y194591
X245260Y194591
X235260Y194591
T07
X252025Y301625
X262025Y301625
X272025Y301625
X282025Y301625
X282025Y281625
X282025Y271625
X282025Y261625
X282025Y241625
X272025Y241625
X262025Y241625
X252025Y241625
X310517Y229603
X320517Y229603
X330517Y229603
X330192Y256428
X320192Y256428
X310192Y256428
X105825Y341725
X115825Y341725
X125825Y341725
X134825Y306359
X134825Y296359
X134825Y286359
X134825Y276359
X134825Y266359
X134825Y256359
X134825Y246359
X121025Y195360
X121025Y185360
X121025Y175360
X121025Y165360
X121025Y155360
X121025Y145360
X121025Y135360
X266525Y62625
T08
X89058Y326059
X105125Y324925
X275025Y329625
X299126Y312559
T09
X114825Y34325
X33425Y257025
X256425Y337525
X337825Y114825
M30
