G75*
%MOIN*%
%OFA0B0*%
%FSLAX25Y25*%
%IPPOS*%
%LPD*%
%AMOC8*
5,1,8,0,0,1.08239X$1,22.5*
%
%ADD10C,0.01000*%
%ADD11C,0.01600*%
%ADD12C,0.00000*%
%ADD13C,0.07000*%
%ADD14C,0.05800*%
%ADD15C,0.05150*%
%ADD16C,0.07400*%
%ADD17R,0.07400X0.07400*%
%ADD18C,0.07400*%
%ADD19OC8,0.06600*%
%ADD20C,0.01200*%
%ADD21C,0.04000*%
D10*
X0021325Y0137025D02*
X0020925Y0139025D01*
X0100925Y0219025D01*
X0100925Y0321525D01*
X0103425Y0324025D01*
X0105125Y0324925D01*
X0115925Y0341525D02*
X0115825Y0341725D01*
X0115925Y0341525D02*
X0129775Y0327675D01*
X0140925Y0316525D01*
X0140925Y0279025D01*
X0135925Y0274025D01*
X0135825Y0274025D01*
X0135925Y0264025D02*
X0135825Y0264025D01*
X0135925Y0264025D02*
X0140925Y0259025D01*
X0140925Y0246525D01*
X0148425Y0239025D01*
X0149125Y0237225D01*
X0148425Y0229025D02*
X0149125Y0227225D01*
X0148425Y0229025D02*
X0128425Y0249025D01*
X0128425Y0299025D01*
X0133425Y0304025D01*
X0135825Y0304025D01*
X0129725Y0320325D02*
X0105925Y0296525D01*
X0105925Y0231525D01*
X0106525Y0231125D01*
X0108425Y0229025D01*
X0108425Y0209025D01*
X0113425Y0204025D01*
X0115025Y0202025D01*
X0115025Y0212025D02*
X0115925Y0214025D01*
X0115925Y0229025D01*
X0116525Y0231125D01*
X0153425Y0191525D02*
X0153425Y0274025D01*
X0150925Y0276525D01*
X0149125Y0277225D01*
X0163425Y0324025D02*
X0150925Y0336525D01*
X0149125Y0337225D01*
X0150925Y0346525D02*
X0149125Y0347225D01*
X0150925Y0346525D02*
X0158425Y0346525D01*
X0173425Y0331525D01*
X0173425Y0131525D01*
X0220925Y0084025D01*
X0221432Y0082866D01*
X0225925Y0084025D02*
X0220925Y0089025D01*
X0221432Y0090740D01*
X0225925Y0084025D02*
X0225925Y0071525D01*
X0223425Y0069025D01*
X0176325Y0069025D01*
X0163425Y0083725D02*
X0163425Y0324025D01*
X0168425Y0331525D02*
X0168425Y0229025D01*
X0169125Y0227225D01*
X0178425Y0229025D02*
X0179125Y0227225D01*
X0180925Y0226525D01*
X0180925Y0186525D01*
X0220925Y0146525D01*
X0221432Y0145858D01*
X0220925Y0144025D01*
X0228425Y0136525D01*
X0228425Y0034025D01*
X0246925Y0056725D02*
X0245925Y0059025D01*
X0230925Y0074025D01*
X0230925Y0236525D01*
X0210925Y0256525D01*
X0209125Y0257225D01*
X0229675Y0287150D02*
X0214050Y0302775D01*
X0214050Y0354025D01*
X0219050Y0359025D01*
X0219630Y0359356D01*
X0220925Y0349025D02*
X0245925Y0349025D01*
X0247821Y0349095D01*
X0240652Y0334473D02*
X0240925Y0334025D01*
X0240925Y0321325D01*
X0240925Y0081525D01*
X0233425Y0084025D02*
X0244025Y0073425D01*
X0253225Y0064025D02*
X0265925Y0064025D01*
X0233425Y0084025D02*
X0233425Y0336525D01*
X0231588Y0338699D01*
X0220925Y0349025D02*
X0215925Y0344025D01*
X0215925Y0339025D01*
X0228425Y0326525D01*
X0260825Y0316525D02*
X0300925Y0316525D01*
X0301125Y0316225D01*
X0314050Y0280275D02*
X0314525Y0280425D01*
X0314050Y0280275D02*
X0282175Y0248400D01*
X0282175Y0242150D01*
X0282025Y0241625D01*
X0280925Y0241525D01*
X0280925Y0201525D01*
X0268425Y0189025D01*
X0266925Y0188925D01*
X0258425Y0189025D02*
X0256925Y0188925D01*
X0258425Y0189025D02*
X0270925Y0201525D01*
X0270925Y0241525D01*
X0272025Y0241625D01*
X0262025Y0241625D02*
X0260925Y0241525D01*
X0260925Y0211525D01*
X0245925Y0196525D01*
X0245925Y0201525D02*
X0250925Y0206525D01*
X0250925Y0241525D01*
X0252025Y0241625D01*
X0001500Y0185925D02*
X0001556Y0190451D01*
X0001722Y0194974D01*
X0002000Y0199492D01*
X0002388Y0204002D01*
X0002887Y0208501D01*
X0003496Y0212986D01*
X0004215Y0217455D01*
X0005044Y0221905D01*
X0005981Y0226333D01*
X0007027Y0230737D01*
X0008181Y0235114D01*
X0009441Y0239461D01*
X0010808Y0243776D01*
X0012281Y0248056D01*
X0013858Y0252299D01*
X0015539Y0256501D01*
X0017322Y0260662D01*
X0019207Y0264777D01*
X0021192Y0268845D01*
X0023277Y0272862D01*
X0025459Y0276828D01*
X0027738Y0280738D01*
X0030113Y0284592D01*
X0032581Y0288386D01*
X0035142Y0292118D01*
X0037793Y0295787D01*
X0040534Y0299389D01*
X0043363Y0302923D01*
X0046277Y0306386D01*
X0049275Y0309777D01*
X0052356Y0313094D01*
X0055517Y0316333D01*
X0058756Y0319494D01*
X0062073Y0322575D01*
X0065464Y0325573D01*
X0068927Y0328487D01*
X0072461Y0331316D01*
X0076063Y0334057D01*
X0079732Y0336708D01*
X0083464Y0339269D01*
X0087258Y0341737D01*
X0091112Y0344112D01*
X0095022Y0346391D01*
X0098988Y0348573D01*
X0103005Y0350658D01*
X0107073Y0352643D01*
X0111188Y0354528D01*
X0115349Y0356311D01*
X0119551Y0357992D01*
X0123794Y0359569D01*
X0128074Y0361042D01*
X0132389Y0362409D01*
X0136736Y0363669D01*
X0141113Y0364823D01*
X0145517Y0365869D01*
X0149945Y0366806D01*
X0154395Y0367635D01*
X0158864Y0368354D01*
X0163349Y0368963D01*
X0167848Y0369462D01*
X0172358Y0369850D01*
X0176876Y0370128D01*
X0181399Y0370294D01*
X0185925Y0370350D01*
X0190451Y0370294D01*
X0194974Y0370128D01*
X0199492Y0369850D01*
X0204002Y0369462D01*
X0208501Y0368963D01*
X0212986Y0368354D01*
X0217455Y0367635D01*
X0221905Y0366806D01*
X0226333Y0365869D01*
X0230737Y0364823D01*
X0235114Y0363669D01*
X0239461Y0362409D01*
X0243776Y0361042D01*
X0248056Y0359569D01*
X0252299Y0357992D01*
X0256501Y0356311D01*
X0260662Y0354528D01*
X0264777Y0352643D01*
X0268845Y0350658D01*
X0272862Y0348573D01*
X0276828Y0346391D01*
X0280738Y0344112D01*
X0284592Y0341737D01*
X0288386Y0339269D01*
X0292118Y0336708D01*
X0295787Y0334057D01*
X0299389Y0331316D01*
X0302923Y0328487D01*
X0306386Y0325573D01*
X0309777Y0322575D01*
X0313094Y0319494D01*
X0316333Y0316333D01*
X0319494Y0313094D01*
X0322575Y0309777D01*
X0325573Y0306386D01*
X0328487Y0302923D01*
X0331316Y0299389D01*
X0334057Y0295787D01*
X0336708Y0292118D01*
X0339269Y0288386D01*
X0341737Y0284592D01*
X0344112Y0280738D01*
X0346391Y0276828D01*
X0348573Y0272862D01*
X0350658Y0268845D01*
X0352643Y0264777D01*
X0354528Y0260662D01*
X0356311Y0256501D01*
X0357992Y0252299D01*
X0359569Y0248056D01*
X0361042Y0243776D01*
X0362409Y0239461D01*
X0363669Y0235114D01*
X0364823Y0230737D01*
X0365869Y0226333D01*
X0366806Y0221905D01*
X0367635Y0217455D01*
X0368354Y0212986D01*
X0368963Y0208501D01*
X0369462Y0204002D01*
X0369850Y0199492D01*
X0370128Y0194974D01*
X0370294Y0190451D01*
X0370350Y0185925D01*
X0370294Y0181399D01*
X0370128Y0176876D01*
X0369850Y0172358D01*
X0369462Y0167848D01*
X0368963Y0163349D01*
X0368354Y0158864D01*
X0367635Y0154395D01*
X0366806Y0149945D01*
X0365869Y0145517D01*
X0364823Y0141113D01*
X0363669Y0136736D01*
X0362409Y0132389D01*
X0361042Y0128074D01*
X0359569Y0123794D01*
X0357992Y0119551D01*
X0356311Y0115349D01*
X0354528Y0111188D01*
X0352643Y0107073D01*
X0350658Y0103005D01*
X0348573Y0098988D01*
X0346391Y0095022D01*
X0344112Y0091112D01*
X0341737Y0087258D01*
X0339269Y0083464D01*
X0336708Y0079732D01*
X0334057Y0076063D01*
X0331316Y0072461D01*
X0328487Y0068927D01*
X0325573Y0065464D01*
X0322575Y0062073D01*
X0319494Y0058756D01*
X0316333Y0055517D01*
X0313094Y0052356D01*
X0309777Y0049275D01*
X0306386Y0046277D01*
X0302923Y0043363D01*
X0299389Y0040534D01*
X0295787Y0037793D01*
X0292118Y0035142D01*
X0288386Y0032581D01*
X0284592Y0030113D01*
X0280738Y0027738D01*
X0276828Y0025459D01*
X0272862Y0023277D01*
X0268845Y0021192D01*
X0264777Y0019207D01*
X0260662Y0017322D01*
X0256501Y0015539D01*
X0252299Y0013858D01*
X0248056Y0012281D01*
X0243776Y0010808D01*
X0239461Y0009441D01*
X0235114Y0008181D01*
X0230737Y0007027D01*
X0226333Y0005981D01*
X0221905Y0005044D01*
X0217455Y0004215D01*
X0212986Y0003496D01*
X0208501Y0002887D01*
X0204002Y0002388D01*
X0199492Y0002000D01*
X0194974Y0001722D01*
X0190451Y0001556D01*
X0185925Y0001500D01*
X0181399Y0001556D01*
X0176876Y0001722D01*
X0172358Y0002000D01*
X0167848Y0002388D01*
X0163349Y0002887D01*
X0158864Y0003496D01*
X0154395Y0004215D01*
X0149945Y0005044D01*
X0145517Y0005981D01*
X0141113Y0007027D01*
X0136736Y0008181D01*
X0132389Y0009441D01*
X0128074Y0010808D01*
X0123794Y0012281D01*
X0119551Y0013858D01*
X0115349Y0015539D01*
X0111188Y0017322D01*
X0107073Y0019207D01*
X0103005Y0021192D01*
X0098988Y0023277D01*
X0095022Y0025459D01*
X0091112Y0027738D01*
X0087258Y0030113D01*
X0083464Y0032581D01*
X0079732Y0035142D01*
X0076063Y0037793D01*
X0072461Y0040534D01*
X0068927Y0043363D01*
X0065464Y0046277D01*
X0062073Y0049275D01*
X0058756Y0052356D01*
X0055517Y0055517D01*
X0052356Y0058756D01*
X0049275Y0062073D01*
X0046277Y0065464D01*
X0043363Y0068927D01*
X0040534Y0072461D01*
X0037793Y0076063D01*
X0035142Y0079732D01*
X0032581Y0083464D01*
X0030113Y0087258D01*
X0027738Y0091112D01*
X0025459Y0095022D01*
X0023277Y0098988D01*
X0021192Y0103005D01*
X0019207Y0107073D01*
X0017322Y0111188D01*
X0015539Y0115349D01*
X0013858Y0119551D01*
X0012281Y0123794D01*
X0010808Y0128074D01*
X0009441Y0132389D01*
X0008181Y0136736D01*
X0007027Y0141113D01*
X0005981Y0145517D01*
X0005044Y0149945D01*
X0004215Y0154395D01*
X0003496Y0158864D01*
X0002887Y0163349D01*
X0002388Y0167848D01*
X0002000Y0172358D01*
X0001722Y0176876D01*
X0001556Y0181399D01*
X0001500Y0185925D01*
X0086725Y0331725D02*
X0088425Y0334025D01*
X0149125Y0357225D02*
X0150925Y0356525D01*
X0170725Y0356525D01*
X0178425Y0351825D02*
X0178425Y0229025D01*
D11*
X0265925Y0064025D02*
X0265925Y0062625D01*
X0266525Y0062625D01*
X0347199Y0096927D02*
X0347241Y0097018D01*
D12*
X0331526Y0114825D02*
X0331528Y0114983D01*
X0331534Y0115141D01*
X0331544Y0115299D01*
X0331558Y0115457D01*
X0331576Y0115614D01*
X0331597Y0115771D01*
X0331623Y0115927D01*
X0331653Y0116083D01*
X0331686Y0116238D01*
X0331724Y0116391D01*
X0331765Y0116544D01*
X0331810Y0116696D01*
X0331859Y0116847D01*
X0331912Y0116996D01*
X0331968Y0117144D01*
X0332028Y0117290D01*
X0332092Y0117435D01*
X0332160Y0117578D01*
X0332231Y0117720D01*
X0332305Y0117860D01*
X0332383Y0117997D01*
X0332465Y0118133D01*
X0332549Y0118267D01*
X0332638Y0118398D01*
X0332729Y0118527D01*
X0332824Y0118654D01*
X0332921Y0118779D01*
X0333022Y0118901D01*
X0333126Y0119020D01*
X0333233Y0119137D01*
X0333343Y0119251D01*
X0333456Y0119362D01*
X0333571Y0119471D01*
X0333689Y0119576D01*
X0333810Y0119678D01*
X0333933Y0119778D01*
X0334059Y0119874D01*
X0334187Y0119967D01*
X0334317Y0120057D01*
X0334450Y0120143D01*
X0334585Y0120227D01*
X0334721Y0120306D01*
X0334860Y0120383D01*
X0335001Y0120455D01*
X0335143Y0120525D01*
X0335287Y0120590D01*
X0335433Y0120652D01*
X0335580Y0120710D01*
X0335729Y0120765D01*
X0335879Y0120816D01*
X0336030Y0120863D01*
X0336182Y0120906D01*
X0336335Y0120945D01*
X0336490Y0120981D01*
X0336645Y0121012D01*
X0336801Y0121040D01*
X0336957Y0121064D01*
X0337114Y0121084D01*
X0337272Y0121100D01*
X0337429Y0121112D01*
X0337588Y0121120D01*
X0337746Y0121124D01*
X0337904Y0121124D01*
X0338062Y0121120D01*
X0338221Y0121112D01*
X0338378Y0121100D01*
X0338536Y0121084D01*
X0338693Y0121064D01*
X0338849Y0121040D01*
X0339005Y0121012D01*
X0339160Y0120981D01*
X0339315Y0120945D01*
X0339468Y0120906D01*
X0339620Y0120863D01*
X0339771Y0120816D01*
X0339921Y0120765D01*
X0340070Y0120710D01*
X0340217Y0120652D01*
X0340363Y0120590D01*
X0340507Y0120525D01*
X0340649Y0120455D01*
X0340790Y0120383D01*
X0340929Y0120306D01*
X0341065Y0120227D01*
X0341200Y0120143D01*
X0341333Y0120057D01*
X0341463Y0119967D01*
X0341591Y0119874D01*
X0341717Y0119778D01*
X0341840Y0119678D01*
X0341961Y0119576D01*
X0342079Y0119471D01*
X0342194Y0119362D01*
X0342307Y0119251D01*
X0342417Y0119137D01*
X0342524Y0119020D01*
X0342628Y0118901D01*
X0342729Y0118779D01*
X0342826Y0118654D01*
X0342921Y0118527D01*
X0343012Y0118398D01*
X0343101Y0118267D01*
X0343185Y0118133D01*
X0343267Y0117997D01*
X0343345Y0117860D01*
X0343419Y0117720D01*
X0343490Y0117578D01*
X0343558Y0117435D01*
X0343622Y0117290D01*
X0343682Y0117144D01*
X0343738Y0116996D01*
X0343791Y0116847D01*
X0343840Y0116696D01*
X0343885Y0116544D01*
X0343926Y0116391D01*
X0343964Y0116238D01*
X0343997Y0116083D01*
X0344027Y0115927D01*
X0344053Y0115771D01*
X0344074Y0115614D01*
X0344092Y0115457D01*
X0344106Y0115299D01*
X0344116Y0115141D01*
X0344122Y0114983D01*
X0344124Y0114825D01*
X0344122Y0114667D01*
X0344116Y0114509D01*
X0344106Y0114351D01*
X0344092Y0114193D01*
X0344074Y0114036D01*
X0344053Y0113879D01*
X0344027Y0113723D01*
X0343997Y0113567D01*
X0343964Y0113412D01*
X0343926Y0113259D01*
X0343885Y0113106D01*
X0343840Y0112954D01*
X0343791Y0112803D01*
X0343738Y0112654D01*
X0343682Y0112506D01*
X0343622Y0112360D01*
X0343558Y0112215D01*
X0343490Y0112072D01*
X0343419Y0111930D01*
X0343345Y0111790D01*
X0343267Y0111653D01*
X0343185Y0111517D01*
X0343101Y0111383D01*
X0343012Y0111252D01*
X0342921Y0111123D01*
X0342826Y0110996D01*
X0342729Y0110871D01*
X0342628Y0110749D01*
X0342524Y0110630D01*
X0342417Y0110513D01*
X0342307Y0110399D01*
X0342194Y0110288D01*
X0342079Y0110179D01*
X0341961Y0110074D01*
X0341840Y0109972D01*
X0341717Y0109872D01*
X0341591Y0109776D01*
X0341463Y0109683D01*
X0341333Y0109593D01*
X0341200Y0109507D01*
X0341065Y0109423D01*
X0340929Y0109344D01*
X0340790Y0109267D01*
X0340649Y0109195D01*
X0340507Y0109125D01*
X0340363Y0109060D01*
X0340217Y0108998D01*
X0340070Y0108940D01*
X0339921Y0108885D01*
X0339771Y0108834D01*
X0339620Y0108787D01*
X0339468Y0108744D01*
X0339315Y0108705D01*
X0339160Y0108669D01*
X0339005Y0108638D01*
X0338849Y0108610D01*
X0338693Y0108586D01*
X0338536Y0108566D01*
X0338378Y0108550D01*
X0338221Y0108538D01*
X0338062Y0108530D01*
X0337904Y0108526D01*
X0337746Y0108526D01*
X0337588Y0108530D01*
X0337429Y0108538D01*
X0337272Y0108550D01*
X0337114Y0108566D01*
X0336957Y0108586D01*
X0336801Y0108610D01*
X0336645Y0108638D01*
X0336490Y0108669D01*
X0336335Y0108705D01*
X0336182Y0108744D01*
X0336030Y0108787D01*
X0335879Y0108834D01*
X0335729Y0108885D01*
X0335580Y0108940D01*
X0335433Y0108998D01*
X0335287Y0109060D01*
X0335143Y0109125D01*
X0335001Y0109195D01*
X0334860Y0109267D01*
X0334721Y0109344D01*
X0334585Y0109423D01*
X0334450Y0109507D01*
X0334317Y0109593D01*
X0334187Y0109683D01*
X0334059Y0109776D01*
X0333933Y0109872D01*
X0333810Y0109972D01*
X0333689Y0110074D01*
X0333571Y0110179D01*
X0333456Y0110288D01*
X0333343Y0110399D01*
X0333233Y0110513D01*
X0333126Y0110630D01*
X0333022Y0110749D01*
X0332921Y0110871D01*
X0332824Y0110996D01*
X0332729Y0111123D01*
X0332638Y0111252D01*
X0332549Y0111383D01*
X0332465Y0111517D01*
X0332383Y0111653D01*
X0332305Y0111790D01*
X0332231Y0111930D01*
X0332160Y0112072D01*
X0332092Y0112215D01*
X0332028Y0112360D01*
X0331968Y0112506D01*
X0331912Y0112654D01*
X0331859Y0112803D01*
X0331810Y0112954D01*
X0331765Y0113106D01*
X0331724Y0113259D01*
X0331686Y0113412D01*
X0331653Y0113567D01*
X0331623Y0113723D01*
X0331597Y0113879D01*
X0331576Y0114036D01*
X0331558Y0114193D01*
X0331544Y0114351D01*
X0331534Y0114509D01*
X0331528Y0114667D01*
X0331526Y0114825D01*
X0108526Y0034325D02*
X0108528Y0034483D01*
X0108534Y0034641D01*
X0108544Y0034799D01*
X0108558Y0034957D01*
X0108576Y0035114D01*
X0108597Y0035271D01*
X0108623Y0035427D01*
X0108653Y0035583D01*
X0108686Y0035738D01*
X0108724Y0035891D01*
X0108765Y0036044D01*
X0108810Y0036196D01*
X0108859Y0036347D01*
X0108912Y0036496D01*
X0108968Y0036644D01*
X0109028Y0036790D01*
X0109092Y0036935D01*
X0109160Y0037078D01*
X0109231Y0037220D01*
X0109305Y0037360D01*
X0109383Y0037497D01*
X0109465Y0037633D01*
X0109549Y0037767D01*
X0109638Y0037898D01*
X0109729Y0038027D01*
X0109824Y0038154D01*
X0109921Y0038279D01*
X0110022Y0038401D01*
X0110126Y0038520D01*
X0110233Y0038637D01*
X0110343Y0038751D01*
X0110456Y0038862D01*
X0110571Y0038971D01*
X0110689Y0039076D01*
X0110810Y0039178D01*
X0110933Y0039278D01*
X0111059Y0039374D01*
X0111187Y0039467D01*
X0111317Y0039557D01*
X0111450Y0039643D01*
X0111585Y0039727D01*
X0111721Y0039806D01*
X0111860Y0039883D01*
X0112001Y0039955D01*
X0112143Y0040025D01*
X0112287Y0040090D01*
X0112433Y0040152D01*
X0112580Y0040210D01*
X0112729Y0040265D01*
X0112879Y0040316D01*
X0113030Y0040363D01*
X0113182Y0040406D01*
X0113335Y0040445D01*
X0113490Y0040481D01*
X0113645Y0040512D01*
X0113801Y0040540D01*
X0113957Y0040564D01*
X0114114Y0040584D01*
X0114272Y0040600D01*
X0114429Y0040612D01*
X0114588Y0040620D01*
X0114746Y0040624D01*
X0114904Y0040624D01*
X0115062Y0040620D01*
X0115221Y0040612D01*
X0115378Y0040600D01*
X0115536Y0040584D01*
X0115693Y0040564D01*
X0115849Y0040540D01*
X0116005Y0040512D01*
X0116160Y0040481D01*
X0116315Y0040445D01*
X0116468Y0040406D01*
X0116620Y0040363D01*
X0116771Y0040316D01*
X0116921Y0040265D01*
X0117070Y0040210D01*
X0117217Y0040152D01*
X0117363Y0040090D01*
X0117507Y0040025D01*
X0117649Y0039955D01*
X0117790Y0039883D01*
X0117929Y0039806D01*
X0118065Y0039727D01*
X0118200Y0039643D01*
X0118333Y0039557D01*
X0118463Y0039467D01*
X0118591Y0039374D01*
X0118717Y0039278D01*
X0118840Y0039178D01*
X0118961Y0039076D01*
X0119079Y0038971D01*
X0119194Y0038862D01*
X0119307Y0038751D01*
X0119417Y0038637D01*
X0119524Y0038520D01*
X0119628Y0038401D01*
X0119729Y0038279D01*
X0119826Y0038154D01*
X0119921Y0038027D01*
X0120012Y0037898D01*
X0120101Y0037767D01*
X0120185Y0037633D01*
X0120267Y0037497D01*
X0120345Y0037360D01*
X0120419Y0037220D01*
X0120490Y0037078D01*
X0120558Y0036935D01*
X0120622Y0036790D01*
X0120682Y0036644D01*
X0120738Y0036496D01*
X0120791Y0036347D01*
X0120840Y0036196D01*
X0120885Y0036044D01*
X0120926Y0035891D01*
X0120964Y0035738D01*
X0120997Y0035583D01*
X0121027Y0035427D01*
X0121053Y0035271D01*
X0121074Y0035114D01*
X0121092Y0034957D01*
X0121106Y0034799D01*
X0121116Y0034641D01*
X0121122Y0034483D01*
X0121124Y0034325D01*
X0121122Y0034167D01*
X0121116Y0034009D01*
X0121106Y0033851D01*
X0121092Y0033693D01*
X0121074Y0033536D01*
X0121053Y0033379D01*
X0121027Y0033223D01*
X0120997Y0033067D01*
X0120964Y0032912D01*
X0120926Y0032759D01*
X0120885Y0032606D01*
X0120840Y0032454D01*
X0120791Y0032303D01*
X0120738Y0032154D01*
X0120682Y0032006D01*
X0120622Y0031860D01*
X0120558Y0031715D01*
X0120490Y0031572D01*
X0120419Y0031430D01*
X0120345Y0031290D01*
X0120267Y0031153D01*
X0120185Y0031017D01*
X0120101Y0030883D01*
X0120012Y0030752D01*
X0119921Y0030623D01*
X0119826Y0030496D01*
X0119729Y0030371D01*
X0119628Y0030249D01*
X0119524Y0030130D01*
X0119417Y0030013D01*
X0119307Y0029899D01*
X0119194Y0029788D01*
X0119079Y0029679D01*
X0118961Y0029574D01*
X0118840Y0029472D01*
X0118717Y0029372D01*
X0118591Y0029276D01*
X0118463Y0029183D01*
X0118333Y0029093D01*
X0118200Y0029007D01*
X0118065Y0028923D01*
X0117929Y0028844D01*
X0117790Y0028767D01*
X0117649Y0028695D01*
X0117507Y0028625D01*
X0117363Y0028560D01*
X0117217Y0028498D01*
X0117070Y0028440D01*
X0116921Y0028385D01*
X0116771Y0028334D01*
X0116620Y0028287D01*
X0116468Y0028244D01*
X0116315Y0028205D01*
X0116160Y0028169D01*
X0116005Y0028138D01*
X0115849Y0028110D01*
X0115693Y0028086D01*
X0115536Y0028066D01*
X0115378Y0028050D01*
X0115221Y0028038D01*
X0115062Y0028030D01*
X0114904Y0028026D01*
X0114746Y0028026D01*
X0114588Y0028030D01*
X0114429Y0028038D01*
X0114272Y0028050D01*
X0114114Y0028066D01*
X0113957Y0028086D01*
X0113801Y0028110D01*
X0113645Y0028138D01*
X0113490Y0028169D01*
X0113335Y0028205D01*
X0113182Y0028244D01*
X0113030Y0028287D01*
X0112879Y0028334D01*
X0112729Y0028385D01*
X0112580Y0028440D01*
X0112433Y0028498D01*
X0112287Y0028560D01*
X0112143Y0028625D01*
X0112001Y0028695D01*
X0111860Y0028767D01*
X0111721Y0028844D01*
X0111585Y0028923D01*
X0111450Y0029007D01*
X0111317Y0029093D01*
X0111187Y0029183D01*
X0111059Y0029276D01*
X0110933Y0029372D01*
X0110810Y0029472D01*
X0110689Y0029574D01*
X0110571Y0029679D01*
X0110456Y0029788D01*
X0110343Y0029899D01*
X0110233Y0030013D01*
X0110126Y0030130D01*
X0110022Y0030249D01*
X0109921Y0030371D01*
X0109824Y0030496D01*
X0109729Y0030623D01*
X0109638Y0030752D01*
X0109549Y0030883D01*
X0109465Y0031017D01*
X0109383Y0031153D01*
X0109305Y0031290D01*
X0109231Y0031430D01*
X0109160Y0031572D01*
X0109092Y0031715D01*
X0109028Y0031860D01*
X0108968Y0032006D01*
X0108912Y0032154D01*
X0108859Y0032303D01*
X0108810Y0032454D01*
X0108765Y0032606D01*
X0108724Y0032759D01*
X0108686Y0032912D01*
X0108653Y0033067D01*
X0108623Y0033223D01*
X0108597Y0033379D01*
X0108576Y0033536D01*
X0108558Y0033693D01*
X0108544Y0033851D01*
X0108534Y0034009D01*
X0108528Y0034167D01*
X0108526Y0034325D01*
X0027126Y0257025D02*
X0027128Y0257183D01*
X0027134Y0257341D01*
X0027144Y0257499D01*
X0027158Y0257657D01*
X0027176Y0257814D01*
X0027197Y0257971D01*
X0027223Y0258127D01*
X0027253Y0258283D01*
X0027286Y0258438D01*
X0027324Y0258591D01*
X0027365Y0258744D01*
X0027410Y0258896D01*
X0027459Y0259047D01*
X0027512Y0259196D01*
X0027568Y0259344D01*
X0027628Y0259490D01*
X0027692Y0259635D01*
X0027760Y0259778D01*
X0027831Y0259920D01*
X0027905Y0260060D01*
X0027983Y0260197D01*
X0028065Y0260333D01*
X0028149Y0260467D01*
X0028238Y0260598D01*
X0028329Y0260727D01*
X0028424Y0260854D01*
X0028521Y0260979D01*
X0028622Y0261101D01*
X0028726Y0261220D01*
X0028833Y0261337D01*
X0028943Y0261451D01*
X0029056Y0261562D01*
X0029171Y0261671D01*
X0029289Y0261776D01*
X0029410Y0261878D01*
X0029533Y0261978D01*
X0029659Y0262074D01*
X0029787Y0262167D01*
X0029917Y0262257D01*
X0030050Y0262343D01*
X0030185Y0262427D01*
X0030321Y0262506D01*
X0030460Y0262583D01*
X0030601Y0262655D01*
X0030743Y0262725D01*
X0030887Y0262790D01*
X0031033Y0262852D01*
X0031180Y0262910D01*
X0031329Y0262965D01*
X0031479Y0263016D01*
X0031630Y0263063D01*
X0031782Y0263106D01*
X0031935Y0263145D01*
X0032090Y0263181D01*
X0032245Y0263212D01*
X0032401Y0263240D01*
X0032557Y0263264D01*
X0032714Y0263284D01*
X0032872Y0263300D01*
X0033029Y0263312D01*
X0033188Y0263320D01*
X0033346Y0263324D01*
X0033504Y0263324D01*
X0033662Y0263320D01*
X0033821Y0263312D01*
X0033978Y0263300D01*
X0034136Y0263284D01*
X0034293Y0263264D01*
X0034449Y0263240D01*
X0034605Y0263212D01*
X0034760Y0263181D01*
X0034915Y0263145D01*
X0035068Y0263106D01*
X0035220Y0263063D01*
X0035371Y0263016D01*
X0035521Y0262965D01*
X0035670Y0262910D01*
X0035817Y0262852D01*
X0035963Y0262790D01*
X0036107Y0262725D01*
X0036249Y0262655D01*
X0036390Y0262583D01*
X0036529Y0262506D01*
X0036665Y0262427D01*
X0036800Y0262343D01*
X0036933Y0262257D01*
X0037063Y0262167D01*
X0037191Y0262074D01*
X0037317Y0261978D01*
X0037440Y0261878D01*
X0037561Y0261776D01*
X0037679Y0261671D01*
X0037794Y0261562D01*
X0037907Y0261451D01*
X0038017Y0261337D01*
X0038124Y0261220D01*
X0038228Y0261101D01*
X0038329Y0260979D01*
X0038426Y0260854D01*
X0038521Y0260727D01*
X0038612Y0260598D01*
X0038701Y0260467D01*
X0038785Y0260333D01*
X0038867Y0260197D01*
X0038945Y0260060D01*
X0039019Y0259920D01*
X0039090Y0259778D01*
X0039158Y0259635D01*
X0039222Y0259490D01*
X0039282Y0259344D01*
X0039338Y0259196D01*
X0039391Y0259047D01*
X0039440Y0258896D01*
X0039485Y0258744D01*
X0039526Y0258591D01*
X0039564Y0258438D01*
X0039597Y0258283D01*
X0039627Y0258127D01*
X0039653Y0257971D01*
X0039674Y0257814D01*
X0039692Y0257657D01*
X0039706Y0257499D01*
X0039716Y0257341D01*
X0039722Y0257183D01*
X0039724Y0257025D01*
X0039722Y0256867D01*
X0039716Y0256709D01*
X0039706Y0256551D01*
X0039692Y0256393D01*
X0039674Y0256236D01*
X0039653Y0256079D01*
X0039627Y0255923D01*
X0039597Y0255767D01*
X0039564Y0255612D01*
X0039526Y0255459D01*
X0039485Y0255306D01*
X0039440Y0255154D01*
X0039391Y0255003D01*
X0039338Y0254854D01*
X0039282Y0254706D01*
X0039222Y0254560D01*
X0039158Y0254415D01*
X0039090Y0254272D01*
X0039019Y0254130D01*
X0038945Y0253990D01*
X0038867Y0253853D01*
X0038785Y0253717D01*
X0038701Y0253583D01*
X0038612Y0253452D01*
X0038521Y0253323D01*
X0038426Y0253196D01*
X0038329Y0253071D01*
X0038228Y0252949D01*
X0038124Y0252830D01*
X0038017Y0252713D01*
X0037907Y0252599D01*
X0037794Y0252488D01*
X0037679Y0252379D01*
X0037561Y0252274D01*
X0037440Y0252172D01*
X0037317Y0252072D01*
X0037191Y0251976D01*
X0037063Y0251883D01*
X0036933Y0251793D01*
X0036800Y0251707D01*
X0036665Y0251623D01*
X0036529Y0251544D01*
X0036390Y0251467D01*
X0036249Y0251395D01*
X0036107Y0251325D01*
X0035963Y0251260D01*
X0035817Y0251198D01*
X0035670Y0251140D01*
X0035521Y0251085D01*
X0035371Y0251034D01*
X0035220Y0250987D01*
X0035068Y0250944D01*
X0034915Y0250905D01*
X0034760Y0250869D01*
X0034605Y0250838D01*
X0034449Y0250810D01*
X0034293Y0250786D01*
X0034136Y0250766D01*
X0033978Y0250750D01*
X0033821Y0250738D01*
X0033662Y0250730D01*
X0033504Y0250726D01*
X0033346Y0250726D01*
X0033188Y0250730D01*
X0033029Y0250738D01*
X0032872Y0250750D01*
X0032714Y0250766D01*
X0032557Y0250786D01*
X0032401Y0250810D01*
X0032245Y0250838D01*
X0032090Y0250869D01*
X0031935Y0250905D01*
X0031782Y0250944D01*
X0031630Y0250987D01*
X0031479Y0251034D01*
X0031329Y0251085D01*
X0031180Y0251140D01*
X0031033Y0251198D01*
X0030887Y0251260D01*
X0030743Y0251325D01*
X0030601Y0251395D01*
X0030460Y0251467D01*
X0030321Y0251544D01*
X0030185Y0251623D01*
X0030050Y0251707D01*
X0029917Y0251793D01*
X0029787Y0251883D01*
X0029659Y0251976D01*
X0029533Y0252072D01*
X0029410Y0252172D01*
X0029289Y0252274D01*
X0029171Y0252379D01*
X0029056Y0252488D01*
X0028943Y0252599D01*
X0028833Y0252713D01*
X0028726Y0252830D01*
X0028622Y0252949D01*
X0028521Y0253071D01*
X0028424Y0253196D01*
X0028329Y0253323D01*
X0028238Y0253452D01*
X0028149Y0253583D01*
X0028065Y0253717D01*
X0027983Y0253853D01*
X0027905Y0253990D01*
X0027831Y0254130D01*
X0027760Y0254272D01*
X0027692Y0254415D01*
X0027628Y0254560D01*
X0027568Y0254706D01*
X0027512Y0254854D01*
X0027459Y0255003D01*
X0027410Y0255154D01*
X0027365Y0255306D01*
X0027324Y0255459D01*
X0027286Y0255612D01*
X0027253Y0255767D01*
X0027223Y0255923D01*
X0027197Y0256079D01*
X0027176Y0256236D01*
X0027158Y0256393D01*
X0027144Y0256551D01*
X0027134Y0256709D01*
X0027128Y0256867D01*
X0027126Y0257025D01*
X0250126Y0337525D02*
X0250128Y0337683D01*
X0250134Y0337841D01*
X0250144Y0337999D01*
X0250158Y0338157D01*
X0250176Y0338314D01*
X0250197Y0338471D01*
X0250223Y0338627D01*
X0250253Y0338783D01*
X0250286Y0338938D01*
X0250324Y0339091D01*
X0250365Y0339244D01*
X0250410Y0339396D01*
X0250459Y0339547D01*
X0250512Y0339696D01*
X0250568Y0339844D01*
X0250628Y0339990D01*
X0250692Y0340135D01*
X0250760Y0340278D01*
X0250831Y0340420D01*
X0250905Y0340560D01*
X0250983Y0340697D01*
X0251065Y0340833D01*
X0251149Y0340967D01*
X0251238Y0341098D01*
X0251329Y0341227D01*
X0251424Y0341354D01*
X0251521Y0341479D01*
X0251622Y0341601D01*
X0251726Y0341720D01*
X0251833Y0341837D01*
X0251943Y0341951D01*
X0252056Y0342062D01*
X0252171Y0342171D01*
X0252289Y0342276D01*
X0252410Y0342378D01*
X0252533Y0342478D01*
X0252659Y0342574D01*
X0252787Y0342667D01*
X0252917Y0342757D01*
X0253050Y0342843D01*
X0253185Y0342927D01*
X0253321Y0343006D01*
X0253460Y0343083D01*
X0253601Y0343155D01*
X0253743Y0343225D01*
X0253887Y0343290D01*
X0254033Y0343352D01*
X0254180Y0343410D01*
X0254329Y0343465D01*
X0254479Y0343516D01*
X0254630Y0343563D01*
X0254782Y0343606D01*
X0254935Y0343645D01*
X0255090Y0343681D01*
X0255245Y0343712D01*
X0255401Y0343740D01*
X0255557Y0343764D01*
X0255714Y0343784D01*
X0255872Y0343800D01*
X0256029Y0343812D01*
X0256188Y0343820D01*
X0256346Y0343824D01*
X0256504Y0343824D01*
X0256662Y0343820D01*
X0256821Y0343812D01*
X0256978Y0343800D01*
X0257136Y0343784D01*
X0257293Y0343764D01*
X0257449Y0343740D01*
X0257605Y0343712D01*
X0257760Y0343681D01*
X0257915Y0343645D01*
X0258068Y0343606D01*
X0258220Y0343563D01*
X0258371Y0343516D01*
X0258521Y0343465D01*
X0258670Y0343410D01*
X0258817Y0343352D01*
X0258963Y0343290D01*
X0259107Y0343225D01*
X0259249Y0343155D01*
X0259390Y0343083D01*
X0259529Y0343006D01*
X0259665Y0342927D01*
X0259800Y0342843D01*
X0259933Y0342757D01*
X0260063Y0342667D01*
X0260191Y0342574D01*
X0260317Y0342478D01*
X0260440Y0342378D01*
X0260561Y0342276D01*
X0260679Y0342171D01*
X0260794Y0342062D01*
X0260907Y0341951D01*
X0261017Y0341837D01*
X0261124Y0341720D01*
X0261228Y0341601D01*
X0261329Y0341479D01*
X0261426Y0341354D01*
X0261521Y0341227D01*
X0261612Y0341098D01*
X0261701Y0340967D01*
X0261785Y0340833D01*
X0261867Y0340697D01*
X0261945Y0340560D01*
X0262019Y0340420D01*
X0262090Y0340278D01*
X0262158Y0340135D01*
X0262222Y0339990D01*
X0262282Y0339844D01*
X0262338Y0339696D01*
X0262391Y0339547D01*
X0262440Y0339396D01*
X0262485Y0339244D01*
X0262526Y0339091D01*
X0262564Y0338938D01*
X0262597Y0338783D01*
X0262627Y0338627D01*
X0262653Y0338471D01*
X0262674Y0338314D01*
X0262692Y0338157D01*
X0262706Y0337999D01*
X0262716Y0337841D01*
X0262722Y0337683D01*
X0262724Y0337525D01*
X0262722Y0337367D01*
X0262716Y0337209D01*
X0262706Y0337051D01*
X0262692Y0336893D01*
X0262674Y0336736D01*
X0262653Y0336579D01*
X0262627Y0336423D01*
X0262597Y0336267D01*
X0262564Y0336112D01*
X0262526Y0335959D01*
X0262485Y0335806D01*
X0262440Y0335654D01*
X0262391Y0335503D01*
X0262338Y0335354D01*
X0262282Y0335206D01*
X0262222Y0335060D01*
X0262158Y0334915D01*
X0262090Y0334772D01*
X0262019Y0334630D01*
X0261945Y0334490D01*
X0261867Y0334353D01*
X0261785Y0334217D01*
X0261701Y0334083D01*
X0261612Y0333952D01*
X0261521Y0333823D01*
X0261426Y0333696D01*
X0261329Y0333571D01*
X0261228Y0333449D01*
X0261124Y0333330D01*
X0261017Y0333213D01*
X0260907Y0333099D01*
X0260794Y0332988D01*
X0260679Y0332879D01*
X0260561Y0332774D01*
X0260440Y0332672D01*
X0260317Y0332572D01*
X0260191Y0332476D01*
X0260063Y0332383D01*
X0259933Y0332293D01*
X0259800Y0332207D01*
X0259665Y0332123D01*
X0259529Y0332044D01*
X0259390Y0331967D01*
X0259249Y0331895D01*
X0259107Y0331825D01*
X0258963Y0331760D01*
X0258817Y0331698D01*
X0258670Y0331640D01*
X0258521Y0331585D01*
X0258371Y0331534D01*
X0258220Y0331487D01*
X0258068Y0331444D01*
X0257915Y0331405D01*
X0257760Y0331369D01*
X0257605Y0331338D01*
X0257449Y0331310D01*
X0257293Y0331286D01*
X0257136Y0331266D01*
X0256978Y0331250D01*
X0256821Y0331238D01*
X0256662Y0331230D01*
X0256504Y0331226D01*
X0256346Y0331226D01*
X0256188Y0331230D01*
X0256029Y0331238D01*
X0255872Y0331250D01*
X0255714Y0331266D01*
X0255557Y0331286D01*
X0255401Y0331310D01*
X0255245Y0331338D01*
X0255090Y0331369D01*
X0254935Y0331405D01*
X0254782Y0331444D01*
X0254630Y0331487D01*
X0254479Y0331534D01*
X0254329Y0331585D01*
X0254180Y0331640D01*
X0254033Y0331698D01*
X0253887Y0331760D01*
X0253743Y0331825D01*
X0253601Y0331895D01*
X0253460Y0331967D01*
X0253321Y0332044D01*
X0253185Y0332123D01*
X0253050Y0332207D01*
X0252917Y0332293D01*
X0252787Y0332383D01*
X0252659Y0332476D01*
X0252533Y0332572D01*
X0252410Y0332672D01*
X0252289Y0332774D01*
X0252171Y0332879D01*
X0252056Y0332988D01*
X0251943Y0333099D01*
X0251833Y0333213D01*
X0251726Y0333330D01*
X0251622Y0333449D01*
X0251521Y0333571D01*
X0251424Y0333696D01*
X0251329Y0333823D01*
X0251238Y0333952D01*
X0251149Y0334083D01*
X0251065Y0334217D01*
X0250983Y0334353D01*
X0250905Y0334490D01*
X0250831Y0334630D01*
X0250760Y0334772D01*
X0250692Y0334915D01*
X0250628Y0335060D01*
X0250568Y0335206D01*
X0250512Y0335354D01*
X0250459Y0335503D01*
X0250410Y0335654D01*
X0250365Y0335806D01*
X0250324Y0335959D01*
X0250286Y0336112D01*
X0250253Y0336267D01*
X0250223Y0336423D01*
X0250197Y0336579D01*
X0250176Y0336736D01*
X0250158Y0336893D01*
X0250144Y0337051D01*
X0250134Y0337209D01*
X0250128Y0337367D01*
X0250126Y0337525D01*
D13*
X0246925Y0188925D03*
X0256925Y0188925D03*
X0266925Y0188925D03*
X0276925Y0188925D03*
X0286925Y0188925D03*
X0296925Y0188925D03*
X0306925Y0188925D03*
X0316925Y0188925D03*
X0326925Y0188925D03*
D14*
X0209125Y0227225D03*
X0209125Y0237225D03*
X0209125Y0247225D03*
X0209125Y0257225D03*
X0209125Y0267225D03*
X0209125Y0277225D03*
X0209125Y0287225D03*
X0209125Y0297225D03*
X0209125Y0307225D03*
X0199125Y0307225D03*
X0199125Y0317225D03*
X0199125Y0327225D03*
X0209125Y0327225D03*
X0209125Y0317225D03*
X0209125Y0337225D03*
X0209125Y0347225D03*
X0199125Y0347225D03*
X0209125Y0357225D03*
X0149125Y0357225D03*
X0149125Y0347225D03*
X0149125Y0337225D03*
X0149125Y0327225D03*
X0149125Y0317225D03*
X0149125Y0307225D03*
X0149125Y0297225D03*
X0149125Y0287225D03*
X0149125Y0277225D03*
X0149125Y0267225D03*
X0149125Y0257225D03*
X0149125Y0247225D03*
X0149125Y0237225D03*
X0149125Y0227225D03*
X0159125Y0227225D03*
X0169125Y0227225D03*
X0179125Y0227225D03*
X0189125Y0227225D03*
X0199125Y0227225D03*
D15*
X0221432Y0145858D03*
X0221432Y0137984D03*
X0221432Y0130110D03*
X0221432Y0122236D03*
X0221432Y0114362D03*
X0221432Y0106488D03*
X0221432Y0098614D03*
X0221432Y0090740D03*
X0221432Y0082866D03*
X0221432Y0074992D03*
X0134818Y0074992D03*
X0134818Y0082866D03*
X0134818Y0090740D03*
X0134818Y0098614D03*
X0134818Y0106488D03*
X0134818Y0114362D03*
X0134818Y0122236D03*
X0134818Y0130110D03*
X0134818Y0137984D03*
X0134818Y0145858D03*
D16*
X0115025Y0152025D03*
X0115025Y0162025D03*
X0115025Y0172025D03*
X0115025Y0182025D03*
X0115025Y0192025D03*
X0115025Y0202025D03*
X0115025Y0212025D03*
X0135825Y0254025D03*
X0135825Y0264025D03*
X0135825Y0274025D03*
X0135825Y0284025D03*
X0135825Y0294025D03*
X0135825Y0304025D03*
X0135825Y0314025D03*
X0125825Y0341725D03*
X0115825Y0341725D03*
X0105825Y0341725D03*
X0219630Y0359356D03*
X0222525Y0342925D03*
X0231588Y0338699D03*
X0240652Y0334473D03*
X0247821Y0349095D03*
X0262025Y0301625D03*
X0272025Y0301625D03*
X0282025Y0301625D03*
X0282025Y0281625D03*
X0282025Y0271625D03*
X0282025Y0261625D03*
X0282025Y0241625D03*
X0272025Y0241625D03*
X0262025Y0241625D03*
X0314525Y0260425D03*
X0314525Y0270425D03*
X0314525Y0280425D03*
X0098525Y0136425D03*
X0068525Y0136425D03*
X0051325Y0137025D03*
X0021325Y0137025D03*
X0073530Y0101725D03*
X0099121Y0101725D03*
X0216925Y0056725D03*
X0243225Y0047225D03*
X0246925Y0056725D03*
X0266525Y0062625D03*
X0243225Y0017225D03*
D17*
X0252025Y0241625D03*
X0252025Y0301625D03*
D18*
X0275025Y0325925D02*
X0275025Y0333325D01*
X0301125Y0323625D02*
X0301125Y0316225D01*
X0105125Y0321225D02*
X0105125Y0328625D01*
X0086725Y0328025D02*
X0086725Y0335425D01*
D19*
X0111525Y0238625D03*
X0106525Y0231125D03*
X0116525Y0231125D03*
D20*
X0052025Y0082125D02*
X0061625Y0072625D01*
X0084325Y0071825D01*
X0127125Y0071525D01*
X0138325Y0059525D01*
X0147125Y0050825D01*
X0160225Y0044125D01*
X0162258Y0044292D01*
X0165225Y0044925D01*
X0170625Y0044025D01*
X0177225Y0044325D01*
X0180125Y0045225D01*
X0225125Y0043425D01*
X0225025Y0026625D01*
X0238048Y0016036D01*
X0237925Y0016808D01*
X0237925Y0016940D01*
X0242939Y0016940D01*
X0242939Y0017511D01*
X0237925Y0017511D01*
X0237925Y0017643D01*
X0238056Y0018466D01*
X0238314Y0019260D01*
X0238692Y0020003D01*
X0239183Y0020678D01*
X0239773Y0021268D01*
X0240448Y0021758D01*
X0241191Y0022137D01*
X0241984Y0022395D01*
X0242808Y0022525D01*
X0242940Y0022525D01*
X0242940Y0017511D01*
X0243511Y0017511D01*
X0243511Y0022525D01*
X0243643Y0022525D01*
X0244466Y0022395D01*
X0245260Y0022137D01*
X0246003Y0021758D01*
X0246678Y0021268D01*
X0247268Y0020678D01*
X0247758Y0020003D01*
X0248137Y0019260D01*
X0248395Y0018466D01*
X0248463Y0018035D01*
X0253606Y0019862D01*
X0256355Y0021131D01*
X0261425Y0024725D01*
X0260025Y0036725D01*
X0260544Y0062125D01*
X0254154Y0062125D01*
X0254054Y0062025D01*
X0252397Y0062025D01*
X0242025Y0072397D01*
X0242025Y0072738D01*
X0232825Y0081938D01*
X0232825Y0074812D01*
X0245841Y0061797D01*
X0245911Y0061825D01*
X0247940Y0061825D01*
X0249814Y0061049D01*
X0251249Y0059614D01*
X0252025Y0057740D01*
X0252025Y0055711D01*
X0251249Y0053836D01*
X0249814Y0052402D01*
X0247940Y0051625D01*
X0245930Y0051625D01*
X0246114Y0051549D01*
X0247549Y0050114D01*
X0248325Y0048240D01*
X0248325Y0046211D01*
X0247549Y0044336D01*
X0246114Y0042902D01*
X0244240Y0042125D01*
X0242211Y0042125D01*
X0240336Y0042902D01*
X0238902Y0044336D01*
X0238125Y0046211D01*
X0238125Y0048240D01*
X0238902Y0050114D01*
X0240336Y0051549D01*
X0242211Y0052325D01*
X0244221Y0052325D01*
X0244036Y0052402D01*
X0242602Y0053836D01*
X0241825Y0055711D01*
X0241825Y0057740D01*
X0242602Y0059614D01*
X0242626Y0059638D01*
X0229025Y0073238D01*
X0229025Y0235738D01*
X0211294Y0253470D01*
X0209981Y0252925D01*
X0208270Y0252925D01*
X0206690Y0253580D01*
X0205480Y0254790D01*
X0204825Y0256370D01*
X0204825Y0258081D01*
X0205480Y0259661D01*
X0206690Y0260871D01*
X0208270Y0261525D01*
X0209981Y0261525D01*
X0211561Y0260871D01*
X0212771Y0259661D01*
X0213425Y0258081D01*
X0213425Y0256712D01*
X0231525Y0238612D01*
X0231525Y0284237D01*
X0230352Y0283750D01*
X0228999Y0283750D01*
X0227749Y0284268D01*
X0226793Y0285224D01*
X0226275Y0286474D01*
X0226275Y0287827D01*
X0226286Y0287853D01*
X0213263Y0300875D01*
X0212150Y0301988D01*
X0212150Y0304169D01*
X0211561Y0303580D01*
X0209981Y0302925D01*
X0208270Y0302925D01*
X0206690Y0303580D01*
X0205480Y0304790D01*
X0204825Y0306370D01*
X0204825Y0308081D01*
X0205480Y0309661D01*
X0206690Y0310871D01*
X0208270Y0311525D01*
X0209981Y0311525D01*
X0211561Y0310871D01*
X0212150Y0310281D01*
X0212150Y0314169D01*
X0211561Y0313580D01*
X0209981Y0312925D01*
X0208270Y0312925D01*
X0206690Y0313580D01*
X0205480Y0314790D01*
X0204825Y0316370D01*
X0204825Y0318081D01*
X0205480Y0319661D01*
X0206690Y0320871D01*
X0208270Y0321525D01*
X0209981Y0321525D01*
X0211561Y0320871D01*
X0212150Y0320281D01*
X0212150Y0324169D01*
X0211561Y0323580D01*
X0209981Y0322925D01*
X0208270Y0322925D01*
X0206690Y0323580D01*
X0205480Y0324790D01*
X0204825Y0326370D01*
X0204825Y0328081D01*
X0205480Y0329661D01*
X0206690Y0330871D01*
X0208270Y0331525D01*
X0209981Y0331525D01*
X0211561Y0330871D01*
X0212150Y0330281D01*
X0212150Y0334169D01*
X0211561Y0333580D01*
X0209981Y0332925D01*
X0208270Y0332925D01*
X0206690Y0333580D01*
X0205480Y0334790D01*
X0204825Y0336370D01*
X0204825Y0338081D01*
X0205480Y0339661D01*
X0206690Y0340871D01*
X0208270Y0341525D01*
X0209981Y0341525D01*
X0211561Y0340871D01*
X0212150Y0340281D01*
X0212150Y0344169D01*
X0211561Y0343580D01*
X0209981Y0342925D01*
X0208270Y0342925D01*
X0206690Y0343580D01*
X0205480Y0344790D01*
X0204825Y0346370D01*
X0204825Y0348081D01*
X0205480Y0349661D01*
X0206690Y0350871D01*
X0208270Y0351525D01*
X0209981Y0351525D01*
X0211561Y0350871D01*
X0212150Y0350281D01*
X0212150Y0354169D01*
X0211561Y0353580D01*
X0209981Y0352925D01*
X0208270Y0352925D01*
X0206690Y0353580D01*
X0205480Y0354790D01*
X0204825Y0356370D01*
X0204825Y0358081D01*
X0205480Y0359661D01*
X0206690Y0360871D01*
X0208270Y0361525D01*
X0209981Y0361525D01*
X0211561Y0360871D01*
X0212771Y0359661D01*
X0213425Y0358081D01*
X0213425Y0356370D01*
X0213225Y0355887D01*
X0214867Y0357529D01*
X0214530Y0358341D01*
X0214530Y0360370D01*
X0215306Y0362245D01*
X0215649Y0362587D01*
X0206293Y0364090D01*
X0190007Y0365204D01*
X0173688Y0364833D01*
X0157470Y0362979D01*
X0150462Y0361523D01*
X0150853Y0361396D01*
X0151484Y0361074D01*
X0152057Y0360658D01*
X0152558Y0360157D01*
X0152974Y0359584D01*
X0153296Y0358953D01*
X0153515Y0358279D01*
X0153625Y0357580D01*
X0153625Y0357575D01*
X0149475Y0357575D01*
X0149475Y0356875D01*
X0149475Y0352725D01*
X0149480Y0352725D01*
X0150179Y0352836D01*
X0150853Y0353055D01*
X0151484Y0353377D01*
X0152057Y0353793D01*
X0152558Y0354294D01*
X0152974Y0354867D01*
X0153296Y0355498D01*
X0153515Y0356172D01*
X0153625Y0356871D01*
X0153625Y0356875D01*
X0149475Y0356875D01*
X0148775Y0356875D01*
X0148775Y0352725D01*
X0148771Y0352725D01*
X0148072Y0352836D01*
X0147398Y0353055D01*
X0146767Y0353377D01*
X0146194Y0353793D01*
X0145693Y0354294D01*
X0145277Y0354867D01*
X0144955Y0355498D01*
X0144736Y0356172D01*
X0144625Y0356871D01*
X0144625Y0356875D01*
X0148775Y0356875D01*
X0148775Y0357575D01*
X0144625Y0357575D01*
X0144625Y0357580D01*
X0144736Y0358279D01*
X0144955Y0358953D01*
X0145277Y0359584D01*
X0145693Y0360157D01*
X0146166Y0360630D01*
X0141487Y0359657D01*
X0125873Y0354897D01*
X0110756Y0348736D01*
X0107151Y0346867D01*
X0107860Y0346637D01*
X0108603Y0346258D01*
X0109278Y0345768D01*
X0109868Y0345178D01*
X0110358Y0344503D01*
X0110737Y0343760D01*
X0110918Y0343204D01*
X0111502Y0344614D01*
X0112936Y0346049D01*
X0114811Y0346825D01*
X0116840Y0346825D01*
X0118714Y0346049D01*
X0120149Y0344614D01*
X0120825Y0342981D01*
X0121502Y0344614D01*
X0122936Y0346049D01*
X0124811Y0346825D01*
X0126840Y0346825D01*
X0128714Y0346049D01*
X0130149Y0344614D01*
X0130925Y0342740D01*
X0130925Y0340711D01*
X0130149Y0338836D01*
X0128714Y0337402D01*
X0126840Y0336625D01*
X0124811Y0336625D01*
X0122936Y0337402D01*
X0121502Y0338836D01*
X0120825Y0340470D01*
X0120486Y0339651D01*
X0130462Y0329675D01*
X0130604Y0329675D01*
X0131775Y0328504D01*
X0131775Y0328362D01*
X0142825Y0317312D01*
X0142825Y0278238D01*
X0141712Y0277125D01*
X0140545Y0275958D01*
X0140925Y0275040D01*
X0140925Y0273011D01*
X0140149Y0271136D01*
X0138714Y0269702D01*
X0137081Y0269025D01*
X0138714Y0268349D01*
X0140149Y0266914D01*
X0140925Y0265040D01*
X0140925Y0263011D01*
X0140545Y0262093D01*
X0142825Y0259812D01*
X0142825Y0247312D01*
X0148612Y0241525D01*
X0149981Y0241525D01*
X0151525Y0240886D01*
X0151525Y0243565D01*
X0149981Y0242925D01*
X0148270Y0242925D01*
X0146690Y0243580D01*
X0145480Y0244790D01*
X0144825Y0246370D01*
X0144825Y0248081D01*
X0145480Y0249661D01*
X0146690Y0250871D01*
X0148270Y0251525D01*
X0149981Y0251525D01*
X0151525Y0250886D01*
X0151525Y0253565D01*
X0149981Y0252925D01*
X0148270Y0252925D01*
X0146690Y0253580D01*
X0145480Y0254790D01*
X0144825Y0256370D01*
X0144825Y0258081D01*
X0145480Y0259661D01*
X0146690Y0260871D01*
X0148270Y0261525D01*
X0149981Y0261525D01*
X0151525Y0260886D01*
X0151525Y0263565D01*
X0149981Y0262925D01*
X0148270Y0262925D01*
X0146690Y0263580D01*
X0145480Y0264790D01*
X0144825Y0266370D01*
X0144825Y0268081D01*
X0145480Y0269661D01*
X0146690Y0270871D01*
X0148270Y0271525D01*
X0149981Y0271525D01*
X0151525Y0270886D01*
X0151525Y0273238D01*
X0151294Y0273470D01*
X0149981Y0272925D01*
X0148270Y0272925D01*
X0146690Y0273580D01*
X0145480Y0274790D01*
X0144825Y0276370D01*
X0144825Y0278081D01*
X0145480Y0279661D01*
X0146690Y0280871D01*
X0148270Y0281525D01*
X0149981Y0281525D01*
X0151561Y0280871D01*
X0152771Y0279661D01*
X0153425Y0278081D01*
X0153425Y0276712D01*
X0154212Y0275925D01*
X0155325Y0274812D01*
X0155325Y0229288D01*
X0155480Y0229661D01*
X0156690Y0230871D01*
X0158270Y0231525D01*
X0159981Y0231525D01*
X0161525Y0230886D01*
X0161525Y0323238D01*
X0151294Y0333470D01*
X0149981Y0332925D01*
X0148270Y0332925D01*
X0146690Y0333580D01*
X0145480Y0334790D01*
X0144825Y0336370D01*
X0144825Y0338081D01*
X0145480Y0339661D01*
X0146690Y0340871D01*
X0148270Y0341525D01*
X0149981Y0341525D01*
X0151561Y0340871D01*
X0152771Y0339661D01*
X0153425Y0338081D01*
X0153425Y0336712D01*
X0165325Y0324812D01*
X0165325Y0229288D01*
X0165480Y0229661D01*
X0166525Y0230707D01*
X0166525Y0328632D01*
X0166499Y0328643D01*
X0165543Y0329599D01*
X0165025Y0330849D01*
X0165025Y0332202D01*
X0165543Y0333451D01*
X0166499Y0334408D01*
X0167459Y0334805D01*
X0157638Y0344625D01*
X0152606Y0344625D01*
X0151561Y0343580D01*
X0149981Y0342925D01*
X0148270Y0342925D01*
X0146690Y0343580D01*
X0145480Y0344790D01*
X0144825Y0346370D01*
X0144825Y0348081D01*
X0145480Y0349661D01*
X0146690Y0350871D01*
X0148270Y0351525D01*
X0149981Y0351525D01*
X0151561Y0350871D01*
X0152771Y0349661D01*
X0153283Y0348425D01*
X0159212Y0348425D01*
X0160325Y0347312D01*
X0175325Y0332312D01*
X0175325Y0229651D01*
X0175693Y0230157D01*
X0176194Y0230658D01*
X0176767Y0231074D01*
X0177398Y0231396D01*
X0178072Y0231615D01*
X0178771Y0231725D01*
X0178775Y0231725D01*
X0178775Y0227575D01*
X0179475Y0227575D01*
X0179475Y0231725D01*
X0179480Y0231725D01*
X0180179Y0231615D01*
X0180853Y0231396D01*
X0181484Y0231074D01*
X0182057Y0230658D01*
X0182558Y0230157D01*
X0182974Y0229584D01*
X0183296Y0228953D01*
X0183515Y0228279D01*
X0183625Y0227580D01*
X0183625Y0227575D01*
X0179475Y0227575D01*
X0179475Y0226875D01*
X0179475Y0222725D01*
X0179480Y0222725D01*
X0180179Y0222836D01*
X0180853Y0223055D01*
X0181484Y0223377D01*
X0182057Y0223793D01*
X0182558Y0224294D01*
X0182974Y0224867D01*
X0183296Y0225498D01*
X0183515Y0226172D01*
X0183625Y0226871D01*
X0183625Y0226875D01*
X0179475Y0226875D01*
X0178775Y0226875D01*
X0178775Y0222725D01*
X0178771Y0222725D01*
X0178072Y0222836D01*
X0177398Y0223055D01*
X0176767Y0223377D01*
X0176194Y0223793D01*
X0175693Y0224294D01*
X0175325Y0224800D01*
X0175325Y0132312D01*
X0217458Y0090180D01*
X0217458Y0091531D01*
X0218063Y0092992D01*
X0219181Y0094110D01*
X0220551Y0094677D01*
X0219181Y0095245D01*
X0218063Y0096363D01*
X0217458Y0097824D01*
X0217458Y0099405D01*
X0218063Y0100866D01*
X0219181Y0101984D01*
X0220551Y0102551D01*
X0219181Y0103119D01*
X0218063Y0104237D01*
X0217458Y0105698D01*
X0217458Y0107279D01*
X0218063Y0108740D01*
X0219181Y0109858D01*
X0220551Y0110425D01*
X0219181Y0110993D01*
X0218063Y0112111D01*
X0217458Y0113572D01*
X0217458Y0115153D01*
X0218063Y0116614D01*
X0219181Y0117732D01*
X0220551Y0118299D01*
X0219181Y0118867D01*
X0218063Y0119985D01*
X0217458Y0121446D01*
X0217458Y0123027D01*
X0218063Y0124488D01*
X0219181Y0125606D01*
X0220551Y0126173D01*
X0219181Y0126741D01*
X0218063Y0127859D01*
X0217458Y0129320D01*
X0217458Y0130901D01*
X0218063Y0132362D01*
X0219181Y0133480D01*
X0220551Y0134047D01*
X0219181Y0134615D01*
X0218063Y0135733D01*
X0217458Y0137194D01*
X0217458Y0138775D01*
X0218063Y0140236D01*
X0219181Y0141354D01*
X0220326Y0141828D01*
X0219830Y0141990D01*
X0219244Y0142288D01*
X0218713Y0142674D01*
X0218248Y0143139D01*
X0217862Y0143670D01*
X0217564Y0144256D01*
X0217360Y0144881D01*
X0217258Y0145530D01*
X0217258Y0145671D01*
X0221245Y0145671D01*
X0221245Y0146046D01*
X0221245Y0150033D01*
X0221104Y0150033D01*
X0220455Y0149930D01*
X0219830Y0149727D01*
X0219244Y0149429D01*
X0218713Y0149043D01*
X0218248Y0148578D01*
X0217862Y0148047D01*
X0217564Y0147461D01*
X0217360Y0146836D01*
X0217258Y0146187D01*
X0217258Y0146046D01*
X0221245Y0146046D01*
X0221620Y0146046D01*
X0221620Y0150033D01*
X0221761Y0150033D01*
X0222410Y0149930D01*
X0223035Y0149727D01*
X0223621Y0149429D01*
X0224152Y0149043D01*
X0224617Y0148578D01*
X0225003Y0148047D01*
X0225301Y0147461D01*
X0225504Y0146836D01*
X0225607Y0146187D01*
X0225607Y0146046D01*
X0221620Y0146046D01*
X0221620Y0145671D01*
X0225607Y0145671D01*
X0225607Y0145530D01*
X0225504Y0144881D01*
X0225301Y0144256D01*
X0225003Y0143670D01*
X0224617Y0143139D01*
X0224152Y0142674D01*
X0223621Y0142288D01*
X0223035Y0141990D01*
X0222539Y0141828D01*
X0223684Y0141354D01*
X0224802Y0140236D01*
X0225407Y0138775D01*
X0225407Y0137194D01*
X0224802Y0135733D01*
X0223684Y0134615D01*
X0222314Y0134047D01*
X0223684Y0133480D01*
X0224802Y0132362D01*
X0225407Y0130901D01*
X0225407Y0129320D01*
X0224802Y0127859D01*
X0223684Y0126741D01*
X0222314Y0126173D01*
X0223684Y0125606D01*
X0224802Y0124488D01*
X0225407Y0123027D01*
X0225407Y0121446D01*
X0224802Y0119985D01*
X0223684Y0118867D01*
X0222314Y0118299D01*
X0223684Y0117732D01*
X0224802Y0116614D01*
X0225407Y0115153D01*
X0225407Y0113572D01*
X0224802Y0112111D01*
X0223684Y0110993D01*
X0222314Y0110425D01*
X0223684Y0109858D01*
X0224802Y0108740D01*
X0225407Y0107279D01*
X0225407Y0105698D01*
X0224802Y0104237D01*
X0223684Y0103119D01*
X0222314Y0102551D01*
X0223684Y0101984D01*
X0224802Y0100866D01*
X0225407Y0099405D01*
X0225407Y0097824D01*
X0224802Y0096363D01*
X0223684Y0095245D01*
X0222314Y0094677D01*
X0223684Y0094110D01*
X0224802Y0092992D01*
X0225407Y0091531D01*
X0225407Y0089950D01*
X0224802Y0088489D01*
X0224476Y0088162D01*
X0226712Y0085925D01*
X0227825Y0084812D01*
X0227825Y0070738D01*
X0224212Y0067125D01*
X0177254Y0067125D01*
X0177154Y0067025D01*
X0175497Y0067025D01*
X0161425Y0081097D01*
X0161425Y0084554D01*
X0161525Y0084654D01*
X0161525Y0223565D01*
X0159981Y0222925D01*
X0158270Y0222925D01*
X0156690Y0223580D01*
X0155480Y0224790D01*
X0155325Y0225163D01*
X0155325Y0194419D01*
X0155351Y0194408D01*
X0156308Y0193451D01*
X0156825Y0192202D01*
X0156825Y0190849D01*
X0156308Y0189599D01*
X0155351Y0188643D01*
X0154102Y0188125D01*
X0152749Y0188125D01*
X0151499Y0188643D01*
X0150543Y0189599D01*
X0150025Y0190849D01*
X0150025Y0192202D01*
X0150543Y0193451D01*
X0151499Y0194408D01*
X0151525Y0194419D01*
X0151525Y0223565D01*
X0149981Y0222925D01*
X0148270Y0222925D01*
X0146690Y0223580D01*
X0145480Y0224790D01*
X0144825Y0226370D01*
X0144825Y0228081D01*
X0145370Y0229394D01*
X0127638Y0247125D01*
X0126525Y0248238D01*
X0126525Y0299812D01*
X0130725Y0304012D01*
X0130725Y0305040D01*
X0131502Y0306914D01*
X0132936Y0308349D01*
X0134570Y0309025D01*
X0132936Y0309702D01*
X0131502Y0311136D01*
X0130725Y0313011D01*
X0130725Y0315040D01*
X0131502Y0316914D01*
X0132936Y0318349D01*
X0134811Y0319125D01*
X0135638Y0319125D01*
X0131725Y0323038D01*
X0131725Y0319497D01*
X0130554Y0318325D01*
X0130412Y0318325D01*
X0107825Y0295738D01*
X0107825Y0241572D01*
X0109579Y0243325D01*
X0113472Y0243325D01*
X0116225Y0240572D01*
X0116225Y0236679D01*
X0115572Y0236025D01*
X0116325Y0236025D01*
X0116325Y0231325D01*
X0116325Y0230925D01*
X0116725Y0230925D01*
X0116725Y0226225D01*
X0118555Y0226225D01*
X0121425Y0229096D01*
X0121425Y0230925D01*
X0116725Y0230925D01*
X0116725Y0231325D01*
X0116325Y0231325D01*
X0111625Y0231325D01*
X0111625Y0233155D01*
X0112396Y0233925D01*
X0110372Y0233925D01*
X0111225Y0233072D01*
X0111225Y0229179D01*
X0110325Y0228279D01*
X0110325Y0214475D01*
X0110492Y0214803D01*
X0110983Y0215478D01*
X0111573Y0216068D01*
X0112248Y0216558D01*
X0112991Y0216937D01*
X0113784Y0217195D01*
X0114608Y0217325D01*
X0114625Y0217325D01*
X0114625Y0212425D01*
X0115425Y0212425D01*
X0115425Y0217325D01*
X0115443Y0217325D01*
X0116266Y0217195D01*
X0117060Y0216937D01*
X0117803Y0216558D01*
X0118478Y0216068D01*
X0119068Y0215478D01*
X0119558Y0214803D01*
X0119937Y0214060D01*
X0120195Y0213266D01*
X0120325Y0212443D01*
X0120325Y0212425D01*
X0115425Y0212425D01*
X0115425Y0211625D01*
X0120325Y0211625D01*
X0120325Y0211608D01*
X0120195Y0210784D01*
X0119937Y0209991D01*
X0119558Y0209248D01*
X0119068Y0208573D01*
X0118478Y0207983D01*
X0117803Y0207492D01*
X0117060Y0207114D01*
X0116504Y0206933D01*
X0117914Y0206349D01*
X0119349Y0204914D01*
X0120125Y0203040D01*
X0120125Y0201011D01*
X0119349Y0199136D01*
X0117914Y0197702D01*
X0116281Y0197025D01*
X0117914Y0196349D01*
X0119349Y0194914D01*
X0120125Y0193040D01*
X0120125Y0191011D01*
X0119349Y0189136D01*
X0117914Y0187702D01*
X0116281Y0187025D01*
X0117914Y0186349D01*
X0119349Y0184914D01*
X0120125Y0183040D01*
X0120125Y0181011D01*
X0119349Y0179136D01*
X0117914Y0177702D01*
X0116281Y0177025D01*
X0117914Y0176349D01*
X0119349Y0174914D01*
X0120125Y0173040D01*
X0120125Y0171011D01*
X0119349Y0169136D01*
X0117914Y0167702D01*
X0116281Y0167025D01*
X0117914Y0166349D01*
X0119349Y0164914D01*
X0120125Y0163040D01*
X0120125Y0161011D01*
X0119349Y0159136D01*
X0117914Y0157702D01*
X0116281Y0157025D01*
X0117914Y0156349D01*
X0119349Y0154914D01*
X0120125Y0153040D01*
X0120125Y0151011D01*
X0119349Y0149136D01*
X0117914Y0147702D01*
X0116040Y0146925D01*
X0114011Y0146925D01*
X0112136Y0147702D01*
X0110702Y0149136D01*
X0109925Y0151011D01*
X0109925Y0153040D01*
X0110702Y0154914D01*
X0112136Y0156349D01*
X0113770Y0157025D01*
X0112136Y0157702D01*
X0110702Y0159136D01*
X0109925Y0161011D01*
X0109925Y0163040D01*
X0110702Y0164914D01*
X0112136Y0166349D01*
X0113770Y0167025D01*
X0112136Y0167702D01*
X0110702Y0169136D01*
X0109925Y0171011D01*
X0109925Y0173040D01*
X0110702Y0174914D01*
X0112136Y0176349D01*
X0113770Y0177025D01*
X0112136Y0177702D01*
X0110702Y0179136D01*
X0109925Y0181011D01*
X0109925Y0183040D01*
X0110702Y0184914D01*
X0112136Y0186349D01*
X0113770Y0187025D01*
X0112136Y0187702D01*
X0110702Y0189136D01*
X0109925Y0191011D01*
X0109925Y0193040D01*
X0110702Y0194914D01*
X0112136Y0196349D01*
X0113770Y0197025D01*
X0112136Y0197702D01*
X0110702Y0199136D01*
X0109925Y0201011D01*
X0109925Y0203040D01*
X0110452Y0204312D01*
X0106525Y0208238D01*
X0106525Y0226425D01*
X0104579Y0226425D01*
X0102825Y0228179D01*
X0102825Y0218238D01*
X0101712Y0217125D01*
X0025075Y0140488D01*
X0025649Y0139914D01*
X0026425Y0138040D01*
X0026425Y0136011D01*
X0025649Y0134136D01*
X0024214Y0132702D01*
X0022340Y0131925D01*
X0020311Y0131925D01*
X0018436Y0132702D01*
X0017002Y0134136D01*
X0016225Y0136011D01*
X0016225Y0138040D01*
X0017002Y0139914D01*
X0018436Y0141349D01*
X0020311Y0142125D01*
X0021338Y0142125D01*
X0099025Y0219812D01*
X0099025Y0322312D01*
X0100025Y0323312D01*
X0100025Y0329640D01*
X0100802Y0331514D01*
X0102236Y0332949D01*
X0104111Y0333725D01*
X0106140Y0333725D01*
X0108014Y0332949D01*
X0109449Y0331514D01*
X0110225Y0329640D01*
X0110225Y0320211D01*
X0109449Y0318336D01*
X0108014Y0316902D01*
X0106140Y0316125D01*
X0104111Y0316125D01*
X0102825Y0316658D01*
X0102825Y0234072D01*
X0104025Y0235272D01*
X0104025Y0297312D01*
X0105138Y0298425D01*
X0127725Y0321012D01*
X0127725Y0327038D01*
X0117758Y0337006D01*
X0116840Y0336625D01*
X0114811Y0336625D01*
X0112936Y0337402D01*
X0111502Y0338836D01*
X0110918Y0340247D01*
X0110737Y0339691D01*
X0110358Y0338948D01*
X0109868Y0338273D01*
X0109278Y0337683D01*
X0108603Y0337192D01*
X0107860Y0336814D01*
X0107066Y0336556D01*
X0106243Y0336425D01*
X0106225Y0336425D01*
X0106225Y0341325D01*
X0105425Y0341325D01*
X0105425Y0336425D01*
X0105408Y0336425D01*
X0104584Y0336556D01*
X0103791Y0336814D01*
X0103048Y0337192D01*
X0102373Y0337683D01*
X0101783Y0338273D01*
X0101292Y0338948D01*
X0100914Y0339691D01*
X0100656Y0340484D01*
X0100525Y0341308D01*
X0100525Y0341325D01*
X0105425Y0341325D01*
X0105425Y0342125D01*
X0100525Y0342125D01*
X0100525Y0342143D01*
X0100656Y0342966D01*
X0100865Y0343611D01*
X0096263Y0341226D01*
X0091327Y0338068D01*
X0091637Y0337460D01*
X0091895Y0336666D01*
X0092025Y0335843D01*
X0092025Y0332225D01*
X0087225Y0332225D01*
X0087225Y0331225D01*
X0087225Y0322739D01*
X0087966Y0322856D01*
X0088760Y0323114D01*
X0089503Y0323492D01*
X0090178Y0323983D01*
X0090768Y0324573D01*
X0091258Y0325248D01*
X0091637Y0325991D01*
X0091895Y0326784D01*
X0092025Y0327608D01*
X0092025Y0331225D01*
X0087225Y0331225D01*
X0086225Y0331225D01*
X0086225Y0322739D01*
X0085484Y0322856D01*
X0084691Y0323114D01*
X0083948Y0323492D01*
X0083273Y0323983D01*
X0082683Y0324573D01*
X0082192Y0325248D01*
X0081814Y0325991D01*
X0081556Y0326784D01*
X0081425Y0327608D01*
X0081425Y0331225D01*
X0086225Y0331225D01*
X0086225Y0332225D01*
X0082250Y0332225D01*
X0072625Y0324753D01*
X0072625Y0315125D01*
X0058160Y0305154D01*
X0047728Y0296920D01*
X0044925Y0248125D01*
X0044225Y0248025D01*
X0039635Y0248025D01*
X0037632Y0246869D01*
X0034860Y0246126D01*
X0031990Y0246126D01*
X0029218Y0246869D01*
X0027215Y0248025D01*
X0022525Y0248025D01*
X0017325Y0242825D01*
X0017325Y0148325D01*
X0012325Y0143325D01*
X0012325Y0141532D01*
X0015442Y0130409D01*
X0018425Y0127425D01*
X0018425Y0122405D01*
X0021446Y0114482D01*
X0023151Y0111000D01*
X0052025Y0082125D01*
X0051896Y0082255D02*
X0130844Y0082255D01*
X0130844Y0082076D02*
X0131449Y0080615D01*
X0132567Y0079497D01*
X0133936Y0078929D01*
X0132567Y0078362D01*
X0131449Y0077244D01*
X0130844Y0075783D01*
X0130844Y0074202D01*
X0131449Y0072741D01*
X0132567Y0071623D01*
X0134028Y0071018D01*
X0135609Y0071018D01*
X0137070Y0071623D01*
X0138188Y0072741D01*
X0138793Y0074202D01*
X0138793Y0075783D01*
X0138188Y0077244D01*
X0137070Y0078362D01*
X0135700Y0078929D01*
X0137070Y0079497D01*
X0138188Y0080615D01*
X0138793Y0082076D01*
X0138793Y0083657D01*
X0138188Y0085118D01*
X0137070Y0086236D01*
X0135700Y0086803D01*
X0137070Y0087371D01*
X0138188Y0088489D01*
X0138793Y0089950D01*
X0138793Y0091531D01*
X0138188Y0092992D01*
X0137070Y0094110D01*
X0135700Y0094677D01*
X0137070Y0095245D01*
X0138188Y0096363D01*
X0138793Y0097824D01*
X0138793Y0099405D01*
X0138188Y0100866D01*
X0137070Y0101984D01*
X0135700Y0102551D01*
X0137070Y0103119D01*
X0138188Y0104237D01*
X0138793Y0105698D01*
X0138793Y0107279D01*
X0138188Y0108740D01*
X0137070Y0109858D01*
X0135700Y0110425D01*
X0137070Y0110993D01*
X0138188Y0112111D01*
X0138793Y0113572D01*
X0138793Y0115153D01*
X0138188Y0116614D01*
X0137070Y0117732D01*
X0135700Y0118299D01*
X0137070Y0118867D01*
X0138188Y0119985D01*
X0138793Y0121446D01*
X0138793Y0123027D01*
X0138188Y0124488D01*
X0137070Y0125606D01*
X0135700Y0126173D01*
X0137070Y0126741D01*
X0138188Y0127859D01*
X0138793Y0129320D01*
X0138793Y0130901D01*
X0138188Y0132362D01*
X0137070Y0133480D01*
X0135700Y0134047D01*
X0137070Y0134615D01*
X0138188Y0135733D01*
X0138793Y0137194D01*
X0138793Y0138775D01*
X0138188Y0140236D01*
X0137070Y0141354D01*
X0135700Y0141921D01*
X0137070Y0142489D01*
X0138188Y0143607D01*
X0138793Y0145068D01*
X0138793Y0146649D01*
X0138188Y0148110D01*
X0137070Y0149228D01*
X0135609Y0149833D01*
X0134028Y0149833D01*
X0132567Y0149228D01*
X0131449Y0148110D01*
X0130844Y0146649D01*
X0130844Y0145068D01*
X0131449Y0143607D01*
X0132567Y0142489D01*
X0133936Y0141921D01*
X0132567Y0141354D01*
X0131449Y0140236D01*
X0130844Y0138775D01*
X0130844Y0137194D01*
X0131449Y0135733D01*
X0132567Y0134615D01*
X0133936Y0134047D01*
X0132567Y0133480D01*
X0131449Y0132362D01*
X0130844Y0130901D01*
X0130844Y0129320D01*
X0131449Y0127859D01*
X0132567Y0126741D01*
X0133936Y0126173D01*
X0132567Y0125606D01*
X0131449Y0124488D01*
X0130844Y0123027D01*
X0130844Y0121446D01*
X0131449Y0119985D01*
X0132567Y0118867D01*
X0133936Y0118299D01*
X0132567Y0117732D01*
X0131449Y0116614D01*
X0130844Y0115153D01*
X0130844Y0113572D01*
X0131449Y0112111D01*
X0132567Y0110993D01*
X0133936Y0110425D01*
X0132567Y0109858D01*
X0131449Y0108740D01*
X0130844Y0107279D01*
X0130844Y0105698D01*
X0131449Y0104237D01*
X0132567Y0103119D01*
X0133936Y0102551D01*
X0132567Y0101984D01*
X0131449Y0100866D01*
X0130844Y0099405D01*
X0130844Y0097824D01*
X0131449Y0096363D01*
X0132567Y0095245D01*
X0133936Y0094677D01*
X0132567Y0094110D01*
X0131449Y0092992D01*
X0130844Y0091531D01*
X0130844Y0089950D01*
X0131449Y0088489D01*
X0132567Y0087371D01*
X0133936Y0086803D01*
X0132567Y0086236D01*
X0131449Y0085118D01*
X0130844Y0083657D01*
X0130844Y0082076D01*
X0131266Y0081056D02*
X0053106Y0081056D01*
X0054317Y0079858D02*
X0132206Y0079858D01*
X0133285Y0078659D02*
X0055528Y0078659D01*
X0056739Y0077461D02*
X0131666Y0077461D01*
X0131042Y0076262D02*
X0057950Y0076262D01*
X0059161Y0075064D02*
X0130844Y0075064D01*
X0130983Y0073865D02*
X0060372Y0073865D01*
X0061584Y0072667D02*
X0131523Y0072667D01*
X0132939Y0071468D02*
X0127179Y0071468D01*
X0128297Y0070270D02*
X0172253Y0070270D01*
X0173451Y0069071D02*
X0129416Y0069071D01*
X0130535Y0067873D02*
X0174650Y0067873D01*
X0176325Y0069025D02*
X0163425Y0081925D01*
X0163425Y0083725D01*
X0161425Y0083453D02*
X0138793Y0083453D01*
X0138793Y0082255D02*
X0161425Y0082255D01*
X0161466Y0081056D02*
X0138371Y0081056D01*
X0137431Y0079858D02*
X0162664Y0079858D01*
X0163863Y0078659D02*
X0136352Y0078659D01*
X0137971Y0077461D02*
X0165061Y0077461D01*
X0166260Y0076262D02*
X0138595Y0076262D01*
X0138793Y0075064D02*
X0167459Y0075064D01*
X0168657Y0073865D02*
X0138654Y0073865D01*
X0138114Y0072667D02*
X0169856Y0072667D01*
X0171054Y0071468D02*
X0136697Y0071468D01*
X0131653Y0066674D02*
X0235590Y0066674D01*
X0236788Y0065476D02*
X0132772Y0065476D01*
X0133890Y0064277D02*
X0237987Y0064277D01*
X0239185Y0063079D02*
X0135009Y0063079D01*
X0136128Y0061880D02*
X0240384Y0061880D01*
X0241582Y0060682D02*
X0220182Y0060682D01*
X0219814Y0061049D02*
X0217940Y0061825D01*
X0215911Y0061825D01*
X0214036Y0061049D01*
X0212602Y0059614D01*
X0211825Y0057740D01*
X0211825Y0055711D01*
X0212602Y0053836D01*
X0214036Y0052402D01*
X0215911Y0051625D01*
X0217940Y0051625D01*
X0219814Y0052402D01*
X0221249Y0053836D01*
X0222025Y0055711D01*
X0222025Y0057740D01*
X0221249Y0059614D01*
X0219814Y0061049D01*
X0221303Y0059483D02*
X0242548Y0059483D01*
X0242051Y0058285D02*
X0221800Y0058285D01*
X0222025Y0057086D02*
X0241825Y0057086D01*
X0241825Y0055888D02*
X0222025Y0055888D01*
X0221602Y0054689D02*
X0242249Y0054689D01*
X0242948Y0053491D02*
X0220903Y0053491D01*
X0219549Y0052292D02*
X0242131Y0052292D01*
X0239881Y0051094D02*
X0146854Y0051094D01*
X0145642Y0052292D02*
X0214301Y0052292D01*
X0212948Y0053491D02*
X0144430Y0053491D01*
X0143217Y0054689D02*
X0212249Y0054689D01*
X0211825Y0055888D02*
X0142005Y0055888D01*
X0140793Y0057086D02*
X0211825Y0057086D01*
X0212051Y0058285D02*
X0139580Y0058285D01*
X0138368Y0059483D02*
X0212548Y0059483D01*
X0213669Y0060682D02*
X0137246Y0060682D01*
X0148944Y0049895D02*
X0238811Y0049895D01*
X0238315Y0048697D02*
X0151288Y0048697D01*
X0153631Y0047498D02*
X0238125Y0047498D01*
X0238125Y0046300D02*
X0155974Y0046300D01*
X0158318Y0045101D02*
X0179725Y0045101D01*
X0183234Y0045101D02*
X0238585Y0045101D01*
X0239336Y0043903D02*
X0213197Y0043903D01*
X0225121Y0042704D02*
X0240814Y0042704D01*
X0245637Y0042704D02*
X0260147Y0042704D01*
X0260123Y0041506D02*
X0225114Y0041506D01*
X0225107Y0040307D02*
X0260098Y0040307D01*
X0260074Y0039109D02*
X0225100Y0039109D01*
X0225093Y0037910D02*
X0260050Y0037910D01*
X0260027Y0036711D02*
X0225085Y0036711D01*
X0225078Y0035513D02*
X0260167Y0035513D01*
X0260307Y0034314D02*
X0225071Y0034314D01*
X0225064Y0033116D02*
X0260446Y0033116D01*
X0260586Y0031917D02*
X0225057Y0031917D01*
X0225050Y0030719D02*
X0260726Y0030719D01*
X0260866Y0029520D02*
X0225043Y0029520D01*
X0225035Y0028322D02*
X0261006Y0028322D01*
X0261146Y0027123D02*
X0225028Y0027123D01*
X0225887Y0025925D02*
X0261285Y0025925D01*
X0261425Y0024726D02*
X0227361Y0024726D01*
X0228835Y0023528D02*
X0259736Y0023528D01*
X0258045Y0022329D02*
X0244668Y0022329D01*
X0243511Y0022329D02*
X0242940Y0022329D01*
X0241783Y0022329D02*
X0230308Y0022329D01*
X0231782Y0021131D02*
X0239636Y0021131D01*
X0238656Y0019932D02*
X0233256Y0019932D01*
X0234730Y0018734D02*
X0238143Y0018734D01*
X0237925Y0017535D02*
X0236204Y0017535D01*
X0237678Y0016337D02*
X0238000Y0016337D01*
X0242940Y0017535D02*
X0243511Y0017535D01*
X0243225Y0017225D02*
X0228425Y0032025D01*
X0228425Y0034025D01*
X0242940Y0021131D02*
X0243511Y0021131D01*
X0243511Y0019932D02*
X0242940Y0019932D01*
X0242940Y0018734D02*
X0243511Y0018734D01*
X0246815Y0021131D02*
X0256354Y0021131D01*
X0253758Y0019932D02*
X0247794Y0019932D01*
X0248308Y0018734D02*
X0250431Y0018734D01*
X0247115Y0043903D02*
X0260172Y0043903D01*
X0260196Y0045101D02*
X0247866Y0045101D01*
X0248325Y0046300D02*
X0260221Y0046300D01*
X0260245Y0047498D02*
X0248325Y0047498D01*
X0248136Y0048697D02*
X0260270Y0048697D01*
X0260294Y0049895D02*
X0247640Y0049895D01*
X0246570Y0051094D02*
X0260319Y0051094D01*
X0260343Y0052292D02*
X0249549Y0052292D01*
X0250903Y0053491D02*
X0260368Y0053491D01*
X0260392Y0054689D02*
X0251602Y0054689D01*
X0252025Y0055888D02*
X0260416Y0055888D01*
X0260441Y0057086D02*
X0252025Y0057086D01*
X0251800Y0058285D02*
X0260465Y0058285D01*
X0260490Y0059483D02*
X0251303Y0059483D01*
X0250182Y0060682D02*
X0260514Y0060682D01*
X0260539Y0061880D02*
X0245758Y0061880D01*
X0244559Y0063079D02*
X0251344Y0063079D01*
X0250145Y0064277D02*
X0243361Y0064277D01*
X0242162Y0065476D02*
X0248947Y0065476D01*
X0247748Y0066674D02*
X0240964Y0066674D01*
X0239765Y0067873D02*
X0246550Y0067873D01*
X0245351Y0069071D02*
X0238566Y0069071D01*
X0237368Y0070270D02*
X0244153Y0070270D01*
X0242954Y0071468D02*
X0236169Y0071468D01*
X0234971Y0072667D02*
X0242025Y0072667D01*
X0240898Y0073865D02*
X0233772Y0073865D01*
X0232825Y0075064D02*
X0239700Y0075064D01*
X0238501Y0076262D02*
X0232825Y0076262D01*
X0232825Y0077461D02*
X0237303Y0077461D01*
X0236104Y0078659D02*
X0232825Y0078659D01*
X0232825Y0079858D02*
X0234906Y0079858D01*
X0233707Y0081056D02*
X0232825Y0081056D01*
X0229025Y0081056D02*
X0227825Y0081056D01*
X0227825Y0079858D02*
X0229025Y0079858D01*
X0229025Y0078659D02*
X0227825Y0078659D01*
X0227825Y0077461D02*
X0229025Y0077461D01*
X0229025Y0076262D02*
X0227825Y0076262D01*
X0227825Y0075064D02*
X0229025Y0075064D01*
X0229025Y0073865D02*
X0227825Y0073865D01*
X0227825Y0072667D02*
X0229597Y0072667D01*
X0230795Y0071468D02*
X0227825Y0071468D01*
X0227357Y0070270D02*
X0231994Y0070270D01*
X0233192Y0069071D02*
X0226158Y0069071D01*
X0224960Y0067873D02*
X0234391Y0067873D01*
X0244025Y0073225D02*
X0253225Y0064025D01*
X0254154Y0065925D02*
X0246025Y0074054D01*
X0246025Y0074254D01*
X0244854Y0075425D01*
X0244712Y0075425D01*
X0241892Y0078246D01*
X0242851Y0078643D01*
X0243808Y0079599D01*
X0244325Y0080849D01*
X0244325Y0082202D01*
X0243808Y0083451D01*
X0242851Y0084408D01*
X0242825Y0084419D01*
X0242825Y0186096D01*
X0244150Y0184771D01*
X0245951Y0184025D01*
X0247900Y0184025D01*
X0249701Y0184771D01*
X0251079Y0186150D01*
X0251825Y0187951D01*
X0251825Y0189900D01*
X0251079Y0191701D01*
X0249701Y0193079D01*
X0247995Y0193786D01*
X0248808Y0194599D01*
X0249325Y0195849D01*
X0249325Y0197202D01*
X0249315Y0197228D01*
X0261712Y0209625D01*
X0262825Y0210738D01*
X0262825Y0236525D01*
X0263040Y0236525D01*
X0264914Y0237302D01*
X0266349Y0238736D01*
X0267025Y0240370D01*
X0267702Y0238736D01*
X0269025Y0237413D01*
X0269025Y0202312D01*
X0259747Y0193034D01*
X0259701Y0193079D01*
X0257900Y0193825D01*
X0255951Y0193825D01*
X0254150Y0193079D01*
X0252771Y0191701D01*
X0252025Y0189900D01*
X0252025Y0187951D01*
X0252771Y0186150D01*
X0254150Y0184771D01*
X0255951Y0184025D01*
X0257900Y0184025D01*
X0259701Y0184771D01*
X0261079Y0186150D01*
X0261825Y0187951D01*
X0261825Y0189738D01*
X0261903Y0189816D01*
X0261825Y0189327D01*
X0261825Y0189310D01*
X0266541Y0189310D01*
X0266541Y0194025D01*
X0266524Y0194025D01*
X0266035Y0193948D01*
X0271712Y0199625D01*
X0272825Y0200738D01*
X0272825Y0236525D01*
X0273040Y0236525D01*
X0274914Y0237302D01*
X0276349Y0238736D01*
X0276933Y0240147D01*
X0277114Y0239591D01*
X0277492Y0238848D01*
X0277983Y0238173D01*
X0278573Y0237583D01*
X0279248Y0237092D01*
X0279991Y0236714D01*
X0280784Y0236456D01*
X0281608Y0236325D01*
X0281625Y0236325D01*
X0281625Y0241225D01*
X0282425Y0241225D01*
X0282425Y0236325D01*
X0282443Y0236325D01*
X0283266Y0236456D01*
X0284060Y0236714D01*
X0284803Y0237092D01*
X0285478Y0237583D01*
X0286068Y0238173D01*
X0286558Y0238848D01*
X0286937Y0239591D01*
X0287195Y0240384D01*
X0287325Y0241208D01*
X0287325Y0241225D01*
X0282425Y0241225D01*
X0282425Y0242025D01*
X0281625Y0242025D01*
X0281625Y0241225D01*
X0277125Y0241225D01*
X0277125Y0242025D01*
X0281625Y0242025D01*
X0281625Y0246925D01*
X0281608Y0246925D01*
X0280784Y0246795D01*
X0279991Y0246537D01*
X0279248Y0246158D01*
X0278573Y0245668D01*
X0277983Y0245078D01*
X0277492Y0244403D01*
X0277114Y0243660D01*
X0276933Y0243104D01*
X0276349Y0244514D01*
X0274914Y0245949D01*
X0273040Y0246725D01*
X0271011Y0246725D01*
X0269136Y0245949D01*
X0267702Y0244514D01*
X0267025Y0242881D01*
X0266349Y0244514D01*
X0264914Y0245949D01*
X0263040Y0246725D01*
X0261011Y0246725D01*
X0259136Y0245949D01*
X0257702Y0244514D01*
X0257125Y0243123D01*
X0257125Y0245905D01*
X0256305Y0246725D01*
X0247745Y0246725D01*
X0246925Y0245905D01*
X0246925Y0237345D01*
X0247745Y0236525D01*
X0249025Y0236525D01*
X0249025Y0207312D01*
X0246628Y0204915D01*
X0246602Y0204925D01*
X0245249Y0204925D01*
X0243999Y0204408D01*
X0243043Y0203451D01*
X0242825Y0202926D01*
X0242825Y0316597D01*
X0244897Y0314525D01*
X0261654Y0314525D01*
X0261754Y0314625D01*
X0296268Y0314625D01*
X0296802Y0313336D01*
X0298236Y0311902D01*
X0300111Y0311125D01*
X0302140Y0311125D01*
X0304014Y0311902D01*
X0305449Y0313336D01*
X0306225Y0315211D01*
X0306225Y0318772D01*
X0308324Y0316983D01*
X0313225Y0311969D01*
X0313225Y0295525D01*
X0338025Y0270725D01*
X0338025Y0187225D01*
X0336725Y0185925D01*
X0329991Y0185062D01*
X0331079Y0186150D01*
X0331825Y0187951D01*
X0331825Y0189900D01*
X0331079Y0191701D01*
X0329701Y0193079D01*
X0327900Y0193825D01*
X0325951Y0193825D01*
X0324150Y0193079D01*
X0322771Y0191701D01*
X0322025Y0189900D01*
X0322025Y0187951D01*
X0322771Y0186150D01*
X0324150Y0184771D01*
X0324996Y0184421D01*
X0302425Y0181525D01*
X0243825Y0182325D01*
X0260625Y0066125D01*
X0260621Y0065925D01*
X0254154Y0065925D01*
X0253405Y0066674D02*
X0260546Y0066674D01*
X0260373Y0067873D02*
X0252206Y0067873D01*
X0251008Y0069071D02*
X0260199Y0069071D01*
X0260026Y0070270D02*
X0249809Y0070270D01*
X0248611Y0071468D02*
X0259853Y0071468D01*
X0259680Y0072667D02*
X0247412Y0072667D01*
X0246214Y0073865D02*
X0259506Y0073865D01*
X0259333Y0075064D02*
X0245215Y0075064D01*
X0243875Y0076262D02*
X0259160Y0076262D01*
X0258987Y0077461D02*
X0242677Y0077461D01*
X0242868Y0078659D02*
X0258813Y0078659D01*
X0258640Y0079858D02*
X0243915Y0079858D01*
X0244325Y0081056D02*
X0258467Y0081056D01*
X0258293Y0082255D02*
X0244303Y0082255D01*
X0243806Y0083453D02*
X0258120Y0083453D01*
X0257947Y0084652D02*
X0242825Y0084652D01*
X0242825Y0085850D02*
X0257774Y0085850D01*
X0257600Y0087049D02*
X0242825Y0087049D01*
X0242825Y0088247D02*
X0257427Y0088247D01*
X0257254Y0089446D02*
X0242825Y0089446D01*
X0242825Y0090644D02*
X0257080Y0090644D01*
X0256907Y0091843D02*
X0242825Y0091843D01*
X0242825Y0093042D02*
X0256734Y0093042D01*
X0256561Y0094240D02*
X0242825Y0094240D01*
X0242825Y0095439D02*
X0256387Y0095439D01*
X0256214Y0096637D02*
X0242825Y0096637D01*
X0242825Y0097836D02*
X0256041Y0097836D01*
X0255868Y0099034D02*
X0242825Y0099034D01*
X0242825Y0100233D02*
X0255694Y0100233D01*
X0255521Y0101431D02*
X0242825Y0101431D01*
X0242825Y0102630D02*
X0255348Y0102630D01*
X0255174Y0103828D02*
X0242825Y0103828D01*
X0242825Y0105027D02*
X0255001Y0105027D01*
X0254828Y0106225D02*
X0242825Y0106225D01*
X0242825Y0107424D02*
X0254655Y0107424D01*
X0254481Y0108622D02*
X0242825Y0108622D01*
X0242825Y0109821D02*
X0254308Y0109821D01*
X0254135Y0111019D02*
X0242825Y0111019D01*
X0242825Y0112218D02*
X0253961Y0112218D01*
X0253788Y0113416D02*
X0242825Y0113416D01*
X0242825Y0114615D02*
X0253615Y0114615D01*
X0253442Y0115813D02*
X0242825Y0115813D01*
X0242825Y0117012D02*
X0253268Y0117012D01*
X0253095Y0118210D02*
X0242825Y0118210D01*
X0242825Y0119409D02*
X0252922Y0119409D01*
X0252748Y0120607D02*
X0242825Y0120607D01*
X0242825Y0121806D02*
X0252575Y0121806D01*
X0252402Y0123004D02*
X0242825Y0123004D01*
X0242825Y0124203D02*
X0252229Y0124203D01*
X0252055Y0125401D02*
X0242825Y0125401D01*
X0242825Y0126600D02*
X0251882Y0126600D01*
X0251709Y0127798D02*
X0242825Y0127798D01*
X0242825Y0128997D02*
X0251536Y0128997D01*
X0251362Y0130195D02*
X0242825Y0130195D01*
X0242825Y0131394D02*
X0251189Y0131394D01*
X0251016Y0132592D02*
X0242825Y0132592D01*
X0242825Y0133791D02*
X0250842Y0133791D01*
X0250669Y0134989D02*
X0242825Y0134989D01*
X0242825Y0136188D02*
X0250496Y0136188D01*
X0250323Y0137386D02*
X0242825Y0137386D01*
X0242825Y0138585D02*
X0250149Y0138585D01*
X0249976Y0139783D02*
X0242825Y0139783D01*
X0242825Y0140982D02*
X0249803Y0140982D01*
X0249629Y0142180D02*
X0242825Y0142180D01*
X0242825Y0143379D02*
X0249456Y0143379D01*
X0249283Y0144577D02*
X0242825Y0144577D01*
X0242825Y0145776D02*
X0249110Y0145776D01*
X0248936Y0146975D02*
X0242825Y0146975D01*
X0242825Y0148173D02*
X0248763Y0148173D01*
X0248590Y0149372D02*
X0242825Y0149372D01*
X0242825Y0150570D02*
X0248417Y0150570D01*
X0248243Y0151769D02*
X0242825Y0151769D01*
X0242825Y0152967D02*
X0248070Y0152967D01*
X0247897Y0154166D02*
X0242825Y0154166D01*
X0242825Y0155364D02*
X0247723Y0155364D01*
X0247550Y0156563D02*
X0242825Y0156563D01*
X0242825Y0157761D02*
X0247377Y0157761D01*
X0247204Y0158960D02*
X0242825Y0158960D01*
X0242825Y0160158D02*
X0247030Y0160158D01*
X0246857Y0161357D02*
X0242825Y0161357D01*
X0242825Y0162555D02*
X0246684Y0162555D01*
X0246510Y0163754D02*
X0242825Y0163754D01*
X0242825Y0164952D02*
X0246337Y0164952D01*
X0246164Y0166151D02*
X0242825Y0166151D01*
X0242825Y0167349D02*
X0245991Y0167349D01*
X0245817Y0168548D02*
X0242825Y0168548D01*
X0242825Y0169746D02*
X0245644Y0169746D01*
X0245471Y0170945D02*
X0242825Y0170945D01*
X0242825Y0172143D02*
X0245298Y0172143D01*
X0245124Y0173342D02*
X0242825Y0173342D01*
X0242825Y0174540D02*
X0244951Y0174540D01*
X0244778Y0175739D02*
X0242825Y0175739D01*
X0242825Y0176937D02*
X0244604Y0176937D01*
X0244431Y0178136D02*
X0242825Y0178136D01*
X0242825Y0179334D02*
X0244258Y0179334D01*
X0244085Y0180533D02*
X0242825Y0180533D01*
X0242825Y0181731D02*
X0243911Y0181731D01*
X0242825Y0182930D02*
X0313374Y0182930D01*
X0314150Y0184771D02*
X0315951Y0184025D01*
X0317900Y0184025D01*
X0319701Y0184771D01*
X0321079Y0186150D01*
X0321825Y0187951D01*
X0321825Y0189900D01*
X0321079Y0191701D01*
X0319701Y0193079D01*
X0317900Y0193825D01*
X0315951Y0193825D01*
X0314150Y0193079D01*
X0312771Y0191701D01*
X0312025Y0189900D01*
X0312025Y0187951D01*
X0312771Y0186150D01*
X0314150Y0184771D01*
X0313594Y0185327D02*
X0310257Y0185327D01*
X0309701Y0184771D02*
X0311079Y0186150D01*
X0311825Y0187951D01*
X0311825Y0189900D01*
X0311079Y0191701D01*
X0309701Y0193079D01*
X0307900Y0193825D01*
X0305951Y0193825D01*
X0304150Y0193079D01*
X0302771Y0191701D01*
X0302025Y0189900D01*
X0302025Y0187951D01*
X0302771Y0186150D01*
X0304150Y0184771D01*
X0305951Y0184025D01*
X0307900Y0184025D01*
X0309701Y0184771D01*
X0308149Y0184128D02*
X0315702Y0184128D01*
X0318149Y0184128D02*
X0322717Y0184128D01*
X0323594Y0185327D02*
X0320257Y0185327D01*
X0321235Y0186525D02*
X0322616Y0186525D01*
X0322119Y0187724D02*
X0321731Y0187724D01*
X0321825Y0188922D02*
X0322025Y0188922D01*
X0322117Y0190121D02*
X0321734Y0190121D01*
X0321237Y0191319D02*
X0322613Y0191319D01*
X0323588Y0192518D02*
X0320262Y0192518D01*
X0318163Y0193716D02*
X0325688Y0193716D01*
X0328163Y0193716D02*
X0338025Y0193716D01*
X0338025Y0192518D02*
X0330262Y0192518D01*
X0331237Y0191319D02*
X0338025Y0191319D01*
X0338025Y0190121D02*
X0331734Y0190121D01*
X0331825Y0188922D02*
X0338025Y0188922D01*
X0338025Y0187724D02*
X0331731Y0187724D01*
X0331235Y0186525D02*
X0337325Y0186525D01*
X0332060Y0185327D02*
X0330257Y0185327D01*
X0338025Y0194915D02*
X0267002Y0194915D01*
X0267310Y0194025D02*
X0267310Y0189310D01*
X0266541Y0189310D01*
X0266541Y0188541D01*
X0267310Y0188541D01*
X0267310Y0189310D01*
X0272025Y0189310D01*
X0272025Y0189327D01*
X0271900Y0190120D01*
X0271652Y0190883D01*
X0271287Y0191598D01*
X0270815Y0192248D01*
X0270248Y0192815D01*
X0269598Y0193287D01*
X0268883Y0193652D01*
X0268120Y0193900D01*
X0267327Y0194025D01*
X0267310Y0194025D01*
X0267310Y0193716D02*
X0266541Y0193716D01*
X0266541Y0192518D02*
X0267310Y0192518D01*
X0267310Y0191319D02*
X0266541Y0191319D01*
X0266541Y0190121D02*
X0267310Y0190121D01*
X0267310Y0188922D02*
X0272025Y0188922D01*
X0272025Y0188541D02*
X0267310Y0188541D01*
X0267310Y0183825D01*
X0267327Y0183825D01*
X0268120Y0183951D01*
X0268883Y0184199D01*
X0269598Y0184563D01*
X0270248Y0185035D01*
X0270815Y0185603D01*
X0271287Y0186252D01*
X0271652Y0186968D01*
X0271900Y0187731D01*
X0272025Y0188524D01*
X0272025Y0188541D01*
X0272025Y0187951D02*
X0272771Y0186150D01*
X0274150Y0184771D01*
X0275951Y0184025D01*
X0277900Y0184025D01*
X0279701Y0184771D01*
X0281079Y0186150D01*
X0281825Y0187951D01*
X0281825Y0189900D01*
X0281079Y0191701D01*
X0279701Y0193079D01*
X0277900Y0193825D01*
X0275951Y0193825D01*
X0274150Y0193079D01*
X0272771Y0191701D01*
X0272025Y0189900D01*
X0272025Y0187951D01*
X0272119Y0187724D02*
X0271897Y0187724D01*
X0271426Y0186525D02*
X0272616Y0186525D01*
X0273594Y0185327D02*
X0270539Y0185327D01*
X0268666Y0184128D02*
X0275702Y0184128D01*
X0278149Y0184128D02*
X0285702Y0184128D01*
X0285951Y0184025D02*
X0287900Y0184025D01*
X0289701Y0184771D01*
X0291079Y0186150D01*
X0291825Y0187951D01*
X0291825Y0189900D01*
X0291079Y0191701D01*
X0289701Y0193079D01*
X0287900Y0193825D01*
X0285951Y0193825D01*
X0284150Y0193079D01*
X0282771Y0191701D01*
X0282025Y0189900D01*
X0282025Y0187951D01*
X0282771Y0186150D01*
X0284150Y0184771D01*
X0285951Y0184025D01*
X0288149Y0184128D02*
X0295702Y0184128D01*
X0295951Y0184025D02*
X0297900Y0184025D01*
X0299701Y0184771D01*
X0301079Y0186150D01*
X0301825Y0187951D01*
X0301825Y0189900D01*
X0301079Y0191701D01*
X0299701Y0193079D01*
X0297900Y0193825D01*
X0295951Y0193825D01*
X0294150Y0193079D01*
X0292771Y0191701D01*
X0292025Y0189900D01*
X0292025Y0187951D01*
X0292771Y0186150D01*
X0294150Y0184771D01*
X0295951Y0184025D01*
X0298149Y0184128D02*
X0305702Y0184128D01*
X0303594Y0185327D02*
X0300257Y0185327D01*
X0301235Y0186525D02*
X0302616Y0186525D01*
X0302119Y0187724D02*
X0301731Y0187724D01*
X0301825Y0188922D02*
X0302025Y0188922D01*
X0302117Y0190121D02*
X0301734Y0190121D01*
X0301237Y0191319D02*
X0302613Y0191319D01*
X0303588Y0192518D02*
X0300262Y0192518D01*
X0298163Y0193716D02*
X0305688Y0193716D01*
X0308163Y0193716D02*
X0315688Y0193716D01*
X0313588Y0192518D02*
X0310262Y0192518D01*
X0311237Y0191319D02*
X0312613Y0191319D01*
X0312117Y0190121D02*
X0311734Y0190121D01*
X0311825Y0188922D02*
X0312025Y0188922D01*
X0312119Y0187724D02*
X0311731Y0187724D01*
X0311235Y0186525D02*
X0312616Y0186525D01*
X0304031Y0181731D02*
X0287339Y0181731D01*
X0290257Y0185327D02*
X0293594Y0185327D01*
X0292616Y0186525D02*
X0291235Y0186525D01*
X0291731Y0187724D02*
X0292119Y0187724D01*
X0292025Y0188922D02*
X0291825Y0188922D01*
X0291734Y0190121D02*
X0292117Y0190121D01*
X0292613Y0191319D02*
X0291237Y0191319D01*
X0290262Y0192518D02*
X0293588Y0192518D01*
X0295688Y0193716D02*
X0288163Y0193716D01*
X0285688Y0193716D02*
X0278163Y0193716D01*
X0280262Y0192518D02*
X0283588Y0192518D01*
X0282613Y0191319D02*
X0281237Y0191319D01*
X0281734Y0190121D02*
X0282117Y0190121D01*
X0282025Y0188922D02*
X0281825Y0188922D01*
X0281731Y0187724D02*
X0282119Y0187724D01*
X0282616Y0186525D02*
X0281235Y0186525D01*
X0280257Y0185327D02*
X0283594Y0185327D01*
X0275688Y0193716D02*
X0268684Y0193716D01*
X0270545Y0192518D02*
X0273588Y0192518D01*
X0272613Y0191319D02*
X0271429Y0191319D01*
X0271899Y0190121D02*
X0272117Y0190121D01*
X0268200Y0196113D02*
X0338025Y0196113D01*
X0338025Y0197312D02*
X0269399Y0197312D01*
X0270597Y0198511D02*
X0338025Y0198511D01*
X0338025Y0199709D02*
X0271796Y0199709D01*
X0272825Y0200908D02*
X0338025Y0200908D01*
X0338025Y0202106D02*
X0272825Y0202106D01*
X0272825Y0203305D02*
X0338025Y0203305D01*
X0338025Y0204503D02*
X0272825Y0204503D01*
X0272825Y0205702D02*
X0338025Y0205702D01*
X0338025Y0206900D02*
X0272825Y0206900D01*
X0272825Y0208099D02*
X0338025Y0208099D01*
X0338025Y0209297D02*
X0272825Y0209297D01*
X0272825Y0210496D02*
X0338025Y0210496D01*
X0338025Y0211694D02*
X0272825Y0211694D01*
X0272825Y0212893D02*
X0338025Y0212893D01*
X0338025Y0214091D02*
X0272825Y0214091D01*
X0272825Y0215290D02*
X0338025Y0215290D01*
X0338025Y0216488D02*
X0272825Y0216488D01*
X0272825Y0217687D02*
X0338025Y0217687D01*
X0338025Y0218885D02*
X0272825Y0218885D01*
X0272825Y0220084D02*
X0338025Y0220084D01*
X0338025Y0221282D02*
X0272825Y0221282D01*
X0272825Y0222481D02*
X0338025Y0222481D01*
X0338025Y0223679D02*
X0272825Y0223679D01*
X0272825Y0224878D02*
X0338025Y0224878D01*
X0338025Y0226076D02*
X0272825Y0226076D01*
X0272825Y0227275D02*
X0338025Y0227275D01*
X0338025Y0228473D02*
X0272825Y0228473D01*
X0272825Y0229672D02*
X0338025Y0229672D01*
X0338025Y0230870D02*
X0272825Y0230870D01*
X0272825Y0232069D02*
X0338025Y0232069D01*
X0338025Y0233267D02*
X0272825Y0233267D01*
X0272825Y0234466D02*
X0338025Y0234466D01*
X0338025Y0235664D02*
X0272825Y0235664D01*
X0273855Y0236863D02*
X0279698Y0236863D01*
X0281625Y0236863D02*
X0282425Y0236863D01*
X0282425Y0238061D02*
X0281625Y0238061D01*
X0281625Y0239260D02*
X0282425Y0239260D01*
X0282425Y0240458D02*
X0281625Y0240458D01*
X0281625Y0241657D02*
X0277125Y0241657D01*
X0277282Y0239260D02*
X0276566Y0239260D01*
X0275674Y0238061D02*
X0278094Y0238061D01*
X0282425Y0241657D02*
X0338025Y0241657D01*
X0338025Y0242855D02*
X0287197Y0242855D01*
X0287195Y0242866D02*
X0286937Y0243660D01*
X0286558Y0244403D01*
X0286068Y0245078D01*
X0285478Y0245668D01*
X0284803Y0246158D01*
X0284060Y0246537D01*
X0283266Y0246795D01*
X0282443Y0246925D01*
X0282425Y0246925D01*
X0282425Y0242025D01*
X0287325Y0242025D01*
X0287325Y0242043D01*
X0287195Y0242866D01*
X0286736Y0244054D02*
X0338025Y0244054D01*
X0338025Y0245252D02*
X0285894Y0245252D01*
X0284229Y0246451D02*
X0338025Y0246451D01*
X0338025Y0247649D02*
X0242825Y0247649D01*
X0242825Y0246451D02*
X0247471Y0246451D01*
X0246925Y0245252D02*
X0242825Y0245252D01*
X0242825Y0244054D02*
X0246925Y0244054D01*
X0246925Y0242855D02*
X0242825Y0242855D01*
X0242825Y0241657D02*
X0246925Y0241657D01*
X0246925Y0240458D02*
X0242825Y0240458D01*
X0242825Y0239260D02*
X0246925Y0239260D01*
X0246925Y0238061D02*
X0242825Y0238061D01*
X0242825Y0236863D02*
X0247408Y0236863D01*
X0249025Y0235664D02*
X0242825Y0235664D01*
X0242825Y0234466D02*
X0249025Y0234466D01*
X0249025Y0233267D02*
X0242825Y0233267D01*
X0242825Y0232069D02*
X0249025Y0232069D01*
X0249025Y0230870D02*
X0242825Y0230870D01*
X0242825Y0229672D02*
X0249025Y0229672D01*
X0249025Y0228473D02*
X0242825Y0228473D01*
X0242825Y0227275D02*
X0249025Y0227275D01*
X0249025Y0226076D02*
X0242825Y0226076D01*
X0242825Y0224878D02*
X0249025Y0224878D01*
X0249025Y0223679D02*
X0242825Y0223679D01*
X0242825Y0222481D02*
X0249025Y0222481D01*
X0249025Y0221282D02*
X0242825Y0221282D01*
X0242825Y0220084D02*
X0249025Y0220084D01*
X0249025Y0218885D02*
X0242825Y0218885D01*
X0242825Y0217687D02*
X0249025Y0217687D01*
X0249025Y0216488D02*
X0242825Y0216488D01*
X0242825Y0215290D02*
X0249025Y0215290D01*
X0249025Y0214091D02*
X0242825Y0214091D01*
X0242825Y0212893D02*
X0249025Y0212893D01*
X0249025Y0211694D02*
X0242825Y0211694D01*
X0242825Y0210496D02*
X0249025Y0210496D01*
X0249025Y0209297D02*
X0242825Y0209297D01*
X0242825Y0208099D02*
X0249025Y0208099D01*
X0248613Y0206900D02*
X0242825Y0206900D01*
X0242825Y0205702D02*
X0247415Y0205702D01*
X0244230Y0204503D02*
X0242825Y0204503D01*
X0242825Y0203305D02*
X0242982Y0203305D01*
X0249399Y0197312D02*
X0264025Y0197312D01*
X0265224Y0198511D02*
X0250597Y0198511D01*
X0251796Y0199709D02*
X0266422Y0199709D01*
X0267621Y0200908D02*
X0252995Y0200908D01*
X0254193Y0202106D02*
X0268819Y0202106D01*
X0269025Y0203305D02*
X0255392Y0203305D01*
X0256590Y0204503D02*
X0269025Y0204503D01*
X0269025Y0205702D02*
X0257789Y0205702D01*
X0258987Y0206900D02*
X0269025Y0206900D01*
X0269025Y0208099D02*
X0260186Y0208099D01*
X0261384Y0209297D02*
X0269025Y0209297D01*
X0269025Y0210496D02*
X0262583Y0210496D01*
X0262825Y0211694D02*
X0269025Y0211694D01*
X0269025Y0212893D02*
X0262825Y0212893D01*
X0262825Y0214091D02*
X0269025Y0214091D01*
X0269025Y0215290D02*
X0262825Y0215290D01*
X0262825Y0216488D02*
X0269025Y0216488D01*
X0269025Y0217687D02*
X0262825Y0217687D01*
X0262825Y0218885D02*
X0269025Y0218885D01*
X0269025Y0220084D02*
X0262825Y0220084D01*
X0262825Y0221282D02*
X0269025Y0221282D01*
X0269025Y0222481D02*
X0262825Y0222481D01*
X0262825Y0223679D02*
X0269025Y0223679D01*
X0269025Y0224878D02*
X0262825Y0224878D01*
X0262825Y0226076D02*
X0269025Y0226076D01*
X0269025Y0227275D02*
X0262825Y0227275D01*
X0262825Y0228473D02*
X0269025Y0228473D01*
X0269025Y0229672D02*
X0262825Y0229672D01*
X0262825Y0230870D02*
X0269025Y0230870D01*
X0269025Y0232069D02*
X0262825Y0232069D01*
X0262825Y0233267D02*
X0269025Y0233267D01*
X0269025Y0234466D02*
X0262825Y0234466D01*
X0262825Y0235664D02*
X0269025Y0235664D01*
X0269025Y0236863D02*
X0263855Y0236863D01*
X0265674Y0238061D02*
X0268377Y0238061D01*
X0267485Y0239260D02*
X0266566Y0239260D01*
X0266540Y0244054D02*
X0267511Y0244054D01*
X0268440Y0245252D02*
X0265611Y0245252D01*
X0263702Y0246451D02*
X0270348Y0246451D01*
X0273702Y0246451D02*
X0279822Y0246451D01*
X0281625Y0246451D02*
X0282425Y0246451D01*
X0282425Y0245252D02*
X0281625Y0245252D01*
X0281625Y0244054D02*
X0282425Y0244054D01*
X0282425Y0242855D02*
X0281625Y0242855D01*
X0278157Y0245252D02*
X0275611Y0245252D01*
X0276540Y0244054D02*
X0277314Y0244054D01*
X0284353Y0236863D02*
X0338025Y0236863D01*
X0338025Y0238061D02*
X0285957Y0238061D01*
X0286768Y0239260D02*
X0338025Y0239260D01*
X0338025Y0240458D02*
X0287207Y0240458D01*
X0283040Y0256525D02*
X0281011Y0256525D01*
X0279136Y0257302D01*
X0277702Y0258736D01*
X0276925Y0260611D01*
X0276925Y0262640D01*
X0277702Y0264514D01*
X0279136Y0265949D01*
X0280770Y0266625D01*
X0279136Y0267302D01*
X0277702Y0268736D01*
X0276925Y0270611D01*
X0276925Y0272640D01*
X0277702Y0274514D01*
X0279136Y0275949D01*
X0280770Y0276625D01*
X0279136Y0277302D01*
X0277702Y0278736D01*
X0276925Y0280611D01*
X0276925Y0282640D01*
X0277702Y0284514D01*
X0279136Y0285949D01*
X0281011Y0286725D01*
X0283040Y0286725D01*
X0284914Y0285949D01*
X0286349Y0284514D01*
X0287125Y0282640D01*
X0287125Y0280611D01*
X0286349Y0278736D01*
X0284914Y0277302D01*
X0283281Y0276625D01*
X0284914Y0275949D01*
X0286349Y0274514D01*
X0287125Y0272640D01*
X0287125Y0270611D01*
X0286349Y0268736D01*
X0284914Y0267302D01*
X0283281Y0266625D01*
X0284914Y0265949D01*
X0286349Y0264514D01*
X0287125Y0262640D01*
X0287125Y0260611D01*
X0286349Y0258736D01*
X0284914Y0257302D01*
X0283040Y0256525D01*
X0284759Y0257238D02*
X0310501Y0257238D01*
X0310202Y0257536D02*
X0311636Y0256102D01*
X0313511Y0255325D01*
X0315540Y0255325D01*
X0317414Y0256102D01*
X0318849Y0257536D01*
X0319625Y0259411D01*
X0319625Y0261440D01*
X0318849Y0263314D01*
X0317414Y0264749D01*
X0315781Y0265425D01*
X0317414Y0266102D01*
X0318849Y0267536D01*
X0319625Y0269411D01*
X0319625Y0271440D01*
X0318849Y0273314D01*
X0317414Y0274749D01*
X0316004Y0275333D01*
X0316560Y0275514D01*
X0317303Y0275892D01*
X0317978Y0276383D01*
X0318568Y0276973D01*
X0319058Y0277648D01*
X0319437Y0278391D01*
X0319695Y0279184D01*
X0319825Y0280008D01*
X0319825Y0280025D01*
X0314925Y0280025D01*
X0314925Y0280825D01*
X0319825Y0280825D01*
X0319825Y0280843D01*
X0319695Y0281666D01*
X0319437Y0282460D01*
X0319058Y0283203D01*
X0318568Y0283878D01*
X0317978Y0284468D01*
X0317303Y0284958D01*
X0316560Y0285337D01*
X0315766Y0285595D01*
X0314943Y0285725D01*
X0314925Y0285725D01*
X0314925Y0280825D01*
X0314125Y0280825D01*
X0314125Y0280025D01*
X0309225Y0280025D01*
X0309225Y0280008D01*
X0309356Y0279184D01*
X0309614Y0278391D01*
X0309992Y0277648D01*
X0310483Y0276973D01*
X0311073Y0276383D01*
X0311748Y0275892D01*
X0312491Y0275514D01*
X0313047Y0275333D01*
X0311636Y0274749D01*
X0310202Y0273314D01*
X0309425Y0271440D01*
X0309425Y0269411D01*
X0310202Y0267536D01*
X0311636Y0266102D01*
X0313270Y0265425D01*
X0311636Y0264749D01*
X0310202Y0263314D01*
X0309425Y0261440D01*
X0309425Y0259411D01*
X0310202Y0257536D01*
X0309829Y0258436D02*
X0286049Y0258436D01*
X0286721Y0259635D02*
X0309425Y0259635D01*
X0309425Y0260833D02*
X0287125Y0260833D01*
X0287125Y0262032D02*
X0309671Y0262032D01*
X0310167Y0263230D02*
X0286881Y0263230D01*
X0286384Y0264429D02*
X0311316Y0264429D01*
X0312782Y0265627D02*
X0285236Y0265627D01*
X0283765Y0266826D02*
X0310913Y0266826D01*
X0310000Y0268024D02*
X0285637Y0268024D01*
X0286550Y0269223D02*
X0309503Y0269223D01*
X0309425Y0270421D02*
X0287047Y0270421D01*
X0287125Y0271620D02*
X0309500Y0271620D01*
X0309996Y0272818D02*
X0287052Y0272818D01*
X0286555Y0274017D02*
X0310904Y0274017D01*
X0312762Y0275215D02*
X0285648Y0275215D01*
X0283792Y0276414D02*
X0311042Y0276414D01*
X0310018Y0277612D02*
X0285225Y0277612D01*
X0286380Y0278811D02*
X0309477Y0278811D01*
X0309225Y0280009D02*
X0286876Y0280009D01*
X0287125Y0281208D02*
X0309283Y0281208D01*
X0309225Y0280843D02*
X0309225Y0280825D01*
X0314125Y0280825D01*
X0314125Y0285725D01*
X0314108Y0285725D01*
X0313284Y0285595D01*
X0312491Y0285337D01*
X0311748Y0284958D01*
X0311073Y0284468D01*
X0310483Y0283878D01*
X0309992Y0283203D01*
X0309614Y0282460D01*
X0309356Y0281666D01*
X0309225Y0280843D01*
X0309596Y0282406D02*
X0287125Y0282406D01*
X0286726Y0283605D02*
X0310284Y0283605D01*
X0311534Y0284803D02*
X0286060Y0284803D01*
X0284787Y0286002D02*
X0322749Y0286002D01*
X0321550Y0287200D02*
X0242825Y0287200D01*
X0242825Y0286002D02*
X0279264Y0286002D01*
X0277991Y0284803D02*
X0242825Y0284803D01*
X0242825Y0283605D02*
X0277325Y0283605D01*
X0276925Y0282406D02*
X0242825Y0282406D01*
X0242825Y0281208D02*
X0276925Y0281208D01*
X0277175Y0280009D02*
X0242825Y0280009D01*
X0242825Y0278811D02*
X0277671Y0278811D01*
X0278826Y0277612D02*
X0242825Y0277612D01*
X0242825Y0276414D02*
X0280259Y0276414D01*
X0278403Y0275215D02*
X0242825Y0275215D01*
X0242825Y0274017D02*
X0277496Y0274017D01*
X0276999Y0272818D02*
X0242825Y0272818D01*
X0242825Y0271620D02*
X0276925Y0271620D01*
X0277004Y0270421D02*
X0242825Y0270421D01*
X0242825Y0269223D02*
X0277500Y0269223D01*
X0278414Y0268024D02*
X0242825Y0268024D01*
X0242825Y0266826D02*
X0280286Y0266826D01*
X0278815Y0265627D02*
X0242825Y0265627D01*
X0242825Y0264429D02*
X0277666Y0264429D01*
X0277170Y0263230D02*
X0242825Y0263230D01*
X0242825Y0262032D02*
X0276925Y0262032D01*
X0276925Y0260833D02*
X0242825Y0260833D01*
X0242825Y0259635D02*
X0277330Y0259635D01*
X0278002Y0258436D02*
X0242825Y0258436D01*
X0242825Y0257238D02*
X0279292Y0257238D01*
X0260348Y0246451D02*
X0256580Y0246451D01*
X0257125Y0245252D02*
X0258440Y0245252D01*
X0257511Y0244054D02*
X0257125Y0244054D01*
X0242825Y0248848D02*
X0338025Y0248848D01*
X0338025Y0250046D02*
X0242825Y0250046D01*
X0242825Y0251245D02*
X0338025Y0251245D01*
X0338025Y0252444D02*
X0242825Y0252444D01*
X0242825Y0253642D02*
X0338025Y0253642D01*
X0338025Y0254841D02*
X0242825Y0254841D01*
X0242825Y0256039D02*
X0311788Y0256039D01*
X0317263Y0256039D02*
X0338025Y0256039D01*
X0338025Y0257238D02*
X0318550Y0257238D01*
X0319222Y0258436D02*
X0338025Y0258436D01*
X0338025Y0259635D02*
X0319625Y0259635D01*
X0319625Y0260833D02*
X0338025Y0260833D01*
X0338025Y0262032D02*
X0319380Y0262032D01*
X0318884Y0263230D02*
X0338025Y0263230D01*
X0338025Y0264429D02*
X0317735Y0264429D01*
X0316268Y0265627D02*
X0338025Y0265627D01*
X0338025Y0266826D02*
X0318138Y0266826D01*
X0319051Y0268024D02*
X0338025Y0268024D01*
X0338025Y0269223D02*
X0319547Y0269223D01*
X0319625Y0270421D02*
X0338025Y0270421D01*
X0337131Y0271620D02*
X0319551Y0271620D01*
X0319054Y0272818D02*
X0335933Y0272818D01*
X0334734Y0274017D02*
X0318147Y0274017D01*
X0316289Y0275215D02*
X0333536Y0275215D01*
X0332337Y0276414D02*
X0318009Y0276414D01*
X0319033Y0277612D02*
X0331139Y0277612D01*
X0329940Y0278811D02*
X0319573Y0278811D01*
X0319825Y0280009D02*
X0328742Y0280009D01*
X0327543Y0281208D02*
X0319768Y0281208D01*
X0319455Y0282406D02*
X0326344Y0282406D01*
X0325146Y0283605D02*
X0318767Y0283605D01*
X0317517Y0284803D02*
X0323947Y0284803D01*
X0320352Y0288399D02*
X0242825Y0288399D01*
X0242825Y0289597D02*
X0319153Y0289597D01*
X0317955Y0290796D02*
X0242825Y0290796D01*
X0242825Y0291994D02*
X0316756Y0291994D01*
X0315558Y0293193D02*
X0242825Y0293193D01*
X0242825Y0294391D02*
X0314359Y0294391D01*
X0313225Y0295590D02*
X0242825Y0295590D01*
X0242825Y0296788D02*
X0247482Y0296788D01*
X0247745Y0296525D02*
X0256305Y0296525D01*
X0257125Y0297345D01*
X0257125Y0300128D01*
X0257702Y0298736D01*
X0259136Y0297302D01*
X0261011Y0296525D01*
X0263040Y0296525D01*
X0264914Y0297302D01*
X0266349Y0298736D01*
X0267025Y0300370D01*
X0267702Y0298736D01*
X0269136Y0297302D01*
X0271011Y0296525D01*
X0273040Y0296525D01*
X0274914Y0297302D01*
X0276349Y0298736D01*
X0277025Y0300370D01*
X0277702Y0298736D01*
X0279136Y0297302D01*
X0281011Y0296525D01*
X0283040Y0296525D01*
X0284914Y0297302D01*
X0286349Y0298736D01*
X0287125Y0300611D01*
X0287125Y0302640D01*
X0286349Y0304514D01*
X0284914Y0305949D01*
X0283040Y0306725D01*
X0281011Y0306725D01*
X0279136Y0305949D01*
X0277702Y0304514D01*
X0277025Y0302881D01*
X0276349Y0304514D01*
X0274914Y0305949D01*
X0273040Y0306725D01*
X0271011Y0306725D01*
X0269136Y0305949D01*
X0267702Y0304514D01*
X0267025Y0302881D01*
X0266349Y0304514D01*
X0264914Y0305949D01*
X0263040Y0306725D01*
X0261011Y0306725D01*
X0259136Y0305949D01*
X0257702Y0304514D01*
X0257125Y0303123D01*
X0257125Y0305905D01*
X0256305Y0306725D01*
X0247745Y0306725D01*
X0246925Y0305905D01*
X0246925Y0297345D01*
X0247745Y0296525D01*
X0246925Y0297987D02*
X0242825Y0297987D01*
X0242825Y0299185D02*
X0246925Y0299185D01*
X0246925Y0300384D02*
X0242825Y0300384D01*
X0242825Y0301582D02*
X0246925Y0301582D01*
X0246925Y0302781D02*
X0242825Y0302781D01*
X0242825Y0303980D02*
X0246925Y0303980D01*
X0246925Y0305178D02*
X0242825Y0305178D01*
X0242825Y0306377D02*
X0247397Y0306377D01*
X0242825Y0307575D02*
X0313225Y0307575D01*
X0313225Y0306377D02*
X0283882Y0306377D01*
X0285685Y0305178D02*
X0313225Y0305178D01*
X0313225Y0303980D02*
X0286570Y0303980D01*
X0287067Y0302781D02*
X0313225Y0302781D01*
X0313225Y0301582D02*
X0287125Y0301582D01*
X0287031Y0300384D02*
X0313225Y0300384D01*
X0313225Y0299185D02*
X0286535Y0299185D01*
X0285599Y0297987D02*
X0313225Y0297987D01*
X0313225Y0296788D02*
X0283675Y0296788D01*
X0280376Y0296788D02*
X0273675Y0296788D01*
X0275599Y0297987D02*
X0278451Y0297987D01*
X0277516Y0299185D02*
X0276535Y0299185D01*
X0276570Y0303980D02*
X0277480Y0303980D01*
X0278366Y0305178D02*
X0275685Y0305178D01*
X0273882Y0306377D02*
X0280169Y0306377D01*
X0270169Y0306377D02*
X0263882Y0306377D01*
X0265685Y0305178D02*
X0268366Y0305178D01*
X0267480Y0303980D02*
X0266570Y0303980D01*
X0266535Y0299185D02*
X0267516Y0299185D01*
X0268451Y0297987D02*
X0265599Y0297987D01*
X0263675Y0296788D02*
X0270376Y0296788D01*
X0260376Y0296788D02*
X0256568Y0296788D01*
X0257125Y0297987D02*
X0258451Y0297987D01*
X0257516Y0299185D02*
X0257125Y0299185D01*
X0257125Y0303980D02*
X0257480Y0303980D01*
X0257125Y0305178D02*
X0258366Y0305178D01*
X0256654Y0306377D02*
X0260169Y0306377D01*
X0260825Y0316525D02*
X0245725Y0316525D01*
X0240925Y0321325D01*
X0242825Y0315965D02*
X0243458Y0315965D01*
X0242825Y0314766D02*
X0244656Y0314766D01*
X0242825Y0313568D02*
X0296706Y0313568D01*
X0297769Y0312369D02*
X0242825Y0312369D01*
X0242825Y0311171D02*
X0300002Y0311171D01*
X0302249Y0311171D02*
X0313225Y0311171D01*
X0313225Y0309972D02*
X0242825Y0309972D01*
X0242825Y0308774D02*
X0313225Y0308774D01*
X0312834Y0312369D02*
X0304482Y0312369D01*
X0305545Y0313568D02*
X0311663Y0313568D01*
X0310491Y0314766D02*
X0306041Y0314766D01*
X0306225Y0315965D02*
X0309320Y0315965D01*
X0308113Y0317163D02*
X0306225Y0317163D01*
X0306225Y0318362D02*
X0306706Y0318362D01*
X0314125Y0284803D02*
X0314925Y0284803D01*
X0314925Y0283605D02*
X0314125Y0283605D01*
X0314125Y0282406D02*
X0314925Y0282406D01*
X0314925Y0281208D02*
X0314125Y0281208D01*
X0231525Y0281208D02*
X0210747Y0281208D01*
X0209981Y0281525D02*
X0208270Y0281525D01*
X0206690Y0280871D01*
X0205480Y0279661D01*
X0204825Y0278081D01*
X0204825Y0276370D01*
X0205480Y0274790D01*
X0206690Y0273580D01*
X0208270Y0272925D01*
X0209981Y0272925D01*
X0211561Y0273580D01*
X0212771Y0274790D01*
X0213425Y0276370D01*
X0213425Y0278081D01*
X0212771Y0279661D01*
X0211561Y0280871D01*
X0209981Y0281525D01*
X0209981Y0282925D02*
X0211561Y0283580D01*
X0212771Y0284790D01*
X0213425Y0286370D01*
X0213425Y0288081D01*
X0212771Y0289661D01*
X0211561Y0290871D01*
X0209981Y0291525D01*
X0208270Y0291525D01*
X0206690Y0290871D01*
X0205480Y0289661D01*
X0204825Y0288081D01*
X0204825Y0286370D01*
X0205480Y0284790D01*
X0206690Y0283580D01*
X0208270Y0282925D01*
X0209981Y0282925D01*
X0211586Y0283605D02*
X0231525Y0283605D01*
X0231525Y0282406D02*
X0175325Y0282406D01*
X0175325Y0281208D02*
X0207503Y0281208D01*
X0205828Y0280009D02*
X0175325Y0280009D01*
X0175325Y0278811D02*
X0205128Y0278811D01*
X0204825Y0277612D02*
X0175325Y0277612D01*
X0175325Y0276414D02*
X0204825Y0276414D01*
X0205304Y0275215D02*
X0175325Y0275215D01*
X0175325Y0274017D02*
X0206253Y0274017D01*
X0206690Y0270871D02*
X0205480Y0269661D01*
X0204825Y0268081D01*
X0204825Y0266370D01*
X0205480Y0264790D01*
X0206690Y0263580D01*
X0208270Y0262925D01*
X0209981Y0262925D01*
X0211561Y0263580D01*
X0212771Y0264790D01*
X0213425Y0266370D01*
X0213425Y0268081D01*
X0212771Y0269661D01*
X0211561Y0270871D01*
X0209981Y0271525D01*
X0208270Y0271525D01*
X0206690Y0270871D01*
X0206240Y0270421D02*
X0175325Y0270421D01*
X0175325Y0269223D02*
X0205298Y0269223D01*
X0204825Y0268024D02*
X0175325Y0268024D01*
X0175325Y0266826D02*
X0204825Y0266826D01*
X0205133Y0265627D02*
X0175325Y0265627D01*
X0175325Y0264429D02*
X0205841Y0264429D01*
X0207534Y0263230D02*
X0175325Y0263230D01*
X0175325Y0262032D02*
X0231525Y0262032D01*
X0231525Y0263230D02*
X0210716Y0263230D01*
X0212410Y0264429D02*
X0231525Y0264429D01*
X0231525Y0265627D02*
X0213118Y0265627D01*
X0213425Y0266826D02*
X0231525Y0266826D01*
X0231525Y0268024D02*
X0213425Y0268024D01*
X0212952Y0269223D02*
X0231525Y0269223D01*
X0231525Y0270421D02*
X0212011Y0270421D01*
X0211998Y0274017D02*
X0231525Y0274017D01*
X0231525Y0275215D02*
X0212947Y0275215D01*
X0213425Y0276414D02*
X0231525Y0276414D01*
X0231525Y0277612D02*
X0213425Y0277612D01*
X0213123Y0278811D02*
X0231525Y0278811D01*
X0231525Y0280009D02*
X0212423Y0280009D01*
X0212776Y0284803D02*
X0227214Y0284803D01*
X0226471Y0286002D02*
X0213273Y0286002D01*
X0213425Y0287200D02*
X0226275Y0287200D01*
X0225740Y0288399D02*
X0213294Y0288399D01*
X0212797Y0289597D02*
X0224541Y0289597D01*
X0223343Y0290796D02*
X0211636Y0290796D01*
X0210627Y0293193D02*
X0220946Y0293193D01*
X0222144Y0291994D02*
X0175325Y0291994D01*
X0175325Y0290796D02*
X0206615Y0290796D01*
X0205454Y0289597D02*
X0175325Y0289597D01*
X0175325Y0288399D02*
X0204957Y0288399D01*
X0204825Y0287200D02*
X0175325Y0287200D01*
X0175325Y0286002D02*
X0204978Y0286002D01*
X0205474Y0284803D02*
X0175325Y0284803D01*
X0175325Y0283605D02*
X0206665Y0283605D01*
X0208270Y0292925D02*
X0206690Y0293580D01*
X0205480Y0294790D01*
X0204825Y0296370D01*
X0204825Y0298081D01*
X0205480Y0299661D01*
X0206690Y0300871D01*
X0208270Y0301525D01*
X0209981Y0301525D01*
X0211561Y0300871D01*
X0212771Y0299661D01*
X0213425Y0298081D01*
X0213425Y0296370D01*
X0212771Y0294790D01*
X0211561Y0293580D01*
X0209981Y0292925D01*
X0208270Y0292925D01*
X0207624Y0293193D02*
X0175325Y0293193D01*
X0175325Y0294391D02*
X0205878Y0294391D01*
X0205149Y0295590D02*
X0175325Y0295590D01*
X0175325Y0296788D02*
X0204825Y0296788D01*
X0204825Y0297987D02*
X0175325Y0297987D01*
X0175325Y0299185D02*
X0205283Y0299185D01*
X0206203Y0300384D02*
X0175325Y0300384D01*
X0175325Y0301582D02*
X0212556Y0301582D01*
X0212150Y0302781D02*
X0175325Y0302781D01*
X0175325Y0303980D02*
X0196290Y0303980D01*
X0196690Y0303580D02*
X0198270Y0302925D01*
X0199981Y0302925D01*
X0201561Y0303580D01*
X0202771Y0304790D01*
X0203425Y0306370D01*
X0203425Y0308081D01*
X0202771Y0309661D01*
X0201561Y0310871D01*
X0199981Y0311525D01*
X0198270Y0311525D01*
X0196690Y0310871D01*
X0195480Y0309661D01*
X0194825Y0308081D01*
X0194825Y0306370D01*
X0195480Y0304790D01*
X0196690Y0303580D01*
X0195319Y0305178D02*
X0175325Y0305178D01*
X0175325Y0306377D02*
X0194825Y0306377D01*
X0194825Y0307575D02*
X0175325Y0307575D01*
X0175325Y0308774D02*
X0195112Y0308774D01*
X0195791Y0309972D02*
X0175325Y0309972D01*
X0175325Y0311171D02*
X0197413Y0311171D01*
X0198270Y0312925D02*
X0196690Y0313580D01*
X0195480Y0314790D01*
X0194825Y0316370D01*
X0194825Y0318081D01*
X0195480Y0319661D01*
X0196690Y0320871D01*
X0198270Y0321525D01*
X0199981Y0321525D01*
X0201561Y0320871D01*
X0202771Y0319661D01*
X0203425Y0318081D01*
X0203425Y0316370D01*
X0202771Y0314790D01*
X0201561Y0313580D01*
X0199981Y0312925D01*
X0198270Y0312925D01*
X0196720Y0313568D02*
X0175325Y0313568D01*
X0175325Y0314766D02*
X0195504Y0314766D01*
X0194993Y0315965D02*
X0175325Y0315965D01*
X0175325Y0317163D02*
X0194825Y0317163D01*
X0194942Y0318362D02*
X0175325Y0318362D01*
X0175325Y0319560D02*
X0195438Y0319560D01*
X0196578Y0320759D02*
X0175325Y0320759D01*
X0175325Y0321957D02*
X0212150Y0321957D01*
X0212150Y0320759D02*
X0211673Y0320759D01*
X0212150Y0323156D02*
X0210537Y0323156D01*
X0207714Y0323156D02*
X0200537Y0323156D01*
X0199981Y0322925D02*
X0201561Y0323580D01*
X0202771Y0324790D01*
X0203425Y0326370D01*
X0203425Y0328081D01*
X0202771Y0329661D01*
X0201561Y0330871D01*
X0199981Y0331525D01*
X0198270Y0331525D01*
X0196690Y0330871D01*
X0195480Y0329661D01*
X0194825Y0328081D01*
X0194825Y0326370D01*
X0195480Y0324790D01*
X0196690Y0323580D01*
X0198270Y0322925D01*
X0199981Y0322925D01*
X0197714Y0323156D02*
X0175325Y0323156D01*
X0175325Y0324354D02*
X0195915Y0324354D01*
X0195164Y0325553D02*
X0175325Y0325553D01*
X0175325Y0326751D02*
X0194825Y0326751D01*
X0194825Y0327950D02*
X0175325Y0327950D01*
X0175325Y0329148D02*
X0195268Y0329148D01*
X0196166Y0330347D02*
X0175325Y0330347D01*
X0175325Y0331545D02*
X0212150Y0331545D01*
X0212150Y0330347D02*
X0212085Y0330347D01*
X0212150Y0332744D02*
X0174894Y0332744D01*
X0173695Y0333942D02*
X0206327Y0333942D01*
X0205335Y0335141D02*
X0172497Y0335141D01*
X0171298Y0336339D02*
X0204838Y0336339D01*
X0204825Y0337538D02*
X0170100Y0337538D01*
X0168901Y0338736D02*
X0205097Y0338736D01*
X0205754Y0339935D02*
X0167703Y0339935D01*
X0166504Y0341133D02*
X0207324Y0341133D01*
X0206809Y0343530D02*
X0201441Y0343530D01*
X0201561Y0343580D02*
X0202771Y0344790D01*
X0203425Y0346370D01*
X0203425Y0348081D01*
X0202771Y0349661D01*
X0201561Y0350871D01*
X0199981Y0351525D01*
X0198270Y0351525D01*
X0196690Y0350871D01*
X0195480Y0349661D01*
X0194825Y0348081D01*
X0194825Y0346370D01*
X0195480Y0344790D01*
X0196690Y0343580D01*
X0198270Y0342925D01*
X0199981Y0342925D01*
X0201561Y0343580D01*
X0202710Y0344729D02*
X0205541Y0344729D01*
X0205009Y0345927D02*
X0203242Y0345927D01*
X0203425Y0347126D02*
X0204825Y0347126D01*
X0204926Y0348324D02*
X0203324Y0348324D01*
X0202828Y0349523D02*
X0205423Y0349523D01*
X0206540Y0350721D02*
X0201710Y0350721D01*
X0205953Y0354317D02*
X0152575Y0354317D01*
X0153301Y0355515D02*
X0205179Y0355515D01*
X0204825Y0356714D02*
X0153600Y0356714D01*
X0153573Y0357913D02*
X0204825Y0357913D01*
X0205252Y0359111D02*
X0153215Y0359111D01*
X0152405Y0360310D02*
X0206128Y0360310D01*
X0208228Y0361508D02*
X0150507Y0361508D01*
X0145846Y0360310D02*
X0144625Y0360310D01*
X0145036Y0359111D02*
X0139695Y0359111D01*
X0135764Y0357913D02*
X0144678Y0357913D01*
X0144650Y0356714D02*
X0131833Y0356714D01*
X0127902Y0355515D02*
X0144949Y0355515D01*
X0145676Y0354317D02*
X0124451Y0354317D01*
X0121510Y0353118D02*
X0147274Y0353118D01*
X0148775Y0353118D02*
X0149475Y0353118D01*
X0149475Y0354317D02*
X0148775Y0354317D01*
X0148775Y0355515D02*
X0149475Y0355515D01*
X0149475Y0356714D02*
X0148775Y0356714D01*
X0150977Y0353118D02*
X0207804Y0353118D01*
X0210447Y0353118D02*
X0212150Y0353118D01*
X0212150Y0351920D02*
X0118569Y0351920D01*
X0115628Y0350721D02*
X0146540Y0350721D01*
X0145423Y0349523D02*
X0112688Y0349523D01*
X0109963Y0348324D02*
X0144926Y0348324D01*
X0144825Y0347126D02*
X0107649Y0347126D01*
X0109059Y0345927D02*
X0112815Y0345927D01*
X0111616Y0344729D02*
X0110194Y0344729D01*
X0110812Y0343530D02*
X0111053Y0343530D01*
X0111047Y0339935D02*
X0110816Y0339935D01*
X0110205Y0338736D02*
X0111602Y0338736D01*
X0112800Y0337538D02*
X0109079Y0337538D01*
X0106225Y0337538D02*
X0105425Y0337538D01*
X0105425Y0338736D02*
X0106225Y0338736D01*
X0106225Y0339935D02*
X0105425Y0339935D01*
X0105425Y0341133D02*
X0106225Y0341133D01*
X0105825Y0341725D02*
X0096125Y0341725D01*
X0088425Y0334025D01*
X0087225Y0331545D02*
X0100833Y0331545D01*
X0100318Y0330347D02*
X0092025Y0330347D01*
X0092025Y0329148D02*
X0100025Y0329148D01*
X0100025Y0327950D02*
X0092025Y0327950D01*
X0091884Y0326751D02*
X0100025Y0326751D01*
X0100025Y0325553D02*
X0091414Y0325553D01*
X0090550Y0324354D02*
X0100025Y0324354D01*
X0099869Y0323156D02*
X0088842Y0323156D01*
X0087225Y0323156D02*
X0086225Y0323156D01*
X0086225Y0324354D02*
X0087225Y0324354D01*
X0087225Y0325553D02*
X0086225Y0325553D01*
X0086225Y0326751D02*
X0087225Y0326751D01*
X0087225Y0327950D02*
X0086225Y0327950D01*
X0086225Y0329148D02*
X0087225Y0329148D01*
X0087225Y0330347D02*
X0086225Y0330347D01*
X0086225Y0331545D02*
X0081374Y0331545D01*
X0081425Y0330347D02*
X0079830Y0330347D01*
X0078287Y0329148D02*
X0081425Y0329148D01*
X0081425Y0327950D02*
X0076743Y0327950D01*
X0075199Y0326751D02*
X0081567Y0326751D01*
X0082037Y0325553D02*
X0073656Y0325553D01*
X0072625Y0324354D02*
X0082901Y0324354D01*
X0084608Y0323156D02*
X0072625Y0323156D01*
X0072625Y0321957D02*
X0099025Y0321957D01*
X0099025Y0320759D02*
X0072625Y0320759D01*
X0072625Y0319560D02*
X0099025Y0319560D01*
X0099025Y0318362D02*
X0072625Y0318362D01*
X0072625Y0317163D02*
X0099025Y0317163D01*
X0099025Y0315965D02*
X0072625Y0315965D01*
X0072104Y0314766D02*
X0099025Y0314766D01*
X0099025Y0313568D02*
X0070365Y0313568D01*
X0068627Y0312369D02*
X0099025Y0312369D01*
X0099025Y0311171D02*
X0066888Y0311171D01*
X0065149Y0309972D02*
X0099025Y0309972D01*
X0099025Y0308774D02*
X0063411Y0308774D01*
X0061672Y0307575D02*
X0099025Y0307575D01*
X0099025Y0306377D02*
X0059933Y0306377D01*
X0058194Y0305178D02*
X0099025Y0305178D01*
X0099025Y0303980D02*
X0056672Y0303980D01*
X0055153Y0302781D02*
X0099025Y0302781D01*
X0099025Y0301582D02*
X0053635Y0301582D01*
X0052116Y0300384D02*
X0099025Y0300384D01*
X0099025Y0299185D02*
X0050598Y0299185D01*
X0049079Y0297987D02*
X0099025Y0297987D01*
X0099025Y0296788D02*
X0047720Y0296788D01*
X0047651Y0295590D02*
X0099025Y0295590D01*
X0099025Y0294391D02*
X0047583Y0294391D01*
X0047514Y0293193D02*
X0099025Y0293193D01*
X0099025Y0291994D02*
X0047445Y0291994D01*
X0047376Y0290796D02*
X0099025Y0290796D01*
X0099025Y0289597D02*
X0047307Y0289597D01*
X0047238Y0288399D02*
X0099025Y0288399D01*
X0099025Y0287200D02*
X0047170Y0287200D01*
X0047101Y0286002D02*
X0099025Y0286002D01*
X0099025Y0284803D02*
X0047032Y0284803D01*
X0046963Y0283605D02*
X0099025Y0283605D01*
X0099025Y0282406D02*
X0046894Y0282406D01*
X0046825Y0281208D02*
X0099025Y0281208D01*
X0099025Y0280009D02*
X0046757Y0280009D01*
X0046688Y0278811D02*
X0099025Y0278811D01*
X0099025Y0277612D02*
X0046619Y0277612D01*
X0046550Y0276414D02*
X0099025Y0276414D01*
X0099025Y0275215D02*
X0046481Y0275215D01*
X0046412Y0274017D02*
X0099025Y0274017D01*
X0099025Y0272818D02*
X0046344Y0272818D01*
X0046275Y0271620D02*
X0099025Y0271620D01*
X0099025Y0270421D02*
X0046206Y0270421D01*
X0046137Y0269223D02*
X0099025Y0269223D01*
X0099025Y0268024D02*
X0046068Y0268024D01*
X0045999Y0266826D02*
X0099025Y0266826D01*
X0099025Y0265627D02*
X0045931Y0265627D01*
X0045862Y0264429D02*
X0099025Y0264429D01*
X0099025Y0263230D02*
X0045793Y0263230D01*
X0045724Y0262032D02*
X0099025Y0262032D01*
X0099025Y0260833D02*
X0045655Y0260833D01*
X0045586Y0259635D02*
X0099025Y0259635D01*
X0099025Y0258436D02*
X0045518Y0258436D01*
X0045449Y0257238D02*
X0099025Y0257238D01*
X0099025Y0256039D02*
X0045380Y0256039D01*
X0045311Y0254841D02*
X0099025Y0254841D01*
X0099025Y0253642D02*
X0045242Y0253642D01*
X0045173Y0252444D02*
X0099025Y0252444D01*
X0099025Y0251245D02*
X0045105Y0251245D01*
X0045036Y0250046D02*
X0099025Y0250046D01*
X0099025Y0248848D02*
X0044967Y0248848D01*
X0038984Y0247649D02*
X0099025Y0247649D01*
X0099025Y0246451D02*
X0036072Y0246451D01*
X0030778Y0246451D02*
X0020951Y0246451D01*
X0022149Y0247649D02*
X0027867Y0247649D01*
X0019752Y0245252D02*
X0099025Y0245252D01*
X0099025Y0244054D02*
X0018554Y0244054D01*
X0017355Y0242855D02*
X0099025Y0242855D01*
X0099025Y0241657D02*
X0017325Y0241657D01*
X0017325Y0240458D02*
X0099025Y0240458D01*
X0099025Y0239260D02*
X0017325Y0239260D01*
X0017325Y0238061D02*
X0099025Y0238061D01*
X0099025Y0236863D02*
X0017325Y0236863D01*
X0017325Y0235664D02*
X0099025Y0235664D01*
X0099025Y0234466D02*
X0017325Y0234466D01*
X0017325Y0233267D02*
X0099025Y0233267D01*
X0099025Y0232069D02*
X0017325Y0232069D01*
X0017325Y0230870D02*
X0099025Y0230870D01*
X0099025Y0229672D02*
X0017325Y0229672D01*
X0017325Y0228473D02*
X0099025Y0228473D01*
X0099025Y0227275D02*
X0017325Y0227275D01*
X0017325Y0226076D02*
X0099025Y0226076D01*
X0099025Y0224878D02*
X0017325Y0224878D01*
X0017325Y0223679D02*
X0099025Y0223679D01*
X0099025Y0222481D02*
X0017325Y0222481D01*
X0017325Y0221282D02*
X0099025Y0221282D01*
X0099025Y0220084D02*
X0017325Y0220084D01*
X0017325Y0218885D02*
X0098098Y0218885D01*
X0096900Y0217687D02*
X0017325Y0217687D01*
X0017325Y0216488D02*
X0095701Y0216488D01*
X0094503Y0215290D02*
X0017325Y0215290D01*
X0017325Y0214091D02*
X0093304Y0214091D01*
X0092106Y0212893D02*
X0017325Y0212893D01*
X0017325Y0211694D02*
X0090907Y0211694D01*
X0089709Y0210496D02*
X0017325Y0210496D01*
X0017325Y0209297D02*
X0088510Y0209297D01*
X0087312Y0208099D02*
X0017325Y0208099D01*
X0017325Y0206900D02*
X0086113Y0206900D01*
X0084915Y0205702D02*
X0017325Y0205702D01*
X0017325Y0204503D02*
X0083716Y0204503D01*
X0082518Y0203305D02*
X0017325Y0203305D01*
X0017325Y0202106D02*
X0081319Y0202106D01*
X0080121Y0200908D02*
X0017325Y0200908D01*
X0017325Y0199709D02*
X0078922Y0199709D01*
X0077724Y0198511D02*
X0017325Y0198511D01*
X0017325Y0197312D02*
X0076525Y0197312D01*
X0075326Y0196113D02*
X0017325Y0196113D01*
X0017325Y0194915D02*
X0074128Y0194915D01*
X0072929Y0193716D02*
X0017325Y0193716D01*
X0017325Y0192518D02*
X0071731Y0192518D01*
X0070532Y0191319D02*
X0017325Y0191319D01*
X0017325Y0190121D02*
X0069334Y0190121D01*
X0068135Y0188922D02*
X0017325Y0188922D01*
X0017325Y0187724D02*
X0066937Y0187724D01*
X0065738Y0186525D02*
X0017325Y0186525D01*
X0017325Y0185327D02*
X0064540Y0185327D01*
X0063341Y0184128D02*
X0017325Y0184128D01*
X0017325Y0182930D02*
X0062143Y0182930D01*
X0060944Y0181731D02*
X0017325Y0181731D01*
X0017325Y0180533D02*
X0059746Y0180533D01*
X0058547Y0179334D02*
X0017325Y0179334D01*
X0017325Y0178136D02*
X0057349Y0178136D01*
X0056150Y0176937D02*
X0017325Y0176937D01*
X0017325Y0175739D02*
X0054952Y0175739D01*
X0053753Y0174540D02*
X0017325Y0174540D01*
X0017325Y0173342D02*
X0052555Y0173342D01*
X0051356Y0172143D02*
X0017325Y0172143D01*
X0017325Y0170945D02*
X0050158Y0170945D01*
X0048959Y0169746D02*
X0017325Y0169746D01*
X0017325Y0168548D02*
X0047761Y0168548D01*
X0046562Y0167349D02*
X0017325Y0167349D01*
X0017325Y0166151D02*
X0045364Y0166151D01*
X0044165Y0164952D02*
X0017325Y0164952D01*
X0017325Y0163754D02*
X0042967Y0163754D01*
X0041768Y0162555D02*
X0017325Y0162555D01*
X0017325Y0161357D02*
X0040570Y0161357D01*
X0039371Y0160158D02*
X0017325Y0160158D01*
X0017325Y0158960D02*
X0038173Y0158960D01*
X0036974Y0157761D02*
X0017325Y0157761D01*
X0017325Y0156563D02*
X0035776Y0156563D01*
X0034577Y0155364D02*
X0017325Y0155364D01*
X0017325Y0154166D02*
X0033379Y0154166D01*
X0032180Y0152967D02*
X0017325Y0152967D01*
X0017325Y0151769D02*
X0030982Y0151769D01*
X0029783Y0150570D02*
X0017325Y0150570D01*
X0017325Y0149372D02*
X0028585Y0149372D01*
X0027386Y0148173D02*
X0017173Y0148173D01*
X0015975Y0146975D02*
X0026188Y0146975D01*
X0024989Y0145776D02*
X0014776Y0145776D01*
X0013577Y0144577D02*
X0023791Y0144577D01*
X0022592Y0143379D02*
X0012379Y0143379D01*
X0012325Y0142180D02*
X0021393Y0142180D01*
X0018069Y0140982D02*
X0012480Y0140982D01*
X0012815Y0139783D02*
X0016948Y0139783D01*
X0016451Y0138585D02*
X0013151Y0138585D01*
X0013487Y0137386D02*
X0016225Y0137386D01*
X0016225Y0136188D02*
X0013823Y0136188D01*
X0014159Y0134989D02*
X0016649Y0134989D01*
X0017347Y0133791D02*
X0014494Y0133791D01*
X0014830Y0132592D02*
X0018701Y0132592D01*
X0015166Y0131394D02*
X0067346Y0131394D01*
X0067511Y0131325D02*
X0069540Y0131325D01*
X0071414Y0132102D01*
X0072849Y0133536D01*
X0073625Y0135411D01*
X0073625Y0137440D01*
X0072849Y0139314D01*
X0071414Y0140749D01*
X0069540Y0141525D01*
X0067511Y0141525D01*
X0065636Y0140749D01*
X0064202Y0139314D01*
X0063425Y0137440D01*
X0063425Y0135411D01*
X0064202Y0133536D01*
X0065636Y0132102D01*
X0067511Y0131325D01*
X0069705Y0131394D02*
X0096860Y0131394D01*
X0096491Y0131514D02*
X0097284Y0131256D01*
X0098108Y0131125D01*
X0098240Y0131125D01*
X0098240Y0136139D01*
X0098811Y0136139D01*
X0098811Y0131125D01*
X0098943Y0131125D01*
X0099766Y0131256D01*
X0100560Y0131514D01*
X0101303Y0131892D01*
X0101978Y0132383D01*
X0102568Y0132973D01*
X0103058Y0133648D01*
X0103437Y0134391D01*
X0103695Y0135184D01*
X0103825Y0136008D01*
X0103825Y0136140D01*
X0098811Y0136140D01*
X0098811Y0136711D01*
X0103825Y0136711D01*
X0103825Y0136843D01*
X0103695Y0137666D01*
X0103437Y0138460D01*
X0103058Y0139203D01*
X0102568Y0139878D01*
X0101978Y0140468D01*
X0101303Y0140958D01*
X0100560Y0141337D01*
X0099766Y0141595D01*
X0098943Y0141725D01*
X0098811Y0141725D01*
X0098811Y0136711D01*
X0098240Y0136711D01*
X0098240Y0141725D01*
X0098108Y0141725D01*
X0097284Y0141595D01*
X0096491Y0141337D01*
X0095748Y0140958D01*
X0095073Y0140468D01*
X0094483Y0139878D01*
X0093992Y0139203D01*
X0093614Y0138460D01*
X0093356Y0137666D01*
X0093225Y0136843D01*
X0093225Y0136711D01*
X0098239Y0136711D01*
X0098239Y0136140D01*
X0093225Y0136140D01*
X0093225Y0136008D01*
X0093356Y0135184D01*
X0093614Y0134391D01*
X0093992Y0133648D01*
X0094483Y0132973D01*
X0095073Y0132383D01*
X0095748Y0131892D01*
X0096491Y0131514D01*
X0098240Y0131394D02*
X0098811Y0131394D01*
X0098811Y0132592D02*
X0098240Y0132592D01*
X0098240Y0133791D02*
X0098811Y0133791D01*
X0098811Y0134989D02*
X0098240Y0134989D01*
X0098239Y0136188D02*
X0073625Y0136188D01*
X0073625Y0137386D02*
X0093312Y0137386D01*
X0093677Y0138585D02*
X0073151Y0138585D01*
X0072380Y0139783D02*
X0094414Y0139783D01*
X0095794Y0140982D02*
X0070852Y0140982D01*
X0073451Y0134989D02*
X0093419Y0134989D01*
X0093919Y0133791D02*
X0072954Y0133791D01*
X0071905Y0132592D02*
X0094863Y0132592D01*
X0098811Y0136188D02*
X0131260Y0136188D01*
X0130844Y0137386D02*
X0103739Y0137386D01*
X0103373Y0138585D02*
X0130844Y0138585D01*
X0131261Y0139783D02*
X0102637Y0139783D01*
X0101257Y0140982D02*
X0132195Y0140982D01*
X0133311Y0142180D02*
X0026767Y0142180D01*
X0025569Y0140982D02*
X0048069Y0140982D01*
X0048436Y0141349D02*
X0047002Y0139914D01*
X0046225Y0138040D01*
X0046225Y0136011D01*
X0047002Y0134136D01*
X0048436Y0132702D01*
X0050311Y0131925D01*
X0052340Y0131925D01*
X0054214Y0132702D01*
X0055649Y0134136D01*
X0056425Y0136011D01*
X0056425Y0138040D01*
X0055649Y0139914D01*
X0054214Y0141349D01*
X0052340Y0142125D01*
X0050311Y0142125D01*
X0048436Y0141349D01*
X0046948Y0139783D02*
X0025703Y0139783D01*
X0026200Y0138585D02*
X0046451Y0138585D01*
X0046225Y0137386D02*
X0026425Y0137386D01*
X0026425Y0136188D02*
X0046225Y0136188D01*
X0046649Y0134989D02*
X0026002Y0134989D01*
X0025303Y0133791D02*
X0047347Y0133791D01*
X0048701Y0132592D02*
X0023950Y0132592D01*
X0018052Y0127798D02*
X0131509Y0127798D01*
X0130977Y0128997D02*
X0016854Y0128997D01*
X0015655Y0130195D02*
X0130844Y0130195D01*
X0131048Y0131394D02*
X0100191Y0131394D01*
X0102188Y0132592D02*
X0131679Y0132592D01*
X0133317Y0133791D02*
X0103131Y0133791D01*
X0103632Y0134989D02*
X0132192Y0134989D01*
X0136320Y0133791D02*
X0161525Y0133791D01*
X0161525Y0134989D02*
X0137444Y0134989D01*
X0138376Y0136188D02*
X0161525Y0136188D01*
X0161525Y0137386D02*
X0138793Y0137386D01*
X0138793Y0138585D02*
X0161525Y0138585D01*
X0161525Y0139783D02*
X0138375Y0139783D01*
X0137442Y0140982D02*
X0161525Y0140982D01*
X0161525Y0142180D02*
X0136325Y0142180D01*
X0137960Y0143379D02*
X0161525Y0143379D01*
X0161525Y0144577D02*
X0138590Y0144577D01*
X0138793Y0145776D02*
X0161525Y0145776D01*
X0161525Y0146975D02*
X0138658Y0146975D01*
X0138125Y0148173D02*
X0161525Y0148173D01*
X0161525Y0149372D02*
X0136724Y0149372D01*
X0132913Y0149372D02*
X0119446Y0149372D01*
X0119943Y0150570D02*
X0161525Y0150570D01*
X0161525Y0151769D02*
X0120125Y0151769D01*
X0120125Y0152967D02*
X0161525Y0152967D01*
X0161525Y0154166D02*
X0119659Y0154166D01*
X0118899Y0155364D02*
X0161525Y0155364D01*
X0161525Y0156563D02*
X0117398Y0156563D01*
X0117974Y0157761D02*
X0161525Y0157761D01*
X0161525Y0158960D02*
X0119172Y0158960D01*
X0119772Y0160158D02*
X0161525Y0160158D01*
X0161525Y0161357D02*
X0120125Y0161357D01*
X0120125Y0162555D02*
X0161525Y0162555D01*
X0161525Y0163754D02*
X0119830Y0163754D01*
X0119311Y0164952D02*
X0161525Y0164952D01*
X0161525Y0166151D02*
X0118113Y0166151D01*
X0117063Y0167349D02*
X0161525Y0167349D01*
X0161525Y0168548D02*
X0118760Y0168548D01*
X0119602Y0169746D02*
X0161525Y0169746D01*
X0161525Y0170945D02*
X0120098Y0170945D01*
X0120125Y0172143D02*
X0161525Y0172143D01*
X0161525Y0173342D02*
X0120000Y0173342D01*
X0119504Y0174540D02*
X0161525Y0174540D01*
X0161525Y0175739D02*
X0118524Y0175739D01*
X0116494Y0176937D02*
X0161525Y0176937D01*
X0161525Y0178136D02*
X0118348Y0178136D01*
X0119431Y0179334D02*
X0161525Y0179334D01*
X0161525Y0180533D02*
X0119927Y0180533D01*
X0120125Y0181731D02*
X0161525Y0181731D01*
X0161525Y0182930D02*
X0120125Y0182930D01*
X0119675Y0184128D02*
X0161525Y0184128D01*
X0161525Y0185327D02*
X0118936Y0185327D01*
X0117488Y0186525D02*
X0161525Y0186525D01*
X0161525Y0187724D02*
X0117936Y0187724D01*
X0119135Y0188922D02*
X0151220Y0188922D01*
X0150327Y0190121D02*
X0119757Y0190121D01*
X0120125Y0191319D02*
X0150025Y0191319D01*
X0150156Y0192518D02*
X0120125Y0192518D01*
X0119845Y0193716D02*
X0150808Y0193716D01*
X0151525Y0194915D02*
X0119348Y0194915D01*
X0118150Y0196113D02*
X0151525Y0196113D01*
X0151525Y0197312D02*
X0116973Y0197312D01*
X0118723Y0198511D02*
X0151525Y0198511D01*
X0151525Y0199709D02*
X0119586Y0199709D01*
X0120083Y0200908D02*
X0151525Y0200908D01*
X0151525Y0202106D02*
X0120125Y0202106D01*
X0120016Y0203305D02*
X0151525Y0203305D01*
X0151525Y0204503D02*
X0119519Y0204503D01*
X0118562Y0205702D02*
X0151525Y0205702D01*
X0151525Y0206900D02*
X0116584Y0206900D01*
X0118594Y0208099D02*
X0151525Y0208099D01*
X0151525Y0209297D02*
X0119584Y0209297D01*
X0120101Y0210496D02*
X0151525Y0210496D01*
X0151525Y0211694D02*
X0115425Y0211694D01*
X0115425Y0212893D02*
X0114625Y0212893D01*
X0114625Y0214091D02*
X0115425Y0214091D01*
X0115425Y0215290D02*
X0114625Y0215290D01*
X0114625Y0216488D02*
X0115425Y0216488D01*
X0117900Y0216488D02*
X0151525Y0216488D01*
X0151525Y0215290D02*
X0119205Y0215290D01*
X0119921Y0214091D02*
X0151525Y0214091D01*
X0151525Y0212893D02*
X0120254Y0212893D01*
X0112151Y0216488D02*
X0110325Y0216488D01*
X0110325Y0215290D02*
X0110846Y0215290D01*
X0110325Y0217687D02*
X0151525Y0217687D01*
X0151525Y0218885D02*
X0110325Y0218885D01*
X0110325Y0220084D02*
X0151525Y0220084D01*
X0151525Y0221282D02*
X0110325Y0221282D01*
X0110325Y0222481D02*
X0151525Y0222481D01*
X0155325Y0222481D02*
X0161525Y0222481D01*
X0161525Y0221282D02*
X0155325Y0221282D01*
X0155325Y0220084D02*
X0161525Y0220084D01*
X0161525Y0218885D02*
X0155325Y0218885D01*
X0155325Y0217687D02*
X0161525Y0217687D01*
X0161525Y0216488D02*
X0155325Y0216488D01*
X0155325Y0215290D02*
X0161525Y0215290D01*
X0161525Y0214091D02*
X0155325Y0214091D01*
X0155325Y0212893D02*
X0161525Y0212893D01*
X0161525Y0211694D02*
X0155325Y0211694D01*
X0155325Y0210496D02*
X0161525Y0210496D01*
X0161525Y0209297D02*
X0155325Y0209297D01*
X0155325Y0208099D02*
X0161525Y0208099D01*
X0161525Y0206900D02*
X0155325Y0206900D01*
X0155325Y0205702D02*
X0161525Y0205702D01*
X0161525Y0204503D02*
X0155325Y0204503D01*
X0155325Y0203305D02*
X0161525Y0203305D01*
X0161525Y0202106D02*
X0155325Y0202106D01*
X0155325Y0200908D02*
X0161525Y0200908D01*
X0161525Y0199709D02*
X0155325Y0199709D01*
X0155325Y0198511D02*
X0161525Y0198511D01*
X0161525Y0197312D02*
X0155325Y0197312D01*
X0155325Y0196113D02*
X0161525Y0196113D01*
X0161525Y0194915D02*
X0155325Y0194915D01*
X0156043Y0193716D02*
X0161525Y0193716D01*
X0161525Y0192518D02*
X0156694Y0192518D01*
X0156825Y0191319D02*
X0161525Y0191319D01*
X0161525Y0190121D02*
X0156524Y0190121D01*
X0155631Y0188922D02*
X0161525Y0188922D01*
X0175325Y0188922D02*
X0229025Y0188922D01*
X0229025Y0187724D02*
X0175325Y0187724D01*
X0175325Y0186525D02*
X0229025Y0186525D01*
X0229025Y0185327D02*
X0175325Y0185327D01*
X0175325Y0184128D02*
X0229025Y0184128D01*
X0229025Y0182930D02*
X0175325Y0182930D01*
X0175325Y0181731D02*
X0229025Y0181731D01*
X0229025Y0180533D02*
X0175325Y0180533D01*
X0175325Y0179334D02*
X0229025Y0179334D01*
X0229025Y0178136D02*
X0175325Y0178136D01*
X0175325Y0176937D02*
X0229025Y0176937D01*
X0229025Y0175739D02*
X0175325Y0175739D01*
X0175325Y0174540D02*
X0229025Y0174540D01*
X0229025Y0173342D02*
X0175325Y0173342D01*
X0175325Y0172143D02*
X0229025Y0172143D01*
X0229025Y0170945D02*
X0175325Y0170945D01*
X0175325Y0169746D02*
X0229025Y0169746D01*
X0229025Y0168548D02*
X0175325Y0168548D01*
X0175325Y0167349D02*
X0229025Y0167349D01*
X0229025Y0166151D02*
X0175325Y0166151D01*
X0175325Y0164952D02*
X0229025Y0164952D01*
X0229025Y0163754D02*
X0175325Y0163754D01*
X0175325Y0162555D02*
X0229025Y0162555D01*
X0229025Y0161357D02*
X0175325Y0161357D01*
X0175325Y0160158D02*
X0229025Y0160158D01*
X0229025Y0158960D02*
X0175325Y0158960D01*
X0175325Y0157761D02*
X0229025Y0157761D01*
X0229025Y0156563D02*
X0175325Y0156563D01*
X0175325Y0155364D02*
X0229025Y0155364D01*
X0229025Y0154166D02*
X0175325Y0154166D01*
X0175325Y0152967D02*
X0229025Y0152967D01*
X0229025Y0151769D02*
X0175325Y0151769D01*
X0175325Y0150570D02*
X0229025Y0150570D01*
X0229025Y0149372D02*
X0223700Y0149372D01*
X0224911Y0148173D02*
X0229025Y0148173D01*
X0229025Y0146975D02*
X0225459Y0146975D01*
X0225406Y0144577D02*
X0229025Y0144577D01*
X0229025Y0143379D02*
X0224791Y0143379D01*
X0223410Y0142180D02*
X0229025Y0142180D01*
X0229025Y0140982D02*
X0224056Y0140982D01*
X0224990Y0139783D02*
X0229025Y0139783D01*
X0229025Y0138585D02*
X0225407Y0138585D01*
X0225407Y0137386D02*
X0229025Y0137386D01*
X0229025Y0136188D02*
X0224991Y0136188D01*
X0224059Y0134989D02*
X0229025Y0134989D01*
X0229025Y0133791D02*
X0222934Y0133791D01*
X0224572Y0132592D02*
X0229025Y0132592D01*
X0229025Y0131394D02*
X0225203Y0131394D01*
X0225407Y0130195D02*
X0229025Y0130195D01*
X0229025Y0128997D02*
X0225273Y0128997D01*
X0224742Y0127798D02*
X0229025Y0127798D01*
X0229025Y0126600D02*
X0223344Y0126600D01*
X0223889Y0125401D02*
X0229025Y0125401D01*
X0229025Y0124203D02*
X0224920Y0124203D01*
X0225407Y0123004D02*
X0229025Y0123004D01*
X0229025Y0121806D02*
X0225407Y0121806D01*
X0225060Y0120607D02*
X0229025Y0120607D01*
X0229025Y0119409D02*
X0224226Y0119409D01*
X0222530Y0118210D02*
X0229025Y0118210D01*
X0229025Y0117012D02*
X0224404Y0117012D01*
X0225134Y0115813D02*
X0229025Y0115813D01*
X0229025Y0114615D02*
X0225407Y0114615D01*
X0225343Y0113416D02*
X0229025Y0113416D01*
X0229025Y0112218D02*
X0224846Y0112218D01*
X0223710Y0111019D02*
X0229025Y0111019D01*
X0229025Y0109821D02*
X0223721Y0109821D01*
X0224851Y0108622D02*
X0229025Y0108622D01*
X0229025Y0107424D02*
X0225347Y0107424D01*
X0225407Y0106225D02*
X0229025Y0106225D01*
X0229025Y0105027D02*
X0225129Y0105027D01*
X0224393Y0103828D02*
X0229025Y0103828D01*
X0229025Y0102630D02*
X0222503Y0102630D01*
X0224237Y0101431D02*
X0229025Y0101431D01*
X0229025Y0100233D02*
X0225064Y0100233D01*
X0225407Y0099034D02*
X0229025Y0099034D01*
X0229025Y0097836D02*
X0225407Y0097836D01*
X0224916Y0096637D02*
X0229025Y0096637D01*
X0229025Y0095439D02*
X0223878Y0095439D01*
X0223370Y0094240D02*
X0229025Y0094240D01*
X0229025Y0093042D02*
X0224753Y0093042D01*
X0225278Y0091843D02*
X0229025Y0091843D01*
X0229025Y0090644D02*
X0225407Y0090644D01*
X0225199Y0089446D02*
X0229025Y0089446D01*
X0229025Y0088247D02*
X0224561Y0088247D01*
X0225589Y0087049D02*
X0229025Y0087049D01*
X0229025Y0085850D02*
X0226787Y0085850D01*
X0227825Y0084652D02*
X0229025Y0084652D01*
X0229025Y0083453D02*
X0227825Y0083453D01*
X0227825Y0082255D02*
X0229025Y0082255D01*
X0217458Y0090644D02*
X0216993Y0090644D01*
X0217587Y0091843D02*
X0215795Y0091843D01*
X0214596Y0093042D02*
X0218112Y0093042D01*
X0219495Y0094240D02*
X0213398Y0094240D01*
X0212199Y0095439D02*
X0218987Y0095439D01*
X0217949Y0096637D02*
X0211001Y0096637D01*
X0209802Y0097836D02*
X0217458Y0097836D01*
X0217458Y0099034D02*
X0208604Y0099034D01*
X0207405Y0100233D02*
X0217800Y0100233D01*
X0218628Y0101431D02*
X0206207Y0101431D01*
X0205008Y0102630D02*
X0220362Y0102630D01*
X0218472Y0103828D02*
X0203810Y0103828D01*
X0202611Y0105027D02*
X0217736Y0105027D01*
X0217458Y0106225D02*
X0201413Y0106225D01*
X0200214Y0107424D02*
X0217518Y0107424D01*
X0218014Y0108622D02*
X0199016Y0108622D01*
X0197817Y0109821D02*
X0219144Y0109821D01*
X0219154Y0111019D02*
X0196619Y0111019D01*
X0195420Y0112218D02*
X0218019Y0112218D01*
X0217522Y0113416D02*
X0194222Y0113416D01*
X0193023Y0114615D02*
X0217458Y0114615D01*
X0217731Y0115813D02*
X0191825Y0115813D01*
X0190626Y0117012D02*
X0218461Y0117012D01*
X0220335Y0118210D02*
X0189428Y0118210D01*
X0188229Y0119409D02*
X0218639Y0119409D01*
X0217805Y0120607D02*
X0187030Y0120607D01*
X0185832Y0121806D02*
X0217458Y0121806D01*
X0217458Y0123004D02*
X0184633Y0123004D01*
X0183435Y0124203D02*
X0217945Y0124203D01*
X0218976Y0125401D02*
X0182236Y0125401D01*
X0181038Y0126600D02*
X0219521Y0126600D01*
X0218123Y0127798D02*
X0179839Y0127798D01*
X0178641Y0128997D02*
X0217591Y0128997D01*
X0217458Y0130195D02*
X0177442Y0130195D01*
X0176244Y0131394D02*
X0217662Y0131394D01*
X0218293Y0132592D02*
X0175325Y0132592D01*
X0175325Y0133791D02*
X0219931Y0133791D01*
X0218806Y0134989D02*
X0175325Y0134989D01*
X0175325Y0136188D02*
X0217874Y0136188D01*
X0217458Y0137386D02*
X0175325Y0137386D01*
X0175325Y0138585D02*
X0217458Y0138585D01*
X0217875Y0139783D02*
X0175325Y0139783D01*
X0175325Y0140982D02*
X0218809Y0140982D01*
X0219455Y0142180D02*
X0175325Y0142180D01*
X0175325Y0143379D02*
X0218074Y0143379D01*
X0217459Y0144577D02*
X0175325Y0144577D01*
X0175325Y0145776D02*
X0221245Y0145776D01*
X0221620Y0145776D02*
X0229025Y0145776D01*
X0221620Y0146975D02*
X0221245Y0146975D01*
X0221245Y0148173D02*
X0221620Y0148173D01*
X0221620Y0149372D02*
X0221245Y0149372D01*
X0219165Y0149372D02*
X0175325Y0149372D01*
X0175325Y0148173D02*
X0217954Y0148173D01*
X0217405Y0146975D02*
X0175325Y0146975D01*
X0161525Y0132592D02*
X0137958Y0132592D01*
X0138589Y0131394D02*
X0161525Y0131394D01*
X0161525Y0130195D02*
X0138793Y0130195D01*
X0138659Y0128997D02*
X0161525Y0128997D01*
X0161525Y0127798D02*
X0138127Y0127798D01*
X0136730Y0126600D02*
X0161525Y0126600D01*
X0161525Y0125401D02*
X0137275Y0125401D01*
X0138306Y0124203D02*
X0161525Y0124203D01*
X0161525Y0123004D02*
X0138793Y0123004D01*
X0138793Y0121806D02*
X0161525Y0121806D01*
X0161525Y0120607D02*
X0138446Y0120607D01*
X0137612Y0119409D02*
X0161525Y0119409D01*
X0161525Y0118210D02*
X0135915Y0118210D01*
X0133721Y0118210D02*
X0020025Y0118210D01*
X0020482Y0117012D02*
X0131846Y0117012D01*
X0131117Y0115813D02*
X0020939Y0115813D01*
X0021395Y0114615D02*
X0130844Y0114615D01*
X0130908Y0113416D02*
X0021968Y0113416D01*
X0022555Y0112218D02*
X0131404Y0112218D01*
X0132540Y0111019D02*
X0023142Y0111019D01*
X0024330Y0109821D02*
X0132529Y0109821D01*
X0131400Y0108622D02*
X0025529Y0108622D01*
X0026727Y0107424D02*
X0130903Y0107424D01*
X0130844Y0106225D02*
X0101944Y0106225D01*
X0101898Y0106258D02*
X0101155Y0106637D01*
X0100362Y0106895D01*
X0099538Y0107025D01*
X0099406Y0107025D01*
X0099406Y0102011D01*
X0098835Y0102011D01*
X0098835Y0101440D01*
X0093821Y0101440D01*
X0093821Y0101308D01*
X0093951Y0100484D01*
X0094209Y0099691D01*
X0094588Y0098948D01*
X0095078Y0098273D01*
X0095668Y0097683D01*
X0096343Y0097192D01*
X0097086Y0096814D01*
X0097880Y0096556D01*
X0098704Y0096425D01*
X0098835Y0096425D01*
X0098835Y0101439D01*
X0099406Y0101439D01*
X0099406Y0096425D01*
X0099538Y0096425D01*
X0100362Y0096556D01*
X0101155Y0096814D01*
X0101898Y0097192D01*
X0102573Y0097683D01*
X0103163Y0098273D01*
X0103654Y0098948D01*
X0104032Y0099691D01*
X0104290Y0100484D01*
X0104421Y0101308D01*
X0104421Y0101440D01*
X0099407Y0101440D01*
X0099407Y0102011D01*
X0104421Y0102011D01*
X0104421Y0102143D01*
X0104290Y0102966D01*
X0104032Y0103760D01*
X0103654Y0104503D01*
X0103163Y0105178D01*
X0102573Y0105768D01*
X0101898Y0106258D01*
X0103273Y0105027D02*
X0131121Y0105027D01*
X0131857Y0103828D02*
X0103998Y0103828D01*
X0104344Y0102630D02*
X0133748Y0102630D01*
X0132014Y0101431D02*
X0104421Y0101431D01*
X0104208Y0100233D02*
X0131186Y0100233D01*
X0130844Y0099034D02*
X0103698Y0099034D01*
X0102726Y0097836D02*
X0130844Y0097836D01*
X0131335Y0096637D02*
X0100611Y0096637D01*
X0099406Y0096637D02*
X0098835Y0096637D01*
X0098835Y0097836D02*
X0099406Y0097836D01*
X0099406Y0099034D02*
X0098835Y0099034D01*
X0098835Y0100233D02*
X0099406Y0100233D01*
X0099406Y0101431D02*
X0098835Y0101431D01*
X0098835Y0102011D02*
X0093821Y0102011D01*
X0093821Y0102143D01*
X0093951Y0102966D01*
X0094209Y0103760D01*
X0094588Y0104503D01*
X0095078Y0105178D01*
X0095668Y0105768D01*
X0096343Y0106258D01*
X0097086Y0106637D01*
X0097880Y0106895D01*
X0098704Y0107025D01*
X0098835Y0107025D01*
X0098835Y0102011D01*
X0098835Y0102630D02*
X0099406Y0102630D01*
X0099406Y0103828D02*
X0098835Y0103828D01*
X0098835Y0105027D02*
X0099406Y0105027D01*
X0099406Y0106225D02*
X0098835Y0106225D01*
X0096297Y0106225D02*
X0075994Y0106225D01*
X0076419Y0106049D02*
X0074545Y0106825D01*
X0072516Y0106825D01*
X0070641Y0106049D01*
X0069207Y0104614D01*
X0068430Y0102740D01*
X0068430Y0100711D01*
X0069207Y0098836D01*
X0070641Y0097402D01*
X0072516Y0096625D01*
X0074545Y0096625D01*
X0076419Y0097402D01*
X0077854Y0098836D01*
X0078630Y0100711D01*
X0078630Y0102740D01*
X0077854Y0104614D01*
X0076419Y0106049D01*
X0077441Y0105027D02*
X0094968Y0105027D01*
X0094244Y0103828D02*
X0078179Y0103828D01*
X0078630Y0102630D02*
X0093898Y0102630D01*
X0093821Y0101431D02*
X0078630Y0101431D01*
X0078432Y0100233D02*
X0094033Y0100233D01*
X0094544Y0099034D02*
X0077936Y0099034D01*
X0076853Y0097836D02*
X0095515Y0097836D01*
X0097630Y0096637D02*
X0074573Y0096637D01*
X0072488Y0096637D02*
X0037514Y0096637D01*
X0038712Y0095439D02*
X0132373Y0095439D01*
X0132881Y0094240D02*
X0039911Y0094240D01*
X0041109Y0093042D02*
X0131498Y0093042D01*
X0130973Y0091843D02*
X0042308Y0091843D01*
X0043506Y0090644D02*
X0130844Y0090644D01*
X0131052Y0089446D02*
X0044705Y0089446D01*
X0045903Y0088247D02*
X0131690Y0088247D01*
X0133343Y0087049D02*
X0047102Y0087049D01*
X0048300Y0085850D02*
X0132181Y0085850D01*
X0131256Y0084652D02*
X0049499Y0084652D01*
X0050697Y0083453D02*
X0130844Y0083453D01*
X0136293Y0087049D02*
X0161525Y0087049D01*
X0161525Y0088247D02*
X0137947Y0088247D01*
X0138584Y0089446D02*
X0161525Y0089446D01*
X0161525Y0090644D02*
X0138793Y0090644D01*
X0138664Y0091843D02*
X0161525Y0091843D01*
X0161525Y0093042D02*
X0138138Y0093042D01*
X0136756Y0094240D02*
X0161525Y0094240D01*
X0161525Y0095439D02*
X0137264Y0095439D01*
X0138302Y0096637D02*
X0161525Y0096637D01*
X0161525Y0097836D02*
X0138793Y0097836D01*
X0138793Y0099034D02*
X0161525Y0099034D01*
X0161525Y0100233D02*
X0138450Y0100233D01*
X0137623Y0101431D02*
X0161525Y0101431D01*
X0161525Y0102630D02*
X0135889Y0102630D01*
X0137779Y0103828D02*
X0161525Y0103828D01*
X0161525Y0105027D02*
X0138515Y0105027D01*
X0138793Y0106225D02*
X0161525Y0106225D01*
X0161525Y0107424D02*
X0138733Y0107424D01*
X0138237Y0108622D02*
X0161525Y0108622D01*
X0161525Y0109821D02*
X0137107Y0109821D01*
X0137096Y0111019D02*
X0161525Y0111019D01*
X0161525Y0112218D02*
X0138232Y0112218D01*
X0138729Y0113416D02*
X0161525Y0113416D01*
X0161525Y0114615D02*
X0138793Y0114615D01*
X0138520Y0115813D02*
X0161525Y0115813D01*
X0161525Y0117012D02*
X0137790Y0117012D01*
X0132025Y0119409D02*
X0019568Y0119409D01*
X0019111Y0120607D02*
X0131191Y0120607D01*
X0130844Y0121806D02*
X0018654Y0121806D01*
X0018425Y0123004D02*
X0130844Y0123004D01*
X0131331Y0124203D02*
X0018425Y0124203D01*
X0018425Y0125401D02*
X0132362Y0125401D01*
X0132907Y0126600D02*
X0018425Y0126600D01*
X0027966Y0143379D02*
X0131677Y0143379D01*
X0131047Y0144577D02*
X0029164Y0144577D01*
X0030363Y0145776D02*
X0130844Y0145776D01*
X0130978Y0146975D02*
X0116158Y0146975D01*
X0113892Y0146975D02*
X0031562Y0146975D01*
X0032760Y0148173D02*
X0111665Y0148173D01*
X0110604Y0149372D02*
X0033959Y0149372D01*
X0035157Y0150570D02*
X0110108Y0150570D01*
X0109925Y0151769D02*
X0036356Y0151769D01*
X0037554Y0152967D02*
X0109925Y0152967D01*
X0110392Y0154166D02*
X0038753Y0154166D01*
X0039951Y0155364D02*
X0111152Y0155364D01*
X0112652Y0156563D02*
X0041150Y0156563D01*
X0042348Y0157761D02*
X0112077Y0157761D01*
X0110879Y0158960D02*
X0043547Y0158960D01*
X0044745Y0160158D02*
X0110279Y0160158D01*
X0109925Y0161357D02*
X0045944Y0161357D01*
X0047142Y0162555D02*
X0109925Y0162555D01*
X0110221Y0163754D02*
X0048341Y0163754D01*
X0049539Y0164952D02*
X0110740Y0164952D01*
X0111938Y0166151D02*
X0050738Y0166151D01*
X0051936Y0167349D02*
X0112988Y0167349D01*
X0111291Y0168548D02*
X0053135Y0168548D01*
X0054333Y0169746D02*
X0110449Y0169746D01*
X0109953Y0170945D02*
X0055532Y0170945D01*
X0056730Y0172143D02*
X0109925Y0172143D01*
X0110050Y0173342D02*
X0057929Y0173342D01*
X0059127Y0174540D02*
X0110547Y0174540D01*
X0111526Y0175739D02*
X0060326Y0175739D01*
X0061524Y0176937D02*
X0113557Y0176937D01*
X0111702Y0178136D02*
X0062723Y0178136D01*
X0063921Y0179334D02*
X0110620Y0179334D01*
X0110123Y0180533D02*
X0065120Y0180533D01*
X0066318Y0181731D02*
X0109925Y0181731D01*
X0109925Y0182930D02*
X0067517Y0182930D01*
X0068715Y0184128D02*
X0110376Y0184128D01*
X0111114Y0185327D02*
X0069914Y0185327D01*
X0071112Y0186525D02*
X0112562Y0186525D01*
X0112114Y0187724D02*
X0072311Y0187724D01*
X0073509Y0188922D02*
X0110916Y0188922D01*
X0110294Y0190121D02*
X0074708Y0190121D01*
X0075906Y0191319D02*
X0109925Y0191319D01*
X0109925Y0192518D02*
X0077105Y0192518D01*
X0078303Y0193716D02*
X0110206Y0193716D01*
X0110702Y0194915D02*
X0079502Y0194915D01*
X0080700Y0196113D02*
X0111901Y0196113D01*
X0113078Y0197312D02*
X0081899Y0197312D01*
X0083098Y0198511D02*
X0111328Y0198511D01*
X0110465Y0199709D02*
X0084296Y0199709D01*
X0085495Y0200908D02*
X0109968Y0200908D01*
X0109925Y0202106D02*
X0086693Y0202106D01*
X0087892Y0203305D02*
X0110035Y0203305D01*
X0110261Y0204503D02*
X0089090Y0204503D01*
X0090289Y0205702D02*
X0109062Y0205702D01*
X0107864Y0206900D02*
X0091487Y0206900D01*
X0092686Y0208099D02*
X0106665Y0208099D01*
X0106525Y0209297D02*
X0093884Y0209297D01*
X0095083Y0210496D02*
X0106525Y0210496D01*
X0106525Y0211694D02*
X0096281Y0211694D01*
X0097480Y0212893D02*
X0106525Y0212893D01*
X0106525Y0214091D02*
X0098678Y0214091D01*
X0099877Y0215290D02*
X0106525Y0215290D01*
X0106525Y0216488D02*
X0101075Y0216488D01*
X0102274Y0217687D02*
X0106525Y0217687D01*
X0106525Y0218885D02*
X0102825Y0218885D01*
X0102825Y0220084D02*
X0106525Y0220084D01*
X0106525Y0221282D02*
X0102825Y0221282D01*
X0102825Y0222481D02*
X0106525Y0222481D01*
X0106525Y0223679D02*
X0102825Y0223679D01*
X0102825Y0224878D02*
X0106525Y0224878D01*
X0106525Y0226076D02*
X0102825Y0226076D01*
X0102825Y0227275D02*
X0103729Y0227275D01*
X0110325Y0227275D02*
X0113446Y0227275D01*
X0114496Y0226225D02*
X0111625Y0229096D01*
X0111625Y0230925D01*
X0116325Y0230925D01*
X0116325Y0226225D01*
X0114496Y0226225D01*
X0116325Y0227275D02*
X0116725Y0227275D01*
X0116725Y0228473D02*
X0116325Y0228473D01*
X0116325Y0229672D02*
X0116725Y0229672D01*
X0116725Y0230870D02*
X0116325Y0230870D01*
X0116725Y0231325D02*
X0116725Y0236025D01*
X0118555Y0236025D01*
X0121425Y0233155D01*
X0121425Y0231325D01*
X0116725Y0231325D01*
X0116725Y0232069D02*
X0116325Y0232069D01*
X0116325Y0233267D02*
X0116725Y0233267D01*
X0116725Y0234466D02*
X0116325Y0234466D01*
X0116325Y0235664D02*
X0116725Y0235664D01*
X0116225Y0236863D02*
X0137901Y0236863D01*
X0136702Y0238061D02*
X0116225Y0238061D01*
X0116225Y0239260D02*
X0135504Y0239260D01*
X0134305Y0240458D02*
X0116225Y0240458D01*
X0115141Y0241657D02*
X0133107Y0241657D01*
X0131908Y0242855D02*
X0113942Y0242855D01*
X0109109Y0242855D02*
X0107825Y0242855D01*
X0107825Y0241657D02*
X0107910Y0241657D01*
X0107825Y0244054D02*
X0130710Y0244054D01*
X0129511Y0245252D02*
X0107825Y0245252D01*
X0107825Y0246451D02*
X0128313Y0246451D01*
X0127114Y0247649D02*
X0107825Y0247649D01*
X0107825Y0248848D02*
X0126525Y0248848D01*
X0126525Y0250046D02*
X0107825Y0250046D01*
X0107825Y0251245D02*
X0126525Y0251245D01*
X0126525Y0252444D02*
X0107825Y0252444D01*
X0107825Y0253642D02*
X0126525Y0253642D01*
X0126525Y0254841D02*
X0107825Y0254841D01*
X0107825Y0256039D02*
X0126525Y0256039D01*
X0126525Y0257238D02*
X0107825Y0257238D01*
X0107825Y0258436D02*
X0126525Y0258436D01*
X0126525Y0259635D02*
X0107825Y0259635D01*
X0107825Y0260833D02*
X0126525Y0260833D01*
X0126525Y0262032D02*
X0107825Y0262032D01*
X0107825Y0263230D02*
X0126525Y0263230D01*
X0126525Y0264429D02*
X0107825Y0264429D01*
X0107825Y0265627D02*
X0126525Y0265627D01*
X0126525Y0266826D02*
X0107825Y0266826D01*
X0107825Y0268024D02*
X0126525Y0268024D01*
X0126525Y0269223D02*
X0107825Y0269223D01*
X0107825Y0270421D02*
X0126525Y0270421D01*
X0126525Y0271620D02*
X0107825Y0271620D01*
X0107825Y0272818D02*
X0126525Y0272818D01*
X0126525Y0274017D02*
X0107825Y0274017D01*
X0107825Y0275215D02*
X0126525Y0275215D01*
X0126525Y0276414D02*
X0107825Y0276414D01*
X0107825Y0277612D02*
X0126525Y0277612D01*
X0126525Y0278811D02*
X0107825Y0278811D01*
X0107825Y0280009D02*
X0126525Y0280009D01*
X0126525Y0281208D02*
X0107825Y0281208D01*
X0107825Y0282406D02*
X0126525Y0282406D01*
X0126525Y0283605D02*
X0107825Y0283605D01*
X0107825Y0284803D02*
X0126525Y0284803D01*
X0126525Y0286002D02*
X0107825Y0286002D01*
X0107825Y0287200D02*
X0126525Y0287200D01*
X0126525Y0288399D02*
X0107825Y0288399D01*
X0107825Y0289597D02*
X0126525Y0289597D01*
X0126525Y0290796D02*
X0107825Y0290796D01*
X0107825Y0291994D02*
X0126525Y0291994D01*
X0126525Y0293193D02*
X0107825Y0293193D01*
X0107825Y0294391D02*
X0126525Y0294391D01*
X0126525Y0295590D02*
X0107825Y0295590D01*
X0108875Y0296788D02*
X0126525Y0296788D01*
X0126525Y0297987D02*
X0110074Y0297987D01*
X0111272Y0299185D02*
X0126525Y0299185D01*
X0127097Y0300384D02*
X0112471Y0300384D01*
X0113669Y0301582D02*
X0128295Y0301582D01*
X0129494Y0302781D02*
X0114868Y0302781D01*
X0116066Y0303980D02*
X0130693Y0303980D01*
X0130783Y0305178D02*
X0117265Y0305178D01*
X0118464Y0306377D02*
X0131279Y0306377D01*
X0132163Y0307575D02*
X0119662Y0307575D01*
X0120861Y0308774D02*
X0133962Y0308774D01*
X0132666Y0309972D02*
X0122059Y0309972D01*
X0123258Y0311171D02*
X0131488Y0311171D01*
X0130991Y0312369D02*
X0124456Y0312369D01*
X0125655Y0313568D02*
X0130725Y0313568D01*
X0130725Y0314766D02*
X0126853Y0314766D01*
X0128052Y0315965D02*
X0131108Y0315965D01*
X0131751Y0317163D02*
X0129250Y0317163D01*
X0130590Y0318362D02*
X0132967Y0318362D01*
X0131725Y0319560D02*
X0135204Y0319560D01*
X0134005Y0320759D02*
X0131725Y0320759D01*
X0131725Y0321957D02*
X0132807Y0321957D01*
X0129725Y0320325D02*
X0129725Y0327625D01*
X0129775Y0327675D01*
X0131131Y0329148D02*
X0145268Y0329148D01*
X0145480Y0329661D02*
X0144825Y0328081D01*
X0144825Y0326370D01*
X0145480Y0324790D01*
X0146690Y0323580D01*
X0148270Y0322925D01*
X0149981Y0322925D01*
X0151561Y0323580D01*
X0152771Y0324790D01*
X0153425Y0326370D01*
X0153425Y0328081D01*
X0152771Y0329661D01*
X0151561Y0330871D01*
X0149981Y0331525D01*
X0148270Y0331525D01*
X0146690Y0330871D01*
X0145480Y0329661D01*
X0146166Y0330347D02*
X0129791Y0330347D01*
X0128592Y0331545D02*
X0153219Y0331545D01*
X0152085Y0330347D02*
X0154417Y0330347D01*
X0155616Y0329148D02*
X0152983Y0329148D01*
X0153425Y0327950D02*
X0156814Y0327950D01*
X0158013Y0326751D02*
X0153425Y0326751D01*
X0153087Y0325553D02*
X0159211Y0325553D01*
X0160410Y0324354D02*
X0152335Y0324354D01*
X0150537Y0323156D02*
X0161525Y0323156D01*
X0161525Y0321957D02*
X0138181Y0321957D01*
X0139379Y0320759D02*
X0146578Y0320759D01*
X0146690Y0320871D02*
X0145480Y0319661D01*
X0144825Y0318081D01*
X0144825Y0316370D01*
X0145480Y0314790D01*
X0146690Y0313580D01*
X0148270Y0312925D01*
X0149981Y0312925D01*
X0151561Y0313580D01*
X0152771Y0314790D01*
X0153425Y0316370D01*
X0153425Y0318081D01*
X0152771Y0319661D01*
X0151561Y0320871D01*
X0149981Y0321525D01*
X0148270Y0321525D01*
X0146690Y0320871D01*
X0145438Y0319560D02*
X0140578Y0319560D01*
X0141776Y0318362D02*
X0144942Y0318362D01*
X0144825Y0317163D02*
X0142825Y0317163D01*
X0142825Y0315965D02*
X0144993Y0315965D01*
X0145504Y0314766D02*
X0142825Y0314766D01*
X0142825Y0313568D02*
X0146720Y0313568D01*
X0147413Y0311171D02*
X0142825Y0311171D01*
X0142825Y0312369D02*
X0161525Y0312369D01*
X0161525Y0311171D02*
X0150837Y0311171D01*
X0151561Y0310871D02*
X0149981Y0311525D01*
X0148270Y0311525D01*
X0146690Y0310871D01*
X0145480Y0309661D01*
X0144825Y0308081D01*
X0144825Y0306370D01*
X0145480Y0304790D01*
X0146690Y0303580D01*
X0148270Y0302925D01*
X0149981Y0302925D01*
X0151561Y0303580D01*
X0152771Y0304790D01*
X0153425Y0306370D01*
X0153425Y0308081D01*
X0152771Y0309661D01*
X0151561Y0310871D01*
X0152460Y0309972D02*
X0161525Y0309972D01*
X0161525Y0308774D02*
X0153138Y0308774D01*
X0153425Y0307575D02*
X0161525Y0307575D01*
X0161525Y0306377D02*
X0153425Y0306377D01*
X0152932Y0305178D02*
X0161525Y0305178D01*
X0161525Y0303980D02*
X0151961Y0303980D01*
X0151561Y0300871D02*
X0149981Y0301525D01*
X0148270Y0301525D01*
X0146690Y0300871D01*
X0145480Y0299661D01*
X0144825Y0298081D01*
X0144825Y0296370D01*
X0145480Y0294790D01*
X0146690Y0293580D01*
X0148270Y0292925D01*
X0149981Y0292925D01*
X0151561Y0293580D01*
X0152771Y0294790D01*
X0153425Y0296370D01*
X0153425Y0298081D01*
X0152771Y0299661D01*
X0151561Y0300871D01*
X0152048Y0300384D02*
X0161525Y0300384D01*
X0161525Y0301582D02*
X0142825Y0301582D01*
X0142825Y0300384D02*
X0146203Y0300384D01*
X0145283Y0299185D02*
X0142825Y0299185D01*
X0142825Y0297987D02*
X0144825Y0297987D01*
X0144825Y0296788D02*
X0142825Y0296788D01*
X0142825Y0295590D02*
X0145149Y0295590D01*
X0145878Y0294391D02*
X0142825Y0294391D01*
X0142825Y0293193D02*
X0147624Y0293193D01*
X0148270Y0291525D02*
X0146690Y0290871D01*
X0145480Y0289661D01*
X0144825Y0288081D01*
X0144825Y0286370D01*
X0145480Y0284790D01*
X0146690Y0283580D01*
X0148270Y0282925D01*
X0149981Y0282925D01*
X0151561Y0283580D01*
X0152771Y0284790D01*
X0153425Y0286370D01*
X0153425Y0288081D01*
X0152771Y0289661D01*
X0151561Y0290871D01*
X0149981Y0291525D01*
X0148270Y0291525D01*
X0146615Y0290796D02*
X0142825Y0290796D01*
X0142825Y0291994D02*
X0161525Y0291994D01*
X0161525Y0290796D02*
X0151636Y0290796D01*
X0152797Y0289597D02*
X0161525Y0289597D01*
X0161525Y0288399D02*
X0153294Y0288399D01*
X0153425Y0287200D02*
X0161525Y0287200D01*
X0161525Y0286002D02*
X0153273Y0286002D01*
X0152776Y0284803D02*
X0161525Y0284803D01*
X0161525Y0283605D02*
X0151586Y0283605D01*
X0150747Y0281208D02*
X0161525Y0281208D01*
X0161525Y0282406D02*
X0142825Y0282406D01*
X0142825Y0281208D02*
X0147503Y0281208D01*
X0145828Y0280009D02*
X0142825Y0280009D01*
X0142825Y0278811D02*
X0145128Y0278811D01*
X0144825Y0277612D02*
X0142199Y0277612D01*
X0141001Y0276414D02*
X0144825Y0276414D01*
X0145304Y0275215D02*
X0140853Y0275215D01*
X0140925Y0274017D02*
X0146253Y0274017D01*
X0146240Y0270421D02*
X0139434Y0270421D01*
X0140349Y0271620D02*
X0151525Y0271620D01*
X0151525Y0272818D02*
X0140846Y0272818D01*
X0137558Y0269223D02*
X0145298Y0269223D01*
X0144825Y0268024D02*
X0139039Y0268024D01*
X0140186Y0266826D02*
X0144825Y0266826D01*
X0145133Y0265627D02*
X0140682Y0265627D01*
X0140925Y0264429D02*
X0145841Y0264429D01*
X0147534Y0263230D02*
X0140925Y0263230D01*
X0140606Y0262032D02*
X0151525Y0262032D01*
X0151525Y0263230D02*
X0150716Y0263230D01*
X0155325Y0263230D02*
X0161525Y0263230D01*
X0161525Y0262032D02*
X0155325Y0262032D01*
X0155325Y0260833D02*
X0161525Y0260833D01*
X0161525Y0259635D02*
X0155325Y0259635D01*
X0155325Y0258436D02*
X0161525Y0258436D01*
X0161525Y0257238D02*
X0155325Y0257238D01*
X0155325Y0256039D02*
X0161525Y0256039D01*
X0161525Y0254841D02*
X0155325Y0254841D01*
X0155325Y0253642D02*
X0161525Y0253642D01*
X0161525Y0252444D02*
X0155325Y0252444D01*
X0155325Y0251245D02*
X0161525Y0251245D01*
X0161525Y0250046D02*
X0155325Y0250046D01*
X0155325Y0248848D02*
X0161525Y0248848D01*
X0161525Y0247649D02*
X0155325Y0247649D01*
X0155325Y0246451D02*
X0161525Y0246451D01*
X0161525Y0245252D02*
X0155325Y0245252D01*
X0155325Y0244054D02*
X0161525Y0244054D01*
X0161525Y0242855D02*
X0155325Y0242855D01*
X0155325Y0241657D02*
X0161525Y0241657D01*
X0161525Y0240458D02*
X0155325Y0240458D01*
X0155325Y0239260D02*
X0161525Y0239260D01*
X0161525Y0238061D02*
X0155325Y0238061D01*
X0155325Y0236863D02*
X0161525Y0236863D01*
X0161525Y0235664D02*
X0155325Y0235664D01*
X0155325Y0234466D02*
X0161525Y0234466D01*
X0161525Y0233267D02*
X0155325Y0233267D01*
X0155325Y0232069D02*
X0161525Y0232069D01*
X0165325Y0232069D02*
X0166525Y0232069D01*
X0166525Y0233267D02*
X0165325Y0233267D01*
X0165325Y0234466D02*
X0166525Y0234466D01*
X0166525Y0235664D02*
X0165325Y0235664D01*
X0165325Y0236863D02*
X0166525Y0236863D01*
X0166525Y0238061D02*
X0165325Y0238061D01*
X0165325Y0239260D02*
X0166525Y0239260D01*
X0166525Y0240458D02*
X0165325Y0240458D01*
X0165325Y0241657D02*
X0166525Y0241657D01*
X0166525Y0242855D02*
X0165325Y0242855D01*
X0165325Y0244054D02*
X0166525Y0244054D01*
X0166525Y0245252D02*
X0165325Y0245252D01*
X0165325Y0246451D02*
X0166525Y0246451D01*
X0166525Y0247649D02*
X0165325Y0247649D01*
X0165325Y0248848D02*
X0166525Y0248848D01*
X0166525Y0250046D02*
X0165325Y0250046D01*
X0165325Y0251245D02*
X0166525Y0251245D01*
X0166525Y0252444D02*
X0165325Y0252444D01*
X0165325Y0253642D02*
X0166525Y0253642D01*
X0166525Y0254841D02*
X0165325Y0254841D01*
X0165325Y0256039D02*
X0166525Y0256039D01*
X0166525Y0257238D02*
X0165325Y0257238D01*
X0165325Y0258436D02*
X0166525Y0258436D01*
X0166525Y0259635D02*
X0165325Y0259635D01*
X0165325Y0260833D02*
X0166525Y0260833D01*
X0166525Y0262032D02*
X0165325Y0262032D01*
X0165325Y0263230D02*
X0166525Y0263230D01*
X0166525Y0264429D02*
X0165325Y0264429D01*
X0165325Y0265627D02*
X0166525Y0265627D01*
X0166525Y0266826D02*
X0165325Y0266826D01*
X0165325Y0268024D02*
X0166525Y0268024D01*
X0166525Y0269223D02*
X0165325Y0269223D01*
X0165325Y0270421D02*
X0166525Y0270421D01*
X0166525Y0271620D02*
X0165325Y0271620D01*
X0165325Y0272818D02*
X0166525Y0272818D01*
X0166525Y0274017D02*
X0165325Y0274017D01*
X0165325Y0275215D02*
X0166525Y0275215D01*
X0166525Y0276414D02*
X0165325Y0276414D01*
X0165325Y0277612D02*
X0166525Y0277612D01*
X0166525Y0278811D02*
X0165325Y0278811D01*
X0165325Y0280009D02*
X0166525Y0280009D01*
X0166525Y0281208D02*
X0165325Y0281208D01*
X0165325Y0282406D02*
X0166525Y0282406D01*
X0166525Y0283605D02*
X0165325Y0283605D01*
X0165325Y0284803D02*
X0166525Y0284803D01*
X0166525Y0286002D02*
X0165325Y0286002D01*
X0165325Y0287200D02*
X0166525Y0287200D01*
X0166525Y0288399D02*
X0165325Y0288399D01*
X0165325Y0289597D02*
X0166525Y0289597D01*
X0166525Y0290796D02*
X0165325Y0290796D01*
X0165325Y0291994D02*
X0166525Y0291994D01*
X0166525Y0293193D02*
X0165325Y0293193D01*
X0165325Y0294391D02*
X0166525Y0294391D01*
X0166525Y0295590D02*
X0165325Y0295590D01*
X0165325Y0296788D02*
X0166525Y0296788D01*
X0166525Y0297987D02*
X0165325Y0297987D01*
X0165325Y0299185D02*
X0166525Y0299185D01*
X0166525Y0300384D02*
X0165325Y0300384D01*
X0165325Y0301582D02*
X0166525Y0301582D01*
X0166525Y0302781D02*
X0165325Y0302781D01*
X0165325Y0303980D02*
X0166525Y0303980D01*
X0166525Y0305178D02*
X0165325Y0305178D01*
X0165325Y0306377D02*
X0166525Y0306377D01*
X0166525Y0307575D02*
X0165325Y0307575D01*
X0165325Y0308774D02*
X0166525Y0308774D01*
X0166525Y0309972D02*
X0165325Y0309972D01*
X0165325Y0311171D02*
X0166525Y0311171D01*
X0166525Y0312369D02*
X0165325Y0312369D01*
X0165325Y0313568D02*
X0166525Y0313568D01*
X0166525Y0314766D02*
X0165325Y0314766D01*
X0165325Y0315965D02*
X0166525Y0315965D01*
X0166525Y0317163D02*
X0165325Y0317163D01*
X0165325Y0318362D02*
X0166525Y0318362D01*
X0166525Y0319560D02*
X0165325Y0319560D01*
X0165325Y0320759D02*
X0166525Y0320759D01*
X0166525Y0321957D02*
X0165325Y0321957D01*
X0165325Y0323156D02*
X0166525Y0323156D01*
X0166525Y0324354D02*
X0165325Y0324354D01*
X0164585Y0325553D02*
X0166525Y0325553D01*
X0166525Y0326751D02*
X0163387Y0326751D01*
X0162188Y0327950D02*
X0166525Y0327950D01*
X0165994Y0329148D02*
X0160990Y0329148D01*
X0159791Y0330347D02*
X0165233Y0330347D01*
X0165025Y0331545D02*
X0158593Y0331545D01*
X0157394Y0332744D02*
X0165250Y0332744D01*
X0166034Y0333942D02*
X0156195Y0333942D01*
X0154997Y0335141D02*
X0167123Y0335141D01*
X0165924Y0336339D02*
X0153798Y0336339D01*
X0153425Y0337538D02*
X0164726Y0337538D01*
X0163527Y0338736D02*
X0153154Y0338736D01*
X0152497Y0339935D02*
X0162329Y0339935D01*
X0161130Y0341133D02*
X0150927Y0341133D01*
X0151441Y0343530D02*
X0158733Y0343530D01*
X0159932Y0342332D02*
X0130925Y0342332D01*
X0130925Y0341133D02*
X0147324Y0341133D01*
X0145754Y0339935D02*
X0130604Y0339935D01*
X0130049Y0338736D02*
X0145097Y0338736D01*
X0144825Y0337538D02*
X0128850Y0337538D01*
X0126195Y0333942D02*
X0146327Y0333942D01*
X0145335Y0335141D02*
X0124997Y0335141D01*
X0123798Y0336339D02*
X0144838Y0336339D01*
X0146809Y0343530D02*
X0130598Y0343530D01*
X0130034Y0344729D02*
X0145541Y0344729D01*
X0145009Y0345927D02*
X0128836Y0345927D01*
X0122815Y0345927D02*
X0118836Y0345927D01*
X0120034Y0344729D02*
X0121616Y0344729D01*
X0121053Y0343530D02*
X0120598Y0343530D01*
X0120604Y0339935D02*
X0121047Y0339935D01*
X0121401Y0338736D02*
X0121602Y0338736D01*
X0122600Y0337538D02*
X0122800Y0337538D01*
X0119623Y0335141D02*
X0092025Y0335141D01*
X0092025Y0333942D02*
X0120822Y0333942D01*
X0122020Y0332744D02*
X0108219Y0332744D01*
X0109418Y0331545D02*
X0123219Y0331545D01*
X0124417Y0330347D02*
X0109933Y0330347D01*
X0110225Y0329148D02*
X0125616Y0329148D01*
X0126814Y0327950D02*
X0110225Y0327950D01*
X0110225Y0326751D02*
X0127725Y0326751D01*
X0127725Y0325553D02*
X0110225Y0325553D01*
X0110225Y0324354D02*
X0127725Y0324354D01*
X0127725Y0323156D02*
X0110225Y0323156D01*
X0110225Y0321957D02*
X0127725Y0321957D01*
X0127472Y0320759D02*
X0110225Y0320759D01*
X0109956Y0319560D02*
X0126273Y0319560D01*
X0125075Y0318362D02*
X0109459Y0318362D01*
X0108276Y0317163D02*
X0123876Y0317163D01*
X0122678Y0315965D02*
X0102825Y0315965D01*
X0102825Y0314766D02*
X0121479Y0314766D01*
X0120281Y0313568D02*
X0102825Y0313568D01*
X0102825Y0312369D02*
X0119082Y0312369D01*
X0117884Y0311171D02*
X0102825Y0311171D01*
X0102825Y0309972D02*
X0116685Y0309972D01*
X0115487Y0308774D02*
X0102825Y0308774D01*
X0102825Y0307575D02*
X0114288Y0307575D01*
X0113090Y0306377D02*
X0102825Y0306377D01*
X0102825Y0305178D02*
X0111891Y0305178D01*
X0110693Y0303980D02*
X0102825Y0303980D01*
X0102825Y0302781D02*
X0109494Y0302781D01*
X0108295Y0301582D02*
X0102825Y0301582D01*
X0102825Y0300384D02*
X0107097Y0300384D01*
X0105898Y0299185D02*
X0102825Y0299185D01*
X0102825Y0297987D02*
X0104700Y0297987D01*
X0104025Y0296788D02*
X0102825Y0296788D01*
X0102825Y0295590D02*
X0104025Y0295590D01*
X0104025Y0294391D02*
X0102825Y0294391D01*
X0102825Y0293193D02*
X0104025Y0293193D01*
X0104025Y0291994D02*
X0102825Y0291994D01*
X0102825Y0290796D02*
X0104025Y0290796D01*
X0104025Y0289597D02*
X0102825Y0289597D01*
X0102825Y0288399D02*
X0104025Y0288399D01*
X0104025Y0287200D02*
X0102825Y0287200D01*
X0102825Y0286002D02*
X0104025Y0286002D01*
X0104025Y0284803D02*
X0102825Y0284803D01*
X0102825Y0283605D02*
X0104025Y0283605D01*
X0104025Y0282406D02*
X0102825Y0282406D01*
X0102825Y0281208D02*
X0104025Y0281208D01*
X0104025Y0280009D02*
X0102825Y0280009D01*
X0102825Y0278811D02*
X0104025Y0278811D01*
X0104025Y0277612D02*
X0102825Y0277612D01*
X0102825Y0276414D02*
X0104025Y0276414D01*
X0104025Y0275215D02*
X0102825Y0275215D01*
X0102825Y0274017D02*
X0104025Y0274017D01*
X0104025Y0272818D02*
X0102825Y0272818D01*
X0102825Y0271620D02*
X0104025Y0271620D01*
X0104025Y0270421D02*
X0102825Y0270421D01*
X0102825Y0269223D02*
X0104025Y0269223D01*
X0104025Y0268024D02*
X0102825Y0268024D01*
X0102825Y0266826D02*
X0104025Y0266826D01*
X0104025Y0265627D02*
X0102825Y0265627D01*
X0102825Y0264429D02*
X0104025Y0264429D01*
X0104025Y0263230D02*
X0102825Y0263230D01*
X0102825Y0262032D02*
X0104025Y0262032D01*
X0104025Y0260833D02*
X0102825Y0260833D01*
X0102825Y0259635D02*
X0104025Y0259635D01*
X0104025Y0258436D02*
X0102825Y0258436D01*
X0102825Y0257238D02*
X0104025Y0257238D01*
X0104025Y0256039D02*
X0102825Y0256039D01*
X0102825Y0254841D02*
X0104025Y0254841D01*
X0104025Y0253642D02*
X0102825Y0253642D01*
X0102825Y0252444D02*
X0104025Y0252444D01*
X0104025Y0251245D02*
X0102825Y0251245D01*
X0102825Y0250046D02*
X0104025Y0250046D01*
X0104025Y0248848D02*
X0102825Y0248848D01*
X0102825Y0247649D02*
X0104025Y0247649D01*
X0104025Y0246451D02*
X0102825Y0246451D01*
X0102825Y0245252D02*
X0104025Y0245252D01*
X0104025Y0244054D02*
X0102825Y0244054D01*
X0102825Y0242855D02*
X0104025Y0242855D01*
X0104025Y0241657D02*
X0102825Y0241657D01*
X0102825Y0240458D02*
X0104025Y0240458D01*
X0104025Y0239260D02*
X0102825Y0239260D01*
X0102825Y0238061D02*
X0104025Y0238061D01*
X0104025Y0236863D02*
X0102825Y0236863D01*
X0102825Y0235664D02*
X0104025Y0235664D01*
X0103219Y0234466D02*
X0102825Y0234466D01*
X0111030Y0233267D02*
X0111738Y0233267D01*
X0111625Y0232069D02*
X0111225Y0232069D01*
X0111225Y0230870D02*
X0111625Y0230870D01*
X0111625Y0229672D02*
X0111225Y0229672D01*
X0110520Y0228473D02*
X0112248Y0228473D01*
X0110325Y0226076D02*
X0144947Y0226076D01*
X0144825Y0227275D02*
X0119604Y0227275D01*
X0120803Y0228473D02*
X0144988Y0228473D01*
X0145092Y0229672D02*
X0121425Y0229672D01*
X0121425Y0230870D02*
X0143893Y0230870D01*
X0142695Y0232069D02*
X0121425Y0232069D01*
X0121313Y0233267D02*
X0141496Y0233267D01*
X0140298Y0234466D02*
X0120115Y0234466D01*
X0118916Y0235664D02*
X0139099Y0235664D01*
X0142076Y0238061D02*
X0144825Y0238061D01*
X0144825Y0238081D02*
X0144825Y0236370D01*
X0145480Y0234790D01*
X0146690Y0233580D01*
X0148270Y0232925D01*
X0149981Y0232925D01*
X0151525Y0233565D01*
X0151525Y0230886D01*
X0149981Y0231525D01*
X0148612Y0231525D01*
X0130325Y0249812D01*
X0130325Y0298238D01*
X0132363Y0300276D01*
X0132936Y0299702D01*
X0134347Y0299118D01*
X0133791Y0298937D01*
X0133048Y0298558D01*
X0132373Y0298068D01*
X0131783Y0297478D01*
X0131292Y0296803D01*
X0130914Y0296060D01*
X0130656Y0295266D01*
X0130525Y0294443D01*
X0130525Y0294425D01*
X0135425Y0294425D01*
X0135425Y0293625D01*
X0130525Y0293625D01*
X0130525Y0293608D01*
X0130656Y0292784D01*
X0130914Y0291991D01*
X0131292Y0291248D01*
X0131783Y0290573D01*
X0132373Y0289983D01*
X0133048Y0289492D01*
X0133791Y0289114D01*
X0134347Y0288933D01*
X0132936Y0288349D01*
X0131502Y0286914D01*
X0130725Y0285040D01*
X0130725Y0283011D01*
X0131502Y0281136D01*
X0132936Y0279702D01*
X0134570Y0279025D01*
X0132936Y0278349D01*
X0131502Y0276914D01*
X0130725Y0275040D01*
X0130725Y0273011D01*
X0131502Y0271136D01*
X0132936Y0269702D01*
X0134570Y0269025D01*
X0132936Y0268349D01*
X0131502Y0266914D01*
X0130725Y0265040D01*
X0130725Y0263011D01*
X0131502Y0261136D01*
X0132936Y0259702D01*
X0134570Y0259025D01*
X0132936Y0258349D01*
X0131502Y0256914D01*
X0130725Y0255040D01*
X0130725Y0253011D01*
X0131502Y0251136D01*
X0132936Y0249702D01*
X0134811Y0248925D01*
X0136840Y0248925D01*
X0138714Y0249702D01*
X0139025Y0250013D01*
X0139025Y0245738D01*
X0140138Y0244625D01*
X0145370Y0239394D01*
X0144825Y0238081D01*
X0144825Y0236863D02*
X0143275Y0236863D01*
X0144473Y0235664D02*
X0145118Y0235664D01*
X0145672Y0234466D02*
X0145804Y0234466D01*
X0146870Y0233267D02*
X0147445Y0233267D01*
X0148069Y0232069D02*
X0151525Y0232069D01*
X0151525Y0233267D02*
X0150806Y0233267D01*
X0155325Y0230870D02*
X0156689Y0230870D01*
X0155491Y0229672D02*
X0155325Y0229672D01*
X0155325Y0224878D02*
X0155444Y0224878D01*
X0155325Y0223679D02*
X0156590Y0223679D01*
X0165325Y0229672D02*
X0165491Y0229672D01*
X0165325Y0230870D02*
X0166525Y0230870D01*
X0175325Y0230870D02*
X0176486Y0230870D01*
X0175341Y0229672D02*
X0175325Y0229672D01*
X0175325Y0232069D02*
X0229025Y0232069D01*
X0229025Y0233267D02*
X0210806Y0233267D01*
X0211561Y0233580D02*
X0212771Y0234790D01*
X0213425Y0236370D01*
X0213425Y0238081D01*
X0212771Y0239661D01*
X0211561Y0240871D01*
X0209981Y0241525D01*
X0208270Y0241525D01*
X0206690Y0240871D01*
X0205480Y0239661D01*
X0204825Y0238081D01*
X0204825Y0236370D01*
X0205480Y0234790D01*
X0206690Y0233580D01*
X0208270Y0232925D01*
X0209981Y0232925D01*
X0211561Y0233580D01*
X0212447Y0234466D02*
X0229025Y0234466D01*
X0229025Y0235664D02*
X0213133Y0235664D01*
X0213425Y0236863D02*
X0227901Y0236863D01*
X0226702Y0238061D02*
X0213425Y0238061D01*
X0212937Y0239260D02*
X0225504Y0239260D01*
X0224305Y0240458D02*
X0211973Y0240458D01*
X0211561Y0243580D02*
X0212771Y0244790D01*
X0213425Y0246370D01*
X0213425Y0248081D01*
X0212771Y0249661D01*
X0211561Y0250871D01*
X0209981Y0251525D01*
X0208270Y0251525D01*
X0206690Y0250871D01*
X0205480Y0249661D01*
X0204825Y0248081D01*
X0204825Y0246370D01*
X0205480Y0244790D01*
X0206690Y0243580D01*
X0208270Y0242925D01*
X0209981Y0242925D01*
X0211561Y0243580D01*
X0212035Y0244054D02*
X0220710Y0244054D01*
X0221908Y0242855D02*
X0175325Y0242855D01*
X0175325Y0241657D02*
X0223107Y0241657D01*
X0226084Y0244054D02*
X0231525Y0244054D01*
X0231525Y0245252D02*
X0224885Y0245252D01*
X0223687Y0246451D02*
X0231525Y0246451D01*
X0231525Y0247649D02*
X0222488Y0247649D01*
X0221290Y0248848D02*
X0231525Y0248848D01*
X0231525Y0250046D02*
X0220091Y0250046D01*
X0218893Y0251245D02*
X0231525Y0251245D01*
X0231525Y0252444D02*
X0217694Y0252444D01*
X0216496Y0253642D02*
X0231525Y0253642D01*
X0231525Y0254841D02*
X0215297Y0254841D01*
X0214099Y0256039D02*
X0231525Y0256039D01*
X0231525Y0257238D02*
X0213425Y0257238D01*
X0213278Y0258436D02*
X0231525Y0258436D01*
X0231525Y0259635D02*
X0212782Y0259635D01*
X0211599Y0260833D02*
X0231525Y0260833D01*
X0231525Y0271620D02*
X0175325Y0271620D01*
X0175325Y0272818D02*
X0231525Y0272818D01*
X0219747Y0294391D02*
X0212373Y0294391D01*
X0213102Y0295590D02*
X0218549Y0295590D01*
X0217350Y0296788D02*
X0213425Y0296788D01*
X0213425Y0297987D02*
X0216152Y0297987D01*
X0214953Y0299185D02*
X0212968Y0299185D01*
X0213755Y0300384D02*
X0212048Y0300384D01*
X0211961Y0303980D02*
X0212150Y0303980D01*
X0206290Y0303980D02*
X0201961Y0303980D01*
X0202932Y0305178D02*
X0205319Y0305178D01*
X0204825Y0306377D02*
X0203425Y0306377D01*
X0203425Y0307575D02*
X0204825Y0307575D01*
X0205112Y0308774D02*
X0203138Y0308774D01*
X0202460Y0309972D02*
X0205791Y0309972D01*
X0207413Y0311171D02*
X0200837Y0311171D01*
X0201531Y0313568D02*
X0206720Y0313568D01*
X0205504Y0314766D02*
X0202747Y0314766D01*
X0203257Y0315965D02*
X0204993Y0315965D01*
X0204825Y0317163D02*
X0203425Y0317163D01*
X0203309Y0318362D02*
X0204942Y0318362D01*
X0205438Y0319560D02*
X0202813Y0319560D01*
X0201673Y0320759D02*
X0206578Y0320759D01*
X0205915Y0324354D02*
X0202335Y0324354D01*
X0203087Y0325553D02*
X0205164Y0325553D01*
X0204825Y0326751D02*
X0203425Y0326751D01*
X0203425Y0327950D02*
X0204825Y0327950D01*
X0205268Y0329148D02*
X0202983Y0329148D01*
X0202085Y0330347D02*
X0206166Y0330347D01*
X0211923Y0333942D02*
X0212150Y0333942D01*
X0212150Y0341133D02*
X0210927Y0341133D01*
X0212150Y0342332D02*
X0165306Y0342332D01*
X0164107Y0343530D02*
X0196809Y0343530D01*
X0195541Y0344729D02*
X0162909Y0344729D01*
X0161710Y0345927D02*
X0195009Y0345927D01*
X0194825Y0347126D02*
X0160512Y0347126D01*
X0159313Y0348324D02*
X0194926Y0348324D01*
X0195423Y0349523D02*
X0152828Y0349523D01*
X0151710Y0350721D02*
X0196540Y0350721D01*
X0207446Y0363905D02*
X0165573Y0363905D01*
X0170725Y0356525D02*
X0173725Y0356525D01*
X0178425Y0351825D01*
X0185583Y0365104D02*
X0191480Y0365104D01*
X0210023Y0361508D02*
X0215001Y0361508D01*
X0214903Y0362707D02*
X0156160Y0362707D01*
X0152020Y0332744D02*
X0127394Y0332744D01*
X0132188Y0327950D02*
X0144825Y0327950D01*
X0144825Y0326751D02*
X0133387Y0326751D01*
X0134585Y0325553D02*
X0145164Y0325553D01*
X0145915Y0324354D02*
X0135784Y0324354D01*
X0136982Y0323156D02*
X0147714Y0323156D01*
X0151673Y0320759D02*
X0161525Y0320759D01*
X0161525Y0319560D02*
X0152813Y0319560D01*
X0153309Y0318362D02*
X0161525Y0318362D01*
X0161525Y0317163D02*
X0153425Y0317163D01*
X0153257Y0315965D02*
X0161525Y0315965D01*
X0161525Y0314766D02*
X0152747Y0314766D01*
X0151531Y0313568D02*
X0161525Y0313568D01*
X0161525Y0302781D02*
X0142825Y0302781D01*
X0142825Y0303980D02*
X0146290Y0303980D01*
X0145319Y0305178D02*
X0142825Y0305178D01*
X0142825Y0306377D02*
X0144825Y0306377D01*
X0144825Y0307575D02*
X0142825Y0307575D01*
X0142825Y0308774D02*
X0145112Y0308774D01*
X0145791Y0309972D02*
X0142825Y0309972D01*
X0134183Y0299185D02*
X0131272Y0299185D01*
X0130325Y0297987D02*
X0132292Y0297987D01*
X0131285Y0296788D02*
X0130325Y0296788D01*
X0130325Y0295590D02*
X0130761Y0295590D01*
X0130325Y0294391D02*
X0135425Y0294391D01*
X0130591Y0293193D02*
X0130325Y0293193D01*
X0130325Y0291994D02*
X0130913Y0291994D01*
X0130325Y0290796D02*
X0131621Y0290796D01*
X0132903Y0289597D02*
X0130325Y0289597D01*
X0130325Y0288399D02*
X0133057Y0288399D01*
X0131788Y0287200D02*
X0130325Y0287200D01*
X0130325Y0286002D02*
X0131124Y0286002D01*
X0130725Y0284803D02*
X0130325Y0284803D01*
X0130325Y0283605D02*
X0130725Y0283605D01*
X0130976Y0282406D02*
X0130325Y0282406D01*
X0130325Y0281208D02*
X0131472Y0281208D01*
X0130325Y0280009D02*
X0132629Y0280009D01*
X0134051Y0278811D02*
X0130325Y0278811D01*
X0130325Y0277612D02*
X0132200Y0277612D01*
X0131294Y0276414D02*
X0130325Y0276414D01*
X0130325Y0275215D02*
X0130798Y0275215D01*
X0130725Y0274017D02*
X0130325Y0274017D01*
X0130325Y0272818D02*
X0130805Y0272818D01*
X0130325Y0271620D02*
X0131302Y0271620D01*
X0132217Y0270421D02*
X0130325Y0270421D01*
X0130325Y0269223D02*
X0134093Y0269223D01*
X0132612Y0268024D02*
X0130325Y0268024D01*
X0130325Y0266826D02*
X0131465Y0266826D01*
X0130969Y0265627D02*
X0130325Y0265627D01*
X0130325Y0264429D02*
X0130725Y0264429D01*
X0130725Y0263230D02*
X0130325Y0263230D01*
X0130325Y0262032D02*
X0131131Y0262032D01*
X0131805Y0260833D02*
X0130325Y0260833D01*
X0130325Y0259635D02*
X0133099Y0259635D01*
X0133147Y0258436D02*
X0130325Y0258436D01*
X0130325Y0257238D02*
X0131825Y0257238D01*
X0131139Y0256039D02*
X0130325Y0256039D01*
X0130325Y0254841D02*
X0130725Y0254841D01*
X0130725Y0253642D02*
X0130325Y0253642D01*
X0130325Y0252444D02*
X0130960Y0252444D01*
X0131457Y0251245D02*
X0130325Y0251245D01*
X0130325Y0250046D02*
X0132592Y0250046D01*
X0131290Y0248848D02*
X0139025Y0248848D01*
X0139025Y0247649D02*
X0132488Y0247649D01*
X0133687Y0246451D02*
X0139025Y0246451D01*
X0139511Y0245252D02*
X0134885Y0245252D01*
X0136084Y0244054D02*
X0140710Y0244054D01*
X0141908Y0242855D02*
X0137282Y0242855D01*
X0138481Y0241657D02*
X0143107Y0241657D01*
X0144305Y0240458D02*
X0139679Y0240458D01*
X0140878Y0239260D02*
X0145314Y0239260D01*
X0148481Y0241657D02*
X0151525Y0241657D01*
X0151525Y0242855D02*
X0147282Y0242855D01*
X0146216Y0244054D02*
X0146084Y0244054D01*
X0145288Y0245252D02*
X0144885Y0245252D01*
X0144825Y0246451D02*
X0143687Y0246451D01*
X0142825Y0247649D02*
X0144825Y0247649D01*
X0145143Y0248848D02*
X0142825Y0248848D01*
X0142825Y0250046D02*
X0145865Y0250046D01*
X0147593Y0251245D02*
X0142825Y0251245D01*
X0142825Y0252444D02*
X0151525Y0252444D01*
X0151525Y0251245D02*
X0150658Y0251245D01*
X0146628Y0253642D02*
X0142825Y0253642D01*
X0142825Y0254841D02*
X0145459Y0254841D01*
X0144963Y0256039D02*
X0142825Y0256039D01*
X0142825Y0257238D02*
X0144825Y0257238D01*
X0144973Y0258436D02*
X0142825Y0258436D01*
X0142825Y0259635D02*
X0145469Y0259635D01*
X0146652Y0260833D02*
X0141805Y0260833D01*
X0155325Y0264429D02*
X0161525Y0264429D01*
X0161525Y0265627D02*
X0155325Y0265627D01*
X0155325Y0266826D02*
X0161525Y0266826D01*
X0161525Y0268024D02*
X0155325Y0268024D01*
X0155325Y0269223D02*
X0161525Y0269223D01*
X0161525Y0270421D02*
X0155325Y0270421D01*
X0155325Y0271620D02*
X0161525Y0271620D01*
X0161525Y0272818D02*
X0155325Y0272818D01*
X0155325Y0274017D02*
X0161525Y0274017D01*
X0161525Y0275215D02*
X0154923Y0275215D01*
X0153724Y0276414D02*
X0161525Y0276414D01*
X0161525Y0277612D02*
X0153425Y0277612D01*
X0153123Y0278811D02*
X0161525Y0278811D01*
X0161525Y0280009D02*
X0152423Y0280009D01*
X0146665Y0283605D02*
X0142825Y0283605D01*
X0142825Y0284803D02*
X0145474Y0284803D01*
X0144978Y0286002D02*
X0142825Y0286002D01*
X0142825Y0287200D02*
X0144825Y0287200D01*
X0144957Y0288399D02*
X0142825Y0288399D01*
X0142825Y0289597D02*
X0145454Y0289597D01*
X0150627Y0293193D02*
X0161525Y0293193D01*
X0161525Y0294391D02*
X0152373Y0294391D01*
X0153102Y0295590D02*
X0161525Y0295590D01*
X0161525Y0296788D02*
X0153425Y0296788D01*
X0153425Y0297987D02*
X0161525Y0297987D01*
X0161525Y0299185D02*
X0152968Y0299185D01*
X0175325Y0312369D02*
X0212150Y0312369D01*
X0212150Y0311171D02*
X0210837Y0311171D01*
X0211531Y0313568D02*
X0212150Y0313568D01*
X0227723Y0329915D02*
X0217825Y0339812D01*
X0217825Y0340475D01*
X0217992Y0340148D01*
X0218483Y0339473D01*
X0219073Y0338883D01*
X0219748Y0338392D01*
X0219928Y0338301D01*
X0221994Y0342732D01*
X0222719Y0342394D01*
X0220652Y0337961D01*
X0221284Y0337756D01*
X0222108Y0337625D01*
X0222943Y0337625D01*
X0223766Y0337756D01*
X0224560Y0338014D01*
X0225303Y0338392D01*
X0225978Y0338883D01*
X0226488Y0339393D01*
X0226488Y0337685D01*
X0227265Y0335810D01*
X0228700Y0334376D01*
X0230574Y0333599D01*
X0231525Y0333599D01*
X0231525Y0327926D01*
X0231308Y0328451D01*
X0230351Y0329408D01*
X0229102Y0329925D01*
X0227749Y0329925D01*
X0227723Y0329915D01*
X0227291Y0330347D02*
X0231525Y0330347D01*
X0231525Y0331545D02*
X0226093Y0331545D01*
X0224894Y0332744D02*
X0231525Y0332744D01*
X0229746Y0333942D02*
X0223695Y0333942D01*
X0222497Y0335141D02*
X0227934Y0335141D01*
X0227046Y0336339D02*
X0221298Y0336339D01*
X0220100Y0337538D02*
X0226549Y0337538D01*
X0226488Y0338736D02*
X0225777Y0338736D01*
X0222131Y0341133D02*
X0221248Y0341133D01*
X0221572Y0339935D02*
X0220690Y0339935D01*
X0221013Y0338736D02*
X0220131Y0338736D01*
X0219274Y0338736D02*
X0218901Y0338736D01*
X0218147Y0339935D02*
X0217825Y0339935D01*
X0221807Y0342332D02*
X0222690Y0342332D01*
X0212150Y0343530D02*
X0211441Y0343530D01*
X0211710Y0350721D02*
X0212150Y0350721D01*
X0213425Y0356714D02*
X0214052Y0356714D01*
X0213425Y0357913D02*
X0214708Y0357913D01*
X0214530Y0359111D02*
X0212999Y0359111D01*
X0212122Y0360310D02*
X0214530Y0360310D01*
X0230611Y0329148D02*
X0231525Y0329148D01*
X0231516Y0327950D02*
X0231525Y0327950D01*
X0206652Y0260833D02*
X0175325Y0260833D01*
X0175325Y0259635D02*
X0205469Y0259635D01*
X0204973Y0258436D02*
X0175325Y0258436D01*
X0175325Y0257238D02*
X0204825Y0257238D01*
X0204962Y0256039D02*
X0175325Y0256039D01*
X0175325Y0254841D02*
X0205459Y0254841D01*
X0206628Y0253642D02*
X0175325Y0253642D01*
X0175325Y0252444D02*
X0212320Y0252444D01*
X0213519Y0251245D02*
X0210658Y0251245D01*
X0212385Y0250046D02*
X0214717Y0250046D01*
X0215916Y0248848D02*
X0213108Y0248848D01*
X0213425Y0247649D02*
X0217114Y0247649D01*
X0218313Y0246451D02*
X0213425Y0246451D01*
X0212962Y0245252D02*
X0219511Y0245252D01*
X0227282Y0242855D02*
X0231525Y0242855D01*
X0231525Y0241657D02*
X0228481Y0241657D01*
X0229679Y0240458D02*
X0231525Y0240458D01*
X0231525Y0239260D02*
X0230878Y0239260D01*
X0229025Y0230870D02*
X0211562Y0230870D01*
X0211561Y0230871D02*
X0209981Y0231525D01*
X0208270Y0231525D01*
X0206690Y0230871D01*
X0205480Y0229661D01*
X0204825Y0228081D01*
X0204825Y0226370D01*
X0205480Y0224790D01*
X0206690Y0223580D01*
X0208270Y0222925D01*
X0209981Y0222925D01*
X0211561Y0223580D01*
X0212771Y0224790D01*
X0213425Y0226370D01*
X0213425Y0228081D01*
X0212771Y0229661D01*
X0211561Y0230871D01*
X0212760Y0229672D02*
X0229025Y0229672D01*
X0229025Y0228473D02*
X0213263Y0228473D01*
X0213425Y0227275D02*
X0229025Y0227275D01*
X0229025Y0226076D02*
X0213304Y0226076D01*
X0212807Y0224878D02*
X0229025Y0224878D01*
X0229025Y0223679D02*
X0211660Y0223679D01*
X0206590Y0223679D02*
X0201660Y0223679D01*
X0201561Y0223580D02*
X0202771Y0224790D01*
X0203425Y0226370D01*
X0203425Y0228081D01*
X0202771Y0229661D01*
X0201561Y0230871D01*
X0199981Y0231525D01*
X0198270Y0231525D01*
X0196690Y0230871D01*
X0195480Y0229661D01*
X0194825Y0228081D01*
X0194825Y0226370D01*
X0195480Y0224790D01*
X0196690Y0223580D01*
X0198270Y0222925D01*
X0199981Y0222925D01*
X0201561Y0223580D01*
X0202807Y0224878D02*
X0205444Y0224878D01*
X0204947Y0226076D02*
X0203304Y0226076D01*
X0203425Y0227275D02*
X0204825Y0227275D01*
X0204988Y0228473D02*
X0203263Y0228473D01*
X0202760Y0229672D02*
X0205491Y0229672D01*
X0206689Y0230870D02*
X0201562Y0230870D01*
X0205804Y0234466D02*
X0175325Y0234466D01*
X0175325Y0235664D02*
X0205118Y0235664D01*
X0204825Y0236863D02*
X0175325Y0236863D01*
X0175325Y0238061D02*
X0204825Y0238061D01*
X0205314Y0239260D02*
X0175325Y0239260D01*
X0175325Y0240458D02*
X0206277Y0240458D01*
X0206216Y0244054D02*
X0175325Y0244054D01*
X0175325Y0245252D02*
X0205288Y0245252D01*
X0204825Y0246451D02*
X0175325Y0246451D01*
X0175325Y0247649D02*
X0204825Y0247649D01*
X0205143Y0248848D02*
X0175325Y0248848D01*
X0175325Y0250046D02*
X0205865Y0250046D01*
X0207593Y0251245D02*
X0175325Y0251245D01*
X0175325Y0233267D02*
X0207445Y0233267D01*
X0196689Y0230870D02*
X0191562Y0230870D01*
X0191561Y0230871D02*
X0189981Y0231525D01*
X0188270Y0231525D01*
X0186690Y0230871D01*
X0185480Y0229661D01*
X0184825Y0228081D01*
X0184825Y0226370D01*
X0185480Y0224790D01*
X0186690Y0223580D01*
X0188270Y0222925D01*
X0189981Y0222925D01*
X0191561Y0223580D01*
X0192771Y0224790D01*
X0193425Y0226370D01*
X0193425Y0228081D01*
X0192771Y0229661D01*
X0191561Y0230871D01*
X0192760Y0229672D02*
X0195491Y0229672D01*
X0194988Y0228473D02*
X0193263Y0228473D01*
X0193425Y0227275D02*
X0194825Y0227275D01*
X0194947Y0226076D02*
X0193304Y0226076D01*
X0192807Y0224878D02*
X0195444Y0224878D01*
X0196590Y0223679D02*
X0191660Y0223679D01*
X0186590Y0223679D02*
X0181900Y0223679D01*
X0182980Y0224878D02*
X0185444Y0224878D01*
X0184947Y0226076D02*
X0183484Y0226076D01*
X0184825Y0227275D02*
X0179475Y0227275D01*
X0179475Y0228473D02*
X0178775Y0228473D01*
X0178775Y0229672D02*
X0179475Y0229672D01*
X0179475Y0230870D02*
X0178775Y0230870D01*
X0181764Y0230870D02*
X0186689Y0230870D01*
X0185491Y0229672D02*
X0182910Y0229672D01*
X0183452Y0228473D02*
X0184988Y0228473D01*
X0179475Y0226076D02*
X0178775Y0226076D01*
X0178775Y0224878D02*
X0179475Y0224878D01*
X0179475Y0223679D02*
X0178775Y0223679D01*
X0176350Y0223679D02*
X0175325Y0223679D01*
X0175325Y0222481D02*
X0229025Y0222481D01*
X0229025Y0221282D02*
X0175325Y0221282D01*
X0175325Y0220084D02*
X0229025Y0220084D01*
X0229025Y0218885D02*
X0175325Y0218885D01*
X0175325Y0217687D02*
X0229025Y0217687D01*
X0229025Y0216488D02*
X0175325Y0216488D01*
X0175325Y0215290D02*
X0229025Y0215290D01*
X0229025Y0214091D02*
X0175325Y0214091D01*
X0175325Y0212893D02*
X0229025Y0212893D01*
X0229025Y0211694D02*
X0175325Y0211694D01*
X0175325Y0210496D02*
X0229025Y0210496D01*
X0229025Y0209297D02*
X0175325Y0209297D01*
X0175325Y0208099D02*
X0229025Y0208099D01*
X0229025Y0206900D02*
X0175325Y0206900D01*
X0175325Y0205702D02*
X0229025Y0205702D01*
X0229025Y0204503D02*
X0175325Y0204503D01*
X0175325Y0203305D02*
X0229025Y0203305D01*
X0229025Y0202106D02*
X0175325Y0202106D01*
X0175325Y0200908D02*
X0229025Y0200908D01*
X0229025Y0199709D02*
X0175325Y0199709D01*
X0175325Y0198511D02*
X0229025Y0198511D01*
X0229025Y0197312D02*
X0175325Y0197312D01*
X0175325Y0196113D02*
X0229025Y0196113D01*
X0229025Y0194915D02*
X0175325Y0194915D01*
X0175325Y0193716D02*
X0229025Y0193716D01*
X0229025Y0192518D02*
X0175325Y0192518D01*
X0175325Y0191319D02*
X0229025Y0191319D01*
X0229025Y0190121D02*
X0175325Y0190121D01*
X0146590Y0223679D02*
X0110325Y0223679D01*
X0110325Y0224878D02*
X0145444Y0224878D01*
X0131512Y0148173D02*
X0118386Y0148173D01*
X0098811Y0140982D02*
X0098240Y0140982D01*
X0098240Y0139783D02*
X0098811Y0139783D01*
X0098811Y0138585D02*
X0098240Y0138585D01*
X0098240Y0137386D02*
X0098811Y0137386D01*
X0071067Y0106225D02*
X0027926Y0106225D01*
X0029124Y0105027D02*
X0069619Y0105027D01*
X0068881Y0103828D02*
X0030323Y0103828D01*
X0031521Y0102630D02*
X0068430Y0102630D01*
X0068430Y0101431D02*
X0032720Y0101431D01*
X0033918Y0100233D02*
X0068628Y0100233D01*
X0069125Y0099034D02*
X0035117Y0099034D01*
X0036315Y0097836D02*
X0070207Y0097836D01*
X0065146Y0132592D02*
X0053950Y0132592D01*
X0055303Y0133791D02*
X0064096Y0133791D01*
X0063600Y0134989D02*
X0056002Y0134989D01*
X0056425Y0136188D02*
X0063425Y0136188D01*
X0063425Y0137386D02*
X0056425Y0137386D01*
X0056200Y0138585D02*
X0063900Y0138585D01*
X0064671Y0139783D02*
X0055703Y0139783D01*
X0054581Y0140982D02*
X0066199Y0140982D01*
X0137455Y0085850D02*
X0161525Y0085850D01*
X0161524Y0084652D02*
X0138381Y0084652D01*
X0244025Y0073425D02*
X0244025Y0073225D01*
X0242825Y0184128D02*
X0245702Y0184128D01*
X0243594Y0185327D02*
X0242825Y0185327D01*
X0248149Y0184128D02*
X0255702Y0184128D01*
X0253594Y0185327D02*
X0250257Y0185327D01*
X0251235Y0186525D02*
X0252616Y0186525D01*
X0252119Y0187724D02*
X0251731Y0187724D01*
X0251825Y0188922D02*
X0252025Y0188922D01*
X0252117Y0190121D02*
X0251734Y0190121D01*
X0251237Y0191319D02*
X0252613Y0191319D01*
X0253588Y0192518D02*
X0250262Y0192518D01*
X0248163Y0193716D02*
X0255688Y0193716D01*
X0258163Y0193716D02*
X0260429Y0193716D01*
X0261628Y0194915D02*
X0248938Y0194915D01*
X0249325Y0196113D02*
X0262826Y0196113D01*
X0261825Y0188922D02*
X0266541Y0188922D01*
X0266541Y0188541D02*
X0261825Y0188541D01*
X0261825Y0188524D01*
X0261951Y0187731D01*
X0262199Y0186968D01*
X0262563Y0186252D01*
X0263035Y0185603D01*
X0263603Y0185035D01*
X0264252Y0184563D01*
X0264968Y0184199D01*
X0265731Y0183951D01*
X0266524Y0183825D01*
X0266541Y0183825D01*
X0266541Y0188541D01*
X0266541Y0187724D02*
X0267310Y0187724D01*
X0267310Y0186525D02*
X0266541Y0186525D01*
X0266541Y0185327D02*
X0267310Y0185327D01*
X0267310Y0184128D02*
X0266541Y0184128D01*
X0265185Y0184128D02*
X0258149Y0184128D01*
X0260257Y0185327D02*
X0263311Y0185327D01*
X0262424Y0186525D02*
X0261235Y0186525D01*
X0261731Y0187724D02*
X0261953Y0187724D01*
X0118424Y0336339D02*
X0091947Y0336339D01*
X0091597Y0337538D02*
X0102572Y0337538D01*
X0101446Y0338736D02*
X0092371Y0338736D01*
X0094245Y0339935D02*
X0100834Y0339935D01*
X0100553Y0341133D02*
X0096118Y0341133D01*
X0098397Y0342332D02*
X0100555Y0342332D01*
X0100710Y0343530D02*
X0100839Y0343530D01*
X0102031Y0332744D02*
X0092025Y0332744D01*
D21*
X0168425Y0331525D03*
X0228425Y0326525D03*
X0229675Y0287150D03*
X0245925Y0201525D03*
X0245925Y0196525D03*
X0153425Y0191525D03*
X0240925Y0081525D03*
M02*
