G75*
%MOIN*%
%OFA0B0*%
%FSLAX25Y25*%
%IPPOS*%
%LPD*%
%AMOC8*
5,1,8,0,0,1.08239X$1,22.5*
%
%ADD10C,0.01000*%
%ADD11C,0.01600*%
%ADD12C,0.00000*%
%ADD13C,0.00600*%
%ADD14C,0.00800*%
%ADD15C,0.00400*%
%ADD16C,0.00500*%
%ADD17C,0.00200*%
%ADD18C,0.00060*%
%ADD19C,0.00100*%
D10*
X0001500Y0185925D02*
X0001556Y0190451D01*
X0001722Y0194974D01*
X0002000Y0199492D01*
X0002388Y0204002D01*
X0002887Y0208501D01*
X0003496Y0212986D01*
X0004215Y0217455D01*
X0005044Y0221905D01*
X0005981Y0226333D01*
X0007027Y0230737D01*
X0008181Y0235114D01*
X0009441Y0239461D01*
X0010808Y0243776D01*
X0012281Y0248056D01*
X0013858Y0252299D01*
X0015539Y0256501D01*
X0017322Y0260662D01*
X0019207Y0264777D01*
X0021192Y0268845D01*
X0023277Y0272862D01*
X0025459Y0276828D01*
X0027738Y0280738D01*
X0030113Y0284592D01*
X0032581Y0288386D01*
X0035142Y0292118D01*
X0037793Y0295787D01*
X0040534Y0299389D01*
X0043363Y0302923D01*
X0046277Y0306386D01*
X0049275Y0309777D01*
X0052356Y0313094D01*
X0055517Y0316333D01*
X0058756Y0319494D01*
X0062073Y0322575D01*
X0065464Y0325573D01*
X0068927Y0328487D01*
X0072461Y0331316D01*
X0076063Y0334057D01*
X0079732Y0336708D01*
X0083464Y0339269D01*
X0087258Y0341737D01*
X0091112Y0344112D01*
X0095022Y0346391D01*
X0098988Y0348573D01*
X0103005Y0350658D01*
X0107073Y0352643D01*
X0111188Y0354528D01*
X0115349Y0356311D01*
X0119551Y0357992D01*
X0123794Y0359569D01*
X0128074Y0361042D01*
X0132389Y0362409D01*
X0136736Y0363669D01*
X0141113Y0364823D01*
X0145517Y0365869D01*
X0149945Y0366806D01*
X0154395Y0367635D01*
X0158864Y0368354D01*
X0163349Y0368963D01*
X0167848Y0369462D01*
X0172358Y0369850D01*
X0176876Y0370128D01*
X0181399Y0370294D01*
X0185925Y0370350D01*
X0190451Y0370294D01*
X0194974Y0370128D01*
X0199492Y0369850D01*
X0204002Y0369462D01*
X0208501Y0368963D01*
X0212986Y0368354D01*
X0217455Y0367635D01*
X0221905Y0366806D01*
X0226333Y0365869D01*
X0230737Y0364823D01*
X0235114Y0363669D01*
X0239461Y0362409D01*
X0243776Y0361042D01*
X0248056Y0359569D01*
X0252299Y0357992D01*
X0256501Y0356311D01*
X0260662Y0354528D01*
X0264777Y0352643D01*
X0268845Y0350658D01*
X0272862Y0348573D01*
X0276828Y0346391D01*
X0280738Y0344112D01*
X0284592Y0341737D01*
X0288386Y0339269D01*
X0292118Y0336708D01*
X0295787Y0334057D01*
X0299389Y0331316D01*
X0302923Y0328487D01*
X0306386Y0325573D01*
X0309777Y0322575D01*
X0313094Y0319494D01*
X0316333Y0316333D01*
X0319494Y0313094D01*
X0322575Y0309777D01*
X0325573Y0306386D01*
X0328487Y0302923D01*
X0331316Y0299389D01*
X0334057Y0295787D01*
X0336708Y0292118D01*
X0339269Y0288386D01*
X0341737Y0284592D01*
X0344112Y0280738D01*
X0346391Y0276828D01*
X0348573Y0272862D01*
X0350658Y0268845D01*
X0352643Y0264777D01*
X0354528Y0260662D01*
X0356311Y0256501D01*
X0357992Y0252299D01*
X0359569Y0248056D01*
X0361042Y0243776D01*
X0362409Y0239461D01*
X0363669Y0235114D01*
X0364823Y0230737D01*
X0365869Y0226333D01*
X0366806Y0221905D01*
X0367635Y0217455D01*
X0368354Y0212986D01*
X0368963Y0208501D01*
X0369462Y0204002D01*
X0369850Y0199492D01*
X0370128Y0194974D01*
X0370294Y0190451D01*
X0370350Y0185925D01*
X0370294Y0181399D01*
X0370128Y0176876D01*
X0369850Y0172358D01*
X0369462Y0167848D01*
X0368963Y0163349D01*
X0368354Y0158864D01*
X0367635Y0154395D01*
X0366806Y0149945D01*
X0365869Y0145517D01*
X0364823Y0141113D01*
X0363669Y0136736D01*
X0362409Y0132389D01*
X0361042Y0128074D01*
X0359569Y0123794D01*
X0357992Y0119551D01*
X0356311Y0115349D01*
X0354528Y0111188D01*
X0352643Y0107073D01*
X0350658Y0103005D01*
X0348573Y0098988D01*
X0346391Y0095022D01*
X0344112Y0091112D01*
X0341737Y0087258D01*
X0339269Y0083464D01*
X0336708Y0079732D01*
X0334057Y0076063D01*
X0331316Y0072461D01*
X0328487Y0068927D01*
X0325573Y0065464D01*
X0322575Y0062073D01*
X0319494Y0058756D01*
X0316333Y0055517D01*
X0313094Y0052356D01*
X0309777Y0049275D01*
X0306386Y0046277D01*
X0302923Y0043363D01*
X0299389Y0040534D01*
X0295787Y0037793D01*
X0292118Y0035142D01*
X0288386Y0032581D01*
X0284592Y0030113D01*
X0280738Y0027738D01*
X0276828Y0025459D01*
X0272862Y0023277D01*
X0268845Y0021192D01*
X0264777Y0019207D01*
X0260662Y0017322D01*
X0256501Y0015539D01*
X0252299Y0013858D01*
X0248056Y0012281D01*
X0243776Y0010808D01*
X0239461Y0009441D01*
X0235114Y0008181D01*
X0230737Y0007027D01*
X0226333Y0005981D01*
X0221905Y0005044D01*
X0217455Y0004215D01*
X0212986Y0003496D01*
X0208501Y0002887D01*
X0204002Y0002388D01*
X0199492Y0002000D01*
X0194974Y0001722D01*
X0190451Y0001556D01*
X0185925Y0001500D01*
X0181399Y0001556D01*
X0176876Y0001722D01*
X0172358Y0002000D01*
X0167848Y0002388D01*
X0163349Y0002887D01*
X0158864Y0003496D01*
X0154395Y0004215D01*
X0149945Y0005044D01*
X0145517Y0005981D01*
X0141113Y0007027D01*
X0136736Y0008181D01*
X0132389Y0009441D01*
X0128074Y0010808D01*
X0123794Y0012281D01*
X0119551Y0013858D01*
X0115349Y0015539D01*
X0111188Y0017322D01*
X0107073Y0019207D01*
X0103005Y0021192D01*
X0098988Y0023277D01*
X0095022Y0025459D01*
X0091112Y0027738D01*
X0087258Y0030113D01*
X0083464Y0032581D01*
X0079732Y0035142D01*
X0076063Y0037793D01*
X0072461Y0040534D01*
X0068927Y0043363D01*
X0065464Y0046277D01*
X0062073Y0049275D01*
X0058756Y0052356D01*
X0055517Y0055517D01*
X0052356Y0058756D01*
X0049275Y0062073D01*
X0046277Y0065464D01*
X0043363Y0068927D01*
X0040534Y0072461D01*
X0037793Y0076063D01*
X0035142Y0079732D01*
X0032581Y0083464D01*
X0030113Y0087258D01*
X0027738Y0091112D01*
X0025459Y0095022D01*
X0023277Y0098988D01*
X0021192Y0103005D01*
X0019207Y0107073D01*
X0017322Y0111188D01*
X0015539Y0115349D01*
X0013858Y0119551D01*
X0012281Y0123794D01*
X0010808Y0128074D01*
X0009441Y0132389D01*
X0008181Y0136736D01*
X0007027Y0141113D01*
X0005981Y0145517D01*
X0005044Y0149945D01*
X0004215Y0154395D01*
X0003496Y0158864D01*
X0002887Y0163349D01*
X0002388Y0167848D01*
X0002000Y0172358D01*
X0001722Y0176876D01*
X0001556Y0181399D01*
X0001500Y0185925D01*
D11*
X0347199Y0096927D02*
X0347241Y0097018D01*
D12*
X0331526Y0114825D02*
X0331528Y0114983D01*
X0331534Y0115141D01*
X0331544Y0115299D01*
X0331558Y0115457D01*
X0331576Y0115614D01*
X0331597Y0115771D01*
X0331623Y0115927D01*
X0331653Y0116083D01*
X0331686Y0116238D01*
X0331724Y0116391D01*
X0331765Y0116544D01*
X0331810Y0116696D01*
X0331859Y0116847D01*
X0331912Y0116996D01*
X0331968Y0117144D01*
X0332028Y0117290D01*
X0332092Y0117435D01*
X0332160Y0117578D01*
X0332231Y0117720D01*
X0332305Y0117860D01*
X0332383Y0117997D01*
X0332465Y0118133D01*
X0332549Y0118267D01*
X0332638Y0118398D01*
X0332729Y0118527D01*
X0332824Y0118654D01*
X0332921Y0118779D01*
X0333022Y0118901D01*
X0333126Y0119020D01*
X0333233Y0119137D01*
X0333343Y0119251D01*
X0333456Y0119362D01*
X0333571Y0119471D01*
X0333689Y0119576D01*
X0333810Y0119678D01*
X0333933Y0119778D01*
X0334059Y0119874D01*
X0334187Y0119967D01*
X0334317Y0120057D01*
X0334450Y0120143D01*
X0334585Y0120227D01*
X0334721Y0120306D01*
X0334860Y0120383D01*
X0335001Y0120455D01*
X0335143Y0120525D01*
X0335287Y0120590D01*
X0335433Y0120652D01*
X0335580Y0120710D01*
X0335729Y0120765D01*
X0335879Y0120816D01*
X0336030Y0120863D01*
X0336182Y0120906D01*
X0336335Y0120945D01*
X0336490Y0120981D01*
X0336645Y0121012D01*
X0336801Y0121040D01*
X0336957Y0121064D01*
X0337114Y0121084D01*
X0337272Y0121100D01*
X0337429Y0121112D01*
X0337588Y0121120D01*
X0337746Y0121124D01*
X0337904Y0121124D01*
X0338062Y0121120D01*
X0338221Y0121112D01*
X0338378Y0121100D01*
X0338536Y0121084D01*
X0338693Y0121064D01*
X0338849Y0121040D01*
X0339005Y0121012D01*
X0339160Y0120981D01*
X0339315Y0120945D01*
X0339468Y0120906D01*
X0339620Y0120863D01*
X0339771Y0120816D01*
X0339921Y0120765D01*
X0340070Y0120710D01*
X0340217Y0120652D01*
X0340363Y0120590D01*
X0340507Y0120525D01*
X0340649Y0120455D01*
X0340790Y0120383D01*
X0340929Y0120306D01*
X0341065Y0120227D01*
X0341200Y0120143D01*
X0341333Y0120057D01*
X0341463Y0119967D01*
X0341591Y0119874D01*
X0341717Y0119778D01*
X0341840Y0119678D01*
X0341961Y0119576D01*
X0342079Y0119471D01*
X0342194Y0119362D01*
X0342307Y0119251D01*
X0342417Y0119137D01*
X0342524Y0119020D01*
X0342628Y0118901D01*
X0342729Y0118779D01*
X0342826Y0118654D01*
X0342921Y0118527D01*
X0343012Y0118398D01*
X0343101Y0118267D01*
X0343185Y0118133D01*
X0343267Y0117997D01*
X0343345Y0117860D01*
X0343419Y0117720D01*
X0343490Y0117578D01*
X0343558Y0117435D01*
X0343622Y0117290D01*
X0343682Y0117144D01*
X0343738Y0116996D01*
X0343791Y0116847D01*
X0343840Y0116696D01*
X0343885Y0116544D01*
X0343926Y0116391D01*
X0343964Y0116238D01*
X0343997Y0116083D01*
X0344027Y0115927D01*
X0344053Y0115771D01*
X0344074Y0115614D01*
X0344092Y0115457D01*
X0344106Y0115299D01*
X0344116Y0115141D01*
X0344122Y0114983D01*
X0344124Y0114825D01*
X0344122Y0114667D01*
X0344116Y0114509D01*
X0344106Y0114351D01*
X0344092Y0114193D01*
X0344074Y0114036D01*
X0344053Y0113879D01*
X0344027Y0113723D01*
X0343997Y0113567D01*
X0343964Y0113412D01*
X0343926Y0113259D01*
X0343885Y0113106D01*
X0343840Y0112954D01*
X0343791Y0112803D01*
X0343738Y0112654D01*
X0343682Y0112506D01*
X0343622Y0112360D01*
X0343558Y0112215D01*
X0343490Y0112072D01*
X0343419Y0111930D01*
X0343345Y0111790D01*
X0343267Y0111653D01*
X0343185Y0111517D01*
X0343101Y0111383D01*
X0343012Y0111252D01*
X0342921Y0111123D01*
X0342826Y0110996D01*
X0342729Y0110871D01*
X0342628Y0110749D01*
X0342524Y0110630D01*
X0342417Y0110513D01*
X0342307Y0110399D01*
X0342194Y0110288D01*
X0342079Y0110179D01*
X0341961Y0110074D01*
X0341840Y0109972D01*
X0341717Y0109872D01*
X0341591Y0109776D01*
X0341463Y0109683D01*
X0341333Y0109593D01*
X0341200Y0109507D01*
X0341065Y0109423D01*
X0340929Y0109344D01*
X0340790Y0109267D01*
X0340649Y0109195D01*
X0340507Y0109125D01*
X0340363Y0109060D01*
X0340217Y0108998D01*
X0340070Y0108940D01*
X0339921Y0108885D01*
X0339771Y0108834D01*
X0339620Y0108787D01*
X0339468Y0108744D01*
X0339315Y0108705D01*
X0339160Y0108669D01*
X0339005Y0108638D01*
X0338849Y0108610D01*
X0338693Y0108586D01*
X0338536Y0108566D01*
X0338378Y0108550D01*
X0338221Y0108538D01*
X0338062Y0108530D01*
X0337904Y0108526D01*
X0337746Y0108526D01*
X0337588Y0108530D01*
X0337429Y0108538D01*
X0337272Y0108550D01*
X0337114Y0108566D01*
X0336957Y0108586D01*
X0336801Y0108610D01*
X0336645Y0108638D01*
X0336490Y0108669D01*
X0336335Y0108705D01*
X0336182Y0108744D01*
X0336030Y0108787D01*
X0335879Y0108834D01*
X0335729Y0108885D01*
X0335580Y0108940D01*
X0335433Y0108998D01*
X0335287Y0109060D01*
X0335143Y0109125D01*
X0335001Y0109195D01*
X0334860Y0109267D01*
X0334721Y0109344D01*
X0334585Y0109423D01*
X0334450Y0109507D01*
X0334317Y0109593D01*
X0334187Y0109683D01*
X0334059Y0109776D01*
X0333933Y0109872D01*
X0333810Y0109972D01*
X0333689Y0110074D01*
X0333571Y0110179D01*
X0333456Y0110288D01*
X0333343Y0110399D01*
X0333233Y0110513D01*
X0333126Y0110630D01*
X0333022Y0110749D01*
X0332921Y0110871D01*
X0332824Y0110996D01*
X0332729Y0111123D01*
X0332638Y0111252D01*
X0332549Y0111383D01*
X0332465Y0111517D01*
X0332383Y0111653D01*
X0332305Y0111790D01*
X0332231Y0111930D01*
X0332160Y0112072D01*
X0332092Y0112215D01*
X0332028Y0112360D01*
X0331968Y0112506D01*
X0331912Y0112654D01*
X0331859Y0112803D01*
X0331810Y0112954D01*
X0331765Y0113106D01*
X0331724Y0113259D01*
X0331686Y0113412D01*
X0331653Y0113567D01*
X0331623Y0113723D01*
X0331597Y0113879D01*
X0331576Y0114036D01*
X0331558Y0114193D01*
X0331544Y0114351D01*
X0331534Y0114509D01*
X0331528Y0114667D01*
X0331526Y0114825D01*
X0108526Y0034325D02*
X0108528Y0034483D01*
X0108534Y0034641D01*
X0108544Y0034799D01*
X0108558Y0034957D01*
X0108576Y0035114D01*
X0108597Y0035271D01*
X0108623Y0035427D01*
X0108653Y0035583D01*
X0108686Y0035738D01*
X0108724Y0035891D01*
X0108765Y0036044D01*
X0108810Y0036196D01*
X0108859Y0036347D01*
X0108912Y0036496D01*
X0108968Y0036644D01*
X0109028Y0036790D01*
X0109092Y0036935D01*
X0109160Y0037078D01*
X0109231Y0037220D01*
X0109305Y0037360D01*
X0109383Y0037497D01*
X0109465Y0037633D01*
X0109549Y0037767D01*
X0109638Y0037898D01*
X0109729Y0038027D01*
X0109824Y0038154D01*
X0109921Y0038279D01*
X0110022Y0038401D01*
X0110126Y0038520D01*
X0110233Y0038637D01*
X0110343Y0038751D01*
X0110456Y0038862D01*
X0110571Y0038971D01*
X0110689Y0039076D01*
X0110810Y0039178D01*
X0110933Y0039278D01*
X0111059Y0039374D01*
X0111187Y0039467D01*
X0111317Y0039557D01*
X0111450Y0039643D01*
X0111585Y0039727D01*
X0111721Y0039806D01*
X0111860Y0039883D01*
X0112001Y0039955D01*
X0112143Y0040025D01*
X0112287Y0040090D01*
X0112433Y0040152D01*
X0112580Y0040210D01*
X0112729Y0040265D01*
X0112879Y0040316D01*
X0113030Y0040363D01*
X0113182Y0040406D01*
X0113335Y0040445D01*
X0113490Y0040481D01*
X0113645Y0040512D01*
X0113801Y0040540D01*
X0113957Y0040564D01*
X0114114Y0040584D01*
X0114272Y0040600D01*
X0114429Y0040612D01*
X0114588Y0040620D01*
X0114746Y0040624D01*
X0114904Y0040624D01*
X0115062Y0040620D01*
X0115221Y0040612D01*
X0115378Y0040600D01*
X0115536Y0040584D01*
X0115693Y0040564D01*
X0115849Y0040540D01*
X0116005Y0040512D01*
X0116160Y0040481D01*
X0116315Y0040445D01*
X0116468Y0040406D01*
X0116620Y0040363D01*
X0116771Y0040316D01*
X0116921Y0040265D01*
X0117070Y0040210D01*
X0117217Y0040152D01*
X0117363Y0040090D01*
X0117507Y0040025D01*
X0117649Y0039955D01*
X0117790Y0039883D01*
X0117929Y0039806D01*
X0118065Y0039727D01*
X0118200Y0039643D01*
X0118333Y0039557D01*
X0118463Y0039467D01*
X0118591Y0039374D01*
X0118717Y0039278D01*
X0118840Y0039178D01*
X0118961Y0039076D01*
X0119079Y0038971D01*
X0119194Y0038862D01*
X0119307Y0038751D01*
X0119417Y0038637D01*
X0119524Y0038520D01*
X0119628Y0038401D01*
X0119729Y0038279D01*
X0119826Y0038154D01*
X0119921Y0038027D01*
X0120012Y0037898D01*
X0120101Y0037767D01*
X0120185Y0037633D01*
X0120267Y0037497D01*
X0120345Y0037360D01*
X0120419Y0037220D01*
X0120490Y0037078D01*
X0120558Y0036935D01*
X0120622Y0036790D01*
X0120682Y0036644D01*
X0120738Y0036496D01*
X0120791Y0036347D01*
X0120840Y0036196D01*
X0120885Y0036044D01*
X0120926Y0035891D01*
X0120964Y0035738D01*
X0120997Y0035583D01*
X0121027Y0035427D01*
X0121053Y0035271D01*
X0121074Y0035114D01*
X0121092Y0034957D01*
X0121106Y0034799D01*
X0121116Y0034641D01*
X0121122Y0034483D01*
X0121124Y0034325D01*
X0121122Y0034167D01*
X0121116Y0034009D01*
X0121106Y0033851D01*
X0121092Y0033693D01*
X0121074Y0033536D01*
X0121053Y0033379D01*
X0121027Y0033223D01*
X0120997Y0033067D01*
X0120964Y0032912D01*
X0120926Y0032759D01*
X0120885Y0032606D01*
X0120840Y0032454D01*
X0120791Y0032303D01*
X0120738Y0032154D01*
X0120682Y0032006D01*
X0120622Y0031860D01*
X0120558Y0031715D01*
X0120490Y0031572D01*
X0120419Y0031430D01*
X0120345Y0031290D01*
X0120267Y0031153D01*
X0120185Y0031017D01*
X0120101Y0030883D01*
X0120012Y0030752D01*
X0119921Y0030623D01*
X0119826Y0030496D01*
X0119729Y0030371D01*
X0119628Y0030249D01*
X0119524Y0030130D01*
X0119417Y0030013D01*
X0119307Y0029899D01*
X0119194Y0029788D01*
X0119079Y0029679D01*
X0118961Y0029574D01*
X0118840Y0029472D01*
X0118717Y0029372D01*
X0118591Y0029276D01*
X0118463Y0029183D01*
X0118333Y0029093D01*
X0118200Y0029007D01*
X0118065Y0028923D01*
X0117929Y0028844D01*
X0117790Y0028767D01*
X0117649Y0028695D01*
X0117507Y0028625D01*
X0117363Y0028560D01*
X0117217Y0028498D01*
X0117070Y0028440D01*
X0116921Y0028385D01*
X0116771Y0028334D01*
X0116620Y0028287D01*
X0116468Y0028244D01*
X0116315Y0028205D01*
X0116160Y0028169D01*
X0116005Y0028138D01*
X0115849Y0028110D01*
X0115693Y0028086D01*
X0115536Y0028066D01*
X0115378Y0028050D01*
X0115221Y0028038D01*
X0115062Y0028030D01*
X0114904Y0028026D01*
X0114746Y0028026D01*
X0114588Y0028030D01*
X0114429Y0028038D01*
X0114272Y0028050D01*
X0114114Y0028066D01*
X0113957Y0028086D01*
X0113801Y0028110D01*
X0113645Y0028138D01*
X0113490Y0028169D01*
X0113335Y0028205D01*
X0113182Y0028244D01*
X0113030Y0028287D01*
X0112879Y0028334D01*
X0112729Y0028385D01*
X0112580Y0028440D01*
X0112433Y0028498D01*
X0112287Y0028560D01*
X0112143Y0028625D01*
X0112001Y0028695D01*
X0111860Y0028767D01*
X0111721Y0028844D01*
X0111585Y0028923D01*
X0111450Y0029007D01*
X0111317Y0029093D01*
X0111187Y0029183D01*
X0111059Y0029276D01*
X0110933Y0029372D01*
X0110810Y0029472D01*
X0110689Y0029574D01*
X0110571Y0029679D01*
X0110456Y0029788D01*
X0110343Y0029899D01*
X0110233Y0030013D01*
X0110126Y0030130D01*
X0110022Y0030249D01*
X0109921Y0030371D01*
X0109824Y0030496D01*
X0109729Y0030623D01*
X0109638Y0030752D01*
X0109549Y0030883D01*
X0109465Y0031017D01*
X0109383Y0031153D01*
X0109305Y0031290D01*
X0109231Y0031430D01*
X0109160Y0031572D01*
X0109092Y0031715D01*
X0109028Y0031860D01*
X0108968Y0032006D01*
X0108912Y0032154D01*
X0108859Y0032303D01*
X0108810Y0032454D01*
X0108765Y0032606D01*
X0108724Y0032759D01*
X0108686Y0032912D01*
X0108653Y0033067D01*
X0108623Y0033223D01*
X0108597Y0033379D01*
X0108576Y0033536D01*
X0108558Y0033693D01*
X0108544Y0033851D01*
X0108534Y0034009D01*
X0108528Y0034167D01*
X0108526Y0034325D01*
X0027126Y0257025D02*
X0027128Y0257183D01*
X0027134Y0257341D01*
X0027144Y0257499D01*
X0027158Y0257657D01*
X0027176Y0257814D01*
X0027197Y0257971D01*
X0027223Y0258127D01*
X0027253Y0258283D01*
X0027286Y0258438D01*
X0027324Y0258591D01*
X0027365Y0258744D01*
X0027410Y0258896D01*
X0027459Y0259047D01*
X0027512Y0259196D01*
X0027568Y0259344D01*
X0027628Y0259490D01*
X0027692Y0259635D01*
X0027760Y0259778D01*
X0027831Y0259920D01*
X0027905Y0260060D01*
X0027983Y0260197D01*
X0028065Y0260333D01*
X0028149Y0260467D01*
X0028238Y0260598D01*
X0028329Y0260727D01*
X0028424Y0260854D01*
X0028521Y0260979D01*
X0028622Y0261101D01*
X0028726Y0261220D01*
X0028833Y0261337D01*
X0028943Y0261451D01*
X0029056Y0261562D01*
X0029171Y0261671D01*
X0029289Y0261776D01*
X0029410Y0261878D01*
X0029533Y0261978D01*
X0029659Y0262074D01*
X0029787Y0262167D01*
X0029917Y0262257D01*
X0030050Y0262343D01*
X0030185Y0262427D01*
X0030321Y0262506D01*
X0030460Y0262583D01*
X0030601Y0262655D01*
X0030743Y0262725D01*
X0030887Y0262790D01*
X0031033Y0262852D01*
X0031180Y0262910D01*
X0031329Y0262965D01*
X0031479Y0263016D01*
X0031630Y0263063D01*
X0031782Y0263106D01*
X0031935Y0263145D01*
X0032090Y0263181D01*
X0032245Y0263212D01*
X0032401Y0263240D01*
X0032557Y0263264D01*
X0032714Y0263284D01*
X0032872Y0263300D01*
X0033029Y0263312D01*
X0033188Y0263320D01*
X0033346Y0263324D01*
X0033504Y0263324D01*
X0033662Y0263320D01*
X0033821Y0263312D01*
X0033978Y0263300D01*
X0034136Y0263284D01*
X0034293Y0263264D01*
X0034449Y0263240D01*
X0034605Y0263212D01*
X0034760Y0263181D01*
X0034915Y0263145D01*
X0035068Y0263106D01*
X0035220Y0263063D01*
X0035371Y0263016D01*
X0035521Y0262965D01*
X0035670Y0262910D01*
X0035817Y0262852D01*
X0035963Y0262790D01*
X0036107Y0262725D01*
X0036249Y0262655D01*
X0036390Y0262583D01*
X0036529Y0262506D01*
X0036665Y0262427D01*
X0036800Y0262343D01*
X0036933Y0262257D01*
X0037063Y0262167D01*
X0037191Y0262074D01*
X0037317Y0261978D01*
X0037440Y0261878D01*
X0037561Y0261776D01*
X0037679Y0261671D01*
X0037794Y0261562D01*
X0037907Y0261451D01*
X0038017Y0261337D01*
X0038124Y0261220D01*
X0038228Y0261101D01*
X0038329Y0260979D01*
X0038426Y0260854D01*
X0038521Y0260727D01*
X0038612Y0260598D01*
X0038701Y0260467D01*
X0038785Y0260333D01*
X0038867Y0260197D01*
X0038945Y0260060D01*
X0039019Y0259920D01*
X0039090Y0259778D01*
X0039158Y0259635D01*
X0039222Y0259490D01*
X0039282Y0259344D01*
X0039338Y0259196D01*
X0039391Y0259047D01*
X0039440Y0258896D01*
X0039485Y0258744D01*
X0039526Y0258591D01*
X0039564Y0258438D01*
X0039597Y0258283D01*
X0039627Y0258127D01*
X0039653Y0257971D01*
X0039674Y0257814D01*
X0039692Y0257657D01*
X0039706Y0257499D01*
X0039716Y0257341D01*
X0039722Y0257183D01*
X0039724Y0257025D01*
X0039722Y0256867D01*
X0039716Y0256709D01*
X0039706Y0256551D01*
X0039692Y0256393D01*
X0039674Y0256236D01*
X0039653Y0256079D01*
X0039627Y0255923D01*
X0039597Y0255767D01*
X0039564Y0255612D01*
X0039526Y0255459D01*
X0039485Y0255306D01*
X0039440Y0255154D01*
X0039391Y0255003D01*
X0039338Y0254854D01*
X0039282Y0254706D01*
X0039222Y0254560D01*
X0039158Y0254415D01*
X0039090Y0254272D01*
X0039019Y0254130D01*
X0038945Y0253990D01*
X0038867Y0253853D01*
X0038785Y0253717D01*
X0038701Y0253583D01*
X0038612Y0253452D01*
X0038521Y0253323D01*
X0038426Y0253196D01*
X0038329Y0253071D01*
X0038228Y0252949D01*
X0038124Y0252830D01*
X0038017Y0252713D01*
X0037907Y0252599D01*
X0037794Y0252488D01*
X0037679Y0252379D01*
X0037561Y0252274D01*
X0037440Y0252172D01*
X0037317Y0252072D01*
X0037191Y0251976D01*
X0037063Y0251883D01*
X0036933Y0251793D01*
X0036800Y0251707D01*
X0036665Y0251623D01*
X0036529Y0251544D01*
X0036390Y0251467D01*
X0036249Y0251395D01*
X0036107Y0251325D01*
X0035963Y0251260D01*
X0035817Y0251198D01*
X0035670Y0251140D01*
X0035521Y0251085D01*
X0035371Y0251034D01*
X0035220Y0250987D01*
X0035068Y0250944D01*
X0034915Y0250905D01*
X0034760Y0250869D01*
X0034605Y0250838D01*
X0034449Y0250810D01*
X0034293Y0250786D01*
X0034136Y0250766D01*
X0033978Y0250750D01*
X0033821Y0250738D01*
X0033662Y0250730D01*
X0033504Y0250726D01*
X0033346Y0250726D01*
X0033188Y0250730D01*
X0033029Y0250738D01*
X0032872Y0250750D01*
X0032714Y0250766D01*
X0032557Y0250786D01*
X0032401Y0250810D01*
X0032245Y0250838D01*
X0032090Y0250869D01*
X0031935Y0250905D01*
X0031782Y0250944D01*
X0031630Y0250987D01*
X0031479Y0251034D01*
X0031329Y0251085D01*
X0031180Y0251140D01*
X0031033Y0251198D01*
X0030887Y0251260D01*
X0030743Y0251325D01*
X0030601Y0251395D01*
X0030460Y0251467D01*
X0030321Y0251544D01*
X0030185Y0251623D01*
X0030050Y0251707D01*
X0029917Y0251793D01*
X0029787Y0251883D01*
X0029659Y0251976D01*
X0029533Y0252072D01*
X0029410Y0252172D01*
X0029289Y0252274D01*
X0029171Y0252379D01*
X0029056Y0252488D01*
X0028943Y0252599D01*
X0028833Y0252713D01*
X0028726Y0252830D01*
X0028622Y0252949D01*
X0028521Y0253071D01*
X0028424Y0253196D01*
X0028329Y0253323D01*
X0028238Y0253452D01*
X0028149Y0253583D01*
X0028065Y0253717D01*
X0027983Y0253853D01*
X0027905Y0253990D01*
X0027831Y0254130D01*
X0027760Y0254272D01*
X0027692Y0254415D01*
X0027628Y0254560D01*
X0027568Y0254706D01*
X0027512Y0254854D01*
X0027459Y0255003D01*
X0027410Y0255154D01*
X0027365Y0255306D01*
X0027324Y0255459D01*
X0027286Y0255612D01*
X0027253Y0255767D01*
X0027223Y0255923D01*
X0027197Y0256079D01*
X0027176Y0256236D01*
X0027158Y0256393D01*
X0027144Y0256551D01*
X0027134Y0256709D01*
X0027128Y0256867D01*
X0027126Y0257025D01*
X0250126Y0337525D02*
X0250128Y0337683D01*
X0250134Y0337841D01*
X0250144Y0337999D01*
X0250158Y0338157D01*
X0250176Y0338314D01*
X0250197Y0338471D01*
X0250223Y0338627D01*
X0250253Y0338783D01*
X0250286Y0338938D01*
X0250324Y0339091D01*
X0250365Y0339244D01*
X0250410Y0339396D01*
X0250459Y0339547D01*
X0250512Y0339696D01*
X0250568Y0339844D01*
X0250628Y0339990D01*
X0250692Y0340135D01*
X0250760Y0340278D01*
X0250831Y0340420D01*
X0250905Y0340560D01*
X0250983Y0340697D01*
X0251065Y0340833D01*
X0251149Y0340967D01*
X0251238Y0341098D01*
X0251329Y0341227D01*
X0251424Y0341354D01*
X0251521Y0341479D01*
X0251622Y0341601D01*
X0251726Y0341720D01*
X0251833Y0341837D01*
X0251943Y0341951D01*
X0252056Y0342062D01*
X0252171Y0342171D01*
X0252289Y0342276D01*
X0252410Y0342378D01*
X0252533Y0342478D01*
X0252659Y0342574D01*
X0252787Y0342667D01*
X0252917Y0342757D01*
X0253050Y0342843D01*
X0253185Y0342927D01*
X0253321Y0343006D01*
X0253460Y0343083D01*
X0253601Y0343155D01*
X0253743Y0343225D01*
X0253887Y0343290D01*
X0254033Y0343352D01*
X0254180Y0343410D01*
X0254329Y0343465D01*
X0254479Y0343516D01*
X0254630Y0343563D01*
X0254782Y0343606D01*
X0254935Y0343645D01*
X0255090Y0343681D01*
X0255245Y0343712D01*
X0255401Y0343740D01*
X0255557Y0343764D01*
X0255714Y0343784D01*
X0255872Y0343800D01*
X0256029Y0343812D01*
X0256188Y0343820D01*
X0256346Y0343824D01*
X0256504Y0343824D01*
X0256662Y0343820D01*
X0256821Y0343812D01*
X0256978Y0343800D01*
X0257136Y0343784D01*
X0257293Y0343764D01*
X0257449Y0343740D01*
X0257605Y0343712D01*
X0257760Y0343681D01*
X0257915Y0343645D01*
X0258068Y0343606D01*
X0258220Y0343563D01*
X0258371Y0343516D01*
X0258521Y0343465D01*
X0258670Y0343410D01*
X0258817Y0343352D01*
X0258963Y0343290D01*
X0259107Y0343225D01*
X0259249Y0343155D01*
X0259390Y0343083D01*
X0259529Y0343006D01*
X0259665Y0342927D01*
X0259800Y0342843D01*
X0259933Y0342757D01*
X0260063Y0342667D01*
X0260191Y0342574D01*
X0260317Y0342478D01*
X0260440Y0342378D01*
X0260561Y0342276D01*
X0260679Y0342171D01*
X0260794Y0342062D01*
X0260907Y0341951D01*
X0261017Y0341837D01*
X0261124Y0341720D01*
X0261228Y0341601D01*
X0261329Y0341479D01*
X0261426Y0341354D01*
X0261521Y0341227D01*
X0261612Y0341098D01*
X0261701Y0340967D01*
X0261785Y0340833D01*
X0261867Y0340697D01*
X0261945Y0340560D01*
X0262019Y0340420D01*
X0262090Y0340278D01*
X0262158Y0340135D01*
X0262222Y0339990D01*
X0262282Y0339844D01*
X0262338Y0339696D01*
X0262391Y0339547D01*
X0262440Y0339396D01*
X0262485Y0339244D01*
X0262526Y0339091D01*
X0262564Y0338938D01*
X0262597Y0338783D01*
X0262627Y0338627D01*
X0262653Y0338471D01*
X0262674Y0338314D01*
X0262692Y0338157D01*
X0262706Y0337999D01*
X0262716Y0337841D01*
X0262722Y0337683D01*
X0262724Y0337525D01*
X0262722Y0337367D01*
X0262716Y0337209D01*
X0262706Y0337051D01*
X0262692Y0336893D01*
X0262674Y0336736D01*
X0262653Y0336579D01*
X0262627Y0336423D01*
X0262597Y0336267D01*
X0262564Y0336112D01*
X0262526Y0335959D01*
X0262485Y0335806D01*
X0262440Y0335654D01*
X0262391Y0335503D01*
X0262338Y0335354D01*
X0262282Y0335206D01*
X0262222Y0335060D01*
X0262158Y0334915D01*
X0262090Y0334772D01*
X0262019Y0334630D01*
X0261945Y0334490D01*
X0261867Y0334353D01*
X0261785Y0334217D01*
X0261701Y0334083D01*
X0261612Y0333952D01*
X0261521Y0333823D01*
X0261426Y0333696D01*
X0261329Y0333571D01*
X0261228Y0333449D01*
X0261124Y0333330D01*
X0261017Y0333213D01*
X0260907Y0333099D01*
X0260794Y0332988D01*
X0260679Y0332879D01*
X0260561Y0332774D01*
X0260440Y0332672D01*
X0260317Y0332572D01*
X0260191Y0332476D01*
X0260063Y0332383D01*
X0259933Y0332293D01*
X0259800Y0332207D01*
X0259665Y0332123D01*
X0259529Y0332044D01*
X0259390Y0331967D01*
X0259249Y0331895D01*
X0259107Y0331825D01*
X0258963Y0331760D01*
X0258817Y0331698D01*
X0258670Y0331640D01*
X0258521Y0331585D01*
X0258371Y0331534D01*
X0258220Y0331487D01*
X0258068Y0331444D01*
X0257915Y0331405D01*
X0257760Y0331369D01*
X0257605Y0331338D01*
X0257449Y0331310D01*
X0257293Y0331286D01*
X0257136Y0331266D01*
X0256978Y0331250D01*
X0256821Y0331238D01*
X0256662Y0331230D01*
X0256504Y0331226D01*
X0256346Y0331226D01*
X0256188Y0331230D01*
X0256029Y0331238D01*
X0255872Y0331250D01*
X0255714Y0331266D01*
X0255557Y0331286D01*
X0255401Y0331310D01*
X0255245Y0331338D01*
X0255090Y0331369D01*
X0254935Y0331405D01*
X0254782Y0331444D01*
X0254630Y0331487D01*
X0254479Y0331534D01*
X0254329Y0331585D01*
X0254180Y0331640D01*
X0254033Y0331698D01*
X0253887Y0331760D01*
X0253743Y0331825D01*
X0253601Y0331895D01*
X0253460Y0331967D01*
X0253321Y0332044D01*
X0253185Y0332123D01*
X0253050Y0332207D01*
X0252917Y0332293D01*
X0252787Y0332383D01*
X0252659Y0332476D01*
X0252533Y0332572D01*
X0252410Y0332672D01*
X0252289Y0332774D01*
X0252171Y0332879D01*
X0252056Y0332988D01*
X0251943Y0333099D01*
X0251833Y0333213D01*
X0251726Y0333330D01*
X0251622Y0333449D01*
X0251521Y0333571D01*
X0251424Y0333696D01*
X0251329Y0333823D01*
X0251238Y0333952D01*
X0251149Y0334083D01*
X0251065Y0334217D01*
X0250983Y0334353D01*
X0250905Y0334490D01*
X0250831Y0334630D01*
X0250760Y0334772D01*
X0250692Y0334915D01*
X0250628Y0335060D01*
X0250568Y0335206D01*
X0250512Y0335354D01*
X0250459Y0335503D01*
X0250410Y0335654D01*
X0250365Y0335806D01*
X0250324Y0335959D01*
X0250286Y0336112D01*
X0250253Y0336267D01*
X0250223Y0336423D01*
X0250197Y0336579D01*
X0250176Y0336736D01*
X0250158Y0336893D01*
X0250144Y0337051D01*
X0250134Y0337209D01*
X0250128Y0337367D01*
X0250126Y0337525D01*
D13*
X0121978Y0230125D02*
X0120399Y0230125D01*
X0119773Y0224625D02*
X0103277Y0224625D01*
X0102651Y0230125D02*
X0101073Y0230125D01*
X0110399Y0230125D02*
X0112651Y0230125D01*
X0148850Y0120019D02*
X0211129Y0120019D01*
X0211129Y0099132D02*
X0148850Y0099132D01*
X0242359Y0196425D02*
X0243227Y0196425D01*
X0243660Y0196859D01*
X0243660Y0197727D01*
X0242793Y0197727D01*
X0243660Y0198594D02*
X0243227Y0199028D01*
X0242359Y0199028D01*
X0241925Y0198594D01*
X0241925Y0196859D01*
X0242359Y0196425D01*
X0244872Y0196425D02*
X0244872Y0199028D01*
X0246173Y0199028D01*
X0246607Y0198594D01*
X0246607Y0197727D01*
X0246173Y0197293D01*
X0244872Y0197293D01*
X0247818Y0196859D02*
X0248252Y0196425D01*
X0249120Y0196425D01*
X0249553Y0196859D01*
X0249553Y0197293D01*
X0249120Y0197727D01*
X0248252Y0197727D01*
X0247818Y0198160D01*
X0247818Y0198594D01*
X0248252Y0199028D01*
X0249120Y0199028D01*
X0249553Y0198594D01*
D14*
X0225763Y0178555D02*
X0130488Y0178555D01*
X0130488Y0074599D01*
X0155389Y0049697D01*
X0200862Y0049697D01*
X0225763Y0074599D01*
X0225763Y0178555D01*
X0214125Y0222225D02*
X0144125Y0222225D01*
X0144125Y0362225D01*
X0174125Y0362225D01*
X0174125Y0357225D01*
X0184125Y0357225D01*
X0184125Y0362225D01*
X0214125Y0362225D01*
X0214125Y0222225D01*
X0247025Y0239125D02*
X0249525Y0236625D01*
X0254525Y0236625D01*
X0257025Y0239125D01*
X0259525Y0236625D01*
X0264525Y0236625D01*
X0267025Y0239125D01*
X0269525Y0236625D01*
X0274525Y0236625D01*
X0277025Y0239125D01*
X0279525Y0236625D01*
X0284525Y0236625D01*
X0287025Y0239125D01*
X0287025Y0244125D01*
X0284525Y0246625D01*
X0279525Y0246625D01*
X0277025Y0244125D01*
X0274525Y0246625D01*
X0269525Y0246625D01*
X0267025Y0244125D01*
X0264525Y0246625D01*
X0259525Y0246625D01*
X0257025Y0244125D01*
X0254525Y0246625D01*
X0249525Y0246625D01*
X0247025Y0244125D01*
X0247025Y0239125D01*
X0277025Y0259125D02*
X0277025Y0264125D01*
X0279525Y0266625D01*
X0277025Y0269125D01*
X0277025Y0274125D01*
X0279525Y0276625D01*
X0277025Y0279125D01*
X0277025Y0284125D01*
X0279525Y0286625D01*
X0284525Y0286625D01*
X0287025Y0284125D01*
X0287025Y0279125D01*
X0284525Y0276625D01*
X0287025Y0274125D01*
X0287025Y0269125D01*
X0284525Y0266625D01*
X0287025Y0264125D01*
X0287025Y0259125D01*
X0284525Y0256625D01*
X0279525Y0256625D01*
X0277025Y0259125D01*
X0309525Y0257925D02*
X0312025Y0255425D01*
X0317025Y0255425D01*
X0319525Y0257925D01*
X0319525Y0262925D01*
X0317025Y0265425D01*
X0319525Y0267925D01*
X0319525Y0272925D01*
X0317025Y0275425D01*
X0319525Y0277925D01*
X0319525Y0282925D01*
X0317025Y0285425D01*
X0312025Y0285425D01*
X0309525Y0282925D01*
X0309525Y0277925D01*
X0312025Y0275425D01*
X0309525Y0272925D01*
X0309525Y0267925D01*
X0312025Y0265425D01*
X0309525Y0262925D01*
X0309525Y0257925D01*
X0284525Y0296625D02*
X0279525Y0296625D01*
X0277025Y0299125D01*
X0274525Y0296625D01*
X0269525Y0296625D01*
X0267025Y0299125D01*
X0264525Y0296625D01*
X0259525Y0296625D01*
X0257025Y0299125D01*
X0254525Y0296625D01*
X0249525Y0296625D01*
X0247025Y0299125D01*
X0247025Y0304125D01*
X0249525Y0306625D01*
X0254525Y0306625D01*
X0257025Y0304125D01*
X0259525Y0306625D01*
X0264525Y0306625D01*
X0267025Y0304125D01*
X0269525Y0306625D01*
X0274525Y0306625D01*
X0277025Y0304125D01*
X0279525Y0306625D01*
X0284525Y0306625D01*
X0287025Y0304125D01*
X0287025Y0299125D01*
X0284525Y0296625D01*
X0298625Y0311225D02*
X0303625Y0311225D01*
X0306125Y0313725D01*
X0306125Y0318725D01*
X0298625Y0311225D02*
X0296125Y0313725D01*
X0296125Y0318725D01*
X0280025Y0327125D02*
X0280025Y0332125D01*
X0270025Y0332125D02*
X0270025Y0327125D01*
X0246240Y0334626D02*
X0244127Y0330094D01*
X0240804Y0328885D01*
X0236273Y0330998D01*
X0235063Y0334320D01*
X0231741Y0333111D01*
X0227210Y0335224D01*
X0226000Y0338547D01*
X0222678Y0337337D01*
X0218147Y0339450D01*
X0216937Y0342773D01*
X0219050Y0347304D01*
X0222373Y0348513D01*
X0226904Y0346400D01*
X0228113Y0343078D01*
X0231436Y0344287D01*
X0235967Y0342174D01*
X0237177Y0338852D01*
X0240499Y0340061D01*
X0245030Y0337948D01*
X0246240Y0334626D01*
X0242096Y0347986D02*
X0223302Y0354827D01*
X0224328Y0357646D01*
X0223389Y0357988D01*
X0224328Y0357646D02*
X0225355Y0360465D01*
X0244148Y0353624D01*
X0243122Y0350805D01*
X0244062Y0350463D01*
X0243122Y0350805D02*
X0242096Y0347986D01*
X0140825Y0316525D02*
X0140825Y0311525D01*
X0138325Y0309025D01*
X0140825Y0306525D01*
X0140825Y0301525D01*
X0138325Y0299025D01*
X0140825Y0296525D01*
X0140825Y0291525D01*
X0138325Y0289025D01*
X0140825Y0286525D01*
X0140825Y0281525D01*
X0138325Y0279025D01*
X0140825Y0276525D01*
X0140825Y0271525D01*
X0138325Y0269025D01*
X0140825Y0266525D01*
X0140825Y0261525D01*
X0138325Y0259025D01*
X0140825Y0256525D01*
X0140825Y0251525D01*
X0138325Y0249025D01*
X0133325Y0249025D01*
X0130825Y0251525D01*
X0130825Y0256525D01*
X0133325Y0259025D01*
X0130825Y0261525D01*
X0130825Y0266525D01*
X0133325Y0269025D01*
X0130825Y0271525D01*
X0130825Y0276525D01*
X0133325Y0279025D01*
X0130825Y0281525D01*
X0130825Y0286525D01*
X0133325Y0289025D01*
X0130825Y0291525D01*
X0130825Y0296525D01*
X0133325Y0299025D01*
X0130825Y0301525D01*
X0130825Y0306525D01*
X0133325Y0309025D01*
X0130825Y0311525D01*
X0130825Y0316525D01*
X0133325Y0319025D01*
X0138325Y0319025D01*
X0140825Y0316525D01*
X0128325Y0336725D02*
X0123325Y0336725D01*
X0120825Y0339225D01*
X0118325Y0336725D01*
X0113325Y0336725D01*
X0110825Y0339225D01*
X0108325Y0336725D01*
X0103325Y0336725D01*
X0100825Y0339225D01*
X0100825Y0344225D01*
X0103325Y0346725D01*
X0108325Y0346725D01*
X0110825Y0344225D01*
X0113325Y0346725D01*
X0118325Y0346725D01*
X0120825Y0344225D01*
X0123325Y0346725D01*
X0128325Y0346725D01*
X0130825Y0344225D01*
X0130825Y0339225D01*
X0128325Y0336725D01*
X0110125Y0327425D02*
X0110125Y0322425D01*
X0100125Y0322425D02*
X0100125Y0327425D01*
X0091725Y0329225D02*
X0091725Y0334225D01*
X0081725Y0334225D02*
X0081725Y0329225D01*
X0112525Y0217025D02*
X0110025Y0214525D01*
X0110025Y0209525D01*
X0112525Y0207025D01*
X0110025Y0204525D01*
X0110025Y0199525D01*
X0112525Y0197025D01*
X0110025Y0194525D01*
X0110025Y0189525D01*
X0112525Y0187025D01*
X0110025Y0184525D01*
X0110025Y0179525D01*
X0112525Y0177025D01*
X0110025Y0174525D01*
X0110025Y0169525D01*
X0112525Y0167025D01*
X0110025Y0164525D01*
X0110025Y0159525D01*
X0112525Y0157025D01*
X0110025Y0154525D01*
X0110025Y0149525D01*
X0112525Y0147025D01*
X0117525Y0147025D01*
X0120025Y0149525D01*
X0120025Y0154525D01*
X0117525Y0157025D01*
X0120025Y0159525D01*
X0120025Y0164525D01*
X0117525Y0167025D01*
X0120025Y0169525D01*
X0120025Y0174525D01*
X0117525Y0177025D01*
X0120025Y0179525D01*
X0120025Y0184525D01*
X0117525Y0187025D01*
X0120025Y0189525D01*
X0120025Y0194525D01*
X0117525Y0197025D01*
X0120025Y0199525D01*
X0120025Y0204525D01*
X0117525Y0207025D01*
X0120025Y0209525D01*
X0120025Y0214525D01*
X0117525Y0217025D01*
X0112525Y0217025D01*
X0093525Y0139425D02*
X0073525Y0139425D01*
X0073525Y0136425D01*
X0072525Y0136425D01*
X0073525Y0136425D02*
X0073525Y0133425D01*
X0093525Y0133425D01*
X0093525Y0136425D01*
X0094525Y0136425D01*
X0093525Y0136425D02*
X0093525Y0139425D01*
X0047325Y0137025D02*
X0046325Y0137025D01*
X0046325Y0134025D01*
X0026325Y0134025D01*
X0026325Y0137025D01*
X0025325Y0137025D01*
X0026325Y0137025D02*
X0026325Y0140025D01*
X0046325Y0140025D01*
X0046325Y0137025D01*
X0221925Y0059725D02*
X0221925Y0056725D01*
X0220925Y0056725D01*
X0221925Y0056725D02*
X0221925Y0053725D01*
X0241925Y0053725D01*
X0241925Y0056725D01*
X0242925Y0056725D01*
X0241925Y0056725D02*
X0241925Y0059725D01*
X0221925Y0059725D01*
X0240225Y0042225D02*
X0243225Y0042225D01*
X0243225Y0043225D01*
X0243225Y0042225D02*
X0246225Y0042225D01*
X0246225Y0022225D01*
X0243225Y0022225D01*
X0243225Y0021225D01*
X0243225Y0022225D02*
X0240225Y0022225D01*
X0240225Y0042225D01*
D15*
X0221791Y0050625D02*
X0218721Y0050625D01*
X0220256Y0050625D02*
X0220256Y0055229D01*
X0218721Y0053695D01*
X0217187Y0053695D02*
X0216419Y0052927D01*
X0214118Y0052927D01*
X0216419Y0052927D02*
X0217187Y0052160D01*
X0217187Y0051393D01*
X0216419Y0050625D01*
X0214118Y0050625D01*
X0214118Y0055229D01*
X0216419Y0055229D01*
X0217187Y0054462D01*
X0217187Y0053695D01*
X0212583Y0055229D02*
X0209514Y0050625D01*
X0212583Y0050625D02*
X0209514Y0055229D01*
X0207292Y0101873D02*
X0201261Y0101873D01*
X0201261Y0102202D01*
X0201425Y0102531D01*
X0201261Y0102805D01*
X0201261Y0103079D01*
X0199890Y0106533D01*
X0195998Y0102695D01*
X0195779Y0102421D01*
X0195614Y0102092D01*
X0195559Y0101873D01*
X0192106Y0101873D01*
X0192818Y0102367D01*
X0193366Y0102750D01*
X0194134Y0103408D01*
X0199287Y0108232D01*
X0196217Y0115798D01*
X0195340Y0117004D01*
X0195176Y0117004D01*
X0194847Y0116675D01*
X0194408Y0115360D01*
X0193750Y0112893D01*
X0192983Y0109768D01*
X0191557Y0103956D01*
X0191338Y0102969D01*
X0191338Y0101873D01*
X0178893Y0101873D01*
X0178235Y0102038D01*
X0177797Y0102312D01*
X0177468Y0102915D01*
X0177249Y0103463D01*
X0177249Y0104395D01*
X0177413Y0104834D01*
X0178071Y0107575D01*
X0178290Y0108123D01*
X0179112Y0108945D01*
X0179770Y0109219D01*
X0180647Y0109439D01*
X0181744Y0109439D01*
X0180154Y0109658D01*
X0179003Y0110206D01*
X0178948Y0110316D01*
X0178948Y0111796D01*
X0179551Y0114208D01*
X0179935Y0114811D01*
X0180045Y0115469D01*
X0180867Y0116401D01*
X0181525Y0116730D01*
X0182566Y0117059D01*
X0201590Y0117059D01*
X0201261Y0116456D01*
X0201261Y0116072D01*
X0203015Y0111741D01*
X0207566Y0116182D01*
X0208059Y0117059D01*
X0211294Y0117059D01*
X0209923Y0116072D01*
X0203564Y0110097D01*
X0206688Y0102476D01*
X0207292Y0101873D01*
X0188706Y0110371D02*
X0189968Y0115195D01*
X0184650Y0115195D01*
X0184431Y0115086D01*
X0184047Y0114647D01*
X0183827Y0114318D01*
X0183005Y0111083D01*
X0183005Y0110919D01*
X0183279Y0110535D01*
X0183718Y0110371D01*
X0188706Y0110371D01*
X0188323Y0108397D02*
X0187171Y0103737D01*
X0182128Y0103737D01*
X0181634Y0104011D01*
X0181580Y0104888D01*
X0182347Y0107794D01*
X0182512Y0108178D01*
X0182840Y0108397D01*
X0188323Y0108397D01*
X0176645Y0109329D02*
X0176481Y0108726D01*
X0175823Y0107410D01*
X0175330Y0106697D01*
X0174453Y0106149D01*
X0173795Y0105930D01*
X0173466Y0105875D01*
X0164858Y0105875D01*
X0164256Y0106095D01*
X0163543Y0106643D01*
X0163323Y0106862D01*
X0163323Y0108781D01*
X0164256Y0112564D01*
X0173247Y0112564D01*
X0173685Y0114428D01*
X0173795Y0114756D01*
X0173740Y0115140D01*
X0173521Y0115305D01*
X0165626Y0115305D01*
X0164914Y0115195D01*
X0165681Y0117059D01*
X0176536Y0117059D01*
X0176975Y0116949D01*
X0177413Y0116621D01*
X0177687Y0116237D01*
X0177852Y0115634D01*
X0177852Y0115086D01*
X0177742Y0114208D01*
X0176645Y0109329D01*
X0172753Y0110809D02*
X0172698Y0110864D01*
X0167984Y0110864D01*
X0167381Y0108507D01*
X0167381Y0107794D01*
X0167545Y0107630D01*
X0167764Y0107575D01*
X0171656Y0107575D01*
X0171986Y0107739D01*
X0172205Y0108123D01*
X0172369Y0108562D01*
X0172753Y0110809D01*
X0163159Y0114208D02*
X0162063Y0109329D01*
X0161898Y0108726D01*
X0161240Y0107410D01*
X0160747Y0106697D01*
X0159870Y0106149D01*
X0159212Y0105930D01*
X0158883Y0105875D01*
X0150276Y0105875D01*
X0149673Y0106095D01*
X0148960Y0106643D01*
X0148741Y0106862D01*
X0148741Y0108781D01*
X0149673Y0112564D01*
X0158664Y0112564D01*
X0159103Y0114428D01*
X0159212Y0114756D01*
X0159157Y0115140D01*
X0158938Y0115305D01*
X0151044Y0115305D01*
X0150331Y0115195D01*
X0151098Y0117059D01*
X0161953Y0117059D01*
X0162392Y0116949D01*
X0162831Y0116621D01*
X0163105Y0116237D01*
X0163269Y0115634D01*
X0163269Y0115086D01*
X0163159Y0114208D01*
X0158170Y0110809D02*
X0158116Y0110864D01*
X0153401Y0110864D01*
X0152798Y0108507D01*
X0152798Y0107794D01*
X0152962Y0107630D01*
X0153182Y0107575D01*
X0157074Y0107575D01*
X0157403Y0107739D01*
X0157622Y0108123D01*
X0157787Y0108562D01*
X0158170Y0110809D01*
X0154552Y0122980D02*
X0155703Y0123583D01*
X0157786Y0125337D01*
X0159267Y0126818D01*
X0159431Y0127256D01*
X0159705Y0128572D01*
X0159760Y0129668D01*
X0159212Y0130710D01*
X0158280Y0131313D01*
X0157019Y0131313D01*
X0155429Y0131094D01*
X0154388Y0130436D01*
X0152962Y0130107D01*
X0152195Y0129340D01*
X0151153Y0128517D01*
X0150550Y0127421D01*
X0150440Y0126708D01*
X0150714Y0125666D01*
X0151646Y0124899D01*
X0152743Y0124131D01*
X0153510Y0123912D01*
X0153565Y0123638D01*
X0153949Y0123199D01*
X0154497Y0122980D01*
X0155100Y0124844D02*
X0155703Y0125282D01*
X0157129Y0126379D01*
X0158060Y0127640D01*
X0158554Y0129230D01*
X0158609Y0129778D01*
X0158116Y0130052D01*
X0156800Y0129997D01*
X0155484Y0129504D01*
X0154113Y0129065D01*
X0152962Y0128407D01*
X0151866Y0127640D01*
X0151866Y0126324D01*
X0153072Y0125063D01*
X0153730Y0124844D01*
X0155100Y0124844D01*
X0160966Y0124405D02*
X0161240Y0124899D01*
X0161240Y0125337D01*
X0161679Y0125776D01*
X0162282Y0126160D01*
X0163488Y0126708D01*
X0164639Y0127421D01*
X0165188Y0127749D01*
X0164365Y0128572D01*
X0163323Y0129284D01*
X0162556Y0129888D01*
X0162118Y0130436D01*
X0161898Y0130984D01*
X0161844Y0131313D01*
X0162008Y0131642D01*
X0162172Y0131697D01*
X0162611Y0131368D01*
X0164749Y0129668D01*
X0166777Y0128298D01*
X0167161Y0128298D01*
X0167271Y0128682D01*
X0167655Y0129778D01*
X0167984Y0130765D01*
X0168203Y0131313D01*
X0168203Y0131642D01*
X0168806Y0131094D01*
X0168861Y0130271D01*
X0168751Y0129723D01*
X0168258Y0127969D01*
X0167984Y0126982D01*
X0167381Y0125612D01*
X0166997Y0124899D01*
X0166832Y0124515D01*
X0167216Y0124460D01*
X0167655Y0124789D01*
X0167655Y0124734D01*
X0167819Y0124515D01*
X0168093Y0124351D01*
X0168203Y0124131D01*
X0168148Y0123802D01*
X0167819Y0123473D01*
X0167216Y0123254D01*
X0166503Y0122980D01*
X0163323Y0122980D01*
X0162666Y0123144D01*
X0161898Y0123419D01*
X0161460Y0123693D01*
X0161076Y0124131D01*
X0160966Y0124405D01*
X0162501Y0124734D02*
X0162885Y0124844D01*
X0163433Y0125392D01*
X0164201Y0125831D01*
X0164914Y0126214D01*
X0165736Y0126379D01*
X0166394Y0126708D01*
X0165352Y0124844D01*
X0165297Y0124296D01*
X0163323Y0124296D01*
X0162666Y0124405D01*
X0162501Y0124734D01*
X0170177Y0124679D02*
X0170177Y0124899D01*
X0170396Y0125392D01*
X0170725Y0125776D01*
X0171382Y0126214D01*
X0173795Y0127421D01*
X0175056Y0127914D01*
X0176042Y0128133D01*
X0176371Y0128188D01*
X0176755Y0128188D01*
X0176919Y0128682D01*
X0177249Y0129668D01*
X0177523Y0130545D01*
X0177742Y0130929D01*
X0177852Y0131149D01*
X0178071Y0131258D01*
X0178345Y0131094D01*
X0178564Y0130765D01*
X0178564Y0130381D01*
X0178455Y0129942D01*
X0177961Y0128901D01*
X0177632Y0128133D01*
X0177523Y0127421D01*
X0177358Y0126763D01*
X0177084Y0125886D01*
X0176810Y0125228D01*
X0176536Y0124789D01*
X0176975Y0124789D01*
X0176975Y0123857D01*
X0176481Y0123857D01*
X0176042Y0123528D01*
X0175604Y0123090D01*
X0175110Y0123364D01*
X0173137Y0123364D01*
X0171547Y0123528D01*
X0170451Y0124186D01*
X0170177Y0124679D01*
X0171437Y0124844D02*
X0171492Y0125008D01*
X0171766Y0125228D01*
X0172644Y0125666D01*
X0173356Y0126160D01*
X0174343Y0126434D01*
X0175056Y0126708D01*
X0175494Y0126763D01*
X0176152Y0126763D01*
X0175165Y0124734D01*
X0175056Y0124460D01*
X0172260Y0124460D01*
X0171602Y0124734D01*
X0171437Y0124844D01*
X0295760Y0303625D02*
X0297295Y0305160D01*
X0297295Y0308229D01*
X0298829Y0307462D02*
X0298829Y0304393D01*
X0299597Y0303625D01*
X0301131Y0303625D01*
X0301899Y0304393D01*
X0303433Y0304393D02*
X0304201Y0303625D01*
X0305735Y0303625D01*
X0306503Y0304393D01*
X0308037Y0302858D02*
X0311106Y0302858D01*
X0312641Y0303625D02*
X0312641Y0308229D01*
X0314943Y0308229D01*
X0315710Y0307462D01*
X0315710Y0306695D01*
X0314943Y0305927D01*
X0312641Y0305927D01*
X0312641Y0303625D02*
X0314943Y0303625D01*
X0315710Y0304393D01*
X0315710Y0305160D01*
X0314943Y0305927D01*
X0306503Y0307462D02*
X0305735Y0308229D01*
X0304201Y0308229D01*
X0303433Y0307462D01*
X0303433Y0304393D01*
X0301899Y0307462D02*
X0301131Y0308229D01*
X0299597Y0308229D01*
X0298829Y0307462D01*
X0294225Y0308229D02*
X0294225Y0305160D01*
X0295760Y0303625D01*
X0206528Y0347425D02*
X0203459Y0347425D01*
X0206528Y0350495D01*
X0206528Y0351262D01*
X0205761Y0352029D01*
X0204226Y0352029D01*
X0203459Y0351262D01*
X0201924Y0348193D02*
X0201924Y0347425D01*
X0201157Y0347425D01*
X0201157Y0348193D01*
X0201924Y0348193D01*
X0199622Y0348193D02*
X0198855Y0347425D01*
X0197320Y0347425D01*
X0196553Y0348193D01*
X0198087Y0349727D02*
X0198855Y0349727D01*
X0199622Y0348960D01*
X0199622Y0348193D01*
X0198855Y0349727D02*
X0199622Y0350495D01*
X0199622Y0351262D01*
X0198855Y0352029D01*
X0197320Y0352029D01*
X0196553Y0351262D01*
X0195018Y0346658D02*
X0191949Y0346658D01*
X0188880Y0347425D02*
X0188880Y0349727D01*
X0190414Y0351262D01*
X0190414Y0352029D01*
X0188880Y0349727D02*
X0187345Y0351262D01*
X0187345Y0352029D01*
X0185810Y0351262D02*
X0185043Y0352029D01*
X0183508Y0352029D01*
X0182741Y0351262D01*
X0182741Y0350495D01*
X0183508Y0349727D01*
X0185043Y0349727D01*
X0185810Y0348960D01*
X0185810Y0348193D01*
X0185043Y0347425D01*
X0183508Y0347425D01*
X0182741Y0348193D01*
X0181206Y0347425D02*
X0181206Y0352029D01*
X0178137Y0352029D02*
X0178137Y0347425D01*
X0176603Y0347425D02*
X0173533Y0347425D01*
X0173533Y0352029D01*
X0176603Y0352029D01*
X0178137Y0352029D02*
X0181206Y0347425D01*
X0175068Y0349727D02*
X0173533Y0349727D01*
X0171999Y0347425D02*
X0168929Y0347425D01*
X0168929Y0352029D01*
X0171999Y0352029D01*
X0170464Y0349727D02*
X0168929Y0349727D01*
X0167395Y0352029D02*
X0164325Y0352029D01*
X0165860Y0352029D02*
X0165860Y0347425D01*
D16*
X0145703Y0349926D02*
X0145703Y0351427D01*
X0144202Y0351427D01*
X0142701Y0349926D02*
X0143452Y0349175D01*
X0144953Y0349175D01*
X0145703Y0349926D01*
X0142701Y0349926D02*
X0142701Y0352929D01*
X0143452Y0353679D01*
X0144953Y0353679D01*
X0145703Y0352929D01*
X0141100Y0353679D02*
X0138097Y0353679D01*
X0138097Y0349175D01*
X0141100Y0349175D01*
X0139598Y0351427D02*
X0138097Y0351427D01*
X0136496Y0351427D02*
X0135745Y0350677D01*
X0133493Y0350677D01*
X0134994Y0350677D02*
X0136496Y0349175D01*
X0136496Y0351427D02*
X0136496Y0352929D01*
X0135745Y0353679D01*
X0133493Y0353679D01*
X0133493Y0349175D01*
X0131892Y0348425D02*
X0128889Y0348425D01*
X0127288Y0350677D02*
X0127288Y0353679D01*
X0127288Y0350677D02*
X0125786Y0349175D01*
X0124285Y0350677D01*
X0124285Y0353679D01*
X0122684Y0352929D02*
X0122684Y0352178D01*
X0121933Y0351427D01*
X0122684Y0350677D01*
X0122684Y0349926D01*
X0121933Y0349175D01*
X0120432Y0349175D01*
X0119681Y0349926D01*
X0118130Y0349926D02*
X0118130Y0349175D01*
X0117379Y0349175D01*
X0117379Y0349926D01*
X0118130Y0349926D01*
X0115778Y0349926D02*
X0115027Y0349175D01*
X0113526Y0349175D01*
X0112775Y0349926D01*
X0114277Y0351427D02*
X0115027Y0351427D01*
X0115778Y0350677D01*
X0115778Y0349926D01*
X0115027Y0351427D02*
X0115778Y0352178D01*
X0115778Y0352929D01*
X0115027Y0353679D01*
X0113526Y0353679D01*
X0112775Y0352929D01*
X0119681Y0352929D02*
X0120432Y0353679D01*
X0121933Y0353679D01*
X0122684Y0352929D01*
X0121933Y0351427D02*
X0121183Y0351427D01*
X0122714Y0331679D02*
X0121964Y0330929D01*
X0121964Y0327926D01*
X0122714Y0327175D01*
X0124215Y0327175D01*
X0124966Y0327926D01*
X0126567Y0326425D02*
X0129570Y0326425D01*
X0131171Y0327175D02*
X0131171Y0330178D01*
X0132673Y0331679D01*
X0134174Y0330178D01*
X0134174Y0327175D01*
X0134174Y0329427D02*
X0131171Y0329427D01*
X0124966Y0330929D02*
X0124215Y0331679D01*
X0122714Y0331679D01*
X0120362Y0330929D02*
X0119612Y0331679D01*
X0118110Y0331679D01*
X0117360Y0330929D01*
X0117360Y0327926D01*
X0118110Y0327175D01*
X0119612Y0327175D01*
X0120362Y0327926D01*
X0115758Y0328677D02*
X0115758Y0331679D01*
X0112756Y0331679D02*
X0112756Y0328677D01*
X0114257Y0327175D01*
X0115758Y0328677D01*
X0093874Y0324029D02*
X0093874Y0321026D01*
X0093123Y0320275D01*
X0090871Y0320275D01*
X0090871Y0324779D01*
X0093123Y0324779D01*
X0093874Y0324029D01*
X0089270Y0324779D02*
X0089270Y0320275D01*
X0086268Y0324779D01*
X0086268Y0320275D01*
X0084666Y0321026D02*
X0084666Y0322527D01*
X0083165Y0322527D01*
X0084666Y0321026D02*
X0083916Y0320275D01*
X0082414Y0320275D01*
X0081664Y0321026D01*
X0081664Y0324029D01*
X0082414Y0324779D01*
X0083916Y0324779D01*
X0084666Y0324029D01*
X0143272Y0317223D02*
X0143272Y0314971D01*
X0147775Y0314971D01*
X0147775Y0317223D01*
X0147025Y0317974D01*
X0144022Y0317974D01*
X0143272Y0317223D01*
X0144022Y0313370D02*
X0145523Y0313370D01*
X0146274Y0312619D01*
X0146274Y0310367D01*
X0147775Y0310367D02*
X0143272Y0310367D01*
X0143272Y0312619D01*
X0144022Y0313370D01*
X0146274Y0311869D02*
X0147775Y0313370D01*
X0147775Y0308766D02*
X0144773Y0308766D01*
X0143272Y0307265D01*
X0144773Y0305764D01*
X0147775Y0305764D01*
X0147025Y0304162D02*
X0147775Y0303412D01*
X0147775Y0301910D01*
X0147025Y0301160D01*
X0144022Y0301160D01*
X0143272Y0301910D01*
X0143272Y0303412D01*
X0144022Y0304162D01*
X0145523Y0305764D02*
X0145523Y0308766D01*
X0148526Y0299558D02*
X0148526Y0296556D01*
X0147025Y0294954D02*
X0144022Y0294954D01*
X0143272Y0294204D01*
X0143272Y0291952D01*
X0147775Y0291952D01*
X0147775Y0294204D01*
X0147025Y0294954D01*
X0147025Y0290350D02*
X0147775Y0289600D01*
X0147775Y0288098D01*
X0147025Y0287348D01*
X0145523Y0288098D02*
X0145523Y0289600D01*
X0146274Y0290350D01*
X0147025Y0290350D01*
X0145523Y0288098D02*
X0144773Y0287348D01*
X0144022Y0287348D01*
X0143272Y0288098D01*
X0143272Y0289600D01*
X0144022Y0290350D01*
X0130450Y0242379D02*
X0130450Y0237875D01*
X0128949Y0237875D02*
X0131951Y0237875D01*
X0128949Y0240878D02*
X0130450Y0242379D01*
X0127347Y0241629D02*
X0126597Y0242379D01*
X0125095Y0242379D01*
X0124345Y0241629D01*
X0124345Y0238626D01*
X0125095Y0237875D01*
X0126597Y0237875D01*
X0127347Y0238626D01*
X0122777Y0237875D02*
X0121275Y0237875D01*
X0122026Y0237875D02*
X0122026Y0242379D01*
X0121275Y0242379D02*
X0122777Y0242379D01*
X0123222Y0215974D02*
X0124723Y0215974D01*
X0125474Y0215223D01*
X0125474Y0212971D01*
X0126975Y0212971D02*
X0122472Y0212971D01*
X0122472Y0215223D01*
X0123222Y0215974D01*
X0125474Y0214473D02*
X0126975Y0215974D01*
X0126975Y0211370D02*
X0126975Y0208367D01*
X0122472Y0208367D01*
X0122472Y0211370D01*
X0124723Y0209869D02*
X0124723Y0208367D01*
X0122472Y0206766D02*
X0122472Y0203764D01*
X0122472Y0205265D02*
X0126975Y0205265D01*
X0126975Y0202162D02*
X0126975Y0199160D01*
X0122472Y0199160D01*
X0122472Y0202162D01*
X0124723Y0200661D02*
X0124723Y0199160D01*
X0122472Y0197558D02*
X0123973Y0196057D01*
X0122472Y0194556D01*
X0126975Y0194556D01*
X0126975Y0192988D02*
X0126975Y0191486D01*
X0126975Y0192237D02*
X0122472Y0192237D01*
X0122472Y0191486D02*
X0122472Y0192988D01*
X0122472Y0189885D02*
X0122472Y0186882D01*
X0122472Y0188384D02*
X0126975Y0188384D01*
X0126975Y0185281D02*
X0126975Y0182279D01*
X0122472Y0182279D01*
X0123973Y0180677D02*
X0122472Y0179176D01*
X0123973Y0177675D01*
X0126975Y0177675D01*
X0124723Y0177675D02*
X0124723Y0180677D01*
X0123973Y0180677D02*
X0126975Y0180677D01*
X0126975Y0197558D02*
X0122472Y0197558D01*
X0246975Y0249826D02*
X0247726Y0249075D01*
X0249227Y0249075D01*
X0249978Y0249826D01*
X0249978Y0251327D01*
X0248477Y0251327D01*
X0249978Y0252829D02*
X0249227Y0253579D01*
X0247726Y0253579D01*
X0246975Y0252829D01*
X0246975Y0249826D01*
X0251579Y0252829D02*
X0251579Y0253579D01*
X0251579Y0252829D02*
X0253081Y0251327D01*
X0253081Y0249075D01*
X0253081Y0251327D02*
X0254582Y0252829D01*
X0254582Y0253579D01*
X0256183Y0253579D02*
X0258435Y0253579D01*
X0259186Y0252829D01*
X0259186Y0251327D01*
X0258435Y0250577D01*
X0256183Y0250577D01*
X0257685Y0250577D02*
X0259186Y0249075D01*
X0260787Y0249826D02*
X0261538Y0249075D01*
X0263039Y0249075D01*
X0263790Y0249826D01*
X0263790Y0252829D01*
X0263039Y0253579D01*
X0261538Y0253579D01*
X0260787Y0252829D01*
X0260787Y0249826D01*
X0265391Y0248325D02*
X0268394Y0248325D01*
X0269995Y0249826D02*
X0270746Y0249075D01*
X0272247Y0249075D01*
X0272998Y0249826D01*
X0272998Y0250577D01*
X0272247Y0251327D01*
X0271496Y0251327D01*
X0272247Y0251327D02*
X0272998Y0252078D01*
X0272998Y0252829D01*
X0272247Y0253579D01*
X0270746Y0253579D01*
X0269995Y0252829D01*
X0256183Y0253579D02*
X0256183Y0249075D01*
X0289472Y0260302D02*
X0290222Y0259552D01*
X0293225Y0259552D01*
X0293975Y0260302D01*
X0293975Y0261804D01*
X0293225Y0262554D01*
X0291723Y0262554D01*
X0291723Y0261053D01*
X0290222Y0262554D02*
X0289472Y0261804D01*
X0289472Y0260302D01*
X0289472Y0264156D02*
X0290222Y0264156D01*
X0291723Y0265657D01*
X0293975Y0265657D01*
X0291723Y0265657D02*
X0290222Y0267158D01*
X0289472Y0267158D01*
X0289472Y0268760D02*
X0289472Y0271012D01*
X0290222Y0271762D01*
X0291723Y0271762D01*
X0292474Y0271012D01*
X0292474Y0268760D01*
X0292474Y0270261D02*
X0293975Y0271762D01*
X0293225Y0273364D02*
X0293975Y0274114D01*
X0293975Y0275615D01*
X0293225Y0276366D01*
X0290222Y0276366D01*
X0289472Y0275615D01*
X0289472Y0274114D01*
X0290222Y0273364D01*
X0293225Y0273364D01*
X0293975Y0268760D02*
X0289472Y0268760D01*
X0294726Y0277967D02*
X0294726Y0280970D01*
X0293975Y0282571D02*
X0290973Y0285574D01*
X0290222Y0285574D01*
X0289472Y0284823D01*
X0289472Y0283322D01*
X0290222Y0282571D01*
X0293975Y0282571D02*
X0293975Y0285574D01*
X0272998Y0309075D02*
X0269995Y0309075D01*
X0271496Y0309075D02*
X0271496Y0313579D01*
X0269995Y0312078D01*
X0268394Y0308325D02*
X0265391Y0308325D01*
X0263790Y0309826D02*
X0263790Y0312829D01*
X0263039Y0313579D01*
X0261538Y0313579D01*
X0260787Y0312829D01*
X0260787Y0309826D01*
X0261538Y0309075D01*
X0263039Y0309075D01*
X0263790Y0309826D01*
X0259186Y0309075D02*
X0257685Y0310577D01*
X0258435Y0310577D02*
X0256183Y0310577D01*
X0256183Y0309075D02*
X0256183Y0313579D01*
X0258435Y0313579D01*
X0259186Y0312829D01*
X0259186Y0311327D01*
X0258435Y0310577D01*
X0254582Y0312829D02*
X0254582Y0313579D01*
X0254582Y0312829D02*
X0253081Y0311327D01*
X0253081Y0309075D01*
X0253081Y0311327D02*
X0251579Y0312829D01*
X0251579Y0313579D01*
X0249978Y0312829D02*
X0249227Y0313579D01*
X0247726Y0313579D01*
X0246975Y0312829D01*
X0246975Y0309826D01*
X0247726Y0309075D01*
X0249227Y0309075D01*
X0249978Y0309826D01*
X0249978Y0311327D01*
X0248477Y0311327D01*
X0274106Y0337589D02*
X0276009Y0341671D01*
X0277460Y0340994D02*
X0279501Y0340042D01*
X0279864Y0339045D01*
X0279230Y0337684D01*
X0278232Y0337321D01*
X0276191Y0338273D01*
X0275557Y0336912D02*
X0277460Y0340994D01*
X0275057Y0339630D02*
X0272336Y0340899D01*
X0271519Y0342936D02*
X0271156Y0343934D01*
X0269796Y0344568D01*
X0268798Y0344205D01*
X0267529Y0341484D01*
X0267892Y0340486D01*
X0269253Y0339852D01*
X0270250Y0340215D01*
X0271384Y0338858D02*
X0273288Y0342940D01*
X0267694Y0345548D02*
X0266334Y0346182D01*
X0267014Y0345865D02*
X0265110Y0341783D01*
X0264430Y0342101D02*
X0265791Y0341466D01*
X0262979Y0342777D02*
X0264882Y0346859D01*
X0262161Y0348128D02*
X0262979Y0342777D01*
X0260258Y0344046D02*
X0262161Y0348128D01*
X0277552Y0337638D02*
X0278278Y0335643D01*
X0280047Y0335647D02*
X0280410Y0334649D01*
X0281770Y0334015D01*
X0282768Y0334378D01*
X0284037Y0337099D01*
X0283674Y0338096D01*
X0282313Y0338731D01*
X0281316Y0338368D01*
X0280047Y0335647D01*
X0283902Y0333021D02*
X0285806Y0337102D01*
X0286532Y0335107D01*
X0288527Y0335834D01*
X0286623Y0331752D01*
X0288075Y0331075D02*
X0290796Y0329806D01*
X0290387Y0332481D02*
X0289026Y0333116D01*
X0288075Y0331075D02*
X0289978Y0335157D01*
X0292699Y0333888D01*
X0244021Y0343549D02*
X0243657Y0344547D01*
X0242297Y0345181D01*
X0241299Y0344818D01*
X0240030Y0342097D01*
X0240393Y0341099D01*
X0241754Y0340465D01*
X0242752Y0340828D01*
X0243386Y0342188D01*
X0242025Y0342823D01*
X0238262Y0342093D02*
X0235541Y0343362D01*
X0237444Y0347444D01*
X0240165Y0346175D01*
X0237853Y0344769D02*
X0236492Y0345403D01*
X0235041Y0346080D02*
X0234043Y0345717D01*
X0232002Y0346668D01*
X0231368Y0345308D02*
X0233271Y0349390D01*
X0235312Y0348438D01*
X0235675Y0347440D01*
X0235041Y0346080D01*
X0233363Y0346034D02*
X0234089Y0344039D01*
X0229599Y0345304D02*
X0226878Y0346573D01*
X0226379Y0349291D02*
X0227648Y0352012D01*
X0226379Y0349291D02*
X0224384Y0348565D01*
X0223657Y0350560D01*
X0224926Y0353281D01*
X0223475Y0353958D02*
X0220754Y0355227D01*
X0219802Y0353186D01*
X0221480Y0353232D01*
X0222160Y0352914D01*
X0222523Y0351917D01*
X0221889Y0350556D01*
X0220891Y0350193D01*
X0219531Y0350828D01*
X0219168Y0351825D01*
X0310422Y0251774D02*
X0313425Y0248771D01*
X0314175Y0249522D01*
X0314175Y0251023D01*
X0313425Y0251774D01*
X0310422Y0251774D01*
X0309672Y0251023D01*
X0309672Y0249522D01*
X0310422Y0248771D01*
X0313425Y0248771D01*
X0314175Y0247170D02*
X0314175Y0244167D01*
X0311173Y0247170D01*
X0310422Y0247170D01*
X0309672Y0246419D01*
X0309672Y0244918D01*
X0310422Y0244167D01*
X0309672Y0241065D02*
X0314175Y0241065D01*
X0314175Y0239564D02*
X0314175Y0242566D01*
X0311173Y0239564D02*
X0309672Y0241065D01*
X0310422Y0237962D02*
X0311923Y0237962D01*
X0312674Y0237212D01*
X0312674Y0234960D01*
X0314175Y0234960D02*
X0309672Y0234960D01*
X0309672Y0237212D01*
X0310422Y0237962D01*
X0309672Y0233392D02*
X0309672Y0231890D01*
X0309672Y0232641D02*
X0314175Y0232641D01*
X0314175Y0231890D02*
X0314175Y0233392D01*
X0314175Y0228788D02*
X0309672Y0228788D01*
X0309672Y0230289D02*
X0309672Y0227286D01*
D17*
X0090163Y0089425D02*
X0089796Y0089792D01*
X0090163Y0089425D02*
X0090897Y0089425D01*
X0091264Y0089792D01*
X0091264Y0090159D01*
X0090897Y0090526D01*
X0090163Y0090526D01*
X0089796Y0090893D01*
X0089796Y0091260D01*
X0090163Y0091627D01*
X0090897Y0091627D01*
X0091264Y0091260D01*
X0092006Y0091260D02*
X0092006Y0089792D01*
X0092373Y0089425D01*
X0093107Y0089425D01*
X0093474Y0089792D01*
X0093474Y0090526D01*
X0092740Y0090526D01*
X0093474Y0091260D02*
X0093107Y0091627D01*
X0092373Y0091627D01*
X0092006Y0091260D01*
X0094215Y0090893D02*
X0094949Y0091627D01*
X0094949Y0089425D01*
X0094215Y0089425D02*
X0095683Y0089425D01*
D18*
X0108319Y0241407D02*
X0108478Y0240891D01*
X0108240Y0240814D01*
X0108004Y0240731D01*
X0107770Y0240642D01*
X0107538Y0240547D01*
X0107309Y0240447D01*
X0107082Y0240341D01*
X0106858Y0240229D01*
X0106636Y0240112D01*
X0106418Y0239990D01*
X0106203Y0239863D01*
X0105990Y0239730D01*
X0105781Y0239592D01*
X0105576Y0239449D01*
X0105374Y0239301D01*
X0105176Y0239148D01*
X0104982Y0238990D01*
X0104791Y0238828D01*
X0104605Y0238661D01*
X0104422Y0238489D01*
X0104244Y0238313D01*
X0104070Y0238133D01*
X0103901Y0237949D01*
X0103737Y0237760D01*
X0103577Y0237568D01*
X0103421Y0237371D01*
X0103271Y0237171D01*
X0103125Y0236967D01*
X0102985Y0236760D01*
X0102850Y0236550D01*
X0102720Y0236336D01*
X0102595Y0236119D01*
X0102475Y0235899D01*
X0102361Y0235676D01*
X0102252Y0235450D01*
X0102149Y0235222D01*
X0102052Y0234992D01*
X0101960Y0234759D01*
X0101874Y0234524D01*
X0101794Y0234287D01*
X0101719Y0234048D01*
X0101651Y0233807D01*
X0101588Y0233565D01*
X0101531Y0233321D01*
X0101481Y0233076D01*
X0101436Y0232829D01*
X0101397Y0232582D01*
X0101365Y0232334D01*
X0101338Y0232085D01*
X0101318Y0231835D01*
X0101303Y0231586D01*
X0101295Y0231335D01*
X0101293Y0231085D01*
X0101297Y0230835D01*
X0101307Y0230585D01*
X0101324Y0230335D01*
X0101346Y0230085D01*
X0101374Y0229837D01*
X0101409Y0229589D01*
X0101450Y0229342D01*
X0101496Y0229096D01*
X0101549Y0228851D01*
X0101608Y0228608D01*
X0101672Y0228366D01*
X0101743Y0228126D01*
X0101819Y0227887D01*
X0101901Y0227651D01*
X0101989Y0227416D01*
X0102082Y0227184D01*
X0102182Y0226955D01*
X0102287Y0226727D01*
X0102397Y0226503D01*
X0102513Y0226281D01*
X0102634Y0226062D01*
X0102761Y0225846D01*
X0102892Y0225633D01*
X0103029Y0225423D01*
X0103171Y0225217D01*
X0103318Y0225015D01*
X0103470Y0224816D01*
X0103047Y0224482D01*
X0103046Y0224481D01*
X0102886Y0224691D01*
X0102731Y0224904D01*
X0102582Y0225121D01*
X0102438Y0225342D01*
X0102299Y0225566D01*
X0102165Y0225793D01*
X0102038Y0226024D01*
X0101916Y0226257D01*
X0101800Y0226494D01*
X0101689Y0226733D01*
X0101585Y0226975D01*
X0101486Y0227220D01*
X0101393Y0227466D01*
X0101307Y0227715D01*
X0101227Y0227967D01*
X0101152Y0228219D01*
X0101084Y0228474D01*
X0101023Y0228730D01*
X0100967Y0228988D01*
X0100918Y0229247D01*
X0100875Y0229507D01*
X0100839Y0229768D01*
X0100809Y0230030D01*
X0100785Y0230292D01*
X0100768Y0230556D01*
X0100757Y0230819D01*
X0100753Y0231082D01*
X0100755Y0231346D01*
X0100764Y0231609D01*
X0100779Y0231873D01*
X0100800Y0232135D01*
X0100828Y0232397D01*
X0100863Y0232659D01*
X0100903Y0232919D01*
X0100951Y0233178D01*
X0101004Y0233437D01*
X0101064Y0233693D01*
X0101130Y0233948D01*
X0101202Y0234202D01*
X0101280Y0234454D01*
X0101365Y0234703D01*
X0101455Y0234951D01*
X0101552Y0235196D01*
X0101655Y0235439D01*
X0101763Y0235679D01*
X0101878Y0235916D01*
X0101998Y0236151D01*
X0102124Y0236383D01*
X0102255Y0236611D01*
X0102392Y0236836D01*
X0102535Y0237058D01*
X0102682Y0237276D01*
X0102836Y0237491D01*
X0102994Y0237701D01*
X0103157Y0237908D01*
X0103326Y0238111D01*
X0103499Y0238309D01*
X0103678Y0238504D01*
X0103861Y0238693D01*
X0104048Y0238879D01*
X0104240Y0239059D01*
X0104436Y0239235D01*
X0104637Y0239406D01*
X0104842Y0239572D01*
X0105050Y0239733D01*
X0105263Y0239889D01*
X0105479Y0240039D01*
X0105699Y0240185D01*
X0105923Y0240324D01*
X0106149Y0240459D01*
X0106380Y0240587D01*
X0106613Y0240710D01*
X0106849Y0240828D01*
X0107087Y0240939D01*
X0107329Y0241045D01*
X0107573Y0241145D01*
X0107819Y0241238D01*
X0108068Y0241326D01*
X0108319Y0241407D01*
X0108335Y0241354D01*
X0108086Y0241273D01*
X0107838Y0241186D01*
X0107593Y0241092D01*
X0107351Y0240993D01*
X0107110Y0240888D01*
X0106873Y0240777D01*
X0106638Y0240661D01*
X0106406Y0240538D01*
X0106177Y0240410D01*
X0105952Y0240277D01*
X0105729Y0240137D01*
X0105511Y0239993D01*
X0105295Y0239843D01*
X0105084Y0239688D01*
X0104876Y0239528D01*
X0104673Y0239363D01*
X0104473Y0239193D01*
X0104278Y0239018D01*
X0104087Y0238838D01*
X0103900Y0238654D01*
X0103718Y0238465D01*
X0103541Y0238272D01*
X0103369Y0238074D01*
X0103201Y0237873D01*
X0103038Y0237667D01*
X0102881Y0237458D01*
X0102728Y0237244D01*
X0102581Y0237027D01*
X0102440Y0236807D01*
X0102303Y0236583D01*
X0102172Y0236355D01*
X0102047Y0236125D01*
X0101928Y0235892D01*
X0101814Y0235655D01*
X0101706Y0235416D01*
X0101604Y0235175D01*
X0101508Y0234931D01*
X0101418Y0234685D01*
X0101334Y0234436D01*
X0101256Y0234186D01*
X0101184Y0233934D01*
X0101118Y0233680D01*
X0101059Y0233425D01*
X0101006Y0233168D01*
X0100959Y0232910D01*
X0100918Y0232651D01*
X0100884Y0232391D01*
X0100856Y0232130D01*
X0100835Y0231869D01*
X0100820Y0231607D01*
X0100811Y0231345D01*
X0100809Y0231083D01*
X0100813Y0230821D01*
X0100824Y0230559D01*
X0100841Y0230297D01*
X0100865Y0230036D01*
X0100894Y0229775D01*
X0100931Y0229516D01*
X0100973Y0229257D01*
X0101022Y0228999D01*
X0101077Y0228743D01*
X0101139Y0228488D01*
X0101206Y0228235D01*
X0101280Y0227983D01*
X0101360Y0227733D01*
X0101446Y0227486D01*
X0101538Y0227240D01*
X0101636Y0226997D01*
X0101740Y0226756D01*
X0101850Y0226518D01*
X0101966Y0226283D01*
X0102087Y0226050D01*
X0102214Y0225821D01*
X0102347Y0225595D01*
X0102485Y0225372D01*
X0102628Y0225152D01*
X0102777Y0224937D01*
X0102931Y0224724D01*
X0103090Y0224516D01*
X0103134Y0224551D01*
X0102976Y0224758D01*
X0102823Y0224969D01*
X0102675Y0225184D01*
X0102532Y0225402D01*
X0102394Y0225624D01*
X0102263Y0225849D01*
X0102136Y0226077D01*
X0102016Y0226308D01*
X0101901Y0226542D01*
X0101791Y0226779D01*
X0101688Y0227019D01*
X0101590Y0227261D01*
X0101499Y0227505D01*
X0101413Y0227751D01*
X0101334Y0228000D01*
X0101260Y0228250D01*
X0101193Y0228502D01*
X0101132Y0228755D01*
X0101077Y0229010D01*
X0101028Y0229267D01*
X0100986Y0229524D01*
X0100950Y0229782D01*
X0100920Y0230041D01*
X0100897Y0230301D01*
X0100880Y0230562D01*
X0100869Y0230822D01*
X0100865Y0231083D01*
X0100867Y0231344D01*
X0100876Y0231604D01*
X0100891Y0231865D01*
X0100912Y0232125D01*
X0100940Y0232384D01*
X0100974Y0232643D01*
X0101014Y0232900D01*
X0101061Y0233157D01*
X0101113Y0233413D01*
X0101172Y0233667D01*
X0101238Y0233919D01*
X0101309Y0234170D01*
X0101387Y0234419D01*
X0101470Y0234666D01*
X0101560Y0234911D01*
X0101656Y0235154D01*
X0101757Y0235394D01*
X0101865Y0235632D01*
X0101978Y0235867D01*
X0102097Y0236099D01*
X0102221Y0236328D01*
X0102351Y0236554D01*
X0102487Y0236777D01*
X0102628Y0236996D01*
X0102774Y0237212D01*
X0102926Y0237424D01*
X0103083Y0237633D01*
X0103244Y0237838D01*
X0103411Y0238038D01*
X0103583Y0238235D01*
X0103759Y0238427D01*
X0103940Y0238614D01*
X0104126Y0238798D01*
X0104316Y0238977D01*
X0104510Y0239151D01*
X0104708Y0239320D01*
X0104911Y0239484D01*
X0105118Y0239643D01*
X0105328Y0239798D01*
X0105542Y0239947D01*
X0105760Y0240090D01*
X0105981Y0240229D01*
X0106205Y0240362D01*
X0106433Y0240489D01*
X0106663Y0240611D01*
X0106897Y0240727D01*
X0107133Y0240837D01*
X0107372Y0240942D01*
X0107614Y0241040D01*
X0107858Y0241133D01*
X0108104Y0241220D01*
X0108352Y0241300D01*
X0108368Y0241247D01*
X0108121Y0241167D01*
X0107877Y0241080D01*
X0107634Y0240988D01*
X0107394Y0240890D01*
X0107156Y0240786D01*
X0106921Y0240676D01*
X0106689Y0240561D01*
X0106459Y0240440D01*
X0106233Y0240313D01*
X0106010Y0240181D01*
X0105790Y0240043D01*
X0105573Y0239900D01*
X0105360Y0239752D01*
X0105151Y0239599D01*
X0104946Y0239440D01*
X0104744Y0239277D01*
X0104547Y0239108D01*
X0104353Y0238935D01*
X0104164Y0238757D01*
X0103980Y0238575D01*
X0103800Y0238388D01*
X0103624Y0238197D01*
X0103454Y0238002D01*
X0103288Y0237802D01*
X0103127Y0237599D01*
X0102971Y0237391D01*
X0102820Y0237180D01*
X0102675Y0236965D01*
X0102534Y0236747D01*
X0102400Y0236525D01*
X0102270Y0236301D01*
X0102146Y0236073D01*
X0102028Y0235842D01*
X0101915Y0235608D01*
X0101809Y0235371D01*
X0101708Y0235132D01*
X0101612Y0234891D01*
X0101523Y0234647D01*
X0101440Y0234402D01*
X0101363Y0234154D01*
X0101292Y0233904D01*
X0101227Y0233653D01*
X0101168Y0233401D01*
X0101115Y0233146D01*
X0101069Y0232891D01*
X0101029Y0232635D01*
X0100995Y0232378D01*
X0100968Y0232120D01*
X0100947Y0231861D01*
X0100932Y0231602D01*
X0100923Y0231343D01*
X0100921Y0231083D01*
X0100925Y0230824D01*
X0100936Y0230565D01*
X0100953Y0230306D01*
X0100976Y0230047D01*
X0101005Y0229789D01*
X0101041Y0229532D01*
X0101083Y0229276D01*
X0101132Y0229022D01*
X0101186Y0228768D01*
X0101247Y0228516D01*
X0101314Y0228265D01*
X0101387Y0228016D01*
X0101466Y0227769D01*
X0101551Y0227524D01*
X0101642Y0227281D01*
X0101739Y0227040D01*
X0101842Y0226802D01*
X0101951Y0226567D01*
X0102065Y0226334D01*
X0102186Y0226104D01*
X0102311Y0225877D01*
X0102442Y0225653D01*
X0102579Y0225432D01*
X0102721Y0225215D01*
X0102868Y0225001D01*
X0103021Y0224792D01*
X0103178Y0224585D01*
X0103222Y0224620D01*
X0103065Y0224825D01*
X0102914Y0225034D01*
X0102767Y0225246D01*
X0102626Y0225462D01*
X0102490Y0225682D01*
X0102360Y0225905D01*
X0102235Y0226130D01*
X0102115Y0226359D01*
X0102002Y0226591D01*
X0101893Y0226825D01*
X0101791Y0227062D01*
X0101695Y0227301D01*
X0101604Y0227543D01*
X0101519Y0227787D01*
X0101441Y0228033D01*
X0101368Y0228280D01*
X0101301Y0228530D01*
X0101241Y0228780D01*
X0101187Y0229033D01*
X0101139Y0229286D01*
X0101097Y0229541D01*
X0101061Y0229797D01*
X0101032Y0230053D01*
X0101009Y0230310D01*
X0100992Y0230568D01*
X0100981Y0230825D01*
X0100977Y0231083D01*
X0100979Y0231342D01*
X0100988Y0231600D01*
X0101002Y0231857D01*
X0101024Y0232114D01*
X0101051Y0232371D01*
X0101084Y0232627D01*
X0101124Y0232882D01*
X0101170Y0233136D01*
X0101223Y0233389D01*
X0101281Y0233640D01*
X0101346Y0233890D01*
X0101417Y0234138D01*
X0101493Y0234384D01*
X0101576Y0234629D01*
X0101665Y0234871D01*
X0101759Y0235111D01*
X0101860Y0235349D01*
X0101966Y0235584D01*
X0102078Y0235817D01*
X0102196Y0236046D01*
X0102319Y0236273D01*
X0102448Y0236497D01*
X0102582Y0236717D01*
X0102721Y0236934D01*
X0102866Y0237148D01*
X0103016Y0237358D01*
X0103171Y0237564D01*
X0103331Y0237767D01*
X0103496Y0237965D01*
X0103666Y0238160D01*
X0103841Y0238350D01*
X0104020Y0238536D01*
X0104203Y0238717D01*
X0104391Y0238894D01*
X0104583Y0239066D01*
X0104780Y0239234D01*
X0104980Y0239396D01*
X0105185Y0239554D01*
X0105393Y0239706D01*
X0105605Y0239854D01*
X0105820Y0239996D01*
X0106039Y0240133D01*
X0106261Y0240264D01*
X0106486Y0240390D01*
X0106714Y0240511D01*
X0106945Y0240626D01*
X0107179Y0240735D01*
X0107416Y0240838D01*
X0107655Y0240936D01*
X0107896Y0241028D01*
X0108139Y0241113D01*
X0108385Y0241193D01*
X0108401Y0241140D01*
X0108157Y0241060D01*
X0107915Y0240975D01*
X0107675Y0240884D01*
X0107437Y0240787D01*
X0107202Y0240684D01*
X0106970Y0240575D01*
X0106740Y0240461D01*
X0106513Y0240341D01*
X0106289Y0240216D01*
X0106068Y0240085D01*
X0105850Y0239949D01*
X0105636Y0239807D01*
X0105425Y0239661D01*
X0105218Y0239509D01*
X0105015Y0239352D01*
X0104816Y0239190D01*
X0104620Y0239024D01*
X0104429Y0238853D01*
X0104242Y0238677D01*
X0104059Y0238496D01*
X0103881Y0238311D01*
X0103708Y0238122D01*
X0103539Y0237929D01*
X0103375Y0237732D01*
X0103216Y0237530D01*
X0103061Y0237325D01*
X0102912Y0237116D01*
X0102768Y0236904D01*
X0102629Y0236688D01*
X0102496Y0236468D01*
X0102368Y0236246D01*
X0102245Y0236020D01*
X0102128Y0235792D01*
X0102017Y0235561D01*
X0101911Y0235327D01*
X0101811Y0235090D01*
X0101717Y0234851D01*
X0101629Y0234610D01*
X0101547Y0234367D01*
X0101470Y0234122D01*
X0101400Y0233875D01*
X0101336Y0233627D01*
X0101277Y0233377D01*
X0101225Y0233125D01*
X0101180Y0232873D01*
X0101140Y0232619D01*
X0101106Y0232364D01*
X0101079Y0232109D01*
X0101058Y0231853D01*
X0101044Y0231597D01*
X0101035Y0231340D01*
X0101033Y0231084D01*
X0101037Y0230827D01*
X0101048Y0230571D01*
X0101064Y0230314D01*
X0101087Y0230059D01*
X0101117Y0229804D01*
X0101152Y0229549D01*
X0101194Y0229296D01*
X0101241Y0229044D01*
X0101295Y0228793D01*
X0101356Y0228543D01*
X0101422Y0228295D01*
X0101494Y0228049D01*
X0101572Y0227805D01*
X0101657Y0227562D01*
X0101747Y0227322D01*
X0101843Y0227084D01*
X0101945Y0226848D01*
X0102052Y0226615D01*
X0102165Y0226384D01*
X0102284Y0226157D01*
X0102408Y0225932D01*
X0102538Y0225711D01*
X0102673Y0225493D01*
X0102814Y0225278D01*
X0102959Y0225066D01*
X0103110Y0224859D01*
X0103266Y0224655D01*
X0103310Y0224689D01*
X0103155Y0224892D01*
X0103005Y0225099D01*
X0102860Y0225309D01*
X0102721Y0225523D01*
X0102586Y0225740D01*
X0102457Y0225960D01*
X0102333Y0226184D01*
X0102215Y0226410D01*
X0102103Y0226639D01*
X0101996Y0226871D01*
X0101894Y0227105D01*
X0101799Y0227342D01*
X0101709Y0227581D01*
X0101625Y0227822D01*
X0101548Y0228066D01*
X0101476Y0228311D01*
X0101410Y0228557D01*
X0101350Y0228806D01*
X0101296Y0229055D01*
X0101249Y0229306D01*
X0101207Y0229558D01*
X0101172Y0229811D01*
X0101143Y0230065D01*
X0101120Y0230319D01*
X0101104Y0230574D01*
X0101093Y0230829D01*
X0101089Y0231084D01*
X0101091Y0231339D01*
X0101100Y0231595D01*
X0101114Y0231849D01*
X0101135Y0232104D01*
X0101162Y0232358D01*
X0101195Y0232611D01*
X0101235Y0232863D01*
X0101280Y0233114D01*
X0101332Y0233365D01*
X0101390Y0233613D01*
X0101454Y0233860D01*
X0101524Y0234106D01*
X0101600Y0234350D01*
X0101682Y0234592D01*
X0101769Y0234831D01*
X0101863Y0235069D01*
X0101962Y0235304D01*
X0102068Y0235537D01*
X0102178Y0235767D01*
X0102295Y0235994D01*
X0102417Y0236218D01*
X0102544Y0236440D01*
X0102677Y0236658D01*
X0102815Y0236873D01*
X0102958Y0237084D01*
X0103106Y0237292D01*
X0103260Y0237496D01*
X0103418Y0237696D01*
X0103581Y0237893D01*
X0103749Y0238085D01*
X0103922Y0238273D01*
X0104099Y0238457D01*
X0104281Y0238636D01*
X0104467Y0238811D01*
X0104657Y0238982D01*
X0104851Y0239147D01*
X0105050Y0239308D01*
X0105252Y0239464D01*
X0105458Y0239615D01*
X0105667Y0239761D01*
X0105880Y0239902D01*
X0106097Y0240037D01*
X0106317Y0240167D01*
X0106539Y0240292D01*
X0106765Y0240411D01*
X0106994Y0240525D01*
X0107225Y0240633D01*
X0107459Y0240735D01*
X0107695Y0240832D01*
X0107934Y0240922D01*
X0108175Y0241007D01*
X0108418Y0241086D01*
X0108434Y0241033D01*
X0108193Y0240954D01*
X0107953Y0240870D01*
X0107716Y0240779D01*
X0107481Y0240683D01*
X0107248Y0240582D01*
X0107018Y0240474D01*
X0106791Y0240361D01*
X0106566Y0240243D01*
X0106344Y0240119D01*
X0106126Y0239989D01*
X0105911Y0239854D01*
X0105699Y0239715D01*
X0105490Y0239569D01*
X0105285Y0239419D01*
X0105084Y0239264D01*
X0104887Y0239104D01*
X0104694Y0238939D01*
X0104505Y0238770D01*
X0104320Y0238596D01*
X0104139Y0238417D01*
X0103963Y0238235D01*
X0103791Y0238047D01*
X0103624Y0237856D01*
X0103462Y0237661D01*
X0103304Y0237462D01*
X0103152Y0237259D01*
X0103004Y0237052D01*
X0102862Y0236842D01*
X0102724Y0236628D01*
X0102592Y0236411D01*
X0102466Y0236191D01*
X0102344Y0235968D01*
X0102229Y0235742D01*
X0102118Y0235513D01*
X0102014Y0235282D01*
X0101915Y0235048D01*
X0101822Y0234811D01*
X0101735Y0234573D01*
X0101653Y0234332D01*
X0101578Y0234090D01*
X0101508Y0233846D01*
X0101444Y0233600D01*
X0101387Y0233353D01*
X0101335Y0233104D01*
X0101290Y0232854D01*
X0101251Y0232603D01*
X0101218Y0232351D01*
X0101191Y0232099D01*
X0101170Y0231846D01*
X0101156Y0231592D01*
X0101147Y0231338D01*
X0101145Y0231084D01*
X0101149Y0230830D01*
X0101159Y0230577D01*
X0101176Y0230323D01*
X0101199Y0230070D01*
X0101228Y0229818D01*
X0101263Y0229566D01*
X0101304Y0229316D01*
X0101351Y0229066D01*
X0101405Y0228818D01*
X0101464Y0228571D01*
X0101530Y0228326D01*
X0101601Y0228082D01*
X0101679Y0227840D01*
X0101762Y0227600D01*
X0101851Y0227363D01*
X0101946Y0227127D01*
X0102047Y0226894D01*
X0102153Y0226663D01*
X0102265Y0226435D01*
X0102383Y0226210D01*
X0102506Y0225988D01*
X0102634Y0225769D01*
X0102768Y0225553D01*
X0102907Y0225340D01*
X0103051Y0225131D01*
X0103200Y0224926D01*
X0103354Y0224724D01*
X0103398Y0224759D01*
X0103245Y0224959D01*
X0103096Y0225164D01*
X0102953Y0225372D01*
X0102815Y0225583D01*
X0102682Y0225798D01*
X0102554Y0226016D01*
X0102432Y0226237D01*
X0102315Y0226461D01*
X0102204Y0226687D01*
X0102098Y0226917D01*
X0101998Y0227149D01*
X0101903Y0227383D01*
X0101815Y0227619D01*
X0101732Y0227858D01*
X0101655Y0228099D01*
X0101584Y0228341D01*
X0101518Y0228585D01*
X0101459Y0228831D01*
X0101406Y0229078D01*
X0101359Y0229326D01*
X0101318Y0229575D01*
X0101283Y0229825D01*
X0101254Y0230076D01*
X0101232Y0230328D01*
X0101215Y0230580D01*
X0101205Y0230832D01*
X0101201Y0231085D01*
X0101203Y0231337D01*
X0101211Y0231590D01*
X0101226Y0231842D01*
X0101247Y0232094D01*
X0101273Y0232345D01*
X0101306Y0232595D01*
X0101345Y0232845D01*
X0101390Y0233093D01*
X0101442Y0233341D01*
X0101499Y0233587D01*
X0101562Y0233831D01*
X0101631Y0234074D01*
X0101706Y0234315D01*
X0101787Y0234554D01*
X0101874Y0234792D01*
X0101967Y0235027D01*
X0102065Y0235259D01*
X0102169Y0235489D01*
X0102279Y0235717D01*
X0102394Y0235942D01*
X0102514Y0236164D01*
X0102640Y0236383D01*
X0102772Y0236598D01*
X0102908Y0236811D01*
X0103050Y0237020D01*
X0103197Y0237226D01*
X0103348Y0237427D01*
X0103505Y0237626D01*
X0103667Y0237820D01*
X0103833Y0238010D01*
X0104004Y0238196D01*
X0104179Y0238378D01*
X0104358Y0238556D01*
X0104542Y0238729D01*
X0104731Y0238897D01*
X0104923Y0239061D01*
X0105119Y0239220D01*
X0105319Y0239374D01*
X0105523Y0239524D01*
X0105730Y0239668D01*
X0105941Y0239807D01*
X0106155Y0239941D01*
X0106372Y0240070D01*
X0106593Y0240193D01*
X0106816Y0240311D01*
X0107042Y0240424D01*
X0107271Y0240531D01*
X0107502Y0240632D01*
X0107736Y0240727D01*
X0107972Y0240817D01*
X0108211Y0240901D01*
X0108451Y0240979D01*
X0108467Y0240926D01*
X0108228Y0240848D01*
X0107991Y0240764D01*
X0107757Y0240675D01*
X0107524Y0240580D01*
X0107294Y0240479D01*
X0107066Y0240373D01*
X0106841Y0240261D01*
X0106619Y0240144D01*
X0106400Y0240021D01*
X0106184Y0239893D01*
X0105971Y0239760D01*
X0105761Y0239622D01*
X0105555Y0239478D01*
X0105353Y0239330D01*
X0105154Y0239176D01*
X0104959Y0239018D01*
X0104767Y0238855D01*
X0104580Y0238687D01*
X0104397Y0238515D01*
X0104219Y0238339D01*
X0104044Y0238158D01*
X0103874Y0237973D01*
X0103709Y0237783D01*
X0103549Y0237590D01*
X0103393Y0237393D01*
X0103242Y0237192D01*
X0103096Y0236988D01*
X0102955Y0236780D01*
X0102819Y0236569D01*
X0102689Y0236354D01*
X0102563Y0236136D01*
X0102443Y0235916D01*
X0102329Y0235692D01*
X0102220Y0235466D01*
X0102116Y0235237D01*
X0102019Y0235005D01*
X0101927Y0234772D01*
X0101840Y0234536D01*
X0101760Y0234298D01*
X0101685Y0234058D01*
X0101616Y0233816D01*
X0101553Y0233573D01*
X0101496Y0233328D01*
X0101445Y0233083D01*
X0101400Y0232835D01*
X0101362Y0232587D01*
X0101329Y0232338D01*
X0101302Y0232088D01*
X0101282Y0231838D01*
X0101267Y0231587D01*
X0101259Y0231336D01*
X0101257Y0231085D01*
X0101261Y0230834D01*
X0101271Y0230583D01*
X0101288Y0230332D01*
X0101310Y0230082D01*
X0101339Y0229832D01*
X0101373Y0229583D01*
X0101414Y0229336D01*
X0101461Y0229089D01*
X0101514Y0228843D01*
X0101573Y0228599D01*
X0101637Y0228356D01*
X0101708Y0228115D01*
X0101785Y0227876D01*
X0101867Y0227639D01*
X0101955Y0227403D01*
X0102049Y0227170D01*
X0102149Y0226940D01*
X0102254Y0226712D01*
X0102365Y0226486D01*
X0102481Y0226263D01*
X0102603Y0226044D01*
X0102730Y0225827D01*
X0102862Y0225613D01*
X0102999Y0225403D01*
X0103142Y0225196D01*
X0103290Y0224993D01*
X0103442Y0224793D01*
X0120003Y0224482D02*
X0119579Y0224816D01*
X0119580Y0224816D02*
X0119732Y0225015D01*
X0119879Y0225217D01*
X0120021Y0225423D01*
X0120158Y0225633D01*
X0120289Y0225846D01*
X0120416Y0226062D01*
X0120537Y0226281D01*
X0120653Y0226503D01*
X0120763Y0226727D01*
X0120868Y0226955D01*
X0120968Y0227184D01*
X0121061Y0227416D01*
X0121149Y0227651D01*
X0121231Y0227887D01*
X0121307Y0228126D01*
X0121378Y0228366D01*
X0121442Y0228608D01*
X0121501Y0228851D01*
X0121554Y0229096D01*
X0121600Y0229342D01*
X0121641Y0229589D01*
X0121676Y0229837D01*
X0121704Y0230085D01*
X0121726Y0230335D01*
X0121743Y0230585D01*
X0121753Y0230835D01*
X0121757Y0231085D01*
X0121755Y0231335D01*
X0121747Y0231586D01*
X0121732Y0231835D01*
X0121712Y0232085D01*
X0121685Y0232334D01*
X0121653Y0232582D01*
X0121614Y0232829D01*
X0121569Y0233076D01*
X0121519Y0233321D01*
X0121462Y0233565D01*
X0121399Y0233807D01*
X0121331Y0234048D01*
X0121256Y0234287D01*
X0121176Y0234524D01*
X0121090Y0234759D01*
X0120998Y0234992D01*
X0120901Y0235222D01*
X0120798Y0235450D01*
X0120689Y0235676D01*
X0120575Y0235899D01*
X0120455Y0236119D01*
X0120330Y0236336D01*
X0120200Y0236550D01*
X0120065Y0236760D01*
X0119925Y0236967D01*
X0119779Y0237171D01*
X0119629Y0237371D01*
X0119473Y0237568D01*
X0119313Y0237760D01*
X0119149Y0237949D01*
X0118980Y0238133D01*
X0118806Y0238313D01*
X0118628Y0238489D01*
X0118445Y0238661D01*
X0118259Y0238828D01*
X0118068Y0238990D01*
X0117874Y0239148D01*
X0117676Y0239301D01*
X0117474Y0239449D01*
X0117269Y0239592D01*
X0117060Y0239730D01*
X0116847Y0239863D01*
X0116632Y0239990D01*
X0116414Y0240112D01*
X0116192Y0240229D01*
X0115968Y0240341D01*
X0115741Y0240447D01*
X0115512Y0240547D01*
X0115280Y0240642D01*
X0115046Y0240731D01*
X0114810Y0240814D01*
X0114572Y0240891D01*
X0114731Y0241407D01*
X0114982Y0241326D01*
X0115231Y0241238D01*
X0115477Y0241145D01*
X0115721Y0241045D01*
X0115963Y0240939D01*
X0116201Y0240828D01*
X0116437Y0240710D01*
X0116670Y0240587D01*
X0116901Y0240459D01*
X0117127Y0240324D01*
X0117351Y0240185D01*
X0117571Y0240039D01*
X0117787Y0239889D01*
X0118000Y0239733D01*
X0118208Y0239572D01*
X0118413Y0239406D01*
X0118614Y0239235D01*
X0118810Y0239059D01*
X0119002Y0238879D01*
X0119189Y0238693D01*
X0119372Y0238504D01*
X0119551Y0238309D01*
X0119724Y0238111D01*
X0119893Y0237908D01*
X0120056Y0237701D01*
X0120214Y0237491D01*
X0120368Y0237276D01*
X0120515Y0237058D01*
X0120658Y0236836D01*
X0120795Y0236611D01*
X0120926Y0236383D01*
X0121052Y0236151D01*
X0121172Y0235916D01*
X0121287Y0235679D01*
X0121395Y0235439D01*
X0121498Y0235196D01*
X0121595Y0234951D01*
X0121685Y0234703D01*
X0121770Y0234454D01*
X0121848Y0234202D01*
X0121920Y0233948D01*
X0121986Y0233693D01*
X0122046Y0233437D01*
X0122099Y0233178D01*
X0122147Y0232919D01*
X0122187Y0232659D01*
X0122222Y0232397D01*
X0122250Y0232135D01*
X0122271Y0231873D01*
X0122286Y0231609D01*
X0122295Y0231346D01*
X0122297Y0231082D01*
X0122293Y0230819D01*
X0122282Y0230556D01*
X0122265Y0230292D01*
X0122241Y0230030D01*
X0122211Y0229768D01*
X0122175Y0229507D01*
X0122132Y0229247D01*
X0122083Y0228988D01*
X0122027Y0228730D01*
X0121966Y0228474D01*
X0121898Y0228219D01*
X0121823Y0227967D01*
X0121743Y0227715D01*
X0121657Y0227466D01*
X0121564Y0227220D01*
X0121465Y0226975D01*
X0121361Y0226733D01*
X0121250Y0226494D01*
X0121134Y0226257D01*
X0121012Y0226024D01*
X0120885Y0225793D01*
X0120751Y0225566D01*
X0120612Y0225342D01*
X0120468Y0225121D01*
X0120319Y0224904D01*
X0120164Y0224691D01*
X0120004Y0224481D01*
X0119960Y0224516D01*
X0120119Y0224724D01*
X0120273Y0224937D01*
X0120422Y0225152D01*
X0120565Y0225372D01*
X0120703Y0225595D01*
X0120836Y0225821D01*
X0120963Y0226050D01*
X0121084Y0226283D01*
X0121200Y0226518D01*
X0121310Y0226756D01*
X0121414Y0226997D01*
X0121512Y0227240D01*
X0121604Y0227486D01*
X0121690Y0227733D01*
X0121770Y0227983D01*
X0121844Y0228235D01*
X0121911Y0228488D01*
X0121973Y0228743D01*
X0122028Y0228999D01*
X0122077Y0229257D01*
X0122119Y0229516D01*
X0122156Y0229775D01*
X0122185Y0230036D01*
X0122209Y0230297D01*
X0122226Y0230559D01*
X0122237Y0230821D01*
X0122241Y0231083D01*
X0122239Y0231345D01*
X0122230Y0231607D01*
X0122215Y0231869D01*
X0122194Y0232130D01*
X0122166Y0232391D01*
X0122132Y0232651D01*
X0122091Y0232910D01*
X0122044Y0233168D01*
X0121991Y0233425D01*
X0121932Y0233680D01*
X0121866Y0233934D01*
X0121794Y0234186D01*
X0121716Y0234436D01*
X0121632Y0234685D01*
X0121542Y0234931D01*
X0121446Y0235175D01*
X0121344Y0235416D01*
X0121236Y0235655D01*
X0121122Y0235892D01*
X0121003Y0236125D01*
X0120878Y0236355D01*
X0120747Y0236583D01*
X0120610Y0236807D01*
X0120469Y0237027D01*
X0120322Y0237244D01*
X0120169Y0237458D01*
X0120012Y0237667D01*
X0119849Y0237873D01*
X0119681Y0238074D01*
X0119509Y0238272D01*
X0119332Y0238465D01*
X0119150Y0238654D01*
X0118963Y0238838D01*
X0118772Y0239018D01*
X0118577Y0239193D01*
X0118377Y0239363D01*
X0118174Y0239528D01*
X0117966Y0239688D01*
X0117755Y0239843D01*
X0117539Y0239993D01*
X0117321Y0240137D01*
X0117098Y0240277D01*
X0116873Y0240410D01*
X0116644Y0240538D01*
X0116412Y0240661D01*
X0116177Y0240777D01*
X0115940Y0240888D01*
X0115699Y0240993D01*
X0115457Y0241092D01*
X0115212Y0241186D01*
X0114964Y0241273D01*
X0114715Y0241354D01*
X0114698Y0241300D01*
X0114946Y0241220D01*
X0115192Y0241133D01*
X0115436Y0241040D01*
X0115678Y0240942D01*
X0115917Y0240837D01*
X0116153Y0240727D01*
X0116387Y0240611D01*
X0116617Y0240489D01*
X0116845Y0240362D01*
X0117069Y0240229D01*
X0117290Y0240090D01*
X0117508Y0239947D01*
X0117722Y0239798D01*
X0117932Y0239643D01*
X0118139Y0239484D01*
X0118342Y0239320D01*
X0118540Y0239151D01*
X0118734Y0238977D01*
X0118924Y0238798D01*
X0119110Y0238614D01*
X0119291Y0238427D01*
X0119467Y0238235D01*
X0119639Y0238038D01*
X0119806Y0237838D01*
X0119967Y0237633D01*
X0120124Y0237424D01*
X0120276Y0237212D01*
X0120422Y0236996D01*
X0120563Y0236777D01*
X0120699Y0236554D01*
X0120829Y0236328D01*
X0120953Y0236099D01*
X0121072Y0235867D01*
X0121185Y0235632D01*
X0121293Y0235394D01*
X0121394Y0235154D01*
X0121490Y0234911D01*
X0121580Y0234666D01*
X0121663Y0234419D01*
X0121741Y0234170D01*
X0121812Y0233919D01*
X0121878Y0233667D01*
X0121937Y0233413D01*
X0121989Y0233157D01*
X0122036Y0232900D01*
X0122076Y0232643D01*
X0122110Y0232384D01*
X0122138Y0232125D01*
X0122159Y0231865D01*
X0122174Y0231604D01*
X0122183Y0231344D01*
X0122185Y0231083D01*
X0122181Y0230822D01*
X0122170Y0230562D01*
X0122153Y0230301D01*
X0122130Y0230041D01*
X0122100Y0229782D01*
X0122064Y0229524D01*
X0122022Y0229267D01*
X0121973Y0229010D01*
X0121918Y0228755D01*
X0121857Y0228502D01*
X0121790Y0228250D01*
X0121716Y0228000D01*
X0121637Y0227751D01*
X0121551Y0227505D01*
X0121460Y0227261D01*
X0121362Y0227019D01*
X0121259Y0226779D01*
X0121149Y0226542D01*
X0121034Y0226308D01*
X0120914Y0226077D01*
X0120787Y0225849D01*
X0120656Y0225624D01*
X0120518Y0225402D01*
X0120375Y0225184D01*
X0120227Y0224969D01*
X0120074Y0224758D01*
X0119916Y0224551D01*
X0119872Y0224585D01*
X0120029Y0224792D01*
X0120182Y0225001D01*
X0120329Y0225215D01*
X0120471Y0225432D01*
X0120608Y0225653D01*
X0120739Y0225877D01*
X0120864Y0226104D01*
X0120985Y0226334D01*
X0121099Y0226567D01*
X0121208Y0226802D01*
X0121311Y0227040D01*
X0121408Y0227281D01*
X0121499Y0227524D01*
X0121584Y0227769D01*
X0121663Y0228016D01*
X0121736Y0228265D01*
X0121803Y0228516D01*
X0121864Y0228768D01*
X0121918Y0229022D01*
X0121967Y0229276D01*
X0122009Y0229532D01*
X0122045Y0229789D01*
X0122074Y0230047D01*
X0122097Y0230306D01*
X0122114Y0230565D01*
X0122125Y0230824D01*
X0122129Y0231083D01*
X0122127Y0231343D01*
X0122118Y0231602D01*
X0122103Y0231861D01*
X0122082Y0232120D01*
X0122055Y0232378D01*
X0122021Y0232635D01*
X0121981Y0232891D01*
X0121935Y0233146D01*
X0121882Y0233401D01*
X0121823Y0233653D01*
X0121758Y0233904D01*
X0121687Y0234154D01*
X0121610Y0234402D01*
X0121527Y0234647D01*
X0121438Y0234891D01*
X0121342Y0235132D01*
X0121241Y0235371D01*
X0121135Y0235608D01*
X0121022Y0235842D01*
X0120904Y0236073D01*
X0120780Y0236301D01*
X0120650Y0236525D01*
X0120516Y0236747D01*
X0120375Y0236965D01*
X0120230Y0237180D01*
X0120079Y0237391D01*
X0119923Y0237599D01*
X0119762Y0237802D01*
X0119596Y0238002D01*
X0119426Y0238197D01*
X0119250Y0238388D01*
X0119070Y0238575D01*
X0118886Y0238757D01*
X0118697Y0238935D01*
X0118503Y0239108D01*
X0118306Y0239277D01*
X0118104Y0239440D01*
X0117899Y0239599D01*
X0117690Y0239752D01*
X0117477Y0239900D01*
X0117260Y0240043D01*
X0117040Y0240181D01*
X0116817Y0240313D01*
X0116591Y0240440D01*
X0116361Y0240561D01*
X0116129Y0240676D01*
X0115894Y0240786D01*
X0115656Y0240890D01*
X0115416Y0240988D01*
X0115173Y0241080D01*
X0114929Y0241167D01*
X0114682Y0241247D01*
X0114665Y0241193D01*
X0114911Y0241113D01*
X0115154Y0241028D01*
X0115395Y0240936D01*
X0115634Y0240838D01*
X0115871Y0240735D01*
X0116105Y0240626D01*
X0116336Y0240511D01*
X0116564Y0240390D01*
X0116789Y0240264D01*
X0117011Y0240133D01*
X0117230Y0239996D01*
X0117445Y0239854D01*
X0117657Y0239706D01*
X0117865Y0239554D01*
X0118070Y0239396D01*
X0118270Y0239234D01*
X0118467Y0239066D01*
X0118659Y0238894D01*
X0118847Y0238717D01*
X0119030Y0238536D01*
X0119209Y0238350D01*
X0119384Y0238160D01*
X0119554Y0237965D01*
X0119719Y0237767D01*
X0119879Y0237564D01*
X0120034Y0237358D01*
X0120184Y0237148D01*
X0120329Y0236934D01*
X0120468Y0236717D01*
X0120602Y0236497D01*
X0120731Y0236273D01*
X0120854Y0236046D01*
X0120972Y0235817D01*
X0121084Y0235584D01*
X0121190Y0235349D01*
X0121291Y0235111D01*
X0121385Y0234871D01*
X0121474Y0234629D01*
X0121557Y0234384D01*
X0121633Y0234138D01*
X0121704Y0233890D01*
X0121769Y0233640D01*
X0121827Y0233389D01*
X0121880Y0233136D01*
X0121926Y0232882D01*
X0121966Y0232627D01*
X0121999Y0232371D01*
X0122026Y0232114D01*
X0122048Y0231857D01*
X0122062Y0231600D01*
X0122071Y0231342D01*
X0122073Y0231083D01*
X0122069Y0230825D01*
X0122058Y0230568D01*
X0122041Y0230310D01*
X0122018Y0230053D01*
X0121989Y0229797D01*
X0121953Y0229541D01*
X0121911Y0229286D01*
X0121863Y0229033D01*
X0121809Y0228780D01*
X0121749Y0228530D01*
X0121682Y0228280D01*
X0121609Y0228033D01*
X0121531Y0227787D01*
X0121446Y0227543D01*
X0121355Y0227301D01*
X0121259Y0227062D01*
X0121157Y0226825D01*
X0121048Y0226591D01*
X0120935Y0226359D01*
X0120815Y0226130D01*
X0120690Y0225905D01*
X0120560Y0225682D01*
X0120424Y0225462D01*
X0120283Y0225246D01*
X0120136Y0225034D01*
X0119985Y0224825D01*
X0119828Y0224620D01*
X0119784Y0224655D01*
X0119940Y0224859D01*
X0120091Y0225066D01*
X0120236Y0225278D01*
X0120377Y0225493D01*
X0120512Y0225711D01*
X0120642Y0225932D01*
X0120766Y0226157D01*
X0120885Y0226384D01*
X0120998Y0226615D01*
X0121105Y0226848D01*
X0121207Y0227084D01*
X0121303Y0227322D01*
X0121393Y0227562D01*
X0121478Y0227805D01*
X0121556Y0228049D01*
X0121628Y0228295D01*
X0121694Y0228543D01*
X0121755Y0228793D01*
X0121809Y0229044D01*
X0121856Y0229296D01*
X0121898Y0229549D01*
X0121933Y0229804D01*
X0121963Y0230059D01*
X0121986Y0230314D01*
X0122002Y0230571D01*
X0122013Y0230827D01*
X0122017Y0231084D01*
X0122015Y0231340D01*
X0122006Y0231597D01*
X0121992Y0231853D01*
X0121971Y0232109D01*
X0121944Y0232364D01*
X0121910Y0232619D01*
X0121870Y0232873D01*
X0121825Y0233125D01*
X0121773Y0233377D01*
X0121714Y0233627D01*
X0121650Y0233875D01*
X0121580Y0234122D01*
X0121503Y0234367D01*
X0121421Y0234610D01*
X0121333Y0234851D01*
X0121239Y0235090D01*
X0121139Y0235327D01*
X0121033Y0235561D01*
X0120922Y0235792D01*
X0120805Y0236020D01*
X0120682Y0236246D01*
X0120554Y0236468D01*
X0120421Y0236688D01*
X0120282Y0236904D01*
X0120138Y0237116D01*
X0119989Y0237325D01*
X0119834Y0237530D01*
X0119675Y0237732D01*
X0119511Y0237929D01*
X0119342Y0238122D01*
X0119169Y0238311D01*
X0118991Y0238496D01*
X0118808Y0238677D01*
X0118621Y0238853D01*
X0118430Y0239024D01*
X0118234Y0239190D01*
X0118035Y0239352D01*
X0117832Y0239509D01*
X0117625Y0239661D01*
X0117414Y0239807D01*
X0117200Y0239949D01*
X0116982Y0240085D01*
X0116761Y0240216D01*
X0116537Y0240341D01*
X0116310Y0240461D01*
X0116080Y0240575D01*
X0115848Y0240684D01*
X0115613Y0240787D01*
X0115375Y0240884D01*
X0115135Y0240975D01*
X0114893Y0241060D01*
X0114649Y0241140D01*
X0114632Y0241086D01*
X0114875Y0241007D01*
X0115116Y0240922D01*
X0115355Y0240832D01*
X0115591Y0240735D01*
X0115825Y0240633D01*
X0116056Y0240525D01*
X0116285Y0240411D01*
X0116511Y0240292D01*
X0116733Y0240167D01*
X0116953Y0240037D01*
X0117170Y0239902D01*
X0117383Y0239761D01*
X0117592Y0239615D01*
X0117798Y0239464D01*
X0118000Y0239308D01*
X0118199Y0239147D01*
X0118393Y0238982D01*
X0118583Y0238811D01*
X0118769Y0238636D01*
X0118951Y0238457D01*
X0119128Y0238273D01*
X0119301Y0238085D01*
X0119469Y0237893D01*
X0119632Y0237696D01*
X0119790Y0237496D01*
X0119944Y0237292D01*
X0120092Y0237084D01*
X0120235Y0236873D01*
X0120373Y0236658D01*
X0120506Y0236440D01*
X0120633Y0236218D01*
X0120755Y0235994D01*
X0120872Y0235767D01*
X0120982Y0235537D01*
X0121088Y0235304D01*
X0121187Y0235069D01*
X0121281Y0234831D01*
X0121368Y0234592D01*
X0121450Y0234350D01*
X0121526Y0234106D01*
X0121596Y0233860D01*
X0121660Y0233613D01*
X0121718Y0233365D01*
X0121770Y0233114D01*
X0121815Y0232863D01*
X0121855Y0232611D01*
X0121888Y0232358D01*
X0121915Y0232104D01*
X0121936Y0231849D01*
X0121950Y0231595D01*
X0121959Y0231339D01*
X0121961Y0231084D01*
X0121957Y0230829D01*
X0121946Y0230574D01*
X0121930Y0230319D01*
X0121907Y0230065D01*
X0121878Y0229811D01*
X0121843Y0229558D01*
X0121801Y0229306D01*
X0121754Y0229055D01*
X0121700Y0228806D01*
X0121640Y0228557D01*
X0121574Y0228311D01*
X0121502Y0228066D01*
X0121425Y0227822D01*
X0121341Y0227581D01*
X0121251Y0227342D01*
X0121156Y0227105D01*
X0121054Y0226871D01*
X0120947Y0226639D01*
X0120835Y0226410D01*
X0120717Y0226184D01*
X0120593Y0225960D01*
X0120464Y0225740D01*
X0120329Y0225523D01*
X0120190Y0225309D01*
X0120045Y0225099D01*
X0119895Y0224892D01*
X0119740Y0224689D01*
X0119696Y0224724D01*
X0119850Y0224926D01*
X0119999Y0225131D01*
X0120143Y0225340D01*
X0120282Y0225553D01*
X0120416Y0225769D01*
X0120544Y0225988D01*
X0120667Y0226210D01*
X0120785Y0226435D01*
X0120897Y0226663D01*
X0121003Y0226894D01*
X0121104Y0227127D01*
X0121199Y0227363D01*
X0121288Y0227600D01*
X0121371Y0227840D01*
X0121449Y0228082D01*
X0121520Y0228326D01*
X0121586Y0228571D01*
X0121645Y0228818D01*
X0121699Y0229066D01*
X0121746Y0229316D01*
X0121787Y0229566D01*
X0121822Y0229818D01*
X0121851Y0230070D01*
X0121874Y0230323D01*
X0121891Y0230577D01*
X0121901Y0230830D01*
X0121905Y0231084D01*
X0121903Y0231338D01*
X0121894Y0231592D01*
X0121880Y0231846D01*
X0121859Y0232099D01*
X0121832Y0232351D01*
X0121799Y0232603D01*
X0121760Y0232854D01*
X0121715Y0233104D01*
X0121663Y0233353D01*
X0121606Y0233600D01*
X0121542Y0233846D01*
X0121472Y0234090D01*
X0121397Y0234332D01*
X0121315Y0234573D01*
X0121228Y0234811D01*
X0121135Y0235048D01*
X0121036Y0235282D01*
X0120932Y0235513D01*
X0120821Y0235742D01*
X0120706Y0235968D01*
X0120584Y0236191D01*
X0120458Y0236411D01*
X0120326Y0236628D01*
X0120188Y0236842D01*
X0120046Y0237052D01*
X0119898Y0237259D01*
X0119746Y0237462D01*
X0119588Y0237661D01*
X0119426Y0237856D01*
X0119259Y0238047D01*
X0119087Y0238235D01*
X0118911Y0238417D01*
X0118730Y0238596D01*
X0118545Y0238770D01*
X0118356Y0238939D01*
X0118163Y0239104D01*
X0117966Y0239264D01*
X0117765Y0239419D01*
X0117560Y0239569D01*
X0117351Y0239715D01*
X0117139Y0239854D01*
X0116924Y0239989D01*
X0116706Y0240119D01*
X0116484Y0240243D01*
X0116259Y0240361D01*
X0116032Y0240474D01*
X0115802Y0240582D01*
X0115569Y0240683D01*
X0115334Y0240779D01*
X0115097Y0240870D01*
X0114857Y0240954D01*
X0114616Y0241033D01*
X0114599Y0240979D01*
X0114839Y0240901D01*
X0115078Y0240817D01*
X0115314Y0240727D01*
X0115548Y0240632D01*
X0115779Y0240531D01*
X0116008Y0240424D01*
X0116234Y0240311D01*
X0116457Y0240193D01*
X0116678Y0240070D01*
X0116895Y0239941D01*
X0117109Y0239807D01*
X0117320Y0239668D01*
X0117527Y0239524D01*
X0117731Y0239374D01*
X0117931Y0239220D01*
X0118127Y0239061D01*
X0118319Y0238897D01*
X0118508Y0238729D01*
X0118692Y0238556D01*
X0118871Y0238378D01*
X0119046Y0238196D01*
X0119217Y0238010D01*
X0119383Y0237820D01*
X0119545Y0237626D01*
X0119702Y0237427D01*
X0119853Y0237226D01*
X0120000Y0237020D01*
X0120142Y0236811D01*
X0120278Y0236598D01*
X0120410Y0236383D01*
X0120536Y0236164D01*
X0120656Y0235942D01*
X0120771Y0235717D01*
X0120881Y0235489D01*
X0120985Y0235259D01*
X0121083Y0235027D01*
X0121176Y0234792D01*
X0121263Y0234554D01*
X0121344Y0234315D01*
X0121419Y0234074D01*
X0121488Y0233831D01*
X0121551Y0233587D01*
X0121608Y0233341D01*
X0121660Y0233093D01*
X0121705Y0232845D01*
X0121744Y0232595D01*
X0121777Y0232345D01*
X0121803Y0232094D01*
X0121824Y0231842D01*
X0121839Y0231590D01*
X0121847Y0231337D01*
X0121849Y0231085D01*
X0121845Y0230832D01*
X0121835Y0230580D01*
X0121818Y0230328D01*
X0121796Y0230076D01*
X0121767Y0229825D01*
X0121732Y0229575D01*
X0121691Y0229326D01*
X0121644Y0229078D01*
X0121591Y0228831D01*
X0121532Y0228585D01*
X0121466Y0228341D01*
X0121395Y0228099D01*
X0121318Y0227858D01*
X0121235Y0227619D01*
X0121147Y0227383D01*
X0121052Y0227149D01*
X0120952Y0226917D01*
X0120846Y0226687D01*
X0120735Y0226461D01*
X0120618Y0226237D01*
X0120496Y0226016D01*
X0120368Y0225798D01*
X0120235Y0225583D01*
X0120097Y0225372D01*
X0119954Y0225164D01*
X0119805Y0224959D01*
X0119652Y0224759D01*
X0119608Y0224793D01*
X0119760Y0224993D01*
X0119908Y0225196D01*
X0120051Y0225403D01*
X0120188Y0225613D01*
X0120320Y0225827D01*
X0120447Y0226044D01*
X0120569Y0226263D01*
X0120685Y0226486D01*
X0120796Y0226712D01*
X0120901Y0226940D01*
X0121001Y0227170D01*
X0121095Y0227403D01*
X0121183Y0227639D01*
X0121265Y0227876D01*
X0121342Y0228115D01*
X0121413Y0228356D01*
X0121477Y0228599D01*
X0121536Y0228843D01*
X0121589Y0229089D01*
X0121636Y0229336D01*
X0121677Y0229583D01*
X0121711Y0229832D01*
X0121740Y0230082D01*
X0121762Y0230332D01*
X0121779Y0230583D01*
X0121789Y0230834D01*
X0121793Y0231085D01*
X0121791Y0231336D01*
X0121783Y0231587D01*
X0121768Y0231838D01*
X0121748Y0232088D01*
X0121721Y0232338D01*
X0121688Y0232587D01*
X0121650Y0232835D01*
X0121605Y0233083D01*
X0121554Y0233328D01*
X0121497Y0233573D01*
X0121434Y0233816D01*
X0121365Y0234058D01*
X0121290Y0234298D01*
X0121210Y0234536D01*
X0121123Y0234772D01*
X0121031Y0235005D01*
X0120934Y0235237D01*
X0120830Y0235466D01*
X0120721Y0235692D01*
X0120607Y0235916D01*
X0120487Y0236136D01*
X0120361Y0236354D01*
X0120231Y0236569D01*
X0120095Y0236780D01*
X0119954Y0236988D01*
X0119808Y0237192D01*
X0119657Y0237393D01*
X0119501Y0237590D01*
X0119341Y0237783D01*
X0119176Y0237973D01*
X0119006Y0238158D01*
X0118831Y0238339D01*
X0118653Y0238515D01*
X0118470Y0238687D01*
X0118283Y0238855D01*
X0118091Y0239018D01*
X0117896Y0239176D01*
X0117697Y0239330D01*
X0117495Y0239478D01*
X0117289Y0239622D01*
X0117079Y0239760D01*
X0116866Y0239893D01*
X0116650Y0240021D01*
X0116431Y0240144D01*
X0116209Y0240261D01*
X0115984Y0240373D01*
X0115756Y0240479D01*
X0115526Y0240580D01*
X0115293Y0240675D01*
X0115059Y0240764D01*
X0114822Y0240848D01*
X0114583Y0240926D01*
D19*
X0075799Y0142977D02*
X0076049Y0142726D01*
X0076049Y0142476D01*
X0075799Y0142226D01*
X0076049Y0141976D01*
X0076049Y0141726D01*
X0075799Y0141475D01*
X0075299Y0141475D01*
X0075049Y0141726D01*
X0074576Y0141475D02*
X0074076Y0141976D01*
X0074326Y0141976D02*
X0073575Y0141976D01*
X0073575Y0141475D02*
X0073575Y0142977D01*
X0074326Y0142977D01*
X0074576Y0142726D01*
X0074576Y0142226D01*
X0074326Y0141976D01*
X0075049Y0142726D02*
X0075299Y0142977D01*
X0075799Y0142977D01*
X0075799Y0142226D02*
X0075549Y0142226D01*
X0028849Y0142075D02*
X0027849Y0142075D01*
X0028849Y0143076D01*
X0028849Y0143326D01*
X0028599Y0143577D01*
X0028099Y0143577D01*
X0027849Y0143326D01*
X0027376Y0143326D02*
X0027376Y0142826D01*
X0027126Y0142576D01*
X0026375Y0142576D01*
X0026375Y0142075D02*
X0026375Y0143577D01*
X0027126Y0143577D01*
X0027376Y0143326D01*
X0026876Y0142576D02*
X0027376Y0142075D01*
X0221975Y0063277D02*
X0221975Y0061775D01*
X0221975Y0062276D02*
X0222726Y0062276D01*
X0222976Y0062526D01*
X0222976Y0063026D01*
X0222726Y0063277D01*
X0221975Y0063277D01*
X0222476Y0062276D02*
X0222976Y0061775D01*
X0223449Y0062526D02*
X0224199Y0063277D01*
X0224199Y0061775D01*
X0224449Y0062526D02*
X0223449Y0062526D01*
X0248274Y0041803D02*
X0248274Y0040802D01*
X0249025Y0040802D01*
X0248775Y0041303D01*
X0248775Y0041553D01*
X0249025Y0041803D01*
X0249525Y0041803D01*
X0249775Y0041553D01*
X0249775Y0041052D01*
X0249525Y0040802D01*
X0249775Y0040330D02*
X0249275Y0039829D01*
X0249275Y0040080D02*
X0249275Y0039329D01*
X0249775Y0039329D02*
X0248274Y0039329D01*
X0248274Y0040080D01*
X0248524Y0040330D01*
X0249025Y0040330D01*
X0249275Y0040080D01*
X0228428Y0361528D02*
X0227487Y0361870D01*
X0227043Y0362032D02*
X0226744Y0362673D01*
X0226979Y0362587D02*
X0226274Y0362844D01*
X0226103Y0362374D02*
X0226616Y0363785D01*
X0227321Y0363528D01*
X0227471Y0363207D01*
X0227300Y0362737D01*
X0226979Y0362587D01*
X0227829Y0362811D02*
X0228471Y0363110D01*
X0227957Y0361699D01*
M02*
