%
M48
M72
T01C0.02400
T02C0.03150
T03C0.03200
T04C0.03543
T05C0.03800
T06C0.03937
T07C0.04000
T08C0.04400
T09C0.12598
%
T01
X240925Y81525
X245925Y196525
X245925Y201525
X153425Y191525
X229675Y287150
X228425Y326525
X168425Y331525
T02
X134818Y145858
X134818Y137984
X134818Y130110
X134818Y122236
X134818Y114362
X134818Y106488
X134818Y98614
X134818Y90740
X134818Y82866
X134818Y74992
X221432Y74992
X221432Y82866
X221432Y90740
X221432Y98614
X221432Y106488
X221432Y114362
X221432Y122236
X221432Y130110
X221432Y137984
X221432Y145858
T03
X106525Y231125
X111525Y238625
X116525Y231125
T04
X73530Y101725
X99121Y101725
X98525Y136425
X68525Y136425
X51325Y137025
X21325Y137025
X216925Y56725
X243225Y47225
X246925Y56725
X243225Y17225
X219630Y359356
X247821Y349095
T05
X209125Y337225
X209125Y327225
X209125Y317225
X209125Y307225
X209125Y297225
X209125Y287225
X209125Y277225
X209125Y267225
X209125Y257225
X209125Y247225
X209125Y237225
X209125Y227225
X199125Y227225
X189125Y227225
X179125Y227225
X169125Y227225
X159125Y227225
X149125Y227225
X149125Y237225
X149125Y247225
X149125Y257225
X149125Y267225
X149125Y277225
X149125Y287225
X149125Y297225
X149125Y307225
X149125Y317225
X149125Y327225
X149125Y337225
X149125Y347225
X149125Y357225
X199125Y347225
X209125Y347225
X209125Y357225
X199125Y327225
X199125Y317225
X199125Y307225
T06
X326925Y188925
X316925Y188925
X306925Y188925
X296925Y188925
X286925Y188925
X276925Y188925
X266925Y188925
X256925Y188925
X246925Y188925
T07
X240652Y334473
X231588Y338699
X222525Y342925
X252025Y301625
X262025Y301625
X272025Y301625
X282025Y301625
X282025Y281625
X282025Y271625
X282025Y261625
X282025Y241625
X272025Y241625
X262025Y241625
X252025Y241625
X314525Y260425
X314525Y270425
X314525Y280425
X105825Y341725
X115825Y341725
X125825Y341725
X135825Y314025
X135825Y304025
X135825Y294025
X135825Y284025
X135825Y274025
X135825Y264025
X135825Y254025
X115025Y212025
X115025Y202025
X115025Y192025
X115025Y182025
X115025Y172025
X115025Y162025
X115025Y152025
X266525Y62625
T08
X86725Y331725
X105125Y324925
X275025Y329625
X301125Y316225
T09
X114825Y34325
X33425Y257025
X256425Y337525
X337825Y114825
M30
